<svg width="57" height="57" viewBox="0 0 57 57" fill="none" xmlns="http://www.w3.org/2000/svg">
<path d="M6.72168 18.509H10.2217V20.259H6.72168V18.509Z" fill="#949494"/>
<path d="M11.9717 14.134H33.8467V15.884H11.9717V14.134Z" fill="#949494"/>
<path d="M6.72168 14.134H10.2217V15.884H6.72168V14.134Z" fill="#949494"/>
<path d="M11.9717 9.75903H26.8467V11.509H11.9717V9.75903Z" fill="#949494"/>
<path d="M6.72168 9.75903H10.2217V11.509H6.72168V9.75903Z" fill="#949494"/>
<path d="M6.72168 22.884H10.2217V24.634H6.72168V22.884Z" fill="#949494"/>
<path d="M6.72168 27.259H10.2217V29.009H6.72168V27.259Z" fill="#949494"/>
<path d="M6.72168 31.634H10.2217V33.384H6.72168V31.634Z" fill="#949494"/>
<path d="M6.72168 36.009H10.2217V37.759H6.72168V36.009Z" fill="#949494"/>
<path d="M53.0967 35.134C53.3287 35.134 53.5513 35.0418 53.7154 34.8778C53.8795 34.7137 53.9717 34.4911 53.9717 34.259V31.634C54.2037 31.634 54.4263 31.5418 54.5904 31.3778C54.7545 31.2137 54.8467 30.9911 54.8467 30.759V28.134C54.8472 27.9843 54.8088 27.8369 54.7352 27.7065C54.6615 27.5761 54.5552 27.4671 54.4267 27.3903L43.4717 20.6878V7.13403C43.4717 6.90197 43.3795 6.67941 43.2154 6.51532C43.0513 6.35122 42.8287 6.25903 42.5967 6.25903H35.0804L30.9679 2.13778C30.8011 1.97661 30.5787 1.88576 30.3467 1.88403H3.22168C2.98962 1.88403 2.76706 1.97622 2.60296 2.14031C2.43887 2.30441 2.34668 2.52697 2.34668 2.75903V49.134C2.34668 49.3661 2.43887 49.5887 2.60296 49.7528C2.76706 49.9168 2.98962 50.009 3.22168 50.009H6.72168V53.509C6.72168 53.7411 6.81387 53.9637 6.97796 54.1278C7.14206 54.2918 7.36461 54.384 7.59668 54.384H42.5967C42.8287 54.384 43.0513 54.2918 43.2154 54.1278C43.3795 53.9637 43.4717 53.7411 43.4717 53.509V51.759H53.9717C54.2037 51.759 54.4263 51.6668 54.5904 51.5028C54.7545 51.3387 54.8467 51.1161 54.8467 50.884V47.384C54.8467 47.152 54.7545 46.9294 54.5904 46.7653C54.4263 46.6012 54.2037 46.509 53.9717 46.509H51.3467V35.134H53.0967ZM53.0967 28.624V29.884H23.3467V28.624L38.2217 19.5328L53.0967 28.624ZM41.7217 8.00903V19.6203L39.0967 18.019V10.634C39.0949 10.4021 39.0041 10.1796 38.8429 10.0128L36.8304 8.00903H41.7217ZM31.2217 4.86778L36.1129 9.75903H31.2217V4.86778ZM4.09668 48.259V3.63403H29.4717V10.634C29.4717 10.8661 29.5639 11.0887 29.728 11.2528C29.8921 11.4168 30.1146 11.509 30.3467 11.509H37.3467V18.019L33.8467 20.154V18.509H11.9717V20.259H33.6804L29.3842 22.884H11.9717V24.634H26.5229L22.2267 27.259H11.9717V29.009H21.5967V30.759C21.5967 30.9911 21.6889 31.2137 21.853 31.3778C22.0171 31.5418 22.2396 31.634 22.4717 31.634H11.9717V33.384H22.4717V34.259C22.4717 34.4911 22.5639 34.7137 22.728 34.8778C22.8921 35.0418 23.1146 35.134 23.3467 35.134H25.0967V36.009H11.9717V37.759H25.0967V40.384H11.9717V42.134H25.0967V46.509H22.4717C22.2396 46.509 22.0171 46.6012 21.853 46.7653C21.6889 46.9294 21.5967 47.152 21.5967 47.384V48.259H4.09668ZM41.7217 52.634H8.47168V50.009H21.5967V50.884C21.5967 51.1161 21.6889 51.3387 21.853 51.5028C22.0171 51.6668 22.2396 51.759 22.4717 51.759H41.7217V52.634ZM53.0967 48.259V50.009H23.3467V48.259H53.0967ZM26.8467 46.509V35.134H29.4717V46.509H26.8467ZM31.2217 46.509V35.134H34.7217V46.509H31.2217ZM36.4717 46.509V35.134H39.0967V46.509H36.4717ZM40.8467 46.509V35.134H41.7217V46.509H40.8467ZM43.4717 46.509V35.134H45.2217V46.509H43.4717ZM46.9717 46.509V35.134H49.5967V46.509H46.9717ZM24.2217 33.384V31.634H52.2217V33.384H24.2217Z" fill="#949494"/>
<path d="M35.5967 25.509C35.5967 26.0282 35.7506 26.5357 36.0391 26.9674C36.3275 27.3991 36.7375 27.7355 37.2171 27.9342C37.6968 28.1329 38.2246 28.1849 38.7338 28.0836C39.243 27.9823 39.7107 27.7323 40.0778 27.3652C40.445 26.9981 40.695 26.5304 40.7963 26.0211C40.8975 25.5119 40.8456 24.9841 40.6469 24.5045C40.4482 24.0248 40.1117 23.6149 39.6801 23.3264C39.2484 23.038 38.7409 22.884 38.2217 22.884C37.5255 22.884 36.8578 23.1606 36.3655 23.6529C35.8732 24.1452 35.5967 24.8128 35.5967 25.509ZM39.0967 25.509C39.0967 25.6821 39.0454 25.8513 38.9492 25.9952C38.8531 26.1391 38.7164 26.2512 38.5565 26.3174C38.3966 26.3837 38.2207 26.401 38.051 26.3672C37.8812 26.3335 37.7253 26.2501 37.603 26.1278C37.4806 26.0054 37.3973 25.8495 37.3635 25.6797C37.3297 25.51 37.3471 25.3341 37.4133 25.1742C37.4795 25.0143 37.5917 24.8776 37.7356 24.7815C37.8795 24.6854 38.0486 24.634 38.2217 24.634C38.4537 24.634 38.6763 24.7262 38.8404 24.8903C39.0045 25.0544 39.0967 25.277 39.0967 25.509Z" fill="#949494"/>
</svg>
