<svg width="57" height="57" viewBox="0 0 57 57" fill="none" xmlns="http://www.w3.org/2000/svg">
<path fill-rule="evenodd" clip-rule="evenodd" d="M33.5787 2.59455L38.5853 7.60073H56.0908V31.8674H16.8908V19.9514C14.9954 19.8822 13.1557 19.2897 11.5756 18.2406L11.011 17.8674H9.42415V20.6674H0.0908203V0.134067H9.42415V1.93283L10.3725 1.9661C10.8415 1.98478 11.3072 1.88407 11.7265 1.67306L13.8183 0.62671C14.4668 0.304054 15.1809 0.134979 15.9051 0.134067H27.6392C29.8681 0.127687 32.0069 1.01362 33.5787 2.59455ZM1.95749 18.8007H7.55748V2.00073H1.95749V18.8007ZM11.5706 16.0007L12.6088 16.6875C13.8825 17.5333 15.3632 18.016 16.8908 18.0839V13.574C16.2036 13.3215 15.5614 12.9596 14.9895 12.5025L14.4426 12.0591L15.6189 10.609L16.1598 11.0474C18.0092 12.5258 20.6465 12.4866 22.4507 10.9544L23.1042 10.3943L28.6108 15.9009C29.3431 16.6301 30.528 16.6278 31.2577 15.8954C31.9868 15.1626 31.9845 13.9777 31.2522 13.2486L24.6592 6.65509L25.9785 5.33576L28.2439 7.60073H35.9457L32.2589 3.91388C31.0366 2.68478 29.3728 1.99572 27.6392 2.00073H15.9051C15.4698 2.00073 15.0401 2.1019 14.6509 2.2965L12.5609 3.34285C11.8614 3.69149 11.0857 3.85965 10.3042 3.83185L9.42415 3.80041V16.0007H11.5706ZM27.2937 17.2225L25.8855 15.8139C25.031 16.863 23.8247 17.5652 22.4908 17.7899V21.6782C24.8392 22.0797 26.6785 23.919 27.08 26.2674H45.9016C46.3031 23.919 48.1424 22.0797 50.4908 21.6782V17.7899C48.1424 17.3884 46.3031 15.5491 45.9016 13.2007H33.4032C33.8489 14.3013 33.735 15.5491 33.0974 16.5503C34.8288 14.7128 37.6998 14.562 39.6144 16.2081C41.5293 17.8542 41.8105 20.7152 40.2533 22.7031C38.6961 24.6906 35.8509 25.1021 33.7942 23.6369C31.7375 22.1717 31.197 19.3485 32.567 17.2271C31.1027 18.6649 28.7557 18.6626 27.2937 17.2225ZM36.4908 16.9341C34.9445 16.9341 33.6908 18.1878 33.6908 19.7341C33.6908 21.2803 34.9445 22.534 36.4908 22.534C38.0371 22.534 39.2908 21.2803 39.2908 19.7341C39.2908 18.1878 38.0371 16.9341 36.4908 16.9341ZM18.7575 30.0007H54.2241V9.46739H30.1106L31.9773 11.3341H47.6908V12.2674C47.6908 14.3291 49.3624 16.0007 51.4241 16.0007H52.3574V23.4674H51.4241C49.3624 23.4674 47.6908 25.139 47.6908 27.2007V28.134H25.2908V27.2007C25.2908 25.139 23.6192 23.4674 21.5575 23.4674H20.6241V16.0007H21.5575C22.7392 15.9984 23.8493 15.4356 24.5498 14.4841L22.9575 12.8917C21.7124 13.6988 20.2372 14.0762 18.7575 13.965V30.0007ZM44.3804 39.0633L46.7575 40.4875V37.4674H56.0908V56.134H46.7575V54.7258L44.019 55.8073C43.4731 56.0233 42.8911 56.1345 42.3037 56.134H29.1531C28.285 56.134 27.4346 55.892 26.6963 55.4349L9.70401 45.2681C8.55375 44.6018 7.8492 43.3695 7.85922 42.0397C7.85922 41.3885 8.02921 40.7482 8.35278 40.1826C8.72283 39.5332 9.28201 39.0118 9.95603 38.6892C10.2545 38.5415 10.5722 38.4372 10.8998 38.3793C11.7685 38.2125 12.6685 38.3611 13.4373 38.7986L22.9183 43.9278C23.3312 42.7771 24.2778 41.8993 25.4563 41.574L36.2352 38.6805C36.9434 38.4937 37.6725 38.3993 38.4049 38.4007H41.9824C42.8268 38.4012 43.6558 38.6299 44.3804 39.0633ZM42.3064 54.2674C42.6578 54.2669 43.0064 54.2004 43.3332 54.0714L46.7575 52.7179V42.6631L43.4207 40.6652C42.9863 40.405 42.4891 40.2674 41.9824 40.2674H38.4049C37.8357 40.2674 37.2688 40.3421 36.7187 40.4893L25.9444 43.3718C25.1892 43.5819 24.6423 44.2372 24.5713 45.0179C24.564 45.0972 24.5713 45.3232 24.5713 45.3232C24.5776 45.4399 24.5954 45.5557 24.6255 45.6687C24.8474 46.4817 25.5866 47.045 26.4297 47.0436C26.5432 47.034 27.0923 46.9219 27.518 46.824L37.1835 44.2404L37.6648 46.0437L27.9678 48.6387C27.4638 48.7736 26.9492 48.8656 26.4297 48.913C24.7412 48.9112 23.2633 47.7796 22.8213 46.1504C22.8128 46.1185 22.8091 46.0869 22.8054 46.0553C22.8025 46.0304 22.7996 46.0055 22.7944 45.9804L12.5136 40.4251C12.2351 40.2656 11.9198 40.1817 11.5989 40.1826C11.4791 40.1826 11.3592 40.194 11.2412 40.2159C11.0794 40.2441 10.9226 40.2952 10.7745 40.3672C10.4386 40.5267 10.1588 40.7851 9.97289 41.1073C9.8102 41.3917 9.72406 41.7134 9.7227 42.0406C9.71814 42.7083 10.0722 43.3271 10.6506 43.6612L27.6661 53.8399C28.1118 54.1188 28.6272 54.2669 29.1531 54.2674H42.3064ZM54.2242 39.334H48.6242V54.2674H54.2242V39.334Z" fill="#949494"/>
</svg>
