<svg width="74" height="75" viewBox="0 0 74 75" fill="none" xmlns="http://www.w3.org/2000/svg">
<g clip-path="url(#clip0)">
<rect y="0.952271" width="74" height="74" rx="7" fill="#FFCB00"/>
<path fill-rule="evenodd" clip-rule="evenodd" d="M37.8693 18.336C41.2977 21.4488 47.8343 22.6719 52.7256 22.8755C53.4213 22.9044 53.9662 23.4721 53.9662 24.168V37.546C53.9662 44.4657 50.2271 50.8847 44.2079 54.298L38.2703 57.6651C37.4801 58.1131 36.5148 58.1103 35.7297 57.6651L29.7921 54.298C23.7729 50.8846 20.0338 44.4657 20.0338 37.546V35.0027C20.0338 34.6791 20.296 34.4168 20.6197 34.4168C20.9434 34.4168 21.2056 34.6791 21.2056 35.0027V37.546C21.2056 44.0446 24.7172 50.0729 30.37 53.2786L36.3076 56.6457C36.7291 56.8847 37.2708 56.8848 37.6923 56.6457L43.6299 53.2786C49.2828 50.0729 52.7943 44.0446 52.7943 37.546V24.168C52.7943 24.1025 52.7428 24.0491 52.6769 24.0464C47.6356 23.8364 40.7698 22.5524 37.0814 19.2035C37.035 19.1613 36.9653 19.1612 36.9186 19.2035C33.8877 21.9556 28.0576 23.766 21.3231 24.0464C21.2572 24.0492 21.2056 24.1025 21.2056 24.168V32.2683C21.2056 32.5919 20.9434 32.8543 20.6197 32.8543C20.296 32.8543 20.0338 32.5919 20.0338 32.2683V24.168C20.0338 23.4722 20.5787 22.9045 21.2744 22.8755C27.6465 22.6103 33.3393 20.8708 36.1308 18.3359C36.3695 18.1193 36.6782 18 37.0001 18C37.322 18 37.6307 18.1193 37.8693 18.336ZM39.3903 46.66H30.547C29.443 46.66 28.5447 45.7617 28.5447 44.6576V35.411C28.5447 34.3069 29.443 33.4086 30.5471 33.4086H30.7445V32.173C30.7445 28.7237 33.5507 25.9175 37 25.9175C40.4492 25.9175 43.2554 28.7237 43.2554 32.173V33.4086H43.4528C44.5569 33.4086 45.4552 34.3069 45.4552 35.411V44.6576C45.4552 45.7617 44.5569 46.66 43.4528 46.66H42.1247C41.801 46.66 41.5387 46.3976 41.5387 46.074C41.5387 45.7504 41.801 45.4881 42.1247 45.4881H43.4528C43.9108 45.4881 44.2833 45.1155 44.2833 44.6576V35.411C44.2833 34.9531 43.9108 34.5805 43.4528 34.5805H30.547C30.0891 34.5805 29.7165 34.9531 29.7165 35.411V44.6576C29.7165 45.1155 30.0891 45.4881 30.547 45.4881H39.3903C39.714 45.4881 39.9762 45.7504 39.9762 46.074C39.9762 46.3976 39.714 46.66 39.3903 46.66ZM34.1435 33.4086H39.8565H39.8565V32.173C39.8565 30.5979 38.5751 29.3165 37 29.3165C35.425 29.3165 34.1435 30.5979 34.1435 32.173V33.4086ZM37 27.0894C34.1969 27.0894 31.9164 29.3699 31.9164 32.173V33.4086H32.9715V32.173C32.9715 29.9517 34.7786 28.1446 36.9999 28.1446C39.2211 28.1446 41.0283 29.9517 41.0283 32.173V33.4086H42.0835V32.173C42.0835 29.3698 39.803 27.0894 37 27.0894ZM36.9999 44.2793C37.8882 44.2793 38.6109 43.5567 38.6109 42.6683V40.6212C39.2467 40.1269 39.6299 39.3586 39.6299 38.5431C39.6299 37.093 38.4501 35.9131 36.9999 35.9131C35.5498 35.9131 34.3699 37.093 34.3699 38.5431C34.3699 39.3744 34.754 40.1289 35.3889 40.6214V42.6683C35.3889 43.5566 36.1116 44.2793 36.9999 44.2793ZM36.9999 37.0851C37.8039 37.0851 38.458 37.7392 38.458 38.5432C38.458 39.0607 38.1794 39.5441 37.7306 39.8047C37.5501 39.9096 37.4391 40.1026 37.4391 40.3113V42.6683C37.4391 42.9104 37.2421 43.1074 36.9999 43.1074C36.7577 43.1074 36.5608 42.9105 36.5608 42.6683V40.3113C36.5608 40.1026 36.4497 39.9096 36.2692 39.8047C35.8353 39.5527 35.5418 39.085 35.5418 38.5432C35.5418 37.7392 36.1959 37.0851 36.9999 37.0851ZM36.3879 54.5828L31.3321 51.7158C26.2306 48.8228 23.0615 43.3824 23.0614 37.5177V26.9364C23.0614 26.3058 23.5337 25.7762 24.1599 25.7044C29.0352 25.1452 33.2516 23.8439 36.3531 21.9409C36.752 21.6962 37.2479 21.6961 37.647 21.9409C40.7484 23.8439 44.9647 25.1452 49.84 25.7044C50.4662 25.7762 50.9385 26.3059 50.9385 26.9364V37.5177C50.9385 43.3824 47.7694 48.8228 42.6678 51.7158L37.6119 54.5829C37.2343 54.7972 36.7652 54.7969 36.3879 54.5828ZM24.2934 26.8686C24.2591 26.8726 24.2334 26.9017 24.2334 26.9364V37.5176C24.2334 42.9612 27.175 48.011 31.9102 50.6964L36.9661 53.5634C36.987 53.5753 37.0128 53.5754 37.0338 53.5635L42.0898 50.6964C46.8251 48.011 49.7667 42.9612 49.7667 37.5176V26.9363C49.7667 26.9017 49.7408 26.8725 49.7066 26.8686C44.6624 26.2902 40.2804 24.9316 37.0342 22.9398C37.0133 22.9269 36.9871 22.9268 36.9661 22.9398C33.7197 24.9316 29.3375 26.2902 24.2934 26.8686Z" fill="black"/>
</g>
<defs>
<clipPath id="clip0">
<rect width="74" height="74" fill="white" transform="translate(0 0.952271)"/>
</clipPath>
</defs>
</svg>
