<svg width="74" height="75" viewBox="0 0 74 75" fill="none" xmlns="http://www.w3.org/2000/svg">
<g clip-path="url(#clip0)">
<rect y="0.141846" width="74" height="74" rx="7" fill="#FFCB00"/>
<path fill-rule="evenodd" clip-rule="evenodd" d="M41.673 21.3553C44.2496 23.4622 45.9291 26.4697 46.3712 29.7685C48.5222 30.0564 50.5681 30.8734 52.3258 32.1463C54.0834 33.4192 55.4979 35.1082 56.4424 37.0621C57.3869 39.0159 57.832 41.1736 57.7377 43.3417C57.6435 45.5098 57.0129 47.6207 55.9024 49.4852C54.7919 51.3497 53.2362 52.9096 51.3748 54.0252C49.5133 55.1408 47.4042 55.7772 45.2363 55.8773C43.0684 55.9775 40.9096 55.5383 38.9532 54.5992C36.9968 53.66 35.3039 52.2502 34.0262 50.496L28.8168 55.7054C28.6996 55.8226 28.5407 55.8884 28.3749 55.8884C28.2092 55.8884 28.0503 55.8226 27.933 55.7054L22.2637 50.036C21.6231 49.3991 21.1153 48.6414 20.7697 47.8069C20.424 46.9723 20.2473 46.0775 20.2499 45.1742V39.6385C20.2499 39.5152 20.2864 39.3946 20.3548 39.2919C20.4232 39.1893 20.5204 39.1091 20.6343 39.0617L22.2112 38.4048C20.9257 36.3363 20.2463 33.9488 20.2499 31.5135C20.2493 28.1852 21.5138 24.981 23.7873 22.5501C26.0608 20.1192 29.1733 18.6434 32.4942 18.4215C35.8152 18.1997 39.0963 19.2484 41.673 21.3553ZM44.9032 29.6512C44.9669 29.6556 45.0306 29.66 45.0949 29.6623C44.7036 27.1049 43.4819 24.7472 41.6181 22.9529C40.7401 23.6653 39.7738 24.2613 38.7431 24.726C39.2699 26.6581 39.5593 28.6471 39.6049 30.6491C41.1951 29.9842 42.9013 29.6407 44.6249 29.6385C44.7188 29.6385 44.811 29.6449 44.9032 29.6512L44.9032 29.6512ZM28.3893 32.1385C28.4166 33.4334 28.543 34.7242 28.7674 35.9998L32.5712 37.5848C33.5097 35.4068 35.0218 33.5245 36.9462 32.1385H28.3893ZM37.2087 23.9898C36.2312 21.2529 34.7762 19.6385 33.3749 19.6385C31.9737 19.6385 30.5187 21.2529 29.5412 23.9898C30.7746 24.4159 32.07 24.6351 33.3749 24.6385C34.6799 24.6351 35.9753 24.4159 37.2087 23.9898ZM26.1112 22.1385C26.8159 22.6867 27.5801 23.1538 28.3893 23.531C28.8108 22.2705 29.4526 21.0948 30.2849 20.0585C28.7695 20.4681 27.3506 21.1751 26.1112 22.1385ZM36.4526 20.0456C37.2908 21.0847 37.9369 22.265 38.3606 23.531C39.1795 23.1495 39.9524 22.6761 40.6643 22.1198C39.4136 21.1531 37.9813 20.4478 36.4526 20.0456ZM37.5818 25.1816C36.2276 25.6459 34.8065 25.8847 33.3749 25.8885C31.9434 25.8847 30.5222 25.6459 29.168 25.1816C28.6767 27.0451 28.4152 28.9616 28.3893 30.8885H38.3606C38.3347 28.9616 38.0732 27.0451 37.5818 25.1816ZM28.0068 24.726C26.9829 24.2647 26.0224 23.6741 25.1487 22.9685C22.9801 25.0528 21.6868 27.8847 21.5318 30.8885H27.1393C27.1686 28.8061 27.4601 26.7356 28.0068 24.726ZM27.1393 32.1385H21.5237C21.6267 34.1942 22.2679 36.1867 23.383 37.9166L27.5318 36.1879C27.298 34.8501 27.1667 33.4963 27.1393 32.1385ZM23.1474 49.1523L28.3749 54.3798L33.6024 49.1523C34.1264 48.631 34.5418 48.0111 34.8246 47.3282C35.1074 46.6454 35.252 45.9132 35.2499 45.1742V40.0554L28.3749 37.1904L21.4999 40.0554V45.1742C21.4979 45.9132 21.6424 46.6454 21.9252 47.3282C22.208 48.0111 22.6234 48.631 23.1474 49.1523ZM36.4999 39.6385V42.1385H37.7499V43.3885H36.4999V45.1742C36.4983 45.7827 36.4161 46.3884 36.2556 46.9754C37.2143 48.8803 38.7937 50.4014 40.7334 51.2877C42.673 52.1741 44.8569 52.3726 46.9245 51.8506C48.9922 51.3286 50.8201 50.1173 52.1066 48.4165C53.3931 46.7158 54.0614 44.6272 54.001 42.4955C53.9407 40.3638 53.1554 38.3164 51.7747 36.6912C50.3941 35.0659 48.5005 33.9599 46.4067 33.5557C44.3128 33.1515 42.1437 33.4733 40.2573 34.4679C38.3709 35.4625 36.88 37.0706 36.0306 39.0267L36.1156 39.0617C36.2294 39.1091 36.3266 39.1893 36.395 39.2919C36.4634 39.3946 36.4999 39.5152 36.4999 39.6385ZM39.1428 53.3006C40.8352 54.1829 42.7163 54.642 44.6249 54.6385C46.7683 54.6388 48.8718 54.0589 50.7123 52.9605C52.5528 51.862 54.0617 50.2859 55.0789 48.3992C56.0961 46.5126 56.5837 44.3859 56.4901 42.2445C56.3964 40.1032 55.7249 38.0272 54.5468 36.2366C53.3687 34.446 51.728 33.0077 49.7986 32.0741C47.8692 31.1405 45.7231 30.7466 43.588 30.934C41.4528 31.1214 39.4082 31.8833 37.6709 33.1387C35.9337 34.3941 34.5687 36.0963 33.7206 38.0648L34.8749 38.546C35.8149 36.3693 37.4563 34.5696 39.5375 33.4338C41.6188 32.298 44.0203 31.8912 46.3595 32.2784C48.6988 32.6656 50.8412 33.8244 52.4455 35.5702C54.0498 37.3161 55.0238 39.5486 55.2123 41.9121C55.4008 44.2756 54.793 46.6343 53.4857 48.6124C52.1784 50.5904 50.2467 52.0742 47.9984 52.8272C45.7501 53.5803 43.3145 53.5593 41.0795 52.7677C38.8445 51.9761 36.9387 50.4594 35.6656 48.4592C35.4498 48.8542 35.1957 49.2271 34.9068 49.5723C35.9968 51.139 37.4503 52.4183 39.1428 53.3006ZM43.9999 47.1385H39.6249C39.4592 47.1385 39.3002 47.0726 39.183 46.9554C39.0658 46.8382 38.9999 46.6792 38.9999 46.5135V42.7635C38.9999 42.5977 39.0658 42.4388 39.183 42.3215C39.3002 42.2043 39.4592 42.1385 39.6249 42.1385H42.7499V39.6385H38.9999V38.3885H43.3749C43.5407 38.3885 43.6997 38.4543 43.8169 38.5715C43.9341 38.6888 43.9999 38.8477 43.9999 39.0135V42.7635C43.9999 42.9292 43.9341 43.0882 43.8169 43.2054C43.6997 43.3226 43.5407 43.3885 43.3749 43.3885H40.2499V45.8885H43.9999V47.1385ZM45.2499 38.3885V42.7635C45.2499 42.9292 45.3158 43.0882 45.433 43.2054C45.5502 43.3226 45.7092 43.3885 45.8749 43.3885H48.9999V47.1385H50.2499V38.3885H48.9999V42.1385H46.4999V38.3885H45.2499ZM43.9999 34.6385H45.2499V35.8885H43.9999V34.6385ZM45.2499 49.6385H43.9999V50.8885H45.2499V49.6385ZM51.4999 42.1385H52.7499V43.3885H51.4999V42.1385ZM27.0487 44.3041L26.1649 45.1879L27.933 46.9554C28.0503 47.0726 28.2092 47.1384 28.3749 47.1384C28.5407 47.1384 28.6996 47.0726 28.8168 46.9554L32.3524 43.4198L31.4687 42.536L28.3749 45.6298L27.0487 44.3041ZM34.52 40.5419C34.5884 40.6445 34.6249 40.7651 34.6249 40.8885V45.1741C34.6266 45.8311 34.498 46.4818 34.2466 47.0888C33.9953 47.6958 33.6261 48.2469 33.1605 48.7104L28.8162 53.0541C28.699 53.1713 28.54 53.2371 28.3743 53.2371C28.2086 53.2371 28.0496 53.1713 27.9324 53.0541L23.5887 48.7104C23.1232 48.2468 22.7541 47.6957 22.5029 47.0887C22.2517 46.4818 22.1232 45.831 22.1249 45.1741V40.8885C22.1249 40.7651 22.1614 40.6445 22.2298 40.5419C22.2982 40.4392 22.3954 40.3591 22.5093 40.3116L28.1343 37.9679C28.2105 37.9361 28.2923 37.9197 28.3749 37.9197C28.4575 37.9197 28.5393 37.9361 28.6155 37.9679L34.2405 40.3116C34.3544 40.3591 34.4516 40.4392 34.52 40.5419ZM33.0913 46.61C33.2798 46.1548 33.3762 45.6668 33.3749 45.1741V41.3054L28.3749 39.2216L23.3749 41.3054V45.1741C23.3737 45.6668 23.4701 46.1548 23.6585 46.61C23.847 47.0651 24.1239 47.4784 24.473 47.826L28.3749 51.7285L32.2768 47.826C32.626 47.4784 32.9028 47.0651 33.0913 46.61Z" fill="black"/>
</g>
<defs>
<clipPath id="clip0">
<rect width="74" height="74" fill="white" transform="translate(0 0.141846)"/>
</clipPath>
</defs>
</svg>
