<svg width="19" height="18" viewBox="0 0 19 18" fill="none" xmlns="http://www.w3.org/2000/svg">
<path d="M14.0749 9.80501C13.6049 9.80501 13.2249 10.185 13.2249 10.655V15.745H2.68486V5.205H7.61786C8.08686 5.205 8.46786 4.824 8.46786 4.355C8.46786 3.886 8.08686 3.505 7.61786 3.505H1.83486C1.36586 3.505 0.984863 3.886 0.984863 4.355V16.595C0.984863 17.065 1.36586 17.445 1.83486 17.445H14.0749C14.5449 17.445 14.9249 17.065 14.9249 16.595V10.656C14.9249 10.186 14.5449 9.80501 14.0749 9.80501Z" fill="white"/>
<path d="M17.252 0.458008H11.02C10.55 0.458008 10.17 0.839008 10.17 1.30801C10.17 1.77701 10.55 2.15801 11.02 2.15801H15.162L7.34901 10.105C7.02001 10.44 7.02401 10.978 7.35901 11.307C7.52501 11.469 7.73901 11.55 7.95501 11.55C8.17501 11.55 8.39501 11.466 8.56101 11.296L16.402 3.32101V7.53901C16.402 8.00801 16.782 8.38901 17.252 8.38901C17.722 8.38901 18.102 8.00801 18.102 7.53901V1.30801C18.102 0.838008 17.722 0.458008 17.252 0.458008Z" fill="white"/>
</svg>
