<svg width="289" height="70" viewBox="0 0 289 70" fill="none" xmlns="http://www.w3.org/2000/svg">
<g clip-path="url(#clip0)">
<path d="M76.9931 28.7964C78.7836 28.7964 80.5742 28.7964 82.3647 30.0218C83.4092 30.7876 84.7521 32.3194 84.7521 34.9233C84.7521 37.8336 82.9616 41.3565 77.8884 41.3565H73.7105V49.3215H70.1294V28.7964H76.9931ZM77.1423 38.4463C77.8884 38.4463 79.0821 38.4463 80.1266 37.5272C80.7234 36.9145 81.171 35.8423 81.171 35.0765C81.171 34.3106 80.8726 33.2384 80.2758 32.7789C79.6789 32.1662 78.6344 32.013 77.4407 32.013H73.8597V38.5994H77.1423V38.4463Z" fill="white"/>
<path d="M88.1837 35.6894C89.2281 34.7703 90.7203 33.8513 92.9584 33.8513C95.1966 33.8513 96.6887 34.7703 97.7332 35.6894C99.2253 37.2211 99.9714 39.3655 99.9714 41.8163C99.9714 44.1139 99.2253 46.4115 97.7332 47.9432C96.6887 48.8622 95.1966 49.7813 92.9584 49.7813C90.7203 49.7813 89.2281 48.8622 88.1837 47.9432C86.6916 46.4115 85.9455 44.267 85.9455 41.8163C85.9455 39.3655 86.6916 37.2211 88.1837 35.6894ZM90.7203 46.1051C91.0187 46.5646 91.7647 47.1773 93.1076 47.1773C94.4505 47.1773 95.1966 46.4115 95.495 46.1051C95.7934 45.7988 96.5395 44.5734 96.5395 41.8163C96.5395 38.906 95.6442 37.8338 95.495 37.5274C95.1966 37.0679 94.4505 36.4552 93.1076 36.4552C91.7647 36.4552 91.0187 37.2211 90.7203 37.5274C90.4218 37.8338 89.6758 39.0592 89.6758 41.8163C89.5266 44.5734 90.4218 45.7988 90.7203 46.1051Z" fill="white"/>
<path d="M111.759 39.6719C111.759 38.906 111.46 37.987 111.013 37.3743C110.714 36.9147 109.968 36.3021 108.774 36.3021C107.581 36.3021 106.835 36.9147 106.387 37.6806C105.641 38.906 105.641 40.8972 105.641 41.6631C105.641 43.0417 105.79 44.7266 106.387 45.6456C106.835 46.2583 107.581 47.0242 108.774 47.0242C109.67 47.0242 110.416 46.7178 110.863 45.952C111.311 45.3393 111.609 44.4202 111.609 43.6544L114.743 44.1139C114.594 45.4924 113.997 47.0242 112.803 48.0964C111.908 48.8622 110.565 49.6281 108.476 49.6281C106.238 49.6281 104.895 48.7091 104 47.9432C102.806 46.871 101.761 44.8797 101.761 41.8163C101.761 38.906 102.657 37.2211 103.552 36.3021C104.596 34.9235 106.536 33.8513 108.625 33.8513C110.416 33.8513 112.057 34.464 112.952 35.5362C113.848 36.4552 114.444 37.987 114.743 39.3655L111.759 39.6719Z" fill="white"/>
<path d="M126.233 39.6719C126.233 38.906 125.935 37.987 125.487 37.3743C125.189 36.9147 124.443 36.3021 123.249 36.3021C122.055 36.3021 121.309 36.9147 120.861 37.6806C120.115 38.906 120.115 40.8972 120.115 41.6631C120.115 43.0417 120.265 44.7266 120.861 45.6456C121.309 46.2583 122.055 47.0242 123.249 47.0242C124.144 47.0242 124.89 46.7178 125.338 45.952C125.785 45.3393 126.084 44.4202 126.084 43.6544L129.217 44.1139C129.068 45.4924 128.471 47.0242 127.278 48.0964C126.382 48.8622 125.039 49.6281 122.95 49.6281C120.712 49.6281 119.369 48.7091 118.474 47.9432C117.28 46.871 116.236 44.8797 116.236 41.8163C116.236 38.906 117.131 37.2211 118.026 36.3021C119.071 34.9235 121.011 33.8513 123.1 33.8513C124.89 33.8513 126.382 34.464 127.427 35.5362C128.322 36.4552 128.919 37.987 129.217 39.3655L126.233 39.6719Z" fill="white"/>
<path d="M145.034 45.033C144.437 46.871 143.393 47.9433 142.647 48.5559C141.453 49.3218 139.961 49.7813 138.319 49.7813C136.23 49.7813 134.291 48.8623 133.097 47.6369C131.903 46.4115 131.157 44.4203 131.157 41.9695C131.157 38.9061 132.351 36.7616 133.843 35.6894C134.589 35.0767 136.081 34.0045 138.319 34.0045C141.154 34.0045 142.945 35.3831 143.989 36.7616C145.034 38.1402 145.482 40.2846 145.482 41.9695V42.7354H134.888C134.888 42.8885 134.888 44.2671 135.335 45.3393C136.081 47.0242 137.573 47.4837 138.618 47.4837C139.364 47.4837 140.408 47.1774 141.154 46.4115C141.602 45.7988 141.9 45.3393 141.9 44.8798L145.034 45.033ZM141.453 40.1314C141.453 39.2124 141.304 38.2934 140.856 37.6807C140.259 36.9148 139.364 36.3021 138.17 36.3021C137.126 36.3021 136.081 36.9148 135.484 37.5275C135.037 38.1402 134.589 39.0592 134.589 40.1314H141.453Z" fill="white"/>
<path d="M159.656 34.1577V49.475H156.224V36.7616H152.345C152.195 38.7529 152.195 39.6719 152.195 41.0505C152.046 42.5822 152.046 45.952 150.703 47.7901C149.957 48.7091 149.062 49.1686 148.465 49.3218C148.018 49.475 147.719 49.475 147.271 49.475C146.973 49.475 146.675 49.475 146.376 49.3218V46.7179H146.675C147.122 46.7179 147.719 46.4115 148.018 46.1052C149.211 45.1861 149.36 43.0417 149.36 41.3568C149.51 39.0592 149.51 37.8338 149.51 35.6894V34.0045H159.656V34.1577Z" fill="white"/>
<path d="M166.52 39.5187H170.251C171.146 39.5187 173.086 39.6719 174.279 40.8973C175.324 41.9695 175.473 43.5012 175.473 44.4203C175.473 46.5647 174.578 47.7901 173.981 48.2496C173.683 48.4028 172.638 49.3218 170.549 49.3218H163.089V34.0045H166.52V39.5187ZM166.52 46.871H169.206C169.803 46.871 170.549 46.871 171.146 46.2583C171.444 45.952 171.892 45.3393 171.892 44.4203C171.892 43.6544 171.594 42.8885 170.997 42.429C170.4 41.9695 169.654 41.9695 169.206 41.9695H166.52V46.871Z" fill="white"/>
<path d="M180.546 34.1574L183.232 38.9057L186.067 34.1574H189.2L184.873 41.0502L190.095 49.4747H186.067L182.635 43.6541L179.054 49.4747H176.069L181.143 41.5097L176.517 34.1574H180.546Z" fill="white"/>
<path d="M192.632 35.6894C193.676 34.7703 195.168 33.8513 197.406 33.8513C199.645 33.8513 201.137 34.7703 202.181 35.6894C203.673 37.2211 204.419 39.3655 204.419 41.8163C204.419 44.1139 203.673 46.4115 202.181 47.9432C201.137 48.8622 199.645 49.7813 197.406 49.7813C195.168 49.7813 193.676 48.8622 192.632 47.9432C191.14 46.4115 190.393 44.267 190.393 41.8163C190.393 39.3655 191.14 37.2211 192.632 35.6894ZM195.168 46.1051C195.467 46.5646 196.213 47.1773 197.556 47.1773C198.898 47.1773 199.645 46.4115 199.943 46.1051C200.241 45.7988 200.987 44.5734 200.987 41.8163C200.987 38.906 200.092 37.8338 199.943 37.5274C199.645 37.0679 198.898 36.4552 197.556 36.4552C196.213 36.4552 195.616 37.2211 195.168 37.5274C194.87 37.8338 194.124 39.0592 194.124 41.8163C193.975 44.5734 194.87 45.7988 195.168 46.1051Z" fill="white"/>
<path d="M206.359 38.2933C206.806 36.4552 208 35.383 208.746 34.9235C209.194 34.6171 210.686 33.8513 212.924 33.8513C214.416 33.8513 215.908 34.1576 216.953 34.7703C218.594 35.6894 219.042 37.0679 219.042 37.9869C219.042 39.0592 218.594 41.0504 216.058 41.3568C216.953 41.5099 217.848 41.8163 218.445 42.429C219.042 43.0417 219.34 43.9607 219.34 45.0329C219.34 46.5646 218.445 47.9432 217.4 48.709C216.058 49.6281 214.267 49.7813 212.924 49.7813C211.581 49.7813 209.492 49.6281 208 48.4027C207.254 47.79 206.359 46.5646 206.21 45.1861L209.343 44.5734C209.492 45.0329 209.791 45.7988 210.089 46.2583C210.835 47.1773 212.029 47.1773 212.775 47.1773C213.521 47.1773 214.416 47.0241 215.013 46.5646C215.61 46.1051 215.908 45.6456 215.908 44.8797C215.908 44.267 215.759 43.8075 215.312 43.348C214.565 42.7353 213.67 42.7353 212.924 42.7353H211.432V40.4377H212.924C213.521 40.4377 214.416 40.2845 214.864 40.1314C215.461 39.825 215.759 39.2123 215.759 38.4465C215.759 37.987 215.61 37.5274 215.162 37.2211C214.416 36.6084 213.521 36.6084 213.073 36.6084C212.327 36.6084 211.432 36.7616 210.537 37.3743C210.238 37.6806 209.791 38.2933 209.641 39.2123L206.359 38.2933Z" fill="white"/>
<path d="M236.798 32.4725H227.1V37.0677H231.427C232.919 37.0677 234.411 37.2209 236.052 38.2931C237.544 39.3653 238.44 40.897 238.44 43.1946C238.44 45.339 237.694 46.8708 236.649 47.7898C235.157 49.3215 233.516 49.4747 231.725 49.4747H222.325V28.7964H236.649V32.4725H236.798ZM227.1 45.7986H230.83C231.576 45.7986 232.173 45.7986 232.77 45.0327C233.367 44.42 233.516 43.6541 233.516 43.0414C233.516 42.4288 233.367 41.6629 232.77 41.2034C232.173 40.5907 231.278 40.4375 230.681 40.4375H227.1V45.7986Z" fill="white"/>
<path d="M240.678 38.4465C241.126 36.3021 242.469 35.3831 243.215 34.9236C244.408 34.1577 245.9 34.0045 247.84 34.0045C250.227 34.0045 252.764 34.3109 253.809 36.7616C254.405 37.987 254.405 39.3656 254.405 40.4378V46.4115C254.405 47.6369 254.555 48.7091 254.853 49.7813H250.675C250.526 49.1686 250.526 48.4028 250.377 47.3306C249.78 48.4028 248.437 50.0877 245.453 50.0877C244.11 50.0877 242.618 49.7813 241.722 48.8623C240.827 48.0964 240.23 46.871 240.23 45.4925C240.23 43.9608 240.827 42.1227 243.364 41.0505C245.005 40.4378 247.691 40.1314 248.885 40.1314H250.227V39.8251C250.227 39.3656 250.227 38.4465 249.78 37.987C249.183 37.3743 248.139 37.3743 247.691 37.3743C247.094 37.3743 246.348 37.3743 245.751 37.8338C245.304 38.1402 244.856 38.5997 244.707 39.3656L240.678 38.4465ZM249.034 42.1227C247.542 42.2758 246.05 42.429 245.304 43.5012C245.005 43.8076 244.856 44.2671 244.856 44.8798C244.856 45.4925 245.154 45.952 245.453 46.2583C245.9 46.5647 246.497 46.7179 247.094 46.7179C247.989 46.7179 249.034 46.2583 249.631 45.6456C249.78 45.4925 250.377 44.7266 250.377 42.8885V42.1227H249.034Z" fill="white"/>
<path d="M262.314 34.1574V39.8248H266.94V34.1574H271.267V49.4747H266.94V43.0414H262.314V49.4747H257.838V34.1574H262.314Z" fill="white"/>
<path d="M279.025 34.1574V39.978H280.219C281.413 39.978 282.009 39.3653 282.308 38.5994C282.905 37.2208 282.905 36.1486 283.502 35.2296C283.949 34.4637 284.546 34.1574 284.844 34.1574H288.425C287.978 34.6169 287.53 35.2296 287.232 35.8423C286.784 36.7613 286.337 38.4462 286.038 39.2121C285.74 40.1311 285.143 41.2033 283.651 41.2033C284.397 41.3565 285.292 41.816 285.889 42.7351C286.337 43.3478 286.486 44.1136 286.933 45.1858C287.381 46.4112 287.53 46.8707 287.829 47.7898C288.127 48.5556 288.276 48.862 288.724 49.4747H284.695C284.098 49.3215 283.651 48.862 283.054 47.3303C282.606 46.1049 282.606 45.6453 282.308 45.0327L282.159 44.42C281.711 43.3478 281.114 43.0414 280.219 43.0414H279.025V49.4747H274.698V34.1574H279.025V34.1574Z" fill="white"/>
<path fill-rule="evenodd" clip-rule="evenodd" d="M20.7407 39.6718L27.4552 32.9322V28.337L20.7407 35.0766V39.6718Z" fill="#FFCB05"/>
<path fill-rule="evenodd" clip-rule="evenodd" d="M20.7407 22.6696L27.4552 15.7768V11.488L20.7407 18.2276V22.6696Z" fill="#FFCB05"/>
<path fill-rule="evenodd" clip-rule="evenodd" d="M20.7407 28.1839L27.4552 21.4443V17.1555L20.7407 23.8951V28.1839Z" fill="#FFCB05"/>
<path fill-rule="evenodd" clip-rule="evenodd" d="M18.8013 11.6411L17.906 10.7221V0H17.0107V9.64989L16.1155 8.73085V0H15.071V7.81181L14.1757 6.89278V0H13.1312V10.2626L19.8457 17.0022V0H18.8013V11.6411Z" fill="#FFCB05"/>
<path fill-rule="evenodd" clip-rule="evenodd" d="M20.7407 33.8511L27.4552 27.1115V22.8227L20.7407 29.5623V33.8511Z" fill="#FFCB05"/>
<path fill-rule="evenodd" clip-rule="evenodd" d="M13.1312 32.9322L19.8457 39.6718V35.0766L13.1312 28.337V32.9322Z" fill="#FFCB05"/>
<path fill-rule="evenodd" clip-rule="evenodd" d="M26.4107 6.89278L25.5154 7.81181V0H24.4709V8.73085L23.7249 9.64989V0H22.6804V10.7221L21.7851 11.6411V0H20.7407V17.0022L27.4552 10.2626V0H26.4107V6.89278Z" fill="#FFCB05"/>
<path fill-rule="evenodd" clip-rule="evenodd" d="M13.1312 15.7768L19.8457 22.6696V18.2276L13.1312 11.488V15.7768Z" fill="#FFCB05"/>
<path fill-rule="evenodd" clip-rule="evenodd" d="M13.1312 21.4443L19.8457 28.1839V23.8951L13.1312 17.1555V21.4443Z" fill="#FFCB05"/>
<path fill-rule="evenodd" clip-rule="evenodd" d="M13.1312 27.1115L19.8457 33.8511V29.5623L13.1312 22.8227V27.1115Z" fill="#FFCB05"/>
<path fill-rule="evenodd" clip-rule="evenodd" d="M52.9706 30.7878H37.4526H36.7066C37.005 30.1751 37.3034 29.5624 37.3034 28.9497C37.3034 26.9585 35.6621 25.4267 33.7223 25.4267C31.7826 25.4267 30.2905 27.1116 30.2905 28.9497C30.2905 29.7156 30.5889 30.4814 30.8873 31.0941C30.5889 31.2473 30.4397 31.7068 30.4397 32.0132C30.4397 32.4727 30.5889 32.779 30.8873 32.9322C30.4397 33.5449 30.2905 34.3108 30.2905 35.0766C30.2905 37.0679 31.9318 38.5996 33.7223 38.5996C35.6621 38.5996 37.3034 36.9147 37.3034 35.0766C37.3034 34.3108 37.1542 33.6981 36.7066 33.2386H39.6908H48.7927V33.6981H47.599V34.7703H48.7927V35.8425H47.599V37.8337H48.7927V36.9147H50.5832V37.8337H51.7769V35.8425H50.5832V34.7703H51.7769V33.6981H50.5832V32.9322H52.9706C53.4182 32.9322 53.8659 32.4727 53.8659 32.0132V31.4005C53.8659 31.0941 53.4182 30.7878 52.9706 30.7878ZM35.5129 34.9235C35.5129 35.9957 34.7668 36.7615 33.7223 36.7615C32.6779 36.7615 31.9318 35.9957 31.9318 34.9235C31.9318 34.6171 32.081 34.1576 32.2302 33.8512L32.6778 32.9322C32.3794 32.6259 32.2302 32.1663 32.2302 31.7068C32.2302 31.2473 32.3794 30.7878 32.6778 30.4814L32.2302 29.5624C32.081 29.2561 31.9318 28.9497 31.9318 28.4902C31.9318 27.418 32.6779 26.6521 33.7223 26.6521C34.7668 26.6521 35.5129 27.418 35.5129 28.4902C35.5129 29.2561 34.6176 31.0941 34.6176 31.0941V32.0132C34.7668 32.3195 35.5129 34.1576 35.5129 34.9235Z" fill="#FFCB05"/>
<path fill-rule="evenodd" clip-rule="evenodd" d="M7.01227 28.4902V32.9322C7.01227 37.2211 8.8028 39.9782 9.84728 41.0504C10.4441 41.6631 16.711 47.9432 16.711 48.0963C18.6508 50.0876 18.9492 50.7003 19.3968 51.7725V46.871C19.3968 42.4289 17.1586 40.744 16.1142 39.6718C13.5776 36.9147 11.9362 35.2298 10.4441 33.6981C7.75832 30.941 7.01227 28.4902 7.01227 28.4902Z" fill="white"/>
<path fill-rule="evenodd" clip-rule="evenodd" d="M16.2634 50.7001C13.5776 48.0961 11.9362 46.2581 10.4441 44.8795C7.75833 42.1224 7.01227 40.2843 7.01227 40.2843V44.1136C7.01227 48.4025 8.95202 51.1596 9.84729 52.2318C10.4441 52.8445 16.711 59.1246 16.711 59.1246C18.6508 61.1158 18.9492 62.0349 19.3968 63.1071V57.8992C19.546 53.4572 17.3079 51.7723 16.2634 50.7001Z" fill="white"/>
<path fill-rule="evenodd" clip-rule="evenodd" d="M29.9915 8.27125C29.5439 8.27125 29.0962 8.27125 28.4994 8.27125V10.4157C28.947 10.4157 29.3946 10.4157 29.9915 10.4157C45.5095 10.4157 58.0432 23.2822 58.0432 39.2122C58.0432 55.1421 45.5095 68.0087 29.9915 68.0087C14.4735 68.0087 1.93975 55.1421 1.93975 39.2122C2.08896 30.3281 5.96846 22.5163 11.9369 17.1553V14.5513C4.77476 20.0656 0 29.1028 0 39.2122C0 56.2144 13.429 69.9999 29.9915 69.9999C46.554 69.9999 59.983 56.2144 59.983 39.2122C60.1322 22.0568 46.7032 8.27125 29.9915 8.27125Z" fill="white"/>
<path fill-rule="evenodd" clip-rule="evenodd" d="M51.3292 55.2955C51.7769 54.6828 52.2245 53.9169 52.6721 53.3042V49.1686H51.3292V55.2955Z" fill="white"/>
<path fill-rule="evenodd" clip-rule="evenodd" d="M55.2087 47.6367C55.3579 47.024 55.5071 46.4113 55.6564 45.7986H51.3292V46.8708H51.9261C53.1198 46.8708 54.4627 46.8708 55.2087 47.6367Z" fill="white"/>
<path d="M26.1113 45.6454H24.9177V57.8992H26.1113V45.6454Z" fill="white"/>
<path fill-rule="evenodd" clip-rule="evenodd" d="M22.2319 43.1947H26.1114C27.1559 43.1947 27.7527 43.3479 28.2004 43.8074C28.648 44.267 28.7972 44.8796 28.7972 45.9519V57.4398C28.7972 58.512 28.648 59.1247 28.2004 59.5842C27.6035 60.1969 26.4098 60.1969 25.5146 60.1969C25.3654 60.1969 25.0669 60.1969 24.9177 60.1969V65.7111C25.3654 65.8643 25.6638 65.8643 26.1114 65.8643V61.4223C27.9019 61.4223 29.0956 60.8096 29.6925 59.5842V66.1707C29.8417 66.1707 29.9909 66.1707 30.1401 66.1707C30.4385 66.1707 30.5878 66.1707 30.8862 66.1707V46.2582C30.8862 45.186 31.0354 44.4201 31.483 43.9606C31.9307 43.5011 32.5275 43.3479 33.572 43.3479C34.6165 43.3479 36.1086 43.1947 36.8546 43.9606C37.3023 44.4201 37.4515 45.186 37.4515 46.2582V52.0788H34.7657V45.7987H33.572V66.0175C34.0196 66.0175 34.318 65.8643 34.7657 65.8643V53.3041H37.3023V65.2516C37.8991 65.0984 38.3467 64.9453 38.9436 64.6389V53.7637C38.9436 52.5383 39.242 51.6193 40.4357 51.1597L39.0928 43.6543H41.7786L42.2262 51.9256H42.5247L42.9723 43.6543H45.8073L44.3152 51.1597C45.6581 51.6193 45.8073 52.3851 45.8073 53.7637V60.8096C46.5534 60.1969 47.2994 59.5842 48.0455 58.8184V43.5011H55.9537C55.9537 43.1947 56.1029 42.7352 56.1029 42.4289H37.7499L38.0483 43.8074C37.4515 42.7352 36.407 42.1225 34.7657 42.1225H33.572C31.6322 42.1225 30.4385 42.8884 29.9909 44.5733C29.5433 42.8884 28.3496 42.1225 26.2606 42.1225H21.1874V64.6389C21.6351 64.7921 21.9335 64.9453 22.3811 65.0985V43.1947H22.2319ZM46.8518 51.9256L45.5089 50.7002L46.8518 43.9606V51.9256Z" fill="white"/>
<path fill-rule="evenodd" clip-rule="evenodd" d="M41.7794 63.4135C42.2271 63.2603 42.5255 62.954 42.9731 62.8008V53.4573H41.7794V63.4135Z" fill="white"/>
</g>
<defs>
<clipPath id="clip0">
<rect width="288.873" height="70" fill="white"/>
</clipPath>
</defs>
</svg>
