<svg width="49" height="46" viewBox="0 0 49 46" fill="none" xmlns="http://www.w3.org/2000/svg">
<path d="M30.7542 17.1819C30.2239 17.1819 29.6609 16.7786 29.4966 16.2817L24.3059 0.539802C24.1416 0.0427224 23.8765 0.0427224 23.7122 0.539802L18.5223 16.2817C18.358 16.7787 17.7951 17.1819 17.2648 17.1819H0.467596C-0.0627232 17.1819 -0.145338 17.4309 0.284047 17.7386L13.8725 27.466C14.3019 27.7738 14.5171 28.426 14.3528 28.923L9.16309 44.664C8.9988 45.161 9.21403 45.3152 9.64341 45.0077L23.2319 35.2803C23.6612 34.9725 24.3569 34.9725 24.7863 35.2803L38.3747 45.0086C38.8041 45.3163 39.0194 45.162 38.8551 44.6649L33.6652 28.924C33.5009 28.4269 33.7162 27.7747 34.1455 27.467L47.734 17.7396C48.1634 17.4319 48.0808 17.1829 47.5504 17.1829H30.7542V17.1819Z" fill="#666666"/>
</svg>
