<svg width="78" height="70" viewBox="0 0 78 70" fill="none" xmlns="http://www.w3.org/2000/svg">
<g clip-path="url(#clip0)">
<ellipse cx="42.8303" cy="35.3429" rx="35.1697" ry="34.6567" fill="#FFCB00"/>
<path d="M70.2857 34.9998C70.2857 53.9051 54.7301 69.2496 35.5179 69.2496C16.3057 69.2496 0.75 53.9051 0.75 34.9998C0.75 16.0945 16.3057 0.75 35.5179 0.75C54.7301 0.75 70.2857 16.0945 70.2857 34.9998Z" stroke="black" stroke-width="1.5"/>
<g clip-path="url(#clip1)">
<path d="M36.7557 53.252C36.7557 53.6641 36.4198 54 36.0069 54C35.5947 54 35.2589 53.6641 35.2589 53.252C35.2589 52.8398 35.5947 52.5039 36.0069 52.5039C36.4198 52.5039 36.7557 52.8398 36.7557 53.252ZM20.2915 53.252V52.3057C20.2915 47.3184 23.6741 44.5987 25.1552 43.7108C27.1667 42.5058 29.3273 41.5946 31.5868 40.996V39.7916C31.2101 39.4591 30.8657 39.081 30.5614 38.6595C29.6654 37.4186 28.9341 36.0732 28.383 34.6527C27.8786 34.5838 27.4174 34.2628 27.1803 33.7607C26.9541 33.282 25.3856 30.3804 25.1453 29.864C24.536 28.5549 25.3323 27.2615 26.3417 26.8452C26.5098 26.7758 26.6826 26.7246 26.8584 26.6954C26.695 26.0267 26.6124 25.339 26.6124 24.6398C26.6124 19.8758 30.4881 16 35.2521 16C36.0893 16 36.8822 16.3202 37.4847 16.9017C37.4911 16.9079 37.5012 16.9079 37.5077 16.9017C38.1103 16.3202 38.9031 16 39.7403 16C42.9782 16 45.6124 18.6342 45.6124 21.872V23.2343C45.6124 24.4073 45.4513 25.5619 45.1335 26.6811C45.3131 26.7102 45.4924 26.7571 45.6625 26.8341C46.9045 27.3966 47.3895 28.7865 46.8589 29.8529C46.6052 30.3627 45.0501 33.2707 44.8239 33.7496C44.5868 34.2514 44.1258 34.5724 43.6218 34.6415C43.0703 36.0655 42.3379 37.414 41.4401 38.6577C41.1355 39.0797 40.7907 39.4583 40.4135 39.7912V40.9959C42.6729 41.5946 44.8336 42.5057 46.8451 43.7108C48.3262 44.5987 51.7088 47.3184 51.7088 52.3056V53.252C51.7088 53.6651 51.3739 54 50.9608 54H39.3745H39.373C38.9443 54 38.5982 53.6374 38.6267 53.2019C38.6527 52.8043 39.0009 52.5039 39.3993 52.5039H50.2128C50.2128 49.3453 48.6277 46.5234 46.0754 44.9944C44.2736 43.9147 42.344 43.0849 40.3279 42.5224C39.9247 44.5432 38.1377 46.0709 36.0002 46.0709C33.8627 46.0709 32.0756 44.5432 31.6724 42.5224C29.6568 43.0849 27.7266 43.9147 25.9249 44.9944C23.3726 46.5234 21.7876 49.2585 21.7876 52.5039H32.6415C33.0709 52.5039 33.4166 52.8684 33.3871 53.304C33.3601 53.7008 33.0121 54 32.6143 54H21.0395C20.6264 54 20.2915 53.6651 20.2915 53.252ZM28.1111 24.7544C28.1802 24.6733 29.2124 23.4055 30.9889 23.4055C31.875 23.4055 32.7261 23.7143 33.4001 24.2649C34.0209 24.7719 34.8115 25.0512 35.6261 25.0512C37.5541 25.0512 39.0984 23.5006 39.142 21.5211C39.151 21.1146 39.4831 20.7896 39.8898 20.7896C40.2964 20.7895 40.6286 21.1143 40.6378 21.5208C40.6593 22.4761 41.1734 23.3044 41.9797 23.6825C42.7727 24.0544 43.4363 24.6175 43.9229 25.3064C44.0516 24.6262 44.1164 23.934 44.1164 23.2344V21.872C44.1164 19.4591 42.1533 17.4961 39.7404 17.4961C39.2928 17.4961 38.8689 17.6673 38.5467 17.9782C37.9577 18.5468 37.0348 18.5467 36.4458 17.9782C36.1237 17.6673 35.6998 17.4961 35.2521 17.4961C31.3131 17.4961 28.0734 20.6595 28.1111 24.7544ZM38.9175 40.7877C37.1464 41.6237 35.1001 41.7202 33.0828 40.788V41.6575C33.0828 43.2661 34.3915 44.5748 36.0002 44.5748C37.6088 44.5748 38.9175 43.2661 38.9175 41.6575V40.7877ZM40.2271 37.7821C41.155 36.4968 41.8906 35.0897 42.4118 33.5991C42.5033 33.3375 42.8507 32.9417 43.4395 33.1734C43.717 32.5822 45.2797 29.6926 45.5062 29.2139C45.6788 28.8492 45.4701 28.3743 45.0779 28.2112C44.8564 28.1192 44.6114 28.1352 44.396 28.2453C43.9317 28.4825 43.3574 28.2026 43.2982 27.6894C43.1636 26.5245 42.4085 25.5361 41.3444 25.037C40.8066 24.7848 40.3479 24.4148 39.9905 23.962C39.7655 24.367 39.4733 24.7314 39.1524 25.0771C37.7327 26.6076 34.7646 27.2881 32.4537 25.4236C31.5521 24.6962 30.2114 24.74 29.3841 25.5792C28.9341 26.0357 28.6695 26.652 28.6695 27.2816V27.5761C28.6718 28.1255 28.0879 28.4923 27.5859 28.2447C27.3779 28.1421 27.1402 28.1376 26.9262 28.2225C26.587 28.3572 26.2974 28.7964 26.4979 29.2251C26.7223 29.7051 28.3195 32.6379 28.5561 33.1735C29.2148 32.9443 29.5239 33.4148 29.5924 33.6099C30.1141 35.0969 30.8482 36.5012 31.7743 37.7839C32.7703 39.1632 34.3106 39.9544 35.9999 39.9542C37.69 39.9539 39.2308 39.1623 40.2271 37.7821Z" fill="black"/>
</g>
</g>
<defs>
<clipPath id="clip0">
<rect width="78" height="69.9996" fill="white"/>
</clipPath>
<clipPath id="clip1">
<rect width="38" height="38" fill="white" transform="translate(17 16)"/>
</clipPath>
</defs>
</svg>
