<svg width="78" height="71" viewBox="0 0 78 71" fill="none" xmlns="http://www.w3.org/2000/svg">
<ellipse cx="42.8303" cy="35.5114" rx="35.1697" ry="34.6567" fill="#FFCB00"/>
<path d="M70.2857 35.1682C70.2857 54.0735 54.7301 69.418 35.5179 69.418C16.3057 69.418 0.75 54.0735 0.75 35.1682C0.75 16.263 16.3057 0.918457 35.5179 0.918457C54.7301 0.918457 70.2857 16.263 70.2857 35.1682Z" stroke="#333333" stroke-width="1.5"/>
<path d="M47.6574 49.9034C47.5989 49.4481 47.5014 49.0718 47.3592 48.7531C47.3575 48.7491 47.3557 48.7452 47.3538 48.7414C47.1835 48.3758 46.9898 48.1195 46.7442 47.9348C46.4688 47.7276 46.1556 47.6225 45.8133 47.6225H40.4895V16.866C40.4895 16.5351 40.4068 16.24 40.244 15.9896C40.063 15.7109 39.776 15.5153 39.3667 15.3921C39.0835 15.3042 38.6946 15.2447 38.1783 15.2102C37.7458 15.1812 37.1856 15.1682 36.3619 15.1682C35.7532 15.1682 35.2724 15.1682 34.8893 15.1785C34.4884 15.1893 34.1583 15.2118 33.912 15.2448C33.6292 15.281 33.3952 15.3317 33.1965 15.3996C33.1914 15.4013 33.1863 15.4032 33.1812 15.405C32.9709 15.482 32.7945 15.5769 32.6434 15.6942L24.6813 20.9846C24.6741 20.9894 24.6671 20.9942 24.6602 20.9992C24.3819 21.198 24.1747 21.3588 24.007 21.5416C23.7856 21.7718 23.6226 22.0469 23.5224 22.3596C23.4218 22.638 23.3586 22.9681 23.3344 23.3413C23.3137 23.6602 23.3032 24.0708 23.3032 24.5616C23.3032 25.3553 23.3347 25.9624 23.3996 26.4174C23.4813 26.9898 23.6522 27.4113 23.9223 27.7058C23.9276 27.7116 23.9331 27.7173 23.9385 27.723C24.2727 28.0659 24.7132 28.2013 25.2481 28.1256C25.258 28.1242 25.2679 28.1226 25.2778 28.1208C25.6119 28.0595 26.0253 27.9068 26.5417 27.6538C26.5552 27.6472 26.5685 27.6402 26.5815 27.6327L31.4295 24.8876L31.4298 32.4683C31.4298 32.8998 31.7706 33.2495 32.191 33.2495C32.6113 33.2495 32.9522 32.8997 32.9522 32.4683L32.952 23.5642C32.952 23.2878 32.8096 23.032 32.5777 22.8915C32.3457 22.7509 32.0588 22.7467 31.823 22.8802L25.866 26.2533C25.4152 26.4729 25.1617 26.5523 25.0254 26.5795C25.017 26.5806 25.0094 26.5813 25.0025 26.5819C24.9758 26.5217 24.9363 26.4037 24.9059 26.1909C24.8526 25.817 24.8256 25.2687 24.8256 24.5614C24.8256 24.105 24.8349 23.7294 24.8534 23.4449C24.8717 23.1619 24.9174 22.9899 24.9524 22.8954C24.9574 22.8819 24.9621 22.8681 24.9664 22.8544C24.9941 22.765 25.0332 22.6977 25.0933 22.6361C25.1 22.6292 25.1065 22.6222 25.1129 22.6151C25.192 22.5277 25.3542 22.407 25.5194 22.2888L33.4975 16.9877C33.5187 16.9736 33.5392 16.9584 33.5589 16.9423C33.5723 16.9313 33.6063 16.9088 33.6852 16.8792C33.7857 16.8457 33.9256 16.8174 34.1048 16.7944C34.3031 16.7678 34.5806 16.7496 34.9292 16.7402C35.2923 16.7307 35.7643 16.7307 36.3619 16.7307C37.1512 16.7307 37.6808 16.7426 38.0791 16.7693C38.5973 16.804 38.8331 16.8588 38.9275 16.8881C38.9304 16.8891 38.9332 16.8899 38.9361 16.8908C38.9473 16.8942 38.9576 16.8974 38.967 16.9005V48.4037C38.967 48.8351 39.3078 49.1849 39.7282 49.1849H45.8132C45.8239 49.1849 45.8296 49.1859 45.8304 49.186C45.8316 49.1866 45.8364 49.1891 45.844 49.1949C45.8461 49.1964 45.8955 49.2349 45.9776 49.4096C46.0534 49.5815 46.1107 49.8161 46.1476 50.1046C46.1897 50.4414 46.2101 50.8767 46.2101 51.4356C46.2101 51.943 46.1835 52.3731 46.1311 52.7138C46.0695 53.114 46.0024 53.3094 45.9568 53.4027C45.9508 53.4152 45.945 53.428 45.9395 53.4408C45.8921 53.5524 45.8503 53.5931 45.8509 53.5934C45.8478 53.5956 45.8449 53.5977 45.8418 53.5999C45.836 53.6042 45.8342 53.6055 45.8231 53.6055H25.2608C25.2586 53.6041 25.256 53.6023 25.2528 53.6C25.2427 53.5888 25.2016 53.5395 25.1437 53.4152C25.1418 53.4111 25.1399 53.407 25.1379 53.4031C25.0923 53.3095 25.0251 53.1139 24.9635 52.7138C24.9111 52.3729 24.8844 51.9429 24.8844 51.4356C24.8844 50.8769 24.9049 50.4415 24.9467 50.1072C24.984 49.8161 25.0413 49.5815 25.117 49.4096C25.1873 49.26 25.2376 49.202 25.2547 49.1849H32.1907C32.6112 49.1849 32.952 48.8351 32.952 48.4037V39.4997C32.952 39.0683 32.6112 38.7184 32.1907 38.7184C31.7703 38.7184 31.4295 39.0683 31.4295 39.4997V47.6225H25.2421C24.8907 47.6225 24.5686 47.7388 24.3097 47.9592C24.087 48.1421 23.9008 48.3981 23.7408 48.7416C23.739 48.7455 23.7372 48.7493 23.7354 48.7532C23.5932 49.0719 23.4957 49.4482 23.437 49.9059C23.3859 50.3149 23.3621 50.801 23.3621 51.4356C23.3621 52.0327 23.394 52.5306 23.4597 52.9576C23.5351 53.4471 23.6347 53.8088 23.773 54.0953C23.9389 54.4496 24.135 54.7048 24.3723 54.8749C24.636 55.0668 24.9366 55.1682 25.2422 55.1682H45.8232C46.1479 55.1682 46.4587 55.0668 46.7224 54.8749C46.9714 54.6964 47.1803 54.423 47.3276 54.0827C47.4628 53.7984 47.5607 53.4401 47.6349 52.9577C47.7006 52.5306 47.7325 52.0327 47.7325 51.4357C47.7325 50.8009 47.7087 50.3149 47.6574 49.9034V49.9034Z" fill="black"/>
<path d="M32.1911 36.7654C32.6116 36.7654 32.9524 36.4155 32.9524 35.9841C32.9524 35.5527 32.6116 35.2029 32.1911 35.2029H32.1906C31.7702 35.2029 31.4297 35.5527 31.4297 35.9841C31.4297 36.4155 31.7707 36.7654 32.1911 36.7654V36.7654Z" fill="black"/>
</svg>
