<svg width="79" height="71" viewBox="0 0 79 71" fill="none" xmlns="http://www.w3.org/2000/svg">
<ellipse cx="43.3303" cy="35.5114" rx="35.1697" ry="34.6567" fill="#FFCB00"/>
<path d="M49.3737 49.7276C49.2975 49.22 49.1927 48.8436 49.0438 48.5438C48.8629 48.1687 48.6393 47.8951 48.3609 47.7083C48.0728 47.499 47.7327 47.3886 47.3757 47.3886H34.3476L37.4588 44.2072C39.6881 41.9977 41.5061 40.0267 42.8622 38.3492C44.2304 36.6568 45.3098 35.0846 46.0715 33.6742C46.8546 32.2138 47.359 30.8852 47.6146 29.6075C47.8554 28.3617 47.9776 27.095 47.9776 25.8427C47.9776 24.3494 47.7179 22.9324 47.2059 21.6313C46.684 20.3047 45.8854 19.147 44.8323 18.1906C43.7884 17.2427 42.4628 16.4913 40.8907 15.9566C39.3425 15.4334 37.522 15.1682 35.4798 15.1682C34.2051 15.1682 32.9467 15.2906 31.7348 15.5331C30.5655 15.775 29.4684 16.0763 28.4741 16.4285C27.4681 16.7848 26.6398 17.1482 25.9453 17.5376C25.246 17.9248 24.7568 18.2504 24.4499 18.5326C24.4418 18.5401 24.434 18.5475 24.4263 18.5552C24.1427 18.8389 23.9405 19.0796 23.8082 19.2913C23.8044 19.2973 23.8008 19.3032 23.7972 19.3093C23.6552 19.5507 23.5493 19.8191 23.4826 20.1075C23.4075 20.3976 23.3558 20.6906 23.3245 21.005C23.2943 21.316 23.2809 21.6895 23.2809 22.2161C23.2809 22.9392 23.3053 23.5143 23.355 23.9725C23.4023 24.4178 23.4705 24.8145 23.5633 25.1853C23.5661 25.1961 23.5689 25.2068 23.5721 25.2175C23.7003 25.6503 23.8721 25.9499 24.1119 26.1585C24.3839 26.4042 24.7211 26.5342 25.0883 26.5342C25.5127 26.5342 25.9843 26.3459 26.5722 25.9417C26.9917 25.6624 27.5213 25.3492 28.1878 24.9865C28.8271 24.6431 29.5685 24.3329 30.3916 24.0647C31.2058 23.7994 32.1501 23.6648 33.1982 23.6648C33.9181 23.6648 34.5378 23.7667 35.034 23.9651C35.5452 24.1746 35.9471 24.4414 36.2627 24.7806C36.5962 25.1392 36.8457 25.55 37.0067 26.0089C37.1807 26.4896 37.2689 27.0136 37.2689 27.5663C37.2689 28.2263 37.1911 28.9178 37.0378 29.6217C36.8782 30.3538 36.59 31.1534 36.1812 31.9983C35.9933 32.3868 36.1558 32.854 36.5442 33.0419C36.9322 33.2295 37.3997 33.0673 37.5877 32.6789C38.05 31.7234 38.3785 30.8067 38.5643 29.9545C38.7416 29.1415 38.8314 28.338 38.8314 27.5663C38.8314 26.8319 38.7117 26.129 38.4783 25.4844C38.2482 24.8285 37.8875 24.2338 37.4065 23.7165C36.9336 23.2082 36.3513 22.8166 35.6203 22.517C34.9325 22.2419 34.1176 22.1025 33.198 22.1025C31.9852 22.1025 30.878 22.2629 29.9073 22.5793C28.9963 22.8762 28.169 23.223 27.4446 23.6123C26.7306 24.0008 26.1603 24.3386 25.701 24.6448C25.6977 24.647 25.6944 24.6493 25.6911 24.6514C25.395 24.8554 25.219 24.9303 25.1365 24.9573C25.121 24.9238 25.0993 24.8704 25.0748 24.7894C25.0018 24.4943 24.9475 24.1728 24.9084 23.8056C24.8645 23.4023 24.8432 22.8825 24.8432 22.2162C24.8432 21.7483 24.8547 21.4112 24.8793 21.158C24.9027 20.9234 24.9413 20.7051 24.9973 20.4908C24.9993 20.4826 25.0014 20.4747 25.0032 20.4665C25.0328 20.3365 25.0794 20.214 25.1382 20.1112C25.1796 20.0472 25.2812 19.9111 25.5184 19.6728C25.6453 19.5587 25.9625 19.3141 26.7056 18.9026C27.3252 18.5552 28.0742 18.2277 28.9955 17.9015C29.9231 17.5729 30.9512 17.2909 32.0462 17.0643C33.1526 16.843 34.3077 16.7307 35.4798 16.7307C37.3516 16.7307 39.0038 16.9683 40.3891 17.4363C41.7559 17.9012 42.8974 18.5441 43.7819 19.3473C44.6681 20.1522 45.3125 21.0864 45.7519 22.2034C46.192 23.3216 46.4151 24.546 46.4151 25.8427C46.4151 26.9958 46.3026 28.1627 46.0815 29.3061C45.8576 30.4256 45.4038 31.613 44.6956 32.9337C43.9806 34.2576 42.9549 35.7491 41.6471 37.3669C40.326 39.0011 38.5453 40.9306 36.3546 43.1017C36.3517 43.1045 36.3488 43.1074 36.346 43.1103L31.9323 47.6236C31.7126 47.8484 31.6488 48.183 31.7708 48.4728C31.8928 48.7626 32.1765 48.9511 32.4909 48.9511H47.3757C47.4059 48.9511 47.4208 48.956 47.4448 48.9741C47.4593 48.9849 47.474 48.9952 47.4891 49.005C47.4955 49.0091 47.5537 49.0504 47.6378 49.2254C47.6396 49.2291 47.6415 49.2329 47.6433 49.2365C47.716 49.3819 47.7783 49.6253 47.8284 49.9597C47.8822 50.3177 47.9094 50.7546 47.9094 51.2584C47.9094 51.8291 47.8886 52.2732 47.8458 52.6161C47.8089 52.911 47.7497 53.1797 47.67 53.4151C47.6265 53.5191 47.5858 53.5731 47.5674 53.5917C47.5542 53.5985 47.5329 53.6056 47.4951 53.6056H25.7659C25.4052 53.6056 25.0988 53.5737 24.8553 53.5109C24.6962 53.4699 24.5747 53.4017 24.4923 53.3063C24.3851 53.183 24.2998 52.9731 24.239 52.6827C24.1641 52.3246 24.1261 51.8185 24.1261 51.1788C24.1261 50.5714 24.1541 50.0489 24.2092 49.6259C24.2624 49.2178 24.3468 48.8877 24.4673 48.6167C24.6051 48.3065 24.7807 47.9995 24.9869 47.7074C25.224 47.3752 25.5119 47.0369 25.8668 46.673C25.8706 46.6692 25.8742 46.6653 25.8779 46.6614L32.4209 39.6703C32.754 39.322 33.0723 38.9806 33.3669 38.6554C33.6567 38.3357 33.6324 37.8417 33.3128 37.5519C32.9933 37.2622 32.4991 37.2863 32.2093 37.6061C31.923 37.9218 31.6132 38.2541 31.2886 38.5936C31.2867 38.5956 31.2848 38.5977 31.2829 38.5997L24.7425 45.588C24.3339 46.0073 23.998 46.4037 23.7129 46.803C23.4453 47.182 23.2187 47.5788 23.0395 47.9822C22.857 48.3927 22.7328 48.8643 22.6599 49.424C22.5951 49.9207 22.5637 50.4946 22.5637 51.1789C22.5637 51.9364 22.6115 52.5331 22.7097 53.0029C22.8276 53.5655 23.025 54.0002 23.3116 54.3297C23.5999 54.6635 23.9987 54.9036 24.465 55.0239C24.836 55.1197 25.2738 55.1682 25.766 55.1682H47.4953C47.848 55.1682 48.1837 55.0656 48.4661 54.8713C48.4726 54.8668 48.4789 54.8623 48.4852 54.8577C48.7583 54.6574 48.9743 54.362 49.1273 53.9797C49.1318 53.9683 49.1361 53.9568 49.1401 53.9453C49.2588 53.6028 49.345 53.2209 49.3963 52.8102C49.4472 52.4023 49.4721 51.8948 49.4721 51.2587C49.472 50.6772 49.439 50.1622 49.3737 49.7276V49.7276Z" fill="black"/>
<path d="M35.7928 35.4072C35.7928 34.9758 35.4429 34.626 35.0115 34.626H35.0109C34.5795 34.626 34.23 34.9758 34.23 35.4072C34.23 35.8386 34.5801 36.1885 35.0115 36.1885C35.443 36.1885 35.7928 35.8386 35.7928 35.4072V35.4072Z" fill="black"/>
<path d="M70.7857 35.1682C70.7857 54.0735 55.2301 69.418 36.0179 69.418C16.8057 69.418 1.25 54.0735 1.25 35.1682C1.25 16.263 16.8057 0.918457 36.0179 0.918457C55.2301 0.918457 70.7857 16.263 70.7857 35.1682Z" stroke="#333333" stroke-width="1.5"/>
</svg>
