<svg width="79" height="71" viewBox="0 0 79 71" fill="none" xmlns="http://www.w3.org/2000/svg">
<ellipse cx="42.8943" cy="35.9692" rx="35.1697" ry="34.6567" fill="#FFCB00"/>
<path d="M70.3497 35.626C70.3497 54.5313 54.794 69.8758 35.5818 69.8758C16.3696 69.8758 0.813965 54.5313 0.813965 35.626C0.813965 16.7207 16.3696 1.37622 35.5818 1.37622C54.794 1.37622 70.3497 16.7207 70.3497 35.626Z" stroke="#333333" stroke-width="1.5"/>
<path d="M48.0817 40.2867C47.6689 39.2349 47.0651 38.2783 46.2869 37.4435C45.5125 36.6127 44.556 35.9165 43.4467 35.3756C43.0476 35.1789 42.6332 35.008 42.2003 34.8617C42.4432 34.7338 42.6773 34.5967 42.9023 34.4505C43.8238 33.8518 44.5899 33.1256 45.1794 32.292C45.7849 31.4589 46.2474 30.4987 46.5532 29.4397C46.8589 28.3921 47.0139 27.257 47.0139 26.0659C47.0139 24.5153 46.7472 23.092 46.2227 21.8382C45.7019 20.5792 44.91 19.4936 43.8662 18.6094C42.8438 17.7522 41.5806 17.0896 40.11 16.6393C38.6473 16.1947 36.9728 15.9692 35.1331 15.9692C33.7159 15.9692 32.3811 16.093 31.1597 16.3382C29.8995 16.6019 28.8461 16.8984 27.9365 17.2457C27.0101 17.6035 26.2198 17.98 25.583 18.3678C24.8898 18.7971 24.5137 19.0611 24.2848 19.2793C24.2799 19.284 24.2751 19.2887 24.2703 19.2935C23.9996 19.5654 23.837 19.7683 23.7285 19.9698C23.6189 20.1671 23.5296 20.3928 23.4481 20.6791C23.4471 20.6822 23.4464 20.6853 23.4454 20.6885C23.3723 20.9581 23.3255 21.269 23.3025 21.6401C23.2818 21.9817 23.2717 22.3881 23.2717 22.8824C23.2717 23.4905 23.2923 23.9819 23.3348 24.3866C23.378 24.7888 23.4471 25.1277 23.54 25.3938C23.5437 25.4044 23.5476 25.4149 23.5517 25.4253C23.6912 25.7756 23.8963 26.0342 24.1615 26.1941C24.3875 26.335 24.6551 26.4064 24.9572 26.4064C25.3465 26.4064 25.7901 26.2336 26.4404 25.8288C26.9255 25.5269 27.5014 25.2011 28.1521 24.8604C28.8122 24.5246 29.5664 24.2139 30.401 23.9345C31.1948 23.6599 32.0247 23.5264 32.9379 23.5264C33.7259 23.5264 34.4013 23.6313 34.9453 23.8382C34.9485 23.8395 34.9518 23.8406 34.955 23.8418C35.2042 23.9328 35.436 24.0424 35.6439 24.1678C36.0125 24.3899 36.4904 24.2697 36.7115 23.8997C36.9326 23.5297 36.8131 23.0498 36.4445 22.8278C36.1528 22.6521 35.8322 22.4999 35.4915 22.3751C34.7618 22.0984 33.9264 21.9638 32.9379 21.9638C31.8646 21.9638 30.8405 22.1298 29.9016 22.4545C29.0002 22.7562 28.1735 23.0974 27.4444 23.4686C27.4419 23.47 27.4394 23.4713 27.4367 23.4726C26.7504 23.8318 26.1393 24.1776 25.6204 24.5006C25.2648 24.722 25.0777 24.8013 24.9933 24.8296C24.9618 24.726 24.9161 24.5342 24.8823 24.2206C24.8463 23.8777 24.8281 23.4274 24.8281 22.8822C24.8281 22.4198 24.8372 22.0443 24.8558 21.7357C24.8717 21.4792 24.902 21.2665 24.9457 21.1035C24.9923 20.9411 25.0404 20.8149 25.089 20.7282C25.0919 20.7231 25.0947 20.7179 25.0975 20.7127C25.108 20.6928 25.1582 20.6122 25.3627 20.406C25.5031 20.275 25.8518 20.0367 26.3949 19.7005C26.9479 19.3636 27.6545 19.0283 28.4924 18.7049C29.3217 18.3881 30.298 18.1142 31.4709 17.8688C32.5861 17.6453 33.8181 17.5317 35.1331 17.5317C36.8199 17.5317 38.3425 17.7347 39.6575 18.1345C40.9266 18.523 42.007 19.0863 42.8657 19.8062C43.7149 20.5256 44.3608 21.411 44.7867 22.4406C45.2383 23.5196 45.4577 24.7054 45.4577 26.066C45.4577 27.1082 45.3238 28.0956 45.0592 29.0025C44.8029 29.8899 44.4195 30.6879 43.9198 31.3745C43.9176 31.3775 43.9153 31.3806 43.9131 31.3836C43.4313 32.0661 42.8241 32.6402 42.0569 33.1387C41.305 33.6271 40.4203 33.9978 39.4274 34.2403C39.0787 34.3256 38.8332 34.6391 38.8332 34.9995V35.0876C38.8332 35.483 39.1274 35.816 39.5184 35.8633C40.7532 36.0124 41.8139 36.3117 42.7641 36.7797C43.704 37.2381 44.5069 37.8206 45.1507 38.5112C45.8034 39.2113 46.2885 39.9794 46.6349 40.8619C46.9802 41.7333 47.1553 42.6809 47.1553 43.6783C47.1553 45.4033 46.8278 46.9449 46.1838 48.256C45.5214 49.5861 44.6048 50.708 43.4596 51.5904C42.2771 52.5015 40.8469 53.2057 39.2139 53.6821C37.5235 54.1628 35.6615 54.4067 33.6795 54.4067C32.4596 54.4067 31.3111 54.3179 30.2669 54.1432C29.1705 53.9581 28.2489 53.7426 27.4494 53.4842C27.4469 53.4834 27.4443 53.4826 27.4416 53.4818C26.6732 53.2424 26.0118 52.9774 25.4714 52.6919C24.9586 52.4253 24.6553 52.232 24.5378 52.1366C24.4502 52.0569 24.3928 51.9823 24.3533 51.8971C24.2852 51.7331 24.221 51.5413 24.1691 51.348C24.1124 51.1285 24.0708 50.8453 24.0454 50.5047C24.0203 50.1771 24.0086 49.7478 24.0086 49.154C24.0086 48.0917 24.1187 47.6909 24.1698 47.5624C24.1764 47.5478 24.1825 47.5356 24.1882 47.5252C24.2778 47.5553 24.4554 47.6268 24.7623 47.7938C25.2536 48.061 25.8806 48.3503 26.6259 48.6536C27.3758 48.9588 28.2651 49.2465 29.2689 49.5085C30.3038 49.7787 31.4857 49.9157 32.7818 49.9157C33.8905 49.9157 34.8991 49.7791 35.7795 49.5096C36.6529 49.2422 37.4263 48.8491 38.0784 48.3412C38.0823 48.3381 38.0862 48.335 38.09 48.3319C38.7426 47.8032 39.2407 47.1586 39.5706 46.4162C39.572 46.4131 39.5732 46.4101 39.5746 46.407C39.8886 45.6752 40.0478 44.856 40.0478 43.9723C40.0478 43.0014 39.8541 42.1088 39.4721 41.3192C39.4708 41.3166 39.4695 41.3139 39.4681 41.3112C39.0645 40.5005 38.483 39.8162 37.7397 39.2773C37.0159 38.7361 36.0904 38.3149 34.9907 38.0255C33.9232 37.7417 32.6679 37.5978 31.2598 37.5978H28.0598C27.9174 37.5978 27.8069 37.5855 27.7307 37.5611C27.7223 37.5524 27.705 37.5319 27.6826 37.4916C27.6482 37.4238 27.5701 37.2391 27.5239 36.8861C27.4824 36.5695 27.4622 36.1319 27.4622 35.5481C27.4622 35.0005 27.4821 34.5903 27.5231 34.294C27.5724 33.9378 27.6403 33.799 27.6599 33.7649C27.6679 33.7512 27.6754 33.7372 27.6825 33.723C27.6942 33.6992 27.7043 33.6852 27.71 33.6779C27.7699 33.6503 27.857 33.6356 27.9621 33.6356H31.1817C32.3655 33.6356 33.426 33.4925 34.334 33.2103C35.2698 32.9321 36.085 32.5118 36.7619 31.9567C37.329 31.4838 37.7873 30.9196 38.1237 30.2799C38.3243 29.8984 38.179 29.4257 37.799 29.2242C37.4188 29.0228 36.9481 29.1688 36.7475 29.5503C36.5033 30.0144 36.1828 30.4084 35.7726 30.7505C35.2532 31.1763 34.6369 31.4911 33.8881 31.7133C33.8847 31.7143 33.8812 31.7153 33.8778 31.7163C33.1183 31.9531 32.2112 32.0731 31.1817 32.0731H27.9621C27.6272 32.0731 27.322 32.1362 27.0546 32.2606C26.7375 32.4028 26.4775 32.6591 26.3011 33.003C26.1485 33.276 26.0439 33.6284 25.9816 34.0789C25.93 34.4523 25.9059 34.9192 25.9059 35.5481C25.9059 36.2097 25.9297 36.6996 25.9808 37.0899C26.0398 37.5397 26.1496 37.9207 26.307 38.2224C26.3089 38.2262 26.3109 38.2299 26.313 38.2337C26.5109 38.5983 26.7932 38.8645 27.1291 39.0035C27.1339 39.0053 27.1386 39.0073 27.1434 39.0091C27.4073 39.1122 27.6985 39.1603 28.0596 39.1603H31.2597C32.5335 39.1603 33.6547 39.2866 34.5942 39.5363C35.5037 39.7756 36.2506 40.111 36.8138 40.5331C36.8173 40.5358 36.8208 40.5384 36.8244 40.541C37.3704 40.9359 37.7791 41.415 38.074 42.0057C38.3549 42.5879 38.4915 43.2312 38.4915 43.9722C38.4915 44.6403 38.3756 45.2499 38.1472 45.7842C37.9162 46.302 37.5797 46.7362 37.1184 47.1111C36.6175 47.5 36.0144 47.804 35.3255 48.0149C34.5922 48.2393 33.7364 48.3531 32.7817 48.3531C31.6176 48.3531 30.5674 48.2331 29.6603 47.9962C28.7219 47.7513 27.8978 47.4853 27.2105 47.2055C26.5184 46.9239 25.9441 46.6596 25.5035 46.4198C24.8979 46.0903 24.4796 45.9435 24.1474 45.9435C23.5347 45.9435 23.0231 46.3053 22.7436 46.9362C22.7411 46.9417 22.7387 46.9475 22.7363 46.9531C22.5451 47.414 22.4521 48.1339 22.4521 49.1539C22.4521 49.7888 22.4653 50.256 22.4934 50.623C22.5261 51.0609 22.5814 51.4263 22.6643 51.7473C22.738 52.0224 22.825 52.28 22.9228 52.5134C22.9252 52.5192 22.9278 52.525 22.9305 52.5309C23.0622 52.8249 23.253 53.0809 23.5134 53.3134C23.5195 53.3188 23.5257 53.3242 23.532 53.3295C23.7703 53.5289 24.1819 53.7813 24.7508 54.0771C25.37 54.4043 26.1189 54.7058 26.9766 54.9731C27.8473 55.2542 28.8392 55.4868 30.0096 55.6844C31.1393 55.8735 32.3739 55.9692 33.6792 55.9692C35.8046 55.9692 37.8094 55.7055 39.6428 55.184C41.4673 54.6517 43.0702 53.8599 44.4068 52.83C45.7407 51.8023 46.8068 50.4985 47.5774 48.951C48.3299 47.4192 48.7113 45.6452 48.7113 43.6784C48.7115 42.4821 48.4993 41.3403 48.0817 40.2867V40.2867Z" fill="black"/>
<path d="M38.7414 26.439C38.7414 26.0076 38.3929 25.6577 37.9633 25.6577H37.9626C37.5329 25.6577 37.1848 26.0076 37.1848 26.439C37.1848 26.8704 37.5335 27.2202 37.9633 27.2202C38.393 27.2202 38.7414 26.8704 38.7414 26.439V26.439Z" fill="black"/>
</svg>
