<svg width="120" height="120" viewBox="0 0 120 120" fill="none" xmlns="http://www.w3.org/2000/svg">
<path d="M60 120C93.1371 120 120 93.1371 120 60C120 26.8629 93.1371 0 60 0C26.8629 0 0 26.8629 0 60C0 93.1371 26.8629 120 60 120Z" fill="white"/>
<path d="M63.9681 71.3227H49.3875C47.1783 71.3227 45.3875 69.5318 45.3875 67.3227V38.6453C45.3875 38.093 45.8352 37.6453 46.3875 37.6453H69.9357C70.488 37.6453 70.9357 38.093 70.9357 38.6453V68.0929" stroke="#C8CFD6" stroke-width="1.7" stroke-linecap="round" stroke-linejoin="round"/>
<path d="M45.968 46.9355H41.7422C41.1899 46.9355 40.7422 46.4878 40.7422 45.9355V34C40.7422 33.4477 41.1899 33 41.7422 33H74.5809C75.1332 33 75.5809 33.4477 75.5809 34V45.9355C75.5809 46.4878 75.1332 46.9355 74.5809 46.9355H70.9357" stroke="#C8CFD6" stroke-width="1.7"/>
<path d="M70.9358 68.4194C69.3874 65.129 64.8971 57.0388 61.6455 57.9678C61.6455 57.9678 62.8068 63.1936 63.9681 67.8388C64.1617 70.3549 64.3168 75.2711 65.7103 77.1291C66.4845 77.9033 67.8006 79.5678 66.8716 80.0324" stroke="#42AB44" stroke-width="1.7" stroke-linecap="round" stroke-linejoin="round"/>
<path d="M75.0003 80.6128H80.2261V86.9999M70.9357 48.0967L77.4977 60.1268C77.767 60.6204 77.9701 61.1474 78.0651 61.7016C78.4103 63.7178 78.707 67.1703 77.9036 69.5805C77.066 72.0933 75.8507 74.1656 75.1941 75.1165C75.0712 75.2946 75.0003 75.504 75.0003 75.7203V80.6128L70.9357 48.0967ZM75.0003 80.6128H63.3875V86.9999L75.0003 80.6128Z" stroke="#42AB44" stroke-width="1.7" stroke-linecap="round" stroke-linejoin="round"/>
<path d="M55.2584 44.0322V60.2902M51.1938 44.0322V49.8386V44.0322ZM51.1938 55.0644V60.2902V55.0644Z" stroke="#C8CFD6" stroke-width="2" stroke-linecap="round" stroke-linejoin="round"/>
</svg>
