<svg width="120" height="120" viewBox="0 0 120 120" fill="none" xmlns="http://www.w3.org/2000/svg">
<path d="M60 120C93.1371 120 120 93.1371 120 60C120 26.8629 93.1371 0 60 0C26.8629 0 0 26.8629 0 60C0 93.1371 26.8629 120 60 120Z" fill="white"/>
<path d="M33 85L40.5214 77.9573H62C63.6569 77.9572 65 76.6141 65 74.9573V70.3333M33 73.9915V56C33 54.3432 34.3431 53 36 53H55.2222L33 73.9915Z" stroke="#C8CFD6" stroke-width="2.3" stroke-linecap="round" stroke-linejoin="round"/>
<path d="M60.2016 57.1034C59.748 55.931 60.2016 40.6897 60.2016 40.6897C60.2016 40.6897 64.6836 41.6054 67.1827 40.6897C69.6818 39.7739 73.0002 36 73.0002 36C73.0002 36 76.3187 39.7739 78.8178 40.6897C81.3169 41.6054 85.7989 40.6897 85.7989 40.6897C85.7989 40.6897 86.2514 55.931 85.7989 57.1034C83.7335 62.455 76.6804 67.5595 74.0237 69.3374C73.3997 69.755 72.6009 69.7548 71.977 69.337C69.3213 67.5586 62.271 62.4532 60.2016 57.1034Z" stroke="#42AB44" stroke-width="2" stroke-linecap="round" stroke-linejoin="round"/>
<path d="M43.1057 66.6648C42.8557 66.6648 42.6807 66.5748 42.5807 66.3948C42.4907 66.2048 42.4457 65.9998 42.4457 65.7798C42.4457 65.5598 42.4907 65.3598 42.5807 65.1798C42.6807 64.9998 42.8557 64.9098 43.1057 64.9098H43.4507C43.6907 64.9098 43.8907 64.8698 44.0507 64.7898C44.2207 64.7098 44.3557 64.6048 44.4557 64.4748C44.5657 64.3448 44.6457 64.1998 44.6957 64.0398C44.7457 63.8698 44.7707 63.6948 44.7707 63.5148C44.7707 63.1648 44.6807 62.8648 44.5007 62.6148C44.3207 62.3648 44.0407 62.2398 43.6607 62.2398C43.3107 62.2398 43.0307 62.3248 42.8207 62.4948C42.6207 62.6548 42.4607 62.8248 42.3407 63.0048C42.2107 63.1848 42.0857 63.3548 41.9657 63.5148C41.8557 63.6648 41.6857 63.7398 41.4557 63.7398C41.3457 63.7398 41.2357 63.7198 41.1257 63.6798C41.0157 63.6398 40.9107 63.5848 40.8107 63.5148C40.6907 63.4248 40.6057 63.3348 40.5557 63.2448C40.5057 63.1448 40.4807 63.0298 40.4807 62.8998C40.4807 62.7198 40.5157 62.5448 40.5857 62.3748C40.6657 62.1948 40.7757 62.0198 40.9157 61.8498C41.1957 61.4998 41.5557 61.2048 41.9957 60.9648C42.4457 60.7148 43.0307 60.5898 43.7507 60.5898C44.6607 60.5898 45.3807 60.8348 45.9107 61.3248C46.4407 61.8148 46.7057 62.4698 46.7057 63.2898C46.7057 63.8298 46.5957 64.3098 46.3757 64.7298C46.1557 65.1398 45.8907 65.4398 45.5807 65.6298C45.9907 65.8398 46.3257 66.1398 46.5857 66.5298C46.8457 66.9198 46.9757 67.4398 46.9757 68.0898C46.9757 68.6098 46.8907 69.0698 46.7207 69.4698C46.5607 69.8598 46.3307 70.1898 46.0307 70.4598C45.7307 70.7198 45.3707 70.9148 44.9507 71.0448C44.5307 71.1848 44.0707 71.2548 43.5707 71.2548C43.1807 71.2548 42.8357 71.2148 42.5357 71.1348C42.2357 71.0648 41.9657 70.9698 41.7257 70.8498C41.4957 70.7198 41.2957 70.5698 41.1257 70.3998C40.9557 70.2298 40.8057 70.0548 40.6757 69.8748C40.5857 69.7348 40.5057 69.5848 40.4357 69.4248C40.3757 69.2648 40.3457 69.0998 40.3457 68.9298C40.3457 68.7698 40.3757 68.6298 40.4357 68.5098C40.4957 68.3898 40.5957 68.2798 40.7357 68.1798C40.8157 68.1298 40.9107 68.0898 41.0207 68.0598C41.1307 68.0198 41.2457 67.9998 41.3657 67.9998C41.5957 67.9998 41.7657 68.0848 41.8757 68.2548C41.9857 68.4148 42.0957 68.5948 42.2057 68.7948C42.2657 68.8848 42.3357 68.9798 42.4157 69.0798C42.4957 69.1798 42.5907 69.2698 42.7007 69.3498C42.8107 69.4198 42.9407 69.4798 43.0907 69.5298C43.2507 69.5798 43.4307 69.6048 43.6307 69.6048C44.0107 69.6048 44.3357 69.4798 44.6057 69.2298C44.8857 68.9698 45.0257 68.5698 45.0257 68.0298C45.0257 67.5998 44.8957 67.2648 44.6357 67.0248C44.3757 66.7848 44.0257 66.6648 43.5857 66.6648H43.1057Z" fill="#C8CFD6"/>
<path d="M49.3279 70.9998C48.8379 70.9998 48.5929 70.7348 48.5929 70.2048V61.3398C48.5929 61.1198 48.6579 60.9398 48.7879 60.7998C48.9179 60.6598 49.0979 60.5898 49.3279 60.5898H51.7729C52.4929 60.5898 53.1429 60.6948 53.7229 60.9048C54.3029 61.1148 54.7929 61.4298 55.1929 61.8498C55.6029 62.2698 55.9179 62.7998 56.1379 63.4398C56.3579 64.0798 56.4679 64.8348 56.4679 65.7048C56.4679 66.5648 56.3579 67.3248 56.1379 67.9848C55.9179 68.6448 55.6029 69.1998 55.1929 69.6498C54.7929 70.0898 54.3029 70.4248 53.7229 70.6548C53.1429 70.8848 52.4929 70.9998 51.7729 70.9998H49.3279ZM50.4829 69.3048H51.8929C52.7129 69.3048 53.3579 69.0148 53.8279 68.4348C54.2979 67.8548 54.5329 66.9448 54.5329 65.7048C54.5329 64.5048 54.2979 63.6448 53.8279 63.1248C53.3579 62.5948 52.7129 62.3298 51.8929 62.3298H50.4829V69.3048Z" fill="#C8CFD6"/>
</svg>
