<svg width="48" height="48" viewBox="0 0 48 48" fill="none" xmlns="http://www.w3.org/2000/svg">
<path d="M12 0C10.35 0 9 1.35 9 3V45C9 46.65 10.35 48 12 48H42C43.65 48 45 46.65 45 45V12L33 0H12Z" fill="#E2E5E7"/>
<path d="M36 12H45L33 0V9C33 10.65 34.35 12 36 12Z" fill="#B0B7BD"/>
<path d="M45 21L36 12H45V21Z" fill="#CAD1D8"/>
<path d="M39 39C39 39.825 38.325 40.5 37.5 40.5H4.5C3.675 40.5 3 39.825 3 39V24C3 23.175 3.675 22.5 4.5 22.5H37.5C38.325 22.5 39 23.175 39 24V39Z" fill="#F15642"/>
<path d="M9.53857 28.4205C9.53857 28.0245 9.85057 27.5925 10.3531 27.5925H13.1236C14.6836 27.5925 16.0876 28.6365 16.0876 30.6375C16.0876 32.5335 14.6836 33.5895 13.1236 33.5895H11.1211V35.1735C11.1211 35.7015 10.7851 36 10.3531 36C9.95707 36 9.53857 35.7015 9.53857 35.1735V28.4205ZM11.1211 29.103V32.091H13.1236C13.9276 32.091 14.5636 31.3815 14.5636 30.6375C14.5636 29.799 13.9276 29.103 13.1236 29.103H11.1211Z" fill="white"/>
<path d="M18.4366 35.9998C18.0406 35.9998 17.6086 35.7838 17.6086 35.2573V28.4443C17.6086 28.0138 18.0406 27.7003 18.4366 27.7003H21.1831C26.6641 27.7003 26.5441 35.9998 21.2911 35.9998H18.4366ZM19.1926 29.1643V34.5373H21.1831C24.4216 34.5373 24.5656 29.1643 21.1831 29.1643H19.1926Z" fill="white"/>
<path d="M28.4882 29.2605V31.167H31.5467C31.9787 31.167 32.4107 31.599 32.4107 32.0175C32.4107 32.4135 31.9787 32.7375 31.5467 32.7375H28.4882V35.256C28.4882 35.676 28.1897 35.9985 27.7697 35.9985C27.2417 35.9985 26.9192 35.676 26.9192 35.256V28.443C26.9192 28.0125 27.2432 27.699 27.7697 27.699H31.9802C32.5082 27.699 32.8202 28.0125 32.8202 28.443C32.8202 28.827 32.5082 29.259 31.9802 29.259H28.4882V29.2605Z" fill="white"/>
<path d="M37.5 40.5H9V42H37.5C38.325 42 39 41.325 39 40.5V39C39 39.825 38.325 40.5 37.5 40.5Z" fill="#CAD1D8"/>
</svg>
