<svg width="64" height="65" viewBox="0 0 64 65" fill="none" xmlns="http://www.w3.org/2000/svg">
<path d="M23.0401 0.706055H20.48V3.26613H23.0401V0.706055Z" fill="white"/>
<path d="M25.6025 0.706055H23.0425V3.26613H25.6025V0.706055Z" fill="white"/>
<path d="M33.2798 0.706055H30.7197V3.26613H33.2798V0.706055Z" fill="white"/>
<path d="M40.9624 0.706055H38.4023V3.26613H40.9624V0.706055Z" fill="white"/>
<path d="M23.0401 3.26855H20.48V5.82864H23.0401V3.26855Z" fill="white"/>
<path d="M25.6025 3.26855H23.0425V5.82864H25.6025V3.26855Z" fill="white"/>
<path d="M28.1602 3.26855H25.6001V5.82864H28.1602V3.26855Z" fill="white"/>
<path d="M33.2798 3.26855H30.7197V5.82864H33.2798V3.26855Z" fill="white"/>
<path d="M23.0401 5.82568H20.48V8.38576H23.0401V5.82568Z" fill="white"/>
<path d="M25.6025 5.82568H23.0425V8.38576H25.6025V5.82568Z" fill="white"/>
<path d="M33.2798 5.82568H30.7197V8.38576H33.2798V5.82568Z" fill="white"/>
<path d="M35.8423 5.82568H33.2822V8.38576H35.8423V5.82568Z" fill="white"/>
<path d="M38.3999 5.82568H35.8398V8.38576H38.3999V5.82568Z" fill="white"/>
<path d="M40.9624 5.82568H38.4023V8.38576H40.9624V5.82568Z" fill="white"/>
<path d="M43.52 5.82568H40.96V8.38576H43.52V5.82568Z" fill="white"/>
<path d="M25.6025 8.38818H23.0425V10.9483H25.6025V8.38818Z" fill="white"/>
<path d="M30.7227 8.38818H28.1626V10.9483H30.7227V8.38818Z" fill="white"/>
<path d="M35.8423 8.38818H33.2822V10.9483H35.8423V8.38818Z" fill="white"/>
<path d="M23.0401 10.9463H20.48V13.5064H23.0401V10.9463Z" fill="white"/>
<path d="M25.6025 10.9463H23.0425V13.5064H25.6025V10.9463Z" fill="white"/>
<path d="M28.1602 10.9463H25.6001V13.5064H28.1602V10.9463Z" fill="white"/>
<path d="M38.3999 10.9463H35.8398V13.5064H38.3999V10.9463Z" fill="white"/>
<path d="M43.52 10.9463H40.96V13.5064H43.52V10.9463Z" fill="white"/>
<path d="M28.1602 13.5088H25.6001V16.0689H28.1602V13.5088Z" fill="white"/>
<path d="M30.7227 13.5088H28.1626V16.0689H30.7227V13.5088Z" fill="white"/>
<path d="M33.2798 13.5088H30.7197V16.0689H33.2798V13.5088Z" fill="white"/>
<path d="M38.3999 13.5088H35.8398V16.0689H38.3999V13.5088Z" fill="white"/>
<path d="M43.52 13.5088H40.96V16.0689H43.52V13.5088Z" fill="white"/>
<path d="M23.0401 16.0659H20.48V18.626H23.0401V16.0659Z" fill="white"/>
<path d="M28.1602 16.0659H25.6001V18.626H28.1602V16.0659Z" fill="white"/>
<path d="M33.2798 16.0659H30.7197V18.626H33.2798V16.0659Z" fill="white"/>
<path d="M38.3999 16.0659H35.8398V18.626H38.3999V16.0659Z" fill="white"/>
<path d="M43.52 16.0659H40.96V18.626H43.52V16.0659Z" fill="white"/>
<path d="M25.6025 18.6284H23.0425V21.1885H25.6025V18.6284Z" fill="white"/>
<path d="M30.7227 18.6284H28.1626V21.1885H30.7227V18.6284Z" fill="white"/>
<path d="M35.8423 18.6284H33.2822V21.1885H35.8423V18.6284Z" fill="white"/>
<path d="M38.3999 18.6284H35.8398V21.1885H38.3999V18.6284Z" fill="white"/>
<path d="M2.56008 21.186H0V23.7461H2.56008V21.186Z" fill="white"/>
<path d="M10.2422 21.186H7.68213V23.7461H10.2422V21.186Z" fill="white"/>
<path d="M12.8003 21.186H10.2402V23.7461H12.8003V21.186Z" fill="white"/>
<path d="M15.3628 21.186H12.8027V23.7461H15.3628V21.186Z" fill="white"/>
<path d="M17.9199 21.186H15.3599V23.7461H17.9199V21.186Z" fill="white"/>
<path d="M20.4824 21.186H17.9224V23.7461H20.4824V21.186Z" fill="white"/>
<path d="M23.0401 21.186H20.48V23.7461H23.0401V21.186Z" fill="white"/>
<path d="M25.6025 21.186H23.0425V23.7461H25.6025V21.186Z" fill="white"/>
<path d="M30.7227 21.186H28.1626V23.7461H30.7227V21.186Z" fill="white"/>
<path d="M33.2798 21.186H30.7197V23.7461H33.2798V21.186Z" fill="white"/>
<path d="M38.3999 21.186H35.8398V23.7461H38.3999V21.186Z" fill="white"/>
<path d="M40.9624 21.186H38.4023V23.7461H40.9624V21.186Z" fill="white"/>
<path d="M46.0825 21.186H43.5225V23.7461H46.0825V21.186Z" fill="white"/>
<path d="M53.7593 21.186H51.1992V23.7461H53.7593V21.186Z" fill="white"/>
<path d="M58.8799 21.186H56.3198V23.7461H58.8799V21.186Z" fill="white"/>
<path d="M61.4424 21.186H58.8823V23.7461H61.4424V21.186Z" fill="white"/>
<path d="M64 21.186H61.4399V23.7461H64V21.186Z" fill="white"/>
<path d="M2.56008 23.7485H0V26.3086H2.56008V23.7485Z" fill="white"/>
<path d="M5.12258 23.7485H2.5625V26.3086H5.12258V23.7485Z" fill="white"/>
<path d="M7.67971 23.7485H5.11963V26.3086H7.67971V23.7485Z" fill="white"/>
<path d="M10.2422 23.7485H7.68213V26.3086H10.2422V23.7485Z" fill="white"/>
<path d="M15.3628 23.7485H12.8027V26.3086H15.3628V23.7485Z" fill="white"/>
<path d="M20.4824 23.7485H17.9224V26.3086H20.4824V23.7485Z" fill="white"/>
<path d="M23.0401 23.7485H20.48V26.3086H23.0401V23.7485Z" fill="white"/>
<path d="M28.1602 23.7485H25.6001V26.3086H28.1602V23.7485Z" fill="white"/>
<path d="M30.7227 23.7485H28.1626V26.3086H30.7227V23.7485Z" fill="white"/>
<path d="M33.2798 23.7485H30.7197V26.3086H33.2798V23.7485Z" fill="white"/>
<path d="M35.8423 23.7485H33.2822V26.3086H35.8423V23.7485Z" fill="white"/>
<path d="M38.3999 23.7485H35.8398V26.3086H38.3999V23.7485Z" fill="white"/>
<path d="M40.9624 23.7485H38.4023V26.3086H40.9624V23.7485Z" fill="white"/>
<path d="M46.0825 23.7485H43.5225V26.3086H46.0825V23.7485Z" fill="white"/>
<path d="M51.2022 23.7485H48.6421V26.3086H51.2022V23.7485Z" fill="white"/>
<path d="M53.7593 23.7485H51.1992V26.3086H53.7593V23.7485Z" fill="white"/>
<path d="M56.3218 23.7485H53.7617V26.3086H56.3218V23.7485Z" fill="white"/>
<path d="M58.8799 23.7485H56.3198V26.3086H58.8799V23.7485Z" fill="white"/>
<path d="M61.4424 23.7485H58.8823V26.3086H61.4424V23.7485Z" fill="white"/>
<path d="M2.56008 26.3062H0V28.8662H2.56008V26.3062Z" fill="white"/>
<path d="M7.67971 26.3062H5.11963V28.8662H7.67971V26.3062Z" fill="white"/>
<path d="M12.8003 26.3062H10.2402V28.8662H12.8003V26.3062Z" fill="white"/>
<path d="M17.9199 26.3062H15.3599V28.8662H17.9199V26.3062Z" fill="white"/>
<path d="M20.4824 26.3062H17.9224V28.8662H20.4824V26.3062Z" fill="white"/>
<path d="M23.0401 26.3062H20.48V28.8662H23.0401V26.3062Z" fill="white"/>
<path d="M38.3999 26.3062H35.8398V28.8662H38.3999V26.3062Z" fill="white"/>
<path d="M40.9624 26.3062H38.4023V28.8662H40.9624V26.3062Z" fill="white"/>
<path d="M43.52 26.3062H40.96V28.8662H43.52V26.3062Z" fill="white"/>
<path d="M48.6392 26.3062H46.0791V28.8662H48.6392V26.3062Z" fill="white"/>
<path d="M51.2022 26.3062H48.6421V28.8662H51.2022V26.3062Z" fill="white"/>
<path d="M53.7593 26.3062H51.1992V28.8662H53.7593V26.3062Z" fill="white"/>
<path d="M56.3218 26.3062H53.7617V28.8662H56.3218V26.3062Z" fill="white"/>
<path d="M64 26.3062H61.4399V28.8662H64V26.3062Z" fill="white"/>
<path d="M5.12258 28.8687H2.5625V31.4287H5.12258V28.8687Z" fill="white"/>
<path d="M10.2422 28.8687H7.68213V31.4287H10.2422V28.8687Z" fill="white"/>
<path d="M12.8003 28.8687H10.2402V31.4287H12.8003V28.8687Z" fill="white"/>
<path d="M15.3628 28.8687H12.8027V31.4287H15.3628V28.8687Z" fill="white"/>
<path d="M23.0401 28.8687H20.48V31.4287H23.0401V28.8687Z" fill="white"/>
<path d="M38.3999 28.8687H35.8398V31.4287H38.3999V28.8687Z" fill="white"/>
<path d="M43.52 28.8687H40.96V31.4287H43.52V28.8687Z" fill="white"/>
<path d="M46.0825 28.8687H43.5225V31.4287H46.0825V28.8687Z" fill="white"/>
<path d="M48.6392 28.8687H46.0791V31.4287H48.6392V28.8687Z" fill="white"/>
<path d="M53.7593 28.8687H51.1992V31.4287H53.7593V28.8687Z" fill="white"/>
<path d="M56.3218 28.8687H53.7617V31.4287H56.3218V28.8687Z" fill="white"/>
<path d="M58.8799 28.8687H56.3198V31.4287H58.8799V28.8687Z" fill="white"/>
<path d="M61.4424 28.8687H58.8823V31.4287H61.4424V28.8687Z" fill="white"/>
<path d="M64 28.8687H61.4399V31.4287H64V28.8687Z" fill="white"/>
<path d="M5.12258 31.4258H2.5625V33.9859H5.12258V31.4258Z" fill="white"/>
<path d="M15.3628 31.4258H12.8027V33.9859H15.3628V31.4258Z" fill="white"/>
<path d="M17.9199 31.4258H15.3599V33.9859H17.9199V31.4258Z" fill="white"/>
<path d="M25.6025 31.4258H23.0425V33.9859H25.6025V31.4258Z" fill="white"/>
<path d="M28.1602 31.4258H25.6001V33.9859H28.1602V31.4258Z" fill="white"/>
<path d="M40.9624 31.4258H38.4023V33.9859H40.9624V31.4258Z" fill="white"/>
<path d="M43.52 31.4258H40.96V33.9859H43.52V31.4258Z" fill="white"/>
<path d="M46.0825 31.4258H43.5225V33.9859H46.0825V31.4258Z" fill="white"/>
<path d="M48.6392 31.4258H46.0791V33.9859H48.6392V31.4258Z" fill="white"/>
<path d="M51.2022 31.4258H48.6421V33.9859H51.2022V31.4258Z" fill="white"/>
<path d="M64 31.4258H61.4399V33.9859H64V31.4258Z" fill="white"/>
<path d="M2.56008 33.9883H0V36.5484H2.56008V33.9883Z" fill="white"/>
<path d="M10.2422 33.9883H7.68213V36.5484H10.2422V33.9883Z" fill="white"/>
<path d="M12.8003 33.9883H10.2402V36.5484H12.8003V33.9883Z" fill="white"/>
<path d="M15.3628 33.9883H12.8027V36.5484H15.3628V33.9883Z" fill="white"/>
<path d="M20.4824 33.9883H17.9224V36.5484H20.4824V33.9883Z" fill="white"/>
<path d="M25.6025 33.9883H23.0425V36.5484H25.6025V33.9883Z" fill="white"/>
<path d="M28.1602 33.9883H25.6001V36.5484H28.1602V33.9883Z" fill="white"/>
<path d="M33.2798 33.9883H30.7197V36.5484H33.2798V33.9883Z" fill="white"/>
<path d="M35.8423 33.9883H33.2822V36.5484H35.8423V33.9883Z" fill="white"/>
<path d="M38.3999 33.9883H35.8398V36.5484H38.3999V33.9883Z" fill="white"/>
<path d="M40.9624 33.9883H38.4023V36.5484H40.9624V33.9883Z" fill="white"/>
<path d="M43.52 33.9883H40.96V36.5484H43.52V33.9883Z" fill="white"/>
<path d="M53.7593 33.9883H51.1992V36.5484H53.7593V33.9883Z" fill="white"/>
<path d="M61.4424 33.9883H58.8823V36.5484H61.4424V33.9883Z" fill="white"/>
<path d="M2.56008 36.5459H0V39.106H2.56008V36.5459Z" fill="white"/>
<path d="M5.12258 36.5459H2.5625V39.106H5.12258V36.5459Z" fill="white"/>
<path d="M12.8003 36.5459H10.2402V39.106H12.8003V36.5459Z" fill="white"/>
<path d="M17.9199 36.5459H15.3599V39.106H17.9199V36.5459Z" fill="white"/>
<path d="M20.4824 36.5459H17.9224V39.106H20.4824V36.5459Z" fill="white"/>
<path d="M23.0401 36.5459H20.48V39.106H23.0401V36.5459Z" fill="white"/>
<path d="M25.6025 36.5459H23.0425V39.106H25.6025V36.5459Z" fill="white"/>
<path d="M38.3999 36.5459H35.8398V39.106H38.3999V36.5459Z" fill="white"/>
<path d="M40.9624 36.5459H38.4023V39.106H40.9624V36.5459Z" fill="white"/>
<path d="M46.0825 36.5459H43.5225V39.106H46.0825V36.5459Z" fill="white"/>
<path d="M51.2022 36.5459H48.6421V39.106H51.2022V36.5459Z" fill="white"/>
<path d="M53.7593 36.5459H51.1992V39.106H53.7593V36.5459Z" fill="white"/>
<path d="M56.3218 36.5459H53.7617V39.106H56.3218V36.5459Z" fill="white"/>
<path d="M58.8799 36.5459H56.3198V39.106H58.8799V36.5459Z" fill="white"/>
<path d="M61.4424 36.5459H58.8823V39.106H61.4424V36.5459Z" fill="white"/>
<path d="M64 36.5459H61.4399V39.106H64V36.5459Z" fill="white"/>
<path d="M2.56008 39.1084H0V41.6685H2.56008V39.1084Z" fill="white"/>
<path d="M7.67971 39.1084H5.11963V41.6685H7.67971V39.1084Z" fill="white"/>
<path d="M10.2422 39.1084H7.68213V41.6685H10.2422V39.1084Z" fill="white"/>
<path d="M12.8003 39.1084H10.2402V41.6685H12.8003V39.1084Z" fill="white"/>
<path d="M23.0401 39.1084H20.48V41.6685H23.0401V39.1084Z" fill="white"/>
<path d="M28.1602 39.1084H25.6001V41.6685H28.1602V39.1084Z" fill="white"/>
<path d="M33.2798 39.1084H30.7197V41.6685H33.2798V39.1084Z" fill="white"/>
<path d="M40.9624 39.1084H38.4023V41.6685H40.9624V39.1084Z" fill="white"/>
<path d="M53.7593 39.1084H51.1992V41.6685H53.7593V39.1084Z" fill="white"/>
<path d="M58.8799 39.1084H56.3198V41.6685H58.8799V39.1084Z" fill="white"/>
<path d="M64 39.1084H61.4399V41.6685H64V39.1084Z" fill="white"/>
<path d="M2.56008 41.666H0V44.2261H2.56008V41.666Z" fill="white"/>
<path d="M12.8003 41.666H10.2402V44.2261H12.8003V41.666Z" fill="white"/>
<path d="M17.9199 41.666H15.3599V44.2261H17.9199V41.666Z" fill="white"/>
<path d="M28.1602 41.666H25.6001V44.2261H28.1602V41.666Z" fill="white"/>
<path d="M30.7227 41.666H28.1626V44.2261H30.7227V41.666Z" fill="white"/>
<path d="M33.2798 41.666H30.7197V44.2261H33.2798V41.666Z" fill="white"/>
<path d="M35.8423 41.666H33.2822V44.2261H35.8423V41.666Z" fill="white"/>
<path d="M43.52 41.666H40.96V44.2261H43.52V41.666Z" fill="white"/>
<path d="M46.0825 41.666H43.5225V44.2261H46.0825V41.666Z" fill="white"/>
<path d="M48.6392 41.666H46.0791V44.2261H48.6392V41.666Z" fill="white"/>
<path d="M51.2022 41.666H48.6421V44.2261H51.2022V41.666Z" fill="white"/>
<path d="M53.7593 41.666H51.1992V44.2261H53.7593V41.666Z" fill="white"/>
<path d="M58.8799 41.666H56.3198V44.2261H58.8799V41.666Z" fill="white"/>
<path d="M61.4424 41.666H58.8823V44.2261H61.4424V41.666Z" fill="white"/>
<path d="M23.0401 44.2285H20.48V46.7886H23.0401V44.2285Z" fill="white"/>
<path d="M30.7227 44.2285H28.1626V46.7886H30.7227V44.2285Z" fill="white"/>
<path d="M43.52 44.2285H40.96V46.7886H43.52V44.2285Z" fill="white"/>
<path d="M53.7593 44.2285H51.1992V46.7886H53.7593V44.2285Z" fill="white"/>
<path d="M61.4424 44.2285H58.8823V46.7886H61.4424V44.2285Z" fill="white"/>
<path d="M23.0401 46.7852H20.48V49.3453H23.0401V46.7852Z" fill="white"/>
<path d="M25.6025 46.7852H23.0425V49.3453H25.6025V46.7852Z" fill="white"/>
<path d="M28.1602 46.7852H25.6001V49.3453H28.1602V46.7852Z" fill="white"/>
<path d="M33.2798 46.7852H30.7197V49.3453H33.2798V46.7852Z" fill="white"/>
<path d="M35.8423 46.7852H33.2822V49.3453H35.8423V46.7852Z" fill="white"/>
<path d="M43.52 46.7852H40.96V49.3453H43.52V46.7852Z" fill="white"/>
<path d="M48.6392 46.7852H46.0791V49.3453H48.6392V46.7852Z" fill="white"/>
<path d="M53.7593 46.7852H51.1992V49.3453H53.7593V46.7852Z" fill="white"/>
<path d="M56.3218 46.7852H53.7617V49.3453H56.3218V46.7852Z" fill="white"/>
<path d="M64 46.7852H61.4399V49.3453H64V46.7852Z" fill="white"/>
<path d="M23.0401 49.3481H20.48V51.9082H23.0401V49.3481Z" fill="white"/>
<path d="M30.7227 49.3481H28.1626V51.9082H30.7227V49.3481Z" fill="white"/>
<path d="M35.8423 49.3481H33.2822V51.9082H35.8423V49.3481Z" fill="white"/>
<path d="M43.52 49.3481H40.96V51.9082H43.52V49.3481Z" fill="white"/>
<path d="M53.7593 49.3481H51.1992V51.9082H53.7593V49.3481Z" fill="white"/>
<path d="M64 49.3481H61.4399V51.9082H64V49.3481Z" fill="white"/>
<path d="M23.0401 51.9053H20.48V54.4654H23.0401V51.9053Z" fill="white"/>
<path d="M25.6025 51.9053H23.0425V54.4654H25.6025V51.9053Z" fill="white"/>
<path d="M30.7227 51.9053H28.1626V54.4654H30.7227V51.9053Z" fill="white"/>
<path d="M33.2798 51.9053H30.7197V54.4654H33.2798V51.9053Z" fill="white"/>
<path d="M38.3999 51.9053H35.8398V54.4654H38.3999V51.9053Z" fill="white"/>
<path d="M40.9624 51.9053H38.4023V54.4654H40.9624V51.9053Z" fill="white"/>
<path d="M43.52 51.9053H40.96V54.4654H43.52V51.9053Z" fill="white"/>
<path d="M46.0825 51.9053H43.5225V54.4654H46.0825V51.9053Z" fill="white"/>
<path d="M48.6392 51.9053H46.0791V54.4654H48.6392V51.9053Z" fill="white"/>
<path d="M51.2022 51.9053H48.6421V54.4654H51.2022V51.9053Z" fill="white"/>
<path d="M53.7593 51.9053H51.1992V54.4654H53.7593V51.9053Z" fill="white"/>
<path d="M56.3218 51.9053H53.7617V54.4654H56.3218V51.9053Z" fill="white"/>
<path d="M23.0401 54.4678H20.48V57.0278H23.0401V54.4678Z" fill="white"/>
<path d="M28.1602 54.4678H25.6001V57.0278H28.1602V54.4678Z" fill="white"/>
<path d="M33.2798 54.4678H30.7197V57.0278H33.2798V54.4678Z" fill="white"/>
<path d="M40.9624 54.4678H38.4023V57.0278H40.9624V54.4678Z" fill="white"/>
<path d="M43.52 54.4678H40.96V57.0278H43.52V54.4678Z" fill="white"/>
<path d="M46.0825 54.4678H43.5225V57.0278H46.0825V54.4678Z" fill="white"/>
<path d="M48.6392 54.4678H46.0791V57.0278H48.6392V54.4678Z" fill="white"/>
<path d="M56.3218 54.4678H53.7617V57.0278H56.3218V54.4678Z" fill="white"/>
<path d="M61.4424 54.4678H58.8823V57.0278H61.4424V54.4678Z" fill="white"/>
<path d="M64 54.4678H61.4399V57.0278H64V54.4678Z" fill="white"/>
<path d="M28.1602 57.0259H25.6001V59.586H28.1602V57.0259Z" fill="white"/>
<path d="M30.7227 57.0259H28.1626V59.586H30.7227V57.0259Z" fill="white"/>
<path d="M33.2798 57.0259H30.7197V59.586H33.2798V57.0259Z" fill="white"/>
<path d="M35.8423 57.0259H33.2822V59.586H35.8423V57.0259Z" fill="white"/>
<path d="M38.3999 57.0259H35.8398V59.586H38.3999V57.0259Z" fill="white"/>
<path d="M40.9624 57.0259H38.4023V59.586H40.9624V57.0259Z" fill="white"/>
<path d="M43.52 57.0259H40.96V59.586H43.52V57.0259Z" fill="white"/>
<path d="M46.0825 57.0259H43.5225V59.586H46.0825V57.0259Z" fill="white"/>
<path d="M51.2022 57.0259H48.6421V59.586H51.2022V57.0259Z" fill="white"/>
<path d="M53.7593 57.0259H51.1992V59.586H53.7593V57.0259Z" fill="white"/>
<path d="M58.8799 57.0259H56.3198V59.586H58.8799V57.0259Z" fill="white"/>
<path d="M61.4424 57.0259H58.8823V59.586H61.4424V57.0259Z" fill="white"/>
<path d="M64 57.0259H61.4399V59.586H64V57.0259Z" fill="white"/>
<path d="M25.6025 59.5884H23.0425V62.1485H25.6025V59.5884Z" fill="white"/>
<path d="M30.7227 59.5884H28.1626V62.1485H30.7227V59.5884Z" fill="white"/>
<path d="M38.3999 59.5884H35.8398V62.1485H38.3999V59.5884Z" fill="white"/>
<path d="M40.9624 59.5884H38.4023V62.1485H40.9624V59.5884Z" fill="white"/>
<path d="M51.2022 59.5884H48.6421V62.1485H51.2022V59.5884Z" fill="white"/>
<path d="M53.7593 59.5884H51.1992V62.1485H53.7593V59.5884Z" fill="white"/>
<path d="M58.8799 59.5884H56.3198V62.1485H58.8799V59.5884Z" fill="white"/>
<path d="M61.4424 59.5884H58.8823V62.1485H61.4424V59.5884Z" fill="white"/>
<path d="M64 59.5884H61.4399V62.1485H64V59.5884Z" fill="white"/>
<path d="M23.0401 62.146H20.48V64.7061H23.0401V62.146Z" fill="white"/>
<path d="M30.7227 62.146H28.1626V64.7061H30.7227V62.146Z" fill="white"/>
<path d="M43.52 62.146H40.96V64.7061H43.52V62.146Z" fill="white"/>
<path d="M46.0825 62.146H43.5225V64.7061H46.0825V62.146Z" fill="white"/>
<path d="M48.6392 62.146H46.0791V64.7061H48.6392V62.146Z" fill="white"/>
<path d="M56.3218 62.146H53.7617V64.7061H56.3218V62.146Z" fill="white"/>
<path d="M64 62.146H61.4399V64.7061H64V62.146Z" fill="white"/>
<path d="M15.2325 0.706055H2.68809H0V3.39414V15.9385V18.6266H2.68809H15.2325H17.9206V15.9385V3.39414V0.706055H15.2325ZM15.2325 15.9385H2.68809V3.39414H15.2325V15.9385Z" fill="white"/>
<path d="M61.3116 0.706055H48.7672H46.0791V3.39414V15.9385V18.6266H48.7672H61.3116H63.9997V15.9385V3.39414V0.706055H61.3116ZM61.3116 15.9385H48.7672V3.39414H61.3116V15.9385Z" fill="white"/>
<path d="M15.2325 46.7852H2.68809H0V49.4732V62.0176V64.7057H2.68809H15.2325H17.9206V62.0176V49.4732V46.7852H15.2325ZM15.2325 62.0176H2.68809V49.4732H15.2325V62.0176Z" fill="white"/>
<path d="M12.7999 5.82568H5.11963V13.5059H12.7999V5.82568Z" fill="white"/>
<path d="M58.8795 5.82568H51.1992V13.5059H58.8795V5.82568Z" fill="white"/>
<path d="M12.7999 51.9053H5.11963V59.5855H12.7999V51.9053Z" fill="white"/>
</svg>
