<svg width="54" height="54" viewBox="0 0 54 54" fill="none" xmlns="http://www.w3.org/2000/svg">
<path d="M27 54C41.9117 54 54 41.9117 54 27C54 12.0883 41.9117 0 27 0C12.0883 0 0 12.0883 0 27C0 41.9117 12.0883 54 27 54Z" fill="#F5F7F9"/>
<path d="M21.75 24.5C23.2688 24.5 24.5 23.2688 24.5 21.75C24.5 20.2312 23.2688 19 21.75 19C20.2312 19 19 20.2312 19 21.75C19 23.2688 20.2312 24.5 21.75 24.5Z" stroke="#BDBDBD" stroke-width="2"/>
<path d="M35 32.2499C35 33.7687 33.7688 34.9999 32.25 34.9999C30.7312 34.9999 29.5 33.7687 29.5 32.2499C29.5 30.7311 30.7312 29.4999 32.25 29.4999C33.7688 29.4999 35 30.7311 35 32.2499Z" stroke="#BDBDBD" stroke-width="2"/>
<path d="M32.7287 20.9999L21.2734 32.9998" stroke="#BDBDBD" stroke-width="2" stroke-linecap="round"/>
</svg>
