<svg width="54" height="54" viewBox="0 0 54 54" fill="none" xmlns="http://www.w3.org/2000/svg">
<path d="M27 54C41.9117 54 54 41.9117 54 27C54 12.0883 41.9117 0 27 0C12.0883 0 0 12.0883 0 27C0 41.9117 12.0883 54 27 54Z" fill="#F5F7F9"/>
<path fill-rule="evenodd" clip-rule="evenodd" d="M34 36H18C16.3431 36 15 34.6569 15 33V21C15 19.3431 16.3431 18 18 18H34C35.6569 18 37 19.3431 37 21V22C37 22.5523 36.5523 23 36 23C35.4477 23 35 22.5523 35 22V21C35 20.4477 34.5523 20 34 20H18C17.4477 20 17 20.4477 17 21V33C17 33.5523 17.4477 34 18 34H34C34.5523 34 35 33.5523 35 33V32C35 31.4477 35.4477 31 36 31C36.5523 31 37 31.4477 37 32V33C37 34.6569 35.6569 36 34 36ZM39 28V26C39 24.8954 38.1046 24 37 24H32C30.8954 24 30 24.8954 30 26V29C30 29.5523 30.4477 30 31 30C31.5523 30 32 29.5523 32 29V26H37V28H35C34.4477 28 34 28.4477 34 29C34 29.5523 34.4477 30 35 30H37C38.1046 30 39 29.1046 39 28Z" fill="#BDBDBD"/>
</svg>
