<svg width="271" height="40" viewBox="0 0 271 40" fill="none" xmlns="http://www.w3.org/2000/svg">
<g clip-path="url(#clip0)">
<path d="M261.135 0.00013H160.535C160.168 0.00013 159.806 0.00013 159.44 0.00213C159.134 0.00413 158.83 0.00994 158.521 0.01483C157.85 0.0227318 157.18 0.0818063 156.517 0.19154C155.856 0.303663 155.215 0.515046 154.616 0.81854C154.018 1.1246 153.472 1.5223 152.998 1.9972C152.52 2.47077 152.122 3.01815 151.819 3.61829C151.515 4.21724 151.305 4.85907 151.194 5.52161C151.083 6.18332 151.023 6.85265 151.015 7.52361C151.006 7.83021 151.005 8.13783 151 8.44447V31.5587C151.005 31.8692 151.006 32.17 151.015 32.4806C151.023 33.1516 151.083 33.8209 151.194 34.4825C151.304 35.1455 151.515 35.7877 151.819 36.3868C152.122 36.985 152.52 37.5302 152.998 38.0011C153.471 38.4781 154.017 38.8761 154.616 39.1798C155.215 39.4841 155.855 39.6968 156.517 39.8106C157.18 39.9195 157.85 39.9786 158.521 39.9874C158.83 39.9942 159.134 39.9981 159.44 39.9981C159.806 40.0001 160.168 40.0001 160.535 40.0001H261.135C261.494 40.0001 261.859 40.0001 262.219 39.9981C262.523 39.9981 262.836 39.9942 263.141 39.9874C263.811 39.9791 264.479 39.92 265.141 39.8106C265.804 39.696 266.448 39.4834 267.049 39.1798C267.647 38.8759 268.193 38.478 268.666 38.0011C269.142 37.5284 269.541 36.9836 269.848 36.3868C270.15 35.7872 270.358 35.1451 270.467 34.4825C270.578 33.8208 270.64 33.1516 270.652 32.4806C270.656 32.17 270.656 31.8692 270.656 31.5587C270.664 31.1954 270.664 30.8341 270.664 30.4649V9.53626C270.664 9.17005 270.664 8.80677 270.656 8.44447C270.656 8.13783 270.656 7.83021 270.652 7.52357C270.64 6.85255 270.578 6.18337 270.467 5.52157C270.358 4.85941 270.149 4.21763 269.848 3.61825C269.23 2.41533 268.252 1.43616 267.049 0.81845C266.448 0.515697 265.804 0.30437 265.141 0.19145C264.48 0.0812328 263.811 0.0221378 263.141 0.01469C262.836 0.00981 262.523 0.00395 262.219 0.002C261.859 0 261.494 0 261.135 0V0.00013Z" fill="#A6A6A6"/>
<path d="M159.445 39.125C159.14 39.125 158.843 39.1211 158.541 39.1143C157.914 39.1061 157.29 39.0516 156.671 38.9512C156.095 38.8519 155.537 38.6673 155.015 38.4033C154.498 38.1415 154.026 37.7983 153.618 37.3867C153.204 36.98 152.859 36.5082 152.597 35.9902C152.333 35.4688 152.149 34.9099 152.054 34.333C151.951 33.7131 151.896 33.0863 151.888 32.458C151.881 32.2471 151.873 31.5449 151.873 31.5449V8.44434C151.873 8.44434 151.882 7.75293 151.888 7.5498C151.895 6.92248 151.951 6.29665 152.053 5.67773C152.149 5.09925 152.332 4.53875 152.597 4.01563C152.857 3.49794 153.2 3.02586 153.612 2.61768C154.023 2.20562 154.496 1.8606 155.014 1.59521C155.535 1.33209 156.092 1.14873 156.668 1.05127C157.288 0.949836 157.915 0.894996 158.543 0.88721L159.445 0.875H262.214L263.127 0.8877C263.75 0.895099 264.371 0.94945 264.985 1.05029C265.566 1.14898 266.13 1.33362 266.656 1.59814C267.694 2.13299 268.539 2.97916 269.071 4.01807C269.332 4.53758 269.512 5.09351 269.607 5.66699C269.71 6.29099 269.768 6.92174 269.78 7.5542C269.783 7.8374 269.783 8.1416 269.783 8.44434C269.791 8.81934 269.791 9.17627 269.791 9.53613V30.4648C269.791 30.8281 269.791 31.1826 269.783 31.54C269.783 31.8652 269.783 32.1631 269.779 32.4697C269.768 33.0909 269.711 33.7104 269.608 34.3232C269.515 34.9043 269.333 35.4675 269.068 35.9932C268.805 36.5056 268.462 36.9733 268.053 37.3789C267.644 37.7927 267.172 38.1379 266.653 38.4014C266.128 38.6674 265.566 38.8527 264.985 38.9512C264.367 39.0522 263.742 39.1067 263.116 39.1143C262.823 39.1211 262.517 39.125 262.219 39.125L261.135 39.127L159.445 39.125Z" fill="black"/>
<path d="M175.769 20.3008C175.78 19.4662 176.001 18.6478 176.413 17.9218C176.826 17.1959 177.414 16.5859 178.126 16.1488C177.674 15.5036 177.078 14.9727 176.385 14.5981C175.692 14.2236 174.922 14.0157 174.134 13.9911C172.455 13.8148 170.827 14.9959 169.971 14.9959C169.099 14.9959 167.782 14.0086 166.363 14.0378C165.445 14.0674 164.551 14.3343 163.767 14.8123C162.983 15.2904 162.337 15.9633 161.89 16.7656C159.956 20.1141 161.399 25.0351 163.251 27.7417C164.178 29.0671 165.261 30.5475 166.679 30.495C168.066 30.4375 168.584 29.6105 170.258 29.6105C171.917 29.6105 172.403 30.495 173.849 30.4616C175.338 30.4375 176.275 29.1304 177.17 27.7925C177.836 26.8481 178.348 25.8044 178.688 24.7C177.824 24.3343 177.086 23.7221 176.566 22.9398C176.047 22.1575 175.77 21.2397 175.769 20.3008V20.3008Z" fill="white"/>
<path d="M173.038 12.2108C173.849 11.2366 174.249 9.98445 174.152 8.72021C172.912 8.85044 171.767 9.44299 170.945 10.3798C170.542 10.8375 170.234 11.3699 170.038 11.9467C169.842 12.5235 169.761 13.1333 169.801 13.7412C170.421 13.7476 171.034 13.6132 171.595 13.3481C172.156 13.083 172.649 12.6942 173.038 12.2108Z" fill="white"/>
<path d="M193.302 27.1397H188.569L187.432 30.4961H185.427L189.911 18.0781H191.994L196.477 30.4961H194.438L193.302 27.1397ZM189.059 25.5908H192.811L190.961 20.1436H190.91L189.059 25.5908Z" fill="white"/>
<path d="M206.16 25.9699C206.16 28.7834 204.654 30.591 202.381 30.591C201.806 30.6211 201.233 30.4885 200.729 30.2084C200.226 29.9283 199.811 29.5119 199.533 29.007H199.49V33.4914H197.631V21.4426H199.43V22.9485H199.464C199.755 22.446 200.177 22.0318 200.685 21.7499C201.192 21.4681 201.767 21.3291 202.347 21.3479C204.645 21.3479 206.16 23.1643 206.16 25.9699ZM204.25 25.9699C204.25 24.1369 203.302 22.9319 201.857 22.9319C200.437 22.9319 199.482 24.1623 199.482 25.9699C199.482 27.7942 200.437 29.0158 201.857 29.0158C203.302 29.0158 204.25 27.8196 204.25 25.9699Z" fill="white"/>
<path d="M216.125 25.9699C216.125 28.7834 214.619 30.591 212.346 30.591C211.771 30.6211 211.198 30.4885 210.694 30.2084C210.19 29.9283 209.776 29.5119 209.498 29.007H209.455V33.4914H207.596V21.4426H209.395V22.9484H209.429C209.72 22.446 210.142 22.0318 210.65 21.7499C211.157 21.4681 211.732 21.3291 212.312 21.3479C214.61 21.3479 216.125 23.1643 216.125 25.9699ZM214.214 25.9699C214.214 24.1369 213.267 22.9318 211.822 22.9318C210.402 22.9318 209.447 24.1623 209.447 25.9699C209.447 27.7942 210.402 29.0158 211.822 29.0158C213.267 29.0158 214.214 27.8195 214.214 25.9699H214.214Z" fill="white"/>
<path d="M222.71 27.0362C222.848 28.2676 224.044 29.0762 225.679 29.0762C227.246 29.0762 228.373 28.2676 228.373 27.1572C228.373 26.1934 227.693 25.6162 226.084 25.2207L224.474 24.833C222.194 24.2822 221.135 23.2158 221.135 21.4854C221.135 19.3428 223.002 17.8711 225.654 17.8711C228.278 17.8711 230.077 19.3428 230.137 21.4854H228.261C228.149 20.2461 227.125 19.4981 225.627 19.4981C224.13 19.4981 223.106 20.2549 223.106 21.3565C223.106 22.2344 223.76 22.751 225.361 23.1465L226.729 23.4824C229.277 24.0849 230.335 25.1084 230.335 26.9248C230.335 29.248 228.485 30.7031 225.542 30.7031C222.788 30.7031 220.928 29.2822 220.808 27.0361L222.71 27.0362Z" fill="white"/>
<path d="M234.346 19.2998V21.4424H236.068V22.9141H234.346V27.9053C234.346 28.6807 234.691 29.042 235.448 29.042C235.652 29.0384 235.856 29.0241 236.059 28.999V30.4619C235.719 30.5255 235.373 30.5543 235.027 30.5478C233.194 30.5478 232.479 29.8593 232.479 28.1035V22.9141H231.163V21.4424H232.479V19.2998H234.346Z" fill="white"/>
<path d="M237.065 25.9697C237.065 23.1211 238.743 21.3311 241.359 21.3311C243.984 21.3311 245.654 23.1211 245.654 25.9697C245.654 28.8262 243.993 30.6084 241.359 30.6084C238.726 30.6084 237.065 28.8262 237.065 25.9697ZM243.76 25.9697C243.76 24.0156 242.865 22.8623 241.359 22.8623C239.853 22.8623 238.958 24.0244 238.958 25.9697C238.958 27.9316 239.853 29.0762 241.359 29.0762C242.865 29.0762 243.76 27.9316 243.76 25.9697H243.76Z" fill="white"/>
<path d="M247.186 21.4425H248.959V22.9835H249.002C249.121 22.5022 249.403 22.0769 249.8 21.779C250.197 21.4811 250.684 21.3288 251.179 21.3478C251.393 21.347 251.607 21.3703 251.816 21.4171V23.1554C251.546 23.0728 251.264 23.0348 250.981 23.0431C250.711 23.0321 250.442 23.0797 250.192 23.1826C249.942 23.2855 249.718 23.4412 249.534 23.6391C249.35 23.837 249.211 24.0724 249.126 24.3291C249.042 24.5857 249.014 24.8576 249.044 25.1261V30.4962H247.186L247.186 21.4425Z" fill="white"/>
<path d="M260.384 27.8369C260.134 29.4805 258.534 30.6084 256.486 30.6084C253.852 30.6084 252.217 28.8437 252.217 26.0127C252.217 23.1729 253.861 21.3311 256.408 21.3311C258.913 21.3311 260.488 23.0518 260.488 25.7969V26.4336H254.093V26.5459C254.064 26.8791 254.105 27.2148 254.216 27.5306C254.326 27.8464 254.502 28.1352 254.732 28.3778C254.963 28.6203 255.242 28.8111 255.552 28.9374C255.861 29.0637 256.195 29.1226 256.529 29.1103C256.968 29.1515 257.409 29.0498 257.785 28.8203C258.162 28.5909 258.455 28.246 258.62 27.8369L260.384 27.8369ZM254.102 25.1348H258.628C258.645 24.8352 258.6 24.5354 258.495 24.2541C258.39 23.9729 258.229 23.7164 258.02 23.5006C257.812 23.2849 257.561 23.1145 257.283 23.0003C257.006 22.8861 256.708 22.8305 256.408 22.8369C256.105 22.8351 255.805 22.8933 255.525 23.008C255.245 23.1227 254.99 23.2918 254.776 23.5054C254.562 23.7191 254.392 23.973 254.276 24.2527C254.16 24.5323 254.101 24.8321 254.102 25.1348V25.1348Z" fill="white"/>
<path d="M187.738 11.2534H188.536C188.673 11.2705 188.813 11.259 188.946 11.2195C189.078 11.1801 189.201 11.1136 189.307 11.0242C189.413 10.9349 189.499 10.8246 189.56 10.7003C189.621 10.576 189.655 10.4405 189.661 10.3022C189.661 9.75193 189.247 9.39646 188.545 9.39646C188.404 9.3768 188.261 9.38553 188.124 9.42214C187.986 9.45875 187.858 9.52249 187.746 9.60961C187.633 9.69672 187.54 9.80544 187.47 9.92935C187.401 10.0533 187.357 10.1898 187.341 10.331H186.465C186.48 10.0747 186.548 9.82428 186.664 9.59527C186.78 9.36626 186.942 9.16359 187.139 8.99989C187.337 8.83618 187.567 8.71494 187.813 8.64372C188.06 8.5725 188.319 8.55282 188.573 8.58591C189.748 8.58591 190.575 9.24362 190.575 10.1904C190.578 10.5076 190.472 10.8161 190.275 11.0645C190.077 11.3129 189.801 11.486 189.491 11.5551V11.6255C189.858 11.6417 190.204 11.8027 190.453 12.073C190.701 12.3434 190.833 12.7013 190.818 13.0683C190.791 13.3322 190.712 13.588 190.584 13.8208C190.457 14.0535 190.285 14.2585 190.077 14.4237C189.869 14.5889 189.631 14.7111 189.376 14.7829C189.12 14.8548 188.853 14.875 188.59 14.8423C188.326 14.8782 188.058 14.8607 187.801 14.7907C187.544 14.7208 187.304 14.5998 187.095 14.4351C186.885 14.2703 186.712 14.0651 186.583 13.8317C186.455 13.5983 186.375 13.3415 186.349 13.0766H187.238C187.292 13.6474 187.816 14.0156 188.59 14.0156C189.363 14.0156 189.868 13.6021 189.868 13.0191C189.868 12.4277 189.393 12.0635 188.562 12.0635H187.738V11.2534Z" fill="white"/>
<path d="M191.829 13.4243C191.829 12.6138 192.434 12.1465 193.504 12.0801L194.724 12.0098V11.6211C194.724 11.1455 194.41 10.877 193.802 10.877C193.306 10.877 192.963 11.0591 192.863 11.3774H192.003C192.094 10.604 192.822 10.1079 193.844 10.1079C194.973 10.1079 195.609 10.6699 195.609 11.6211V14.6978H194.753V14.0649H194.683C194.54 14.2919 194.34 14.477 194.102 14.6012C193.864 14.7254 193.598 14.7843 193.33 14.7719C193.141 14.7916 192.95 14.7714 192.769 14.7127C192.588 14.654 192.422 14.5581 192.281 14.4311C192.139 14.3042 192.026 14.149 191.948 13.9756C191.87 13.8021 191.83 13.6144 191.829 13.4243V13.4243ZM194.724 13.0395V12.6631L193.624 12.7334C193.004 12.7749 192.723 12.9858 192.723 13.3828C192.723 13.7881 193.074 14.0239 193.558 14.0239C193.699 14.0383 193.842 14.024 193.978 13.9819C194.114 13.9398 194.241 13.8708 194.349 13.7789C194.458 13.6871 194.547 13.5743 194.612 13.4473C194.676 13.3202 194.714 13.1816 194.724 13.0395V13.0395Z" fill="white"/>
<path d="M197.968 10.9429V14.6978H197.079V10.1948H200.044V10.9428L197.968 10.9429Z" fill="white"/>
<path d="M205.43 12.4443C205.43 13.875 204.706 14.7719 203.569 14.7719C203.29 14.791 203.012 14.7299 202.766 14.5959C202.521 14.4619 202.319 14.2606 202.184 14.0156H202.113V16.1948H201.225V10.1948H202.08V10.939H202.146C202.284 10.6854 202.489 10.4747 202.738 10.3302C202.988 10.1857 203.272 10.113 203.561 10.1201C204.706 10.1201 205.43 11.0131 205.43 12.4443ZM204.516 12.4443C204.516 11.4931 204.065 10.9184 203.313 10.9184C202.565 10.9184 202.097 11.5053 202.097 12.4482C202.097 13.3867 202.564 13.9741 203.309 13.9741C204.065 13.9741 204.516 13.3994 204.516 12.4443Z" fill="white"/>
<path d="M206.613 16.3106V15.5454C206.709 15.5576 206.806 15.5632 206.903 15.562C207.093 15.576 207.28 15.5197 207.431 15.4037C207.581 15.2877 207.683 15.1203 207.718 14.9336L207.784 14.7144L206.154 10.1948H207.122L208.251 13.7715H208.321L209.446 10.1948H210.389L208.71 14.8838C208.325 15.9795 207.899 16.3311 206.981 16.3311C206.907 16.3311 206.696 16.3228 206.613 16.3106Z" fill="white"/>
<path d="M211.081 13.42H211.966C212.053 13.817 212.425 14.024 212.945 14.024C213.537 14.024 213.9 13.7633 213.9 13.358C213.9 12.9239 213.574 12.7169 212.945 12.7169H212.271V12.0265H212.934C213.471 12.0265 213.744 11.8199 213.744 11.4435C213.744 11.1129 213.479 10.8605 212.934 10.8605C212.437 10.8605 212.073 11.0714 212.016 11.4269H211.159C211.223 11.0184 211.445 10.6514 211.777 10.4048C212.109 10.1581 212.524 10.0516 212.934 10.108C214.004 10.108 214.616 10.5919 214.616 11.3527C214.621 11.5645 214.553 11.7717 214.424 11.9395C214.295 12.1073 214.111 12.2256 213.905 12.2746V12.3449C214.151 12.3765 214.376 12.4972 214.538 12.6839C214.701 12.8707 214.789 13.1106 214.786 13.358C214.786 14.214 214.058 14.7804 212.945 14.7804C211.962 14.7804 211.163 14.3297 211.081 13.42Z" fill="white"/>
<path d="M216.066 14.6978V10.1948H216.947V13.292H217.017L219.092 10.1948H219.973V14.6978H219.092V11.584H219.026L216.947 14.6978L216.066 14.6978Z" fill="white"/>
<path d="M224.826 10.9428H223.408V14.6977H222.518V10.9428H221.1V10.1948H224.826V10.9428Z" fill="white"/>
<path d="M229.613 13.482C229.492 13.8935 229.23 14.2494 228.873 14.4875C228.516 14.7257 228.087 14.8309 227.661 14.7847C227.364 14.7926 227.069 14.7358 226.797 14.6182C226.524 14.5007 226.281 14.3253 226.083 14.1041C225.885 13.883 225.737 13.6214 225.651 13.3376C225.564 13.0538 225.54 12.7545 225.581 12.4605C225.541 12.1656 225.566 11.8657 225.652 11.581C225.739 11.2964 225.885 11.0336 226.082 10.8105C226.279 10.5874 226.521 10.4093 226.793 10.2881C227.065 10.1669 227.359 10.1054 227.657 10.108C228.91 10.108 229.667 10.964 229.667 12.378V12.6881H226.487V12.7379C226.473 12.9032 226.494 13.0696 226.548 13.2264C226.602 13.3832 226.688 13.527 226.801 13.6485C226.914 13.77 227.051 13.8665 227.203 13.9318C227.356 13.9972 227.52 14.0299 227.686 14.0279C227.899 14.0533 228.114 14.0149 228.304 13.9177C228.495 13.8205 228.652 13.6689 228.757 13.482L229.613 13.482ZM226.487 12.0308H228.76C228.772 11.8798 228.751 11.7281 228.7 11.5854C228.649 11.4427 228.569 11.3123 228.465 11.2024C228.361 11.0926 228.235 11.0058 228.095 10.9475C227.955 10.8893 227.804 10.861 227.653 10.8643C227.499 10.8623 227.347 10.891 227.204 10.9489C227.062 11.0068 226.932 11.0926 226.824 11.2014C226.715 11.3101 226.629 11.4396 226.571 11.582C226.514 11.7245 226.485 11.8771 226.487 12.0308H226.487Z" fill="white"/>
<path d="M233.38 10.1948H235.411C236.292 10.1948 236.808 10.6411 236.808 11.3398C236.809 11.5615 236.735 11.777 236.596 11.9501C236.458 12.1233 236.264 12.2436 236.047 12.291V12.3613C236.31 12.3779 236.557 12.4949 236.736 12.6881C236.915 12.8813 237.013 13.1359 237.01 13.3994C237.01 14.185 236.419 14.6977 235.431 14.6977H233.38V10.1948ZM234.261 10.877V12.043H235.142C235.679 12.043 235.936 11.8364 235.936 11.4556C235.936 11.1045 235.712 10.8769 235.241 10.8769L234.261 10.877ZM234.261 12.6963V14.0156H235.315C235.84 14.0156 236.122 13.7837 236.122 13.3579C236.122 12.9072 235.803 12.6963 235.204 12.6963L234.261 12.6963Z" fill="white"/>
</g>
<path d="M130 40H5C2.2 40 0 37.8 0 35V5C0 2.2 2.2 0 5 0H130C132.8 0 135 2.2 135 5V35C135 37.8 132.8 40 130 40Z" fill="black"/>
<path d="M130 0.8C132.3 0.8 134.2 2.7 134.2 5V35C134.2 37.3 132.3 39.2 130 39.2H5C2.7 39.2 0.8 37.3 0.8 35V5C0.8 2.7 2.7 0.8 5 0.8H130V0.8ZM130 0H5C2.2 0 0 2.3 0 5V35C0 37.8 2.2 40 5 40H130C132.8 40 135 37.8 135 35V5C135 2.3 132.8 0 130 0Z" fill="#A6A6A6"/>
<path d="M68.1001 21.8001C65.7001 21.8001 63.8001 23.6001 63.8001 26.1001C63.8001 28.5001 65.7001 30.4001 68.1001 30.4001C70.5001 30.4001 72.4001 28.6001 72.4001 26.1001C72.4001 23.5001 70.5001 21.8001 68.1001 21.8001ZM68.1001 28.6001C66.8001 28.6001 65.7001 27.5001 65.7001 26.0001C65.7001 24.5001 66.8001 23.4001 68.1001 23.4001C69.4001 23.4001 70.5001 24.4001 70.5001 26.0001C70.5001 27.5001 69.4001 28.6001 68.1001 28.6001ZM58.8001 21.8001C56.4001 21.8001 54.5001 23.6001 54.5001 26.1001C54.5001 28.5001 56.4001 30.4001 58.8001 30.4001C61.2001 30.4001 63.1001 28.6001 63.1001 26.1001C63.1001 23.5001 61.2001 21.8001 58.8001 21.8001ZM58.8001 28.6001C57.5001 28.6001 56.4001 27.5001 56.4001 26.0001C56.4001 24.5001 57.5001 23.4001 58.8001 23.4001C60.1001 23.4001 61.2001 24.4001 61.2001 26.0001C61.2001 27.5001 60.1001 28.6001 58.8001 28.6001ZM47.7001 23.1001V24.9001H52.0001C51.9001 25.9001 51.5001 26.7001 51.0001 27.2001C50.4001 27.8001 49.4001 28.5001 47.7001 28.5001C45.0001 28.5001 43.0001 26.4001 43.0001 23.7001C43.0001 21.0001 45.1001 18.9001 47.7001 18.9001C49.1001 18.9001 50.2001 19.5001 51.0001 20.2001L52.3001 18.9001C51.2001 17.9001 49.8001 17.1001 47.8001 17.1001C44.2001 17.1001 41.1001 20.1001 41.1001 23.7001C41.1001 27.3001 44.2001 30.3001 47.8001 30.3001C49.8001 30.3001 51.2001 29.7001 52.4001 28.4001C53.6001 27.2001 54.0001 25.5001 54.0001 24.2001C54.0001 23.8001 54.0001 23.4001 53.9001 23.1001H47.7001V23.1001ZM93.1001 24.5001C92.7001 23.5001 91.7001 21.8001 89.5001 21.8001C87.3001 21.8001 85.5001 23.5001 85.5001 26.1001C85.5001 28.5001 87.3001 30.4001 89.7001 30.4001C91.6001 30.4001 92.8001 29.2001 93.2001 28.5001L91.8001 27.5001C91.3001 28.2001 90.7001 28.7001 89.7001 28.7001C88.7001 28.7001 88.1001 28.3001 87.6001 27.4001L93.3001 25.0001L93.1001 24.5001ZM87.3001 25.9001C87.3001 24.3001 88.6001 23.4001 89.5001 23.4001C90.2001 23.4001 90.9001 23.8001 91.1001 24.3001L87.3001 25.9001ZM82.6001 30.0001H84.5001V17.5001H82.6001V30.0001ZM79.6001 22.7001C79.1001 22.2001 78.3001 21.7001 77.3001 21.7001C75.2001 21.7001 73.2001 23.6001 73.2001 26.0001C73.2001 28.4001 75.1001 30.2001 77.3001 30.2001C78.3001 30.2001 79.1001 29.7001 79.5001 29.2001H79.6001V29.8001C79.6001 31.4001 78.7001 32.3001 77.3001 32.3001C76.2001 32.3001 75.4001 31.5001 75.2001 30.8001L73.6001 31.5001C74.1001 32.6001 75.3001 34.0001 77.4001 34.0001C79.6001 34.0001 81.4001 32.7001 81.4001 29.6001V22.0001H79.6001V22.7001V22.7001ZM77.4001 28.6001C76.1001 28.6001 75.0001 27.5001 75.0001 26.0001C75.0001 24.5001 76.1001 23.4001 77.4001 23.4001C78.7001 23.4001 79.7001 24.5001 79.7001 26.0001C79.7001 27.5001 78.7001 28.6001 77.4001 28.6001ZM101.8 17.5001H97.3001V30.0001H99.2001V25.3001H101.8C103.9 25.3001 105.9 23.8001 105.9 21.4001C105.9 19.0001 103.9 17.5001 101.8 17.5001ZM101.9 23.5001H99.2001V19.2001H101.9C103.3 19.2001 104.1 20.4001 104.1 21.3001C104 22.4001 103.2 23.5001 101.9 23.5001ZM113.4 21.7001C112 21.7001 110.6 22.3001 110.1 23.6001L111.8 24.3001C112.2 23.6001 112.8 23.4001 113.5 23.4001C114.5 23.4001 115.4 24.0001 115.5 25.0001V25.1001C115.2 24.9001 114.4 24.6001 113.6 24.6001C111.8 24.6001 110 25.6001 110 27.4001C110 29.1001 111.5 30.2001 113.1 30.2001C114.4 30.2001 115 29.6001 115.5 29.0001H115.6V30.0001H117.4V25.2001C117.2 23.0001 115.5 21.7001 113.4 21.7001ZM113.2 28.6001C112.6 28.6001 111.7 28.3001 111.7 27.5001C111.7 26.5001 112.8 26.2001 113.7 26.2001C114.5 26.2001 114.9 26.4001 115.4 26.6001C115.2 27.8001 114.2 28.6001 113.2 28.6001ZM123.7 22.0001L121.6 27.4001H121.5L119.3 22.0001H117.3L120.6 29.6001L118.7 33.8001H120.6L125.7 22.0001H123.7V22.0001ZM106.9 30.0001H108.8V17.5001H106.9V30.0001Z" fill="white"/>
<path d="M10.4 7.5C10.1 7.8 10 8.3 10 8.9V31C10 31.6 10.2 32.1 10.5 32.4L10.6 32.5L23 20.1V20V19.9L10.4 7.5Z" fill="url(#paint0_linear)"/>
<path d="M26.9999 24.2998L22.8999 20.1998V19.9998V19.8998L26.9999 15.7998L27.0999 15.8998L31.9999 18.6998C33.3999 19.4998 33.3999 20.7998 31.9999 21.5998L26.9999 24.2998Z" fill="url(#paint1_linear)"/>
<path d="M27.0999 24.2L22.8999 20L10.3999 32.5C10.8999 33 11.5999 33 12.4999 32.6L27.0999 24.2Z" fill="url(#paint2_linear)"/>
<path d="M27.0999 15.7996L12.4999 7.49962C11.5999 6.99962 10.8999 7.09962 10.3999 7.59962L22.8999 19.9996L27.0999 15.7996Z" fill="url(#paint3_linear)"/>
<path opacity="0.2" d="M26.9999 24.0996L12.4999 32.2996C11.6999 32.7996 10.9999 32.6996 10.4999 32.2996L10.3999 32.3996L10.4999 32.4996C10.9999 32.8996 11.6999 32.9996 12.4999 32.4996L26.9999 24.0996Z" fill="black"/>
<path opacity="0.12" d="M10.4 32.2994C10.1 31.9994 10 31.4994 10 30.8994V30.9994C10 31.5994 10.2 32.0994 10.5 32.3994V32.2994H10.4Z" fill="black"/>
<path opacity="0.12" d="M32 21.3L27 24.1L27.1 24.2L32 21.4C32.7 21 33 20.5 33 20C33 20.5 32.6 20.9 32 21.3Z" fill="black"/>
<path opacity="0.25" d="M12.5 7.59978L32 18.6998C32.6 19.0998 33 19.4998 33 19.9998C33 19.4998 32.7 18.9998 32 18.5998L12.5 7.49978C11.1 6.69978 10 7.29978 10 8.89978V8.99978C10 7.49978 11.1 6.79978 12.5 7.59978Z" fill="white"/>
<path d="M42.0999 14.3H41.3999V12.3H41.9999C42.4999 11.9 42.7999 11.1 42.7999 10V7H46.7999V12.3H47.4999V14.3H46.7999V13H42.1999V14.3H42.0999ZM43.4999 10C43.4999 10.9 43.2999 11.7 42.8999 12.3H45.8999V7.7H43.3999V10H43.4999Z" fill="white" stroke="white" stroke-width="0.2" stroke-miterlimit="10"/>
<path d="M53.4001 12.1999C52.8001 12.7999 52.1001 13.0999 51.2001 13.0999C50.3001 13.0999 49.6001 12.7999 49.0001 12.1999C48.4001 11.5999 48.1001 10.8999 48.1001 9.9999C48.1001 9.0999 48.4001 8.3999 49.0001 7.7999C49.6001 7.1999 50.3001 6.8999 51.2001 6.8999C52.1001 6.8999 52.8001 7.1999 53.4001 7.7999C54.0001 8.3999 54.3001 9.0999 54.3001 9.9999C54.3001 10.8999 54.0001 11.5999 53.4001 12.1999ZM49.6001 11.6999C50.0001 12.0999 50.6001 12.3999 51.2001 12.3999C51.8001 12.3999 52.4001 12.1999 52.8001 11.6999C53.2001 11.2999 53.5001 10.6999 53.5001 9.9999C53.5001 9.2999 53.3001 8.6999 52.8001 8.2999C52.4001 7.8999 51.8001 7.5999 51.2001 7.5999C50.6001 7.5999 50.0001 7.7999 49.6001 8.2999C49.2001 8.6999 48.9001 9.2999 48.9001 9.9999C48.9001 10.6999 49.1001 11.2999 49.6001 11.6999Z" fill="white" stroke="white" stroke-width="0.2" stroke-miterlimit="10"/>
<path d="M58.2001 13.0999C57.3001 13.0999 56.6001 12.7999 56.0001 12.1999C55.4001 11.5999 55.1001 10.8999 55.1001 9.9999C55.1001 9.0999 55.4001 8.3999 56.0001 7.7999C56.6001 7.1999 57.3001 6.8999 58.2001 6.8999C59.1001 6.8999 59.8001 7.1999 60.4001 7.8999L59.9001 8.3999C59.5001 7.8999 58.9001 7.5999 58.2001 7.5999C57.5001 7.5999 57.0001 7.7999 56.5001 8.2999C56.0001 8.6999 55.8001 9.2999 55.8001 9.9999C55.8001 10.6999 56.0001 11.2999 56.5001 11.6999C56.9001 12.0999 57.5001 12.3999 58.2001 12.3999C58.9001 12.3999 59.5001 12.0999 60.0001 11.4999L60.5001 11.9999C60.2001 12.2999 59.9001 12.5999 59.5001 12.7999C59.1001 12.9999 58.7001 13.0999 58.2001 13.0999Z" fill="white" stroke="white" stroke-width="0.2" stroke-miterlimit="10"/>
<path d="M63.6997 13H62.8997V7.7H61.1997V7H65.2997V7.7H63.5997V13H63.6997Z" fill="white" stroke="white" stroke-width="0.2" stroke-miterlimit="10"/>
<path d="M70.5998 7L68.2998 12.1C67.9998 12.8 67.4998 13.2 66.8998 13.2C66.6998 13.2 66.4998 13.2 66.2998 13.1L66.4998 12.4C66.5998 12.5 66.7998 12.5 66.8998 12.5C67.0998 12.5 67.1998 12.5 67.2998 12.4C67.3998 12.3 67.4998 12.2 67.5998 12L67.7998 11.5L65.7998 7.1H66.6998L68.1998 10.5L69.6998 7H70.5998Z" fill="white" stroke="white" stroke-width="0.2" stroke-miterlimit="10"/>
<path d="M71.5 13V7H75.8V13H75V7.7H72.2V13H71.5Z" fill="white" stroke="white" stroke-width="0.2" stroke-miterlimit="10"/>
<path d="M77.1997 13V7H77.9997V9.6H80.9997V7H81.7997V13H80.9997V10.3H77.9997V13H77.1997Z" fill="white" stroke="white" stroke-width="0.2" stroke-miterlimit="10"/>
<path d="M88.0998 12.1999C87.4998 12.7999 86.7998 13.0999 85.8998 13.0999C84.9998 13.0999 84.2998 12.7999 83.6998 12.1999C83.0998 11.5999 82.7998 10.8999 82.7998 9.9999C82.7998 9.0999 83.0998 8.3999 83.6998 7.7999C84.2998 7.1999 84.9998 6.8999 85.8998 6.8999C86.7998 6.8999 87.4998 7.1999 88.0998 7.7999C88.6998 8.3999 88.9998 9.0999 88.9998 9.9999C88.8998 10.8999 88.5998 11.5999 88.0998 12.1999ZM84.1998 11.6999C84.5998 12.0999 85.1998 12.3999 85.7998 12.3999C86.3998 12.3999 86.9998 12.1999 87.3998 11.6999C87.7998 11.2999 88.0998 10.6999 88.0998 9.9999C88.0998 9.2999 87.8998 8.6999 87.3998 8.2999C86.9998 7.8999 86.3998 7.5999 85.7998 7.5999C85.1998 7.5999 84.5998 7.7999 84.1998 8.2999C83.7998 8.6999 83.4998 9.2999 83.4998 9.9999C83.4998 10.6999 83.7998 11.2999 84.1998 11.6999Z" fill="white" stroke="white" stroke-width="0.2" stroke-miterlimit="10"/>
<path d="M92.1001 13V7H94.3001C94.8001 7 95.2001 7.2 95.5001 7.5C95.8001 7.8 96.0001 8.2 96.0001 8.6C96.0001 8.9 95.9001 9.1 95.8001 9.4C95.7001 9.6 95.5001 9.8 95.2001 9.9C95.5001 10 95.7001 10.2 95.9001 10.4C96.1001 10.6 96.2001 10.9 96.2001 11.3C96.2001 11.8 96.0001 12.2 95.7001 12.5C95.3001 12.8 94.9001 13 94.4001 13H92.1001ZM92.9001 9.6H94.3001C94.6001 9.6 94.8001 9.5 95.0001 9.3C95.2001 9.1 95.3001 8.9 95.3001 8.7C95.3001 8.5 95.1001 8.2 95.0001 8C94.8001 7.8 94.6001 7.7 94.3001 7.7H92.9001V9.6V9.6ZM92.9001 12.3H94.5001C94.8001 12.3 95.0001 12.2 95.2001 12C95.4001 11.8 95.5001 11.6 95.5001 11.3C95.5001 11.1 95.4001 10.8 95.2001 10.6C95.0001 10.4 94.8001 10.3 94.5001 10.3H93.0001V12.3H92.9001Z" fill="white" stroke="white" stroke-width="0.2" stroke-miterlimit="10"/>
<defs>
<linearGradient id="paint0_linear" x1="21.7996" y1="8.7098" x2="5.0172" y2="25.4922" gradientUnits="userSpaceOnUse">
<stop stop-color="#00A0FF"/>
<stop offset="0.00657445" stop-color="#00A1FF"/>
<stop offset="0.2601" stop-color="#00BEFF"/>
<stop offset="0.5122" stop-color="#00D2FF"/>
<stop offset="0.7604" stop-color="#00DFFF"/>
<stop offset="1" stop-color="#00E3FF"/>
</linearGradient>
<linearGradient id="paint1_linear" x1="33.8342" y1="20.0013" x2="9.6373" y2="20.0013" gradientUnits="userSpaceOnUse">
<stop stop-color="#FFE000"/>
<stop offset="0.4087" stop-color="#FFBD00"/>
<stop offset="0.7754" stop-color="#FFA500"/>
<stop offset="1" stop-color="#FF9C00"/>
</linearGradient>
<linearGradient id="paint2_linear" x1="24.8268" y1="22.2962" x2="2.06851" y2="45.0545" gradientUnits="userSpaceOnUse">
<stop stop-color="#FF3A44"/>
<stop offset="1" stop-color="#C31162"/>
</linearGradient>
<linearGradient id="paint3_linear" x1="7.2971" y1="0.175923" x2="17.4597" y2="10.3384" gradientUnits="userSpaceOnUse">
<stop stop-color="#32A071"/>
<stop offset="0.0685" stop-color="#2DA771"/>
<stop offset="0.4762" stop-color="#15CF74"/>
<stop offset="0.8009" stop-color="#06E775"/>
<stop offset="1" stop-color="#00F076"/>
</linearGradient>
<clipPath id="clip0">
<rect width="119.664" height="40" fill="white" transform="translate(151)"/>
</clipPath>
</defs>
</svg>
