<svg width="32" height="32" viewBox="0 0 32 32" fill="none" xmlns="http://www.w3.org/2000/svg">
<circle cx="16" cy="16" r="15.5" stroke="#BDBDBD"/>
<path fill-rule="evenodd" clip-rule="evenodd" d="M14.7343 13.0037C15.3004 13.0037 15.7018 13.003 16.3313 13C16.4671 12.9994 16.6438 13.0232 16.7553 13.1007C16.7582 13.1026 16.761 13.1045 16.7634 13.1063C16.8448 13.1624 16.9464 13.2325 16.9476 13.4815C16.9493 13.8118 16.9488 14.1254 16.9482 14.4364C16.947 14.9183 16.9464 15.3941 16.954 15.9166C16.9707 16.0955 17.0874 16.1703 17.1971 16.1698C17.3069 16.1693 17.4328 16.1005 17.5269 16.0081C18.0375 15.507 18.6249 14.3018 18.9853 13.512C19.1118 13.2343 19.3116 13.2349 19.5392 13.2356C19.553 13.2356 19.5675 13.2357 19.5813 13.2357C20.0775 13.2349 20.3951 13.2385 20.7388 13.2425C20.9629 13.2451 21.1985 13.2478 21.5018 13.2495C21.6427 13.2503 21.7651 13.3688 21.805 13.4547C21.8391 13.5288 21.8633 13.744 21.6762 14.048C21.1009 14.9829 20.5719 15.7356 19.9313 16.6244C19.8915 16.6805 19.8528 16.7476 19.8539 16.8167C19.8551 16.8799 19.888 16.9419 19.9313 16.9877C20.0688 17.1318 20.2074 17.2764 20.3466 17.4218C20.7879 17.8821 21.239 18.3521 21.6831 18.8544C21.8552 19.0492 21.7478 19.3497 21.7004 19.4339C21.6646 19.4976 21.5029 19.6613 21.3938 19.6621C21.1772 19.6639 21.0778 19.6637 20.763 19.6632C20.5008 19.6628 20.0879 19.6621 19.3318 19.6621C19.0858 19.6621 18.987 19.5902 18.8571 19.4533C18.4106 18.9846 18.3528 18.9226 18.0565 18.6052C17.9699 18.5124 17.8625 18.3977 17.7192 18.2445C17.6372 18.1566 17.4738 18.0457 17.3184 18.116C17.3086 18.1202 17.2988 18.1246 17.2884 18.1292C17.1526 18.189 16.9441 18.2813 16.9441 18.5069V19.3562C16.9441 19.5104 16.7021 19.6252 16.5566 19.6252H15.4245C14.892 19.6252 14.4305 19.497 14.1753 19.3729C13.0738 18.838 12.4189 18.0934 11.7033 16.8536C11.0916 15.7951 10.5597 14.7521 10.036 13.6598C9.97741 13.5378 9.93542 13.2699 10.3725 13.2699C10.5793 13.2699 10.7803 13.2678 11.0021 13.2656C11.2759 13.2628 11.5814 13.2597 11.9695 13.2597C12.1751 13.2597 12.3039 13.3012 12.3906 13.3641C12.4732 13.4237 12.5147 13.502 12.5552 13.5772C12.5575 13.5813 12.5592 13.5855 12.5615 13.5896C12.7406 13.9229 12.8832 14.1921 13.0016 14.4164C13.462 15.2865 13.5648 15.481 14.0603 16.1227C14.1192 16.1984 14.2041 16.2101 14.2665 16.2104C14.3439 16.2109 14.4155 16.198 14.4756 16.1495C14.6015 16.0476 14.6373 15.9388 14.6373 15.7826V14.1385C14.6373 13.9501 14.5091 13.671 14.3676 13.5831C14.3312 13.5623 14.289 13.5414 14.2463 13.5203C14.1163 13.4557 13.9806 13.3883 13.9864 13.3096C13.9951 13.1953 14.2607 13.0037 14.7343 13.0037Z" fill="#1C1C1C"/>
</svg>
