<svg width="65" height="64" viewBox="0 0 65 64" fill="none" xmlns="http://www.w3.org/2000/svg">
<rect x="0.525391" width="64" height="64" rx="8" fill="#FFCB00"/>
<path d="M22.9254 29.6C22.9254 25.6292 26.1546 22.4 30.1254 22.4C34.0962 22.4 37.3254 25.6292 37.3254 29.6C37.3254 33.5708 34.0962 36.8 30.1254 36.8C26.1546 36.8 22.9254 33.5708 22.9254 29.6ZM44.1738 41.9516L37.6998 35.4764C39.0124 33.7988 39.7255 31.7301 39.7254 29.6C39.7254 24.3068 35.4186 20 30.1254 20C24.8322 20 20.5254 24.3068 20.5254 29.6C20.5254 34.8932 24.8322 39.2 30.1254 39.2C32.2553 39.1994 34.3239 38.4864 36.0018 37.1744L42.477 43.6484C42.6444 43.8174 42.8582 43.9327 43.0914 43.9796C43.3245 44.0266 43.5664 44.003 43.7861 43.912C44.0058 43.821 44.1934 43.6667 44.3251 43.4686C44.4568 43.2706 44.5265 43.0378 44.5254 42.8C44.5253 42.4818 44.3989 42.1766 44.1738 41.9516Z" fill="#314E36"/>
</svg>
