<svg width="25" height="25" viewBox="0 0 25 25" fill="none" xmlns="http://www.w3.org/2000/svg">
<g clip-path="url(#clip0)">
<path fill-rule="evenodd" clip-rule="evenodd" d="M0.525391 7.55321H24.5254C24.5254 6.82841 24.0838 6.17681 23.4118 5.90801L13.1938 1.82081C12.7647 1.64921 12.2861 1.64921 11.857 1.82081L1.63899 5.90801C0.966991 6.17681 0.525391 6.82841 0.525391 7.55321ZM0.525391 9.95321V11.1532C0.525391 11.4715 0.651819 11.7767 0.876863 12.0017C1.10191 12.2268 1.40713 12.3532 1.72539 12.3532V20.7532C1.40713 20.7532 1.10191 20.8796 0.876863 21.1047C0.651819 21.3297 0.525391 21.6349 0.525391 21.9532C0.525391 22.2715 0.651819 22.5767 0.876863 22.8017C1.10191 23.0268 1.40713 23.1532 1.72539 23.1532H23.3254C23.6437 23.1532 23.9489 23.0268 24.1739 22.8017C24.399 22.5767 24.5254 22.2715 24.5254 21.9532C24.5254 21.6349 24.399 21.3297 24.1739 21.1047C23.9489 20.8796 23.6437 20.7532 23.3254 20.7532V12.3532C23.6437 12.3532 23.9489 12.2268 24.1739 12.0017C24.399 11.7767 24.5254 11.4715 24.5254 11.1532V9.95321H0.525391ZM5.32539 12.3532H7.72539V20.7532H5.32539V12.3532ZM13.7254 12.3532H11.3254V20.7532H13.7254V12.3532ZM17.3254 12.3532H19.7254V20.7532H17.3254V12.3532Z" fill="#314E36"/>
</g>
<defs>
<clipPath id="clip0">
<rect width="24" height="24" fill="white" transform="translate(0.525391 0.35321)"/>
</clipPath>
</defs>
</svg>
