<svg width="49" height="48" viewBox="0 0 49 48" fill="none" xmlns="http://www.w3.org/2000/svg">
<rect x="0.179321" width="48" height="48" rx="4" fill="#FFCB00"/>
<path d="M23.1793 19C22.9141 19 22.6598 19.1054 22.4722 19.2929C22.2847 19.4804 22.1793 19.7348 22.1793 20C22.1793 20.2652 22.2847 20.5196 22.4722 20.7071C22.6598 20.8946 22.9141 21 23.1793 21H25.7653L22.4723 24.293C22.3768 24.3852 22.3006 24.4956 22.2482 24.6176C22.1958 24.7396 22.1682 24.8708 22.1671 25.0036C22.1659 25.1364 22.1912 25.2681 22.2415 25.391C22.2918 25.5139 22.366 25.6255 22.4599 25.7194C22.5538 25.8133 22.6655 25.8875 22.7884 25.9378C22.9113 25.9881 23.0429 26.0134 23.1757 26.0123C23.3085 26.0111 23.4397 25.9835 23.5617 25.9311C23.6837 25.8787 23.7941 25.8025 23.8863 25.707L27.1793 22.414V25C27.1793 25.2652 27.2847 25.5196 27.4722 25.7071C27.6598 25.8946 27.9141 26 28.1793 26C28.4445 26 28.6989 25.8946 28.8864 25.7071C29.074 25.5196 29.1793 25.2652 29.1793 25V20C29.1793 19.975 29.1793 19.95 29.1763 19.925C29.1574 19.6735 29.0442 19.4385 28.8593 19.2669C28.6744 19.0954 28.4315 19 28.1793 19H23.1793ZM15.1793 28.5C15.1793 28.1022 15.3374 27.7206 15.6187 27.4393C15.9 27.158 16.2815 27 16.6793 27H19.6793C20.0771 27 20.4587 27.158 20.74 27.4393C21.0213 27.7206 21.1793 28.1022 21.1793 28.5V31.5C21.1793 31.8978 21.0213 32.2794 20.74 32.5607C20.4587 32.842 20.0771 33 19.6793 33H16.6793C16.2815 33 15.9 32.842 15.6187 32.5607C15.3374 32.2794 15.1793 31.8978 15.1793 31.5V28.5Z" fill="#314E36"/>
<path d="M16.6793 15C16.2815 15 15.9 15.158 15.6187 15.4393C15.3374 15.7206 15.1793 16.1022 15.1793 16.5V25H17.1793V17H31.1793V31H23.1793V33H31.6793C32.0771 33 32.4587 32.842 32.74 32.5607C33.0213 32.2794 33.1793 31.8978 33.1793 31.5V16.5C33.1793 16.1022 33.0213 15.7206 32.74 15.4393C32.4587 15.158 32.0771 15 31.6793 15H16.6793Z" fill="#314E36"/>
</svg>
