<svg width="81" height="80" viewBox="0 0 81 80" fill="none" xmlns="http://www.w3.org/2000/svg">
<path fill-rule="evenodd" clip-rule="evenodd" d="M40.1966 76C60.0788 76 76.1966 59.8823 76.1966 40C76.1966 20.1177 60.0788 4 40.1966 4C20.3143 4 4.19659 20.1177 4.19659 40C4.19659 59.8823 20.3143 76 40.1966 76ZM40.1966 80C62.288 80 80.1966 62.0914 80.1966 40C80.1966 17.9086 62.288 0 40.1966 0C18.1052 0 0.196594 17.9086 0.196594 40C0.196594 62.0914 18.1052 80 40.1966 80Z" fill="#E5E5E5"/>
<path fill-rule="evenodd" clip-rule="evenodd" d="M6.75061 61.9483C13.9005 72.8217 26.2103 80 40.1966 80C62.288 80 80.1966 62.0914 80.1966 40C80.1966 17.9086 62.288 0 40.1966 0V4C60.0789 4 76.1966 20.1177 76.1966 40C76.1966 59.8823 60.0789 76 40.1966 76C27.5226 76 16.3783 69.4506 9.9635 59.5517L6.75061 61.9483Z" fill="#67A32C"/>
<g clip-path="url(#clip0)">
<path d="M32.999 34.1252L28.8566 36.2372C28.6557 36.3363 28.4872 36.4904 28.3705 36.6816C28.2539 36.8728 28.194 37.0933 28.1978 37.3172V49.7252C28.1978 50.3372 28.6538 50.8412 29.2526 50.9132L38.8802 52.1132C38.9282 52.1252 38.9762 52.1252 39.0242 52.1252C39.5402 52.1252 39.995 51.8012 40.1618 51.3092L42.281 44.9252H46.2086C47.765 44.9252 49.0946 43.9172 49.5854 42.5252H50.4002C51.3938 42.5252 52.1966 41.7212 52.1966 40.7252V34.1252H32.999ZM34.1966 40.1252H46.2086C46.5326 40.1252 46.8194 40.2452 47.0594 40.4972C47.2874 40.7132 47.4062 41.0012 47.4062 41.3252C47.4062 41.9852 46.8674 42.5252 46.2086 42.5252H41.4182C40.9034 42.5252 40.4486 42.8612 40.2806 43.3412L38.1974 49.6172L30.5918 48.6692V38.0492L32.999 36.8492V38.9372C33.0022 39.253 33.1296 39.5547 33.3538 39.7771C33.578 39.9995 33.8808 40.1246 34.1966 40.1252ZM50.4002 29.3252H34.7954C33.8018 29.3252 32.999 30.1292 32.999 31.1252V31.7252H52.1966V31.1252C52.1966 30.1292 51.3938 29.3252 50.4002 29.3252Z" fill="#314E36"/>
</g>
<defs>
<clipPath id="clip0">
<rect width="24" height="24" fill="white" transform="translate(28.1966 28.1252)"/>
</clipPath>
</defs>
</svg>
