<svg width="81" height="80" viewBox="0 0 81 80" fill="none" xmlns="http://www.w3.org/2000/svg">
<path fill-rule="evenodd" clip-rule="evenodd" d="M40.1965 76C60.0788 76 76.1965 59.8823 76.1965 40C76.1965 20.1177 60.0788 4 40.1965 4C20.3143 4 4.19653 20.1177 4.19653 40C4.19653 59.8823 20.3143 76 40.1965 76ZM40.1965 80C62.2879 80 80.1965 62.0914 80.1965 40C80.1965 17.9086 62.2879 0 40.1965 0C18.1051 0 0.196533 17.9086 0.196533 40C0.196533 62.0914 18.1051 80 40.1965 80Z" fill="#E5E5E5"/>
<path fill-rule="evenodd" clip-rule="evenodd" d="M2.25666 27.2944C0.920424 31.2862 0.196533 35.5586 0.196533 40.0001C0.196533 62.0915 18.1051 80.0001 40.1965 80.0001C62.2879 80.0001 80.1965 62.0915 80.1965 40.0001C80.1965 18.2609 62.8545 0.572222 41.25 0.0136719V4.01519C60.645 4.57254 76.1965 20.4702 76.1965 40.0001C76.1965 59.8823 60.0788 76.0001 40.1965 76.0001C20.3143 76.0001 4.19653 59.8823 4.19653 40.0001C4.19653 35.9912 4.85178 32.1355 6.06102 28.534L2.25666 27.2944Z" fill="#6BA237"/>
<g clip-path="url(#clip0)">
<path d="M39.4405 37.684L51.4405 42.484C51.6546 42.5699 51.8394 42.7156 51.9728 42.9038C52.1062 43.092 52.1825 43.3146 52.1926 43.5451C52.2028 43.7755 52.1463 44.004 52.0299 44.2031C51.9135 44.4023 51.7423 44.5637 51.5365 44.668L47.0965 46.9L44.8765 51.34C44.7759 51.5397 44.6215 51.7073 44.4306 51.824C44.2398 51.9406 44.0202 52.0016 43.7965 52H43.7485C43.5164 51.9909 43.292 51.9146 43.1024 51.7804C42.9128 51.6462 42.7663 51.4599 42.6805 51.244L37.8805 39.244C37.7932 39.0259 37.7719 38.787 37.8191 38.5569C37.8663 38.3268 37.98 38.1156 38.1461 37.9495C38.3122 37.7834 38.5234 37.6697 38.7535 37.6225C38.9836 37.5753 39.2225 37.5967 39.4405 37.684ZM39.8449 33.6484C39.6771 33.8162 39.4633 33.9304 39.2306 33.9767C38.9978 34.023 38.7566 33.9992 38.5373 33.9084C38.3181 33.8176 38.1307 33.6638 37.9989 33.4666C37.867 33.2693 37.7966 33.0373 37.7965 32.8V29.2C37.7965 28.8817 37.923 28.5765 38.148 28.3515C38.373 28.1264 38.6783 28 38.9965 28C39.3148 28 39.62 28.1264 39.8451 28.3515C40.0701 28.5765 40.1965 28.8817 40.1965 29.2V32.8C40.1965 33.1182 40.07 33.4234 39.8449 33.6484ZM33.8449 37.9516C34.0127 38.1194 34.127 38.3332 34.1732 38.566C34.2195 38.7987 34.1958 39.0399 34.1049 39.2592C34.0141 39.4784 33.8604 39.6658 33.6631 39.7977C33.4658 39.9295 33.2338 39.9999 32.9965 40H29.3965C29.0783 40 28.773 39.8736 28.548 39.6485C28.323 39.4235 28.1965 39.1183 28.1965 38.8C28.1965 38.4817 28.323 38.1765 28.548 37.9515C28.773 37.7264 29.0783 37.6 29.3965 37.6H32.9965C33.3148 37.6001 33.6199 37.7265 33.8449 37.9516ZM32.6449 30.7516C32.4186 30.533 32.1155 30.4121 31.8009 30.4148C31.4862 30.4175 31.1852 30.5437 30.9628 30.7662C30.7403 30.9887 30.6141 31.2897 30.6113 31.6043C30.6086 31.919 30.7295 32.2221 30.9481 32.4484L33.3481 34.8484C33.5745 35.067 33.8776 35.1879 34.1922 35.1852C34.5069 35.1825 34.8078 35.0563 35.0303 34.8338C35.2528 34.6113 35.379 34.3103 35.3817 33.9957C35.3845 33.681 35.2635 33.3779 35.0449 33.1516L32.6449 30.7516ZM47.0449 30.7516C46.8199 30.5266 46.5147 30.4003 46.1965 30.4003C45.8783 30.4003 45.5732 30.5266 45.3481 30.7516L42.9481 33.1516C42.7295 33.3779 42.6086 33.681 42.6113 33.9957C42.6141 34.3103 42.7403 34.6113 42.9628 34.8338C43.1852 35.0563 43.4862 35.1825 43.8009 35.1852C44.1155 35.1879 44.4186 35.067 44.6449 34.8484L47.0449 32.4484C47.2699 32.2234 47.3963 31.9182 47.3963 31.6C47.3963 31.2818 47.2699 30.9766 47.0449 30.7516ZM30.9481 45.1516L33.3481 42.7516C33.5745 42.533 33.8776 42.4121 34.1922 42.4148C34.5069 42.4175 34.8078 42.5437 35.0303 42.7662C35.2528 42.9887 35.379 43.2897 35.3817 43.6043C35.3845 43.919 35.2635 44.2221 35.0449 44.4484L32.6449 46.8484C32.4186 47.067 32.1155 47.1879 31.8009 47.1852C31.4862 47.1825 31.1852 47.0563 30.9628 46.8338C30.7403 46.6113 30.6141 46.3103 30.6113 45.9957C30.6086 45.681 30.7295 45.3779 30.9481 45.1516Z" fill="#314E36"/>
</g>
<defs>
<clipPath id="clip0">
<rect width="24" height="24" fill="white" transform="translate(28.1965 28)"/>
</clipPath>
</defs>
</svg>
