<svg width="81" height="80" viewBox="0 0 81 80" fill="none" xmlns="http://www.w3.org/2000/svg">
<path fill-rule="evenodd" clip-rule="evenodd" d="M40.1965 76C60.0788 76 76.1965 59.8823 76.1965 40C76.1965 20.1177 60.0788 4 40.1965 4C20.3143 4 4.19653 20.1177 4.19653 40C4.19653 59.8823 20.3143 76 40.1965 76ZM40.1965 80C62.2879 80 80.1965 62.0914 80.1965 40C80.1965 17.9086 62.2879 0 40.1965 0C18.1051 0 0.196533 17.9086 0.196533 40C0.196533 62.0914 18.1051 80 40.1965 80Z" fill="#6BA237"/>
<g clip-path="url(#clip0)">
<path d="M50.6295 30.8842C50.3362 30.5257 49.8971 30.3281 49.393 30.3281C49.1187 30.3281 48.8285 30.386 48.53 30.4999L28.2144 38.2549C27.1362 38.6664 26.991 39.2838 27.0004 39.6154C27.0097 39.9468 27.1897 40.5551 28.2894 40.9048C28.296 40.907 28.3026 40.9088 28.3092 40.9108L31.1583 41.726L45.034 34.6371C45.3797 34.4603 45.8034 34.5976 45.9801 34.9435C46.1189 35.2152 46.0632 35.5345 45.8655 35.7447L45.866 35.7453L38.1511 43.9427L37.931 44.8346L40.686 47.0531L44.5037 50.1272C44.507 50.1298 44.5103 50.1326 44.5138 50.1351C44.9338 50.461 45.3927 50.6332 45.8408 50.6333C46.7164 50.6333 47.4134 49.9853 47.6165 48.9827L50.9452 32.5464C51.0786 31.8869 50.9666 31.2964 50.6295 30.8842Z" fill="#314E36"/>
<path d="M36.8303 43.4267C36.8583 43.313 36.9147 43.2046 37.0006 43.1132L42.0629 37.7341L32.6691 42.5333L34.8021 48.6335C34.9236 48.981 35.1046 49.2769 35.3283 49.5085L36.83 43.4265L36.8303 43.4267Z" fill="#314E36"/>
<path d="M36.6375 50.0734C37.1445 50.0692 37.6428 49.8553 38.0793 49.4534L39.6399 48.0164L37.5591 46.3409L36.6375 50.0734Z" fill="#314E36"/>
</g>
<defs>
<clipPath id="clip0">
<rect width="24" height="24" fill="white" transform="translate(27 28.5)"/>
</clipPath>
</defs>
</svg>
