<svg width="65" height="65" viewBox="0 0 65 65" fill="none" xmlns="http://www.w3.org/2000/svg">
<rect x="0.015625" y="0.989502" width="64" height="64" rx="8" fill="#FFCB00"/>
<path d="M51.7782 40.0205C51.1484 40.0205 50.6362 39.8215 50.2416 39.4234C49.8469 39.0167 49.6496 38.5061 49.6496 37.8917C49.6496 37.2687 49.8469 36.7495 50.2416 36.3341C50.6362 35.9187 51.1484 35.711 51.7782 35.711C52.4163 35.711 52.9327 35.9187 53.3274 36.3341C53.722 36.7495 53.9194 37.2687 53.9194 37.8917C53.9194 38.5061 53.722 39.0167 53.3274 39.4234C52.9327 39.8215 52.4163 40.0205 51.7782 40.0205ZM51.9041 44.4987H50.9595L56.325 35.8408H57.2823L51.9041 44.4987ZM57.9372 44.0444C57.5426 44.4511 57.0304 44.6544 56.4006 44.6544C55.7709 44.6544 55.2587 44.4511 54.864 44.0444C54.4694 43.6377 54.272 43.1271 54.272 42.5127C54.272 41.8896 54.4694 41.3704 54.864 40.9551C55.2587 40.5397 55.7709 40.332 56.4006 40.332C57.0304 40.332 57.5426 40.5397 57.9372 40.9551C58.3403 41.3704 58.5418 41.8896 58.5418 42.5127C58.5418 43.1271 58.3403 43.6377 57.9372 44.0444ZM51.7782 39.008C52.0721 39.008 52.3114 38.9085 52.4961 38.7095C52.6808 38.5018 52.7732 38.2292 52.7732 37.8917C52.7732 37.5369 52.6808 37.2557 52.4961 37.048C52.3114 36.8403 52.0721 36.7365 51.7782 36.7365C51.4843 36.7365 51.245 36.8403 51.0603 37.048C50.8755 37.2557 50.7832 37.5369 50.7832 37.8917C50.7832 38.2206 50.8755 38.4888 51.0603 38.6965C51.2534 38.9042 51.4927 39.008 51.7782 39.008ZM55.6827 43.3434C55.8674 43.5425 56.1067 43.642 56.4006 43.642C56.6945 43.642 56.9338 43.5425 57.1185 43.3434C57.3117 43.1357 57.4082 42.8588 57.4082 42.5127C57.4082 42.1579 57.3117 41.8767 57.1185 41.669C56.9338 41.4613 56.6945 41.3574 56.4006 41.3574C56.1067 41.3574 55.8674 41.4613 55.6827 41.669C55.498 41.8767 55.4056 42.1579 55.4056 42.5127C55.4056 42.8588 55.498 43.1357 55.6827 43.3434Z" fill="#314E36"/>
<path d="M18.6251 44.4987H15.5351L24.57 23.9726H12.5122V21.4111H27.7944V23.3841L18.6251 44.4987Z" fill="#314E36"/>
<path d="M39.0343 44.9141C37.5564 44.9141 36.2465 44.5679 35.1046 43.8756C33.985 43.1603 33.0893 42.2142 32.4176 41.0373C31.7682 39.8604 31.2756 38.5912 30.9398 37.2297C30.6263 35.8682 30.4695 34.4491 30.4695 32.9722C30.4695 31.4953 30.6263 30.0762 30.9398 28.7147C31.2756 27.3532 31.7682 26.0956 32.4176 24.9418C33.0893 23.7649 33.985 22.8303 35.1046 22.138C36.2465 21.4227 37.5564 21.065 39.0343 21.065C40.4897 21.065 41.7884 21.4227 42.9304 22.138C44.0723 22.8303 44.968 23.7649 45.6174 24.9418C46.2891 26.0956 46.7817 27.3532 47.0952 28.7147C47.4311 30.0762 47.599 31.4953 47.599 32.9722C47.599 34.4491 47.4311 35.8682 47.0952 37.2297C46.7817 38.5912 46.2891 39.8604 45.6174 41.0373C44.968 42.2142 44.0723 43.1603 42.9304 43.8756C41.7884 44.5679 40.4897 44.9141 39.0343 44.9141ZM35.6756 40.9334C36.5712 41.8796 37.6908 42.3526 39.0343 42.3526C40.3778 42.3526 41.4973 41.8796 42.393 40.9334C43.2886 39.9642 43.9044 38.8104 44.2403 37.472C44.5762 36.1336 44.7441 34.6337 44.7441 32.9722C44.7441 31.3107 44.5762 29.8108 44.2403 28.4724C43.9044 27.134 43.2886 25.9917 42.393 25.0456C41.4973 24.0995 40.3778 23.6264 39.0343 23.6264C37.6908 23.6264 36.5712 24.0995 35.6756 25.0456C34.7799 25.9917 34.1641 27.134 33.8283 28.4724C33.4924 29.8108 33.3244 31.3107 33.3244 32.9722C33.3244 34.6337 33.4924 36.1336 33.8283 37.472C34.1641 38.8104 34.7799 39.9642 35.6756 40.9334Z" fill="#314E36"/>
<path d="M11.1069 36.1718H8.85236V38.8068H7.75658V36.1718H5.48944V35.1464H7.75658V32.6152H8.85236V35.1464H11.1069V36.1718Z" fill="#314E36"/>
</svg>
