<svg width="74" height="74" viewBox="0 0 74 74" fill="none" xmlns="http://www.w3.org/2000/svg">
<rect width="74" height="74" rx="7" fill="#FFCB00"/>
<path d="M43.8257 18.2209H51.065C52.6315 18.2209 53.9062 19.4956 53.9061 21.0619V28.3013C53.9061 29.8676 52.6314 31.1423 51.065 31.1423H43.8257C42.2594 31.1423 40.9848 29.8676 40.9848 28.3013V21.0619C40.9848 19.4956 42.2594 18.2209 43.8257 18.2209ZM51.0651 29.2404C51.5831 29.2404 52.0043 28.8193 52.0043 28.3013V21.0619C52.0043 20.5439 51.5831 20.1228 51.0651 20.1228H43.8258C43.3078 20.1228 42.8867 20.5439 42.8867 21.0619V28.3013C42.8867 28.8193 43.3078 29.2404 43.8258 29.2404H51.0651Z" fill="black" stroke="#FFCB00" stroke-width="0.441855"/>
<path d="M31.5609 55.6558V55.8767H43.6049H43.7287L43.7933 55.7712C45.6797 52.6915 46.6741 49.1703 46.6746 45.548L46.6758 37.6299V37.6298C46.6758 36.9579 46.1293 36.4115 45.4573 36.4115C44.7852 36.4115 44.2387 36.958 44.2387 37.6301V39.5337C44.2387 40.0589 43.8129 40.4846 43.2878 40.4846C42.7626 40.4846 42.3368 40.0589 42.3368 39.5337V37.6301V36.5249C42.3368 35.8528 41.7904 35.3063 41.1183 35.3063C40.4463 35.3063 39.8998 35.8528 39.8998 36.5249V38.7154C39.8998 39.2405 39.474 39.6663 38.9488 39.6663C38.4237 39.6663 37.9979 39.2405 37.9979 38.7154V36.5249V35.5956C37.9979 34.9234 37.4514 34.3771 36.7793 34.3771C36.1072 34.3771 35.5608 34.9235 35.5608 35.5956V38.5819C35.5608 39.1071 35.1351 39.5329 34.6099 39.5329C34.0847 39.5329 33.659 39.1071 33.659 38.5819V35.5956V27.593C33.659 26.9209 33.1125 26.3744 32.4404 26.3744C31.7683 26.3744 31.2218 26.9209 31.2218 27.593V46.2174C31.2218 46.4902 31.1047 46.7499 30.9003 46.9303C30.6957 47.1108 30.4236 47.1948 30.1528 47.1609L30.1528 47.1609L30.0589 47.1492C29.664 47.0998 29.3417 46.8096 29.2511 46.422C29.2511 46.422 29.2511 46.422 29.251 46.422L27.9144 40.7012L27.6993 40.7515L27.9144 40.7012C27.8405 40.3847 27.6471 40.115 27.3709 39.9434C27.0844 39.7655 26.754 39.7517 26.4761 39.7685L26.4761 39.7685C26.4149 39.7722 26.3702 39.7781 26.3285 39.784C26.3237 39.7846 26.319 39.7853 26.3143 39.786C26.2794 39.7909 26.2469 39.7956 26.2019 39.7999C25.9522 39.8236 25.7091 39.8996 25.5547 40.0942C25.3981 40.2918 25.3792 40.5612 25.4393 40.819L25.4393 40.819L26.989 47.4513L26.989 47.4514L31.5609 55.6558ZM31.5609 55.6558L31.3999 55.8071C30.4504 54.7971 27.6259 51.5114 27.0026 47.521L31.5609 55.6558ZM43.7156 34.7973L43.8264 34.9632L44.0027 34.8699C44.4371 34.64 44.9319 34.5097 45.4572 34.5097C47.1776 34.5097 48.5776 35.9097 48.5778 37.63V37.63V37.63V37.63V37.6301V37.6301V37.6301V37.6301L48.5765 45.5481C48.576 49.7542 47.3543 53.8351 45.0436 57.3499C44.8677 57.6174 44.5691 57.7785 44.249 57.7785H31.0685C30.8253 57.7785 30.5914 57.6853 30.4148 57.5182C30.2354 57.3484 25.9964 53.2783 25.1305 47.8579L25.1293 47.8501L25.1275 47.8425L23.5875 41.2518C23.3868 40.3925 23.5655 39.5417 24.065 38.9122L24.065 38.9122C24.5406 38.3127 25.2773 37.9509 26.1083 37.9175L26.1249 37.9169L26.1412 37.9137C26.9143 37.7649 27.7019 37.91 28.3746 38.3279L28.3746 38.3279C28.5836 38.4577 28.7737 38.609 28.9428 38.7786L29.3202 39.1571V38.6226V31.3632V31.1423H29.0993H28.8209C27.2546 31.1423 25.9799 29.8676 25.9799 28.3013V21.0619C25.9799 19.4956 27.2546 18.2209 28.8209 18.2209H36.0602C37.6265 18.2209 38.9012 19.4956 38.9012 21.0619V28.3012C38.9012 29.8675 37.6265 31.1422 36.0602 31.1422H35.7818H35.5609V31.3631V32.4062V32.707L35.8479 32.617C36.142 32.5249 36.4549 32.4751 36.7794 32.4751C37.8091 32.4751 38.7244 32.9765 39.2935 33.7493L39.4099 33.9074L39.5806 33.8104C40.0347 33.5521 40.5594 33.4045 41.1183 33.4045C42.1998 33.4045 43.1551 33.9575 43.7156 34.7973ZM35.5609 29.0195V29.2404H35.7818H36.0602C36.5782 29.2404 36.9993 28.8193 36.9993 28.3013V21.0619C36.9993 20.5439 36.5782 20.1228 36.0602 20.1228H28.8209C28.3029 20.1228 27.8818 20.5439 27.8818 21.0619V28.3013C27.8818 28.8193 28.3029 29.2404 28.8208 29.2404H29.0991H29.32V29.0195V27.5929C29.32 25.8725 30.7201 24.4725 32.4405 24.4725C34.1609 24.4725 35.5609 25.8725 35.5609 27.5929V29.0195Z" fill="black" stroke="#FFCB00" stroke-width="0.441855"/>
</svg>
