<svg width="74" height="75" viewBox="0 0 74 75" fill="none" xmlns="http://www.w3.org/2000/svg">
<g clip-path="url(#clip0)">
<rect y="0.952271" width="74" height="74" rx="7" fill="#FFCB00"/>
<path fill-rule="evenodd" clip-rule="evenodd" d="M47.2663 31.685C47.1712 31.4584 47.0547 31.2449 46.9192 31.0469H48.9531C50.9346 31.0469 52.5468 29.4347 52.5468 27.4531C52.5468 25.4715 50.9346 23.8594 48.9531 23.8594H42.6968C43.0946 23.2811 43.3281 22.5815 43.3281 21.8281C43.3281 19.8466 41.7159 18.2344 39.7343 18.2344H20.5937C18.6122 18.2344 17 19.8466 17 21.8281C17 23.8097 18.6122 25.4219 20.5937 25.4219H26.85C26.4522 26.0001 26.2187 26.6997 26.2187 27.4531C26.2187 28.2065 26.4522 28.9061 26.85 29.4844H24.8125C22.8309 29.4844 21.2187 31.0965 21.2187 33.0781C21.2187 34.2161 21.7511 35.2317 22.5793 35.8906C21.7511 36.5495 21.2187 37.565 21.2187 38.7031C21.2187 39.8411 21.7511 40.8567 22.5793 41.5156C21.7511 42.1745 21.2187 43.19 21.2187 44.3281C21.2187 45.4661 21.7511 46.4817 22.5793 47.1406C21.7511 47.7995 21.2187 48.815 21.2187 49.9531C21.2187 51.9346 22.8309 53.5468 24.8125 53.5468H34.0195C36.445 56.1411 39.8954 57.7656 43.7188 57.7656C51.042 57.7656 57 51.8077 57 44.4844C57 38.3893 52.8727 33.2408 47.2663 31.685ZM48.9531 25.4219C50.0731 25.4219 50.9843 26.3331 50.9843 27.4531C50.9843 28.5731 50.0731 29.4844 48.9531 29.4844H43.9531H29.8125C28.6924 29.4844 27.7812 28.5731 27.7812 27.4531C27.7812 26.3331 28.6924 25.4219 29.8125 25.4219H48.9531ZM20.5937 23.8594C19.4737 23.8594 18.5625 22.9481 18.5625 21.8281C18.5625 20.7081 19.4737 19.7969 20.5937 19.7969H39.7343C40.8544 19.7969 41.7656 20.7081 41.7656 21.8281C41.7656 22.9481 40.8544 23.8594 39.7343 23.8594H20.5937ZM24.8125 31.0469H43.9531C44.2678 31.0469 44.5691 31.12 44.8394 31.2509C44.4699 31.2199 44.0963 31.2032 43.7188 31.2032C40.0512 31.2032 36.7262 32.6976 34.3204 35.1093H24.8125C23.6925 35.1093 22.7812 34.1981 22.7812 33.0781C22.7812 31.9581 23.6925 31.0469 24.8125 31.0469ZM24.8125 36.6718H32.9855C32.0986 37.8869 31.4129 39.2574 30.9775 40.7343H24.8125C23.6924 40.7343 22.7812 39.8232 22.7812 38.7031C22.7812 37.5831 23.6924 36.6718 24.8125 36.6718ZM24.8125 42.2968H30.6187C30.5002 43.0088 30.4376 43.7393 30.4376 44.4844C30.4376 45.1208 30.4836 45.7466 30.5705 46.3593H24.8125C23.6924 46.3593 22.7812 45.4482 22.7812 44.3281C22.7812 43.208 23.6924 42.2968 24.8125 42.2968ZM24.8125 51.9843C23.6924 51.9843 22.7812 51.0731 22.7812 49.9531C22.7812 48.833 23.6924 47.9218 24.8125 47.9218H30.8895C31.2837 49.3916 31.9241 50.7613 32.764 51.9843H24.8125ZM43.7188 56.2031C37.2571 56.2031 32 50.9461 32 44.4844C32 38.0227 37.2571 32.7657 43.7188 32.7657C50.1805 32.7657 55.4375 38.0227 55.4375 44.4844C55.4375 50.9461 50.1805 56.2031 43.7188 56.2031ZM44.8906 34.3282L44.9431 34.3283C45.3745 34.3303 45.7227 34.6817 45.7207 35.1132C45.7187 35.5434 45.3693 35.8908 44.9395 35.8908H44.9358L44.8906 35.8907C44.4592 35.8907 44.1093 35.5409 44.1093 35.1094C44.1093 34.6779 44.4592 34.3282 44.8906 34.3282ZM48.1139 35.3261C49.8135 36.1432 51.2514 37.4157 52.2719 39.0059C53.3206 40.64 53.8749 42.5344 53.8749 44.4844C53.8749 46.1447 53.4652 47.7923 52.6901 49.2488C52.5496 49.5128 52.2792 49.6633 51.9997 49.6633C51.876 49.6633 51.7503 49.6338 51.6335 49.5716C51.2525 49.3689 51.1081 48.8958 51.3107 48.5149C51.966 47.2834 52.3124 45.8897 52.3124 44.4844C52.3124 41.2002 50.3987 38.1581 47.4369 36.7343C47.048 36.5474 46.8843 36.0807 47.0713 35.6918C47.2582 35.3029 47.725 35.1391 48.1139 35.3261ZM40.0005 52.2345C37.0388 50.8107 35.1251 47.7686 35.1251 44.4844C35.1251 43.0791 35.4716 41.6854 36.1268 40.4539C36.3294 40.073 36.185 39.5999 35.8041 39.3972C35.4233 39.1946 34.95 39.339 34.7474 39.72C33.9723 41.1766 33.5627 42.8241 33.5627 44.4844C33.5627 46.4344 34.1169 48.3288 35.1656 49.9629C36.1862 51.5532 37.624 52.8256 39.3236 53.6428C39.4327 53.6953 39.548 53.72 39.6615 53.72C39.9525 53.72 40.2317 53.5568 40.3662 53.2771C40.553 52.8882 40.3894 52.4214 40.0005 52.2345ZM42.5017 53.078L42.5469 53.0781C42.9783 53.0781 43.3282 53.428 43.3282 53.8594C43.3282 54.2908 42.9783 54.6406 42.5469 54.6406L42.4946 54.6405C42.0632 54.6384 41.7149 54.287 41.7169 53.8556C41.7189 53.424 42.0683 53.0772 42.5017 53.078ZM41.9794 47.2857V49H42.9925V47.2857H44.8499V46.4664H42.9925V45.3445H43.9381C44.9437 45.3445 45.7054 45.105 46.2233 44.6261C46.7411 44.1387 47 43.4664 47 42.6092C47 41.7605 46.7598 41.1134 46.2796 40.6681C45.8068 40.2227 45.0788 40 44.0957 40H41.9794V44.3866H41V45.3445H41.9794V46.4664H41V47.2857H41.9794ZM45.379 44.0084C45.0038 44.2605 44.4747 44.3866 43.7917 44.3866H42.9925V40.958H44.0056C44.6735 40.958 45.1651 41.0966 45.4803 41.374C45.7955 41.6513 45.9531 42.0756 45.9531 42.6471C45.9531 43.3025 45.7617 43.7563 45.379 44.0084Z" fill="black"/>
</g>
<defs>
<clipPath id="clip0">
<rect width="74" height="74" fill="white" transform="translate(0 0.952271)"/>
</clipPath>
</defs>
</svg>
