<svg width="17" height="17" viewBox="0 0 17 17" fill="none" xmlns="http://www.w3.org/2000/svg">
<path d="M13.2207 9.26191C12.7813 9.26191 12.4261 9.61983 12.4261 10.0625V14.8568H2.57393V4.92918H7.18502C7.62341 4.92918 7.97955 4.57032 7.97955 4.12857C7.97955 3.68682 7.62341 3.32796 7.18502 3.32796H1.7794C1.341 3.32796 0.984863 3.68682 0.984863 4.12857V15.6574C0.984863 16.1001 1.341 16.458 1.7794 16.458H13.2207C13.66 16.458 14.0152 16.1001 14.0152 15.6574V10.0635C14.0152 9.62077 13.66 9.26191 13.2207 9.26191Z" fill="#7AC300"/>
<path d="M16.1904 0.458H10.3651C9.92578 0.458 9.57058 0.816863 9.57058 1.25861C9.57058 1.70036 9.92578 2.05922 10.3651 2.05922H14.2368L6.93367 9.54448C6.62614 9.86001 6.62988 10.3668 6.94302 10.6766C7.09818 10.8292 7.29822 10.9055 7.50012 10.9055C7.70577 10.9055 7.91141 10.8264 8.06658 10.6663L15.3959 3.15465V7.12757C15.3959 7.56932 15.7511 7.92818 16.1904 7.92818C16.6298 7.92818 16.985 7.56932 16.985 7.12757V1.25861C16.985 0.815921 16.6298 0.458 16.1904 0.458Z" fill="#7AC300"/>
</svg>
