<svg width="78" height="70" viewBox="0 0 78 70" fill="none" xmlns="http://www.w3.org/2000/svg">
<ellipse cx="42.8303" cy="35.3429" rx="35.1697" ry="34.6567" fill="#FFCB00"/>
<path d="M70.2857 34.9998C70.2857 53.9051 54.7301 69.2496 35.5179 69.2496C16.3057 69.2496 0.75 53.9051 0.75 34.9998C0.75 16.0945 16.3057 0.75 35.5179 0.75C54.7301 0.75 70.2857 16.0945 70.2857 34.9998Z" stroke="black" stroke-width="1.5"/>
<g clip-path="url(#clip0)">
<path d="M41.55 16.2209H48.5291C50.038 16.2209 51.2602 17.43 51.2602 18.9088V25.7862C51.2602 27.2651 50.0379 28.4741 48.5291 28.4741H41.55C40.0413 28.4741 38.8191 27.2651 38.8191 25.7862V18.9088C38.8191 17.43 40.0413 16.2209 41.55 16.2209ZM48.5292 26.6894C49.0299 26.6894 49.4426 26.2875 49.4426 25.7862V18.9088C49.4426 18.4075 49.0299 18.0056 48.5292 18.0056H41.5501C41.0494 18.0056 40.6368 18.4075 40.6368 18.9088V25.7862C40.6368 26.2875 41.0494 26.6894 41.5501 26.6894H48.5292Z" fill="black" stroke="#FFCB00" stroke-width="0.441855"/>
<path d="M41.4384 31.9648L41.5488 32.1279L41.7234 32.0368C42.1413 31.8188 42.6174 31.6953 43.1231 31.6953C44.7803 31.6953 46.1234 33.0233 46.1236 34.6485V34.6485V34.6485V34.6485V34.6486V34.6486V34.6486L46.1224 42.1707C46.1219 46.1637 44.945 50.0379 42.7185 53.3751C42.5511 53.6261 42.2657 53.7785 41.9583 53.7785H29.2515C29.0181 53.7785 28.7942 53.6904 28.6256 53.5331C28.5444 53.4575 27.4781 52.4508 26.3279 50.8166C25.1768 49.181 23.9508 46.9294 23.5347 44.3627L23.5334 44.3549L23.5316 44.3471L22.0469 38.086C21.8543 37.2737 22.0257 36.4698 22.5049 35.8747L22.5049 35.8747C22.9615 35.3076 23.6695 34.9643 24.4698 34.9327L24.4861 34.932L24.5022 34.929C25.2464 34.7878 26.0044 34.9255 26.6514 35.3216L26.6515 35.3216C26.8525 35.4447 27.0353 35.588 27.1977 35.7486L27.574 36.1205V35.5915V28.695V28.4741H27.353H27.0847C25.576 28.4741 24.3537 27.2651 24.3537 25.7862V18.9088C24.3537 17.43 25.576 16.2209 27.0847 16.2209H34.0638C35.5725 16.2209 36.7947 17.43 36.7947 18.9088V25.7861C36.7947 27.265 35.5725 28.474 34.0638 28.474H33.7954H33.5745V28.695V29.6859V29.9853L33.8606 29.897C34.1436 29.8096 34.4448 29.7624 34.7572 29.7624C35.7486 29.7624 36.6288 30.2381 37.1754 30.9696L37.2914 31.1248L37.4604 31.0301C37.8972 30.7853 38.4021 30.6453 38.9402 30.6453C39.9815 30.6453 40.9 31.17 41.4384 31.9648ZM29.7262 51.773V51.9939H41.3374H41.4602L41.525 51.8896C43.3448 48.962 44.3042 45.6145 44.3047 42.1706L44.3059 34.6484V34.6483C44.3059 34.0009 43.7724 33.4799 43.1231 33.4799C42.4739 33.4799 41.9404 34.0009 41.9404 34.6486V36.457C41.9404 36.9468 41.5366 37.3494 41.0316 37.3494C40.5266 37.3494 40.1228 36.9468 40.1228 36.457V34.6486V33.5987C40.1228 32.9511 39.5894 32.43 38.9402 32.43C38.2909 32.43 37.7574 32.951 37.7574 33.5987V35.6796C37.7574 36.1693 37.3536 36.5719 36.8486 36.5719C36.3436 36.5719 35.9398 36.1693 35.9398 35.6796V33.5987V32.7158C35.9398 32.0681 35.4063 31.5472 34.7571 31.5472C34.1078 31.5472 33.5744 32.0681 33.5744 32.7158V35.5528C33.5744 36.0426 33.1706 36.4452 32.6656 36.4452C32.1606 36.4452 31.7568 36.0426 31.7568 35.5528V32.7158V25.1133C31.7568 24.4657 31.2233 23.9447 30.5741 23.9447C29.9248 23.9447 29.3914 24.4657 29.3914 25.1133V42.8065C29.3914 43.0613 29.2804 43.3047 29.0852 43.4744C28.8899 43.6443 28.6293 43.7239 28.3693 43.6919L28.3693 43.6919L28.2788 43.6808C27.8996 43.634 27.5928 43.36 27.5069 42.9977L26.2183 37.563L26.0054 37.6134L26.2183 37.563C26.1462 37.2586 25.9576 37.0001 25.6897 36.8361C25.4118 36.6661 25.0919 36.653 24.8239 36.669L24.8238 36.669C24.7647 36.6726 24.7214 36.6782 24.6812 36.6838C24.6765 36.6844 24.6719 36.6851 24.6674 36.6857C24.6337 36.6904 24.6025 36.6948 24.5593 36.6988C24.3185 36.7214 24.0818 36.7936 23.9306 36.9814C23.7765 37.173 23.7584 37.4338 23.8171 37.6813L23.8171 37.6813L25.311 43.9819L25.3111 43.982C25.3161 44.0033 25.3204 44.025 25.3239 44.0471L29.7262 51.773ZM33.5745 26.4685V26.6894H33.7954H34.0638C34.5645 26.6894 34.9771 26.2875 34.9771 25.7862V18.9088C34.9771 18.4075 34.5645 18.0056 34.0638 18.0056H27.0847C26.584 18.0056 26.1714 18.4075 26.1714 18.9088V25.7862C26.1714 26.2875 26.5839 26.6894 27.0845 26.6894H27.3529H27.5738V26.4685V25.1133C27.5738 23.4881 28.9169 22.1599 30.5742 22.1599C32.2314 22.1599 33.5745 23.4881 33.5745 25.1133V26.4685Z" fill="black" stroke="#FFCB00" stroke-width="0.441855"/>
</g>
<defs>
<clipPath id="clip0">
<rect width="38.5625" height="38" fill="white" transform="translate(16.2368 16)"/>
</clipPath>
</defs>
</svg>
