<svg width="24" height="24" viewBox="0 0 24 24" fill="none" xmlns="http://www.w3.org/2000/svg">
<path d="M23.7246 22.3987L1.60034 0.274658C1.23413 -0.0915527 0.640686 -0.0915527 0.274658 0.274658C-0.0915527 0.640686 -0.0915527 1.23431 0.274658 1.60034L5.8667 7.19238C3.74927 10.3233 2.71783 12.698 2.71783 14.4406V14.6968C2.71783 19.8267 6.88129 24 11.9987 24C13.6014 24 15.1818 23.5836 16.5687 22.7957C17.584 22.2189 18.4845 21.451 19.2175 20.5433L22.3987 23.7246C22.5819 23.9077 22.8217 23.9993 23.0618 23.9993C23.3016 23.9993 23.5415 23.9077 23.7246 23.7246C24.0906 23.3586 24.0906 22.765 23.7246 22.3987ZM11.9987 22.125C7.9151 22.125 4.59283 18.7928 4.59283 14.6968V14.4406C4.59283 13.5363 5.06397 11.7911 7.21802 8.5437L17.8832 19.2089C16.4854 21.0469 14.3333 22.125 11.9987 22.125ZM8.64459 3.44623C10.1056 1.62085 11.2588 0.358337 11.3071 0.30542C11.4847 0.111328 11.7358 0.000915525 11.9987 0.000915525C12.2617 0.000915525 12.5127 0.111328 12.6903 0.30542C12.7767 0.399902 14.8336 2.65356 16.9248 5.48804C19.8144 9.40485 21.2796 12.4169 21.2796 14.4406V14.697C21.2796 14.8953 21.2732 15.0961 21.2607 15.2939C21.2294 15.7905 20.8167 16.1722 20.3262 16.1722C20.3062 16.1722 20.2863 16.1715 20.2661 16.1702C19.7494 16.1376 19.357 15.6923 19.3896 15.1756C19.3997 15.017 19.4046 14.8561 19.4046 14.697V14.4406C19.4046 12.8716 17.9881 10.0875 15.416 6.60114C14.1004 4.81787 12.7755 3.24573 11.9987 2.35199C11.5274 2.89398 10.855 3.685 10.1082 4.61774C9.78461 5.02203 9.19464 5.0874 8.79053 4.76385C8.38641 4.44031 8.32105 3.85034 8.64459 3.44623Z" fill="#333333"/>
</svg>
