<svg width="25" height="24" viewBox="0 0 25 24" fill="none" xmlns="http://www.w3.org/2000/svg">
<g clip-path="url(#clip0)">
<path d="M23.3372 16.2891C23.2841 16.2891 23.2301 16.2847 23.176 16.2752C22.6657 16.1867 22.3241 15.7015 22.4125 15.1913C22.5945 14.1411 22.6925 13.0673 22.7036 12C22.6646 8.23297 21.5662 4.58477 19.5271 1.44853C19.2448 1.01457 19.368 0.433763 19.802 0.151597C20.2361 -0.130569 20.8167 -0.00752164 21.0991 0.426622C23.3344 3.86461 24.5376 7.86346 24.5786 11.9907V12.0093C24.5669 13.1807 24.4598 14.3589 24.2598 15.5118C24.1807 15.9677 23.7847 16.2891 23.3372 16.2891ZM21.0991 23.5734C21.8242 22.4583 22.4484 21.2686 22.9547 20.0376C23.1517 19.5588 22.923 19.0109 22.4442 18.8141C21.9654 18.6171 21.4175 18.8456 21.2207 19.3244C20.7587 20.4479 20.1889 21.5336 19.5271 22.5513C19.2448 22.9854 19.368 23.5661 19.802 23.8484C19.9598 23.9509 20.1369 24 20.3121 24C20.6188 24 20.9195 23.8497 21.0991 23.5734ZM16.5441 21.13C18.3536 18.4294 19.3328 15.2765 19.3759 12.0123C19.3761 12.004 19.3761 11.9958 19.3759 11.9875C19.3328 8.72332 18.3536 5.57043 16.5441 2.86998C16.2559 2.43987 15.6735 2.3247 15.2435 2.6129C14.8132 2.90111 14.6983 3.48339 14.9865 3.9135C16.591 6.30834 17.4604 9.10418 17.5009 12C17.4604 14.8956 16.591 17.6915 14.9865 20.0863C14.6983 20.5164 14.8134 21.0987 15.2435 21.3869C15.4038 21.4944 15.585 21.5457 15.7645 21.5457C16.0666 21.5457 16.3632 21.3999 16.5441 21.13ZM12.4157 17.2174C12.9062 17.0768 13.3056 16.7067 13.4839 16.2279C14.0004 14.8409 14.2482 13.4123 14.2202 11.9815C14.1753 9.69836 13.4465 7.48095 12.1128 5.56914C11.8165 5.14471 11.2321 5.04052 10.8074 5.33678C10.3828 5.63305 10.2788 6.21752 10.5751 6.64214C11.6959 8.24853 12.308 10.1076 12.3455 12.0183C12.3668 13.0981 12.1985 14.1795 11.8453 15.2382L3.24573 8.62628C2.87128 8.33825 2.37946 8.25402 1.93012 8.40051C1.48169 8.54699 1.13507 8.90441 1.00287 9.35705C0.809876 10.0171 0.579895 11.0685 0.579895 12.3279C0.579895 14.547 1.84863 16.5299 1.90247 16.6132C2.18372 17.0469 2.76233 17.1702 3.19666 16.8902C3.63117 16.6101 3.75623 16.0302 3.47699 15.5951C3.46692 15.5792 2.4549 13.9827 2.4549 12.3279C2.4549 11.6362 2.53894 11.0211 2.64185 10.5271L10.9907 16.9462C11.2775 17.1665 11.6179 17.2811 11.9667 17.2811C12.1161 17.2811 12.267 17.2603 12.4157 17.2174Z" fill="#333333"/>
</g>
<defs>
<clipPath id="clip0">
<rect width="24" height="24" fill="white" transform="translate(0.53302)"/>
</clipPath>
</defs>
</svg>
