<svg width="116" height="40" viewBox="0 0 116 40" fill="none" xmlns="http://www.w3.org/2000/svg">
<g clip-path="url(#clip0)">
<path d="M105.981 0.00013H9.1751C8.82222 0.00013 8.47359 0.00013 8.12165 0.00212999C7.82705 0.00412999 7.53479 0.00993997 7.23736 0.01483C6.5912 0.0227317 5.94655 0.081806 5.30903 0.191539C4.67241 0.303662 4.05572 0.515044 3.47984 0.818537C2.90466 1.1246 2.3791 1.52229 1.92223 1.99719C1.46297 2.47076 1.08013 3.01814 0.78845 3.61828C0.495963 4.21723 0.293151 4.85905 0.18702 5.52159C0.0798803 6.1833 0.0222273 6.85263 0.0145786 7.52359C0.00564862 7.83018 0.00470558 8.1378 0 8.44444V31.5586C0.00470558 31.8691 0.00564862 32.1699 0.0145786 32.4805C0.0222296 33.1514 0.0798827 33.8207 0.18702 34.4824C0.292858 35.1453 0.495682 35.7875 0.78845 36.3867C1.08 36.9849 1.46289 37.5301 1.92223 38.001C2.37737 38.478 2.90327 38.876 3.47984 39.1797C4.05572 39.484 4.67233 39.6967 5.30903 39.8105C5.94666 39.9194 6.59124 39.9785 7.23736 39.9873C7.53479 39.9941 7.82705 39.998 8.12165 39.998C8.47358 40 8.82224 40 9.1751 40H105.981C106.327 40 106.678 40 107.024 39.998C107.318 39.998 107.618 39.9941 107.911 39.9873C108.556 39.9789 109.2 39.9198 109.836 39.8105C110.475 39.6958 111.094 39.4833 111.672 39.1797C112.248 38.8758 112.774 38.4779 113.228 38.001C113.687 37.5282 114.07 36.9835 114.366 36.3867C114.656 35.7871 114.857 35.145 114.961 34.4824C115.069 33.8207 115.128 33.1515 115.14 32.4805C115.144 32.1699 115.144 31.8691 115.144 31.5586C115.151 31.1953 115.151 30.834 115.151 30.4648V9.53623C115.151 9.17002 115.151 8.80674 115.144 8.44444C115.144 8.1378 115.144 7.83018 115.14 7.52355C115.128 6.85253 115.069 6.18335 114.961 5.52155C114.857 4.8594 114.656 4.21762 114.366 3.61824C113.772 2.41532 112.83 1.43615 111.672 0.818447C111.094 0.515696 110.475 0.304369 109.836 0.191449C109.2 0.0812325 108.556 0.0221377 107.911 0.01469C107.618 0.00980997 107.318 0.00394999 107.024 0.00199999C106.678 0 106.327 0 105.981 0V0.00013Z" fill="#A6A6A6"/>
<path d="M8.12635 39.1249C7.83316 39.1249 7.54705 39.121 7.25616 39.1142C6.65356 39.106 6.05237 39.0515 5.45751 38.9511C4.90284 38.8518 4.36552 38.6671 3.86326 38.4032C3.3656 38.1414 2.9117 37.7982 2.51894 37.3866C2.1205 36.9799 1.78877 36.5081 1.53692 35.9901C1.28229 35.4687 1.10607 34.9098 1.0144 34.3329C0.915401 33.713 0.86184 33.0862 0.854176 32.4579C0.848075 32.247 0.840088 31.5448 0.840088 31.5448V8.44432C0.840088 8.44432 0.848595 7.75291 0.854224 7.54978C0.861562 6.92246 0.914812 6.29664 1.01351 5.67771C1.10535 5.09924 1.28171 4.53874 1.53648 4.01562C1.78741 3.49794 2.11729 3.02585 2.51333 2.61767C2.90893 2.20562 3.36428 1.8606 3.86278 1.59521C4.36389 1.33209 4.9002 1.14873 5.45375 1.05127C6.05056 0.949836 6.65384 0.894996 7.25853 0.88721L8.12682 0.875H107.02L107.898 0.8877C108.497 0.895099 109.095 0.94945 109.687 1.05029C110.246 1.14897 110.788 1.33361 111.294 1.59814C112.293 2.13298 113.106 2.97916 113.618 4.01806C113.869 4.53757 114.043 5.09349 114.133 5.66697C114.233 6.29097 114.289 6.92172 114.301 7.55418C114.303 7.83738 114.303 8.14158 114.303 8.44432C114.311 8.81931 114.311 9.17624 114.311 9.5361V30.4647C114.311 30.828 114.311 31.1825 114.303 31.5399C114.303 31.8651 114.303 32.163 114.3 32.4696C114.288 33.0908 114.234 33.7103 114.135 34.3231C114.045 34.9042 113.87 35.4674 113.616 35.9931C113.362 36.5055 113.032 36.9731 112.638 37.3788C112.245 37.7926 111.791 38.1378 111.292 38.4013C110.786 38.6673 110.245 38.8526 109.687 38.9511C109.092 39.052 108.491 39.1066 107.888 39.1142C107.606 39.121 107.311 39.1249 107.024 39.1249L105.981 39.1269L8.12635 39.1249Z" fill="black"/>
<path d="M23.8348 20.3008C23.8451 19.4661 24.0585 18.6478 24.455 17.9218C24.8514 17.1959 25.4182 16.5859 26.1025 16.1488C25.6678 15.5036 25.0943 14.9727 24.4276 14.5981C23.7609 14.2236 23.0193 14.0157 22.2618 13.9911C20.6459 13.8148 19.0794 14.9959 18.2559 14.9959C17.4165 14.9959 16.1487 14.0086 14.7835 14.0378C13.9004 14.0674 13.0398 14.3343 12.2855 14.8123C11.5312 15.2904 10.9089 15.9633 10.4793 16.7656C8.61821 20.114 10.0064 25.0351 11.7891 27.7417C12.6811 29.067 13.7235 30.5475 15.0875 30.495C16.4223 30.4374 16.9208 29.6105 18.5319 29.6105C20.1281 29.6105 20.5958 30.495 21.9875 30.4616C23.4197 30.4374 24.3221 29.1303 25.1828 27.7924C25.8236 26.8481 26.3168 25.8044 26.6439 24.6999C25.8118 24.3342 25.1017 23.722 24.6022 22.9398C24.1026 22.1575 23.8357 21.2397 23.8348 20.3008V20.3008Z" fill="white"/>
<path d="M21.2062 12.2111C21.9871 11.2369 22.3718 9.98469 22.2786 8.72046C21.0856 8.85068 19.9835 9.44324 19.192 10.3801C18.8051 10.8377 18.5087 11.3702 18.3198 11.9469C18.131 12.5237 18.0534 13.1335 18.0914 13.7414C18.6882 13.7478 19.2786 13.6134 19.8181 13.3483C20.3576 13.0832 20.8322 12.6944 21.2062 12.2111Z" fill="white"/>
<path d="M40.7069 27.1396H36.152L35.0582 30.4961H33.1289L37.4432 18.0781H39.4477L43.762 30.4961H41.7998L40.7069 27.1396ZM36.6238 25.5908H40.2343L38.4544 20.1436H38.4046L36.6238 25.5908Z" fill="white"/>
<path d="M53.0794 25.9699C53.0794 28.7834 51.6303 30.591 49.4436 30.591C48.8896 30.6211 48.3387 30.4885 47.8539 30.2084C47.3691 29.9282 46.97 29.5119 46.7024 29.007H46.661V33.4914H44.8727V21.4426H46.6037V22.9484H46.6366C46.9166 22.446 47.3224 22.0318 47.8109 21.7499C48.2994 21.4681 48.8522 21.3291 49.4107 21.3479C51.6218 21.3479 53.0794 23.1643 53.0794 25.9699ZM51.2413 25.9699C51.2413 24.1369 50.3297 22.9318 48.9389 22.9318C47.5726 22.9318 46.6535 24.1623 46.6535 25.9699C46.6535 27.7941 47.5726 29.0158 48.9389 29.0158C50.3297 29.0158 51.2413 27.8195 51.2413 25.9699Z" fill="white"/>
<path d="M62.6684 25.9699C62.6684 28.7834 61.2194 30.591 59.0326 30.591C58.4787 30.6211 57.9278 30.4885 57.443 30.2084C56.9582 29.9282 56.5591 29.5119 56.2914 29.007H56.25V33.4914H54.4617V21.4426H56.1927V22.9484H56.2256C56.5056 22.446 56.9114 22.0318 57.3999 21.7499C57.8884 21.4681 58.4413 21.3291 58.9997 21.3479C61.2109 21.3479 62.6684 23.1643 62.6684 25.9699ZM60.8303 25.9699C60.8303 24.1369 59.9188 22.9318 58.528 22.9318C57.1616 22.9318 56.2425 24.1623 56.2425 25.9699C56.2425 27.7941 57.1616 29.0158 58.528 29.0158C59.9188 29.0158 60.8303 27.8195 60.8303 25.9699H60.8303Z" fill="white"/>
<path d="M69.006 27.0362C69.1385 28.2676 70.2897 29.0761 71.8628 29.0761C73.3701 29.0761 74.4546 28.2676 74.4546 27.1572C74.4546 26.1933 73.8005 25.6162 72.2518 25.2207L70.7031 24.833C68.5089 24.2822 67.4902 23.2158 67.4902 21.4853C67.4902 19.3428 69.287 17.8711 71.8383 17.8711C74.3634 17.8711 76.0944 19.3428 76.1527 21.4853H74.3474C74.2393 20.2461 73.2536 19.498 71.8129 19.498C70.3723 19.498 69.3866 20.2549 69.3866 21.3564C69.3866 22.2344 70.0162 22.751 71.5564 23.1464L72.873 23.4824C75.3247 24.0849 76.3434 25.1084 76.3434 26.9247C76.3434 29.248 74.5626 30.7031 71.7302 30.7031C69.0802 30.7031 67.2909 29.2822 67.1754 27.0361L69.006 27.0362Z" fill="white"/>
<path d="M80.2029 19.2998V21.4424H81.8597V22.9141H80.2029V27.9052C80.2029 28.6806 80.5347 29.042 81.263 29.042C81.4596 29.0384 81.656 29.024 81.8512 28.999V30.4618C81.5238 30.5254 81.191 30.5542 80.8579 30.5478C79.0941 30.5478 78.4062 29.8593 78.4062 28.1035V22.9141H77.1394V21.4424H78.4061V19.2998H80.2029Z" fill="white"/>
<path d="M82.8192 25.9697C82.8192 23.1211 84.4336 21.3311 86.9512 21.3311C89.4772 21.3311 91.0841 23.121 91.0841 25.9697C91.0841 28.8261 89.4856 30.6084 86.9512 30.6084C84.4176 30.6084 82.8192 28.8261 82.8192 25.9697ZM89.262 25.9697C89.262 24.0156 88.4002 22.8623 86.9512 22.8623C85.5021 22.8623 84.6413 24.0244 84.6413 25.9697C84.6413 27.9316 85.5021 29.0761 86.9512 29.0761C88.4002 29.0761 89.2619 27.9316 89.2619 25.9697H89.262Z" fill="white"/>
<path d="M92.5585 21.4425H94.2642V22.9835H94.3055C94.4209 22.5022 94.6923 22.0769 95.0739 21.779C95.4555 21.4811 95.9242 21.3288 96.4011 21.3478C96.6072 21.347 96.8127 21.3703 97.0138 21.4171V23.1554C96.7537 23.0728 96.4823 23.0348 96.2103 23.0431C95.9505 23.0321 95.6915 23.0797 95.4511 23.1826C95.2107 23.2855 94.9945 23.4412 94.8175 23.6391C94.6405 23.837 94.5067 24.0724 94.4255 24.329C94.3443 24.5857 94.3174 24.8576 94.3468 25.1261V30.4962H92.5585L92.5585 21.4425Z" fill="white"/>
<path d="M105.259 27.8369C105.018 29.4804 103.478 30.6084 101.508 30.6084C98.9731 30.6084 97.4 28.8437 97.4 26.0127C97.4 23.1728 98.9816 21.3311 101.432 21.3311C103.843 21.3311 105.359 23.0517 105.359 25.7969V26.4336H99.2053V26.5459C99.1769 26.8791 99.217 27.2147 99.323 27.5306C99.429 27.8464 99.5985 28.1352 99.8202 28.3777C100.042 28.6203 100.311 28.8111 100.609 28.9374C100.907 29.0637 101.227 29.1226 101.549 29.1103C101.972 29.1515 102.396 29.0498 102.758 28.8203C103.121 28.5909 103.402 28.246 103.561 27.8369L105.259 27.8369ZM99.2137 25.1348H103.569C103.585 24.8352 103.542 24.5353 103.441 24.2541C103.34 23.9729 103.185 23.7164 102.984 23.5006C102.783 23.2849 102.542 23.1145 102.275 23.0003C102.008 22.8861 101.721 22.8305 101.432 22.8369C101.141 22.8351 100.853 22.8932 100.583 23.008C100.314 23.1227 100.069 23.2918 99.8623 23.5054C99.6561 23.7191 99.4925 23.973 99.3812 24.2527C99.2699 24.5323 99.213 24.8321 99.2137 25.1348V25.1348Z" fill="white"/>
<path d="M35.3528 11.2534H36.1206C36.2527 11.2705 36.3869 11.259 36.5145 11.2195C36.6422 11.1801 36.7606 11.1136 36.8623 11.0242C36.964 10.9348 37.0468 10.8246 37.1055 10.7003C37.1641 10.576 37.1974 10.4405 37.2031 10.3022C37.2031 9.75193 36.8047 9.39646 36.129 9.39646C35.9936 9.3768 35.8558 9.38553 35.7237 9.42213C35.5916 9.45874 35.4679 9.52249 35.3599 9.6096C35.2519 9.69672 35.1617 9.80544 35.0948 9.92934C35.0279 10.0533 34.9856 10.1898 34.9703 10.331H34.1274C34.1419 10.0747 34.207 9.82427 34.3187 9.59526C34.4304 9.36625 34.5862 9.16359 34.7765 8.99988C34.9669 8.83618 35.1876 8.71494 35.425 8.64372C35.6623 8.5725 35.9112 8.55282 36.1562 8.58591C37.2867 8.58591 38.0827 9.24362 38.0827 10.1904C38.0854 10.5076 37.9833 10.8161 37.7934 11.0645C37.6036 11.3128 37.3375 11.486 37.0396 11.5551V11.6255C37.3928 11.6417 37.7254 11.8026 37.9647 12.073C38.204 12.3434 38.3306 12.7012 38.3167 13.0683C38.2906 13.3322 38.214 13.588 38.0915 13.8208C37.969 14.0535 37.803 14.2585 37.6033 14.4237C37.4036 14.5889 37.1741 14.711 36.9284 14.7829C36.6827 14.8548 36.4256 14.875 36.1723 14.8422C35.9184 14.8782 35.6602 14.8607 35.4129 14.7907C35.1657 14.7208 34.9346 14.5998 34.7334 14.435C34.5321 14.2703 34.3648 14.0651 34.2415 13.8317C34.1182 13.5983 34.0413 13.3415 34.0156 13.0766H34.8717C34.9233 13.6474 35.428 14.0156 36.1723 14.0156C36.9165 14.0156 37.4024 13.6021 37.4024 13.019C37.4024 12.4277 36.9447 12.0635 36.145 12.0635H35.3528V11.2534Z" fill="white"/>
<path d="M39.2894 13.4243C39.2894 12.6138 39.8711 12.1465 40.901 12.0801L42.0747 12.0098V11.6211C42.0747 11.1455 41.7731 10.8769 41.1876 10.8769C40.7103 10.8769 40.3804 11.0591 40.2845 11.3774H39.4566C39.544 10.604 40.2451 10.1079 41.228 10.1079C42.3144 10.1079 42.9271 10.6699 42.9271 11.6211V14.6977H42.1029V14.0649H42.0353C41.8979 14.2919 41.7051 14.477 41.4764 14.6012C41.2478 14.7254 40.9915 14.7843 40.7337 14.7719C40.5518 14.7916 40.368 14.7714 40.194 14.7127C40.0201 14.654 39.8599 14.5581 39.7238 14.4311C39.5878 14.3042 39.4788 14.149 39.4039 13.9756C39.3291 13.8021 39.2901 13.6143 39.2894 13.4243V13.4243ZM42.0747 13.0395V12.6631L41.0166 12.7334C40.4198 12.7749 40.1492 12.9858 40.1492 13.3828C40.1492 13.7881 40.4875 14.0239 40.9527 14.0239C41.089 14.0382 41.2267 14.0239 41.3576 13.9819C41.4884 13.9398 41.6098 13.8708 41.7145 13.7789C41.8192 13.6871 41.9051 13.5743 41.9669 13.4473C42.0288 13.3202 42.0655 13.1816 42.0747 13.0395V13.0395Z" fill="white"/>
<path d="M45.1965 10.9426V14.6975H44.3413V10.1946H47.1944V10.9426L45.1965 10.9426Z" fill="white"/>
<path d="M52.377 12.4443C52.377 13.8749 51.6807 14.7719 50.5868 14.7719C50.3183 14.791 50.0501 14.7299 49.8139 14.5959C49.5776 14.4619 49.3832 14.2606 49.2533 14.0156H49.1857V16.1948H48.3305V10.1948H49.1537V10.939H49.2176C49.3498 10.6854 49.5468 10.4747 49.7869 10.3302C50.0271 10.1857 50.3009 10.113 50.5783 10.1201C51.6806 10.1201 52.377 11.0131 52.377 12.4443ZM51.4974 12.4443C51.4974 11.4931 51.0642 10.9184 50.3397 10.9184C49.6199 10.9184 49.1697 11.5053 49.1697 12.4482C49.1697 13.3867 49.6198 13.9741 50.3359 13.9741C51.0642 13.9741 51.4974 13.3994 51.4974 12.4443Z" fill="white"/>
<path d="M53.5159 16.3103V15.5452C53.6085 15.5574 53.7017 15.5629 53.795 15.5618C53.9772 15.5758 54.1579 15.5194 54.3026 15.4034C54.4472 15.2874 54.5456 15.12 54.5787 14.9333L54.6426 14.7141L53.0742 10.1946H54.0055L55.0919 13.7712H55.1595L56.2421 10.1946H57.1489L55.5335 14.8835C55.1633 15.9792 54.7536 16.3308 53.8702 16.3308C53.7988 16.3308 53.5958 16.3225 53.5159 16.3103Z" fill="white"/>
<path d="M57.8152 13.42H58.6666C58.7503 13.817 59.1083 14.024 59.6092 14.024C60.1787 14.024 60.5283 13.7633 60.5283 13.358C60.5283 12.9239 60.2144 12.7169 59.6092 12.7169H58.9608V12.0265H59.5979C60.1148 12.0265 60.3779 11.8199 60.3779 11.4435C60.3779 11.1129 60.1232 10.8605 59.5979 10.8605C59.1196 10.8605 58.77 11.0714 58.7145 11.4269H57.8904C57.952 11.0184 58.1655 10.6514 58.4848 10.4048C58.8041 10.1581 59.2038 10.0516 59.5979 10.108C60.6279 10.108 61.2171 10.5919 61.2171 11.3527C61.2219 11.5645 61.1566 11.7717 61.032 11.9395C60.9075 12.1073 60.7313 12.2255 60.533 12.2745V12.3449C60.7691 12.3765 60.9859 12.4972 61.1422 12.6839C61.2984 12.8707 61.3833 13.1106 61.3806 13.358C61.3806 14.214 60.6796 14.7804 59.6092 14.7804C58.6629 14.7804 57.8942 14.3297 57.8152 13.42Z" fill="white"/>
<path d="M62.6121 14.6975V10.1946H63.4598V13.2917H63.5274L65.5244 10.1946H66.372V14.6975H65.5244V11.5838H65.4605L63.4598 14.6975L62.6121 14.6975Z" fill="white"/>
<path d="M71.0415 10.9431H69.677V14.6979H68.8209V10.9431H67.4564V10.1951H71.0415V10.9431Z" fill="white"/>
<path d="M75.6481 13.4818C75.5316 13.8933 75.2796 14.2492 74.9363 14.4873C74.5929 14.7254 74.18 14.8306 73.7696 14.7845C73.4841 14.7923 73.2004 14.7355 72.9382 14.618C72.6759 14.5004 72.4415 14.325 72.251 14.1039C72.0606 13.8827 71.9187 13.6212 71.8353 13.3374C71.7519 13.0535 71.7289 12.7543 71.7679 12.4603C71.7299 12.1654 71.7533 11.8655 71.8365 11.5808C71.9198 11.2961 72.0609 11.0333 72.2503 10.8103C72.4398 10.5872 72.6731 10.409 72.9346 10.2878C73.196 10.1666 73.4795 10.1052 73.7658 10.1077C74.9715 10.1077 75.6998 10.9637 75.6998 12.3777V12.6878H72.64V12.7376C72.6265 12.9029 72.6463 13.0693 72.6984 13.2261C72.7504 13.383 72.8334 13.5267 72.9421 13.6482C73.0508 13.7697 73.1827 13.8662 73.3294 13.9316C73.4761 13.9969 73.6344 14.0296 73.794 14.0276C73.9984 14.053 74.2055 14.0147 74.3889 13.9175C74.5723 13.8203 74.7237 13.6686 74.824 13.4817L75.6481 13.4818ZM72.64 12.0306H74.8277C74.8385 11.8795 74.8188 11.7278 74.7698 11.5852C74.7208 11.4425 74.6437 11.312 74.5434 11.2022C74.443 11.0923 74.3216 11.0055 74.1871 10.9473C74.0525 10.8891 73.9078 10.8607 73.762 10.8641C73.6141 10.862 73.4672 10.8908 73.3302 10.9486C73.1931 11.0065 73.0686 11.0924 72.964 11.2011C72.8594 11.3099 72.7768 11.4393 72.7212 11.5818C72.6655 11.7242 72.6379 11.8769 72.64 12.0306H72.64Z" fill="white"/>
<path d="M79.2735 10.1946H81.2272C82.0748 10.1946 82.572 10.6409 82.572 11.3396C82.5733 11.5613 82.5013 11.7767 82.368 11.9499C82.2348 12.123 82.0483 12.2434 81.8399 12.2907V12.3611C82.093 12.3777 82.3302 12.4947 82.5027 12.6878C82.6751 12.881 82.7695 13.1357 82.7665 13.3991C82.7665 14.1848 82.1979 14.6975 81.2469 14.6975H79.2735V10.1946ZM80.1211 10.8767V12.0427H80.9688C81.4856 12.0427 81.7328 11.8362 81.7328 11.4553C81.7328 11.1042 81.5176 10.8767 81.0637 10.8767L80.1211 10.8767ZM80.1211 12.696V14.0154H81.1352C81.6407 14.0154 81.9114 13.7834 81.9114 13.3577C81.9114 12.907 81.605 12.6961 81.028 12.6961L80.1211 12.696Z" fill="white"/>
</g>
<defs>
<clipPath id="clip0">
<rect width="115.151" height="40" fill="white"/>
</clipPath>
</defs>
</svg>
