<svg width="254" height="40" viewBox="0 0 254 40" fill="none" xmlns="http://www.w3.org/2000/svg">
<g clip-path="url(#clip0)">
<path d="M165.533 0.922199H144.784C144.553 0.922199 144.438 1.03747 144.438 1.26802C143.862 10.6052 142.132 20.7493 139.596 28.9337V29.2796C139.712 29.3948 139.827 29.3948 139.942 29.3948H147.089C147.205 29.3948 147.435 29.2795 147.435 29.1643C149.395 22.8242 151.009 14.5245 151.585 7.4928H158.386V29.049C158.386 29.2796 158.501 29.3948 158.732 29.3948H165.533C165.764 29.3948 165.879 29.2796 165.879 29.049V1.38329C165.879 1.15275 165.764 0.922199 165.533 0.922199V0.922199ZM253.256 0.922199H246.455C246.225 0.922199 246.109 1.03747 246.109 1.26802V22.7089C244.611 23.17 243.112 23.2853 241.498 23.2853C237.003 23.2853 235.965 21.902 235.965 15.9078V1.38329C235.965 1.15275 235.85 1.03747 235.62 1.03747H228.818C228.588 1.03747 228.473 1.15275 228.473 1.38329V16.83C228.473 26.513 231.7 30.317 240.115 30.317C244.841 30.317 250.259 29.049 253.372 27.8963C253.487 27.8963 253.602 27.6657 253.602 27.5504V1.38329C253.602 1.15275 253.487 0.922199 253.256 0.922199V0.922199ZM109.741 1.03747H102.824C102.594 1.03747 102.478 1.15275 102.478 1.26802C101.441 5.53315 99.2506 12.6801 96.2535 20.1729L89.3371 1.15275C89.3371 1.03747 89.1065 0.922199 88.9913 0.922199H82.0748C81.9596 0.922199 81.8443 1.03747 81.729 1.03747C81.6138 1.15275 81.6138 1.26802 81.729 1.38329L92.1037 29.7406C91.0662 31.9308 90.0287 33.7752 89.1066 35.5043C88.4149 36.7723 87.7233 38.0404 87.0316 39.4236C86.9164 39.5389 87.0316 39.6542 87.0316 39.7695C87.1469 39.8847 87.2622 40 87.3774 40H94.8702C94.9855 40 95.1008 39.8847 95.2161 39.7695C96.4841 37.3487 98.0979 33.8905 99.5965 30.4323C103.977 20.0576 107.55 10.3746 110.202 1.49857C110.202 1.38329 110.202 1.26802 110.086 1.15275C109.971 1.03747 109.856 1.03747 109.741 1.03747V1.03747ZM134.409 22.8242C134.409 22.7089 134.294 22.5937 134.179 22.5937H133.833C132.219 23.17 129.107 23.7464 126.916 23.7464C122.19 23.7464 120 22.4784 120 15.2161C120 9.45246 120.692 6.68589 126.916 6.68589C128.645 6.68589 130.375 6.91644 132.449 7.60808C132.68 7.60808 132.795 7.60808 132.911 7.37753C133.718 5.87897 134.64 4.14987 135.677 1.84439V1.49857C135.677 1.38329 135.562 1.26802 135.447 1.26802C132.68 0.34583 129.337 -0.115265 126.455 -0.115265C116.542 -0.115265 112.161 4.49569 112.161 14.9856C112.161 25.5908 116.542 30.317 126.455 30.317C128.876 30.317 133.833 29.7406 136.138 28.8185C136.369 28.7032 136.369 28.5879 136.369 28.3574L134.409 22.8242V22.8242ZM198.847 1.03747H191.931C191.815 1.03747 191.585 1.15275 191.585 1.26802C190.547 5.53315 188.357 12.6801 185.36 20.1729L178.444 1.15275C178.444 1.03747 178.213 0.922199 178.098 0.922199H171.181C171.066 0.922199 170.951 1.03747 170.836 1.03747C170.72 1.15275 170.72 1.26802 170.836 1.38329L181.21 29.7406C180.173 31.9308 179.135 33.66 178.213 35.5043C177.522 36.7723 176.83 38.0404 176.138 39.4236C176.023 39.5389 176.138 39.6542 176.138 39.7695C176.254 39.8847 176.369 40 176.484 40H183.977C184.092 40 184.207 39.8847 184.323 39.7695C185.591 37.3487 187.205 33.8905 188.703 30.4323C193.083 20.0576 196.657 10.3746 199.193 1.49857C199.193 1.38329 199.193 1.26802 199.078 1.15275C199.078 1.03747 198.962 1.03747 198.847 1.03747V1.03747ZM224.207 0.922199H204.15C203.919 0.922199 203.804 1.03747 203.804 1.26802V29.049C203.804 29.2796 203.919 29.3948 204.15 29.3948H210.951C211.181 29.3948 211.297 29.2796 211.297 29.049V7.60808H221.787C221.902 7.60808 222.132 7.4928 222.132 7.37753C222.939 5.53315 223.746 3.45822 224.553 1.49857V1.15275C224.438 1.03747 224.323 0.922199 224.207 0.922199Z" fill="#EE3F58"/>
<path d="M36.0807 23.9769C31.585 23.9769 30.2017 22.7089 30.2017 15.2161C30.2017 7.14697 31.7003 6.45533 36.0807 6.45533C40.4611 6.45533 42.0749 7.14697 42.0749 15.2161C42.0749 22.8242 40.5764 23.9769 36.0807 23.9769V23.9769ZM36.0807 0.115274C26.2824 0.115274 22.4784 4.26513 22.4784 15.1009C22.4784 26.0519 26.2824 30.317 36.0807 30.317C45.879 30.317 49.7983 26.0519 49.7983 15.1009C49.7983 4.3804 45.879 0.115274 36.0807 0.115274V0.115274ZM76.7723 22.8242C76.7723 22.7089 76.6571 22.5937 76.5418 22.5937H76.196C74.5821 23.17 71.4697 23.7464 69.2795 23.7464C64.5533 23.7464 62.3631 22.4784 62.3631 15.2161C62.3631 9.45245 63.0548 6.68588 69.2795 6.68588C71.0086 6.68588 72.7378 6.91643 74.8127 7.60807C74.928 7.60807 75.1585 7.60807 75.2738 7.37752C76.0807 5.87896 77.0029 4.14986 78.0403 1.84438V1.49856C78.0403 1.38329 77.9251 1.26801 77.8098 1.26801C75.1585 0.461095 71.8156 0 68.9337 0C59.0202 0 54.6398 4.61095 54.6398 15.1009C54.6398 25.7061 59.0202 30.4323 68.9337 30.4323C71.3545 30.4323 76.3112 29.8559 78.6167 28.9337C78.8473 28.8184 78.8473 28.7032 78.8473 28.4726L76.7723 22.8242V22.8242ZM20.4035 0.92219H0.345821C0.115274 0.92219 0 1.15274 0 1.38329V29.1643C0 29.3948 0.115274 29.5101 0.345821 29.5101H7.14697C7.37752 29.5101 7.4928 29.3948 7.4928 29.1643V7.60807H17.9827C18.098 7.60807 18.2133 7.4928 18.3285 7.37752C19.1354 5.53314 19.9424 3.45821 20.7493 1.49856V1.15274C20.634 1.03746 20.5187 0.92219 20.4035 0.92219Z" fill="#0065B1"/>
</g>
<defs>
<clipPath id="clip0">
<rect width="253.602" height="40" fill="white"/>
</clipPath>
</defs>
</svg>
