<svg width="66" height="72" viewBox="0 0 66 72" fill="none" xmlns="http://www.w3.org/2000/svg">
<g clip-path="url(#clip0)">
<path d="M26.8945 36.628H20.2388C20.1709 36.628 20.1369 36.662 20.103 36.7299C19.9332 39.7511 19.3559 42.976 18.5409 45.6238C18.5409 45.6577 18.5409 45.6917 18.5749 45.7256C18.6088 45.7596 18.6428 45.7596 18.6768 45.7596H20.9519C21.0198 45.7596 21.0538 45.7256 21.0538 45.6917C21.699 43.6549 22.2084 41.0071 22.4121 38.7666H24.5854V45.6577C24.5854 45.7256 24.6533 45.7935 24.7212 45.7935H26.8945C26.9624 45.7935 27.0304 45.7256 27.0304 45.6577V36.7299C27.0304 36.662 26.9624 36.628 26.8945 36.628V36.628ZM55.0455 36.628H52.8722C52.8043 36.628 52.7364 36.6959 52.7364 36.7638V43.6549C52.261 43.7907 51.7856 43.8586 51.2422 43.8586C49.816 43.8586 49.4764 43.4173 49.4764 41.5163V36.7638C49.4764 36.6959 49.4085 36.628 49.3406 36.628H47.2013C47.1334 36.628 47.0654 36.6959 47.0654 36.7638V41.7539C47.0654 44.877 48.1181 46.0651 50.8008 46.0651C52.3289 46.0651 54.0607 45.6577 55.0795 45.2843C55.1134 45.2504 55.1474 45.2164 55.1474 45.1825V36.7638C55.1813 36.662 55.1134 36.628 55.0455 36.628V36.628ZM8.9988 36.628H6.79155C6.72363 36.628 6.68967 36.662 6.68967 36.7299C6.35009 38.0877 5.63698 40.3961 4.68616 42.8062L2.47891 36.7299C2.44495 36.6959 2.41099 36.662 2.37704 36.662H0.135825C0.101868 36.662 0.06791 36.6959 0.0339522 36.7299C-5.55092e-06 36.7638 -5.55092e-06 36.7978 0.0339522 36.8317L3.36181 45.9293C3.02223 46.6422 2.71661 47.2193 2.41099 47.7624C2.17329 48.1698 1.96954 48.5771 1.7658 48.9845C1.73184 49.0184 1.73184 49.0524 1.7658 49.0863C1.79976 49.1203 1.83371 49.1542 1.86767 49.1542H4.27867C4.31263 49.1542 4.38054 49.1203 4.38054 49.0863C4.78804 48.3055 5.2974 47.2193 5.77281 46.099C7.19904 42.7723 8.31964 39.6492 9.16859 36.7978C9.16859 36.7638 9.16859 36.7299 9.13463 36.6959C9.06671 36.628 9.03276 36.628 8.9988 36.628V36.628ZM16.911 43.6549C16.911 43.621 16.877 43.587 16.843 43.587H16.7412C16.1978 43.7907 15.2131 43.9265 14.5339 43.9265C13.0058 43.9265 12.2927 43.5191 12.2927 41.2108C12.2927 39.3437 12.5304 38.4951 14.5339 38.4951C15.1112 38.4951 15.6206 38.563 16.2997 38.7666C16.3676 38.7666 16.4016 38.7666 16.4355 38.6987C16.6733 38.2235 16.9789 37.6464 17.3184 36.9335V36.8317C17.3184 36.7978 17.2845 36.7638 17.2505 36.7638C16.3676 36.4922 15.3149 36.3225 14.3641 36.3225C11.2061 36.3225 9.77983 37.8161 9.77983 41.1768C9.77983 44.5715 11.2061 46.099 14.3641 46.099C15.1452 46.099 16.7412 45.9293 17.4882 45.6238C17.5562 45.5898 17.5901 45.5219 17.5562 45.4541L16.911 43.6549V43.6549ZM37.5912 36.628H35.384C35.3161 36.628 35.2821 36.662 35.2821 36.7299C34.9425 38.1217 34.2294 40.3961 33.2786 42.8062L31.0713 36.7299C31.0374 36.6959 31.0034 36.662 30.9695 36.662H28.7283C28.6943 36.662 28.6603 36.6959 28.6264 36.7299C28.5924 36.7638 28.5924 36.7978 28.6264 36.8317L31.9542 45.9293C31.6147 46.6422 31.309 47.2193 31.0034 47.7624C30.7657 48.1698 30.562 48.5771 30.3582 49.0184C30.3243 49.0524 30.3243 49.0863 30.3582 49.1202C30.3922 49.1542 30.4261 49.1881 30.4601 49.1881H32.8711C32.9051 49.1881 32.973 49.1542 32.973 49.1202C33.3805 48.3395 33.8898 47.2532 34.3652 46.133C35.7575 42.8062 36.9121 39.6832 37.761 36.8317C37.761 36.7978 37.761 36.7638 37.7271 36.7299C37.6591 36.628 37.6252 36.628 37.5912 36.628V36.628ZM45.7411 36.628H39.3231C39.2552 36.628 39.1872 36.6959 39.1872 36.7638V45.6917C39.1872 45.7596 39.2552 45.8275 39.3231 45.8275H41.4964C41.5643 45.8275 41.6322 45.7596 41.6322 45.6917V38.8006H44.994C45.028 38.8006 45.0959 38.7666 45.0959 38.7327C45.3676 38.1217 45.6053 37.4767 45.8769 36.8317V36.7299C45.809 36.628 45.775 36.628 45.7411 36.628" fill="#EF4058"/>
<path d="M11.5796 22.9137C8.45548 22.9137 7.233 24.2716 7.233 27.7001C7.233 31.1966 8.45548 32.5545 11.5796 32.5545C14.7377 32.5545 15.9601 31.1966 15.9601 27.7001C15.9601 24.2376 14.7377 22.9137 11.5796 22.9137ZM11.5796 30.5516C10.1534 30.5516 9.71192 30.1782 9.71192 27.7341C9.71192 25.1542 10.1873 24.9165 11.5796 24.9165C13.0058 24.9165 13.4812 25.1542 13.4812 27.7341C13.4812 30.1782 13.0398 30.5516 11.5796 30.5516ZM24.6533 30.1782C24.6533 30.1443 24.6194 30.1103 24.5854 30.1103H24.4835C23.9402 30.314 22.9554 30.4498 22.2763 30.4498C20.7482 30.4498 20.0351 30.0424 20.0351 27.7341C20.0351 25.867 20.2728 25.0184 22.2763 25.0184C22.8536 25.0184 23.3629 25.0863 24.0421 25.29C24.11 25.29 24.144 25.29 24.1779 25.2221C24.4156 24.7468 24.7212 24.1697 25.0608 23.4569V23.355C25.0608 23.3211 25.0269 23.2871 24.9929 23.2871C24.11 23.0156 23.0573 22.8458 22.1065 22.8458C18.9484 22.8458 17.5222 24.3395 17.5222 27.7001C17.5222 31.0948 18.9484 32.6223 22.1065 32.6223C22.8875 32.6223 24.4835 32.4526 25.2306 32.1471C25.2985 32.1132 25.3325 32.0453 25.2985 31.9774L24.6533 30.1782V30.1782ZM6.55385 23.1513H0.135831C0.0679155 23.1513 0 23.2192 0 23.2871V32.215C0 32.2829 0.0679155 32.3508 0.135831 32.3508H2.30913C2.37704 32.3508 2.44496 32.2829 2.44496 32.215V25.29H5.77282C5.80678 25.29 5.87469 25.256 5.87469 25.2221C6.14635 24.611 6.38406 23.966 6.65572 23.3211V23.2192C6.62176 23.1853 6.5878 23.1513 6.55385 23.1513Z" fill="#1466AC"/>
<path d="M65.1989 44.843V44.7072C65.1989 44.6393 65.1989 44.5375 65.2328 44.4696C65.3347 43.2136 65.4026 41.686 65.4705 39.9208V39.785C65.5045 38.5969 65.5385 37.3069 65.5385 35.983C65.5385 34.6591 65.5045 33.3692 65.4705 32.181V32.0453C65.4026 30.314 65.3347 28.7525 65.2328 27.4965C65.2328 27.4286 65.2328 27.3267 65.1989 27.2588V27.1231C65.1989 26.9873 65.1649 26.8854 65.1649 26.7496V26.6139C65.0631 25.29 64.9951 24.4752 64.9612 24.4074C64.9612 24.2716 64.9272 24.1358 64.9272 24.0339V23.9321C64.8933 23.6945 64.8593 23.4908 64.7914 23.2532C64.7914 23.2192 64.7914 23.1853 64.7574 23.1513C64.1802 20.4017 62.6521 17.3805 60.7504 15.1061C60.0033 14.2235 59.2223 13.4427 58.4073 12.8317C58.3394 12.7638 57.3886 12.0849 55.8945 11.0325C54.1626 9.84441 51.6837 8.18105 48.8652 6.55163C43.8395 3.5983 39.391 1.52758 38.7798 1.28996C38.7458 1.28996 38.7458 1.25601 38.7458 1.25601C37.4214 0.678925 35.8254 0.27157 34.0936 0.101839C33.754 0.0678925 33.4144 0.0339463 33.0749 0.0339463C32.7353 0 32.4297 0 32.124 0H31.6486C29.3395 0.0678925 27.2002 0.475248 25.5023 1.25601C25.2646 1.35785 20.7482 3.42857 15.6206 6.44979L15.4168 6.55163C10.1534 9.64074 6.04449 12.6959 5.8747 12.8317C4.5843 13.7822 3.42974 15.0042 2.37705 16.5658C2.13935 16.9052 2.13935 17.7878 3.15808 17.7878H5.77282C6.89343 17.7878 7.16509 17.1089 8.42153 16.1924C9.8138 15.174 12.5644 13.1372 17.5901 10.1499C21.2236 8.01132 24.6194 6.314 26.2833 5.53324C26.3173 5.53324 26.3512 5.49929 26.3852 5.49929C26.3852 5.49929 26.4191 5.49929 26.4191 5.46535C26.4191 5.46535 26.4531 5.46535 26.4531 5.4314C26.4871 5.4314 26.521 5.39745 26.521 5.39745C26.555 5.39745 26.5889 5.36351 26.6229 5.36351C27.0304 5.15983 27.302 5.05799 27.302 5.05799C28.4566 4.5488 30.0866 4.20934 31.8184 4.17539H32.4976C33.0069 4.17539 33.5163 4.20934 33.9917 4.27723C35.0444 4.41301 35.9952 4.61669 36.7763 4.95615C36.8442 4.9901 36.946 5.02405 37.014 5.05799C37.014 5.05799 37.0479 5.09194 37.1498 5.12588C37.9308 5.46535 42.1416 7.46818 46.7259 10.1499C49.4425 11.7454 51.8535 13.3409 53.5174 14.495C54.9776 15.5134 55.8605 16.1584 55.8945 16.1924C56.5397 16.6676 57.1849 17.3465 57.7961 18.0934C59.3242 20.0622 60.5806 22.744 60.7844 24.8147C60.7844 24.8487 60.8863 25.6634 60.9881 27.0552C60.9881 27.157 60.9881 27.2249 61.0221 27.3267V27.5304C61.0221 27.6662 61.056 27.768 61.056 27.9038V28.0396C61.056 28.1075 61.056 28.2093 61.09 28.2772C61.09 28.447 61.124 28.6167 61.124 28.7864C61.124 28.8883 61.124 28.9901 61.1579 29.0919V29.1598C61.1579 29.2956 61.1579 29.3975 61.1919 29.5332V29.8048C61.2937 31.57 61.3617 33.6747 61.3617 35.8812C61.3617 38.0877 61.2937 40.1924 61.1919 41.9576V42.2291C61.1919 42.3649 61.1919 42.4668 61.1579 42.6025V42.6704C61.1579 42.7723 61.1579 42.8741 61.124 42.976C61.124 43.1457 61.09 43.3154 61.09 43.4852C61.09 43.587 61.09 43.6549 61.056 43.7228V43.8586C61.056 43.9943 61.0221 44.0962 61.0221 44.232V44.4356C61.0221 44.5375 61.0221 44.6393 60.9881 44.7072C60.8863 46.099 60.7844 46.9477 60.7844 46.9477C60.5806 49.0184 59.3242 51.7001 57.7961 53.669C57.1849 54.4498 56.5397 55.0948 55.8945 55.57C55.8605 55.57 54.9776 56.2489 53.5174 57.2673C51.8535 58.4215 49.4085 60.017 46.7259 61.6124C42.1416 64.3281 37.8969 66.297 37.1498 66.6365L37.014 66.7044C36.946 66.7383 36.8442 66.7723 36.7763 66.8062C35.9952 67.1117 35.0444 67.3494 33.9917 67.4851C33.5163 67.553 33.0069 67.587 32.4976 67.587H31.8184C30.0866 67.553 28.4566 67.2475 27.302 66.7044C27.302 66.7044 27.0643 66.6025 26.6229 66.3989C26.5889 66.3649 26.521 66.3649 26.4871 66.331C26.4531 66.297 26.4191 66.297 26.3852 66.2631C26.3512 66.2631 26.3512 66.2291 26.3173 66.2291C26.2833 66.2291 26.2493 66.1952 26.2154 66.1952C26.1814 66.1612 26.1475 66.1612 26.0796 66.1273H26.0456C24.3138 65.4484 21.0538 63.819 17.5901 61.7822C12.5304 58.8289 9.8138 56.7581 8.42153 55.7397C7.16509 54.8232 6.89343 54.1443 5.77282 54.1443H3.15808C2.13935 54.1443 2.13935 55.0269 2.37705 55.3663C3.42974 56.9279 4.5843 58.1499 5.8747 59.1004C6.04449 59.2362 10.1873 62.2914 15.4168 65.3805C15.6885 65.5502 15.9602 65.7199 16.2658 65.8557C21.1217 68.6393 25.2985 70.5403 25.5362 70.6761C27.2002 71.4229 29.3735 71.8642 31.6826 71.9321H32.158C32.4636 71.9321 32.7692 71.9321 33.0749 71.8982C33.4144 71.8982 33.754 71.8642 34.0936 71.8303C35.8254 71.6605 37.4554 71.2532 38.7458 70.6761C38.7458 70.6761 38.7798 70.6761 38.7798 70.6422C39.357 70.3706 43.8395 68.2999 48.8313 65.3805C51.6497 63.7171 54.1287 62.0877 55.8605 60.8996C57.3546 59.8472 58.3055 59.1683 58.3734 59.1004C59.1884 58.4894 59.9694 57.7086 60.7165 56.826C62.6181 54.5516 64.1462 51.5304 64.7235 48.7808C64.7235 48.7468 64.7235 48.7129 64.7574 48.6789C64.7914 48.4413 64.8593 48.2037 64.8933 48V47.8982C64.9272 47.7624 64.9272 47.6266 64.9272 47.5248C64.9272 47.4569 65.0291 46.6422 65.131 45.3182V45.1825C65.1989 45.0806 65.1989 44.9788 65.1989 44.843" fill="url(#paint0_linear)"/>
</g>
<defs>
<linearGradient id="paint0_linear" x1="33.8919" y1="0" x2="33.8919" y2="71.9942" gradientUnits="userSpaceOnUse">
<stop offset="0.398" stop-color="#1466AC"/>
<stop offset="0.659" stop-color="#EF4058"/>
</linearGradient>
<clipPath id="clip0">
<rect width="65.5385" height="72" fill="white"/>
</clipPath>
</defs>
</svg>
