<svg width="133" height="347" viewBox="0 0 133 347" fill="none" xmlns="http://www.w3.org/2000/svg">
<path opacity="0.97" fill-rule="evenodd" clip-rule="evenodd" d="M0.0366821 0.927734V47.2798C0.0366821 91.7777 19.4213 119.589 30.4982 130.713C36.9598 137.203 102.498 202.096 103.421 203.023C123.729 223.417 127.421 229.907 132.037 241.031V190.044C132.037 144.619 108.96 127.005 96.9597 114.954C69.2674 88.0696 50.8059 70.4558 36.0367 55.6231C7.4213 25.9578 0.0366821 0.927734 0.0366821 0.927734Z" fill="#F6F7F9"/>
<path fill-rule="evenodd" clip-rule="evenodd" d="M96.9597 218.069C69.2674 191.185 50.8059 173.571 36.0367 158.739C7.4213 130 0.0366821 111.46 0.0366821 111.46V151.322C0.0366821 195.82 20.3444 223.631 30.4982 234.756C36.9598 241.245 102.498 305.211 103.421 306.138C123.729 326.533 127.421 335.803 132.037 346.928V293.159C132.037 247.735 108.96 229.194 96.9597 218.069Z" fill="#F0F1F5" fill-opacity="0.93"/>
</svg>
