<svg width="180" height="78" viewBox="0 0 180 78" fill="none" xmlns="http://www.w3.org/2000/svg">
<g clip-path="url(#clip0)">
<path d="M35.7397 16.0648L42.8476 10.0026V77.899H49.8554V0.808305H42.8476L35.7397 6.87048V16.0648ZM11.2125 78H31.8354V70.0182H18.3204V61.9352C18.3204 50.9223 31.9355 47.285 31.9355 31.0182V13.4378C31.9355 4.95079 27.2303 0.202087 21.4238 0.202087C15.6174 0.202087 11.0122 4.74872 11.0122 13.1347V21.9249H18.02V13.1347C18.02 10.0026 19.5217 8.18395 21.4238 8.18395C23.3259 8.18395 24.9277 10.1036 24.9277 13.4378V30.9171C24.9277 41.9301 11.2125 45.5674 11.2125 61.8342V78Z" fill="#FFD100"/>
<path d="M60.6674 34.3523H56.7631V0.808289H62.7698L66.9744 28.0881H67.0745L71.2792 0.808289H77.2859V34.3523H73.3815V7.67875H73.2814L69.277 34.3523H64.772L60.6674 7.67875H60.5673V34.3523H60.6674Z" fill="#468B40"/>
<path d="M90.2002 34.3523H79.0879V0.808289H90.2002V4.14249H83.0923V15.4585H89.1991V18.7927H83.0923V30.9171H90.2002V34.3523Z" fill="#468B40"/>
<path d="M95.9066 34.3523H91.802V0.808289H95.9066V15.4585H99.911V0.808289H104.016V34.3523H99.911V18.8938H95.9066V34.3523Z" fill="#468B40"/>
<path d="M113.626 20.3083H111.824L109.021 34.3523H104.816L108.42 19.399C106.518 18.4896 105.617 16.9741 105.617 14.8523V6.36528C105.617 4.64767 106.218 3.3342 107.319 2.32383C108.521 1.31347 109.922 0.808289 111.724 0.808289H117.631V34.3523H113.526V20.3083H113.626ZM111.824 16.9741H113.626V4.24352H111.824C111.224 4.24352 110.723 4.44559 110.323 4.84974C109.922 5.25388 109.722 5.75907 109.722 6.46632V14.8523C109.722 15.5596 109.922 16.0648 110.323 16.4689C110.723 16.772 111.224 16.9741 111.824 16.9741Z" fill="#468B40"/>
<path d="M130.845 34.3523H119.733V0.808289H130.845V4.14249H123.737V15.4585H129.844V18.7927H123.737V30.9171H130.845V34.3523Z" fill="#468B40"/>
<path d="M136.351 34.3523H132.447V0.808289H138.454L142.659 28.0881H142.759L146.963 0.808289H152.97V34.3523H149.066V7.67875H148.966L144.961 34.3523H140.456L136.552 7.67875H136.452V34.3523H136.351Z" fill="#468B40"/>
<path d="M158.676 6.06219V29.1995C158.676 29.8057 158.877 30.3109 159.177 30.715C159.477 31.1192 159.978 31.2202 160.578 31.2202C161.179 31.2202 161.58 31.0181 161.98 30.715C162.38 30.3109 162.481 29.8057 162.481 29.1995V24.7539H166.585V29.1995C166.585 30.8161 165.984 32.1296 164.883 33.1399C163.782 34.1503 162.28 34.5544 160.478 34.5544C158.676 34.5544 157.275 34.0492 156.174 33.1399C155.072 32.1296 154.472 30.8161 154.472 29.1995V6.06219C154.472 4.44561 155.072 3.0311 156.174 2.12178C157.275 1.11141 158.776 0.606232 160.478 0.606232C162.28 0.606232 163.682 1.11141 164.883 2.12178C165.984 3.13214 166.585 4.44561 166.585 6.06219V10.4068H162.481V6.06219C162.481 5.45597 162.28 4.95079 161.98 4.54665C161.58 4.1425 161.179 3.94043 160.578 3.94043C159.978 3.94043 159.577 4.1425 159.177 4.54665C158.877 4.95079 158.676 5.45597 158.676 6.06219Z" fill="#468B40"/>
<path d="M175.895 20.3083H174.194L171.29 34.3523H167.086L170.69 19.399C168.788 18.4896 167.887 16.9741 167.887 14.8523V6.36528C167.887 4.64767 168.487 3.3342 169.588 2.32383C170.79 1.31347 172.191 0.808289 173.993 0.808289H179.9V34.3523H175.795V20.3083H175.895ZM174.093 16.9741H175.895V4.24352H174.093C173.493 4.24352 172.992 4.44559 172.592 4.84974C172.191 5.25388 171.991 5.75907 171.991 6.46632V14.8523C171.991 15.5596 172.191 16.0648 172.592 16.4689C172.992 16.772 173.493 16.9741 174.093 16.9741Z" fill="#468B40"/>
<path d="M62.6696 77.3938H57.1635V43.8497H62.5695C64.2714 43.8497 65.673 44.3549 66.6741 45.3653C67.7753 46.3756 68.2759 47.6891 68.2759 49.4067V55.0648C68.2759 57.4896 67.1746 59.2072 64.9722 60.0155C65.9733 60.4197 66.8743 61.0259 67.475 61.9352C68.0756 62.8445 68.376 63.8549 68.376 65.0673V71.9378C68.376 73.5544 67.8754 74.9689 66.7742 75.9793C65.7731 76.8886 64.3715 77.3938 62.6696 77.3938ZM59.8665 46.1736V58.9041H62.5695C63.4705 58.9041 64.1713 58.601 64.772 57.9948C65.3726 57.3886 65.673 56.6813 65.673 55.671V49.3057C65.673 48.3964 65.3726 47.5881 64.772 46.9819C64.1713 46.3756 63.4705 46.0725 62.5695 46.0725H59.8665V46.1736ZM62.6696 61.228H59.8665V75.0699H62.6696C63.5706 75.0699 64.2714 74.7668 64.8721 74.1606C65.4728 73.5544 65.7731 72.7461 65.7731 71.8368V64.3601C65.7731 63.4508 65.4728 62.6425 64.8721 62.0363C64.3715 61.5311 63.5706 61.228 62.6696 61.228Z" fill="#6DC067"/>
<path d="M73.4816 77.3938H70.8788V43.8497H74.8832L79.6885 73.1503H79.7886L84.7942 43.8497H88.7987V77.2927H86.1958V48.6995H86.0957L81.3904 77.3938H78.287L73.5818 48.6995H73.4816V77.3938Z" fill="#6DC067"/>
<path d="M102.314 77.3938H91.802V43.8497H102.314V46.1736H94.505V59.0052H101.413V61.329H94.505V75.0699H102.314V77.3938Z" fill="#6DC067"/>
<path d="M107.119 49.1036V72.342C107.019 73.5544 107.519 74.4637 108.521 74.9689C109.522 75.4741 110.523 75.4741 111.524 74.9689C112.525 74.4637 113.026 73.5544 112.925 72.342V67.8964H115.628V72.342C115.628 73.9586 115.128 75.171 114.027 76.1814C112.925 77.1917 111.624 77.5959 110.022 77.5959C108.42 77.5959 107.019 77.0907 106.018 76.1814C105.017 75.272 104.416 73.9586 104.416 72.342V49.1036C104.416 47.4871 104.917 46.1736 106.018 45.1632C107.019 44.1529 108.42 43.7487 110.022 43.7487C111.624 43.7487 113.026 44.2539 114.027 45.1632C115.128 46.1736 115.628 47.386 115.628 49.1036V53.5492H112.925V49.1036C113.026 47.7902 112.525 46.9819 111.524 46.3757C110.523 45.8705 109.522 45.8705 108.521 46.3757C107.519 46.8808 107.019 47.7902 107.119 49.1036Z" fill="#6DC067"/>
<path d="M121.335 46.1736H116.83V43.8497H128.643V46.1736H124.138V77.3938H121.435V46.1736H121.335Z" fill="#6DC067"/>
<path d="M140.756 77.3938H130.145V43.8497H140.656V46.1736H132.848V59.0052H139.755V61.329H132.848V75.0699H140.656V77.3938H140.756Z" fill="#6DC067"/>
<path d="M6.70745 0H0V21.9249H6.70745V0Z" fill="#468B40"/>
</g>
<defs>
<clipPath id="clip0">
<rect width="180" height="78" fill="white"/>
</clipPath>
</defs>
</svg>
