<svg width="32" height="32" viewBox="0 0 32 32" fill="none" xmlns="http://www.w3.org/2000/svg">
<circle cx="16" cy="16" r="15.5" stroke="#BDBDBD"/>
<path fill-rule="evenodd" clip-rule="evenodd" d="M18.9702 16.001C18.8371 16.001 18.659 16.0898 18.4222 16.2083C17.9479 16.4453 17.2374 16.8008 16.1707 16.8008C15.1041 16.8008 14.3936 16.4453 13.9193 16.2083C13.6825 16.0898 13.5044 16.001 13.3713 16.001C12.9313 16.001 12.5714 16.3609 12.5714 16.8008C12.5714 17.2008 12.8114 17.4007 12.9713 17.4807C13.4512 17.7607 14.971 18.4005 14.971 18.4005L13.2513 20.5601C13.2513 20.5601 12.9313 20.9201 12.9313 21.2C12.9313 21.6399 13.2913 21.9999 13.7312 21.9999C14.1311 21.9999 14.3311 21.7199 14.3311 21.7199L16.1707 19.6003L17.9704 21.7199C17.9704 21.7199 18.1704 21.9999 18.5703 21.9999C19.0102 21.9999 19.3702 21.6399 19.3702 21.2C19.3702 20.9601 19.0502 20.5601 19.0502 20.5601L17.3705 18.4005C17.3705 18.4005 18.8902 17.7607 19.3702 17.4807L19.392 17.4644C19.5514 17.346 19.7701 17.1829 19.7701 16.8008C19.7701 16.3609 19.4102 16.001 18.9702 16.001Z" fill="#1C1C1C"/>
<path fill-rule="evenodd" clip-rule="evenodd" d="M16.1684 10C14.6086 10 13.3689 11.2398 13.3689 12.7995C13.3689 14.3592 14.6086 15.599 16.1684 15.599C17.7281 15.599 18.9678 14.3592 18.9678 12.7995C18.9678 11.2398 17.7281 10 16.1684 10ZM16.1682 14.2007C15.4083 14.2007 14.7684 13.5608 14.7684 12.8009C14.7684 12.0411 15.4083 11.4012 16.1682 11.4012C16.928 11.4012 17.5679 12.0411 17.5679 12.8009C17.5679 13.5608 16.928 14.2007 16.1682 14.2007Z" fill="#1C1C1C"/>
</svg>
