<svg width="186" height="55" viewBox="0 0 186 55" fill="none" xmlns="http://www.w3.org/2000/svg">
<path d="M179.111 55H6.88889C3.03111 55 0 51.975 0 48.125V6.875C0 3.025 3.03111 0 6.88889 0H179.111C182.969 0 186 3.025 186 6.875V48.125C186 51.975 182.969 55 179.111 55Z" fill="black"/>
<path d="M93.8266 29.975C90.52 29.975 87.9022 32.45 87.9022 35.8875C87.9022 39.1875 90.52 41.8 93.8266 41.8C97.1333 41.8 99.7511 39.325 99.7511 35.8875C99.7511 32.3125 97.1333 29.975 93.8266 29.975ZM93.8266 39.325C92.0355 39.325 90.52 37.8125 90.52 35.75C90.52 33.6875 92.0355 32.175 93.8266 32.175C95.6178 32.175 97.1333 33.55 97.1333 35.75C97.1333 37.8125 95.6178 39.325 93.8266 39.325ZM81.0133 29.975C77.7066 29.975 75.0889 32.45 75.0889 35.8875C75.0889 39.1875 77.7066 41.8 81.0133 41.8C84.32 41.8 86.9378 39.325 86.9378 35.8875C86.9378 32.3125 84.32 29.975 81.0133 29.975ZM81.0133 39.325C79.2222 39.325 77.7067 37.8125 77.7067 35.75C77.7067 33.6875 79.2222 32.175 81.0133 32.175C82.8044 32.175 84.32 33.55 84.32 35.75C84.32 37.8125 82.8044 39.325 81.0133 39.325ZM65.72 31.7625V34.2375H71.6444C71.5066 35.6125 70.9555 36.7125 70.2666 37.4C69.44 38.225 68.0622 39.1875 65.72 39.1875C62 39.1875 59.2444 36.3 59.2444 32.5875C59.2444 28.875 62.1378 25.9875 65.72 25.9875C67.6489 25.9875 69.1644 26.8125 70.2666 27.775L72.0578 25.9875C70.5422 24.6125 68.6133 23.5125 65.8578 23.5125C60.8978 23.5125 56.6266 27.6375 56.6266 32.5875C56.6266 37.5375 60.8978 41.6625 65.8578 41.6625C68.6133 41.6625 70.5422 40.8375 72.1955 39.05C73.8489 37.4 74.4 35.0625 74.4 33.275C74.4 32.725 74.4 32.175 74.2622 31.7625H65.72ZM128.271 33.6875C127.72 32.3125 126.342 29.975 123.311 29.975C120.28 29.975 117.8 32.3125 117.8 35.8875C117.8 39.1875 120.28 41.8 123.587 41.8C126.204 41.8 127.858 40.15 128.409 39.1875L126.48 37.8125C125.791 38.775 124.964 39.4625 123.587 39.4625C122.209 39.4625 121.382 38.9125 120.693 37.675L128.547 34.375L128.271 33.6875ZM120.28 35.6125C120.28 33.4125 122.071 32.175 123.311 32.175C124.276 32.175 125.24 32.725 125.516 33.4125L120.28 35.6125ZM113.804 41.25H116.422V24.0625H113.804V41.25ZM109.671 31.2125C108.982 30.525 107.88 29.8375 106.502 29.8375C103.609 29.8375 100.853 32.45 100.853 35.75C100.853 39.05 103.471 41.525 106.502 41.525C107.88 41.525 108.982 40.8375 109.533 40.15H109.671V40.975C109.671 43.175 108.431 44.4125 106.502 44.4125C104.987 44.4125 103.884 43.3125 103.609 42.35L101.404 43.3125C102.093 44.825 103.747 46.75 106.64 46.75C109.671 46.75 112.151 44.9625 112.151 40.7V30.25H109.671V31.2125ZM106.64 39.325C104.849 39.325 103.333 37.8125 103.333 35.75C103.333 33.6875 104.849 32.175 106.64 32.175C108.431 32.175 109.809 33.6875 109.809 35.75C109.809 37.8125 108.431 39.325 106.64 39.325ZM140.258 24.0625H134.058V41.25H136.676V34.7875H140.258C143.151 34.7875 145.907 32.725 145.907 29.425C145.907 26.125 143.151 24.0625 140.258 24.0625ZM140.396 32.3125H136.676V26.4H140.396C142.324 26.4 143.427 28.05 143.427 29.2875C143.289 30.8 142.187 32.3125 140.396 32.3125ZM156.24 29.8375C154.311 29.8375 152.382 30.6625 151.693 32.45L154.036 33.4125C154.587 32.45 155.413 32.175 156.378 32.175C157.756 32.175 158.996 33 159.133 34.375V34.5125C158.72 34.2375 157.618 33.825 156.516 33.825C154.036 33.825 151.556 35.2 151.556 37.675C151.556 40.0125 153.622 41.525 155.827 41.525C157.618 41.525 158.444 40.7 159.133 39.875H159.271V41.25H161.751V34.65C161.476 31.625 159.133 29.8375 156.24 29.8375ZM155.964 39.325C155.138 39.325 153.898 38.9125 153.898 37.8125C153.898 36.4375 155.413 36.025 156.653 36.025C157.756 36.025 158.307 36.3 158.996 36.575C158.72 38.225 157.342 39.325 155.964 39.325ZM170.431 30.25L167.538 37.675H167.4L164.369 30.25H161.613L166.16 40.7L163.542 46.475H166.16L173.187 30.25H170.431ZM147.284 41.25H149.902V24.0625H147.284V41.25Z" fill="white"/>
<path d="M14.3289 10.3125C13.9155 10.725 13.7778 11.4125 13.7778 12.2375V42.625C13.7778 43.45 14.0533 44.1375 14.4667 44.55L14.6044 44.6875L31.6889 27.6375V27.5V27.3625L14.3289 10.3125Z" fill="url(#paint0_linear)"/>
<path d="M37.2 33.4125L31.5511 27.775V27.5V27.3625L37.2 21.725L37.3378 21.8625L44.0889 25.7125C46.0178 26.8125 46.0178 28.6 44.0889 29.7L37.2 33.4125Z" fill="url(#paint1_linear)"/>
<path d="M37.3378 33.275L31.5511 27.5L14.3289 44.6875C15.0178 45.375 15.9823 45.375 17.2223 44.825L37.3378 33.275Z" fill="url(#paint2_linear)"/>
<path d="M37.3378 21.725L17.2223 10.3125C15.9823 9.62497 15.0178 9.76247 14.3289 10.45L31.5511 27.5L37.3378 21.725Z" fill="url(#paint3_linear)"/>
<path opacity="0.2" d="M37.2 33.1375L17.2223 44.4124C16.12 45.0999 15.1556 44.9624 14.4667 44.4124L14.3289 44.55L14.4667 44.6874C15.1556 45.2374 16.12 45.3749 17.2223 44.6874L37.2 33.1375Z" fill="black"/>
<path opacity="0.12" d="M14.3289 44.4124C13.9155 43.9999 13.7778 43.3124 13.7778 42.4874V42.6249C13.7778 43.4499 14.0533 44.1374 14.4667 44.5499V44.4124H14.3289Z" fill="black"/>
<path opacity="0.12" d="M44.0889 29.2875L37.2 33.1375L37.3378 33.275L44.0889 29.425C45.0533 28.875 45.4667 28.1875 45.4667 27.5C45.4667 28.1875 44.9156 28.7375 44.0889 29.2875Z" fill="black"/>
<path opacity="0.25" d="M17.2222 10.45L44.0889 25.7125C44.9156 26.2625 45.4667 26.8125 45.4667 27.5C45.4667 26.8125 45.0533 26.125 44.0889 25.575L17.2222 10.3125C15.2933 9.21251 13.7778 10.0375 13.7778 12.2375V12.375C13.7778 10.3125 15.2933 9.35001 17.2222 10.45Z" fill="white"/>
<path d="M58.0045 19.6625H57.04V16.9125H57.8667C58.5556 16.3625 58.9689 15.2625 58.9689 13.75V9.625H64.48V16.9125H65.4445V19.6625H64.48V17.875H58.1423V19.6625H58.0045ZM59.9334 13.75C59.9334 14.9875 59.6578 16.0875 59.1067 16.9125H63.24V10.5875H59.7956V13.75H59.9334Z" fill="white" stroke="white" stroke-width="0.2" stroke-miterlimit="10"/>
<path d="M73.5733 16.775C72.7467 17.6 71.7822 18.0125 70.5422 18.0125C69.3022 18.0125 68.3378 17.6 67.5111 16.775C66.6845 15.95 66.2711 14.9875 66.2711 13.75C66.2711 12.5125 66.6845 11.55 67.5111 10.725C68.3378 9.90005 69.3022 9.48755 70.5422 9.48755C71.7822 9.48755 72.7467 9.90005 73.5733 10.725C74.4 11.55 74.8133 12.5125 74.8133 13.75C74.8133 14.9875 74.4 15.95 73.5733 16.775ZM68.3378 16.0875C68.8889 16.6375 69.7156 17.05 70.5422 17.05C71.3689 17.05 72.1956 16.775 72.7467 16.0875C73.2978 15.5375 73.7111 14.7125 73.7111 13.75C73.7111 12.7875 73.4356 11.9625 72.7467 11.4125C72.1956 10.8625 71.3689 10.45 70.5422 10.45C69.7156 10.45 68.8889 10.725 68.3378 11.4125C67.7867 11.9625 67.3733 12.7875 67.3733 13.75C67.3733 14.7125 67.6489 15.5375 68.3378 16.0875Z" fill="white" stroke="white" stroke-width="0.2" stroke-miterlimit="10"/>
<path d="M80.1867 18.0125C78.9467 18.0125 77.9823 17.6 77.1556 16.775C76.3289 15.95 75.9156 14.9875 75.9156 13.75C75.9156 12.5125 76.3289 11.55 77.1556 10.725C77.9823 9.90005 78.9467 9.48755 80.1867 9.48755C81.4267 9.48755 82.3911 9.90005 83.2178 10.8625L82.5289 11.55C81.9778 10.8625 81.1511 10.45 80.1867 10.45C79.2223 10.45 78.5334 10.725 77.8445 11.4125C77.1556 11.9625 76.88 12.7875 76.88 13.75C76.88 14.7125 77.1556 15.5375 77.8445 16.0875C78.3956 16.6375 79.2223 17.05 80.1867 17.05C81.1511 17.05 81.9778 16.6375 82.6667 15.8125L83.3556 16.5C82.9423 16.9125 82.5289 17.325 81.9778 17.6C81.4267 17.875 80.8756 18.0125 80.1867 18.0125Z" fill="white" stroke="white" stroke-width="0.2" stroke-miterlimit="10"/>
<path d="M87.7645 17.875H86.6623V10.5875H84.3201V9.625H89.969V10.5875H87.6267V17.875H87.7645Z" fill="white" stroke="white" stroke-width="0.2" stroke-miterlimit="10"/>
<path d="M97.2712 9.625L94.1023 16.6375C93.6889 17.6 93.0001 18.15 92.1734 18.15C91.8978 18.15 91.6223 18.15 91.3467 18.0125L91.6223 17.05C91.7601 17.1875 92.0356 17.1875 92.1734 17.1875C92.4489 17.1875 92.5867 17.1875 92.7245 17.05C92.8623 16.9125 93.0001 16.775 93.1378 16.5L93.4134 15.8125L90.6578 9.7625H91.8978L93.9645 14.4375L96.0312 9.625H97.2712Z" fill="white" stroke="white" stroke-width="0.2" stroke-miterlimit="10"/>
<path d="M98.5112 17.875V9.625H104.436V17.875H103.333V10.5875H99.4756V17.875H98.5112Z" fill="white" stroke="white" stroke-width="0.2" stroke-miterlimit="10"/>
<path d="M106.365 17.875V9.625H107.467V13.2H111.6V9.625H112.702V17.875H111.6V14.1625H107.467V17.875H106.365Z" fill="white" stroke="white" stroke-width="0.2" stroke-miterlimit="10"/>
<path d="M121.382 16.775C120.556 17.6 119.591 18.0125 118.351 18.0125C117.111 18.0125 116.147 17.6 115.32 16.775C114.493 15.95 114.08 14.9875 114.08 13.75C114.08 12.5125 114.493 11.55 115.32 10.725C116.147 9.90005 117.111 9.48755 118.351 9.48755C119.591 9.48755 120.556 9.90005 121.382 10.725C122.209 11.55 122.622 12.5125 122.622 13.75C122.485 14.9875 122.071 15.95 121.382 16.775ZM116.009 16.0875C116.56 16.6375 117.387 17.05 118.213 17.05C119.04 17.05 119.867 16.775 120.418 16.0875C120.969 15.5375 121.382 14.7125 121.382 13.75C121.382 12.7875 121.107 11.9625 120.418 11.4125C119.867 10.8625 119.04 10.45 118.213 10.45C117.387 10.45 116.56 10.725 116.009 11.4125C115.458 11.9625 115.045 12.7875 115.045 13.75C115.045 14.7125 115.458 15.5375 116.009 16.0875Z" fill="white" stroke="white" stroke-width="0.2" stroke-miterlimit="10"/>
<path d="M126.893 17.875V9.625H129.924C130.613 9.625 131.164 9.9 131.578 10.3125C131.991 10.725 132.267 11.275 132.267 11.825C132.267 12.2375 132.129 12.5125 131.991 12.925C131.853 13.2 131.578 13.475 131.164 13.6125C131.578 13.75 131.853 14.025 132.129 14.3C132.404 14.575 132.542 14.9875 132.542 15.5375C132.542 16.225 132.267 16.775 131.853 17.1875C131.302 17.6 130.751 17.875 130.062 17.875H126.893ZM127.996 13.2H129.924C130.338 13.2 130.613 13.0625 130.889 12.7875C131.164 12.5125 131.302 12.2375 131.302 11.9625C131.302 11.6875 131.027 11.275 130.889 11C130.613 10.725 130.338 10.5875 129.924 10.5875H127.996V13.2ZM127.996 16.9125H130.2C130.613 16.9125 130.889 16.775 131.164 16.5C131.44 16.225 131.578 15.95 131.578 15.5375C131.578 15.2625 131.44 14.85 131.164 14.575C130.889 14.3 130.613 14.1625 130.2 14.1625H128.133V16.9125H127.996Z" fill="white" stroke="white" stroke-width="0.2" stroke-miterlimit="10"/>
<defs>
<linearGradient id="paint0_linear" x1="30.035" y1="11.976" x2="6.95924" y2="35.0983" gradientUnits="userSpaceOnUse">
<stop stop-color="#00A0FF"/>
<stop offset="0.00657445" stop-color="#00A1FF"/>
<stop offset="0.2601" stop-color="#00BEFF"/>
<stop offset="0.5122" stop-color="#00D2FF"/>
<stop offset="0.7604" stop-color="#00DFFF"/>
<stop offset="1" stop-color="#00E3FF"/>
</linearGradient>
<linearGradient id="paint1_linear" x1="46.6161" y1="27.502" x2="13.2782" y2="27.502" gradientUnits="userSpaceOnUse">
<stop stop-color="#FFE000"/>
<stop offset="0.4087" stop-color="#FFBD00"/>
<stop offset="0.7754" stop-color="#FFA500"/>
<stop offset="1" stop-color="#FF9C00"/>
</linearGradient>
<linearGradient id="paint2_linear" x1="34.206" y1="30.6573" x2="2.91339" y2="62.0131" gradientUnits="userSpaceOnUse">
<stop stop-color="#FF3A44"/>
<stop offset="1" stop-color="#C31162"/>
</linearGradient>
<linearGradient id="paint3_linear" x1="10.0539" y1="0.242383" x2="24.0275" y2="14.244" gradientUnits="userSpaceOnUse">
<stop stop-color="#32A071"/>
<stop offset="0.0685" stop-color="#2DA771"/>
<stop offset="0.4762" stop-color="#15CF74"/>
<stop offset="0.8009" stop-color="#06E775"/>
<stop offset="1" stop-color="#00F076"/>
</linearGradient>
</defs>
</svg>
