<svg width="24" height="24" viewBox="0 0 24 24" fill="none" xmlns="http://www.w3.org/2000/svg">
<path fill-rule="evenodd" clip-rule="evenodd" d="M3.59998 1.8C3.59998 0.84 4.43998 0 5.39998 0H18.6C19.56 0 20.4 0.84 20.4 1.8V22.2C20.4 23.16 19.56 24 18.6 24H5.39998C4.43998 24 3.59998 23.16 3.59998 22.2V1.8ZM5.99998 2.4H18V19.2H5.99998V2.4ZM10.8 20.4C10.4817 20.4 10.1765 20.5264 9.95145 20.7515C9.7264 20.9765 9.59998 21.2817 9.59998 21.6C9.59998 21.9183 9.7264 22.2235 9.95145 22.4485C10.1765 22.6736 10.4817 22.8 10.8 22.8H13.2C13.5182 22.8 13.8235 22.6736 14.0485 22.4485C14.2735 22.2235 14.4 21.9183 14.4 21.6C14.4 21.2817 14.2735 20.9765 14.0485 20.7515C13.8235 20.5264 13.5182 20.4 13.2 20.4H10.8Z" fill="#333333"/>
</svg>
