<svg width="17" height="14" viewBox="0 0 17 14" fill="none" xmlns="http://www.w3.org/2000/svg">
<mask id="path-1-outside-1" maskUnits="userSpaceOnUse" x="-0.5" y="-0.125" width="18" height="14" fill="black">
<rect fill="white" x="-0.5" y="-0.125" width="18" height="14"/>
<path fill-rule="evenodd" clip-rule="evenodd" d="M7.23762 11.875L15.5 2.88664L14.353 1.875L7.1223 9.74098L2.5328 5.69322L1.5 6.81676L7.23519 11.875L7.23627 11.8738L7.23762 11.875Z"/>
</mask>
<path fill-rule="evenodd" clip-rule="evenodd" d="M7.23762 11.875L15.5 2.88664L14.353 1.875L7.1223 9.74098L2.5328 5.69322L1.5 6.81676L7.23519 11.875L7.23627 11.8738L7.23762 11.875Z" fill="#63A240"/>
<path d="M15.5 2.88664L16.2362 3.56339L16.927 2.81187L16.1615 2.13666L15.5 2.88664ZM7.23762 11.875L6.57603 12.6248L7.31075 13.2731L7.97383 12.5517L7.23762 11.875ZM14.353 1.875L15.0144 1.12502L14.2797 0.477035L13.6168 1.19825L14.353 1.875ZM7.1223 9.74098L6.46084 10.491L7.19554 11.1389L7.85851 10.4177L7.1223 9.74098ZM2.5328 5.69322L3.19425 4.94324L2.45955 4.29526L1.79658 5.01647L2.5328 5.69322ZM1.5 6.81676L0.763787 6.14001L0.0729639 6.89154L0.838544 7.56675L1.5 6.81676ZM7.23519 11.875L6.57373 12.625L7.30844 13.2729L7.9714 12.5517L7.23519 11.875ZM7.23627 11.8738L7.89787 11.1239L7.16314 10.4757L6.50006 11.197L7.23627 11.8738ZM14.7638 2.20989L6.50141 11.1982L7.97383 12.5517L16.2362 3.56339L14.7638 2.20989ZM13.6915 2.62498L14.8385 3.63663L16.1615 2.13666L15.0144 1.12502L13.6915 2.62498ZM7.85851 10.4177L15.0892 2.55175L13.6168 1.19825L6.38608 9.06423L7.85851 10.4177ZM1.87134 6.44321L6.46084 10.491L7.78375 8.991L3.19425 4.94324L1.87134 6.44321ZM2.23621 7.49351L3.26901 6.36997L1.79658 5.01647L0.763787 6.14001L2.23621 7.49351ZM7.89664 11.125L2.16146 6.06678L0.838544 7.56675L6.57373 12.625L7.89664 11.125ZM6.50006 11.197L6.49897 11.1982L7.9714 12.5517L7.97249 12.5505L6.50006 11.197ZM7.89922 11.1251L7.89787 11.1239L6.57468 12.6237L6.57603 12.6248L7.89922 11.1251Z" fill="#619A41" mask="url(#path-1-outside-1)"/>
</svg>
