<svg width="234" height="234" viewBox="0 0 234 234" fill="none" xmlns="http://www.w3.org/2000/svg">
<g clip-path="url(#clip0)">
<path fill-rule="evenodd" clip-rule="evenodd" d="M117.184 234C59.7002 234 13.26 187.257 13.26 130.031C13.26 97.1695 28.2681 66.8571 54.6031 47.0266L55.7358 46.1768V0H115.202V26.063C115.768 26.063 116.334 26.063 116.901 26.063C174.102 26.063 220.825 72.8063 220.825 130.031C220.825 187.257 174.385 234 117.184 234Z" fill="#19502E"/>
<path fill-rule="evenodd" clip-rule="evenodd" d="M87.165 131.635L108.686 110.388V95.94L87.165 117.187V131.635Z" fill="#FFCB05"/>
<path fill-rule="evenodd" clip-rule="evenodd" d="M87.165 77.9401L108.686 56.6931V43.095L87.165 64.0587V77.9401Z" fill="#FFCB05"/>
<path fill-rule="evenodd" clip-rule="evenodd" d="M87.165 95.685L108.686 74.438V60.84L87.165 81.8036V95.685Z" fill="#FFCB05"/>
<path fill-rule="evenodd" clip-rule="evenodd" d="M81.0012 43.0865L78.1695 40.2536V6.82501H74.7714V37.1374L71.9397 34.3044V6.82501H68.5416V31.1882L65.7099 28.3553V6.82501H62.595V38.8371L84.1161 60.0841V6.82501H81.0012V43.0865Z" fill="#FFCB05"/>
<path fill-rule="evenodd" clip-rule="evenodd" d="M87.165 113.625L108.686 92.378V78.78L87.165 99.7437V113.625Z" fill="#FFCB05"/>
<path fill-rule="evenodd" clip-rule="evenodd" d="M62.595 110.388L84.1161 131.635V117.187L62.595 95.94V110.388Z" fill="#FFCB05"/>
<path fill-rule="evenodd" clip-rule="evenodd" d="M105.288 28.3553L102.456 31.1882V6.82501H99.3414V34.3044L96.5097 37.1374V6.82501H93.1116V40.2536L90.2799 43.0865V6.82501H87.165V60.0841L108.686 38.8371V6.82501H105.288V28.3553Z" fill="#FFCB05"/>
<path fill-rule="evenodd" clip-rule="evenodd" d="M62.595 56.6931L84.1161 77.9401V64.0587L62.595 43.095V56.6931Z" fill="#FFCB05"/>
<path fill-rule="evenodd" clip-rule="evenodd" d="M62.595 74.438L84.1161 95.685V81.8036L62.595 60.84V74.438Z" fill="#FFCB05"/>
<path fill-rule="evenodd" clip-rule="evenodd" d="M62.595 92.378L84.1161 113.625V99.7437L62.595 78.78V92.378Z" fill="#FFCB05"/>
<path fill-rule="evenodd" clip-rule="evenodd" d="M191.405 103.471H141H138.735C139.867 101.771 140.434 99.7881 140.434 97.5217C140.434 91.2893 135.337 86.19 129.107 86.19C122.877 86.19 117.78 91.2893 117.78 97.5217C117.78 100.071 118.63 102.338 120.045 104.037C119.196 104.604 118.346 105.737 118.346 107.154C118.346 108.287 118.913 109.42 120.045 110.27C118.63 112.253 117.78 114.519 117.78 116.786C117.78 123.018 122.877 128.117 129.107 128.117C135.337 128.117 140.434 123.018 140.434 116.786C140.434 114.519 139.867 112.536 138.735 110.836H148.363H178.096V113.103H174.131V116.502H178.096V119.902H174.131V126.418H178.096V123.585H183.759V126.418H187.723V119.902H183.759V116.502H187.723V113.103H183.759V110.836H191.405C192.82 110.836 194.236 109.703 194.236 108.004V106.304C193.953 104.887 192.82 103.471 191.405 103.471ZM135.053 116.786C135.053 119.902 132.505 122.735 129.107 122.735C125.992 122.735 123.16 120.185 123.16 116.786C123.16 115.652 123.443 114.519 124.01 113.669L125.709 110.836C124.576 109.987 124.01 108.57 124.01 107.154C124.01 105.737 124.576 104.321 125.709 103.471L124.01 100.638C123.443 99.7881 123.16 98.6549 123.16 97.5217C123.16 94.4055 125.709 91.5726 129.107 91.5726C132.222 91.5726 135.053 94.1222 135.053 97.5217C135.053 99.7881 132.222 105.454 132.222 105.454V108.57C132.222 108.57 135.053 114.236 135.053 116.786Z" fill="#FFCB05"/>
<path fill-rule="evenodd" clip-rule="evenodd" d="M42.705 96.525V110.69C42.705 124.288 48.6516 132.787 52.0497 136.186C54.0319 138.169 74.1371 158 74.4203 158.283C80.65 164.515 81.7827 166.498 83.1986 169.898V154.317C83.1986 140.435 76.1193 135.053 72.438 131.37C63.9429 123.155 58.2795 117.772 53.7487 113.239C44.9704 104.174 42.705 96.525 42.705 96.525Z" fill="white"/>
<path fill-rule="evenodd" clip-rule="evenodd" d="M72.438 166.349C63.9429 158.133 58.2795 152.751 53.7487 148.218C44.9704 139.436 42.705 133.77 42.705 133.77V145.952C42.705 159.55 48.9348 168.048 52.0497 171.448C54.0319 173.431 74.1371 192.978 74.4203 193.262C80.65 199.494 81.7827 202.327 83.1986 205.726V189.295C83.1986 175.414 76.1193 169.748 72.438 166.349Z" fill="white"/>
<path fill-rule="evenodd" clip-rule="evenodd" d="M117.213 32.955C115.514 32.955 114.098 32.955 112.682 32.955V39.754C114.098 39.754 115.797 39.754 117.213 39.754C167.334 39.754 207.828 80.265 207.828 130.408C207.828 180.267 167.334 221.062 117.213 221.062C67.0915 221.062 26.598 180.551 26.598 130.408C26.598 102.645 39.0575 77.7153 58.8795 61.2843V52.7855C35.0931 70.0664 20.085 98.3957 20.085 130.125C20.085 183.667 63.6935 227.294 117.213 227.294C170.732 227.294 214.341 183.667 214.341 130.125C214.341 76.5822 170.732 32.955 117.213 32.955Z" fill="white"/>
<path fill-rule="evenodd" clip-rule="evenodd" d="M185.64 180.724C187.056 178.741 188.472 176.475 189.888 174.491V161.46H185.64V180.724Z" fill="white"/>
<path fill-rule="evenodd" clip-rule="evenodd" d="M198.1 156.596C198.666 154.613 199.232 152.913 199.799 150.93H185.64V154.33H187.905C191.587 154.33 195.834 154.046 198.1 156.596Z" fill="white"/>
<path d="M104.106 150.345H100.425V189.156H104.106V150.345Z" fill="white"/>
<path fill-rule="evenodd" clip-rule="evenodd" d="M91.6262 143.108H104.369C107.767 143.108 110.032 143.674 111.165 145.091C112.581 146.224 113.147 148.49 113.147 151.89V188.151C113.147 191.551 112.581 193.817 111.165 194.95C109.183 196.933 105.502 196.933 102.387 196.933C101.82 196.933 100.971 196.933 100.405 196.933V214.214C101.537 214.498 102.953 214.781 104.086 214.781V200.616C110.032 200.616 113.714 198.633 115.413 194.667V215.347C115.696 215.347 116.262 215.347 116.545 215.347C117.395 215.347 118.244 215.347 118.811 215.347V152.456C118.811 149.057 119.377 146.791 120.793 145.374C121.926 143.958 124.474 143.391 127.589 143.391C130.987 143.391 135.518 142.824 138.066 145.374C139.199 146.791 140.049 149.057 140.049 152.456V170.87H131.27V151.04H127.589V214.498C128.722 214.214 130.138 214.214 131.27 213.931V174.837H140.615V212.231C142.314 211.665 144.296 211.098 145.995 210.531V176.253C145.995 172.287 146.845 169.454 150.809 168.038L146.278 144.241H155.057L156.473 170.304H157.605L159.021 144.241H168.366L163.269 168.038C167.516 169.454 168.083 172.004 168.083 176.253V198.35C170.631 196.367 173.18 194.384 175.445 192.117V143.958H201.214C201.497 142.824 201.497 141.691 201.78 140.558H141.748L142.597 144.807C140.615 141.408 137.217 139.708 131.837 139.708H128.155C121.926 139.708 117.961 142.258 116.545 147.357C115.129 141.975 111.165 139.425 104.369 139.425H87.945V210.531C89.0777 211.098 90.4936 211.381 91.6262 211.948V143.108ZM171.481 170.304L167.233 166.338L171.481 145.091V170.304Z" fill="white"/>
<path fill-rule="evenodd" clip-rule="evenodd" d="M155.22 206.556C156.636 205.989 157.769 205.139 159.184 204.572V175.11H155.22V206.556Z" fill="white"/>
</g>
<defs>
<clipPath id="clip0">
<rect width="207.565" height="234" fill="white" transform="translate(13.26)"/>
</clipPath>
</defs>
</svg>
