<svg width="72" height="72" viewBox="0 0 72 72" fill="none" xmlns="http://www.w3.org/2000/svg">
<path d="M56.7625 17.5843C54.3134 16.3598 49.7214 16.3457 49.5272 16.3457C48.9448 16.3457 48.4725 16.8179 48.4725 17.4004C48.4725 17.9829 48.9448 18.4551 49.5272 18.4551C50.7121 18.4551 54.1523 18.6376 55.8192 19.471C55.9707 19.5468 56.1316 19.5825 56.29 19.5825C56.6769 19.5825 57.0494 19.3687 57.2342 18.9993C57.4948 18.4783 57.2836 17.8448 56.7625 17.5843Z" fill="#7AC300"/>
<path d="M70.9453 49.0366H64.575C64.9939 48.3597 65.2364 47.5625 65.2364 46.7096V36.8605C65.2364 34.8902 63.9131 33.136 62.0186 32.5947L58.2154 31.5081C57.7029 31.3617 57.3452 30.8873 57.3453 30.3543L57.3455 29.4746C57.6997 29.2292 58.0375 28.9545 58.3533 28.648C59.8842 27.1624 60.7272 25.1696 60.7272 23.0369V21.0313L61.1481 20.1895C61.6103 19.2653 61.8545 18.2305 61.8545 17.1972V11.7641C61.8545 11.1816 61.3823 10.7094 60.7998 10.7094H50.6543C46.9648 10.7094 43.9632 13.7111 43.9632 17.4005V17.4634C43.9632 18.3224 44.1662 19.1829 44.5506 19.9516L45.0904 21.0313V22.7532C45.0904 25.4822 46.4352 27.9309 48.4722 29.4045V30.3545C48.4722 30.8873 48.1143 31.3617 47.602 31.5081L43.7991 32.5947C41.9046 33.136 40.5814 34.8903 40.5814 36.8606V37.764H40.5089C39.3057 37.764 38.3269 38.7427 38.3269 39.9459V48.9641C38.3269 48.9885 38.3297 49.0123 38.3306 49.0366H33.0113C33.4302 48.3597 33.6727 47.5625 33.6727 46.7096V36.8605C33.6727 34.8902 32.3494 33.136 30.4549 32.5947L26.6517 31.5081C26.6105 31.4965 26.5715 31.4803 26.5323 31.4644C28.3368 31.1127 29.8077 30.652 30.7513 30.3148C31.3002 30.1186 31.7396 29.72 31.9884 29.1918C32.2349 28.6685 32.263 28.0824 32.0674 27.5412C31.1378 24.9706 30.4366 20.6681 30.288 18.5502C29.9291 13.4374 26.0845 9.58189 21.3455 9.58203C16.6061 9.58203 12.7614 13.4375 12.4026 18.5502C12.2538 20.6678 11.5528 24.9703 10.623 27.5412C10.4273 28.0822 10.4555 28.6684 10.702 29.1916C10.9509 29.7197 11.3901 30.1186 11.9389 30.3147C12.8825 30.6519 14.3537 31.1126 16.1585 31.4644C16.1193 31.4802 16.0799 31.496 16.0386 31.5079L12.2356 32.5945C10.3411 33.1357 9.018 34.8899 9.018 36.8602V46.7093C9.018 47.5622 9.26058 48.3594 9.67936 49.0363H1.05469C0.472219 49.0363 0 49.5086 0 50.091C0 50.6735 0.472219 51.1457 1.05469 51.1457H2.2545V61.3637C2.2545 61.9461 2.72672 62.4184 3.30919 62.4184C3.89166 62.4184 4.36387 61.9461 4.36387 61.3637V55.6547H13.5271V61.3637C13.5271 61.9461 13.9994 62.4184 14.5818 62.4184C15.1643 62.4184 15.6365 61.9461 15.6365 61.3637V57.9094H27.0544V61.3637C27.0544 61.9461 27.5266 62.4184 28.1091 62.4184C28.6916 62.4184 29.1638 61.9461 29.1638 61.3637V55.6547H67.6361V61.3637C67.6361 61.9461 68.1083 62.4184 68.6908 62.4184C69.2733 62.4184 69.7455 61.9461 69.7455 61.3637V51.1457H70.9453C71.5278 51.1457 72 50.6735 72 50.091C72 49.5084 71.5278 49.0366 70.9453 49.0366ZM47.2001 22.7532V20.7822C47.2001 20.6184 47.162 20.457 47.0887 20.3106L46.4376 19.0081C46.199 18.5308 46.0728 17.9967 46.0728 17.4632V17.4004C46.0728 14.874 48.1282 12.8187 50.6545 12.8187H59.7454V17.197C59.7454 17.9046 59.5782 18.6131 59.2618 19.2461L58.7295 20.3105C58.6562 20.457 58.6181 20.6183 58.6181 20.7821V23.0366C58.6181 24.594 58.0025 26.0491 56.8845 27.134C55.7671 28.2184 54.2914 28.7896 52.7328 28.7429C49.682 28.6516 47.2001 25.9644 47.2001 22.7532ZM55.4198 31.4345L54.5545 32.2997C54.115 32.7392 53.5306 32.9813 52.9089 32.9813C52.2873 32.9813 51.7029 32.7392 51.2634 32.2997L50.398 31.4343C50.5035 31.1317 50.5637 30.8109 50.5766 30.4812C51.2418 30.7 51.9434 30.8298 52.6694 30.8516C52.7505 30.8541 52.8313 30.8552 52.9121 30.8552C53.7143 30.8552 54.4973 30.7337 55.2423 30.502C55.2566 30.8244 55.3165 31.1382 55.4198 31.4345ZM42.6909 36.8605C42.6911 35.8269 43.3852 34.9068 44.3789 34.6228L48.1819 33.5362C48.512 33.4419 48.8174 33.2966 49.0939 33.1131L49.772 33.7912C50.6098 34.6292 51.724 35.0907 52.909 35.0907C54.0941 35.0907 55.2082 34.6292 56.0461 33.7912L56.724 33.1132C57.0004 33.2967 57.306 33.442 57.636 33.5362L61.4391 34.6228C62.4329 34.9068 63.127 35.8269 63.127 36.8605V46.7096C63.127 47.9928 62.0831 49.0366 60.7999 49.0366H56.2146C56.2154 49.0123 56.2182 48.9885 56.2182 48.9641V46.637H59.6725C60.255 46.637 60.7272 46.1648 60.7272 45.5823V38.8187C60.7272 38.2362 60.255 37.764 59.6725 37.764C59.0901 37.764 58.6178 38.2362 58.6178 38.8187V44.5276H56.2182V39.9459C56.2182 38.7427 55.2395 37.764 54.0363 37.764H42.6909V36.8605ZM40.4364 39.9459C40.4364 39.9058 40.4689 39.8734 40.509 39.8734H54.0363C54.0764 39.8734 54.1088 39.9058 54.1088 39.9459V48.9641C54.1088 49.0041 54.0764 49.0366 54.0363 49.0366H40.509C40.4689 49.0366 40.4364 49.0041 40.4364 48.9641V39.9459ZM12.6489 28.3286C12.6273 28.3209 12.616 28.305 12.6103 28.2929C12.6014 28.2739 12.6052 28.2635 12.6069 28.2589C13.6018 25.5077 14.3497 20.9386 14.5069 18.6983C14.6419 16.776 15.4004 15.0047 16.6425 13.7111C17.9111 12.3899 19.5375 11.6917 21.3458 11.6917C23.1536 11.6917 24.7797 12.3899 26.0482 13.7111C27.2904 15.0047 28.0489 16.7758 28.1839 18.6983C28.3413 20.9389 29.0891 25.508 30.0839 28.2589C30.0856 28.2634 30.0894 28.2739 30.0804 28.2929C30.0748 28.3048 30.0634 28.3209 30.0419 28.3286C28.4276 28.9055 25.1513 29.873 21.3452 29.873C17.5389 29.873 14.263 28.9053 12.6489 28.3286ZM13.5271 53.5456H4.36387V51.146H13.5271V53.5456ZM15.6365 55.8001V41.0732C15.6365 40.4115 16.1748 39.8734 16.8363 39.8734H25.8545C26.5161 39.8734 27.0543 40.4117 27.0543 41.0732V55.8001H15.6365ZM25.8546 37.764H16.8365C15.0117 37.764 13.5273 39.2486 13.5273 41.0732V49.0366H13.4547C12.1715 49.0366 11.1277 47.9928 11.1277 46.7096V36.8605C11.1277 35.8269 11.8218 34.9068 12.8154 34.6228L16.6184 33.5362C17.5274 33.2765 18.2602 32.6568 18.6678 31.8404C19.5217 31.9293 20.4185 31.9823 21.3453 31.9823C22.2739 31.9823 23.1722 31.929 24.0276 31.8399C24.4375 32.6518 25.1723 33.279 26.0727 33.5364L29.8758 34.623C30.8696 34.9069 31.5637 35.827 31.5637 36.8606V46.7097C31.5637 47.9929 30.5198 49.0368 29.2366 49.0368H29.1641V41.0733C29.1638 39.2484 27.6794 37.764 25.8546 37.764ZM29.1638 53.5456V51.146H29.2364H67.636V53.5456H29.1638Z" fill="#7AC300"/>
<path d="M47.25 45.4924C47.8325 45.4924 48.3047 45.0202 48.3047 44.4377C48.3047 43.8553 47.8325 43.3831 47.25 43.3831C46.6675 43.3831 46.1953 43.8553 46.1953 44.4377C46.1953 45.0202 46.6675 45.4924 47.25 45.4924Z" fill="#7AC300"/>
</svg>
