<svg width="72" height="72" viewBox="0 0 72 72" fill="none" xmlns="http://www.w3.org/2000/svg">
<rect width="72" height="72" rx="7" fill="#FFCB05"/>
<path d="M52.0392 25.8669C52.0372 25.8669 52.0352 25.8667 52.0332 25.8667H43.2676V24.9C43.2676 23.301 41.9664 22 40.3672 22H32.6328C31.0336 22 29.7324 23.301 29.7324 24.9V25.8667H20.9668C20.4285 25.8667 20 26.3077 20 26.8333V48.1C20 49.699 21.3011 51 22.9004 51H50.0996C51.6989 51 53 49.699 53 48.1V26.8537C53 26.8525 53 26.8512 53 26.8499C52.963 26.2151 52.5725 25.8704 52.0392 25.8669ZM31.666 24.9C31.666 24.3671 32.0998 23.9333 32.6328 23.9333H40.3672C40.9002 23.9333 41.334 24.3671 41.334 24.9V25.8667H31.666V24.9ZM50.6918 27.8L47.6894 36.8056C47.5577 37.2011 47.1891 37.4667 46.7725 37.4667H41.334V36.5C41.334 35.9661 40.9012 35.5333 40.3672 35.5333H32.6328C32.0988 35.5333 31.666 35.9661 31.666 36.5V37.4667H26.2275C25.8109 37.4667 25.4423 37.2011 25.3106 36.8056L22.3082 27.8H50.6918ZM39.4004 37.4667V39.4H33.5996V37.4667H39.4004ZM51.0664 48.1C51.0664 48.6329 50.6326 49.0667 50.0996 49.0667H22.9004C22.3674 49.0667 21.9336 48.6329 21.9336 48.1V32.7902L23.4762 37.4171C23.8715 38.6033 24.9772 39.4 26.2275 39.4H31.666V40.3667C31.666 40.9006 32.0988 41.3333 32.6328 41.3333H40.3672C40.9012 41.3333 41.334 40.9006 41.334 40.3667V39.4H46.7725C48.0228 39.4 49.1285 38.6033 49.5238 37.4171L51.0664 32.7902V48.1Z" fill="#333333"/>
</svg>
