<svg width="72" height="72" viewBox="0 0 72 72" fill="none" xmlns="http://www.w3.org/2000/svg">
<rect width="72" height="72" rx="7" fill="#FFCB05"/>
<path d="M48.9485 29.6305C48.3479 29.9211 48.0965 30.6439 48.3871 31.2442C49.181 32.8841 49.5833 34.6518 49.5833 36.5C49.5833 43.1626 44.1626 48.5833 37.5 48.5833C30.8373 48.5833 25.4167 43.1626 25.4167 36.5C25.4167 29.8373 30.8373 24.4167 37.5 24.4167C40.2609 24.4167 42.8546 25.3182 45.0013 27.0236C45.522 27.4393 46.2834 27.3522 46.6991 26.8298C47.1147 26.3076 47.0277 25.5471 46.505 25.1321C43.9635 23.1122 40.7654 22 37.5 22C29.5051 22 23 28.5051 23 36.5C23 44.4949 29.5051 51 37.5 51C45.4949 51 52 44.4949 52 36.5C52 34.2845 51.5162 32.1614 50.5622 30.1919C50.2722 29.5901 49.547 29.3394 48.9485 29.6305Z" fill="#333333"/>
<path d="M37.2083 27C36.5413 27 36 27.5413 36 28.2083V36.6666C36 37.3336 36.5413 37.875 37.2083 37.875H43.25C43.917 37.875 44.4583 37.3336 44.4583 36.6666C44.4583 35.9996 43.917 35.4583 43.25 35.4583H38.4166V28.2083C38.4166 27.5413 37.8753 27 37.2083 27Z" fill="#333333"/>
</svg>
