<svg width="72" height="72" viewBox="0 0 72 72" fill="none" xmlns="http://www.w3.org/2000/svg">
<rect width="72" height="72" rx="7" fill="#FFCB05"/>
<path d="M51 28.9608H44.672C45.126 28.6508 45.516 28.3428 45.788 28.0668C47.4 26.4447 47.4 23.8047 45.788 22.1828C44.222 20.6068 41.49 20.6048 39.922 22.1828C39.056 23.0528 36.754 26.5948 37.072 28.9608H36.928C37.244 26.5948 34.944 23.0528 34.078 22.1828C32.51 20.6048 29.778 20.6068 28.212 22.1828C26.6 23.8047 26.6 26.4447 28.21 28.0668C28.484 28.3428 28.874 28.6508 29.328 28.9608H23C21.898 28.9608 21 29.8587 21 30.9607V35.9607C21 36.5127 21.448 36.9607 22 36.9607H23V48.9607C23 50.0627 23.898 50.9607 25 50.9607H49C50.102 50.9607 51 50.0627 51 48.9607V36.9607H52C52.552 36.9607 53 36.5127 53 35.9607V30.9607C53 29.8587 52.102 28.9608 51 28.9608ZM29.63 23.5928C30.036 23.1848 30.574 22.9608 31.146 22.9608C31.716 22.9608 32.254 23.1848 32.66 23.5928C34.008 24.9488 35.348 28.4128 34.882 28.8948C34.882 28.8948 34.798 28.9608 34.512 28.9608C33.13 28.9608 30.492 27.5248 29.63 26.6568C28.792 25.8128 28.792 24.4367 29.63 23.5928ZM36 48.9607H25V36.9607H36V48.9607ZM36 34.9607H23V30.9607H34.512H36V34.9607ZM41.34 23.5928C42.152 22.7788 43.56 22.7808 44.37 23.5928C45.208 24.4367 45.208 25.8128 44.37 26.6568C43.508 27.5248 40.87 28.9608 39.488 28.9608C39.202 28.9608 39.118 28.8967 39.116 28.8948C38.652 28.4128 39.992 24.9488 41.34 23.5928ZM49 48.9607H38V36.9607H49V48.9607ZM51 34.9607H38V30.9607H39.488H51V34.9607Z" fill="#333333"/>
</svg>
