<svg width="238" height="36" viewBox="0 0 238 36" fill="none" xmlns="http://www.w3.org/2000/svg">
<path opacity="0.9" d="M5.94 15.224C7.412 15.224 8.42 15.048 8.964 14.696C9.54 14.344 9.828 13.528 9.828 12.248V7.832C9.828 7.128 9.604 6.552 9.156 6.104C8.74 5.656 8.164 5.432 7.428 5.432C6.564 5.432 5.94 5.704 5.556 6.248C5.204 6.792 5.028 7.32 5.028 7.832V10.616H0.132V7.784C0.132 6.792 0.324 5.848 0.708 4.952C1.092 4.056 1.62 3.288 2.292 2.648C2.964 2.008 3.748 1.496 4.644 1.112C5.54 0.727998 6.5 0.535997 7.524 0.535997C8.868 0.535997 9.972 0.807998 10.836 1.352C11.732 1.864 12.404 2.392 12.852 2.936C13.172 3.32 13.444 3.704 13.668 4.088C13.924 4.472 14.132 4.936 14.292 5.48C14.58 6.536 14.724 8.104 14.724 10.184C14.724 11.368 14.692 12.328 14.628 13.064C14.596 13.8 14.484 14.408 14.292 14.888C14.068 15.4 13.748 15.832 13.332 16.184C12.948 16.536 12.404 16.92 11.7 17.336C12.468 17.816 13.044 18.264 13.428 18.68C13.844 19.096 14.148 19.576 14.34 20.12C14.532 20.696 14.644 21.384 14.676 22.184C14.708 22.952 14.724 23.944 14.724 25.16C14.724 26.28 14.692 27.208 14.628 27.944C14.596 28.68 14.532 29.288 14.436 29.768C14.34 30.28 14.212 30.712 14.052 31.064C13.892 31.416 13.684 31.784 13.428 32.168C12.82 33.064 12.036 33.816 11.076 34.424C10.148 35 8.916 35.288 7.38 35.288C6.612 35.288 5.796 35.16 4.932 34.904C4.068 34.648 3.284 34.232 2.58 33.656C1.876 33.08 1.284 32.328 0.804 31.4C0.356 30.472 0.132 29.336 0.132 27.992V25.208H5.028V27.752C5.028 28.52 5.236 29.16 5.652 29.672C6.1 30.152 6.692 30.392 7.428 30.392C8.164 30.392 8.74 30.152 9.156 29.672C9.604 29.16 9.828 28.488 9.828 27.656V22.76C9.828 21.416 9.572 20.536 9.06 20.12C8.772 19.864 8.372 19.704 7.86 19.64C7.38 19.576 6.74 19.544 5.94 19.544V15.224ZM27.6874 7.832C27.6874 7.16 27.4474 6.6 26.9674 6.152C26.4874 5.672 25.9274 5.432 25.2874 5.432C24.6474 5.432 24.0874 5.672 23.6074 6.152C23.1274 6.6 22.8874 7.16 22.8874 7.832V12.824C22.8874 13.496 23.1274 14.072 23.6074 14.552C24.0874 15 24.6474 15.224 25.2874 15.224C25.9274 15.224 26.4874 15 26.9674 14.552C27.4474 14.072 27.6874 13.496 27.6874 12.824V7.832ZM17.9914 9.752C17.9914 8.824 18.0234 8.04 18.0874 7.4C18.1514 6.728 18.2634 6.152 18.4234 5.672C18.5834 5.192 18.7594 4.76 18.9514 4.376C19.1754 3.992 19.4474 3.592 19.7674 3.176C20.4074 2.344 21.2074 1.704 22.1674 1.256C23.1274 0.775998 24.1674 0.535997 25.2874 0.535997C26.4074 0.535997 27.4474 0.775998 28.4074 1.256C29.3674 1.704 30.1674 2.344 30.8074 3.176C31.1274 3.592 31.3994 3.992 31.6234 4.376C31.8474 4.76 32.0394 5.192 32.1994 5.672C32.3594 6.152 32.4554 6.728 32.4874 7.4C32.5514 8.04 32.5834 8.824 32.5834 9.752C32.5834 10.776 32.5674 11.64 32.5354 12.344C32.5034 13.048 32.4074 13.672 32.2474 14.216C32.0874 14.76 31.8314 15.256 31.4794 15.704C31.1594 16.12 30.7114 16.568 30.1354 17.048C30.7114 17.496 31.1594 17.944 31.4794 18.392C31.8314 18.84 32.0874 19.368 32.2474 19.976C32.4074 20.584 32.5034 21.336 32.5354 22.232C32.5674 23.096 32.5834 24.168 32.5834 25.448C32.5834 26.504 32.5514 27.384 32.4874 28.088C32.4554 28.76 32.3914 29.352 32.2954 29.864C32.1994 30.376 32.0554 30.808 31.8634 31.16C31.7034 31.512 31.4954 31.88 31.2394 32.264C30.6954 33.096 29.9274 33.816 28.9354 34.424C27.9434 35 26.7274 35.288 25.2874 35.288C23.8474 35.288 22.6314 35 21.6394 34.424C20.6474 33.816 19.8794 33.096 19.3354 32.264C19.0794 31.88 18.8554 31.512 18.6634 31.16C18.5034 30.808 18.3754 30.376 18.2794 29.864C18.1834 29.352 18.1034 28.76 18.0394 28.088C18.0074 27.384 17.9914 26.504 17.9914 25.448C17.9914 24.168 18.0074 23.096 18.0394 22.232C18.0714 21.336 18.1674 20.584 18.3274 19.976C18.4874 19.368 18.7274 18.84 19.0474 18.392C19.3994 17.944 19.8634 17.496 20.4394 17.048C19.8634 16.568 19.3994 16.12 19.0474 15.704C18.7274 15.256 18.4874 14.76 18.3274 14.216C18.1674 13.672 18.0714 13.048 18.0394 12.344C18.0074 11.64 17.9914 10.776 17.9914 9.752ZM27.6874 21.272C27.6874 20.6 27.4474 20.04 26.9674 19.592C26.4874 19.112 25.9274 18.872 25.2874 18.872C24.6474 18.872 24.0874 19.112 23.6074 19.592C23.1274 20.04 22.8874 20.6 22.8874 21.272V27.992C22.8874 28.664 23.1274 29.24 23.6074 29.72C24.0874 30.168 24.6474 30.392 25.2874 30.392C25.9274 30.392 26.4874 30.168 26.9674 29.72C27.4474 29.24 27.6874 28.664 27.6874 27.992V21.272ZM41.6588 35V6.008L36.7628 9.608V4.424L41.6588 0.823999H46.5547V35H41.6588ZM62.6164 35V30.392L71.4484 13.736C71.8964 12.904 72.1524 12.184 72.2164 11.576C72.2804 10.936 72.3124 10.152 72.3124 9.224C72.3124 8.808 72.2964 8.376 72.2644 7.928C72.2644 7.448 72.1844 7.032 72.0244 6.68C71.8644 6.328 71.6244 6.04 71.3044 5.816C70.9844 5.56 70.5204 5.432 69.9124 5.432C69.1764 5.432 68.5844 5.64 68.1364 6.056C67.7204 6.472 67.5124 7.08 67.5124 7.88V10.664H62.6164V7.976C62.6164 6.952 62.8084 5.992 63.1924 5.096C63.5764 4.2 64.1044 3.416 64.7764 2.744C65.4164 2.072 66.1844 1.544 67.0804 1.16C67.9764 0.743998 68.9364 0.535997 69.9604 0.535997C71.2404 0.535997 72.3284 0.775998 73.2244 1.256C74.1524 1.704 74.9204 2.328 75.5284 3.128C76.1044 3.928 76.5204 4.84 76.7764 5.864C77.0644 6.888 77.2084 7.976 77.2084 9.128C77.2084 9.96 77.1924 10.664 77.1604 11.24C77.1284 11.784 77.0644 12.312 76.9684 12.824C76.8724 13.336 76.7124 13.848 76.4884 14.36C76.2644 14.872 75.9604 15.496 75.5764 16.232L68.3764 30.104H77.2084V35H62.6164ZM80.4758 7.88C80.4758 6.728 80.6678 5.704 81.0518 4.808C81.4678 3.912 82.0118 3.144 82.6838 2.504C83.3558 1.864 84.1238 1.384 84.9878 1.064C85.8838 0.711998 86.8118 0.535997 87.7718 0.535997C88.7318 0.535997 89.6438 0.711998 90.5078 1.064C91.4038 1.384 92.1878 1.864 92.8598 2.504C93.5318 3.144 94.0598 3.912 94.4438 4.808C94.8598 5.704 95.0678 6.728 95.0678 7.88V27.944C95.0678 29.096 94.8598 30.12 94.4438 31.016C94.0598 31.912 93.5318 32.68 92.8598 33.32C92.1878 33.96 91.4038 34.456 90.5078 34.808C89.6438 35.128 88.7318 35.288 87.7718 35.288C86.8118 35.288 85.8838 35.128 84.9878 34.808C84.1238 34.456 83.3558 33.96 82.6838 33.32C82.0118 32.68 81.4678 31.912 81.0518 31.016C80.6678 30.12 80.4758 29.096 80.4758 27.944V7.88ZM85.3718 27.944C85.3718 28.648 85.5958 29.24 86.0438 29.72C86.4918 30.168 87.0678 30.392 87.7718 30.392C88.4758 30.392 89.0518 30.168 89.4998 29.72C89.9478 29.24 90.1718 28.648 90.1718 27.944V7.88C90.1718 7.176 89.9478 6.6 89.4998 6.152C89.0518 5.672 88.4758 5.432 87.7718 5.432C87.0678 5.432 86.4918 5.672 86.0438 6.152C85.5958 6.6 85.3718 7.176 85.3718 7.88V27.944ZM98.3351 7.88C98.3351 6.728 98.5271 5.704 98.9111 4.808C99.3271 3.912 99.8711 3.144 100.543 2.504C101.215 1.864 101.983 1.384 102.847 1.064C103.743 0.711998 104.671 0.535997 105.631 0.535997C106.591 0.535997 107.503 0.711998 108.367 1.064C109.263 1.384 110.047 1.864 110.719 2.504C111.391 3.144 111.919 3.912 112.303 4.808C112.719 5.704 112.927 6.728 112.927 7.88V27.944C112.927 29.096 112.719 30.12 112.303 31.016C111.919 31.912 111.391 32.68 110.719 33.32C110.047 33.96 109.263 34.456 108.367 34.808C107.503 35.128 106.591 35.288 105.631 35.288C104.671 35.288 103.743 35.128 102.847 34.808C101.983 34.456 101.215 33.96 100.543 33.32C99.8711 32.68 99.3271 31.912 98.9111 31.016C98.5271 30.12 98.3351 29.096 98.3351 27.944V7.88ZM103.231 27.944C103.231 28.648 103.455 29.24 103.903 29.72C104.351 30.168 104.927 30.392 105.631 30.392C106.335 30.392 106.911 30.168 107.359 29.72C107.807 29.24 108.031 28.648 108.031 27.944V7.88C108.031 7.176 107.807 6.6 107.359 6.152C106.911 5.672 106.335 5.432 105.631 5.432C104.927 5.432 104.351 5.672 103.903 6.152C103.455 6.6 103.231 7.176 103.231 7.88V27.944ZM125.101 7.88C125.101 6.728 125.293 5.704 125.677 4.808C126.093 3.912 126.637 3.144 127.309 2.504C127.981 1.864 128.749 1.384 129.613 1.064C130.509 0.711998 131.437 0.535997 132.397 0.535997C133.357 0.535997 134.269 0.711998 135.133 1.064C136.029 1.384 136.813 1.864 137.485 2.504C138.157 3.144 138.685 3.912 139.069 4.808C139.485 5.704 139.693 6.728 139.693 7.88V27.944C139.693 29.096 139.485 30.12 139.069 31.016C138.685 31.912 138.157 32.68 137.485 33.32C136.813 33.96 136.029 34.456 135.133 34.808C134.269 35.128 133.357 35.288 132.397 35.288C131.437 35.288 130.509 35.128 129.613 34.808C128.749 34.456 127.981 33.96 127.309 33.32C126.637 32.68 126.093 31.912 125.677 31.016C125.293 30.12 125.101 29.096 125.101 27.944V7.88ZM129.997 27.944C129.997 28.648 130.221 29.24 130.669 29.72C131.117 30.168 131.693 30.392 132.397 30.392C133.101 30.392 133.677 30.168 134.125 29.72C134.573 29.24 134.797 28.648 134.797 27.944V7.88C134.797 7.176 134.573 6.6 134.125 6.152C133.677 5.672 133.101 5.432 132.397 5.432C131.693 5.432 131.117 5.672 130.669 6.152C130.221 6.6 129.997 7.176 129.997 7.88V27.944ZM142.96 7.88C142.96 6.728 143.152 5.704 143.536 4.808C143.952 3.912 144.496 3.144 145.168 2.504C145.84 1.864 146.608 1.384 147.472 1.064C148.368 0.711998 149.296 0.535997 150.256 0.535997C151.216 0.535997 152.128 0.711998 152.992 1.064C153.888 1.384 154.672 1.864 155.344 2.504C156.016 3.144 156.544 3.912 156.928 4.808C157.344 5.704 157.552 6.728 157.552 7.88V27.944C157.552 29.096 157.344 30.12 156.928 31.016C156.544 31.912 156.016 32.68 155.344 33.32C154.672 33.96 153.888 34.456 152.992 34.808C152.128 35.128 151.216 35.288 150.256 35.288C149.296 35.288 148.368 35.128 147.472 34.808C146.608 34.456 145.84 33.96 145.168 33.32C144.496 32.68 143.952 31.912 143.536 31.016C143.152 30.12 142.96 29.096 142.96 27.944V7.88ZM147.856 27.944C147.856 28.648 148.08 29.24 148.528 29.72C148.976 30.168 149.552 30.392 150.256 30.392C150.96 30.392 151.536 30.168 151.984 29.72C152.432 29.24 152.656 28.648 152.656 27.944V7.88C152.656 7.176 152.432 6.6 151.984 6.152C151.536 5.672 150.96 5.432 150.256 5.432C149.552 5.432 148.976 5.672 148.528 6.152C148.08 6.6 147.856 7.176 147.856 7.88V27.944ZM160.82 7.88C160.82 6.728 161.012 5.704 161.396 4.808C161.812 3.912 162.356 3.144 163.028 2.504C163.7 1.864 164.468 1.384 165.332 1.064C166.228 0.711998 167.156 0.535997 168.116 0.535997C169.076 0.535997 169.988 0.711998 170.852 1.064C171.748 1.384 172.532 1.864 173.204 2.504C173.876 3.144 174.404 3.912 174.788 4.808C175.204 5.704 175.412 6.728 175.412 7.88V27.944C175.412 29.096 175.204 30.12 174.788 31.016C174.404 31.912 173.876 32.68 173.204 33.32C172.532 33.96 171.748 34.456 170.852 34.808C169.988 35.128 169.076 35.288 168.116 35.288C167.156 35.288 166.228 35.128 165.332 34.808C164.468 34.456 163.7 33.96 163.028 33.32C162.356 32.68 161.812 31.912 161.396 31.016C161.012 30.12 160.82 29.096 160.82 27.944V7.88ZM165.716 27.944C165.716 28.648 165.94 29.24 166.388 29.72C166.836 30.168 167.412 30.392 168.116 30.392C168.82 30.392 169.396 30.168 169.844 29.72C170.292 29.24 170.516 28.648 170.516 27.944V7.88C170.516 7.176 170.292 6.6 169.844 6.152C169.396 5.672 168.82 5.432 168.116 5.432C167.412 5.432 166.836 5.672 166.388 6.152C165.94 6.6 165.716 7.176 165.716 7.88V27.944ZM187.585 7.88C187.585 6.728 187.777 5.704 188.161 4.808C188.577 3.912 189.121 3.144 189.793 2.504C190.465 1.864 191.233 1.384 192.097 1.064C192.993 0.711998 193.921 0.535997 194.881 0.535997C195.841 0.535997 196.753 0.711998 197.617 1.064C198.513 1.384 199.297 1.864 199.969 2.504C200.641 3.144 201.169 3.912 201.553 4.808C201.969 5.704 202.177 6.728 202.177 7.88V27.944C202.177 29.096 201.969 30.12 201.553 31.016C201.169 31.912 200.641 32.68 199.969 33.32C199.297 33.96 198.513 34.456 197.617 34.808C196.753 35.128 195.841 35.288 194.881 35.288C193.921 35.288 192.993 35.128 192.097 34.808C191.233 34.456 190.465 33.96 189.793 33.32C189.121 32.68 188.577 31.912 188.161 31.016C187.777 30.12 187.585 29.096 187.585 27.944V7.88ZM192.481 27.944C192.481 28.648 192.705 29.24 193.153 29.72C193.601 30.168 194.177 30.392 194.881 30.392C195.585 30.392 196.161 30.168 196.609 29.72C197.057 29.24 197.281 28.648 197.281 27.944V7.88C197.281 7.176 197.057 6.6 196.609 6.152C196.161 5.672 195.585 5.432 194.881 5.432C194.177 5.432 193.601 5.672 193.153 6.152C192.705 6.6 192.481 7.176 192.481 7.88V27.944ZM205.445 7.88C205.445 6.728 205.637 5.704 206.021 4.808C206.437 3.912 206.981 3.144 207.653 2.504C208.325 1.864 209.093 1.384 209.957 1.064C210.853 0.711998 211.781 0.535997 212.741 0.535997C213.701 0.535997 214.613 0.711998 215.477 1.064C216.373 1.384 217.157 1.864 217.829 2.504C218.501 3.144 219.029 3.912 219.413 4.808C219.829 5.704 220.037 6.728 220.037 7.88V27.944C220.037 29.096 219.829 30.12 219.413 31.016C219.029 31.912 218.501 32.68 217.829 33.32C217.157 33.96 216.373 34.456 215.477 34.808C214.613 35.128 213.701 35.288 212.741 35.288C211.781 35.288 210.853 35.128 209.957 34.808C209.093 34.456 208.325 33.96 207.653 33.32C206.981 32.68 206.437 31.912 206.021 31.016C205.637 30.12 205.445 29.096 205.445 27.944V7.88ZM210.341 27.944C210.341 28.648 210.565 29.24 211.013 29.72C211.461 30.168 212.037 30.392 212.741 30.392C213.445 30.392 214.021 30.168 214.469 29.72C214.917 29.24 215.141 28.648 215.141 27.944V7.88C215.141 7.176 214.917 6.6 214.469 6.152C214.021 5.672 213.445 5.432 212.741 5.432C212.037 5.432 211.461 5.672 211.013 6.152C210.565 6.6 210.341 7.176 210.341 7.88V27.944ZM223.304 7.88C223.304 6.728 223.496 5.704 223.88 4.808C224.296 3.912 224.84 3.144 225.512 2.504C226.184 1.864 226.952 1.384 227.816 1.064C228.712 0.711998 229.64 0.535997 230.6 0.535997C231.56 0.535997 232.472 0.711998 233.336 1.064C234.232 1.384 235.016 1.864 235.688 2.504C236.36 3.144 236.888 3.912 237.272 4.808C237.688 5.704 237.896 6.728 237.896 7.88V27.944C237.896 29.096 237.688 30.12 237.272 31.016C236.888 31.912 236.36 32.68 235.688 33.32C235.016 33.96 234.232 34.456 233.336 34.808C232.472 35.128 231.56 35.288 230.6 35.288C229.64 35.288 228.712 35.128 227.816 34.808C226.952 34.456 226.184 33.96 225.512 33.32C224.84 32.68 224.296 31.912 223.88 31.016C223.496 30.12 223.304 29.096 223.304 27.944V7.88ZM228.2 27.944C228.2 28.648 228.424 29.24 228.872 29.72C229.32 30.168 229.896 30.392 230.6 30.392C231.304 30.392 231.88 30.168 232.328 29.72C232.776 29.24 233 28.648 233 27.944V7.88C233 7.176 232.776 6.6 232.328 6.152C231.88 5.672 231.304 5.432 230.6 5.432C229.896 5.432 229.32 5.672 228.872 6.152C228.424 6.6 228.2 7.176 228.2 7.88V27.944Z" fill="white"/>
</svg>
