<svg width="115" height="36" viewBox="0 0 115 36" fill="none" xmlns="http://www.w3.org/2000/svg">
<path opacity="0.9" d="M10.676 35V29.912H0.932V25.304L7.988 0.823999H13.172L5.828 25.304H10.676V15.56H15.572V25.304H17.924V29.912H15.572V35H10.676ZM29.6874 7.832C29.6874 7.16 29.4474 6.6 28.9674 6.152C28.4874 5.672 27.9274 5.432 27.2874 5.432C26.6474 5.432 26.0874 5.672 25.6074 6.152C25.1274 6.6 24.8874 7.16 24.8874 7.832V12.824C24.8874 13.496 25.1274 14.072 25.6074 14.552C26.0874 15 26.6474 15.224 27.2874 15.224C27.9274 15.224 28.4874 15 28.9674 14.552C29.4474 14.072 29.6874 13.496 29.6874 12.824V7.832ZM19.9914 9.752C19.9914 8.824 20.0234 8.04 20.0874 7.4C20.1514 6.728 20.2634 6.152 20.4234 5.672C20.5834 5.192 20.7594 4.76 20.9514 4.376C21.1754 3.992 21.4474 3.592 21.7674 3.176C22.4074 2.344 23.2074 1.704 24.1674 1.256C25.1274 0.775998 26.1674 0.535997 27.2874 0.535997C28.4074 0.535997 29.4474 0.775998 30.4074 1.256C31.3674 1.704 32.1674 2.344 32.8074 3.176C33.1274 3.592 33.3994 3.992 33.6234 4.376C33.8474 4.76 34.0394 5.192 34.1994 5.672C34.3594 6.152 34.4554 6.728 34.4874 7.4C34.5514 8.04 34.5834 8.824 34.5834 9.752C34.5834 10.776 34.5674 11.64 34.5354 12.344C34.5034 13.048 34.4074 13.672 34.2474 14.216C34.0874 14.76 33.8314 15.256 33.4794 15.704C33.1594 16.12 32.7114 16.568 32.1354 17.048C32.7114 17.496 33.1594 17.944 33.4794 18.392C33.8314 18.84 34.0874 19.368 34.2474 19.976C34.4074 20.584 34.5034 21.336 34.5354 22.232C34.5674 23.096 34.5834 24.168 34.5834 25.448C34.5834 26.504 34.5514 27.384 34.4874 28.088C34.4554 28.76 34.3914 29.352 34.2954 29.864C34.1994 30.376 34.0554 30.808 33.8634 31.16C33.7034 31.512 33.4954 31.88 33.2394 32.264C32.6954 33.096 31.9274 33.816 30.9354 34.424C29.9434 35 28.7274 35.288 27.2874 35.288C25.8474 35.288 24.6314 35 23.6394 34.424C22.6474 33.816 21.8794 33.096 21.3354 32.264C21.0794 31.88 20.8554 31.512 20.6634 31.16C20.5034 30.808 20.3754 30.376 20.2794 29.864C20.1834 29.352 20.1034 28.76 20.0394 28.088C20.0074 27.384 19.9914 26.504 19.9914 25.448C19.9914 24.168 20.0074 23.096 20.0394 22.232C20.0714 21.336 20.1674 20.584 20.3274 19.976C20.4874 19.368 20.7274 18.84 21.0474 18.392C21.3994 17.944 21.8634 17.496 22.4394 17.048C21.8634 16.568 21.3994 16.12 21.0474 15.704C20.7274 15.256 20.4874 14.76 20.3274 14.216C20.1674 13.672 20.0714 13.048 20.0394 12.344C20.0074 11.64 19.9914 10.776 19.9914 9.752ZM29.6874 21.272C29.6874 20.6 29.4474 20.04 28.9674 19.592C28.4874 19.112 27.9274 18.872 27.2874 18.872C26.6474 18.872 26.0874 19.112 25.6074 19.592C25.1274 20.04 24.8874 20.6 24.8874 21.272V27.992C24.8874 28.664 25.1274 29.24 25.6074 29.72C26.0874 30.168 26.6474 30.392 27.2874 30.392C27.9274 30.392 28.4874 30.168 28.9674 29.72C29.4474 29.24 29.6874 28.664 29.6874 27.992V21.272ZM46.3948 35V29.912H36.6508V25.304L43.7068 0.823999H48.8907L41.5468 25.304H46.3948V15.56H51.2908V25.304H53.6428V29.912H51.2908V35H46.3948ZM77.4324 0.823999L71.8644 15.176L71.9604 15.272C72.1204 15.144 72.3604 15.048 72.6804 14.984C73.0324 14.888 73.4804 14.84 74.0244 14.84C74.8884 14.84 75.6884 15.048 76.4244 15.464C77.1604 15.88 77.7364 16.408 78.1524 17.048C78.3764 17.4 78.5524 17.752 78.6804 18.104C78.8084 18.456 78.9204 18.92 79.0164 19.496C79.0804 20.072 79.1284 20.808 79.1604 21.704C79.1924 22.568 79.2084 23.672 79.2084 25.016C79.2084 26.136 79.1924 27.064 79.1604 27.8C79.1284 28.504 79.0804 29.096 79.0164 29.576C78.9204 30.088 78.7924 30.52 78.6324 30.872C78.5044 31.224 78.3284 31.592 78.1044 31.976C77.4644 33.032 76.6004 33.848 75.5124 34.424C74.4564 35 73.2564 35.288 71.9124 35.288C70.5684 35.288 69.3684 35 68.3124 34.424C67.2564 33.816 66.4084 33 65.7684 31.976C65.5124 31.592 65.3044 31.224 65.1444 30.872C65.0164 30.52 64.9204 30.088 64.8564 29.576C64.7604 29.096 64.6964 28.504 64.6644 27.8C64.6324 27.064 64.6164 26.136 64.6164 25.016C64.6164 23.96 64.6324 23.096 64.6644 22.424C64.6964 21.72 64.7444 21.112 64.8084 20.6C64.8724 20.12 64.9684 19.688 65.0964 19.304C65.2244 18.888 65.3684 18.456 65.5284 18.008L71.9604 0.823999H77.4324ZM74.3124 21.608C74.3124 20.872 74.0724 20.28 73.5924 19.832C73.1124 19.384 72.5524 19.16 71.9124 19.16C71.2724 19.16 70.7124 19.384 70.2324 19.832C69.7524 20.28 69.5124 20.872 69.5124 21.608V27.944C69.5124 28.68 69.7524 29.272 70.2324 29.72C70.7124 30.168 71.2724 30.392 71.9124 30.392C72.5524 30.392 73.1124 30.168 73.5924 29.72C74.0724 29.272 74.3124 28.68 74.3124 27.944V21.608ZM82.4758 7.88C82.4758 6.728 82.6678 5.704 83.0518 4.808C83.4678 3.912 84.0118 3.144 84.6838 2.504C85.3558 1.864 86.1238 1.384 86.9878 1.064C87.8838 0.711998 88.8118 0.535997 89.7718 0.535997C90.7318 0.535997 91.6438 0.711998 92.5078 1.064C93.4038 1.384 94.1878 1.864 94.8598 2.504C95.5318 3.144 96.0598 3.912 96.4438 4.808C96.8598 5.704 97.0678 6.728 97.0678 7.88V27.944C97.0678 29.096 96.8598 30.12 96.4438 31.016C96.0598 31.912 95.5318 32.68 94.8598 33.32C94.1878 33.96 93.4038 34.456 92.5078 34.808C91.6438 35.128 90.7318 35.288 89.7718 35.288C88.8118 35.288 87.8838 35.128 86.9878 34.808C86.1238 34.456 85.3558 33.96 84.6838 33.32C84.0118 32.68 83.4678 31.912 83.0518 31.016C82.6678 30.12 82.4758 29.096 82.4758 27.944V7.88ZM87.3718 27.944C87.3718 28.648 87.5958 29.24 88.0438 29.72C88.4918 30.168 89.0678 30.392 89.7718 30.392C90.4758 30.392 91.0518 30.168 91.4998 29.72C91.9478 29.24 92.1718 28.648 92.1718 27.944V7.88C92.1718 7.176 91.9478 6.6 91.4998 6.152C91.0518 5.672 90.4758 5.432 89.7718 5.432C89.0678 5.432 88.4918 5.672 88.0438 6.152C87.5958 6.6 87.3718 7.176 87.3718 7.88V27.944ZM100.335 7.88C100.335 6.728 100.527 5.704 100.911 4.808C101.327 3.912 101.871 3.144 102.543 2.504C103.215 1.864 103.983 1.384 104.847 1.064C105.743 0.711998 106.671 0.535997 107.631 0.535997C108.591 0.535997 109.503 0.711998 110.367 1.064C111.263 1.384 112.047 1.864 112.719 2.504C113.391 3.144 113.919 3.912 114.303 4.808C114.719 5.704 114.927 6.728 114.927 7.88V27.944C114.927 29.096 114.719 30.12 114.303 31.016C113.919 31.912 113.391 32.68 112.719 33.32C112.047 33.96 111.263 34.456 110.367 34.808C109.503 35.128 108.591 35.288 107.631 35.288C106.671 35.288 105.743 35.128 104.847 34.808C103.983 34.456 103.215 33.96 102.543 33.32C101.871 32.68 101.327 31.912 100.911 31.016C100.527 30.12 100.335 29.096 100.335 27.944V7.88ZM105.231 27.944C105.231 28.648 105.455 29.24 105.903 29.72C106.351 30.168 106.927 30.392 107.631 30.392C108.335 30.392 108.911 30.168 109.359 29.72C109.807 29.24 110.031 28.648 110.031 27.944V7.88C110.031 7.176 109.807 6.6 109.359 6.152C108.911 5.672 108.335 5.432 107.631 5.432C106.927 5.432 106.351 5.672 105.903 6.152C105.455 6.6 105.231 7.176 105.231 7.88V27.944Z" fill="white"/>
</svg>
