<svg width="265" height="36" viewBox="0 0 265 36" fill="none" xmlns="http://www.w3.org/2000/svg">
<path opacity="0.9" d="M5.44 35V6.008L0.544 9.608V4.424L5.44 0.823999H10.336V35H5.44ZM32.2056 15.224C33.6776 15.224 34.6856 15.048 35.2296 14.696C35.8056 14.344 36.0936 13.528 36.0936 12.248V7.832C36.0936 7.128 35.8696 6.552 35.4216 6.104C35.0056 5.656 34.4296 5.432 33.6936 5.432C32.8296 5.432 32.2056 5.704 31.8216 6.248C31.4696 6.792 31.2936 7.32 31.2936 7.832V10.616H26.3976V7.784C26.3976 6.792 26.5896 5.848 26.9736 4.952C27.3576 4.056 27.8856 3.288 28.5576 2.648C29.2296 2.008 30.0136 1.496 30.9096 1.112C31.8056 0.727998 32.7656 0.535997 33.7896 0.535997C35.1336 0.535997 36.2376 0.807998 37.1016 1.352C37.9976 1.864 38.6696 2.392 39.1176 2.936C39.4376 3.32 39.7096 3.704 39.9336 4.088C40.1896 4.472 40.3976 4.936 40.5576 5.48C40.8456 6.536 40.9896 8.104 40.9896 10.184C40.9896 11.368 40.9576 12.328 40.8936 13.064C40.8616 13.8 40.7496 14.408 40.5576 14.888C40.3336 15.4 40.0136 15.832 39.5976 16.184C39.2136 16.536 38.6696 16.92 37.9656 17.336C38.7336 17.816 39.3096 18.264 39.6936 18.68C40.1096 19.096 40.4136 19.576 40.6056 20.12C40.7976 20.696 40.9096 21.384 40.9416 22.184C40.9736 22.952 40.9896 23.944 40.9896 25.16C40.9896 26.28 40.9576 27.208 40.8936 27.944C40.8616 28.68 40.7976 29.288 40.7016 29.768C40.6056 30.28 40.4776 30.712 40.3176 31.064C40.1576 31.416 39.9496 31.784 39.6936 32.168C39.0856 33.064 38.3016 33.816 37.3416 34.424C36.4136 35 35.1816 35.288 33.6456 35.288C32.8776 35.288 32.0616 35.16 31.1976 34.904C30.3336 34.648 29.5496 34.232 28.8456 33.656C28.1416 33.08 27.5496 32.328 27.0696 31.4C26.6216 30.472 26.3976 29.336 26.3976 27.992V25.208H31.2936V27.752C31.2936 28.52 31.5016 29.16 31.9176 29.672C32.3656 30.152 32.9576 30.392 33.6936 30.392C34.4296 30.392 35.0056 30.152 35.4216 29.672C35.8696 29.16 36.0936 28.488 36.0936 27.656V22.76C36.0936 21.416 35.8376 20.536 35.3256 20.12C35.0376 19.864 34.6376 19.704 34.1256 19.64C33.6456 19.576 33.0056 19.544 32.2056 19.544V15.224ZM45.361 35L53.953 5.432H48.577V9.368H44.257V0.823999H58.849V5.72L50.545 35H45.361ZM62.1164 35V30.392L70.9484 13.736C71.3964 12.904 71.6524 12.184 71.7164 11.576C71.7804 10.936 71.8124 10.152 71.8124 9.224C71.8124 8.808 71.7964 8.376 71.7644 7.928C71.7644 7.448 71.6844 7.032 71.5244 6.68C71.3644 6.328 71.1244 6.04 70.8044 5.816C70.4844 5.56 70.0204 5.432 69.4124 5.432C68.6764 5.432 68.0844 5.64 67.6364 6.056C67.2204 6.472 67.0124 7.08 67.0124 7.88V10.664H62.1164V7.976C62.1164 6.952 62.3084 5.992 62.6924 5.096C63.0764 4.2 63.6044 3.416 64.2764 2.744C64.9164 2.072 65.6844 1.544 66.5804 1.16C67.4764 0.743998 68.4364 0.535997 69.4604 0.535997C70.7404 0.535997 71.8284 0.775998 72.7244 1.256C73.6524 1.704 74.4204 2.328 75.0284 3.128C75.6044 3.928 76.0204 4.84 76.2764 5.864C76.5644 6.888 76.7084 7.976 76.7084 9.128C76.7084 9.96 76.6924 10.664 76.6604 11.24C76.6284 11.784 76.5644 12.312 76.4684 12.824C76.3724 13.336 76.2124 13.848 75.9884 14.36C75.7644 14.872 75.4604 15.496 75.0764 16.232L67.8764 30.104H76.7084V35H62.1164ZM89.986 35L98.578 5.432H93.202V9.368H88.882V0.823999H103.474V5.72L95.17 35H89.986ZM106.741 7.88C106.741 6.728 106.933 5.704 107.317 4.808C107.733 3.912 108.277 3.144 108.949 2.504C109.621 1.864 110.389 1.384 111.253 1.064C112.149 0.711998 113.077 0.535997 114.037 0.535997C114.997 0.535997 115.909 0.711998 116.773 1.064C117.669 1.384 118.453 1.864 119.125 2.504C119.797 3.144 120.325 3.912 120.709 4.808C121.125 5.704 121.333 6.728 121.333 7.88V27.944C121.333 29.096 121.125 30.12 120.709 31.016C120.325 31.912 119.797 32.68 119.125 33.32C118.453 33.96 117.669 34.456 116.773 34.808C115.909 35.128 114.997 35.288 114.037 35.288C113.077 35.288 112.149 35.128 111.253 34.808C110.389 34.456 109.621 33.96 108.949 33.32C108.277 32.68 107.733 31.912 107.317 31.016C106.933 30.12 106.741 29.096 106.741 27.944V7.88ZM111.637 27.944C111.637 28.648 111.861 29.24 112.309 29.72C112.757 30.168 113.333 30.392 114.037 30.392C114.741 30.392 115.317 30.168 115.765 29.72C116.213 29.24 116.437 28.648 116.437 27.944V7.88C116.437 7.176 116.213 6.6 115.765 6.152C115.317 5.672 114.741 5.432 114.037 5.432C113.333 5.432 112.757 5.672 112.309 6.152C111.861 6.6 111.637 7.176 111.637 7.88V27.944ZM124.601 7.88C124.601 6.728 124.793 5.704 125.177 4.808C125.593 3.912 126.137 3.144 126.809 2.504C127.481 1.864 128.249 1.384 129.113 1.064C130.009 0.711998 130.937 0.535997 131.897 0.535997C132.857 0.535997 133.769 0.711998 134.633 1.064C135.529 1.384 136.313 1.864 136.985 2.504C137.657 3.144 138.185 3.912 138.569 4.808C138.985 5.704 139.193 6.728 139.193 7.88V27.944C139.193 29.096 138.985 30.12 138.569 31.016C138.185 31.912 137.657 32.68 136.985 33.32C136.313 33.96 135.529 34.456 134.633 34.808C133.769 35.128 132.857 35.288 131.897 35.288C130.937 35.288 130.009 35.128 129.113 34.808C128.249 34.456 127.481 33.96 126.809 33.32C126.137 32.68 125.593 31.912 125.177 31.016C124.793 30.12 124.601 29.096 124.601 27.944V7.88ZM129.497 27.944C129.497 28.648 129.721 29.24 130.169 29.72C130.617 30.168 131.193 30.392 131.897 30.392C132.601 30.392 133.177 30.168 133.625 29.72C134.073 29.24 134.297 28.648 134.297 27.944V7.88C134.297 7.176 134.073 6.6 133.625 6.152C133.177 5.672 132.601 5.432 131.897 5.432C131.193 5.432 130.617 5.672 130.169 6.152C129.721 6.6 129.497 7.176 129.497 7.88V27.944ZM151.366 7.88C151.366 6.728 151.558 5.704 151.942 4.808C152.358 3.912 152.902 3.144 153.574 2.504C154.246 1.864 155.014 1.384 155.878 1.064C156.774 0.711998 157.702 0.535997 158.662 0.535997C159.622 0.535997 160.534 0.711998 161.398 1.064C162.294 1.384 163.078 1.864 163.75 2.504C164.422 3.144 164.95 3.912 165.334 4.808C165.75 5.704 165.958 6.728 165.958 7.88V27.944C165.958 29.096 165.75 30.12 165.334 31.016C164.95 31.912 164.422 32.68 163.75 33.32C163.078 33.96 162.294 34.456 161.398 34.808C160.534 35.128 159.622 35.288 158.662 35.288C157.702 35.288 156.774 35.128 155.878 34.808C155.014 34.456 154.246 33.96 153.574 33.32C152.902 32.68 152.358 31.912 151.942 31.016C151.558 30.12 151.366 29.096 151.366 27.944V7.88ZM156.262 27.944C156.262 28.648 156.486 29.24 156.934 29.72C157.382 30.168 157.958 30.392 158.662 30.392C159.366 30.392 159.942 30.168 160.39 29.72C160.838 29.24 161.062 28.648 161.062 27.944V7.88C161.062 7.176 160.838 6.6 160.39 6.152C159.942 5.672 159.366 5.432 158.662 5.432C157.958 5.432 157.382 5.672 156.934 6.152C156.486 6.6 156.262 7.176 156.262 7.88V27.944ZM169.226 7.88C169.226 6.728 169.418 5.704 169.802 4.808C170.218 3.912 170.762 3.144 171.434 2.504C172.106 1.864 172.874 1.384 173.738 1.064C174.634 0.711998 175.562 0.535997 176.522 0.535997C177.482 0.535997 178.394 0.711998 179.258 1.064C180.154 1.384 180.938 1.864 181.61 2.504C182.282 3.144 182.81 3.912 183.194 4.808C183.61 5.704 183.818 6.728 183.818 7.88V27.944C183.818 29.096 183.61 30.12 183.194 31.016C182.81 31.912 182.282 32.68 181.61 33.32C180.938 33.96 180.154 34.456 179.258 34.808C178.394 35.128 177.482 35.288 176.522 35.288C175.562 35.288 174.634 35.128 173.738 34.808C172.874 34.456 172.106 33.96 171.434 33.32C170.762 32.68 170.218 31.912 169.802 31.016C169.418 30.12 169.226 29.096 169.226 27.944V7.88ZM174.122 27.944C174.122 28.648 174.346 29.24 174.794 29.72C175.242 30.168 175.818 30.392 176.522 30.392C177.226 30.392 177.802 30.168 178.25 29.72C178.698 29.24 178.922 28.648 178.922 27.944V7.88C178.922 7.176 178.698 6.6 178.25 6.152C177.802 5.672 177.226 5.432 176.522 5.432C175.818 5.432 175.242 5.672 174.794 6.152C174.346 6.6 174.122 7.176 174.122 7.88V27.944ZM187.085 7.88C187.085 6.728 187.277 5.704 187.661 4.808C188.077 3.912 188.621 3.144 189.293 2.504C189.965 1.864 190.733 1.384 191.597 1.064C192.493 0.711998 193.421 0.535997 194.381 0.535997C195.341 0.535997 196.253 0.711998 197.117 1.064C198.013 1.384 198.797 1.864 199.469 2.504C200.141 3.144 200.669 3.912 201.053 4.808C201.469 5.704 201.677 6.728 201.677 7.88V27.944C201.677 29.096 201.469 30.12 201.053 31.016C200.669 31.912 200.141 32.68 199.469 33.32C198.797 33.96 198.013 34.456 197.117 34.808C196.253 35.128 195.341 35.288 194.381 35.288C193.421 35.288 192.493 35.128 191.597 34.808C190.733 34.456 189.965 33.96 189.293 33.32C188.621 32.68 188.077 31.912 187.661 31.016C187.277 30.12 187.085 29.096 187.085 27.944V7.88ZM191.981 27.944C191.981 28.648 192.205 29.24 192.653 29.72C193.101 30.168 193.677 30.392 194.381 30.392C195.085 30.392 195.661 30.168 196.109 29.72C196.557 29.24 196.781 28.648 196.781 27.944V7.88C196.781 7.176 196.557 6.6 196.109 6.152C195.661 5.672 195.085 5.432 194.381 5.432C193.677 5.432 193.101 5.672 192.653 6.152C192.205 6.6 191.981 7.176 191.981 7.88V27.944ZM213.851 7.88C213.851 6.728 214.043 5.704 214.427 4.808C214.843 3.912 215.387 3.144 216.059 2.504C216.731 1.864 217.499 1.384 218.363 1.064C219.259 0.711998 220.187 0.535997 221.147 0.535997C222.107 0.535997 223.019 0.711998 223.883 1.064C224.779 1.384 225.563 1.864 226.235 2.504C226.907 3.144 227.435 3.912 227.819 4.808C228.235 5.704 228.443 6.728 228.443 7.88V27.944C228.443 29.096 228.235 30.12 227.819 31.016C227.435 31.912 226.907 32.68 226.235 33.32C225.563 33.96 224.779 34.456 223.883 34.808C223.019 35.128 222.107 35.288 221.147 35.288C220.187 35.288 219.259 35.128 218.363 34.808C217.499 34.456 216.731 33.96 216.059 33.32C215.387 32.68 214.843 31.912 214.427 31.016C214.043 30.12 213.851 29.096 213.851 27.944V7.88ZM218.747 27.944C218.747 28.648 218.971 29.24 219.419 29.72C219.867 30.168 220.443 30.392 221.147 30.392C221.851 30.392 222.427 30.168 222.875 29.72C223.323 29.24 223.547 28.648 223.547 27.944V7.88C223.547 7.176 223.323 6.6 222.875 6.152C222.427 5.672 221.851 5.432 221.147 5.432C220.443 5.432 219.867 5.672 219.419 6.152C218.971 6.6 218.747 7.176 218.747 7.88V27.944ZM231.71 7.88C231.71 6.728 231.902 5.704 232.286 4.808C232.702 3.912 233.246 3.144 233.918 2.504C234.59 1.864 235.358 1.384 236.222 1.064C237.118 0.711998 238.046 0.535997 239.006 0.535997C239.966 0.535997 240.878 0.711998 241.742 1.064C242.638 1.384 243.422 1.864 244.094 2.504C244.766 3.144 245.294 3.912 245.678 4.808C246.094 5.704 246.302 6.728 246.302 7.88V27.944C246.302 29.096 246.094 30.12 245.678 31.016C245.294 31.912 244.766 32.68 244.094 33.32C243.422 33.96 242.638 34.456 241.742 34.808C240.878 35.128 239.966 35.288 239.006 35.288C238.046 35.288 237.118 35.128 236.222 34.808C235.358 34.456 234.59 33.96 233.918 33.32C233.246 32.68 232.702 31.912 232.286 31.016C231.902 30.12 231.71 29.096 231.71 27.944V7.88ZM236.606 27.944C236.606 28.648 236.83 29.24 237.278 29.72C237.726 30.168 238.302 30.392 239.006 30.392C239.71 30.392 240.286 30.168 240.734 29.72C241.182 29.24 241.406 28.648 241.406 27.944V7.88C241.406 7.176 241.182 6.6 240.734 6.152C240.286 5.672 239.71 5.432 239.006 5.432C238.302 5.432 237.726 5.672 237.278 6.152C236.83 6.6 236.606 7.176 236.606 7.88V27.944ZM249.57 7.88C249.57 6.728 249.762 5.704 250.146 4.808C250.562 3.912 251.106 3.144 251.778 2.504C252.45 1.864 253.218 1.384 254.082 1.064C254.978 0.711998 255.906 0.535997 256.866 0.535997C257.826 0.535997 258.738 0.711998 259.602 1.064C260.498 1.384 261.282 1.864 261.954 2.504C262.626 3.144 263.154 3.912 263.538 4.808C263.954 5.704 264.162 6.728 264.162 7.88V27.944C264.162 29.096 263.954 30.12 263.538 31.016C263.154 31.912 262.626 32.68 261.954 33.32C261.282 33.96 260.498 34.456 259.602 34.808C258.738 35.128 257.826 35.288 256.866 35.288C255.906 35.288 254.978 35.128 254.082 34.808C253.218 34.456 252.45 33.96 251.778 33.32C251.106 32.68 250.562 31.912 250.146 31.016C249.762 30.12 249.57 29.096 249.57 27.944V7.88ZM254.466 27.944C254.466 28.648 254.69 29.24 255.138 29.72C255.586 30.168 256.162 30.392 256.866 30.392C257.57 30.392 258.146 30.168 258.594 29.72C259.042 29.24 259.266 28.648 259.266 27.944V7.88C259.266 7.176 259.042 6.6 258.594 6.152C258.146 5.672 257.57 5.432 256.866 5.432C256.162 5.432 255.586 5.672 255.138 6.152C254.69 6.6 254.466 7.176 254.466 7.88V27.944Z" fill="white"/>
</svg>
