<svg width="284" height="272" viewBox="0 0 284 272" fill="none" xmlns="http://www.w3.org/2000/svg">
<path d="M2.22461 217.373C1.80935 217.373 1.40892 217.301 1.02332 217.159C0.637722 217.016 0.360881 216.853 0.1928 216.67L0.815691 215.203C1.24084 215.59 1.67093 215.784 2.10597 215.784C2.49156 215.784 2.79312 215.692 3.01064 215.509C3.23805 215.315 3.47534 214.974 3.72252 214.485L0 207H1.97249L4.70135 212.942L7.4302 207H9.40269L5.27974 215.28C4.93369 215.972 4.53326 216.497 4.07845 216.853C3.62364 217.199 3.0057 217.373 2.22461 217.373Z" fill="white"/>
<path d="M12.351 217.373C10.947 217.373 9.84954 216.975 9.05857 216.181L9.78528 215.157C10.4378 215.758 11.2931 216.059 12.351 216.059C12.8948 216.059 13.3199 215.972 13.6264 215.799C13.9428 215.616 14.101 215.371 14.101 215.066C14.101 214.424 13.4732 214.103 12.2175 214.103H10.69V212.82H12.2175C12.7613 212.82 13.1865 212.739 13.493 212.576C13.8094 212.413 13.9675 212.174 13.9675 211.858C13.9675 211.593 13.8044 211.374 13.4781 211.201C13.1519 211.028 12.7415 210.941 12.2472 210.941C11.2881 210.941 10.5219 211.237 9.94842 211.827L9.17722 210.85C9.93853 210.045 10.9371 209.643 12.173 209.643C13.231 209.633 14.0615 209.811 14.6646 210.177C15.2776 210.534 15.5841 211.023 15.5841 211.644C15.5841 212.112 15.3913 212.51 15.0057 212.835C14.63 213.151 14.19 213.345 13.6858 213.416C14.19 213.457 14.6547 213.63 15.0799 213.935C15.5149 214.241 15.7324 214.658 15.7324 215.188C15.7324 215.83 15.4259 216.354 14.8129 216.761C14.2098 217.169 13.3891 217.373 12.351 217.373Z" fill="white"/>
<path d="M18.8589 217.189H17.3017V209.811H18.8589V212.713H22.1513V209.811H23.7086V217.189H22.1513V214.119H18.8589V217.189Z" fill="white"/>
<path d="M31.6632 217.189H30.1059V216.395C29.5523 217.047 28.7811 217.373 27.7923 217.373C27.1398 217.373 26.5614 217.159 26.0572 216.731C25.5529 216.293 25.3008 215.692 25.3008 214.928C25.3008 214.144 25.548 213.548 26.0423 213.141C26.5466 212.734 27.1299 212.53 27.7923 212.53C28.8107 212.53 29.5819 212.846 30.1059 213.477V212.377C30.1059 211.949 29.9527 211.613 29.6462 211.369C29.3397 211.125 28.9343 211.002 28.4301 211.002C27.6292 211.002 26.9223 211.313 26.3093 211.934L25.6716 210.819C26.4823 210.025 27.4858 209.627 28.6822 209.627C29.5621 209.627 30.279 209.841 30.8326 210.269C31.3863 210.697 31.6632 211.374 31.6632 212.301V217.189ZM28.4004 216.273C29.1815 216.273 29.75 216.018 30.1059 215.509V214.394C29.75 213.884 29.1815 213.63 28.4004 213.63C27.9555 213.63 27.5897 213.752 27.3029 213.996C27.0162 214.241 26.8728 214.562 26.8728 214.959C26.8728 215.356 27.0162 215.677 27.3029 215.921C27.5897 216.156 27.9555 216.273 28.4004 216.273Z" fill="white"/>
<path d="M35.18 217.189H33.6821V209.811H35.2393V214.776L38.5318 209.811H40.089V217.189H38.5318V212.087L35.18 217.189ZM39.4809 207.687C38.8383 208.584 37.9731 209.032 36.8856 209.032C35.8079 209.032 34.9378 208.584 34.2753 207.687L34.9872 207.076C35.4618 207.749 36.0946 208.085 36.8856 208.085C37.6765 208.085 38.3044 207.749 38.7691 207.076L39.4809 207.687Z" fill="white"/>
<path d="M44.9736 217.189H43.4164V211.216H41.3698V209.811H47.0351V211.216H44.9736V217.189Z" fill="white"/>
<path d="M51.6174 217.373C50.5298 217.373 49.63 217.016 48.9182 216.303C48.2162 215.58 47.8652 214.643 47.8652 213.492C47.8652 212.413 48.2063 211.501 48.8885 210.758C49.5806 210.004 50.4507 209.627 51.4987 209.627C52.5566 209.627 53.4069 210.004 54.0496 210.758C54.7022 211.512 55.0284 212.474 55.0284 213.645V214.027H49.4966C49.5559 214.608 49.7882 215.091 50.1936 215.478C50.599 215.865 51.1279 216.059 51.7805 216.059C52.1463 216.059 52.5121 215.987 52.878 215.845C53.2537 215.702 53.5651 215.504 53.8123 215.249L54.5242 216.303C53.8024 217.016 52.8335 217.373 51.6174 217.373ZM53.5157 212.897C53.4959 212.387 53.313 211.934 52.967 211.537C52.6308 211.14 52.1414 210.941 51.4987 210.941C50.8857 210.941 50.4062 211.14 50.0601 211.537C49.7141 211.924 49.5213 212.377 49.4817 212.897H53.5157Z" fill="white"/>
<path d="M63.6077 217.373C62.5003 217.373 61.6105 217.001 60.9381 216.257C60.2658 215.504 59.9296 214.582 59.9296 213.492C59.9296 212.403 60.2658 211.486 60.9381 210.743C61.6105 209.999 62.5003 209.627 63.6077 209.627C64.7249 209.627 65.6197 209.999 66.292 210.743C66.9644 211.486 67.3005 212.403 67.3005 213.492C67.3005 214.592 66.9644 215.514 66.292 216.257C65.6197 217.001 64.7249 217.373 63.6077 217.373ZM63.6077 215.952C64.2503 215.952 64.7546 215.718 65.1204 215.249C65.4961 214.77 65.684 214.185 65.684 213.492C65.684 212.81 65.4961 212.235 65.1204 211.766C64.7546 211.288 64.2503 211.048 63.6077 211.048C62.9749 211.048 62.4706 211.288 62.0949 211.766C61.7291 212.235 61.5462 212.81 61.5462 213.492C61.5462 214.185 61.7291 214.77 62.0949 215.249C62.4706 215.718 62.9749 215.952 63.6077 215.952Z" fill="white"/>
<path d="M74.2425 217.189H72.6852V209.811H74.2425V212.713H77.5349V209.811H79.0921V217.189H77.5349V214.119H74.2425V217.189Z" fill="white"/>
<path d="M87.0467 217.189H85.4895V216.395C84.9358 217.047 84.1646 217.373 83.1759 217.373C82.5233 217.373 81.9449 217.159 81.4407 216.731C80.9365 216.293 80.6843 215.692 80.6843 214.928C80.6843 214.144 80.9315 213.548 81.4259 213.141C81.9301 212.734 82.5135 212.53 83.1759 212.53C84.1943 212.53 84.9655 212.846 85.4895 213.477V212.377C85.4895 211.949 85.3362 211.613 85.0297 211.369C84.7232 211.125 84.3179 211.002 83.8136 211.002C83.0128 211.002 82.3058 211.313 81.6928 211.934L81.0551 210.819C81.8658 210.025 82.8694 209.627 84.0657 209.627C84.9457 209.627 85.6625 209.841 86.2162 210.269C86.7699 210.697 87.0467 211.374 87.0467 212.301V217.189ZM83.784 216.273C84.565 216.273 85.1336 216.018 85.4895 215.509V214.394C85.1336 213.884 84.565 213.63 83.784 213.63C83.339 213.63 82.9732 213.752 82.6865 213.996C82.3998 214.241 82.2564 214.562 82.2564 214.959C82.2564 215.356 82.3998 215.677 82.6865 215.921C82.9732 216.156 83.339 216.273 83.784 216.273Z" fill="white"/>
<path d="M92.3284 217.373C91.2408 217.373 90.351 217.011 89.6589 216.288C88.9668 215.555 88.6207 214.623 88.6207 213.492C88.6207 212.372 88.9668 211.45 89.6589 210.727C90.351 209.994 91.2408 209.627 92.3284 209.627C93.5248 209.627 94.4393 210.065 95.0721 210.941L94.0488 211.919C93.6533 211.338 93.1046 211.048 92.4026 211.048C91.75 211.048 91.226 211.277 90.8305 211.736C90.435 212.184 90.2373 212.769 90.2373 213.492C90.2373 214.215 90.435 214.806 90.8305 215.264C91.226 215.723 91.75 215.952 92.4026 215.952C93.0848 215.952 93.6335 215.662 94.0488 215.081L95.0721 216.059C94.4393 216.935 93.5248 217.373 92.3284 217.373Z" fill="white"/>
<path d="M103.48 215.952C104.122 215.952 104.627 215.712 104.992 215.234C105.368 214.755 105.556 214.165 105.556 213.462C105.556 212.79 105.368 212.219 104.992 211.751C104.627 211.282 104.122 211.048 103.48 211.048C102.847 211.048 102.343 211.282 101.967 211.751C101.601 212.219 101.418 212.79 101.418 213.462C101.418 214.165 101.601 214.755 101.967 215.234C102.343 215.712 102.847 215.952 103.48 215.952ZM106.164 216.242C105.502 216.996 104.607 217.373 103.48 217.373C102.353 217.373 101.458 216.98 100.795 216.196C100.143 215.402 99.8166 214.389 99.8166 213.156C99.8166 211.394 100.108 210.081 100.692 209.215C101.285 208.349 102.194 207.84 103.42 207.687C104.162 207.575 104.671 207.468 104.948 207.367C105.235 207.265 105.378 207.143 105.378 207H106.906C106.906 208.069 105.887 208.721 103.851 208.955C103.05 209.047 102.432 209.276 101.997 209.643C101.572 209.999 101.305 210.427 101.196 210.926C101.483 210.519 101.853 210.203 102.308 209.979C102.773 209.745 103.262 209.627 103.776 209.627C104.765 209.627 105.576 210.004 106.209 210.758C106.841 211.512 107.158 212.418 107.158 213.477C107.158 214.567 106.827 215.488 106.164 216.242Z" fill="white"/>
<path d="M112.039 217.373C110.932 217.373 110.042 217.001 109.37 216.257C108.697 215.504 108.361 214.582 108.361 213.492C108.361 212.403 108.697 211.486 109.37 210.743C110.042 209.999 110.932 209.627 112.039 209.627C113.157 209.627 114.051 209.999 114.724 210.743C115.396 211.486 115.732 212.403 115.732 213.492C115.732 214.592 115.396 215.514 114.724 216.257C114.051 217.001 113.157 217.373 112.039 217.373ZM112.039 215.952C112.682 215.952 113.186 215.718 113.552 215.249C113.928 214.77 114.116 214.185 114.116 213.492C114.116 212.81 113.928 212.235 113.552 211.766C113.186 211.288 112.682 211.048 112.039 211.048C111.407 211.048 110.902 211.288 110.527 211.766C110.161 212.235 109.978 212.81 109.978 213.492C109.978 214.185 110.161 214.77 110.527 215.249C110.902 215.718 111.407 215.952 112.039 215.952Z" fill="white"/>
<path d="M116.566 217.373V216.059C116.873 216.059 117.115 215.855 117.293 215.448C117.481 215.04 117.634 214.358 117.753 213.401L118.183 209.811H123.715V217.189H122.157V211.216H119.562L119.31 213.584C119.172 214.908 118.88 215.87 118.435 216.471C117.99 217.072 117.367 217.373 116.566 217.373Z" fill="white"/>
<path d="M125.737 209.811H127.294V212.484H129.83C130.592 212.484 131.175 212.708 131.58 213.156C131.996 213.604 132.203 214.165 132.203 214.837C132.203 215.499 131.991 216.059 131.565 216.517C131.15 216.965 130.572 217.189 129.83 217.189H125.737V209.811ZM129.637 213.89H127.294V215.784H129.637C129.944 215.784 130.181 215.697 130.349 215.524C130.527 215.351 130.616 215.122 130.616 214.837C130.616 214.552 130.527 214.322 130.349 214.149C130.181 213.976 129.944 213.89 129.637 213.89Z" fill="white"/>
<path d="M141.903 209.811H143.46V217.189H133.746V209.811H135.303V215.784H137.825V209.811H139.382V215.784H141.903V209.811Z" fill="white"/>
<path d="M148.785 217.373C147.697 217.373 146.797 217.016 146.086 216.303C145.384 215.58 145.033 214.643 145.033 213.492C145.033 212.413 145.374 211.501 146.056 210.758C146.748 210.004 147.618 209.627 148.666 209.627C149.724 209.627 150.574 210.004 151.217 210.758C151.87 211.512 152.196 212.474 152.196 213.645V214.027H146.664C146.723 214.608 146.956 215.091 147.361 215.478C147.766 215.865 148.295 216.059 148.948 216.059C149.314 216.059 149.68 215.987 150.045 215.845C150.421 215.702 150.733 215.504 150.98 215.249L151.692 216.303C150.97 217.016 150.001 217.373 148.785 217.373ZM150.683 212.897C150.663 212.387 150.48 211.934 150.134 211.537C149.798 211.14 149.309 210.941 148.666 210.941C148.053 210.941 147.574 211.14 147.228 211.537C146.882 211.924 146.689 212.377 146.649 212.897H150.683Z" fill="white"/>
<path d="M161.932 217.189H157.542V209.811H161.828C162.491 209.811 163.01 209.989 163.385 210.345C163.761 210.702 163.949 211.155 163.949 211.705C163.949 212.133 163.835 212.494 163.608 212.79C163.38 213.085 163.094 213.284 162.748 213.385C163.133 213.477 163.455 213.696 163.712 214.042C163.969 214.378 164.097 214.76 164.097 215.188C164.097 215.779 163.904 216.262 163.519 216.639C163.143 217.006 162.614 217.189 161.932 217.189ZM161.606 215.784C161.882 215.784 162.1 215.712 162.258 215.57C162.416 215.417 162.495 215.213 162.495 214.959C162.495 214.725 162.416 214.526 162.258 214.363C162.1 214.2 161.882 214.119 161.606 214.119H159.099V215.784H161.606ZM161.561 212.713C161.808 212.713 162.001 212.647 162.14 212.515C162.288 212.372 162.362 212.194 162.362 211.98C162.362 211.746 162.288 211.562 162.14 211.43C162.001 211.288 161.808 211.216 161.561 211.216H159.099V212.713H161.561Z" fill="white"/>
<path d="M176.542 217.189H174.584L172.389 214.149L171.395 215.203V217.189H169.838V209.811H171.395V213.37L174.554 209.811H176.482L173.501 213.156L176.542 217.189Z" fill="white"/>
<path d="M180.805 217.373C179.698 217.373 178.808 217.001 178.136 216.257C177.463 215.504 177.127 214.582 177.127 213.492C177.127 212.403 177.463 211.486 178.136 210.743C178.808 209.999 179.698 209.627 180.805 209.627C181.923 209.627 182.817 209.999 183.49 210.743C184.162 211.486 184.498 212.403 184.498 213.492C184.498 214.592 184.162 215.514 183.49 216.257C182.817 217.001 181.923 217.373 180.805 217.373ZM180.805 215.952C181.448 215.952 181.952 215.718 182.318 215.249C182.694 214.77 182.882 214.185 182.882 213.492C182.882 212.81 182.694 212.235 182.318 211.766C181.952 211.288 181.448 211.048 180.805 211.048C180.172 211.048 179.668 211.288 179.293 211.766C178.927 212.235 178.744 212.81 178.744 213.492C178.744 214.185 178.927 214.77 179.293 215.249C179.668 215.718 180.172 215.952 180.805 215.952Z" fill="white"/>
<path d="M189.93 217.373C188.981 217.373 188.214 216.97 187.631 216.166V220H186.074V209.811H187.631V210.819C188.204 210.025 188.971 209.627 189.93 209.627C190.869 209.627 191.63 209.974 192.214 210.666C192.807 211.359 193.104 212.301 193.104 213.492C193.104 214.684 192.807 215.631 192.214 216.334C191.63 217.026 190.869 217.373 189.93 217.373ZM189.47 215.952C190.083 215.952 190.572 215.723 190.938 215.264C191.304 214.806 191.487 214.215 191.487 213.492C191.487 212.769 191.304 212.184 190.938 211.736C190.572 211.277 190.083 211.048 189.47 211.048C189.114 211.048 188.763 211.145 188.417 211.338C188.071 211.532 187.809 211.766 187.631 212.041V214.959C187.809 215.234 188.071 215.468 188.417 215.662C188.763 215.855 189.114 215.952 189.47 215.952Z" fill="white"/>
<path d="M197.881 217.373C196.774 217.373 195.884 217.001 195.211 216.257C194.539 215.504 194.203 214.582 194.203 213.492C194.203 212.403 194.539 211.486 195.211 210.743C195.884 209.999 196.774 209.627 197.881 209.627C198.998 209.627 199.893 209.999 200.565 210.743C201.238 211.486 201.574 212.403 201.574 213.492C201.574 214.592 201.238 215.514 200.565 216.257C199.893 217.001 198.998 217.373 197.881 217.373ZM197.881 215.952C198.524 215.952 199.028 215.718 199.394 215.249C199.769 214.77 199.957 214.185 199.957 213.492C199.957 212.81 199.769 212.235 199.394 211.766C199.028 211.288 198.524 211.048 197.881 211.048C197.248 211.048 196.744 211.288 196.368 211.766C196.002 212.235 195.819 212.81 195.819 213.492C195.819 214.185 196.002 214.77 196.368 215.249C196.744 215.718 197.248 215.952 197.881 215.952Z" fill="white"/>
<path d="M206.012 217.189H204.455V211.216H202.408V209.811H208.073V211.216H206.012V217.189Z" fill="white"/>
<path d="M216.052 217.189H214.094L211.899 214.149L210.905 215.203V217.189H209.348V209.811H210.905V213.37L214.064 209.811H215.992L213.011 213.156L216.052 217.189Z" fill="white"/>
<path d="M220.315 217.373C219.208 217.373 218.318 217.001 217.646 216.257C216.973 215.504 216.637 214.582 216.637 213.492C216.637 212.403 216.973 211.486 217.646 210.743C218.318 209.999 219.208 209.627 220.315 209.627C221.433 209.627 222.327 209.999 223 210.743C223.672 211.486 224.008 212.403 224.008 213.492C224.008 214.592 223.672 215.514 223 216.257C222.327 217.001 221.433 217.373 220.315 217.373ZM220.315 215.952C220.958 215.952 221.462 215.718 221.828 215.249C222.204 214.77 222.392 214.185 222.392 213.492C222.392 212.81 222.204 212.235 221.828 211.766C221.462 211.288 220.958 211.048 220.315 211.048C219.683 211.048 219.178 211.288 218.803 211.766C218.437 212.235 218.254 212.81 218.254 213.492C218.254 214.185 218.437 214.77 218.803 215.249C219.178 215.718 219.683 215.952 220.315 215.952Z" fill="white"/>
<path d="M233.607 217.189H232.05V212.056L229.914 217.189H229.291L227.141 212.056V217.189H225.584V209.811H227.616L229.603 214.577L231.561 209.811H233.607V217.189Z" fill="white"/>
<path d="M243.82 217.189H239.43V209.811H243.716C244.378 209.811 244.897 209.989 245.273 210.345C245.649 210.702 245.837 211.155 245.837 211.705C245.837 212.133 245.723 212.494 245.495 212.79C245.268 213.085 244.981 213.284 244.635 213.385C245.021 213.477 245.342 213.696 245.599 214.042C245.856 214.378 245.985 214.76 245.985 215.188C245.985 215.779 245.792 216.262 245.406 216.639C245.031 217.006 244.502 217.189 243.82 217.189ZM243.493 215.784C243.77 215.784 243.988 215.712 244.146 215.57C244.304 215.417 244.383 215.213 244.383 214.959C244.383 214.725 244.304 214.526 244.146 214.363C243.988 214.2 243.77 214.119 243.493 214.119H240.987V215.784H243.493ZM243.449 212.713C243.696 212.713 243.889 212.647 244.027 212.515C244.176 212.372 244.25 212.194 244.25 211.98C244.25 211.746 244.176 211.562 244.027 211.43C243.889 211.288 243.696 211.216 243.449 211.216H240.987V212.713H243.449Z" fill="white"/>
<path d="M249.415 217.189H247.917V209.811H249.474V214.776L252.766 209.811H254.324V217.189H252.766V212.087L249.415 217.189Z" fill="white"/>
<path d="M255.604 219.068V215.86C255.941 215.779 256.193 215.58 256.361 215.264C256.539 214.939 256.682 214.317 256.791 213.401L257.221 209.811H262.753V215.784H263.539V219.068H261.982V217.189H257.162V219.068H255.604ZM258.6 211.216L258.348 213.584C258.249 214.562 257.933 215.295 257.399 215.784H261.196V211.216H258.6Z" fill="white"/>
<path d="M268.126 217.373C267.038 217.373 266.139 217.016 265.427 216.303C264.725 215.58 264.374 214.643 264.374 213.492C264.374 212.413 264.715 211.501 265.397 210.758C266.089 210.004 266.959 209.627 268.007 209.627C269.065 209.627 269.915 210.004 270.558 210.758C271.211 211.512 271.537 212.474 271.537 213.645V214.027H266.005C266.064 214.608 266.297 215.091 266.702 215.478C267.108 215.865 267.636 216.059 268.289 216.059C268.655 216.059 269.021 215.987 269.387 215.845C269.762 215.702 270.074 215.504 270.321 215.249L271.033 216.303C270.311 217.016 269.342 217.373 268.126 217.373ZM270.024 212.897C270.004 212.387 269.822 211.934 269.476 211.537C269.139 211.14 268.65 210.941 268.007 210.941C267.394 210.941 266.915 211.14 266.569 211.537C266.223 211.924 266.03 212.377 265.99 212.897H270.024Z" fill="white"/>
<path d="M276.307 217.373C275.2 217.373 274.31 217.001 273.638 216.257C272.965 215.504 272.629 214.582 272.629 213.492C272.629 212.403 272.965 211.486 273.638 210.743C274.31 209.999 275.2 209.627 276.307 209.627C277.424 209.627 278.319 209.999 278.992 210.743C279.664 211.486 280 212.403 280 213.492C280 214.592 279.664 215.514 278.992 216.257C278.319 217.001 277.424 217.373 276.307 217.373ZM276.307 215.952C276.95 215.952 277.454 215.718 277.82 215.249C278.196 214.77 278.383 214.185 278.383 213.492C278.383 212.81 278.196 212.235 277.82 211.766C277.454 211.288 276.95 211.048 276.307 211.048C275.674 211.048 275.17 211.288 274.794 211.766C274.429 212.235 274.246 212.81 274.246 213.492C274.246 214.185 274.429 214.77 274.794 215.249C275.17 215.718 275.674 215.952 276.307 215.952Z" fill="white"/>
<g filter="url(#filter0_d)">
<path d="M183.722 136.197L121.927 171.874L121.927 100.519L183.722 136.197Z" fill="#FEFEFE"/>
</g>
<defs>
<filter id="filter0_d" x="21.9268" y="0.519283" width="261.795" height="271.354" filterUnits="userSpaceOnUse" color-interpolation-filters="sRGB">
<feFlood flood-opacity="0" result="BackgroundImageFix"/>
<feColorMatrix in="SourceAlpha" type="matrix" values="0 0 0 0 0 0 0 0 0 0 0 0 0 0 0 0 0 0 127 0"/>
<feOffset/>
<feGaussianBlur stdDeviation="50"/>
<feColorMatrix type="matrix" values="0 0 0 0 0.65098 0 0 0 0 0.807843 0 0 0 0 0.223529 0 0 0 1 0"/>
<feBlend mode="normal" in2="BackgroundImageFix" result="effect1_dropShadow"/>
<feBlend mode="normal" in="SourceGraphic" in2="effect1_dropShadow" result="shape"/>
</filter>
</defs>
</svg>
