<svg width="43" height="55" viewBox="0 0 43 55" fill="none" xmlns="http://www.w3.org/2000/svg">
<path d="M42.5873 12.0886C42.5285 12.0886 42.5285 12.0299 42.4698 11.9712C42.411 11.9124 42.411 11.8537 42.3523 11.7949L32.2488 0.457915C32.1901 0.399174 32.0726 0.340433 32.0139 0.281692C31.9551 0.281692 31.9551 0.222951 31.8964 0.222951C31.7789 0.16421 31.6027 0.105469 31.4265 0.105469H6.63774C2.99579 0.105469 0 3.10126 0 6.74321V47.4508C0 51.0927 2.99579 54.0885 6.63774 54.0885H36.0083C39.6502 54.0885 42.646 51.0927 42.646 47.4508V12.4998C42.646 12.3823 42.5873 12.2061 42.5873 12.0886ZM32.5425 4.09986L39.0628 11.4425H32.5425V4.09986ZM40.4138 47.392C40.4138 49.8591 38.4754 51.8563 36.0083 51.8563H6.63774C4.17062 51.8563 2.23216 49.8591 2.23216 47.4508V6.68447C2.23216 4.21734 4.22936 2.27889 6.63774 2.27889H30.3104V12.4998C30.3104 13.0872 30.7803 13.6159 31.4265 13.6159H40.4138V47.392Z" fill="#7AC300"/>
<path d="M7.9302 13.6157H17.74C18.3274 13.6157 18.856 13.1458 18.856 12.4996C18.856 11.8535 18.3861 11.3835 17.74 11.3835H7.9302C7.34279 11.3835 6.81412 11.8535 6.81412 12.4996C6.81412 13.1458 7.34279 13.6157 7.9302 13.6157Z" fill="#7AC300"/>
<path d="M17.74 40.5779H7.9302C7.34279 40.5779 6.81412 41.0478 6.81412 41.694C6.81412 42.2814 7.28405 42.81 7.9302 42.81H17.74C18.3274 42.81 18.856 42.3401 18.856 41.694C18.856 41.1066 18.3274 40.5779 17.74 40.5779Z" fill="#7AC300"/>
<path d="M6.81412 19.901C6.81412 20.4884 7.28405 21.0171 7.9302 21.0171H34.1287C34.7161 21.0171 35.2448 20.5471 35.2448 19.901C35.2448 19.3136 34.7749 18.7849 34.1287 18.7849H7.9302C7.34279 18.7849 6.81412 19.2548 6.81412 19.901Z" fill="#7AC300"/>
<path d="M34.1287 24.3066H7.9302C7.34279 24.3066 6.81412 24.7766 6.81412 25.4227C6.81412 26.0101 7.28405 26.5388 7.9302 26.5388H34.1287C34.7161 26.5388 35.2448 26.0689 35.2448 25.4227C35.2448 24.7766 34.7749 24.3066 34.1287 24.3066Z" fill="#7AC300"/>
<path d="M34.1287 29.7695H7.9302C7.34279 29.7695 6.81412 30.2395 6.81412 30.8856C6.81412 31.473 7.28405 32.0017 7.9302 32.0017H34.1287C34.7161 32.0017 35.2448 31.5318 35.2448 30.8856C35.2448 30.2395 34.7749 29.7695 34.1287 29.7695Z" fill="#7AC300"/>
<path d="M34.1287 35.2327H7.9302C7.34279 35.2327 6.81412 35.7026 6.81412 36.3487C6.81412 36.9362 7.28405 37.4648 7.9302 37.4648H34.1287C34.7161 37.4648 35.2448 36.9949 35.2448 36.3487C35.2448 35.7613 34.7749 35.2327 34.1287 35.2327Z" fill="#7AC300"/>
</svg>
