<svg width="53" height="60" viewBox="0 0 53 60" fill="none" xmlns="http://www.w3.org/2000/svg">
<path d="M10.0367 51.4551C9.56379 51.4551 9.18057 51.8384 9.18057 52.3112V58.2031C9.18057 58.6759 9.56379 59.0592 10.0367 59.0592C10.5097 59.0592 10.8929 58.6759 10.8929 58.2031V52.3112C10.8929 51.8384 10.5097 51.4551 10.0367 51.4551Z" fill="#7AC300"/>
<path d="M49.5805 45.3782H46.8382C45.8951 43.4404 44.3119 41.9068 42.3173 41.023L31.1533 36.2376C31.1511 36.2367 31.1489 36.2362 31.1469 36.2353L31.0866 36.2095C31.0883 36.1446 31.0923 36.0796 31.0923 36.0149V31.5103C33.3819 29.5021 34.8299 26.5568 34.8299 23.2795V22.471H35.9542C37.2683 22.471 38.3372 21.4021 38.3372 20.0881V17.0693C38.3372 15.9739 37.5933 15.0512 36.5847 14.7738V13.0258C36.5847 6.1812 31.016 0.612793 24.1711 0.612793H23.596C16.7511 0.612793 11.1822 6.1812 11.1822 13.0258V14.7736C10.1736 15.0509 9.42942 15.9737 9.42942 17.0694V20.0882C9.42942 21.4022 10.4984 22.4711 11.8124 22.4711H12.9326V23.2796C12.9326 26.5592 14.3825 29.5062 16.6746 31.5145V36.015C16.6746 36.094 16.6761 36.1729 16.6786 36.2514L5.59683 41.0699C2.19688 42.5004 0 45.8082 0 49.497V58.2027C0 58.6755 0.383213 59.0588 0.856151 59.0588C1.32909 59.0588 1.7123 58.6755 1.7123 58.2027V49.497C1.7123 46.4991 3.49778 43.8108 6.27022 42.6442L13.4335 39.5295L14.3373 41.0737C14.5763 41.4818 15.1008 41.6188 15.5088 41.3801C15.9168 41.1412 16.054 40.6167 15.8152 40.2086L15.0153 38.8422L16.8637 38.0386L17.2164 38.3104C17.219 38.3124 17.2217 38.3145 17.2243 38.3164L22.545 42.4165L18.9782 45.612L17.343 42.8184C17.1041 42.4103 16.5798 42.2732 16.1716 42.512C15.7636 42.751 15.6264 43.2754 15.8652 43.6835L18.03 47.3816C18.1599 47.6034 18.3825 47.7551 18.6365 47.7949C18.6806 47.8019 18.7248 47.8052 18.7689 47.8052C18.9781 47.8052 19.182 47.7284 19.3402 47.5867L22.5602 44.702L19.9822 58.0408C19.8925 58.5051 20.196 58.9541 20.6603 59.0439C21.1247 59.1337 21.5736 58.8298 21.6632 58.3658L23.8832 46.8791L26.1031 58.3658C26.1821 58.7751 26.5408 59.0596 26.9427 59.0596C26.9966 59.0596 27.0512 59.0545 27.1061 59.0439C27.5703 58.9541 27.874 58.5051 27.7842 58.0408L25.2062 44.702L28.4262 47.5867C28.5844 47.7284 28.7881 47.8052 28.9975 47.8052C29.0416 47.8052 29.0857 47.8018 29.1299 47.7949C29.3839 47.7552 29.6065 47.6034 29.7364 47.3816L34.3636 39.4774L41.6331 42.5927C42.9811 43.19 44.1002 44.1581 44.8794 45.3782H35.602C34.2503 45.3782 33.1506 46.4778 33.1506 47.8295V56.608C33.1506 57.9597 34.2503 59.0594 35.602 59.0594H49.5805C50.9322 59.0594 52.0318 57.9597 52.0318 56.608V47.8295C52.0318 46.4778 50.9322 45.3782 49.5805 45.3782ZM36.6248 20.0881C36.6248 20.4578 36.3239 20.7587 35.9541 20.7587H34.8318V16.3986H35.9541C36.3239 16.3986 36.6248 16.6995 36.6248 17.0693V20.0881ZM11.8124 20.7587C11.4426 20.7587 11.1417 20.4578 11.1417 20.0881V17.0693C11.1417 16.6995 11.4426 16.3986 11.8124 16.3986H12.9326V20.7587H11.8124ZM14.6449 23.2795L14.6469 15.5425C14.6469 15.5369 14.6462 15.5314 14.6461 15.5258C14.6654 14.9678 14.8121 13.9416 15.5515 13.0633C16.2952 12.1801 17.2415 11.9067 17.5524 11.8168C18.7849 11.4607 19.5617 11.8163 20.6366 12.3083C21.6779 12.7851 22.8576 13.3262 24.6005 13.2394C25.9271 13.1739 26.8936 12.7663 27.6641 12.3761C28.0859 12.1624 28.2547 11.6473 28.041 11.2254C27.8273 10.8036 27.3122 10.635 26.8904 10.8485C26.1505 11.2232 25.4634 11.4825 24.5161 11.5292C23.1911 11.5947 22.2966 11.185 21.3494 10.7514C20.211 10.2302 18.9211 9.63925 17.0774 10.1718C15.9115 10.5085 14.9575 11.1103 14.2417 11.9604C13.4667 12.8809 13.1437 13.8966 13.0137 14.6859H12.8948V13.0258C12.8948 7.12548 17.6954 2.3251 23.5961 2.3251H24.1712C30.0719 2.3251 34.8725 7.12536 34.8725 13.0258V14.6859H34.7955C34.7256 14.0769 34.546 13.3662 34.148 12.6501C33.464 11.4195 32.2526 10.4451 30.9075 10.0437C30.4547 9.90877 29.9776 10.1663 29.8423 10.6193C29.7071 11.0723 29.9647 11.5493 30.4179 11.6845C30.765 11.7881 31.952 12.2239 32.6512 13.482C33.0738 14.2421 33.1385 15.0037 33.1184 15.5086C33.118 15.5199 33.1178 15.5313 33.1178 15.5426V23.2796C33.1178 28.3722 28.9743 32.5154 23.8814 32.5154C18.7883 32.5154 14.6449 28.3722 14.6449 23.2795ZM18.505 37.1417C18.4739 36.9919 18.4469 36.8407 18.4284 36.6866C18.401 36.4687 18.387 36.2427 18.387 36.015V32.7463C20.0029 33.6877 21.8801 34.2278 23.8813 34.2278C25.8843 34.2278 27.763 33.6867 29.38 32.7437V36.0151C29.38 36.2295 29.3675 36.4459 29.3422 36.6603C29.3235 36.8224 29.2969 36.9826 29.2642 37.1396L23.8832 41.2861L18.505 37.1417ZM28.7883 45.612L25.2215 42.4165L30.9404 38.0096L32.372 38.6228L32.7779 38.7968L28.7883 45.612ZM50.3195 56.608C50.3195 57.0156 49.988 57.3471 49.5805 57.3471H35.602C35.1945 57.3471 34.8629 57.0156 34.8629 56.608V47.8295C34.8629 47.422 35.1944 47.0905 35.602 47.0905H46.2855C46.2859 47.0905 46.2865 47.0906 46.287 47.0906C46.2878 47.0906 46.2886 47.0905 46.2894 47.0905H49.5805C49.9879 47.0905 50.3195 47.422 50.3195 47.8295V56.608Z" fill="#7AC300"/>
<path d="M48.7128 50.9027C48.7128 49.6176 47.6298 48.572 46.2986 48.572H44.7909C44.7906 48.572 44.7903 48.572 44.79 48.572C44.7896 48.572 44.7894 48.572 44.7891 48.572C44.3161 48.572 43.9329 48.9554 43.9329 49.4282V55.1017C43.9329 55.5746 44.3161 55.9579 44.7891 55.9579C45.262 55.9579 45.6452 55.5746 45.6452 55.1017V53.885L47.2141 55.6674C47.3832 55.8597 47.6196 55.9579 47.8571 55.9579C48.058 55.9579 48.2597 55.8876 48.4224 55.7444C48.7773 55.432 48.8117 54.891 48.4994 54.5361L47.2023 53.0624C48.0866 52.7163 48.7128 51.8794 48.7128 50.9027ZM46.2986 50.2843C46.6791 50.2843 47.0005 50.5674 47.0005 50.9027C47.0005 51.2379 46.6791 51.5211 46.2986 51.5211C46.1441 51.5211 45.8999 51.522 45.6529 51.5231C45.6517 51.2848 45.6508 51.0508 45.6508 50.9028C45.6508 50.7758 45.6503 50.5351 45.6496 50.2844H46.2986V50.2843Z" fill="#7AC300"/>
<path d="M41.3399 48.572C40.867 48.572 40.4837 48.9554 40.4837 49.4282V51.3115H38.2696V49.4282C38.2696 48.9554 37.8864 48.572 37.4135 48.572C36.9405 48.572 36.5573 48.9554 36.5573 49.4282V55.1017C36.5573 55.5746 36.9405 55.9579 37.4135 55.9579C37.8864 55.9579 38.2696 55.5746 38.2696 55.1017V53.0238H40.4837V55.1017C40.4837 55.5746 40.867 55.9579 41.3399 55.9579C41.8128 55.9579 42.1961 55.5746 42.1961 55.1017V49.4282C42.1961 48.9554 41.8128 48.572 41.3399 48.572Z" fill="#7AC300"/>
</svg>
