<svg width="55" height="55" viewBox="0 0 55 55" fill="none" xmlns="http://www.w3.org/2000/svg">
<g clip-path="url(#clip0)">
<path d="M27.5001 24.75C27.3662 24.75 27.2333 24.7206 27.1096 24.6629L11.5262 17.3296C11.2054 17.1783 11.0001 16.8547 11.0001 16.5C11.0001 16.1452 11.2054 15.8216 11.5262 15.6704L27.1096 8.33707C27.3571 8.22065 27.6431 8.22065 27.8906 8.33707L43.4739 15.6704C43.7947 15.8216 44.0001 16.1452 44.0001 16.5C44.0001 16.8547 43.7947 17.1783 43.4739 17.3296L27.8906 24.6629C27.7668 24.7206 27.6339 24.75 27.5001 24.75ZM14.07 16.5L27.5001 22.8204L40.9301 16.5L27.5001 10.1796L14.07 16.5Z" fill="#7AC300"/>
<path d="M27.5 32.0834C27.3598 32.0834 27.2186 32.0513 27.0903 31.9872L16.0903 26.4872C15.7795 26.3313 15.5833 26.0142 15.5833 25.6667V18.657C15.5833 18.3435 15.7438 18.0511 16.0087 17.8833C16.2736 17.7147 16.6063 17.6954 16.8896 17.8274L27.5 22.8205L38.1095 17.8274C38.3937 17.6945 38.7264 17.7147 38.9904 17.8833C39.2563 18.0511 39.4167 18.3435 39.4167 18.657V25.6667C39.4167 26.0142 39.2205 26.3313 38.9098 26.4872L27.9098 31.9872C27.7814 32.0513 27.6403 32.0834 27.5 32.0834ZM17.4167 25.1002L27.5 30.1419L37.5833 25.1002V20.1017L27.8905 24.663C27.643 24.7794 27.357 24.7794 27.1095 24.663L17.4167 20.1017V25.1002Z" fill="#7AC300"/>
<path d="M43.0833 17.4166H27.5C26.994 17.4166 26.5833 17.0059 26.5833 16.4999C26.5833 15.9939 26.994 15.5833 27.5 15.5833H43.0833C43.5893 15.5833 44 15.9939 44 16.4999C44 17.0059 43.5893 17.4166 43.0833 17.4166Z" fill="#7AC300"/>
<path d="M43.0834 25.6666C42.5774 25.6666 42.1667 25.2559 42.1667 24.7499V16.4999C42.1667 15.9939 42.5774 15.5833 43.0834 15.5833C43.5893 15.5833 44 15.9939 44 16.4999V24.7499C44 25.2559 43.5893 25.6666 43.0834 25.6666Z" fill="#7AC300"/>
<path d="M27.5 19.25C26.994 19.25 26.5833 18.8393 26.5833 18.3333V14.6667C26.5833 14.1607 26.994 13.75 27.5 13.75C28.006 13.75 28.4167 14.1607 28.4167 14.6667V18.3333C28.4167 18.8393 28.006 19.25 27.5 19.25Z" fill="#7AC300"/>
<path d="M41.2491 28.4168C41.0749 28.4168 40.898 28.3673 40.7413 28.2628C40.3205 27.9823 40.2068 27.413 40.4873 26.9914L42.3207 24.2414C42.6012 23.8197 43.1695 23.7051 43.5921 23.9874C44.0128 24.2679 44.1265 24.8372 43.846 25.2589L42.0127 28.0089C41.8358 28.2738 41.5452 28.4168 41.2491 28.4168Z" fill="#7AC300"/>
<path d="M44.9176 28.4168C44.6215 28.4168 44.3309 28.2738 44.154 28.0089L42.3207 25.2589C42.0402 24.8381 42.1538 24.2679 42.5746 23.9874C42.9953 23.7051 43.5646 23.8197 43.846 24.2414L45.6793 26.9914C45.9598 27.4121 45.8462 27.9823 45.4254 28.2628C45.2687 28.3673 45.0917 28.4168 44.9176 28.4168Z" fill="#7AC300"/>
<path d="M27.5 27.5001C26.994 27.5001 26.5833 27.0894 26.5833 26.5834V23.8334C26.5833 23.3274 26.994 22.9167 27.5 22.9167C28.006 22.9167 28.4167 23.3274 28.4167 23.8334V26.5834C28.4167 27.0894 28.006 27.5001 27.5 27.5001Z" fill="#7AC300"/>
<path d="M54.0833 35.7501H0.916667C0.410667 35.7501 0 35.3394 0 34.8334V4.58433C0 2.56216 1.64542 0.916748 3.66758 0.916748H51.3324C53.3546 0.916748 55 2.56216 55 4.58433V34.8334C55 35.3394 54.5893 35.7501 54.0833 35.7501ZM1.83333 33.9168H53.1667V4.58433C53.1667 3.57233 52.3444 2.75008 51.3324 2.75008H3.66758C2.65558 2.75008 1.83333 3.57233 1.83333 4.58433V33.9168Z" fill="#7AC300"/>
<path d="M51.3324 43.0832H3.66758C1.64542 43.0832 0 41.4378 0 39.4156V34.8332C0 34.3272 0.410667 33.9165 0.916667 33.9165H54.0833C54.5893 33.9165 55 34.3272 55 34.8332V39.4156C55 41.4378 53.3546 43.0832 51.3324 43.0832ZM1.83333 35.7498V39.4156C1.83333 40.4276 2.65558 41.2498 3.66758 41.2498H51.3324C52.3444 41.2498 53.1667 40.4276 53.1667 39.4156V35.7498H1.83333Z" fill="#7AC300"/>
<path d="M30.25 39.4166H24.75C24.244 39.4166 23.8333 39.0059 23.8333 38.4999C23.8333 37.9939 24.244 37.5833 24.75 37.5833H30.25C30.756 37.5833 31.1667 37.9939 31.1667 38.4999C31.1667 39.0059 30.756 39.4166 30.25 39.4166Z" fill="#7AC300"/>
<path d="M50.4167 35.7499H4.58332C4.07732 35.7499 3.66666 35.3393 3.66666 34.8333V5.49992C3.66666 4.99392 4.07732 4.58325 4.58332 4.58325H50.4167C50.9227 4.58325 51.3333 4.99392 51.3333 5.49992V34.8333C51.3333 35.3393 50.9227 35.7499 50.4167 35.7499ZM5.49999 33.9166H49.5V6.41659H5.49999V33.9166Z" fill="#7AC300"/>
<path d="M39.4167 54.0835H15.5833C14.0672 54.0835 12.8333 52.8497 12.8333 51.3335C12.8333 49.8173 14.0672 48.5835 15.5833 48.5835H39.4167C40.9328 48.5835 42.1667 49.8173 42.1667 51.3335C42.1667 52.8497 40.9328 54.0835 39.4167 54.0835ZM15.5833 50.4168C15.0783 50.4168 14.6667 50.8284 14.6667 51.3335C14.6667 51.8386 15.0783 52.2502 15.5833 52.2502H39.4167C39.9218 52.2502 40.3333 51.8386 40.3333 51.3335C40.3333 50.8284 39.9218 50.4168 39.4167 50.4168H15.5833Z" fill="#7AC300"/>
<path d="M37.5833 50.4167H17.4166C16.9106 50.4167 16.5 50.006 16.5 49.5C16.5 48.994 16.9106 48.5833 17.4166 48.5833C20.4581 48.5833 22 46.4246 22 42.1667C22 41.6607 22.4106 41.25 22.9166 41.25H32.0833C32.5893 41.25 33 41.6607 33 42.1667C33 46.4246 34.5418 48.5833 37.5833 48.5833C38.0893 48.5833 38.5 48.994 38.5 49.5C38.5 50.006 38.0893 50.4167 37.5833 50.4167ZM21.8817 48.5833H33.1191C31.9898 47.333 31.3252 45.4713 31.1923 43.0833H23.8086C23.6747 45.4713 23.0111 47.333 21.8817 48.5833Z" fill="#7AC300"/>
</g>
<defs>
<clipPath id="clip0">
<rect width="55" height="55" fill="white"/>
</clipPath>
</defs>
</svg>
