<svg width="72" height="72" viewBox="0 0 72 72" fill="none" xmlns="http://www.w3.org/2000/svg">
<rect width="72" height="72" rx="7" fill="#FFCB05"/>
<path d="M46.8754 30.1002H43.1748V27.2495H49.1504C49.1508 27.2495 49.1512 27.2495 49.1515 27.2495C49.6208 27.2495 50.0011 26.8689 50.0011 26.3999C50.0011 26.1518 49.8951 25.9288 49.7256 25.7735L48.0768 24.1247L49.7513 22.4504C49.9942 22.2074 50.0668 21.8419 49.9354 21.5246C49.804 21.2071 49.4942 21 49.1506 21H42.3251C41.8561 21 41.4757 21.3803 41.4757 21.8496V30.1002H40.505C38.7821 30.1002 37.3804 31.5021 37.3804 33.2251V34.9959C36.9527 34.7757 36.4683 34.6505 35.955 34.6505H35.045C33.322 34.6505 31.9203 36.0522 31.9203 37.7751V39.5461C31.4924 39.3259 31.0081 39.2007 30.4948 39.2007H29.5849C27.8617 39.2007 26.4601 40.6024 26.4601 42.3253V44.0963C26.0324 43.8759 25.548 43.7507 25.0347 43.7507H24.1247C22.4017 43.7507 21 45.1524 21 46.8754V49.1504C21 49.6197 21.3803 50 21.8496 50H49.1504C49.6197 50 50 49.6197 50 49.1504V33.2251C50 31.5021 48.5983 30.1002 46.8754 30.1002ZM43.1748 22.6993H47.0993L46.2746 23.5239C46.1151 23.6832 46.0257 23.8994 46.0257 24.1247C46.0257 24.3501 46.1151 24.5661 46.2746 24.7256L47.0993 25.5502H43.1748V22.6993ZM22.6993 46.8754C22.6993 46.0894 23.3387 45.45 24.1247 45.45H25.0347C25.8206 45.45 26.4601 46.0894 26.4601 46.8754V48.3009H22.6993V46.8754ZM28.1593 46.8754V42.3253C28.1593 41.5392 28.7988 40.8998 29.5847 40.8998H30.4948C31.2807 40.8998 31.9201 41.5392 31.9201 42.3253V48.3009H28.1593V46.8754ZM33.6194 42.3253V37.7751C33.6194 36.9892 34.2591 36.3498 35.045 36.3498H35.955C36.7409 36.3498 37.3804 36.9892 37.3804 37.7751V48.3009H33.6194V42.3253ZM48.3007 48.3009H39.0797V33.2251C39.0797 32.439 39.7191 31.7995 40.505 31.7995H46.8754C47.6613 31.7995 48.3007 32.439 48.3007 33.2251V48.3009Z" fill="#333333"/>
</svg>
