<svg width="29" height="29" viewBox="0 0 29 29" fill="none" xmlns="http://www.w3.org/2000/svg">
<circle cx="14.5" cy="14.5" r="14.5" fill="white"/>
<path d="M14.3583 18.7772C16.443 18.7772 18.1389 17.0812 18.1389 14.9966C18.1389 12.9125 16.443 11.2166 14.3583 11.2166C12.2742 11.2166 10.5783 12.9125 10.5783 14.9966C10.5783 17.0812 12.2742 18.7772 14.3583 18.7772ZM14.3583 12.8142C15.562 12.8142 16.5412 13.7934 16.5412 14.9966C16.5412 16.2003 15.562 17.18 14.3583 17.18C13.1552 17.18 12.1755 16.2003 12.1755 14.9966C12.1755 13.7934 13.1552 12.8142 14.3583 12.8142Z" fill="#7AC300"/>
<path d="M10.7223 22.3351H17.9949C20.0366 22.3351 21.6974 20.6743 21.6974 18.6326V11.3605C21.6974 9.31872 20.0366 7.65796 17.9949 7.65796H10.7223C8.68054 7.65796 7.01978 9.31872 7.01978 11.3605V18.6331C7.01978 20.6748 8.68054 22.3351 10.7223 22.3351ZM8.61696 11.3605C8.61696 10.1997 9.5615 9.25514 10.7223 9.25514H17.9949C19.1557 9.25514 20.1002 10.1997 20.1002 11.3605V18.6331C20.1002 19.7939 19.1557 20.7384 17.9949 20.7384H10.7223C9.5615 20.7384 8.61696 19.7939 8.61696 18.6331V11.3605Z" fill="#7AC300"/>
<path d="M18.2603 11.9981C18.7543 11.9981 19.1547 11.5977 19.1547 11.1037C19.1547 10.6097 18.7543 10.2092 18.2603 10.2092C17.7663 10.2092 17.3658 10.6097 17.3658 11.1037C17.3658 11.5977 17.7663 11.9981 18.2603 11.9981Z" fill="#7AC300"/>
</svg>
