<svg width="265" height="36" viewBox="0 0 265 36" fill="none" xmlns="http://www.w3.org/2000/svg">
<path opacity="0.9" d="M0.132 35V30.392L8.964 13.736C9.412 12.904 9.668 12.184 9.732 11.576C9.796 10.936 9.828 10.152 9.828 9.224C9.828 8.808 9.812 8.376 9.78 7.928C9.78 7.448 9.7 7.032 9.54 6.68C9.38 6.328 9.14 6.04 8.82 5.816C8.5 5.56 8.036 5.432 7.428 5.432C6.692 5.432 6.1 5.64 5.652 6.056C5.236 6.472 5.028 7.08 5.028 7.88V10.664H0.132V7.976C0.132 6.952 0.324 5.992 0.708 5.096C1.092 4.2 1.62 3.416 2.292 2.744C2.932 2.072 3.7 1.544 4.596 1.16C5.492 0.743998 6.452 0.535997 7.476 0.535997C8.756 0.535997 9.844 0.775998 10.74 1.256C11.668 1.704 12.436 2.328 13.044 3.128C13.62 3.928 14.036 4.84 14.292 5.864C14.58 6.888 14.724 7.976 14.724 9.128C14.724 9.96 14.708 10.664 14.676 11.24C14.644 11.784 14.58 12.312 14.484 12.824C14.388 13.336 14.228 13.848 14.004 14.36C13.78 14.872 13.476 15.496 13.092 16.232L5.892 30.104H14.724V35H0.132ZM39.7136 0.823999L34.1456 15.176L34.2416 15.272C34.4016 15.144 34.6416 15.048 34.9616 14.984C35.3136 14.888 35.7616 14.84 36.3056 14.84C37.1696 14.84 37.9696 15.048 38.7056 15.464C39.4416 15.88 40.0176 16.408 40.4336 17.048C40.6576 17.4 40.8336 17.752 40.9616 18.104C41.0896 18.456 41.2016 18.92 41.2976 19.496C41.3616 20.072 41.4096 20.808 41.4416 21.704C41.4736 22.568 41.4896 23.672 41.4896 25.016C41.4896 26.136 41.4736 27.064 41.4416 27.8C41.4096 28.504 41.3616 29.096 41.2976 29.576C41.2016 30.088 41.0736 30.52 40.9136 30.872C40.7856 31.224 40.6096 31.592 40.3856 31.976C39.7456 33.032 38.8816 33.848 37.7936 34.424C36.7376 35 35.5376 35.288 34.1936 35.288C32.8496 35.288 31.6496 35 30.5936 34.424C29.5376 33.816 28.6896 33 28.0496 31.976C27.7936 31.592 27.5856 31.224 27.4256 30.872C27.2976 30.52 27.2016 30.088 27.1376 29.576C27.0416 29.096 26.9776 28.504 26.9456 27.8C26.9136 27.064 26.8976 26.136 26.8976 25.016C26.8976 23.96 26.9136 23.096 26.9456 22.424C26.9776 21.72 27.0256 21.112 27.0896 20.6C27.1536 20.12 27.2496 19.688 27.3776 19.304C27.5056 18.888 27.6496 18.456 27.8096 18.008L34.2416 0.823999H39.7136ZM36.5936 21.608C36.5936 20.872 36.3536 20.28 35.8736 19.832C35.3936 19.384 34.8336 19.16 34.1936 19.16C33.5536 19.16 32.9936 19.384 32.5136 19.832C32.0336 20.28 31.7936 20.872 31.7936 21.608V27.944C31.7936 28.68 32.0336 29.272 32.5136 29.72C32.9936 30.168 33.5536 30.392 34.1936 30.392C34.8336 30.392 35.3936 30.168 35.8736 29.72C36.3536 29.272 36.5936 28.68 36.5936 27.944V21.608ZM44.757 7.88C44.757 6.728 44.949 5.704 45.333 4.808C45.749 3.912 46.293 3.144 46.965 2.504C47.637 1.864 48.405 1.384 49.269 1.064C50.165 0.711998 51.093 0.535997 52.053 0.535997C53.013 0.535997 53.925 0.711998 54.789 1.064C55.685 1.384 56.469 1.864 57.141 2.504C57.813 3.144 58.341 3.912 58.725 4.808C59.141 5.704 59.349 6.728 59.349 7.88V27.944C59.349 29.096 59.141 30.12 58.725 31.016C58.341 31.912 57.813 32.68 57.141 33.32C56.469 33.96 55.685 34.456 54.789 34.808C53.925 35.128 53.013 35.288 52.053 35.288C51.093 35.288 50.165 35.128 49.269 34.808C48.405 34.456 47.637 33.96 46.965 33.32C46.293 32.68 45.749 31.912 45.333 31.016C44.949 30.12 44.757 29.096 44.757 27.944V7.88ZM49.653 27.944C49.653 28.648 49.877 29.24 50.325 29.72C50.773 30.168 51.349 30.392 52.053 30.392C52.757 30.392 53.333 30.168 53.781 29.72C54.229 29.24 54.453 28.648 54.453 27.944V7.88C54.453 7.176 54.229 6.6 53.781 6.152C53.333 5.672 52.757 5.432 52.053 5.432C51.349 5.432 50.773 5.672 50.325 6.152C49.877 6.6 49.653 7.176 49.653 7.88V27.944ZM72.3124 7.832C72.3124 7.16 72.0724 6.6 71.5924 6.152C71.1124 5.672 70.5524 5.432 69.9124 5.432C69.2724 5.432 68.7124 5.672 68.2324 6.152C67.7524 6.6 67.5124 7.16 67.5124 7.832V12.824C67.5124 13.496 67.7524 14.072 68.2324 14.552C68.7124 15 69.2724 15.224 69.9124 15.224C70.5524 15.224 71.1124 15 71.5924 14.552C72.0724 14.072 72.3124 13.496 72.3124 12.824V7.832ZM62.6164 9.752C62.6164 8.824 62.6484 8.04 62.7124 7.4C62.7764 6.728 62.8884 6.152 63.0484 5.672C63.2084 5.192 63.3844 4.76 63.5764 4.376C63.8004 3.992 64.0724 3.592 64.3924 3.176C65.0324 2.344 65.8324 1.704 66.7924 1.256C67.7524 0.775998 68.7924 0.535997 69.9124 0.535997C71.0324 0.535997 72.0724 0.775998 73.0324 1.256C73.9924 1.704 74.7924 2.344 75.4324 3.176C75.7524 3.592 76.0244 3.992 76.2484 4.376C76.4724 4.76 76.6644 5.192 76.8244 5.672C76.9844 6.152 77.0804 6.728 77.1124 7.4C77.1764 8.04 77.2084 8.824 77.2084 9.752C77.2084 10.776 77.1924 11.64 77.1604 12.344C77.1284 13.048 77.0324 13.672 76.8724 14.216C76.7124 14.76 76.4564 15.256 76.1044 15.704C75.7844 16.12 75.3364 16.568 74.7604 17.048C75.3364 17.496 75.7844 17.944 76.1044 18.392C76.4564 18.84 76.7124 19.368 76.8724 19.976C77.0324 20.584 77.1284 21.336 77.1604 22.232C77.1924 23.096 77.2084 24.168 77.2084 25.448C77.2084 26.504 77.1764 27.384 77.1124 28.088C77.0804 28.76 77.0164 29.352 76.9204 29.864C76.8244 30.376 76.6804 30.808 76.4884 31.16C76.3284 31.512 76.1204 31.88 75.8644 32.264C75.3204 33.096 74.5524 33.816 73.5604 34.424C72.5684 35 71.3524 35.288 69.9124 35.288C68.4724 35.288 67.2564 35 66.2644 34.424C65.2724 33.816 64.5044 33.096 63.9604 32.264C63.7044 31.88 63.4804 31.512 63.2884 31.16C63.1284 30.808 63.0004 30.376 62.9044 29.864C62.8084 29.352 62.7284 28.76 62.6644 28.088C62.6324 27.384 62.6164 26.504 62.6164 25.448C62.6164 24.168 62.6324 23.096 62.6644 22.232C62.6964 21.336 62.7924 20.584 62.9524 19.976C63.1124 19.368 63.3524 18.84 63.6724 18.392C64.0244 17.944 64.4884 17.496 65.0644 17.048C64.4884 16.568 64.0244 16.12 63.6724 15.704C63.3524 15.256 63.1124 14.76 62.9524 14.216C62.7924 13.672 62.6964 13.048 62.6644 12.344C62.6324 11.64 62.6164 10.776 62.6164 9.752ZM72.3124 21.272C72.3124 20.6 72.0724 20.04 71.5924 19.592C71.1124 19.112 70.5524 18.872 69.9124 18.872C69.2724 18.872 68.7124 19.112 68.2324 19.592C67.7524 20.04 67.5124 20.6 67.5124 21.272V27.992C67.5124 28.664 67.7524 29.24 68.2324 29.72C68.7124 30.168 69.2724 30.392 69.9124 30.392C70.5524 30.392 71.1124 30.168 71.5924 29.72C72.0724 29.24 72.3124 28.664 72.3124 27.992V21.272ZM91.158 35L96.726 20.648L96.63 20.552C96.47 20.68 96.214 20.792 95.862 20.888C95.542 20.952 95.11 20.984 94.566 20.984C93.702 20.984 92.902 20.776 92.166 20.36C91.43 19.944 90.854 19.416 90.438 18.776C90.214 18.456 90.038 18.12 89.91 17.768C89.782 17.384 89.686 16.904 89.622 16.328C89.526 15.752 89.462 15.032 89.43 14.168C89.398 13.272 89.382 12.152 89.382 10.808C89.382 9.688 89.398 8.776 89.43 8.072C89.462 7.336 89.526 6.712 89.622 6.2C89.686 5.72 89.782 5.304 89.91 4.952C90.07 4.6 90.262 4.232 90.486 3.848C91.126 2.792 91.974 1.976 93.03 1.4C94.118 0.823997 95.334 0.535997 96.678 0.535997C98.022 0.535997 99.222 0.839997 100.278 1.448C101.334 2.024 102.182 2.824 102.822 3.848C103.046 4.232 103.238 4.6 103.398 4.952C103.558 5.304 103.686 5.72 103.782 6.2C103.846 6.712 103.894 7.336 103.926 8.072C103.958 8.776 103.974 9.688 103.974 10.808C103.974 11.864 103.958 12.744 103.926 13.448C103.894 14.12 103.846 14.696 103.782 15.176C103.686 15.688 103.574 16.152 103.446 16.568C103.35 16.952 103.222 17.368 103.062 17.816L96.63 35H91.158ZM94.278 14.216C94.278 14.952 94.518 15.544 94.998 15.992C95.478 16.44 96.038 16.664 96.678 16.664C97.318 16.664 97.878 16.44 98.358 15.992C98.838 15.544 99.078 14.952 99.078 14.216V7.88C99.078 7.144 98.838 6.552 98.358 6.104C97.878 5.656 97.318 5.432 96.678 5.432C96.038 5.432 95.478 5.656 94.998 6.104C94.518 6.552 94.278 7.144 94.278 7.88V14.216ZM107.241 7.88C107.241 6.728 107.433 5.704 107.817 4.808C108.233 3.912 108.777 3.144 109.449 2.504C110.121 1.864 110.889 1.384 111.753 1.064C112.649 0.711998 113.577 0.535997 114.537 0.535997C115.497 0.535997 116.409 0.711998 117.273 1.064C118.169 1.384 118.953 1.864 119.625 2.504C120.297 3.144 120.825 3.912 121.209 4.808C121.625 5.704 121.833 6.728 121.833 7.88V27.944C121.833 29.096 121.625 30.12 121.209 31.016C120.825 31.912 120.297 32.68 119.625 33.32C118.953 33.96 118.169 34.456 117.273 34.808C116.409 35.128 115.497 35.288 114.537 35.288C113.577 35.288 112.649 35.128 111.753 34.808C110.889 34.456 110.121 33.96 109.449 33.32C108.777 32.68 108.233 31.912 107.817 31.016C107.433 30.12 107.241 29.096 107.241 27.944V7.88ZM112.137 27.944C112.137 28.648 112.361 29.24 112.809 29.72C113.257 30.168 113.833 30.392 114.537 30.392C115.241 30.392 115.817 30.168 116.265 29.72C116.713 29.24 116.937 28.648 116.937 27.944V7.88C116.937 7.176 116.713 6.6 116.265 6.152C115.817 5.672 115.241 5.432 114.537 5.432C113.833 5.432 113.257 5.672 112.809 6.152C112.361 6.6 112.137 7.176 112.137 7.88V27.944ZM125.101 7.88C125.101 6.728 125.293 5.704 125.677 4.808C126.093 3.912 126.637 3.144 127.309 2.504C127.981 1.864 128.749 1.384 129.613 1.064C130.509 0.711998 131.437 0.535997 132.397 0.535997C133.357 0.535997 134.269 0.711998 135.133 1.064C136.029 1.384 136.813 1.864 137.485 2.504C138.157 3.144 138.685 3.912 139.069 4.808C139.485 5.704 139.693 6.728 139.693 7.88V27.944C139.693 29.096 139.485 30.12 139.069 31.016C138.685 31.912 138.157 32.68 137.485 33.32C136.813 33.96 136.029 34.456 135.133 34.808C134.269 35.128 133.357 35.288 132.397 35.288C131.437 35.288 130.509 35.128 129.613 34.808C128.749 34.456 127.981 33.96 127.309 33.32C126.637 32.68 126.093 31.912 125.677 31.016C125.293 30.12 125.101 29.096 125.101 27.944V7.88ZM129.997 27.944C129.997 28.648 130.221 29.24 130.669 29.72C131.117 30.168 131.693 30.392 132.397 30.392C133.101 30.392 133.677 30.168 134.125 29.72C134.573 29.24 134.797 28.648 134.797 27.944V7.88C134.797 7.176 134.573 6.6 134.125 6.152C133.677 5.672 133.101 5.432 132.397 5.432C131.693 5.432 131.117 5.672 130.669 6.152C130.221 6.6 129.997 7.176 129.997 7.88V27.944ZM151.866 7.88C151.866 6.728 152.058 5.704 152.442 4.808C152.858 3.912 153.402 3.144 154.074 2.504C154.746 1.864 155.514 1.384 156.378 1.064C157.274 0.711998 158.202 0.535997 159.162 0.535997C160.122 0.535997 161.034 0.711998 161.898 1.064C162.794 1.384 163.578 1.864 164.25 2.504C164.922 3.144 165.45 3.912 165.834 4.808C166.25 5.704 166.458 6.728 166.458 7.88V27.944C166.458 29.096 166.25 30.12 165.834 31.016C165.45 31.912 164.922 32.68 164.25 33.32C163.578 33.96 162.794 34.456 161.898 34.808C161.034 35.128 160.122 35.288 159.162 35.288C158.202 35.288 157.274 35.128 156.378 34.808C155.514 34.456 154.746 33.96 154.074 33.32C153.402 32.68 152.858 31.912 152.442 31.016C152.058 30.12 151.866 29.096 151.866 27.944V7.88ZM156.762 27.944C156.762 28.648 156.986 29.24 157.434 29.72C157.882 30.168 158.458 30.392 159.162 30.392C159.866 30.392 160.442 30.168 160.89 29.72C161.338 29.24 161.562 28.648 161.562 27.944V7.88C161.562 7.176 161.338 6.6 160.89 6.152C160.442 5.672 159.866 5.432 159.162 5.432C158.458 5.432 157.882 5.672 157.434 6.152C156.986 6.6 156.762 7.176 156.762 7.88V27.944ZM169.726 7.88C169.726 6.728 169.918 5.704 170.302 4.808C170.718 3.912 171.262 3.144 171.934 2.504C172.606 1.864 173.374 1.384 174.238 1.064C175.134 0.711998 176.062 0.535997 177.022 0.535997C177.982 0.535997 178.894 0.711998 179.758 1.064C180.654 1.384 181.438 1.864 182.11 2.504C182.782 3.144 183.31 3.912 183.694 4.808C184.11 5.704 184.318 6.728 184.318 7.88V27.944C184.318 29.096 184.11 30.12 183.694 31.016C183.31 31.912 182.782 32.68 182.11 33.32C181.438 33.96 180.654 34.456 179.758 34.808C178.894 35.128 177.982 35.288 177.022 35.288C176.062 35.288 175.134 35.128 174.238 34.808C173.374 34.456 172.606 33.96 171.934 33.32C171.262 32.68 170.718 31.912 170.302 31.016C169.918 30.12 169.726 29.096 169.726 27.944V7.88ZM174.622 27.944C174.622 28.648 174.846 29.24 175.294 29.72C175.742 30.168 176.318 30.392 177.022 30.392C177.726 30.392 178.302 30.168 178.75 29.72C179.198 29.24 179.422 28.648 179.422 27.944V7.88C179.422 7.176 179.198 6.6 178.75 6.152C178.302 5.672 177.726 5.432 177.022 5.432C176.318 5.432 175.742 5.672 175.294 6.152C174.846 6.6 174.622 7.176 174.622 7.88V27.944ZM187.585 7.88C187.585 6.728 187.777 5.704 188.161 4.808C188.577 3.912 189.121 3.144 189.793 2.504C190.465 1.864 191.233 1.384 192.097 1.064C192.993 0.711998 193.921 0.535997 194.881 0.535997C195.841 0.535997 196.753 0.711998 197.617 1.064C198.513 1.384 199.297 1.864 199.969 2.504C200.641 3.144 201.169 3.912 201.553 4.808C201.969 5.704 202.177 6.728 202.177 7.88V27.944C202.177 29.096 201.969 30.12 201.553 31.016C201.169 31.912 200.641 32.68 199.969 33.32C199.297 33.96 198.513 34.456 197.617 34.808C196.753 35.128 195.841 35.288 194.881 35.288C193.921 35.288 192.993 35.128 192.097 34.808C191.233 34.456 190.465 33.96 189.793 33.32C189.121 32.68 188.577 31.912 188.161 31.016C187.777 30.12 187.585 29.096 187.585 27.944V7.88ZM192.481 27.944C192.481 28.648 192.705 29.24 193.153 29.72C193.601 30.168 194.177 30.392 194.881 30.392C195.585 30.392 196.161 30.168 196.609 29.72C197.057 29.24 197.281 28.648 197.281 27.944V7.88C197.281 7.176 197.057 6.6 196.609 6.152C196.161 5.672 195.585 5.432 194.881 5.432C194.177 5.432 193.601 5.672 193.153 6.152C192.705 6.6 192.481 7.176 192.481 7.88V27.944ZM214.351 7.88C214.351 6.728 214.543 5.704 214.927 4.808C215.343 3.912 215.887 3.144 216.559 2.504C217.231 1.864 217.999 1.384 218.863 1.064C219.759 0.711998 220.687 0.535997 221.647 0.535997C222.607 0.535997 223.519 0.711998 224.383 1.064C225.279 1.384 226.063 1.864 226.735 2.504C227.407 3.144 227.935 3.912 228.319 4.808C228.735 5.704 228.943 6.728 228.943 7.88V27.944C228.943 29.096 228.735 30.12 228.319 31.016C227.935 31.912 227.407 32.68 226.735 33.32C226.063 33.96 225.279 34.456 224.383 34.808C223.519 35.128 222.607 35.288 221.647 35.288C220.687 35.288 219.759 35.128 218.863 34.808C217.999 34.456 217.231 33.96 216.559 33.32C215.887 32.68 215.343 31.912 214.927 31.016C214.543 30.12 214.351 29.096 214.351 27.944V7.88ZM219.247 27.944C219.247 28.648 219.471 29.24 219.919 29.72C220.367 30.168 220.943 30.392 221.647 30.392C222.351 30.392 222.927 30.168 223.375 29.72C223.823 29.24 224.047 28.648 224.047 27.944V7.88C224.047 7.176 223.823 6.6 223.375 6.152C222.927 5.672 222.351 5.432 221.647 5.432C220.943 5.432 220.367 5.672 219.919 6.152C219.471 6.6 219.247 7.176 219.247 7.88V27.944ZM232.21 7.88C232.21 6.728 232.402 5.704 232.786 4.808C233.202 3.912 233.746 3.144 234.418 2.504C235.09 1.864 235.858 1.384 236.722 1.064C237.618 0.711998 238.546 0.535997 239.506 0.535997C240.466 0.535997 241.378 0.711998 242.242 1.064C243.138 1.384 243.922 1.864 244.594 2.504C245.266 3.144 245.794 3.912 246.178 4.808C246.594 5.704 246.802 6.728 246.802 7.88V27.944C246.802 29.096 246.594 30.12 246.178 31.016C245.794 31.912 245.266 32.68 244.594 33.32C243.922 33.96 243.138 34.456 242.242 34.808C241.378 35.128 240.466 35.288 239.506 35.288C238.546 35.288 237.618 35.128 236.722 34.808C235.858 34.456 235.09 33.96 234.418 33.32C233.746 32.68 233.202 31.912 232.786 31.016C232.402 30.12 232.21 29.096 232.21 27.944V7.88ZM237.106 27.944C237.106 28.648 237.33 29.24 237.778 29.72C238.226 30.168 238.802 30.392 239.506 30.392C240.21 30.392 240.786 30.168 241.234 29.72C241.682 29.24 241.906 28.648 241.906 27.944V7.88C241.906 7.176 241.682 6.6 241.234 6.152C240.786 5.672 240.21 5.432 239.506 5.432C238.802 5.432 238.226 5.672 237.778 6.152C237.33 6.6 237.106 7.176 237.106 7.88V27.944ZM250.07 7.88C250.07 6.728 250.262 5.704 250.646 4.808C251.062 3.912 251.606 3.144 252.278 2.504C252.95 1.864 253.718 1.384 254.582 1.064C255.478 0.711998 256.406 0.535997 257.366 0.535997C258.326 0.535997 259.238 0.711998 260.102 1.064C260.998 1.384 261.782 1.864 262.454 2.504C263.126 3.144 263.654 3.912 264.038 4.808C264.454 5.704 264.662 6.728 264.662 7.88V27.944C264.662 29.096 264.454 30.12 264.038 31.016C263.654 31.912 263.126 32.68 262.454 33.32C261.782 33.96 260.998 34.456 260.102 34.808C259.238 35.128 258.326 35.288 257.366 35.288C256.406 35.288 255.478 35.128 254.582 34.808C253.718 34.456 252.95 33.96 252.278 33.32C251.606 32.68 251.062 31.912 250.646 31.016C250.262 30.12 250.07 29.096 250.07 27.944V7.88ZM254.966 27.944C254.966 28.648 255.19 29.24 255.638 29.72C256.086 30.168 256.662 30.392 257.366 30.392C258.07 30.392 258.646 30.168 259.094 29.72C259.542 29.24 259.766 28.648 259.766 27.944V7.88C259.766 7.176 259.542 6.6 259.094 6.152C258.646 5.672 258.07 5.432 257.366 5.432C256.662 5.432 256.086 5.672 255.638 6.152C255.19 6.6 254.966 7.176 254.966 7.88V27.944Z" fill="white"/>
</svg>
