<svg width="29" height="29" viewBox="0 0 29 29" fill="none" xmlns="http://www.w3.org/2000/svg">
<circle cx="14.5" cy="14.5" r="14.5" fill="white"/>
<path d="M13.762 17.2988C12.6005 17.1808 11.5519 16.9006 10.6556 16.2176C10.5442 16.1318 10.4296 16.0506 10.3276 15.9557C9.93514 15.5881 9.89589 15.167 10.2067 14.7321C10.472 14.3599 10.9178 14.2604 11.3824 14.4748C11.4719 14.5161 11.5582 14.5682 11.6398 14.6233C13.3115 15.7444 15.608 15.775 17.286 14.6739C17.4524 14.5498 17.6298 14.4488 17.8354 14.3967C18.2357 14.2972 18.6093 14.4396 18.8243 14.7811C19.0692 15.1716 19.066 15.5529 18.7647 15.8561C18.3 16.3202 17.7428 16.6571 17.1228 16.8914C16.5357 17.1135 15.8937 17.2252 15.258 17.2988C15.3537 17.4014 15.3992 17.4504 15.4589 17.5101C16.3222 18.3554 17.1887 19.1993 18.0489 20.0477C18.3424 20.3371 18.4036 20.6955 18.2419 21.0324C18.0661 21.3999 17.6706 21.6419 17.2829 21.6159C17.038 21.599 16.8465 21.4796 16.6754 21.3126C16.024 20.6725 15.36 20.0461 14.7227 19.3937C14.5375 19.2039 14.448 19.2406 14.2832 19.4045C13.6286 20.063 12.9615 20.7108 12.2928 21.3555C11.9914 21.6449 11.6335 21.697 11.2851 21.5316C10.9146 21.357 10.6792 20.9864 10.6964 20.6158C10.709 20.3647 10.8361 20.1732 11.0119 20.0017C11.8674 19.1671 12.7198 18.3325 13.5705 17.4994C13.6271 17.4442 13.6804 17.3845 13.762 17.2988Z" fill="#7AC300"/>
<path d="M14.4703 14.4014C12.3983 14.3953 10.6983 12.7184 10.7093 10.6923C10.7218 8.64477 12.4234 6.99389 14.5158 7.00002C16.6129 7.00614 18.2972 8.67999 18.2862 10.7489C18.2752 12.7704 16.5642 14.4075 14.4703 14.4014ZM16.3539 10.6969C16.3508 9.69073 15.5298 8.89133 14.5001 8.8898C13.4625 8.88827 12.6337 9.70452 12.6431 10.7183C12.651 11.7199 13.4782 12.5147 14.5111 12.5116C15.5392 12.5086 16.357 11.703 16.3539 10.6969Z" fill="#7AC300"/>
</svg>
