<svg width="20" height="20" viewBox="0 0 20 20" fill="none" xmlns="http://www.w3.org/2000/svg">
<path d="M10 0C6.32409 0 3.33334 2.99074 3.33334 6.66668C3.33334 7.7702 3.60924 8.86434 4.13373 9.8348L9.63545 19.7852C9.7087 19.9178 9.84827 20 10 20C10.1518 20 10.2914 19.9178 10.3646 19.7852L15.8683 9.83152C16.3908 8.86434 16.6667 7.77016 16.6667 6.66664C16.6667 2.99074 13.676 0 10 0ZM10 10C8.16205 10 6.6667 8.50465 6.6667 6.66668C6.6667 4.82871 8.16205 3.33336 10 3.33336C11.838 3.33336 13.3333 4.82871 13.3333 6.66668C13.3333 8.50465 11.838 10 10 10Z" fill="#A6CE39"/>
</svg>
