<svg width="29" height="29" viewBox="0 0 29 29" fill="none" xmlns="http://www.w3.org/2000/svg">
<circle cx="14.5" cy="14.5" r="14.5" fill="white"/>
<path d="M7.0009 19.6609C8.35887 20.5093 9.96982 21 11.6967 21C16.5479 21 20.4804 17.127 20.4804 12.3501C20.4804 12.2306 20.4777 12.1124 20.4732 11.9943C20.6487 11.8585 21.734 11.0018 22 10.4511C22 10.4511 21.1189 10.8117 20.2561 10.8968C20.2543 10.8968 20.2525 10.8973 20.2507 10.8973C20.2507 10.8973 20.2525 10.8964 20.2552 10.8942C20.3344 10.8417 21.4457 10.097 21.5961 9.20944C21.5961 9.20944 20.9729 9.53704 20.0998 9.82363C19.9552 9.87081 19.8039 9.91755 19.6481 9.96032C19.0852 9.36905 18.286 9 17.3982 9C15.6955 9 14.316 10.3585 14.316 12.0335C14.316 12.2698 14.3437 12.5 14.3957 12.7209C14.1579 12.7112 10.5344 12.511 8.06964 9.57187C8.06964 9.57187 6.59659 11.5525 8.94764 13.5891C8.94764 13.5891 8.23306 13.5608 7.61653 13.1984C7.61653 13.1984 7.38998 15.5979 10.0527 16.2112C10.0527 16.2112 9.5288 16.4065 8.69288 16.2672C8.69288 16.2672 9.16032 18.2059 11.5257 18.3871C11.5257 18.3871 9.65507 20.0511 7 19.6609H7.0009Z" fill="#7AC300"/>
</svg>
