<svg width="29" height="29" viewBox="0 0 29 29" fill="none" xmlns="http://www.w3.org/2000/svg">
<circle cx="14.5" cy="14.5" r="14.5" fill="white"/>
<path d="M8.94824 11.0321C9.45067 12.2321 10.0875 13.3636 10.9262 14.3793C11.0376 14.5146 11.1779 14.6347 11.3256 14.7326C11.5414 14.8759 11.7452 14.8256 11.8326 14.5867C11.9256 14.3362 12.0107 13.8285 12.0157 13.5656C12.0295 12.8781 12.0139 12.4279 11.9752 11.7413C11.9504 11.3017 11.7889 10.9155 11.1199 10.799C10.9133 10.7629 10.894 10.5983 11.027 10.4346C11.303 10.0933 11.6881 10.0386 12.1055 10.0172C12.7818 9.98206 13.4605 10.0105 14.1377 10.0172C14.4133 10.0194 14.6912 10.0412 14.9627 10.0982C15.317 10.1729 15.507 10.4132 15.565 10.7478C15.5953 10.9204 15.6105 11.098 15.6064 11.2724C15.5889 12.0225 15.5511 12.7722 15.5424 13.5224C15.5387 13.8169 15.5608 14.1186 15.6261 14.4052C15.7172 14.8047 15.9984 14.9048 16.2859 14.6161C16.6513 14.2494 16.9733 13.837 17.2756 13.4178C17.8245 12.6557 18.2349 11.8196 18.5878 10.9574C18.7705 10.5124 18.9103 10.4159 19.4054 10.4145C20.3357 10.4123 21.2661 10.4119 22.1964 10.4145C22.3616 10.4154 22.5341 10.4306 22.6896 10.4782C22.9422 10.556 23.0425 10.7554 22.9836 11.0085C22.8456 11.6012 22.5143 12.1053 22.1596 12.5894C21.5904 13.3662 20.9937 14.1248 20.4112 14.8928C20.3371 14.9907 20.2713 15.0948 20.2106 15.2011C19.9925 15.582 20.0077 15.7956 20.3256 16.1124C20.8313 16.6169 21.3733 17.089 21.8628 17.6078C22.2189 17.9851 22.5484 18.394 22.8304 18.8251C23.1874 19.3697 22.9666 19.8832 22.3004 19.9744C21.8812 20.0318 19.8324 19.9748 19.7266 19.9744C19.1758 19.9722 18.6932 19.7871 18.3044 19.4253C17.8719 19.0227 17.479 18.5809 17.064 18.1608C16.9388 18.034 16.8054 17.9126 16.6614 17.8067C16.3218 17.5562 15.9882 17.6118 15.8295 17.9975C15.6938 18.329 15.5769 19.1989 15.5714 19.2732C15.5429 19.6616 15.2871 19.9094 14.8371 19.9335C13.5377 20.0015 12.2789 19.8618 11.1057 19.254C10.1114 18.7393 9.3177 18.0113 8.62985 17.1624C7.53757 15.8143 6.67443 14.3317 5.88673 12.8065C5.84624 12.7286 5.04843 11.0868 5.02727 11.009C4.95595 10.7491 5.02266 10.5013 5.24949 10.4159C5.39074 10.3625 8.0216 10.4159 8.06531 10.4181C8.48492 10.4399 8.77156 10.6112 8.94824 11.0321Z" fill="#7AC300"/>
</svg>
