<svg viewBox="0 0 158 158" fill="none" xmlns="http://www.w3.org/2000/svg">
<rect width="158" height="158" fill="#19502E"/>
<path d="M139 19H19V139H139V19Z" fill="white"/>
<path d="M69.4 31H65.56V34.84H69.4V31Z" fill="#19502E"/>
<path d="M88.6 31H84.76V34.84H88.6V31Z" fill="#19502E"/>
<path d="M96.28 31H92.44V34.84H96.28V31Z" fill="#19502E"/>
<path d="M65.56 34.84H61.72V38.68H65.56V34.84Z" fill="#19502E"/>
<path d="M69.4 34.84H65.56V38.68H69.4V34.84Z" fill="#19502E"/>
<path d="M77.08 34.84H73.24V38.68H77.08V34.84Z" fill="#19502E"/>
<path d="M80.92 34.84H77.08V38.68H80.92V34.84Z" fill="#19502E"/>
<path d="M84.76 34.84H80.92V38.68H84.76V34.84Z" fill="#19502E"/>
<path d="M88.6 34.84H84.76V38.68H88.6V34.84Z" fill="#19502E"/>
<path d="M69.4 38.6801H65.56V42.5201H69.4V38.6801Z" fill="#19502E"/>
<path d="M73.24 38.6801H69.4V42.5201H73.24V38.6801Z" fill="#19502E"/>
<path d="M77.08 38.6801H73.24V42.5201H77.08V38.6801Z" fill="#19502E"/>
<path d="M65.56 42.52H61.72V46.36H65.56V42.52Z" fill="#19502E"/>
<path d="M69.4 42.52H65.56V46.36H69.4V42.52Z" fill="#19502E"/>
<path d="M77.08 42.52H73.24V46.36H77.08V42.52Z" fill="#19502E"/>
<path d="M84.76 42.52H80.92V46.36H84.76V42.52Z" fill="#19502E"/>
<path d="M92.44 42.52H88.6V46.36H92.44V42.52Z" fill="#19502E"/>
<path d="M96.28 42.52H92.44V46.36H96.28V42.52Z" fill="#19502E"/>
<path d="M73.24 46.36H69.4V50.2H73.24V46.36Z" fill="#19502E"/>
<path d="M80.92 46.36H77.08V50.2H80.92V46.36Z" fill="#19502E"/>
<path d="M92.44 46.36H88.6V50.2H92.44V46.36Z" fill="#19502E"/>
<path d="M96.28 46.36H92.44V50.2H96.28V46.36Z" fill="#19502E"/>
<path d="M65.56 50.2H61.72V54.04H65.56V50.2Z" fill="#19502E"/>
<path d="M73.24 50.2H69.4V54.04H73.24V50.2Z" fill="#19502E"/>
<path d="M84.76 50.2H80.92V54.04H84.76V50.2Z" fill="#19502E"/>
<path d="M88.6 50.2H84.76V54.04H88.6V50.2Z" fill="#19502E"/>
<path d="M92.44 50.2H88.6V54.04H92.44V50.2Z" fill="#19502E"/>
<path d="M65.56 54.04H61.72V57.88H65.56V54.04Z" fill="#19502E"/>
<path d="M73.24 54.04H69.4V57.88H73.24V54.04Z" fill="#19502E"/>
<path d="M80.92 54.04H77.08V57.88H80.92V54.04Z" fill="#19502E"/>
<path d="M88.6 54.04H84.76V57.88H88.6V54.04Z" fill="#19502E"/>
<path d="M96.28 54.04H92.44V57.88H96.28V54.04Z" fill="#19502E"/>
<path d="M80.92 57.88H77.08V61.72H80.92V57.88Z" fill="#19502E"/>
<path d="M96.28 57.88H92.44V61.72H96.28V57.88Z" fill="#19502E"/>
<path d="M34.84 61.72H31V65.56H34.84V61.72Z" fill="#19502E"/>
<path d="M38.68 61.72H34.84V65.56H38.68V61.72Z" fill="#19502E"/>
<path d="M42.52 61.72H38.68V65.56H42.52V61.72Z" fill="#19502E"/>
<path d="M46.36 61.72H42.52V65.56H46.36V61.72Z" fill="#19502E"/>
<path d="M50.2 61.72H46.36V65.56H50.2V61.72Z" fill="#19502E"/>
<path d="M57.88 61.72H54.04V65.56H57.88V61.72Z" fill="#19502E"/>
<path d="M61.72 61.72H57.88V65.56H61.72V61.72Z" fill="#19502E"/>
<path d="M65.56 61.72H61.72V65.56H65.56V61.72Z" fill="#19502E"/>
<path d="M69.4 61.72H65.56V65.56H69.4V61.72Z" fill="#19502E"/>
<path d="M73.24 61.72H69.4V65.56H73.24V61.72Z" fill="#19502E"/>
<path d="M80.92 61.72H77.08V65.56H80.92V61.72Z" fill="#19502E"/>
<path d="M84.76 61.72H80.92V65.56H84.76V61.72Z" fill="#19502E"/>
<path d="M92.44 61.72H88.6V65.56H92.44V61.72Z" fill="#19502E"/>
<path d="M100.12 61.72H96.28V65.56H100.12V61.72Z" fill="#19502E"/>
<path d="M107.8 61.72H103.96V65.56H107.8V61.72Z" fill="#19502E"/>
<path d="M115.48 61.72H111.64V65.56H115.48V61.72Z" fill="#19502E"/>
<path d="M123.16 61.72H119.32V65.56H123.16V61.72Z" fill="#19502E"/>
<path d="M34.84 65.5601H31V69.4001H34.84V65.5601Z" fill="#19502E"/>
<path d="M42.52 65.5601H38.68V69.4001H42.52V65.5601Z" fill="#19502E"/>
<path d="M46.36 65.5601H42.52V69.4001H46.36V65.5601Z" fill="#19502E"/>
<path d="M50.2 65.5601H46.36V69.4001H50.2V65.5601Z" fill="#19502E"/>
<path d="M54.04 65.5601H50.2V69.4001H54.04V65.5601Z" fill="#19502E"/>
<path d="M65.56 65.5601H61.72V69.4001H65.56V65.5601Z" fill="#19502E"/>
<path d="M69.4 65.5601H65.56V69.4001H69.4V65.5601Z" fill="#19502E"/>
<path d="M92.44 65.5601H88.6V69.4001H92.44V65.5601Z" fill="#19502E"/>
<path d="M96.28 65.5601H92.44V69.4001H96.28V65.5601Z" fill="#19502E"/>
<path d="M100.12 65.5601H96.28V69.4001H100.12V65.5601Z" fill="#19502E"/>
<path d="M107.8 65.5601H103.96V69.4001H107.8V65.5601Z" fill="#19502E"/>
<path d="M111.64 65.5601H107.8V69.4001H111.64V65.5601Z" fill="#19502E"/>
<path d="M127 65.5601H123.16V69.4001H127V65.5601Z" fill="#19502E"/>
<path d="M34.84 69.4H31V73.24H34.84V69.4Z" fill="#19502E"/>
<path d="M54.04 69.4H50.2V73.24H54.04V69.4Z" fill="#19502E"/>
<path d="M57.88 69.4H54.04V73.24H57.88V69.4Z" fill="#19502E"/>
<path d="M61.72 69.4H57.88V73.24H61.72V69.4Z" fill="#19502E"/>
<path d="M69.4 69.4H65.56V73.24H69.4V69.4Z" fill="#19502E"/>
<path d="M77.08 69.4H73.24V73.24H77.08V69.4Z" fill="#19502E"/>
<path d="M80.92 69.4H77.08V73.24H80.92V69.4Z" fill="#19502E"/>
<path d="M84.76 69.4H80.92V73.24H84.76V69.4Z" fill="#19502E"/>
<path d="M88.6 69.4H84.76V73.24H88.6V69.4Z" fill="#19502E"/>
<path d="M92.44 69.4H88.6V73.24H92.44V69.4Z" fill="#19502E"/>
<path d="M100.12 69.4H96.28V73.24H100.12V69.4Z" fill="#19502E"/>
<path d="M103.96 69.4H100.12V73.24H103.96V69.4Z" fill="#19502E"/>
<path d="M111.64 69.4H107.8V73.24H111.64V69.4Z" fill="#19502E"/>
<path d="M119.32 69.4H115.48V73.24H119.32V69.4Z" fill="#19502E"/>
<path d="M46.36 73.24H42.52V77.08H46.36V73.24Z" fill="#19502E"/>
<path d="M50.2 73.24H46.36V77.08H50.2V73.24Z" fill="#19502E"/>
<path d="M54.04 73.24H50.2V77.08H54.04V73.24Z" fill="#19502E"/>
<path d="M61.72 73.24H57.88V77.08H61.72V73.24Z" fill="#19502E"/>
<path d="M69.4 73.24H65.56V77.08H69.4V73.24Z" fill="#19502E"/>
<path d="M73.24 73.24H69.4V77.08H73.24V73.24Z" fill="#19502E"/>
<path d="M77.08 73.24H73.24V77.08H77.08V73.24Z" fill="#19502E"/>
<path d="M84.76 73.24H80.92V77.08H84.76V73.24Z" fill="#19502E"/>
<path d="M96.28 73.24H92.44V77.08H96.28V73.24Z" fill="#19502E"/>
<path d="M100.12 73.24H96.28V77.08H100.12V73.24Z" fill="#19502E"/>
<path d="M46.36 77.08H42.52V80.9199H46.36V77.08Z" fill="#19502E"/>
<path d="M57.88 77.08H54.04V80.9199H57.88V77.08Z" fill="#19502E"/>
<path d="M69.4 77.08H65.56V80.9199H69.4V77.08Z" fill="#19502E"/>
<path d="M77.08 77.08H73.24V80.9199H77.08V77.08Z" fill="#19502E"/>
<path d="M84.76 77.08H80.92V80.9199H84.76V77.08Z" fill="#19502E"/>
<path d="M88.6 77.08H84.76V80.9199H88.6V77.08Z" fill="#19502E"/>
<path d="M92.44 77.08H88.6V80.9199H92.44V77.08Z" fill="#19502E"/>
<path d="M103.96 77.08H100.12V80.9199H103.96V77.08Z" fill="#19502E"/>
<path d="M107.8 77.08H103.96V80.9199H107.8V77.08Z" fill="#19502E"/>
<path d="M111.64 77.08H107.8V80.9199H111.64V77.08Z" fill="#19502E"/>
<path d="M115.48 77.08H111.64V80.9199H115.48V77.08Z" fill="#19502E"/>
<path d="M123.16 77.08H119.32V80.9199H123.16V77.08Z" fill="#19502E"/>
<path d="M127 77.08H123.16V80.9199H127V77.08Z" fill="#19502E"/>
<path d="M34.84 80.92H31V84.76H34.84V80.92Z" fill="#19502E"/>
<path d="M38.68 80.92H34.84V84.76H38.68V80.92Z" fill="#19502E"/>
<path d="M42.52 80.92H38.68V84.76H42.52V80.92Z" fill="#19502E"/>
<path d="M50.2 80.92H46.36V84.76H50.2V80.92Z" fill="#19502E"/>
<path d="M61.72 80.92H57.88V84.76H61.72V80.92Z" fill="#19502E"/>
<path d="M65.56 80.92H61.72V84.76H65.56V80.92Z" fill="#19502E"/>
<path d="M69.4 80.92H65.56V84.76H69.4V80.92Z" fill="#19502E"/>
<path d="M73.24 80.92H69.4V84.76H73.24V80.92Z" fill="#19502E"/>
<path d="M80.92 80.92H77.08V84.76H80.92V80.92Z" fill="#19502E"/>
<path d="M96.28 80.92H92.44V84.76H96.28V80.92Z" fill="#19502E"/>
<path d="M100.12 80.92H96.28V84.76H100.12V80.92Z" fill="#19502E"/>
<path d="M103.96 80.92H100.12V84.76H103.96V80.92Z" fill="#19502E"/>
<path d="M107.8 80.92H103.96V84.76H107.8V80.92Z" fill="#19502E"/>
<path d="M111.64 80.92H107.8V84.76H111.64V80.92Z" fill="#19502E"/>
<path d="M34.84 84.76H31V88.6H34.84V84.76Z" fill="#19502E"/>
<path d="M46.36 84.76H42.52V88.6H46.36V84.76Z" fill="#19502E"/>
<path d="M50.2 84.76H46.36V88.6H50.2V84.76Z" fill="#19502E"/>
<path d="M54.04 84.76H50.2V88.6H54.04V84.76Z" fill="#19502E"/>
<path d="M57.88 84.76H54.04V88.6H57.88V84.76Z" fill="#19502E"/>
<path d="M69.4 84.76H65.56V88.6H69.4V84.76Z" fill="#19502E"/>
<path d="M88.6 84.76H84.76V88.6H88.6V84.76Z" fill="#19502E"/>
<path d="M100.12 84.76H96.28V88.6H100.12V84.76Z" fill="#19502E"/>
<path d="M103.96 84.76H100.12V88.6H103.96V84.76Z" fill="#19502E"/>
<path d="M111.64 84.76H107.8V88.6H111.64V84.76Z" fill="#19502E"/>
<path d="M119.32 84.76H115.48V88.6H119.32V84.76Z" fill="#19502E"/>
<path d="M123.16 84.76H119.32V88.6H123.16V84.76Z" fill="#19502E"/>
<path d="M127 84.76H123.16V88.6H127V84.76Z" fill="#19502E"/>
<path d="M34.84 88.6H31V92.44H34.84V88.6Z" fill="#19502E"/>
<path d="M46.36 88.6H42.52V92.44H46.36V88.6Z" fill="#19502E"/>
<path d="M50.2 88.6H46.36V92.44H50.2V88.6Z" fill="#19502E"/>
<path d="M61.72 88.6H57.88V92.44H61.72V88.6Z" fill="#19502E"/>
<path d="M65.56 88.6H61.72V92.44H65.56V88.6Z" fill="#19502E"/>
<path d="M69.4 88.6H65.56V92.44H69.4V88.6Z" fill="#19502E"/>
<path d="M73.24 88.6H69.4V92.44H73.24V88.6Z" fill="#19502E"/>
<path d="M80.92 88.6H77.08V92.44H80.92V88.6Z" fill="#19502E"/>
<path d="M88.6 88.6H84.76V92.44H88.6V88.6Z" fill="#19502E"/>
<path d="M100.12 88.6H96.28V92.44H100.12V88.6Z" fill="#19502E"/>
<path d="M123.16 88.6H119.32V92.44H123.16V88.6Z" fill="#19502E"/>
<path d="M127 88.6H123.16V92.44H127V88.6Z" fill="#19502E"/>
<path d="M34.84 92.44H31V96.28H34.84V92.44Z" fill="#19502E"/>
<path d="M42.52 92.44H38.68V96.28H42.52V92.44Z" fill="#19502E"/>
<path d="M50.2 92.44H46.36V96.28H50.2V92.44Z" fill="#19502E"/>
<path d="M54.04 92.44H50.2V96.28H54.04V92.44Z" fill="#19502E"/>
<path d="M57.88 92.44H54.04V96.28H57.88V92.44Z" fill="#19502E"/>
<path d="M73.24 92.44H69.4V96.28H73.24V92.44Z" fill="#19502E"/>
<path d="M80.92 92.44H77.08V96.28H80.92V92.44Z" fill="#19502E"/>
<path d="M92.44 92.44H88.6V96.28H92.44V92.44Z" fill="#19502E"/>
<path d="M96.28 92.44H92.44V96.28H96.28V92.44Z" fill="#19502E"/>
<path d="M100.12 92.44H96.28V96.28H100.12V92.44Z" fill="#19502E"/>
<path d="M103.96 92.44H100.12V96.28H103.96V92.44Z" fill="#19502E"/>
<path d="M107.8 92.44H103.96V96.28H107.8V92.44Z" fill="#19502E"/>
<path d="M111.64 92.44H107.8V96.28H111.64V92.44Z" fill="#19502E"/>
<path d="M115.48 92.44H111.64V96.28H115.48V92.44Z" fill="#19502E"/>
<path d="M127 92.44H123.16V96.28H127V92.44Z" fill="#19502E"/>
<path d="M65.56 96.28H61.72V100.12H65.56V96.28Z" fill="#19502E"/>
<path d="M69.4 96.28H65.56V100.12H69.4V96.28Z" fill="#19502E"/>
<path d="M73.24 96.28H69.4V100.12H73.24V96.28Z" fill="#19502E"/>
<path d="M96.28 96.28H92.44V100.12H96.28V96.28Z" fill="#19502E"/>
<path d="M111.64 96.28H107.8V100.12H111.64V96.28Z" fill="#19502E"/>
<path d="M127 96.28H123.16V100.12H127V96.28Z" fill="#19502E"/>
<path d="M65.56 100.12H61.72V103.96H65.56V100.12Z" fill="#19502E"/>
<path d="M77.08 100.12H73.24V103.96H77.08V100.12Z" fill="#19502E"/>
<path d="M80.92 100.12H77.08V103.96H80.92V100.12Z" fill="#19502E"/>
<path d="M84.76 100.12H80.92V103.96H84.76V100.12Z" fill="#19502E"/>
<path d="M88.6 100.12H84.76V103.96H88.6V100.12Z" fill="#19502E"/>
<path d="M96.28 100.12H92.44V103.96H96.28V100.12Z" fill="#19502E"/>
<path d="M103.96 100.12H100.12V103.96H103.96V100.12Z" fill="#19502E"/>
<path d="M111.64 100.12H107.8V103.96H111.64V100.12Z" fill="#19502E"/>
<path d="M119.32 100.12H115.48V103.96H119.32V100.12Z" fill="#19502E"/>
<path d="M123.16 100.12H119.32V103.96H123.16V100.12Z" fill="#19502E"/>
<path d="M127 100.12H123.16V103.96H127V100.12Z" fill="#19502E"/>
<path d="M73.24 103.96H69.4V107.8H73.24V103.96Z" fill="#19502E"/>
<path d="M77.08 103.96H73.24V107.8H77.08V103.96Z" fill="#19502E"/>
<path d="M84.76 103.96H80.92V107.8H84.76V103.96Z" fill="#19502E"/>
<path d="M96.28 103.96H92.44V107.8H96.28V103.96Z" fill="#19502E"/>
<path d="M111.64 103.96H107.8V107.8H111.64V103.96Z" fill="#19502E"/>
<path d="M115.48 103.96H111.64V107.8H115.48V103.96Z" fill="#19502E"/>
<path d="M65.56 107.8H61.72V111.64H65.56V107.8Z" fill="#19502E"/>
<path d="M69.4 107.8H65.56V111.64H69.4V107.8Z" fill="#19502E"/>
<path d="M73.24 107.8H69.4V111.64H73.24V107.8Z" fill="#19502E"/>
<path d="M77.08 107.8H73.24V111.64H77.08V107.8Z" fill="#19502E"/>
<path d="M80.92 107.8H77.08V111.64H80.92V107.8Z" fill="#19502E"/>
<path d="M88.6 107.8H84.76V111.64H88.6V107.8Z" fill="#19502E"/>
<path d="M96.28 107.8H92.44V111.64H96.28V107.8Z" fill="#19502E"/>
<path d="M100.12 107.8H96.28V111.64H100.12V107.8Z" fill="#19502E"/>
<path d="M103.96 107.8H100.12V111.64H103.96V107.8Z" fill="#19502E"/>
<path d="M107.8 107.8H103.96V111.64H107.8V107.8Z" fill="#19502E"/>
<path d="M111.64 107.8H107.8V111.64H111.64V107.8Z" fill="#19502E"/>
<path d="M115.48 107.8H111.64V111.64H115.48V107.8Z" fill="#19502E"/>
<path d="M65.56 111.64H61.72V115.48H65.56V111.64Z" fill="#19502E"/>
<path d="M69.4 111.64H65.56V115.48H69.4V111.64Z" fill="#19502E"/>
<path d="M73.24 111.64H69.4V115.48H73.24V111.64Z" fill="#19502E"/>
<path d="M80.92 111.64H77.08V115.48H80.92V111.64Z" fill="#19502E"/>
<path d="M88.6 111.64H84.76V115.48H88.6V111.64Z" fill="#19502E"/>
<path d="M92.44 111.64H88.6V115.48H92.44V111.64Z" fill="#19502E"/>
<path d="M96.28 111.64H92.44V115.48H96.28V111.64Z" fill="#19502E"/>
<path d="M103.96 111.64H100.12V115.48H103.96V111.64Z" fill="#19502E"/>
<path d="M111.64 111.64H107.8V115.48H111.64V111.64Z" fill="#19502E"/>
<path d="M123.16 111.64H119.32V115.48H123.16V111.64Z" fill="#19502E"/>
<path d="M127 111.64H123.16V115.48H127V111.64Z" fill="#19502E"/>
<path d="M65.56 115.48H61.72V119.32H65.56V115.48Z" fill="#19502E"/>
<path d="M73.24 115.48H69.4V119.32H73.24V115.48Z" fill="#19502E"/>
<path d="M80.92 115.48H77.08V119.32H80.92V115.48Z" fill="#19502E"/>
<path d="M84.76 115.48H80.92V119.32H84.76V115.48Z" fill="#19502E"/>
<path d="M88.6 115.48H84.76V119.32H88.6V115.48Z" fill="#19502E"/>
<path d="M111.64 115.48H107.8V119.32H111.64V115.48Z" fill="#19502E"/>
<path d="M119.32 115.48H115.48V119.32H119.32V115.48Z" fill="#19502E"/>
<path d="M127 115.48H123.16V119.32H127V115.48Z" fill="#19502E"/>
<path d="M65.56 119.32H61.72V123.16H65.56V119.32Z" fill="#19502E"/>
<path d="M69.4 119.32H65.56V123.16H69.4V119.32Z" fill="#19502E"/>
<path d="M80.92 119.32H77.08V123.16H80.92V119.32Z" fill="#19502E"/>
<path d="M96.28 119.32H92.44V123.16H96.28V119.32Z" fill="#19502E"/>
<path d="M100.12 119.32H96.28V123.16H100.12V119.32Z" fill="#19502E"/>
<path d="M103.96 119.32H100.12V123.16H103.96V119.32Z" fill="#19502E"/>
<path d="M107.8 119.32H103.96V123.16H107.8V119.32Z" fill="#19502E"/>
<path d="M111.64 119.32H107.8V123.16H111.64V119.32Z" fill="#19502E"/>
<path d="M115.48 119.32H111.64V123.16H115.48V119.32Z" fill="#19502E"/>
<path d="M123.16 119.32H119.32V123.16H123.16V119.32Z" fill="#19502E"/>
<path d="M65.56 123.16H61.72V127H65.56V123.16Z" fill="#19502E"/>
<path d="M69.4 123.16H65.56V127H69.4V123.16Z" fill="#19502E"/>
<path d="M73.24 123.16H69.4V127H73.24V123.16Z" fill="#19502E"/>
<path d="M84.76 123.16H80.92V127H84.76V123.16Z" fill="#19502E"/>
<path d="M92.44 123.16H88.6V127H92.44V123.16Z" fill="#19502E"/>
<path d="M119.32 123.16H115.48V127H119.32V123.16Z" fill="#19502E"/>
<path d="M123.16 123.16H119.32V127H123.16V123.16Z" fill="#19502E"/>
<path d="M127 123.16H123.16V127H127V123.16Z" fill="#19502E"/>
<path d="M31.84 31C31.36 31 31 31.36 31 31.84V34.84V38.68V42.52V46.36V50.2V54.04V57.04C31 57.52 31.36 57.88 31.84 57.88H57.04C57.52 57.88 57.88 57.52 57.88 57.04V54.04V50.2V46.36V42.52V38.68V34.84V31.84C57.88 31.36 57.52 31 57.04 31C57.04 31 31.84 31 31.84 31ZM54.04 38.68V42.52V46.36V50.2V53.56C54.04 53.8 53.8 54.04 53.56 54.04H35.32C35.08 54.04 34.84 53.8 34.84 53.56V50.2V46.36V42.52V38.68V35.32C34.84 35.08 35.08 34.84 35.32 34.84H53.56C53.8 34.84 54.04 35.08 54.04 35.32V38.68V38.68Z" fill="#19502E"/>
<path d="M50.2 46.3601V42.5201V39.5201C50.2 39.0401 49.84 38.6801 49.36 38.6801H39.52C39.04 38.6801 38.68 39.0401 38.68 39.5201V42.5201V46.3601V49.3601C38.68 49.8401 39.04 50.2001 39.52 50.2001H49.36C49.84 50.2001 50.2 49.8401 50.2 49.3601V46.3601Z" fill="#19502E"/>
<path d="M100.96 31C100.48 31 100.12 31.36 100.12 31.84V34.84V38.68V42.52V46.36V50.2V54.04V57.04C100.12 57.52 100.48 57.88 100.96 57.88H126.16C126.64 57.88 127 57.52 127 57.04V54.04V50.2V46.36V42.52V38.68V34.84V31.84C127 31.36 126.64 31 126.16 31C126.16 31 100.96 31 100.96 31ZM123.16 38.68V42.52V46.36V50.2V53.56C123.16 53.8 122.92 54.04 122.68 54.04H104.44C104.2 54.04 103.96 53.8 103.96 53.56V50.2V46.36V42.52V38.68V35.32C103.96 35.08 104.2 34.84 104.44 34.84H122.68C122.92 34.84 123.16 35.08 123.16 35.32V38.68V38.68Z" fill="#19502E"/>
<path d="M119.32 46.3601V42.5201V39.5201C119.32 39.0401 118.96 38.6801 118.48 38.6801H108.64C108.16 38.6801 107.8 39.0401 107.8 39.5201V42.5201V46.3601V49.3601C107.8 49.8401 108.16 50.2001 108.64 50.2001H118.48C118.96 50.2001 119.32 49.8401 119.32 49.3601V46.3601Z" fill="#19502E"/>
<path d="M31.84 100.12C31.36 100.12 31 100.48 31 100.96V103.96V107.8V111.64V115.48V119.32V123.16V126.16C31 126.64 31.36 127 31.84 127H57.04C57.52 127 57.88 126.64 57.88 126.16V123.16V119.32V115.48V111.64V107.8V103.96V100.96C57.88 100.48 57.52 100.12 57.04 100.12H31.84ZM54.04 107.8V111.64V115.48V119.32V122.68C54.04 122.92 53.8 123.16 53.56 123.16H35.32C35.08 123.16 34.84 122.92 34.84 122.68V119.32V115.48V111.64V107.8V104.44C34.84 104.2 35.08 103.96 35.32 103.96H53.56C53.8 103.96 54.04 104.2 54.04 104.44V107.8V107.8Z" fill="#19502E"/>
<path d="M50.2 115.48V111.64V108.64C50.2 108.16 49.84 107.8 49.36 107.8H39.52C39.04 107.8 38.68 108.16 38.68 108.64V111.64V115.48V118.48C38.68 118.96 39.04 119.32 39.52 119.32H49.36C49.84 119.32 50.2 118.96 50.2 118.48V115.48Z" fill="#19502E"/>
</svg>
