<svg width="135" height="40" viewBox="0 0 135 40" fill="none" xmlns="http://www.w3.org/2000/svg">
<path d="M130 40H5C2.2 40 0 37.8 0 35V5C0 2.2 2.2 0 5 0H130C132.8 0 135 2.2 135 5V35C135 37.8 132.8 40 130 40Z" fill="black"/>
<path d="M130 0.8C132.3 0.8 134.2 2.7 134.2 5V35C134.2 37.3 132.3 39.2 130 39.2H5C2.7 39.2 0.8 37.3 0.8 35V5C0.8 2.7 2.7 0.8 5 0.8H130V0.8ZM130 0H5C2.2 0 0 2.3 0 5V35C0 37.8 2.2 40 5 40H130C132.8 40 135 37.8 135 35V5C135 2.3 132.8 0 130 0Z" fill="#A6A6A6"/>
<path d="M68.1 21.8001C65.7 21.8001 63.8 23.6001 63.8 26.1001C63.8 28.5001 65.7 30.4001 68.1 30.4001C70.5 30.4001 72.4 28.6001 72.4 26.1001C72.4 23.5001 70.5 21.8001 68.1 21.8001ZM68.1 28.6001C66.8 28.6001 65.7 27.5001 65.7 26.0001C65.7 24.5001 66.8 23.4001 68.1 23.4001C69.4 23.4001 70.5 24.4001 70.5 26.0001C70.5 27.5001 69.4 28.6001 68.1 28.6001ZM58.8 21.8001C56.4 21.8001 54.5 23.6001 54.5 26.1001C54.5 28.5001 56.4 30.4001 58.8 30.4001C61.2 30.4001 63.1 28.6001 63.1 26.1001C63.1 23.5001 61.2 21.8001 58.8 21.8001ZM58.8 28.6001C57.5 28.6001 56.4 27.5001 56.4 26.0001C56.4 24.5001 57.5 23.4001 58.8 23.4001C60.1 23.4001 61.2 24.4001 61.2 26.0001C61.2 27.5001 60.1 28.6001 58.8 28.6001ZM47.7 23.1001V24.9001H52C51.9 25.9001 51.5 26.7001 51 27.2001C50.4 27.8001 49.4 28.5001 47.7 28.5001C45 28.5001 43 26.4001 43 23.7001C43 21.0001 45.1 18.9001 47.7 18.9001C49.1 18.9001 50.2 19.5001 51 20.2001L52.3 18.9001C51.2 17.9001 49.8 17.1001 47.8 17.1001C44.2 17.1001 41.1 20.1001 41.1 23.7001C41.1 27.3001 44.2 30.3001 47.8 30.3001C49.8 30.3001 51.2 29.7001 52.4 28.4001C53.6 27.2001 54 25.5001 54 24.2001C54 23.8001 54 23.4001 53.9 23.1001H47.7V23.1001ZM93.1 24.5001C92.7 23.5001 91.7 21.8001 89.5 21.8001C87.3 21.8001 85.5 23.5001 85.5 26.1001C85.5 28.5001 87.3 30.4001 89.7 30.4001C91.6 30.4001 92.8 29.2001 93.2 28.5001L91.8 27.5001C91.3 28.2001 90.7 28.7001 89.7 28.7001C88.7 28.7001 88.1 28.3001 87.6 27.4001L93.3 25.0001L93.1 24.5001ZM87.3 25.9001C87.3 24.3001 88.6 23.4001 89.5 23.4001C90.2 23.4001 90.9 23.8001 91.1 24.3001L87.3 25.9001ZM82.6 30.0001H84.5V17.5001H82.6V30.0001ZM79.6 22.7001C79.1 22.2001 78.3 21.7001 77.3 21.7001C75.2 21.7001 73.2 23.6001 73.2 26.0001C73.2 28.4001 75.1 30.2001 77.3 30.2001C78.3 30.2001 79.1 29.7001 79.5 29.2001H79.6V29.8001C79.6 31.4001 78.7 32.3001 77.3 32.3001C76.2 32.3001 75.4 31.5001 75.2 30.8001L73.6 31.5001C74.1 32.6001 75.3 34.0001 77.4 34.0001C79.6 34.0001 81.4 32.7001 81.4 29.6001V22.0001H79.6V22.7001V22.7001ZM77.4 28.6001C76.1 28.6001 75 27.5001 75 26.0001C75 24.5001 76.1 23.4001 77.4 23.4001C78.7 23.4001 79.7 24.5001 79.7 26.0001C79.7 27.5001 78.7 28.6001 77.4 28.6001ZM101.8 17.5001H97.3V30.0001H99.2V25.3001H101.8C103.9 25.3001 105.9 23.8001 105.9 21.4001C105.9 19.0001 103.9 17.5001 101.8 17.5001ZM101.9 23.5001H99.2V19.2001H101.9C103.3 19.2001 104.1 20.4001 104.1 21.3001C104 22.4001 103.2 23.5001 101.9 23.5001ZM113.4 21.7001C112 21.7001 110.6 22.3001 110.1 23.6001L111.8 24.3001C112.2 23.6001 112.8 23.4001 113.5 23.4001C114.5 23.4001 115.4 24.0001 115.5 25.0001V25.1001C115.2 24.9001 114.4 24.6001 113.6 24.6001C111.8 24.6001 110 25.6001 110 27.4001C110 29.1001 111.5 30.2001 113.1 30.2001C114.4 30.2001 115 29.6001 115.5 29.0001H115.6V30.0001H117.4V25.2001C117.2 23.0001 115.5 21.7001 113.4 21.7001ZM113.2 28.6001C112.6 28.6001 111.7 28.3001 111.7 27.5001C111.7 26.5001 112.8 26.2001 113.7 26.2001C114.5 26.2001 114.9 26.4001 115.4 26.6001C115.2 27.8001 114.2 28.6001 113.2 28.6001ZM123.7 22.0001L121.6 27.4001H121.5L119.3 22.0001H117.3L120.6 29.6001L118.7 33.8001H120.6L125.7 22.0001H123.7V22.0001ZM106.9 30.0001H108.8V17.5001H106.9V30.0001Z" fill="white"/>
<path d="M10.4 7.5C10.1 7.8 10 8.3 10 8.9V31C10 31.6 10.2 32.1 10.5 32.4L10.6 32.5L23 20.1V20V19.9L10.4 7.5Z" fill="url(#paint0_linear)"/>
<path d="M27 24.3L22.9 20.2V20V19.9L27 15.8L27.1 15.9L32 18.7C33.4 19.5 33.4 20.8 32 21.6L27 24.3Z" fill="url(#paint1_linear)"/>
<path d="M27.1 24.2L22.9 20L10.4 32.5C10.9 33 11.6 33 12.5 32.6L27.1 24.2Z" fill="url(#paint2_linear)"/>
<path d="M27.1 15.8001L12.5 7.50011C11.6 7.00011 10.9 7.10011 10.4 7.60011L22.9 20.0001L27.1 15.8001Z" fill="url(#paint3_linear)"/>
<path opacity="0.2" d="M27 24.1001L12.5 32.3001C11.7 32.8001 11 32.7001 10.5 32.3001L10.4 32.4001L10.5 32.5001C11 32.9001 11.7 33.0001 12.5 32.5001L27 24.1001Z" fill="black"/>
<path opacity="0.12" d="M10.4 32.3001C10.1 32.0001 10 31.5001 10 30.9001V31.0001C10 31.6001 10.2 32.1001 10.5 32.4001V32.3001H10.4Z" fill="black"/>
<path opacity="0.12" d="M32 21.3L27 24.1L27.1 24.2L32 21.4C32.7 21 33 20.5 33 20C33 20.5 32.6 20.9 32 21.3Z" fill="black"/>
<path opacity="0.25" d="M12.5 7.60003L32 18.7C32.6 19.1 33 19.5 33 20C33 19.5 32.7 19 32 18.6L12.5 7.50003C11.1 6.70003 10 7.30003 10 8.90003V9.00003C10 7.50003 11.1 6.80003 12.5 7.60003Z" fill="white"/>
<path d="M42.1 14.3H41.4V12.3H42C42.5 11.9 42.8 11.1 42.8 10V7H46.8V12.3H47.5V14.3H46.8V13H42.2V14.3H42.1ZM43.5 10C43.5 10.9 43.3 11.7 42.9 12.3H45.9V7.7H43.4V10H43.5Z" fill="white" stroke="white" stroke-width="0.2" stroke-miterlimit="10"/>
<path d="M53.4 12.1999C52.8 12.7999 52.1 13.0999 51.2 13.0999C50.3 13.0999 49.6 12.7999 49 12.1999C48.4 11.5999 48.1 10.8999 48.1 9.9999C48.1 9.0999 48.4 8.3999 49 7.7999C49.6 7.1999 50.3 6.8999 51.2 6.8999C52.1 6.8999 52.8 7.1999 53.4 7.7999C54 8.3999 54.3 9.0999 54.3 9.9999C54.3 10.8999 54 11.5999 53.4 12.1999ZM49.6 11.6999C50 12.0999 50.6 12.3999 51.2 12.3999C51.8 12.3999 52.4 12.1999 52.8 11.6999C53.2 11.2999 53.5 10.6999 53.5 9.9999C53.5 9.2999 53.3 8.6999 52.8 8.2999C52.4 7.8999 51.8 7.5999 51.2 7.5999C50.6 7.5999 50 7.7999 49.6 8.2999C49.2 8.6999 48.9 9.2999 48.9 9.9999C48.9 10.6999 49.1 11.2999 49.6 11.6999Z" fill="white" stroke="white" stroke-width="0.2" stroke-miterlimit="10"/>
<path d="M58.2 13.0999C57.3 13.0999 56.6 12.7999 56 12.1999C55.4 11.5999 55.1 10.8999 55.1 9.9999C55.1 9.0999 55.4 8.3999 56 7.7999C56.6 7.1999 57.3 6.8999 58.2 6.8999C59.1 6.8999 59.8 7.1999 60.4 7.8999L59.9 8.3999C59.5 7.8999 58.9 7.5999 58.2 7.5999C57.5 7.5999 57 7.7999 56.5 8.2999C56 8.6999 55.8 9.2999 55.8 9.9999C55.8 10.6999 56 11.2999 56.5 11.6999C56.9 12.0999 57.5 12.3999 58.2 12.3999C58.9 12.3999 59.5 12.0999 60 11.4999L60.5 11.9999C60.2 12.2999 59.9 12.5999 59.5 12.7999C59.1 12.9999 58.7 13.0999 58.2 13.0999Z" fill="white" stroke="white" stroke-width="0.2" stroke-miterlimit="10"/>
<path d="M63.7 13H62.9V7.7H61.2V7H65.3V7.7H63.6V13H63.7Z" fill="white" stroke="white" stroke-width="0.2" stroke-miterlimit="10"/>
<path d="M70.6 7L68.3 12.1C68 12.8 67.5 13.2 66.9 13.2C66.7 13.2 66.5 13.2 66.3 13.1L66.5 12.4C66.6 12.5 66.8 12.5 66.9 12.5C67.1 12.5 67.2 12.5 67.3 12.4C67.4 12.3 67.5 12.2 67.6 12L67.8 11.5L65.8 7.1H66.7L68.2 10.5L69.7 7H70.6Z" fill="white" stroke="white" stroke-width="0.2" stroke-miterlimit="10"/>
<path d="M71.5 13V7H75.8V13H75V7.7H72.2V13H71.5Z" fill="white" stroke="white" stroke-width="0.2" stroke-miterlimit="10"/>
<path d="M77.2 13V7H78V9.6H81V7H81.8V13H81V10.3H78V13H77.2Z" fill="white" stroke="white" stroke-width="0.2" stroke-miterlimit="10"/>
<path d="M88.1 12.1999C87.5 12.7999 86.8 13.0999 85.9 13.0999C85 13.0999 84.3 12.7999 83.7 12.1999C83.1 11.5999 82.8 10.8999 82.8 9.9999C82.8 9.0999 83.1 8.3999 83.7 7.7999C84.3 7.1999 85 6.8999 85.9 6.8999C86.8 6.8999 87.5 7.1999 88.1 7.7999C88.7 8.3999 89 9.0999 89 9.9999C88.9 10.8999 88.6 11.5999 88.1 12.1999ZM84.2 11.6999C84.6 12.0999 85.2 12.3999 85.8 12.3999C86.4 12.3999 87 12.1999 87.4 11.6999C87.8 11.2999 88.1 10.6999 88.1 9.9999C88.1 9.2999 87.9 8.6999 87.4 8.2999C87 7.8999 86.4 7.5999 85.8 7.5999C85.2 7.5999 84.6 7.7999 84.2 8.2999C83.8 8.6999 83.5 9.2999 83.5 9.9999C83.5 10.6999 83.8 11.2999 84.2 11.6999Z" fill="white" stroke="white" stroke-width="0.2" stroke-miterlimit="10"/>
<path d="M92.1 13V7H94.3C94.8 7 95.2 7.2 95.5 7.5C95.8 7.8 96 8.2 96 8.6C96 8.9 95.9 9.1 95.8 9.4C95.7 9.6 95.5 9.8 95.2 9.9C95.5 10 95.7 10.2 95.9 10.4C96.1 10.6 96.2 10.9 96.2 11.3C96.2 11.8 96 12.2 95.7 12.5C95.3 12.8 94.9 13 94.4 13H92.1ZM92.9 9.6H94.3C94.6 9.6 94.8 9.5 95 9.3C95.2 9.1 95.3 8.9 95.3 8.7C95.3 8.5 95.1 8.2 95 8C94.8 7.8 94.6 7.7 94.3 7.7H92.9V9.6V9.6ZM92.9 12.3H94.5C94.8 12.3 95 12.2 95.2 12C95.4 11.8 95.5 11.6 95.5 11.3C95.5 11.1 95.4 10.8 95.2 10.6C95 10.4 94.8 10.3 94.5 10.3H93V12.3H92.9Z" fill="white" stroke="white" stroke-width="0.2" stroke-miterlimit="10"/>
<defs>
<linearGradient id="paint0_linear" x1="21.7996" y1="8.7098" x2="5.0172" y2="25.4922" gradientUnits="userSpaceOnUse">
<stop stop-color="#00A0FF"/>
<stop offset="0.00657445" stop-color="#00A1FF"/>
<stop offset="0.2601" stop-color="#00BEFF"/>
<stop offset="0.5122" stop-color="#00D2FF"/>
<stop offset="0.7604" stop-color="#00DFFF"/>
<stop offset="1" stop-color="#00E3FF"/>
</linearGradient>
<linearGradient id="paint1_linear" x1="33.8343" y1="20.0016" x2="9.63742" y2="20.0016" gradientUnits="userSpaceOnUse">
<stop stop-color="#FFE000"/>
<stop offset="0.4087" stop-color="#FFBD00"/>
<stop offset="0.7754" stop-color="#FFA500"/>
<stop offset="1" stop-color="#FF9C00"/>
</linearGradient>
<linearGradient id="paint2_linear" x1="24.8269" y1="22.2962" x2="2.06863" y2="45.0545" gradientUnits="userSpaceOnUse">
<stop stop-color="#FF3A44"/>
<stop offset="1" stop-color="#C31162"/>
</linearGradient>
<linearGradient id="paint3_linear" x1="7.29722" y1="0.176412" x2="17.4598" y2="10.3389" gradientUnits="userSpaceOnUse">
<stop stop-color="#32A071"/>
<stop offset="0.0685" stop-color="#2DA771"/>
<stop offset="0.4762" stop-color="#15CF74"/>
<stop offset="0.8009" stop-color="#06E775"/>
<stop offset="1" stop-color="#00F076"/>
</linearGradient>
</defs>
</svg>
