<svg width="141" height="168" viewBox="0 0 141 168" fill="none" xmlns="http://www.w3.org/2000/svg">
<path d="M0.237305 0H140.237V168H0.237305V0Z" fill="#265D30"/>
<path d="M32.7425 94.9042V97.1118H26.4795V106.494H23.96V94.9042H32.7425Z" fill="white"/>
<path d="M40.0408 106.782C38.2491 106.782 36.8093 106.198 35.7215 105.03C34.6337 103.847 34.0898 102.399 34.0898 100.687C34.0898 98.9755 34.6337 97.5357 35.7215 96.3679C36.8093 95.2001 38.2491 94.6162 40.0408 94.6162C41.8485 94.6162 43.2962 95.2001 44.384 96.3679C45.4718 97.5357 46.0157 98.9755 46.0157 100.687C46.0157 102.415 45.4718 103.863 44.384 105.03C43.2962 106.198 41.8485 106.782 40.0408 106.782ZM40.0408 104.551C41.0806 104.551 41.8964 104.183 42.4883 103.447C43.0962 102.695 43.4002 101.775 43.4002 100.687C43.4002 99.6154 43.0962 98.7115 42.4883 97.9756C41.8964 97.2238 41.0806 96.8478 40.0408 96.8478C39.0169 96.8478 38.2011 97.2238 37.5932 97.9756C37.0013 98.7115 36.7053 99.6154 36.7053 100.687C36.7053 101.775 37.0013 102.695 37.5932 103.447C38.2011 104.183 39.0169 104.551 40.0408 104.551Z" fill="white"/>
<path d="M47.3653 109.446V104.407C47.9092 104.279 48.3172 103.967 48.5891 103.471C48.8771 102.959 49.109 101.983 49.285 100.543L49.9809 94.9042H58.9313V104.287H60.2031V109.446H57.6836V106.494H49.8849V109.446H47.3653ZM52.2125 97.1118L51.8046 100.831C51.6446 102.367 51.1327 103.519 50.2688 104.287H56.4118V97.1118H52.2125Z" fill="white"/>
<path d="M67.5048 106.782C65.7131 106.782 64.2734 106.198 63.1855 105.03C62.0977 103.847 61.5538 102.399 61.5538 100.687C61.5538 98.9755 62.0977 97.5357 63.1855 96.3679C64.2734 95.2001 65.7131 94.6162 67.5048 94.6162C69.3125 94.6162 70.7602 95.2001 71.8481 96.3679C72.9359 97.5357 73.4798 98.9755 73.4798 100.687C73.4798 102.415 72.9359 103.863 71.8481 105.03C70.7602 106.198 69.3125 106.782 67.5048 106.782ZM67.5048 104.551C68.5446 104.551 69.3605 104.183 69.9524 103.447C70.5603 102.695 70.8642 101.775 70.8642 100.687C70.8642 99.6154 70.5603 98.7115 69.9524 97.9756C69.3605 97.2238 68.5446 96.8478 67.5048 96.8478C66.481 96.8478 65.6651 97.2238 65.0572 97.9756C64.4653 98.7115 64.1694 99.6154 64.1694 100.687C64.1694 101.775 64.4653 102.695 65.0572 103.447C65.6651 104.183 66.481 104.551 67.5048 104.551Z" fill="white"/>
<path d="M83.1319 106.494H76.0292V94.9042H82.964C84.0358 94.9042 84.8756 95.1841 85.4835 95.744C86.0914 96.3039 86.3954 97.0158 86.3954 97.8797C86.3954 98.5515 86.2114 99.1194 85.8435 99.5834C85.4755 100.047 85.0116 100.359 84.4517 100.519C85.0756 100.663 85.5955 101.007 86.0114 101.551C86.4274 102.079 86.6353 102.679 86.6353 103.351C86.6353 104.279 86.3234 105.038 85.6995 105.63C85.0916 106.206 84.2358 106.494 83.1319 106.494ZM82.604 104.287C83.052 104.287 83.4039 104.175 83.6598 103.951C83.9158 103.711 84.0438 103.391 84.0438 102.991C84.0438 102.623 83.9158 102.311 83.6598 102.055C83.4039 101.799 83.052 101.671 82.604 101.671H78.5487V104.287H82.604ZM82.532 99.4634C82.932 99.4634 83.2439 99.3594 83.4679 99.1514C83.7078 98.9275 83.8278 98.6475 83.8278 98.3116C83.8278 97.9436 83.7078 97.6557 83.4679 97.4477C83.2439 97.2238 82.932 97.1118 82.532 97.1118H78.5487V99.4634H82.532Z" fill="white"/>
<path d="M89.7612 94.9042H92.2807V99.1034H96.384C97.6158 99.1034 98.5597 99.4554 99.2155 100.159C99.8874 100.863 100.223 101.743 100.223 102.799C100.223 103.839 99.8794 104.718 99.1916 105.438C98.5197 106.142 97.5838 106.494 96.384 106.494H89.7612V94.9042ZM96.0721 101.311H92.2807V104.287H96.0721C96.568 104.287 96.9519 104.151 97.2239 103.879C97.5118 103.607 97.6558 103.247 97.6558 102.799C97.6558 102.351 97.5118 101.991 97.2239 101.719C96.9519 101.447 96.568 101.311 96.0721 101.311ZM104.495 106.494H101.975V94.9042H104.495V106.494Z" fill="white"/>
<path d="M117.908 106.494H115.077L112.077 102.223L109.054 106.494H106.246L110.494 100.543L106.486 94.9042H109.318L112.077 98.8395L114.813 94.9042H117.644L113.637 100.543L117.908 106.494Z" fill="white"/>
<path d="M106.396 77.1312C105.311 77.1312 104.437 76.8075 103.772 76.1602C103.108 75.5128 102.776 74.7104 102.776 73.7528C102.776 72.7818 103.108 71.9726 103.772 71.3252C104.437 70.6644 105.311 70.334 106.396 70.334C107.494 70.334 108.376 70.6644 109.04 71.3252C109.718 71.9726 110.057 72.7818 110.057 73.7528C110.057 74.7104 109.718 75.5128 109.04 76.1602C108.376 76.8075 107.494 77.1312 106.396 77.1312ZM107.006 84.0296H105.033L113.698 70.5363H115.691L107.006 84.0296ZM116.892 83.3013C116.227 83.9486 115.352 84.2723 114.268 84.2723C113.183 84.2723 112.308 83.9486 111.644 83.3013C110.979 82.6539 110.647 81.8515 110.647 80.8939C110.647 79.9229 110.979 79.1137 111.644 78.4664C112.308 77.8055 113.183 77.4751 114.268 77.4751C115.352 77.4751 116.227 77.8055 116.892 78.4664C117.57 79.1137 117.909 79.9229 117.909 80.8939C117.909 81.8515 117.57 82.6539 116.892 83.3013ZM106.396 74.9868C106.749 74.9868 107.033 74.8857 107.25 74.6834C107.467 74.4811 107.576 74.1709 107.576 73.7528C107.576 73.3213 107.467 73.0043 107.25 72.802C107.033 72.5862 106.749 72.4783 106.396 72.4783C106.057 72.4783 105.779 72.5862 105.562 72.802C105.359 73.0043 105.257 73.3213 105.257 73.7528C105.257 74.1709 105.359 74.4811 105.562 74.6834C105.779 74.8857 106.057 74.9868 106.396 74.9868ZM114.268 82.128C115.054 82.128 115.447 81.7166 115.447 80.8939C115.447 80.4624 115.339 80.1454 115.122 79.9431C114.905 79.7274 114.62 79.6195 114.268 79.6195C113.495 79.6195 113.108 80.0443 113.108 80.8939C113.108 81.7166 113.495 82.128 114.268 82.128Z" fill="white"/>
<path d="M59.9579 82.3114C62.4015 82.3114 64.4564 80.2683 64.4564 77.8388C64.4564 75.4092 62.4015 73.3662 59.9579 73.3662C57.5143 73.3662 55.4595 75.4092 55.4595 77.8388C55.4595 80.2683 57.5143 82.3114 59.9579 82.3114Z" fill="white"/>
<path d="M39.37 82.5748C36.2507 82.5748 33.5049 81.9817 31.1325 80.7955C28.7601 79.5654 26.871 77.8959 25.4651 75.7871C24.0593 73.6783 23.0049 71.306 22.302 68.67C21.599 65.99 21.2476 63.0685 21.2476 59.9053C21.2476 53.2714 22.939 47.8237 26.3218 43.5622C29.7047 39.3007 34.4714 37.1699 40.6221 37.1699C45.7183 37.1699 49.9359 38.7954 53.2748 42.0465L49.6503 47.9116C47.1901 45.3195 44.1806 44.0235 40.6221 44.0235C37.1074 44.0235 34.2957 45.4294 32.1869 48.2411C30.0781 51.0528 29.0237 54.4796 29.0237 58.5214C29.0237 59.0925 29.0457 59.5099 29.0896 59.7735C30.1879 58.148 31.8135 56.7202 33.9662 55.49C36.1189 54.2599 38.4254 53.6448 40.8857 53.6448C45.0593 53.6448 48.552 54.8969 51.3637 57.4011C54.1754 59.8614 55.5813 63.3321 55.5813 67.8133C55.5813 71.9869 54.0876 75.5016 51.1001 78.3572C48.1127 81.1689 44.2026 82.5748 39.37 82.5748ZM38.9746 75.7212C41.6984 75.7212 43.8511 74.9524 45.4327 73.4147C47.0143 71.8332 47.8051 70.0539 47.8051 68.0769C47.8051 65.5288 46.9484 63.5957 45.235 62.2777C43.5216 60.9158 41.3689 60.2348 38.7769 60.2348C36.9317 60.2348 35.1524 60.7181 33.439 61.6846C31.7256 62.6072 30.2978 63.8593 29.1555 65.4409C29.4191 68.2526 30.3417 70.6689 31.9233 72.6898C33.5049 74.7108 35.8553 75.7212 38.9746 75.7212Z" fill="white"/>
<path d="M83.5011 83.1686C79.7668 83.1686 76.4499 82.5095 73.5503 81.1916C70.6946 79.8736 68.476 78.1602 66.8944 76.0514L71.0461 70.9771C72.4519 72.6026 74.2532 73.8987 76.4499 74.8652C78.6465 75.8317 80.9091 76.315 83.2375 76.315C86.0932 76.315 88.3338 75.7219 89.9593 74.5357C91.5848 73.3056 92.3976 71.6581 92.3976 69.5932C92.3976 65.4635 89.1465 63.3986 82.6444 63.3986C79.7009 63.3986 78.0095 63.4206 77.5702 63.4645V56.5451C78.0974 56.589 79.7888 56.611 82.6444 56.611C85.3683 56.611 87.543 56.1277 89.1685 55.1612C90.838 54.1947 91.6727 52.7449 91.6727 50.8118C91.6727 48.8348 90.838 47.3191 89.1685 46.2647C87.499 45.1664 85.3683 44.6172 82.7762 44.6172C78.4708 44.6172 74.6925 46.2428 71.4415 49.4938L67.4875 44.6831C71.3976 40.0702 76.7354 37.7637 83.5011 37.7637C88.2898 37.7637 92.134 38.84 95.0336 40.9928C97.9332 43.1015 99.3829 45.9792 99.3829 49.6256C99.3829 52.3495 98.4164 54.612 96.4834 56.4133C94.5942 58.1706 92.3756 59.2689 89.8275 59.7083C92.3317 59.9279 94.6601 60.9823 96.8129 62.8714C98.9656 64.7606 100.042 67.2648 100.042 70.384C100.042 74.1623 98.5263 77.2376 95.4949 79.61C92.5074 81.9824 88.5095 83.1686 83.5011 83.1686Z" fill="white"/>
<path d="M21.2476 31.4521V26.4121C21.7916 26.2841 22.1996 25.9721 22.4716 25.4761C22.7596 24.9641 22.9916 23.9881 23.1676 22.5481L23.8636 16.9081H32.8156V26.2921H34.0876V31.4521H31.5676V28.5001H23.7676V31.4521H21.2476ZM26.0956 19.1161L25.6876 22.8361C25.5276 24.3721 25.0156 25.5241 24.1516 26.2921H30.2956V19.1161H26.0956Z" fill="white"/>
<path d="M41.3905 28.7881C39.5985 28.7881 38.1585 28.2041 37.0705 27.0361C35.9825 25.8521 35.4385 24.4041 35.4385 22.6921C35.4385 20.9801 35.9825 19.5401 37.0705 18.3721C38.1585 17.2041 39.5985 16.6201 41.3905 16.6201C43.1985 16.6201 44.6465 17.2041 45.7345 18.3721C46.8225 19.5401 47.3665 20.9801 47.3665 22.6921C47.3665 24.4201 46.8225 25.8681 45.7345 27.0361C44.6465 28.2041 43.1985 28.7881 41.3905 28.7881ZM41.3905 26.5561C42.4305 26.5561 43.2465 26.1881 43.8385 25.4521C44.4465 24.7001 44.7505 23.7801 44.7505 22.6921C44.7505 21.6201 44.4465 20.7161 43.8385 19.9801C43.2465 19.2281 42.4305 18.8521 41.3905 18.8521C40.3665 18.8521 39.5505 19.2281 38.9425 19.9801C38.3505 20.7161 38.0545 21.6201 38.0545 22.6921C38.0545 23.7801 38.3505 24.7001 38.9425 25.4521C39.5505 26.1881 40.3665 26.5561 41.3905 26.5561Z" fill="white"/>
</svg>
