<svg width="65" height="64" viewBox="0 0 65 64" fill="none" xmlns="http://www.w3.org/2000/svg">
<rect x="0.525391" width="64" height="64" rx="8" fill="#FFCB00"/>
<path d="M42.3799 33.2196H40.1581V27.3354C40.1581 26.9204 39.8216 26.5839 39.4065 26.5839H34.031L29.7031 20.3239C29.4045 19.892 28.7652 19.8921 28.4667 20.3239L22.0526 29.6015C21.7091 30.0985 22.0647 30.7804 22.6708 30.7804H24.8927V36.6645C24.8927 37.0796 25.2292 37.4161 25.6442 37.4161H31.0197L35.3476 43.6761C35.6462 44.1079 36.2855 44.1079 36.584 43.6761L42.9981 34.3985C43.3417 33.9014 42.986 33.2196 42.3799 33.2196ZM35.9658 41.9272C32.0355 36.2423 37.2027 43.7164 30.9849 34.7227H32.5256C32.9407 34.7227 33.2772 34.3862 33.2772 33.9711V30.7805H35.499C36.1044 30.7805 36.4612 30.0991 36.1172 29.6015L35.0702 28.087H38.655V33.9711C38.655 34.3862 38.9915 34.7227 39.4065 34.7227H40.9467L35.9658 41.9272Z" fill="#314E36"/>
</svg>
