<svg width="65" height="64" viewBox="0 0 65 64" fill="none" xmlns="http://www.w3.org/2000/svg">
<rect x="0.525391" width="64" height="64" rx="8" fill="#E5F2D9"/>
<path fill-rule="evenodd" clip-rule="evenodd" d="M34.4045 20.7919C34.1598 20.5414 33.8675 20.3423 33.5448 20.2064C33.2221 20.0705 32.8755 20.0005 32.5253 20.0005C32.1751 20.0005 31.8285 20.0705 31.5058 20.2064C31.183 20.3423 30.8908 20.5414 30.6461 20.7919L29.4917 21.9739C29.2434 22.2283 28.9461 22.4297 28.6177 22.5658C28.2893 22.7019 27.9367 22.77 27.5813 22.7659L25.9289 22.7455C25.5787 22.7413 25.2312 22.8072 24.9068 22.9393C24.5824 23.0714 24.2877 23.267 24.0401 23.5147C23.7924 23.7623 23.5968 24.057 23.4647 24.3814C23.3326 24.7058 23.2667 25.0533 23.2709 25.4035L23.2901 27.0559C23.2942 27.4113 23.2261 27.7639 23.09 28.0923C22.9539 28.4207 22.7525 28.718 22.4981 28.9663L21.3173 30.1207C21.0668 30.3654 20.8677 30.6576 20.7318 30.9804C20.5959 31.3031 20.5259 31.6497 20.5259 31.9999C20.5259 32.3501 20.5959 32.6967 20.7318 33.0194C20.8677 33.3421 21.0668 33.6344 21.3173 33.8791L22.4993 35.0335C23.0129 35.5351 23.2997 36.2263 23.2913 36.9439L23.2709 38.5963C23.2667 38.9465 23.3326 39.294 23.4647 39.6184C23.5968 39.9428 23.7924 40.2374 24.0401 40.4851C24.2877 40.7328 24.5824 40.9284 24.9068 41.0605C25.2312 41.1926 25.5787 41.2585 25.9289 41.2543L27.5813 41.2351C27.9367 41.231 28.2893 41.299 28.6177 41.4352C28.9461 41.5713 29.2434 41.7727 29.4917 42.0271L30.6461 43.2079C31.6769 44.2639 33.3737 44.2639 34.4045 43.2079L35.5589 42.0259C35.8072 41.7715 36.1045 41.5701 36.4329 41.434C36.7612 41.2978 37.1138 41.2298 37.4693 41.2339L39.1217 41.2543C39.4719 41.2585 39.8194 41.1926 40.1438 41.0605C40.4682 40.9284 40.7628 40.7328 41.0105 40.4851C41.2582 40.2374 41.4538 39.9428 41.5859 39.6184C41.718 39.294 41.7839 38.9465 41.7797 38.5963L41.7605 36.9439C41.7564 36.5884 41.8244 36.2358 41.9606 35.9075C42.0967 35.5791 42.2981 35.2818 42.5525 35.0335L43.7333 33.8791C44.7893 32.8483 44.7893 31.1515 43.7333 30.1207L42.5513 28.9663C42.2969 28.718 42.0955 28.4207 41.9594 28.0923C41.8232 27.7639 41.7552 27.4113 41.7593 27.0559L41.7797 25.4035C41.7839 25.0533 41.718 24.7058 41.5859 24.3814C41.4538 24.057 41.2582 23.7623 41.0105 23.5147C40.7628 23.267 40.4682 23.0714 40.1438 22.9393C39.8194 22.8072 39.4719 22.7413 39.1217 22.7455L37.4693 22.7647C37.1138 22.7688 36.7612 22.7007 36.4329 22.5646C36.1045 22.4285 35.8072 22.2271 35.5589 21.9727L34.4045 20.7919ZM28.9253 30.1999C29.1617 30.1999 29.3957 30.1533 29.6141 30.0629C29.8325 29.9724 30.0309 29.8398 30.1981 29.6727C30.3652 29.5055 30.4978 29.3071 30.5883 29.0887C30.6787 28.8703 30.7253 28.6363 30.7253 28.3999C30.7253 28.1635 30.6787 27.9294 30.5883 27.7111C30.4978 27.4927 30.3652 27.2942 30.1981 27.1271C30.0309 26.96 29.8325 26.8274 29.6141 26.7369C29.3957 26.6464 29.1617 26.5999 28.9253 26.5999C28.4479 26.5999 27.9901 26.7895 27.6525 27.1271C27.3149 27.4647 27.1253 27.9225 27.1253 28.3999C27.1253 28.8773 27.3149 29.3351 27.6525 29.6727C27.9901 30.0102 28.4479 30.1999 28.9253 30.1999ZM36.1253 37.3999C36.6027 37.3999 37.0605 37.2102 37.3981 36.8727C37.7356 36.5351 37.9253 36.0773 37.9253 35.5999C37.9253 35.1225 37.7356 34.6647 37.3981 34.3271C37.0605 33.9895 36.6027 33.7999 36.1253 33.7999C35.6479 33.7999 35.1901 33.9895 34.8525 34.3271C34.5149 34.6647 34.3253 35.1225 34.3253 35.5999C34.3253 36.0773 34.5149 36.5351 34.8525 36.8727C35.1901 37.2102 35.6479 37.3999 36.1253 37.3999ZM37.0589 27.4663C37.1815 27.5889 37.2788 27.7344 37.3452 27.8946C37.4116 28.0548 37.4457 28.2265 37.4457 28.3999C37.4457 28.5733 37.4116 28.745 37.3452 28.9052C37.2788 29.0654 37.1815 29.2109 37.0589 29.3335L29.8589 36.5335C29.6113 36.7811 29.2754 36.9202 28.9253 36.9202C28.5751 36.9202 28.2393 36.7811 27.9917 36.5335C27.7441 36.2859 27.605 35.9501 27.605 35.5999C27.605 35.2497 27.7441 34.9139 27.9917 34.6663L35.1917 27.4663C35.3143 27.3437 35.4598 27.2464 35.62 27.18C35.7802 27.1136 35.9519 27.0795 36.1253 27.0795C36.2987 27.0795 36.4704 27.1136 36.6306 27.18C36.7908 27.2464 36.9363 27.3437 37.0589 27.4663Z" fill="#314E36"/>
</svg>
