<svg width="65" height="64" viewBox="0 0 65 64" fill="none" xmlns="http://www.w3.org/2000/svg">
<rect x="0.525391" width="64" height="64" rx="8" fill="#FFCB00"/>
<path fill-rule="evenodd" clip-rule="evenodd" d="M25.3253 21.2031C24.7337 21.2031 23.8721 21.3711 23.1245 21.9087C22.3157 22.4919 21.7253 23.4519 21.7253 24.8031V41.0031C21.7253 41.4805 21.915 41.9383 22.2525 42.2759C22.5901 42.6135 23.048 42.8031 23.5253 42.8031H41.5253C42.0027 42.8031 42.4606 42.6135 42.7981 42.2759C43.1357 41.9383 43.3253 41.4805 43.3253 41.0031V38.0031H39.7253C39.1337 38.0031 38.2721 37.8351 37.5245 37.2975C36.7133 36.7131 36.1253 35.7543 36.1253 34.4031C36.1253 33.0519 36.7157 32.0919 37.5245 31.5087C38.1694 31.0554 38.9371 30.8093 39.7253 30.8031H43.3253V27.8031C43.3253 26.8143 42.5273 26.0031 41.5277 26.0031H40.9253V23.0031C40.9253 22.5257 40.7357 22.0679 40.3981 21.7303C40.0606 21.3928 39.6027 21.2031 39.1253 21.2031H25.3253ZM39.7253 33.2031H43.3253V35.6031H39.7253C39.5177 35.6031 39.1781 35.5311 38.9261 35.3499C38.7353 35.2119 38.5253 34.9719 38.5253 34.4031C38.5253 33.8343 38.7353 33.5943 38.9261 33.4563C39.1781 33.2763 39.5177 33.2031 39.7253 33.2031ZM25.3253 23.6031C25.0071 23.6031 24.7019 23.7296 24.4768 23.9546C24.2518 24.1796 24.1253 24.4849 24.1253 24.8031V26.0031H38.5253V23.6031H25.3253Z" fill="#314E36"/>
</svg>
