<svg width="65" height="64" viewBox="0 0 65 64" fill="none" xmlns="http://www.w3.org/2000/svg">
<rect x="0.525391" width="64" height="64" rx="8" fill="#E5F2D9"/>
<path fill-rule="evenodd" clip-rule="evenodd" d="M24.1254 21.8C24.1254 20.84 24.9654 20 25.9254 20H39.1254C40.0854 20 40.9254 20.84 40.9254 21.8V42.2C40.9254 43.16 40.0854 44 39.1254 44H25.9254C24.9654 44 24.1254 43.16 24.1254 42.2V21.8ZM26.5254 22.4H38.5254V39.2H26.5254V22.4ZM31.3254 40.4C31.0071 40.4 30.7019 40.5264 30.4768 40.7515C30.2518 40.9765 30.1254 41.2817 30.1254 41.6C30.1254 41.9183 30.2518 42.2235 30.4768 42.4485C30.7019 42.6736 31.0071 42.8 31.3254 42.8H33.7254C34.0436 42.8 34.3489 42.6736 34.5739 42.4485C34.7989 42.2235 34.9254 41.9183 34.9254 41.6C34.9254 41.2817 34.7989 40.9765 34.5739 40.7515C34.3489 40.5264 34.0436 40.4 33.7254 40.4H31.3254Z" fill="#5C5F62"/>
</svg>
