<svg width="65" height="64" viewBox="0 0 65 64" fill="none" xmlns="http://www.w3.org/2000/svg">
<rect x="0.525391" width="64" height="64" rx="8" fill="#E5F2D9"/>
<path d="M36.1062 42C35.8597 42.0003 35.6191 41.9214 35.4172 41.7743C35.2153 41.6271 35.0618 41.4187 34.9776 41.1775L31.2834 30.6104L28.8222 37.4414C28.7425 37.6612 28.605 37.8532 28.4253 37.9955C28.2457 38.1377 28.0313 38.2244 27.8065 38.2457C27.5818 38.2669 27.3558 38.2219 27.1545 38.1157C26.9532 38.0095 26.7847 37.8464 26.6683 37.6452L24.0414 33.0878L22.6919 35.194C22.5076 35.4507 22.2358 35.624 21.9324 35.6784C21.629 35.7327 21.3172 35.6639 21.0611 35.4862C20.805 35.3084 20.624 35.0352 20.5556 34.7227C20.4871 34.4103 20.5362 34.0824 20.6929 33.8066L23.0953 30.0567C23.2049 29.8786 23.3575 29.7336 23.5379 29.6362C23.7182 29.5388 23.92 29.4924 24.123 29.5017C24.3255 29.5064 24.5236 29.5645 24.6987 29.6705C24.8738 29.7765 25.0202 29.927 25.1243 30.1079L27.4487 34.1365L30.1752 26.5631C30.261 26.3242 30.4148 26.1184 30.6161 25.9732C30.8174 25.828 31.0565 25.7503 31.3014 25.7506H31.3074C31.5528 25.752 31.7919 25.8315 31.9926 25.9786C32.1932 26.1256 32.3459 26.3331 32.43 26.5731L35.9693 36.6977L39.756 22.907C39.9001 22.382 40.3587 22.0145 40.8846 22.002C41.4009 21.9695 41.8859 22.337 42.0492 22.8557L44.4528 30.3554C44.5078 30.5125 44.5319 30.6794 44.5239 30.8463C44.5158 31.0132 44.4757 31.1768 44.4058 31.3273C44.336 31.4778 44.2379 31.6121 44.1173 31.7225C43.9967 31.8328 43.8561 31.9168 43.7037 31.9696C43.5514 32.0223 43.3905 32.0427 43.2304 32.0296C43.0704 32.0164 42.9145 31.97 42.772 31.8931C42.6295 31.8161 42.5032 31.7102 42.4007 31.5815C42.2982 31.4529 42.2216 31.3042 42.1752 31.1442L40.9987 27.4793L37.2624 41.0888C37.1929 41.3434 37.0475 41.5684 36.8473 41.7315C36.6471 41.8946 36.4023 41.9873 36.1482 41.9962H36.1062" fill="#5C5F62"/>
</svg>
