<svg width="24" height="25" viewBox="0 0 24 25" fill="none" xmlns="http://www.w3.org/2000/svg">
<path fill-rule="evenodd" clip-rule="evenodd" d="M3.00001 1.89215C2.52262 1.89215 2.06479 2.08179 1.72722 2.41936C1.38965 2.75692 1.20001 3.21476 1.20001 3.69215V16.8921C1.20001 17.3695 1.38965 17.8274 1.72722 18.1649C2.06479 18.5025 2.52262 18.6922 3.00001 18.6922H8.40001C8.40001 19.3221 8.38201 19.6437 8.22721 19.9557C8.08321 20.2425 7.72801 20.6878 6.66361 21.2194C6.41995 21.3413 6.22506 21.5426 6.11098 21.79C5.9969 22.0375 5.97043 22.3164 6.03592 22.5809C6.10142 22.8454 6.25498 23.0797 6.47134 23.2453C6.68771 23.4109 6.954 23.498 7.22641 23.4921H16.7736C17.0481 23.4972 17.3162 23.4084 17.5333 23.2404C17.7504 23.0723 17.9037 22.8352 17.9676 22.5681C18.0308 22.3009 18.0004 22.02 17.8816 21.7724C17.7628 21.5248 17.5628 21.3254 17.3148 21.2073C16.2672 20.6805 15.9156 20.2401 15.7728 19.9557C15.6168 19.6437 15.6 19.3221 15.6 18.6922H21C21.4774 18.6922 21.9352 18.5025 22.2728 18.1649C22.6104 17.8274 22.8 17.3695 22.8 16.8921V3.69215C22.8 3.21476 22.6104 2.75692 22.2728 2.41936C21.9352 2.08179 21.4774 1.89215 21 1.89215H3.00001ZM13.6596 21.0921C13.6486 21.0711 13.6378 21.0499 13.6272 21.0286C13.1988 20.1718 13.1988 19.3246 13.2 18.7545V18.6922H10.8V18.7545C10.8 19.3246 10.8012 20.1718 10.3728 21.0286C10.3622 21.0499 10.3514 21.0711 10.3404 21.0921H13.6596ZM20.4 13.8921H3.60001V16.2922H20.4V13.8921Z" fill="#314E36"/>
</svg>
