<svg width="80" height="80" viewBox="0 0 80 80" fill="none" xmlns="http://www.w3.org/2000/svg">
<g clip-path="url(#clip0)">
<path fill-rule="evenodd" clip-rule="evenodd" d="M40 76C59.8823 76 76 59.8823 76 40C76 20.1177 59.8823 4 40 4C20.1177 4 4 20.1177 4 40C4 59.8823 20.1177 76 40 76ZM40 80C62.0914 80 80 62.0914 80 40C80 17.9086 62.0914 0 40 0C17.9086 0 0 17.9086 0 40C0 62.0914 17.9086 80 40 80Z" fill="#E5E5E5"/>
<path fill-rule="evenodd" clip-rule="evenodd" d="M77.2068 24.9962C71.0648 9.76431 55.8541 -0.702973 38.5025 -0.0100182C38.4192 -0.00669038 38.3359 -0.00310958 38.2528 0.000722284L38.4124 3.99762C38.4956 3.99373 38.5788 3.99012 38.6622 3.9868C54.234 3.36492 67.8899 12.7299 73.4484 26.375L77.2068 24.9962Z" fill="#6BA237"/>
</g>
<path fill-rule="evenodd" clip-rule="evenodd" d="M38.8696 48.4173L43.8932 47.0845C43.9965 47.057 44.0904 47.0028 44.166 46.9273L48.973 42.1205V50.1887C48.9721 51.1924 48.1586 52.0057 47.1548 52.0068H32.1818C31.178 52.0057 30.3648 51.1924 30.3636 50.1887V29.825C30.3648 28.8212 31.178 28.008 32.1818 28.0068H47.1551C48.1586 28.008 48.9721 28.8212 48.9733 29.825V33.0168L39.6189 42.3442C39.5426 42.4202 39.4882 42.5149 39.4607 42.6191L38.1281 47.6771C38.0732 47.8859 38.1333 48.1079 38.286 48.2604C38.4387 48.4128 38.661 48.4727 38.8696 48.4173ZM50.2874 33.418C50.9984 32.7116 52.1466 32.7128 52.8563 33.4204L53.1219 33.686C53.8307 34.3965 53.8307 35.5468 53.1219 36.2573L52.7869 36.5922L49.9496 33.7549L50.2874 33.418ZM40.9025 42.7762L43.7396 45.6396L51.9299 37.4493L49.0914 34.6107L40.9025 42.7762ZM40.3625 43.9536L42.5701 46.1816L39.5654 46.9787L40.3625 43.9536Z" fill="#314E36"/>
<defs>
<clipPath id="clip0">
<rect width="80" height="80" fill="white"/>
</clipPath>
</defs>
</svg>
