<svg width="80" height="80" viewBox="0 0 80 80" fill="none" xmlns="http://www.w3.org/2000/svg">
<g clip-path="url(#clip0)">
<path d="M37.02 35H37.01C36.734 35 36.515 35.224 36.515 35.5C36.515 35.776 36.744 36 37.02 36C37.296 36 37.52 35.776 37.52 35.5C37.52 35.224 37.296 35 37.02 35Z" fill="#314E36"/>
<path d="M34.5 35H32.5C32.224 35 32 35.224 32 35.5C32 35.776 32.224 36 32.5 36H34.5C34.776 36 35 35.776 35 35.5C35 35.224 34.776 35 34.5 35Z" fill="#314E36"/>
<path d="M37 33H30C28.622 33 27.5 34.122 27.5 35.5V49.5C27.5 50.878 28.622 52 30 52H37C38.378 52 39.5 50.878 39.5 49.5V35.5C39.5 34.122 38.378 33 37 33ZM33.5 50.5C32.949 50.5 32.5 50.051 32.5 49.5C32.5 48.949 32.949 48.5 33.5 48.5C34.051 48.5 34.5 48.949 34.5 49.5C34.5 50.051 34.051 50.5 33.5 50.5ZM38.5 47H28.5V35.5C28.5 34.673 29.173 34 30 34H37C37.827 34 38.5 34.673 38.5 35.5V47H38.5Z" fill="#314E36"/>
<path d="M49 28H36C34.622 28 33.5 29.122 33.5 30.5V31.5C33.5 31.776 33.724 32 34 32H36C36.276 32 36.5 31.776 36.5 31.5V31H48.5V47H41C40.724 47 40.5 47.224 40.5 47.5V49.5C40.5 50.053 40.357 50.602 40.075 51.13C40.046 51.184 40.028 51.243 40.02 51.304L40.003 51.439C39.985 51.581 40.03 51.724 40.125 51.831C40.22 51.938 40.357 52 40.5 52H49C50.378 52 51.5 50.878 51.5 49.5V30.5C51.5 29.122 50.378 28 49 28ZM42.5 50.5C41.949 50.5 41.5 50.051 41.5 49.5C41.5 48.949 41.949 48.5 42.5 48.5C43.051 48.5 43.5 48.949 43.5 49.5C43.5 50.051 43.051 50.5 42.5 50.5Z" fill="#314E36"/>
</g>
<path fill-rule="evenodd" clip-rule="evenodd" d="M40 76C59.8823 76 76 59.8823 76 40C76 20.1177 59.8823 4 40 4C20.1177 4 4 20.1177 4 40C4 59.8823 20.1177 76 40 76ZM40 80C62.0914 80 80 62.0914 80 40C80 17.9086 62.0914 0 40 0C17.9086 0 0 17.9086 0 40C0 62.0914 17.9086 80 40 80Z" fill="#E5E5E5"/>
<path fill-rule="evenodd" clip-rule="evenodd" d="M72.5252 63.2886C77.2301 56.7293 80 48.6881 80 40C80 17.9086 62.0914 0 40 0C39.9199 0 39.8398 0.000235637 39.7598 0.000706255V4.00078C39.8398 4.00026 39.9199 4 40 4C59.8823 4 76 20.1177 76 40C76 47.8099 73.5131 55.0389 69.288 60.9383L72.5252 63.2886Z" fill="#67A32C"/>
<defs>
<clipPath id="clip0">
<rect width="24" height="24" fill="white" transform="translate(27.5 28)"/>
</clipPath>
</defs>
</svg>
