<svg width="94" height="41" viewBox="0 0 94 41" fill="none" xmlns="http://www.w3.org/2000/svg">
<path fill-rule="evenodd" clip-rule="evenodd" d="M56.9642 40.442C54.4098 40.442 52.1456 39.8615 50.1718 38.7004C48.2366 37.5006 46.6884 35.9137 45.5273 33.9398C44.4049 31.966 43.5535 29.8373 42.9729 27.5538C42.4311 25.2703 42.1601 22.89 42.1601 20.413C42.1601 17.936 42.4311 15.5557 42.9729 13.2722C43.5535 10.9887 44.4049 8.87937 45.5273 6.9442C46.6884 4.97032 48.2366 3.40283 50.1718 2.24173C52.1456 1.04192 54.4098 0.442017 56.9642 0.442017C59.4799 0.442017 61.7247 1.04192 63.6986 2.24173C65.6725 3.40283 67.2206 4.97032 68.343 6.9442C69.5041 8.87937 70.3556 10.9887 70.8975 13.2722C71.478 15.5557 71.7683 17.936 71.7683 20.413C71.7683 22.89 71.478 25.2703 70.8975 27.5538C70.3556 29.8373 69.5041 31.966 68.343 33.9398C67.2206 35.9137 65.6725 37.5006 63.6986 38.7004C61.7247 39.8615 59.4799 40.442 56.9642 40.442ZM51.1587 33.7657C52.7068 35.3525 54.642 36.1459 56.9642 36.1459C59.2864 36.1459 61.2216 35.3525 62.7697 33.7657C64.3179 32.1401 65.3822 30.205 65.9628 27.9602C66.5433 25.7154 66.8336 23.1996 66.8336 20.413C66.8336 17.6263 66.5433 15.1106 65.9628 12.8658C65.3822 10.621 64.3179 8.7052 62.7697 7.11836C61.2216 5.53152 59.2864 4.7381 56.9642 4.7381C54.642 4.7381 52.7068 5.53152 51.1587 7.11836C49.6106 8.7052 48.5462 10.621 47.9657 12.8658C47.3851 15.1106 47.0948 17.6263 47.0948 20.413C47.0948 23.1996 47.3851 25.7154 47.9657 27.9602C48.5462 30.205 49.6106 32.1401 51.1587 33.7657ZM25.7509 39.7454H20.4099L36.0267 5.31865H15.1849V1.02257H41.6V4.33171L25.7509 39.7454ZM11.6288 24.4016H6.85534V29.7427H4.94597V24.4016H0.172546V22.647H4.94597V17.4866H6.85534V22.647H11.6288V24.4016ZM77.2035 29.6309C77.9948 30.4221 79.0183 30.8178 80.274 30.8178C81.5469 30.8178 82.579 30.4221 83.3702 29.6309C84.1787 28.8224 84.583 27.8075 84.583 26.5862C84.583 25.3477 84.1787 24.3242 83.3702 23.5157C82.579 22.69 81.5469 22.2772 80.274 22.2772C79.0183 22.2772 77.9948 22.69 77.2035 23.5157C76.4122 24.3242 76.0166 25.3477 76.0166 26.5862C76.0166 27.8075 76.4122 28.8224 77.2035 29.6309ZM78.6226 39.7454H80.3256L91.3432 22.5352H89.6144L78.6226 39.7454ZM89.537 40.055C90.7927 40.055 91.8162 39.6594 92.6075 38.8681C93.4159 38.0596 93.8202 37.0447 93.8202 35.8234C93.8202 34.6021 93.4159 33.5786 92.6075 32.7529C91.8162 31.9273 90.7927 31.5144 89.537 31.5144C88.2813 31.5144 87.2578 31.9273 86.4665 32.7529C85.6753 33.5614 85.2796 34.5849 85.2796 35.8234C85.2796 37.0447 85.6753 38.0596 86.4665 38.8681C87.2578 39.6594 88.2813 40.055 89.537 40.055ZM81.9253 28.4182C81.4953 28.8826 80.9448 29.1148 80.274 29.1148C79.6203 29.1148 79.0785 28.8826 78.6484 28.4182C78.2184 27.9365 78.0034 27.3259 78.0034 26.5862C78.0034 25.8121 78.2098 25.1929 78.6226 24.7284C79.0527 24.2468 79.6031 24.006 80.274 24.006C80.9448 24.006 81.4953 24.2468 81.9253 24.7284C82.3554 25.1929 82.5704 25.8121 82.5704 26.5862C82.5704 27.3259 82.3554 27.9365 81.9253 28.4182ZM89.537 38.352C88.8661 38.352 88.3157 38.1198 87.8857 37.6554C87.4728 37.1737 87.2664 36.5631 87.2664 35.8234C87.2664 35.0493 87.4728 34.4301 87.8857 33.9656C88.3157 33.484 88.8661 33.2432 89.537 33.2432C90.2079 33.2432 90.7583 33.484 91.1883 33.9656C91.6184 34.4301 91.8334 35.0493 91.8334 35.8234C91.8334 36.5631 91.6184 37.1737 91.1883 37.6554C90.7583 38.1198 90.2079 38.352 89.537 38.352Z" fill="#197A33"/>
</svg>
