<svg width="64" height="65" viewBox="0 0 64 65" fill="none" xmlns="http://www.w3.org/2000/svg">
<rect y="0.758789" width="64" height="64" rx="8" fill="#FFCB00"/>
<path fill-rule="evenodd" clip-rule="evenodd" d="M29.3218 44.7588C26.6513 44.7588 24.5032 43.8299 22.8777 41.9721L24.3407 39.8125C25.6875 41.3916 27.3479 42.1811 29.3218 42.1811C30.808 42.1811 32.062 41.7167 33.0838 40.7878C34.1055 39.8589 34.8254 38.7327 35.2434 37.409C35.6614 36.0854 35.8704 34.6456 35.8704 33.0897C35.8704 32.6717 35.8588 32.3582 35.8356 32.1492C35.255 33.0781 34.361 33.9141 33.1534 34.6572C31.9459 35.4003 30.6571 35.7719 29.287 35.7719C27.0809 35.7719 25.2579 35.1332 23.8182 33.856C22.3784 32.5556 21.6585 30.7211 21.6585 28.3524C21.6585 26.2624 22.4016 24.4743 23.8878 22.9881C25.374 21.5019 27.3363 20.7588 29.7746 20.7588C31.3537 20.7588 32.7354 21.0839 33.9198 21.7341C35.1041 22.3843 36.033 23.2784 36.7064 24.4163C37.4031 25.5541 37.914 26.8197 38.2391 28.2131C38.5874 29.6064 38.7616 31.1274 38.7616 32.7762C38.7616 34.9591 38.4365 36.933 37.7862 38.6978C37.136 40.4395 36.0794 41.8909 34.6164 43.052C33.1767 44.1898 31.4118 44.7588 29.3218 44.7588ZM29.9488 33.2639C31.0867 33.2639 32.1781 32.9504 33.2231 32.3234C34.2913 31.6964 35.1273 30.8604 35.7311 29.8154C35.5918 28.097 35.046 26.5875 34.0939 25.2871C33.1418 23.9867 31.7485 23.3364 29.914 23.3364C28.2652 23.3364 26.9648 23.8473 26.0127 24.8691C25.0605 25.8909 24.5845 27.0171 24.5845 28.2479C24.5845 29.8735 25.0838 31.1158 26.0823 31.975C27.0809 32.8343 28.3697 33.2639 29.9488 33.2639ZM19.1652 35.1694H16.3011V38.374H15.1555V35.1694H12.2914V34.1167H15.1555V31.0204H16.3011V34.1167H19.1652V35.1694ZM41.7385 38.3069C42.2133 38.7817 42.8274 39.0191 43.5808 39.0191C44.3446 39.0191 44.9638 38.7817 45.4386 38.3069C45.9237 37.8219 46.1662 37.2129 46.1662 36.4801C46.1662 35.737 45.9237 35.1229 45.4386 34.6379C44.9638 34.1425 44.3446 33.8947 43.5808 33.8947C42.8274 33.8947 42.2133 34.1425 41.7385 34.6379C41.2638 35.1229 41.0264 35.737 41.0264 36.4801C41.0264 37.2129 41.2638 37.8219 41.7385 38.3069ZM42.59 44.3756H43.6118L50.2223 34.0496H49.1851L42.59 44.3756ZM49.1386 44.5614C49.8921 44.5614 50.5061 44.324 50.9809 43.8493C51.466 43.3642 51.7085 42.7553 51.7085 42.0225C51.7085 41.2897 51.466 40.6756 50.9809 40.1802C50.5061 39.6848 49.8921 39.4371 49.1386 39.4371C48.3852 39.4371 47.7711 39.6848 47.2963 40.1802C46.8216 40.6653 46.5842 41.2794 46.5842 42.0225C46.5842 42.7553 46.8216 43.3642 47.2963 43.8493C47.7711 44.324 48.3852 44.5614 49.1386 44.5614ZM44.5716 37.5793C44.3136 37.858 43.9833 37.9973 43.5808 37.9973C43.1886 37.9973 42.8635 37.858 42.6055 37.5793C42.3475 37.2903 42.2185 36.9239 42.2185 36.4801C42.2185 36.0157 42.3423 35.6441 42.59 35.3655C42.848 35.0765 43.1783 34.932 43.5808 34.932C43.9833 34.932 44.3136 35.0765 44.5716 35.3655C44.8296 35.6441 44.9587 36.0157 44.9587 36.4801C44.9587 36.9239 44.8296 37.2903 44.5716 37.5793ZM49.1386 43.5396C48.7361 43.5396 48.4058 43.4003 48.1478 43.1216C47.9001 42.8327 47.7763 42.4663 47.7763 42.0225C47.7763 41.558 47.9001 41.1865 48.1478 40.9078C48.4058 40.6188 48.7361 40.4743 49.1386 40.4743C49.5411 40.4743 49.8714 40.6188 50.1294 40.9078C50.3875 41.1865 50.5165 41.558 50.5165 42.0225C50.5165 42.4663 50.3875 42.8327 50.1294 43.1216C49.8714 43.4003 49.5411 43.5396 49.1386 43.5396Z" fill="#314E36"/>
</svg>
