<svg width="66" height="41" viewBox="0 0 66 41" fill="none" xmlns="http://www.w3.org/2000/svg">
<path fill-rule="evenodd" clip-rule="evenodd" d="M28.5565 40.388C24.1056 40.388 20.5255 38.8399 17.8163 35.7436L20.2546 32.1442C22.4994 34.776 25.2667 36.0919 28.5565 36.0919C31.0335 36.0919 33.1235 35.3179 34.8264 33.7697C36.5294 32.2216 37.7292 30.3445 38.4258 28.1384C39.1225 25.9323 39.4708 23.5327 39.4708 20.9395C39.4708 20.2429 39.4515 19.7204 39.4128 19.372C38.4452 20.9202 36.9551 22.3135 34.9425 23.552C32.93 24.7905 30.7819 25.4098 28.4984 25.4098C24.8216 25.4098 21.7834 24.3454 19.3838 22.2167C16.9841 20.0493 15.7843 16.9918 15.7843 13.044C15.7843 9.56072 17.0228 6.58055 19.4999 4.10353C21.9769 1.62651 25.2473 0.388 29.3112 0.388C31.943 0.388 34.2459 0.929848 36.2198 2.01354C38.1936 3.09724 39.7418 4.58732 40.8642 6.48379C42.0253 8.38026 42.8767 10.4896 43.4186 12.8118C43.9991 15.134 44.2894 17.6691 44.2894 20.417C44.2894 24.0552 43.7476 27.3449 42.6639 30.2864C41.5802 33.1892 39.8192 35.6081 37.3809 37.5433C34.9812 39.4398 32.0398 40.388 28.5565 40.388ZM29.6015 21.2298C31.4979 21.2298 33.317 20.7073 35.0587 19.6623C36.839 18.6173 38.2323 17.224 39.2386 15.4823C39.0064 12.6183 38.0969 10.1026 36.51 7.93517C34.9232 5.76778 32.601 4.68408 29.5434 4.68408C26.7955 4.68408 24.6281 5.53556 23.0412 7.23851C21.4544 8.94146 20.661 10.8186 20.661 12.8699C20.661 15.5791 21.4931 17.6497 23.1573 19.0818C24.8216 20.5138 26.9696 21.2298 29.6015 21.2298ZM11.6288 24.4057H6.85534V29.7467H4.94597V24.4057H0.172546V22.6511H4.94597V17.4906H6.85534V22.6511H11.6288V24.4057ZM49.251 29.6349C50.0423 30.4262 51.0658 30.8218 52.3215 30.8218C53.5944 30.8218 54.6265 30.4262 55.4178 29.6349C56.2262 28.8264 56.6305 27.8116 56.6305 26.5902C56.6305 25.3517 56.2262 24.3282 55.4178 23.5198C54.6265 22.6941 53.5944 22.2813 52.3215 22.2813C51.0658 22.2813 50.0423 22.6941 49.251 23.5198C48.4597 24.3282 48.0641 25.3517 48.0641 26.5902C48.0641 27.8116 48.4597 28.8264 49.251 29.6349ZM50.6701 39.7494H52.3731L63.3907 22.5393H61.6619L50.6701 39.7494ZM61.5845 40.059C62.8402 40.059 63.8637 39.6634 64.655 38.8721C65.4635 38.0637 65.8677 37.0488 65.8677 35.8275C65.8677 34.6062 65.4635 33.5827 64.655 32.757C63.8637 31.9313 62.8402 31.5185 61.5845 31.5185C60.3288 31.5185 59.3053 31.9313 58.514 32.757C57.7228 33.5655 57.3271 34.589 57.3271 35.8275C57.3271 37.0488 57.7228 38.0637 58.514 38.8721C59.3053 39.6634 60.3288 40.059 61.5845 40.059ZM53.9728 28.4222C53.5428 28.8867 52.9923 29.1189 52.3215 29.1189C51.6678 29.1189 51.126 28.8867 50.6959 28.4222C50.2659 27.9406 50.0509 27.3299 50.0509 26.5902C50.0509 25.8162 50.2573 25.1969 50.6701 24.7325C51.1002 24.2508 51.6506 24.01 52.3215 24.01C52.9923 24.01 53.5428 24.2508 53.9728 24.7325C54.4029 25.1969 54.6179 25.8162 54.6179 26.5902C54.6179 27.3299 54.4029 27.9406 53.9728 28.4222ZM61.5845 38.3561C60.9137 38.3561 60.3632 38.1239 59.9332 37.6594C59.5203 37.1778 59.3139 36.5671 59.3139 35.8275C59.3139 35.0534 59.5203 34.4341 59.9332 33.9697C60.3632 33.4881 60.9137 33.2472 61.5845 33.2472C62.2554 33.2472 62.8058 33.4881 63.2359 33.9697C63.6659 34.4341 63.8809 35.0534 63.8809 35.8275C63.8809 36.5671 63.6659 37.1778 63.2359 37.6594C62.8058 38.1239 62.2554 38.3561 61.5845 38.3561Z" fill="#197A33"/>
</svg>
