<svg width="94" height="41" viewBox="0 0 94 41" fill="none" xmlns="http://www.w3.org/2000/svg">
<path fill-rule="evenodd" clip-rule="evenodd" d="M59.1469 40.442C56.5925 40.442 54.3283 39.8615 52.3545 38.7004C50.4193 37.5006 48.8711 35.9137 47.71 33.9398C46.5876 31.966 45.7362 29.8373 45.1556 27.5538C44.6138 25.2703 44.3428 22.89 44.3428 20.413C44.3428 17.936 44.6138 15.5557 45.1556 13.2722C45.7362 10.9887 46.5876 8.87937 47.71 6.9442C48.8711 4.97032 50.4193 3.40283 52.3545 2.24173C54.3283 1.04192 56.5925 0.442017 59.1469 0.442017C61.6626 0.442017 63.9074 1.04192 65.8813 2.24173C67.8552 3.40283 69.4033 4.97032 70.5257 6.9442C71.6868 8.87937 72.5383 10.9887 73.0801 13.2722C73.6607 15.5557 73.951 17.936 73.951 20.413C73.951 22.89 73.6607 25.2703 73.0801 27.5538C72.5383 29.8373 71.6868 31.966 70.5257 33.9398C69.4033 35.9137 67.8552 37.5006 65.8813 38.7004C63.9074 39.8615 61.6626 40.442 59.1469 40.442ZM53.3414 33.7657C54.8895 35.3525 56.8247 36.1459 59.1469 36.1459C61.4691 36.1459 63.4043 35.3525 64.9524 33.7657C66.5006 32.1401 67.5649 30.205 68.1455 27.9602C68.726 25.7154 69.0163 23.1996 69.0163 20.413C69.0163 17.6263 68.726 15.1106 68.1455 12.8658C67.5649 10.621 66.5006 8.7052 64.9524 7.11836C63.4043 5.53152 61.4691 4.7381 59.1469 4.7381C56.8247 4.7381 54.8895 5.53152 53.3414 7.11836C51.7933 8.7052 50.7289 10.621 50.1484 12.8658C49.5678 15.1106 49.2775 17.6263 49.2775 20.413C49.2775 23.1996 49.5678 25.7154 50.1484 27.9602C50.7289 30.205 51.7933 32.1401 53.3414 33.7657ZM28.677 40.442C22.7167 40.442 18.169 38.3714 15.034 34.2301L17.9949 31.0371C20.6654 34.443 24.2261 36.1459 28.677 36.1459C31.3088 36.1459 33.4569 35.3525 35.1211 33.7657C36.7854 32.1788 37.6175 30.205 37.6175 27.8441C37.6175 25.3283 36.7854 23.3158 35.1211 21.8063C33.4956 20.2582 31.3669 19.4841 28.7351 19.4841C25.2518 19.4841 22.2716 20.7033 19.7946 23.1416L16.2532 21.9224V1.02257H39.9397V5.31865H21.0718V18.7874C23.394 16.4652 26.4129 15.3041 30.1284 15.3041C33.5343 15.3041 36.4371 16.4265 38.8367 18.6713C41.2363 20.8774 42.4361 23.877 42.4361 27.6699C42.4361 31.5402 41.1395 34.6365 38.5464 36.9587C35.9533 39.2809 32.6635 40.442 28.677 40.442ZM11.6288 24.4016H6.85534V29.7427H4.94597V24.4016H0.172546V22.647H4.94597V17.4866H6.85534V22.647H11.6288V24.4016ZM77.2035 29.6309C77.9948 30.4221 79.0183 30.8178 80.274 30.8178C81.5469 30.8178 82.579 30.4221 83.3702 29.6309C84.1787 28.8224 84.583 27.8075 84.583 26.5862C84.583 25.3477 84.1787 24.3242 83.3702 23.5157C82.579 22.69 81.5469 22.2772 80.274 22.2772C79.0183 22.2772 77.9948 22.69 77.2035 23.5157C76.4122 24.3242 76.0166 25.3477 76.0166 26.5862C76.0166 27.8075 76.4122 28.8224 77.2035 29.6309ZM78.6226 39.7454H80.3256L91.3432 22.5352H89.6144L78.6226 39.7454ZM89.537 40.055C90.7927 40.055 91.8162 39.6594 92.6075 38.8681C93.4159 38.0596 93.8202 37.0447 93.8202 35.8234C93.8202 34.6021 93.4159 33.5786 92.6075 32.7529C91.8162 31.9273 90.7927 31.5144 89.537 31.5144C88.2813 31.5144 87.2578 31.9273 86.4665 32.7529C85.6753 33.5614 85.2796 34.5849 85.2796 35.8234C85.2796 37.0447 85.6753 38.0596 86.4665 38.8681C87.2578 39.6594 88.2813 40.055 89.537 40.055ZM81.9253 28.4182C81.4953 28.8826 80.9448 29.1148 80.274 29.1148C79.6203 29.1148 79.0785 28.8826 78.6484 28.4182C78.2184 27.9365 78.0034 27.3259 78.0034 26.5862C78.0034 25.8121 78.2098 25.1929 78.6226 24.7284C79.0527 24.2468 79.6031 24.006 80.274 24.006C80.9448 24.006 81.4953 24.2468 81.9253 24.7284C82.3554 25.1929 82.5704 25.8121 82.5704 26.5862C82.5704 27.3259 82.3554 27.9365 81.9253 28.4182ZM89.537 38.352C88.8661 38.352 88.3157 38.1198 87.8857 37.6554C87.4728 37.1737 87.2664 36.5631 87.2664 35.8234C87.2664 35.0493 87.4728 34.4301 87.8857 33.9656C88.3157 33.484 88.8661 33.2432 89.537 33.2432C90.2079 33.2432 90.7583 33.484 91.1883 33.9656C91.6184 34.4301 91.8334 35.0493 91.8334 35.8234C91.8334 36.5631 91.6184 37.1737 91.1883 37.6554C90.7583 38.1198 90.2079 38.352 89.537 38.352Z" fill="#197A33"/>
</svg>
