<svg width="64" height="65" viewBox="0 0 64 65" fill="none" xmlns="http://www.w3.org/2000/svg">
<rect y="0.803711" width="64" height="64" rx="8" fill="#FFCB00"/>
<path fill-rule="evenodd" clip-rule="evenodd" d="M39.2903 44.8037C37.7577 44.8037 36.3992 44.4554 35.2148 43.7587C34.0537 43.0388 33.1249 42.0867 32.4282 40.9024C31.7548 39.7181 31.2439 38.4409 30.8955 37.0708C30.5704 35.7007 30.4079 34.2725 30.4079 32.7863C30.4079 31.3001 30.5704 29.8719 30.8955 28.5018C31.2439 27.1317 31.7548 25.8661 32.4282 24.705C33.1249 23.5207 34.0537 22.5802 35.2148 21.8835C36.3992 21.1637 37.7577 20.8037 39.2903 20.8037C40.7998 20.8037 42.1466 21.1637 43.331 21.8835C44.5153 22.5802 45.4442 23.5207 46.1176 24.705C46.8143 25.8661 47.3252 27.1317 47.6503 28.5018C47.9986 29.8719 48.1728 31.3001 48.1728 32.7863C48.1728 34.2725 47.9986 35.7007 47.6503 37.0708C47.3252 38.4409 46.8143 39.7181 46.1176 40.9024C45.4442 42.0867 44.5153 43.0388 43.331 43.7587C42.1466 44.4554 40.7998 44.8037 39.2903 44.8037ZM35.807 40.7979C36.7359 41.75 37.897 42.2261 39.2903 42.2261C40.6836 42.2261 41.8447 41.75 42.7736 40.7979C43.7025 39.8226 44.3411 38.6615 44.6895 37.3146C45.0378 35.9677 45.2119 34.4583 45.2119 32.7863C45.2119 31.1143 45.0378 29.6049 44.6895 28.258C44.3411 26.9111 43.7025 25.7616 42.7736 24.8095C41.8447 23.8574 40.6836 23.3814 39.2903 23.3814C37.897 23.3814 36.7359 23.8574 35.807 24.8095C34.8781 25.7616 34.2395 26.9111 33.8912 28.258C33.5429 29.6049 33.3687 31.1143 33.3687 32.7863C33.3687 34.4583 33.5429 35.9677 33.8912 37.3146C34.2395 38.6615 34.8781 39.8226 35.807 40.7979ZM21.0084 44.8037C17.4322 44.8037 14.7036 43.5613 12.8226 41.0766L14.5991 39.1608C16.2014 41.2043 18.3378 42.2261 21.0084 42.2261C22.5875 42.2261 23.8763 41.75 24.8749 40.7979C25.8734 39.8458 26.3727 38.6615 26.3727 37.2449C26.3727 35.7355 25.8734 34.528 24.8749 33.6223C23.8995 32.6934 22.6223 32.229 21.0432 32.229C18.9532 32.229 17.1651 32.9605 15.6789 34.4235L13.5541 33.692V21.152H27.766V23.7297H16.4452V31.811C17.8386 30.4176 19.6499 29.721 21.8792 29.721C23.9228 29.721 25.6644 30.3944 27.1042 31.7413C28.5439 33.065 29.2638 34.8647 29.2638 37.1404C29.2638 39.4626 28.4859 41.3204 26.93 42.7137C25.3741 44.1071 23.4003 44.8037 21.0084 44.8037ZM10.7794 35.1795H7.91538V38.3841H6.76976V35.1795H3.9057V34.1267H6.76976V31.0305H7.91538V34.1267H10.7794V35.1795ZM50.1243 38.317C50.599 38.7918 51.2131 39.0292 51.9666 39.0292C52.7303 39.0292 53.3496 38.7918 53.8243 38.317C54.3094 37.8319 54.5519 37.223 54.5519 36.4902C54.5519 35.7471 54.3094 35.133 53.8243 34.6479C53.3496 34.1525 52.7303 33.9048 51.9666 33.9048C51.2131 33.9048 50.599 34.1525 50.1243 34.6479C49.6495 35.133 49.4121 35.7471 49.4121 36.4902C49.4121 37.223 49.6495 37.8319 50.1243 38.317ZM50.9757 44.3857H51.9975L58.6081 34.0596H57.5708L50.9757 44.3857ZM57.5244 44.5715C58.2778 44.5715 58.8919 44.3341 59.3667 43.8594C59.8517 43.3743 60.0943 42.7653 60.0943 42.0325C60.0943 41.2998 59.8517 40.6857 59.3667 40.1903C58.8919 39.6949 58.2778 39.4472 57.5244 39.4472C56.7709 39.4472 56.1569 39.6949 55.6821 40.1903C55.2073 40.6753 54.9699 41.2894 54.9699 42.0325C54.9699 42.7653 55.2073 43.3743 55.6821 43.8594C56.1569 44.3341 56.7709 44.5715 57.5244 44.5715ZM52.9574 37.5894C52.6993 37.8681 52.3691 38.0074 51.9666 38.0074C51.5744 38.0074 51.2493 37.8681 50.9912 37.5894C50.7332 37.3004 50.6042 36.934 50.6042 36.4902C50.6042 36.0258 50.7281 35.6542 50.9757 35.3756C51.2338 35.0866 51.564 34.9421 51.9666 34.9421C52.3691 34.9421 52.6993 35.0866 52.9574 35.3756C53.2154 35.6542 53.3444 36.0258 53.3444 36.4902C53.3444 36.934 53.2154 37.3004 52.9574 37.5894ZM57.5244 43.5497C57.1219 43.5497 56.7916 43.4104 56.5336 43.1317C56.2859 42.8427 56.162 42.4763 56.162 42.0325C56.162 41.5681 56.2859 41.1966 56.5336 40.9179C56.7916 40.6289 57.1219 40.4844 57.5244 40.4844C57.9269 40.4844 58.2572 40.6289 58.5152 40.9179C58.7732 41.1966 58.9022 41.5681 58.9022 42.0325C58.9022 42.4763 58.7732 42.8427 58.5152 43.1317C58.2572 43.4104 57.9269 43.5497 57.5244 43.5497Z" fill="#314E36"/>
</svg>
