<svg width="95" height="41" viewBox="0 0 95 41" fill="none" xmlns="http://www.w3.org/2000/svg">
<path fill-rule="evenodd" clip-rule="evenodd" d="M72.1131 40.1294H45.2641V36.2603C49.3285 33.0556 52.4746 30.5153 54.7023 28.6394C56.969 26.7244 59.138 24.7117 61.2093 22.6013C63.3197 20.4518 64.8048 18.5563 65.6646 16.9149C66.5244 15.2344 66.9543 13.5734 66.9543 11.932C66.9543 9.5871 66.1532 7.8089 64.5508 6.59737C62.9485 5.38584 61.0335 4.78007 58.8058 4.78007C54.3114 4.78007 50.7746 6.4215 48.1952 9.70435L45.2054 6.59737C46.6905 4.64329 48.6251 3.13865 51.009 2.08344C53.4321 0.989159 56.031 0.442017 58.8058 0.442017C62.3622 0.442017 65.4301 1.4386 68.0095 3.43176C70.628 5.42492 71.9372 8.25833 71.9372 11.932C71.9372 15.5666 70.374 19.2012 67.2474 22.8358C64.1209 26.4313 59.353 30.7498 52.9436 35.7913H72.1131V40.1294ZM38.838 40.1294H33.9724V30.2222H15.3891V26.1772L32.1551 1.02824H38.838V25.9427H44.3485V30.2222H38.838V40.1294ZM33.9724 25.9427V5.54216L20.2547 25.9427H33.9724ZM11.7407 24.6357H6.92063V30.0289H4.99261V24.6357H0.172546V22.864H4.99261V17.6531H6.92063V22.864H11.7407V24.6357ZM77.9561 29.916C78.7551 30.715 79.7886 31.1145 81.0566 31.1145C82.3419 31.1145 83.3841 30.715 84.1831 29.916C84.9995 29.0997 85.4076 28.0749 85.4076 26.8416C85.4076 25.591 84.9995 24.5575 84.1831 23.7411C83.3841 22.9074 82.3419 22.4905 81.0566 22.4905C79.7886 22.4905 78.7551 22.9074 77.9561 23.7411C77.1571 24.5575 76.7576 25.591 76.7576 26.8416C76.7576 28.0749 77.1571 29.0997 77.9561 29.916ZM79.3891 40.1294H81.1087L92.2339 22.7511H90.4882L79.3891 40.1294ZM90.4101 40.442C91.6781 40.442 92.7115 40.0425 93.5106 39.2435C94.3269 38.4271 94.7351 37.4023 94.7351 36.1691C94.7351 34.9358 94.3269 33.9024 93.5106 33.0686C92.7115 32.2349 91.6781 31.818 90.4101 31.818C89.1421 31.818 88.1086 32.2349 87.3096 33.0686C86.5106 33.885 86.1111 34.9185 86.1111 36.1691C86.1111 37.4023 86.5106 38.4271 87.3096 39.2435C88.1086 40.0425 89.1421 40.442 90.4101 40.442ZM82.724 28.6915C82.2898 29.1605 81.734 29.3949 81.0566 29.3949C80.3965 29.3949 79.8494 29.1605 79.4151 28.6915C78.9809 28.2051 78.7638 27.5885 78.7638 26.8416C78.7638 26.06 78.9722 25.4347 79.3891 24.9657C79.8233 24.4794 80.3791 24.2362 81.0566 24.2362C81.734 24.2362 82.2898 24.4794 82.724 24.9657C83.1583 25.4347 83.3754 26.06 83.3754 26.8416C83.3754 27.5885 83.1583 28.2051 82.724 28.6915ZM90.4101 38.7224C89.7327 38.7224 89.1768 38.4879 88.7426 38.0189C88.3257 37.5326 88.1173 36.916 88.1173 36.1691C88.1173 35.3875 88.3257 34.7622 88.7426 34.2932C89.1768 33.8068 89.7327 33.5636 90.4101 33.5636C91.0875 33.5636 91.6433 33.8068 92.0776 34.2932C92.5118 34.7622 92.7289 35.3875 92.7289 36.1691C92.7289 36.916 92.5118 37.5326 92.0776 38.0189C91.6433 38.4879 91.0875 38.7224 90.4101 38.7224Z" fill="#197A33"/>
</svg>
