<svg width="65" height="65" viewBox="0 0 65 65" fill="none" xmlns="http://www.w3.org/2000/svg">
<rect x="0.0942993" y="0.5" width="64" height="64" rx="8" fill="#FFCB00"/>
<path fill-rule="evenodd" clip-rule="evenodd" d="M47.3369 44.3124H31.2275V41.991C33.6661 40.0681 35.5538 38.544 36.8904 37.4184C38.2504 36.2694 39.5518 35.0618 40.7946 33.7956C42.0609 32.5059 42.9519 31.3686 43.4678 30.3837C43.9837 29.3754 44.2416 28.3788 44.2416 27.394C44.2416 25.9871 43.7609 24.9201 42.7995 24.1932C41.8381 23.4663 40.6891 23.1028 39.3525 23.1028C36.6559 23.1028 34.5338 24.0877 32.9861 26.0574L31.1923 24.1932C32.0833 23.0208 33.2441 22.118 34.6744 21.4849C36.1283 20.8283 37.6876 20.5 39.3525 20.5C41.4864 20.5 43.3271 21.0979 44.8747 22.2938C46.4458 23.4897 47.2314 25.1898 47.2314 27.394C47.2314 29.5747 46.2934 31.7555 44.4175 33.9362C42.5416 36.0935 39.6808 38.6847 35.8352 41.7096H47.3369V44.3124ZM27.3718 44.3124H24.4525V38.3681H13.3025V35.9411L23.3621 20.8517H27.3718V35.8004H30.6781V38.3681H27.3718V44.3124ZM24.4525 35.8004V23.5601L16.2219 35.8004H24.4525ZM11.1134 35.0162H8.2214V38.2522H7.06458V35.0162H4.17255V33.9532H7.06458V30.8267H8.2214V33.9532H11.1134V35.0162ZM50.8427 38.1844C51.3221 38.6638 51.9422 38.9035 52.7029 38.9035C53.4742 38.9035 54.0995 38.6638 54.5789 38.1844C55.0687 37.6946 55.3136 37.0797 55.3136 36.3398C55.3136 35.5894 55.0687 34.9693 54.5789 34.4795C54.0995 33.9792 53.4742 33.7291 52.7029 33.7291C51.9422 33.7291 51.3221 33.9792 50.8427 34.4795C50.3633 34.9693 50.1236 35.5894 50.1236 36.3398C50.1236 37.0797 50.3633 37.6946 50.8427 38.1844ZM51.7025 44.3124H52.7342L59.4093 33.8854H58.362L51.7025 44.3124ZM58.3151 44.5C59.0758 44.5 59.6959 44.2603 60.1753 43.7809C60.6652 43.2911 60.9101 42.6762 60.9101 41.9362C60.9101 41.1963 60.6652 40.5762 60.1753 40.076C59.6959 39.5757 59.0758 39.3256 58.3151 39.3256C57.5543 39.3256 56.9342 39.5757 56.4548 40.076C55.9754 40.5658 55.7357 41.1859 55.7357 41.9362C55.7357 42.6762 55.9754 43.2911 56.4548 43.7809C56.9342 44.2603 57.5543 44.5 58.3151 44.5ZM53.7034 37.4497C53.4429 37.7311 53.1094 37.8718 52.7029 37.8718C52.3069 37.8718 51.9786 37.7311 51.7181 37.4497C51.4575 37.1579 51.3273 36.7879 51.3273 36.3398C51.3273 35.8708 51.4523 35.4956 51.7025 35.2142C51.963 34.9224 52.2965 34.7765 52.7029 34.7765C53.1094 34.7765 53.4429 34.9224 53.7034 35.2142C53.964 35.4956 54.0942 35.8708 54.0942 36.3398C54.0942 36.7879 53.964 37.1579 53.7034 37.4497ZM58.3151 43.4682C57.9086 43.4682 57.5751 43.3275 57.3146 43.0462C57.0644 42.7544 56.9394 42.3844 56.9394 41.9362C56.9394 41.4673 57.0644 41.0921 57.3146 40.8107C57.5751 40.5189 57.9086 40.373 58.3151 40.373C58.7215 40.373 59.055 40.5189 59.3155 40.8107C59.5761 41.0921 59.7064 41.4673 59.7064 41.9362C59.7064 42.3844 59.5761 42.7544 59.3155 43.0462C59.055 43.3275 58.7215 43.4682 58.3151 43.4682Z" fill="#314E36"/>
</svg>
