<svg width="78" height="70" viewBox="0 0 78 70" fill="none" xmlns="http://www.w3.org/2000/svg">
<ellipse cx="42.8303" cy="35.3429" rx="35.1697" ry="34.6567" fill="#FFCB00"/>
<path d="M70.2857 34.9998C70.2857 53.9051 54.7301 69.2496 35.5179 69.2496C16.3057 69.2496 0.75 53.9051 0.75 34.9998C0.75 16.0945 16.3057 0.75 35.5179 0.75C54.7301 0.75 70.2857 16.0945 70.2857 34.9998Z" stroke="black" stroke-width="1.5"/>
<g clip-path="url(#clip0)">
<path d="M49.2351 26.6712V24.8027C49.2351 23.3723 48.2833 22.1137 46.9266 21.6849C46.6498 20.7227 46.2683 19.9276 45.7543 19.231C45.5707 18.9824 45.2175 18.9274 44.9652 19.1083C44.7129 19.2891 44.6571 19.6372 44.8406 19.8859C45.8674 21.2773 46.5299 23.6871 46.0185 26.2829H45.9724C45.1965 26.2829 44.5653 26.9048 44.5653 27.6693V29.4392C44.5579 29.4391 44.55 29.4392 44.5435 29.4386C43.1897 26.9867 41.5017 26.4627 39.7152 25.908C38.0452 25.3895 36.1525 24.8018 34.0159 22.4451C33.4077 21.7741 32.7904 21.5253 32.1814 21.705C30.1861 22.2938 29.8322 27.5602 29.4307 29.4322C29.4294 29.4323 29.4278 29.4322 29.4266 29.4323V27.6693C29.4266 26.9048 28.7954 26.2829 28.0196 26.2829H27.9734C27.6174 24.4754 27.7176 21.2067 29.6939 19.2592C30.9794 17.9926 33.1652 17.1129 36.996 17.1129C39.6836 17.1129 41.7834 17.5587 43.237 18.438C43.5031 18.5988 43.8507 18.5168 44.0139 18.2548C44.1771 17.9928 44.0939 17.65 43.828 17.4892C42.1709 16.4869 39.9361 15.9996 36.996 15.9996C33.5571 15.9996 31.0611 16.6704 29.3653 18.0502C28.2649 18.9456 27.5226 20.1164 27.0683 21.684C25.7101 22.112 24.757 23.3713 24.757 24.8027V26.6712C24.1662 27.071 23.7778 27.741 23.7778 28.499V32.676C23.7778 33.898 24.7868 34.8922 26.0268 34.8922H28.0196C28.3863 34.8922 28.7196 34.7521 28.9702 34.5249C29.9257 36.768 31.8229 38.5286 34.1716 39.3241V40.6483L32.8281 41.7512C32.8273 41.752 32.8265 41.7528 32.8256 41.7535H32.6276C28.4961 41.7535 25.1335 45.0664 25.1335 49.1382V51.9585C25.1335 53.084 26.0627 53.9996 27.2048 53.9996H43.5998C43.9118 53.9996 44.1647 53.7503 44.1647 53.4429C44.1647 53.1355 43.9118 52.8863 43.5998 52.8863H27.2048C26.6856 52.8863 26.2633 52.4701 26.2633 51.9585V49.1382C26.2633 47.2839 27.0849 45.6156 28.3875 44.4664C28.7921 44.8518 29.2392 45.2063 29.7222 45.5239C29.8184 45.5873 29.9274 45.6176 30.0351 45.6176C30.2176 45.6176 30.3966 45.5306 30.5056 45.3698C30.6787 45.1141 30.6087 44.7685 30.3491 44.5979C29.9754 44.3522 29.6271 44.0815 29.3072 43.7904C30.2746 43.2051 31.4116 42.8668 32.6276 42.8668H32.8478L34.8474 45.0513C35.1669 45.4002 35.7378 45.3482 35.9877 44.9492L36.996 43.3381L38.0045 44.9492C38.253 45.346 38.8233 45.4022 39.1448 45.0512L41.1442 42.8668H41.3644C42.5129 42.8668 43.5901 43.1696 44.5213 43.6962C43.1509 44.9964 40.8112 46.3427 36.996 46.3427C35.2887 46.3427 33.7355 46.0944 32.3794 45.6048C32.0861 45.4989 31.762 45.6474 31.6547 45.9359C31.5473 46.2246 31.6978 46.5444 31.9907 46.6501C33.4717 47.1849 35.1557 47.456 36.996 47.456C41.3259 47.456 43.9538 45.8451 45.4625 44.3453C46.8471 45.4966 47.7288 47.2175 47.7288 49.1383V51.9586C47.7288 52.4702 47.3064 52.8864 46.7873 52.8864H46.052C45.7399 52.8864 45.4871 53.1356 45.4871 53.443C45.4871 53.7504 45.7399 53.9996 46.052 53.9996H46.7873C47.9293 53.9996 48.8585 53.0841 48.8585 51.9586V49.1383C48.8585 45.049 45.4805 41.7535 41.3644 41.7535H41.1664C41.1656 41.7528 41.1648 41.752 41.1639 41.7513L39.8204 40.6483V39.3241C40.9489 38.9419 41.9733 38.3371 42.839 37.5628H45.2473C46.7402 37.5628 47.9547 36.366 47.9547 34.8949V34.8922H47.9653C49.2054 34.8922 50.2142 33.8979 50.2142 32.676V28.499C50.2142 27.741 49.8259 27.0709 49.2351 26.6712V26.6712ZM47.2327 23.0785C47.7668 23.4775 48.1053 24.1095 48.1053 24.8027V26.2875C48.0589 26.2847 48.0123 26.2828 47.9653 26.2828H47.1672C47.3232 25.3999 47.4111 24.2781 47.2327 23.0785V23.0785ZM25.8867 24.8027C25.8867 24.1095 26.2253 23.4776 26.7593 23.0785C26.5809 24.2781 26.6688 25.4 26.8249 26.2828C26.0348 26.2845 26.0267 26.279 25.8867 26.2875V24.8027ZM28.2969 33.5058C28.2969 33.6538 28.1699 33.7789 28.0196 33.7789H26.0268C25.4097 33.7789 24.9076 33.2841 24.9076 32.676V28.499C24.9076 27.8909 25.4097 27.3961 26.0268 27.3961H28.0196C28.1699 27.3961 28.2969 27.5212 28.2969 27.6693V33.5058ZM35.3161 43.9013L33.8823 42.3349L34.7864 41.5927L36.2182 42.4601L35.3161 43.9013ZM38.676 43.9013L37.7738 42.4601L39.2057 41.5927L40.1097 42.3349L38.676 43.9013ZM38.6907 40.5979L36.996 41.6244L35.3014 40.5979V39.6239C36.3857 39.8352 37.5443 39.8473 38.6907 39.6239V40.5979ZM37.0013 38.6735H36.9907C32.8198 38.6735 29.4266 35.3297 29.4266 31.2197V30.5444C29.9995 30.5363 30.2829 30.2299 30.4053 30.0334C30.6621 29.6203 30.8076 27.1333 31.4191 24.8987C31.931 23.028 32.4138 22.7984 32.5055 22.7714C32.6491 22.7288 32.8991 22.8842 33.1734 23.1867C35.5167 25.7716 37.6563 26.4359 39.3757 26.9697C41.0826 27.4997 42.4308 27.9183 43.5706 30.006C43.7808 30.3918 44.1584 30.549 44.5653 30.5539V31.2196C44.5653 33.2553 43.7325 35.1029 42.3854 36.4494H37.6864C37.3743 36.4494 37.1215 36.6986 37.1215 37.0061C37.1215 37.3135 37.3743 37.5627 37.6864 37.5627H40.9694C39.8151 38.2665 38.4556 38.6735 37.0013 38.6735V38.6735ZM46.8249 34.8949C46.8249 35.7521 46.1173 36.4495 45.2473 36.4495H43.8823C44.3422 35.8633 44.7269 35.2172 45.0218 34.5249C45.2725 34.7521 45.6058 34.8922 45.9724 34.8922H46.8249V34.8949ZM49.0845 32.676C49.0845 33.2841 48.5824 33.7789 47.9653 33.7789H45.9724C45.8222 33.7789 45.6952 33.6538 45.6952 33.5058C45.6952 32.0459 45.6952 28.625 45.6952 27.6693C45.6952 27.5212 45.8222 27.3961 45.9724 27.3961H47.9653C48.5824 27.3961 49.0845 27.8909 49.0845 28.499V32.676Z" fill="black"/>
</g>
<defs>
<clipPath id="clip0">
<rect width="38.5625" height="38" fill="white" transform="translate(17.2515 16)"/>
</clipPath>
</defs>
</svg>
