<svg width="78" height="70" viewBox="0 0 78 70" fill="none" xmlns="http://www.w3.org/2000/svg">
<ellipse cx="42.8303" cy="35.3429" rx="35.1697" ry="34.6567" fill="#FFCB00"/>
<path d="M44.8298 46H28.1098V44.214C30.1364 42.5673 31.7578 41.2373 32.9738 40.224C34.1898 39.2107 35.4818 38.058 36.8498 36.766C38.2178 35.474 39.2564 34.3593 39.9658 33.422C40.7004 32.4593 41.3084 31.4587 41.7898 30.42C42.2711 29.3813 42.5118 28.3807 42.5118 27.418C42.5118 25.7207 41.9291 24.4413 40.7638 23.58C39.6238 22.6933 38.2811 22.25 36.7358 22.25C35.2158 22.25 33.8478 22.554 32.6318 23.162C31.4411 23.7447 30.4911 24.5427 29.7818 25.556L28.2998 24.188C29.2118 22.972 30.4024 22.022 31.8718 21.338C33.3411 20.6287 34.9624 20.274 36.7358 20.274C38.8384 20.274 40.6878 20.882 42.2838 22.098C43.9051 23.314 44.7158 25.0873 44.7158 27.418C44.7158 28.7607 44.3991 30.1033 43.7658 31.446C43.1324 32.7887 42.1318 34.2073 40.7638 35.702C39.3958 37.1713 38.0531 38.4887 36.7358 39.654C35.4438 40.794 33.6958 42.2507 31.4918 44.024H44.8298V46Z" fill="#333333"/>
<path d="M70.2857 34.9998C70.2857 53.9051 54.7301 69.2496 35.5179 69.2496C16.3057 69.2496 0.75 53.9051 0.75 34.9998C0.75 16.0945 16.3057 0.75 35.5179 0.75C54.7301 0.75 70.2857 16.0945 70.2857 34.9998Z" stroke="black" stroke-width="1.5"/>
</svg>
