<svg width="231" height="64" viewBox="0 0 231 64" fill="none" xmlns="http://www.w3.org/2000/svg">
<g clip-path="url(#clip0)">
<path d="M2.16961 56.5677V46.5863H0V60.0228H1.91436L7.78508 50.4253V60.0228H9.82707V46.5863H8.04033L2.16961 56.5677ZM20.037 54.0084H15.4425V50.1694H13.4006V60.0228H15.4425V55.7999H20.037V60.0228H22.079V50.1694H20.037V54.0084ZM24.5039 52.0889H28.205V60.0228H30.247V52.0889H33.8204V50.1694H24.5039V52.0889ZM54.6232 50.0414C54.0472 50.0319 53.4777 50.1637 52.9641 50.4253C52.4203 50.6475 51.9386 50.9988 51.5602 51.4491L51.0497 51.9609V50.4253H49.0077V63.9898H51.0497V58.6152L51.5602 59.127C51.9862 59.4871 52.4584 59.7884 52.9641 60.0228C53.4599 60.1805 53.9756 60.2666 54.4956 60.2787C55.1272 60.2828 55.752 60.1473 56.3255 59.8819C56.8989 59.6165 57.4071 59.2277 57.8138 58.7431C58.7196 57.7205 59.2192 56.3998 59.2177 55.0321C59.2419 54.351 59.1301 53.6719 58.8891 53.0346C58.648 52.3974 58.2824 51.8148 57.8138 51.3211C56.9591 50.491 55.8131 50.0313 54.6232 50.0414ZM56.4099 57.5914C56.1161 57.9092 55.761 58.1637 55.3661 58.3397C54.9712 58.5157 54.5448 58.6094 54.1127 58.6152C53.6764 58.6383 53.2408 58.5576 52.8416 58.3797C52.4423 58.2018 52.0907 57.9317 51.8155 57.5914C51.5143 57.2651 51.2804 56.8823 51.1271 56.4651C50.9738 56.0478 50.9041 55.6044 50.9221 55.1601C50.8929 54.7147 50.9573 54.2681 51.1112 53.8492C51.2651 53.4304 51.505 53.0486 51.8155 52.7287C52.1161 52.4286 52.4753 52.1942 52.8707 52.04C53.266 51.8859 53.6889 51.8154 54.1127 51.833C54.549 51.8098 54.9846 51.8905 55.3838 52.0684C55.7831 52.2463 56.1347 52.5164 56.4099 52.8567C56.7204 53.1766 56.9603 53.5584 57.1142 53.9772C57.2681 54.396 57.3326 54.8426 57.3033 55.288C57.3026 56.1407 56.984 56.9623 56.4099 57.5914ZM68.7895 54.0084H64.195V50.1694H62.153V60.0228H64.195V55.7999H68.7895V60.0228H70.8315V50.1694H68.7895V54.0084ZM86.0188 52.0889H89.7199V60.0228H91.7619V52.0889H95.2077V50.1694H86.0188V52.0889ZM98.0155 54.2643H102.355V56.1838H98.0155V54.2643ZM111.544 50.0414C110.731 49.9949 109.926 50.2213 109.255 50.6847C108.585 51.1482 108.088 51.8224 107.843 52.6008L107.204 54.1363V52.4728C107.235 51.7339 107.364 51.0023 107.587 50.2974C107.857 49.746 108.25 49.2644 108.736 48.8897C109.303 48.4828 109.96 48.2194 110.65 48.1219C111.624 47.9995 112.605 47.9567 113.586 47.994C114.226 48.0151 114.868 47.9722 115.5 47.866V46.0745C114.99 46.0745 114.224 46.2024 113.33 46.2024C112.092 46.1901 110.854 46.2756 109.629 46.4584C108.858 46.6224 108.123 46.926 107.46 47.3541C106.784 47.8676 106.292 48.5856 106.056 49.4016C105.603 50.5848 105.386 51.8456 105.418 53.1126C105.412 54.2331 105.54 55.3501 105.801 56.4397C106.101 57.5009 106.726 58.4408 107.587 59.127C108.48 59.8794 109.612 60.2878 110.778 60.2787C111.487 60.2963 112.191 60.1693 112.85 59.9054C113.508 59.6415 114.106 59.2463 114.607 58.7436C115.108 58.241 115.503 57.6415 115.766 56.9815C116.029 56.3215 116.156 55.6147 116.138 54.9042C116.163 54.2422 116.051 53.5823 115.809 52.9657C115.568 52.3492 115.202 51.7893 114.734 51.3211C114.314 50.9054 113.816 50.5781 113.268 50.3583C112.72 50.1386 112.134 50.0308 111.544 50.0414ZM113.203 57.5914C112.576 58.1688 111.756 58.4892 110.906 58.4892C110.055 58.4892 109.235 58.1688 108.608 57.5914C108.298 57.2715 108.058 56.8898 107.904 56.4709C107.75 56.0521 107.686 55.6055 107.715 55.1601C107.739 54.3121 108.055 53.4985 108.608 52.8567C108.902 52.539 109.257 52.2844 109.652 52.1084C110.047 51.9324 110.473 51.8387 110.906 51.833C111.343 51.7977 111.783 51.8728 112.184 52.0517C112.585 52.2305 112.936 52.5073 113.203 52.8567C113.502 53.1581 113.736 53.5183 113.89 53.9147C114.043 54.3111 114.114 54.7351 114.096 55.1601C114.114 55.6044 114.044 56.0478 113.891 56.4651C113.738 56.8823 113.504 57.2651 113.203 57.5914ZM123.03 57.2075V57.0796L120.094 50.1694H118.052L121.881 59.6389L119.839 63.8618H122.009L128.39 50.1694H126.22L123.03 57.2075ZM139.111 50.1694H136.813L134.644 53.2406L132.346 50.1694H129.922L133.367 54.9042L129.539 60.0228H131.964L134.644 56.4397L137.196 60.0228H139.621L135.665 54.7762L139.111 50.1694ZM141.791 60.0228H143.833V52.0889H147.406V50.1694H141.791V60.0228ZM157.616 51.833L157.106 51.3211C156.727 50.8709 156.245 50.5196 155.702 50.2974C155.183 50.0494 154.617 49.9183 154.043 49.9135C153.424 49.914 152.811 50.0388 152.241 50.2806C151.671 50.5223 151.156 50.8761 150.724 51.3211C149.819 52.3437 149.319 53.6644 149.32 55.0321C149.295 56.4041 149.798 57.7331 150.724 58.7431C151.131 59.2277 151.639 59.6165 152.213 59.8819C152.786 60.1473 153.411 60.2828 154.043 60.2787C154.563 60.2666 155.078 60.1805 155.574 60.0228C156.118 59.8006 156.6 59.4493 156.978 58.9991L157.488 58.4872V60.0228H159.53V50.1694H157.488V51.833H157.616ZM156.85 57.5914C156.556 57.9092 156.201 58.1637 155.806 58.3397C155.412 58.5157 154.985 58.6094 154.553 58.6152C154.117 58.6383 153.681 58.5576 153.282 58.3797C152.883 58.2018 152.531 57.9317 152.256 57.5914C151.68 56.9131 151.363 56.0512 151.363 55.1601C151.363 54.269 151.68 53.4071 152.256 52.7287C152.55 52.411 152.905 52.1564 153.3 51.9804C153.695 51.8045 154.121 51.7108 154.553 51.705C154.977 51.6874 155.4 51.7579 155.795 51.912C156.19 52.0662 156.55 52.3007 156.85 52.6008C157.161 52.9207 157.401 53.3024 157.555 53.7213C157.708 54.1401 157.773 54.5867 157.744 55.0321C157.784 55.4978 157.725 55.9668 157.571 56.408C157.417 56.8492 157.171 57.2526 156.85 57.5914ZM166.167 50.1694L161.828 60.0228H163.87L166.805 52.9847L169.74 60.0228H171.782L167.443 50.1694H166.167ZM172.931 52.0889H176.632V60.0228H178.802V52.0889H182.248V50.1694H172.931V52.0889ZM203.05 50.0414C202.474 50.0319 201.905 50.1637 201.391 50.4253C200.847 50.6475 200.366 50.9988 199.987 51.4491L199.477 51.9609V50.4253H197.435V63.9898H199.477V58.6152L199.987 59.127C200.438 59.5187 200.957 59.8225 201.519 60.0228C202.017 60.1703 202.531 60.2562 203.05 60.2787C203.682 60.2828 204.307 60.1473 204.88 59.8819C205.454 59.6165 205.962 59.2277 206.368 58.7431C207.274 57.7205 207.774 56.3998 207.772 55.0321C207.797 54.351 207.685 53.6719 207.444 53.0346C207.203 52.3974 206.837 51.8148 206.368 51.3211C205.464 50.4888 204.278 50.0314 203.05 50.0414ZM204.837 57.5914C204.543 57.9092 204.188 58.1637 203.793 58.3397C203.398 58.5157 202.972 58.6094 202.54 58.6152C202.103 58.6383 201.668 58.5576 201.269 58.3797C200.869 58.2018 200.518 57.9317 200.243 57.5914C199.941 57.2651 199.707 56.8823 199.554 56.4651C199.401 56.0478 199.331 55.6044 199.349 55.1601C199.32 54.7147 199.384 54.2681 199.538 53.8492C199.692 53.4304 199.932 53.0486 200.243 52.7287C200.543 52.4286 200.902 52.1942 201.298 52.04C201.693 51.8859 202.116 51.8154 202.54 51.833C202.976 51.8098 203.412 51.8905 203.811 52.0684C204.21 52.2463 204.562 52.5164 204.837 52.8567C205.147 53.1766 205.387 53.5584 205.541 53.9772C205.695 54.396 205.76 54.8426 205.73 55.288C205.76 55.7142 205.695 56.1416 205.54 56.5398C205.386 56.9379 205.146 57.297 204.837 57.5914ZM212.622 56.8236V50.1694H210.58V60.0228H211.601L217.344 53.6245V60.0228H219.386V50.1694H218.493L212.622 56.8236ZM224.491 50.4253C223.923 50.601 223.429 50.9611 223.087 51.4491C222.67 52.001 222.445 52.6757 222.449 53.3686C222.422 53.9263 222.605 54.474 222.96 54.9042C223.095 55.1375 223.279 55.3385 223.499 55.4932C223.72 55.648 223.971 55.7526 224.236 55.7999L224.619 55.9279V56.0558L221.811 60.1508H224.236L226.788 56.3118H227.809V60.1508H229.851V50.2974H227.427C226.447 50.1899 225.457 50.2331 224.491 50.4253ZM227.682 54.9042H226.661C225.002 54.9042 224.619 54.0084 224.619 53.3686C224.619 52.7287 224.874 51.833 226.406 51.833H227.682V54.9042ZM189.394 49.9135C188.706 49.906 188.023 50.0382 187.387 50.3021C186.751 50.566 186.175 50.9561 185.693 51.4491C184.732 52.3941 184.181 53.682 184.162 55.0321C184.162 56.4236 184.713 57.7581 185.694 58.742C186.676 59.726 188.007 60.2787 189.394 60.2787C190.443 60.2984 191.47 59.9848 192.33 59.383C193.115 58.894 193.737 58.1811 194.117 57.3355H192.075C191.8 57.7562 191.419 58.0963 190.971 58.3211C190.522 58.5459 190.022 58.6474 189.522 58.6152C188.733 58.614 187.968 58.3432 187.352 57.8474C186.782 57.3413 186.381 56.671 186.204 55.9279L186.076 55.544H194.499V55.288C194.502 53.8429 194.006 52.4412 193.096 51.3211C192.603 50.8512 192.022 50.4847 191.387 50.2429C190.751 50.0012 190.074 49.8892 189.394 49.9135ZM186.204 54.3923L186.331 54.0084C186.483 53.2864 186.889 52.6434 187.475 52.1969C188.061 51.7505 188.788 51.5304 189.522 51.577C190.247 51.5075 190.97 51.7217 191.541 52.1749C192.112 52.6281 192.486 53.2851 192.585 54.0084L192.713 54.3923H186.204ZM40.9674 49.9135C39.5796 49.9135 38.2487 50.4662 37.2674 51.4502C36.2861 52.4341 35.7348 53.7686 35.7348 55.1601C35.7348 56.5516 36.2861 57.8861 37.2674 58.87C38.2487 59.8539 39.5796 60.4067 40.9674 60.4067C42.0156 60.4264 43.0432 60.1128 43.9028 59.5109C44.6883 59.0219 45.3104 58.309 45.6895 57.4635H43.6475C43.373 57.8841 42.9921 58.2242 42.5437 58.4491C42.0953 58.6739 41.5954 58.7754 41.095 58.7431C40.3058 58.7419 39.5405 58.4711 38.9254 57.9753C38.3546 57.4693 37.9535 56.799 37.7768 56.0558L37.6492 55.6719H46.0724V55.416C46.0753 53.9708 45.5793 52.5692 44.6685 51.4491C44.2015 50.9368 43.628 50.5337 42.9884 50.2683C42.3488 50.0029 41.6589 49.8818 40.9674 49.9135ZM37.7768 54.3923L37.9044 54.0084C38.0563 53.2864 38.4622 52.6434 39.0481 52.1969C39.634 51.7505 40.3606 51.5304 41.095 51.577C41.8199 51.5075 42.5434 51.7217 43.1143 52.1749C43.6852 52.6281 44.0592 53.2851 44.158 54.0084L44.2856 54.3923H37.7768ZM78.8718 49.9135C78.1835 49.906 77.5008 50.0382 76.8648 50.3021C76.2288 50.566 75.6525 50.9561 75.1707 51.4491C74.2089 52.3941 73.6584 53.682 73.6392 55.0321C73.6392 56.4236 74.1905 57.7581 75.1718 58.742C76.1531 59.726 77.4841 60.2787 78.8718 60.2787C79.9201 60.2984 80.9476 59.9848 81.8072 59.383C82.5927 58.894 83.2148 58.1811 83.5939 57.3355H81.5519C81.2774 57.7562 80.8965 58.0963 80.4481 58.3211C79.9997 58.5459 79.4998 58.6474 78.9995 58.6152C78.2102 58.614 77.445 58.3432 76.8298 57.8474C76.259 57.3413 75.8579 56.671 75.6812 55.9279L75.5536 55.544H83.9768V55.288C83.9798 53.8429 83.4837 52.4412 82.5729 51.3211C81.5463 50.424 80.2335 49.9247 78.8718 49.9135ZM75.6812 54.3923L75.8088 54.0084C75.9607 53.2864 76.3667 52.6434 76.9526 52.1969C77.5384 51.7505 78.265 51.5304 78.9995 51.577C79.7243 51.5075 80.4478 51.7217 81.0187 52.1749C81.5896 52.6281 81.9636 53.2851 82.0624 54.0084L82.1901 54.3923H75.6812ZM30.6298 1.28626H29.3536L17.8674 31.6143L6.38122 1.28626H0V38.3965H5.10497V11.3956L15.3149 38.3965H20.4199L30.6298 11.3956V38.3965H35.7348V1.28626H30.6298ZM53.6022 38.3965C56.3788 38.3965 59.093 37.5709 61.4017 36.0242C63.7103 34.4775 65.5097 32.2791 66.5723 29.707C67.6348 27.1349 67.9128 24.3046 67.3711 21.574C66.8295 18.8435 65.4924 16.3354 63.5291 14.3668C61.5657 12.3981 59.0643 11.0575 56.341 10.5144C53.6178 9.97123 50.7951 10.25 48.2298 11.3154C45.6646 12.3808 43.4721 14.185 41.9295 16.4998C40.3869 18.8147 39.5635 21.5362 39.5635 24.3202C39.5635 28.0535 41.0426 31.6338 43.6754 34.2736C46.3081 36.9135 49.8789 38.3965 53.6022 38.3965ZM53.6022 15.3626C55.3691 15.3626 57.0964 15.8879 58.5655 16.8722C60.0346 17.8565 61.1797 19.2555 61.8559 20.8923C62.532 22.529 62.709 24.3301 62.3643 26.0677C62.0195 27.8054 61.1687 29.4015 59.9193 30.6542C58.6699 31.907 57.0781 32.7601 55.3451 33.1057C53.6121 33.4514 51.8159 33.274 50.1834 32.596C48.551 31.918 47.1558 30.7699 46.1741 29.2968C45.1925 27.8237 44.6685 26.0919 44.6685 24.3202C44.6685 21.9445 45.6097 19.6661 47.2851 17.9862C48.9605 16.3063 51.2328 15.3626 53.6022 15.3626ZM216.961 38.3965C219.738 38.3965 222.452 37.5709 224.761 36.0242C227.069 34.4775 228.869 32.2791 229.931 29.707C230.994 27.1349 231.272 24.3046 230.73 21.574C230.189 18.8435 228.852 16.3354 226.888 14.3668C224.925 12.3981 222.423 11.0575 219.7 10.5144C216.977 9.97123 214.154 10.25 211.589 11.3154C209.024 12.3808 206.831 14.185 205.289 16.4998C203.746 18.8147 202.923 21.5362 202.923 24.3202C202.923 28.0535 204.402 31.6338 207.035 34.2736C209.667 36.9135 213.238 38.3965 216.961 38.3965ZM216.961 15.3626C218.728 15.3626 220.455 15.8879 221.925 16.8722C223.394 17.8565 224.539 19.2555 225.215 20.8923C225.891 22.529 226.068 24.3301 225.723 26.0677C225.379 27.8054 224.528 29.4015 223.278 30.6542C222.029 31.907 220.437 32.7601 218.704 33.1057C216.971 33.4514 215.175 33.274 213.543 32.596C211.91 31.918 210.515 30.7699 209.533 29.2968C208.552 27.8237 208.028 26.0919 208.028 24.3202C208.028 21.9445 208.969 19.6661 210.644 17.9862C212.32 16.3063 214.592 15.3626 216.961 15.3626ZM123.796 38.3965H145.492V33.2778H142.301L134.006 10.2439H128.901L120.605 33.2778H117.414V38.3965H123.796ZM131.453 17.282L137.196 33.2778H125.582L131.453 17.282ZM191.436 10.2439H186.331L176.122 38.3965H181.227L188.884 17.282L196.541 38.3965H201.646L191.436 10.2439ZM79.1271 5.12525H91.8895V7.68457H79.1271V5.12525ZM79.1271 0.0065918H91.8895V2.56592H79.1271V0.0065918ZM93.1657 30.5905C92.3365 31.445 91.3441 32.1233 90.2478 32.585C89.1514 33.0467 87.9736 33.2823 86.7845 33.2778H85.5083C83.5862 33.2756 81.7161 32.6518 80.1757 31.4992C78.6352 30.3465 77.5066 28.7264 76.9575 26.8795H99.2917C99.4462 26.0348 99.5316 25.1789 99.547 24.3202C99.547 21.5362 98.7236 18.8147 97.181 16.4998C95.6384 14.185 93.4459 12.3808 90.8807 11.3154C88.3154 10.25 85.4927 9.97123 82.7695 10.5144C80.0462 11.0575 77.5448 12.3981 75.5814 14.3668C73.6181 16.3354 72.281 18.8435 71.7394 21.574C71.1977 24.3046 71.4757 27.1349 72.5382 29.707C73.6008 32.2791 75.4002 34.4775 77.7088 36.0242C80.0175 37.5709 82.7317 38.3965 85.5083 38.3965H86.7845C89.0429 38.4082 91.2699 37.8663 93.2718 36.8181C95.2737 35.7699 96.9897 34.247 98.2707 32.3821L93.1657 30.5905ZM85.5083 15.3626C87.4304 15.3648 89.3005 15.9886 90.8409 17.1412C92.3813 18.2939 93.5099 19.914 94.0591 21.7609H76.9575C77.5066 19.914 78.6352 18.2939 80.1757 17.1412C81.7161 15.9886 83.5862 15.3648 85.5083 15.3626ZM168.464 30.5905C167.635 31.445 166.642 32.1233 165.546 32.585C164.45 33.0467 163.272 33.2823 162.083 33.2778H160.807C158.885 33.2756 157.014 32.6518 155.474 31.4992C153.934 30.3465 152.805 28.7264 152.256 26.8795H174.59C174.745 26.0348 174.83 25.1789 174.845 24.3202C174.845 21.5362 174.022 18.8147 172.479 16.4998C170.937 14.185 168.744 12.3808 166.179 11.3154C163.614 10.25 160.791 9.97123 158.068 10.5144C155.345 11.0575 152.843 12.3981 150.88 14.3668C148.916 16.3354 147.579 18.8435 147.038 21.574C146.496 24.3046 146.774 27.1349 147.837 29.707C148.899 32.2791 150.699 34.4775 153.007 36.0242C155.316 37.5709 158.03 38.3965 160.807 38.3965H162.083C164.341 38.4082 166.568 37.8663 168.57 36.8181C170.572 35.7699 172.288 34.247 173.569 32.3821L168.464 30.5905ZM160.807 15.3626C162.729 15.3648 164.599 15.9886 166.139 17.1412C167.68 18.2939 168.808 19.914 169.357 21.7609H152.256C152.805 19.914 153.934 18.2939 155.474 17.1412C157.014 15.9886 158.885 15.3648 160.807 15.3626Z" fill="#E95A43"/>
</g>
<defs>
<clipPath id="clip0">
<rect width="231" height="64" fill="white"/>
</clipPath>
</defs>
</svg>
