<svg width="619" height="490" viewBox="0 0 619 490" fill="none" xmlns="http://www.w3.org/2000/svg">
<path d="M136.179 238.497C95.376 238.497 62.4789 226.256 37.4874 201.775C12.4958 177.293 0 146.946 0 110.734C0 74.0117 12.4958 43.4097 37.4874 18.9282C62.4789 -6.06342 95.376 -18.5592 136.179 -18.5592C177.491 -18.5592 210.643 -6.06342 235.635 18.9282C261.136 43.4097 273.887 74.0117 273.887 110.734C273.887 146.946 261.136 177.293 235.635 201.775C210.643 226.256 177.491 238.497 136.179 238.497ZM159.13 499.379H84.9204L410.831 -10.9087H485.806L159.13 499.379ZM530.943 471.837C505.952 496.318 473.055 508.559 432.252 508.559C391.45 508.559 358.553 496.318 333.561 471.837C308.569 447.355 296.074 417.008 296.074 380.796C296.074 344.074 308.569 313.472 333.561 288.99C358.553 263.999 391.45 251.503 432.252 251.503C473.055 251.503 505.952 263.999 530.943 288.99C556.445 313.472 569.196 344.074 569.196 380.796C569.196 417.008 556.445 447.355 530.943 471.837ZM136.179 157.402C149.439 157.402 160.15 153.577 168.311 145.926C176.471 138.276 180.551 126.545 180.551 110.734C180.551 94.413 176.471 82.4272 168.311 74.7767C160.15 66.6162 149.439 62.5359 136.179 62.5359C123.428 62.5359 112.972 66.6162 104.812 74.7767C97.1611 82.4272 93.3359 94.413 93.3359 110.734C93.3359 126.545 97.1611 138.276 104.812 145.926C112.972 153.577 123.428 157.402 136.179 157.402ZM432.252 427.464C461.834 427.464 476.625 411.908 476.625 380.796C476.625 364.475 472.545 352.489 464.384 344.839C456.224 336.678 445.513 332.598 432.252 332.598C403.18 332.598 388.645 348.664 388.645 380.796C388.645 411.908 403.18 427.464 432.252 427.464Z" fill="white"/>
<g opacity="0.9">
<rect x="360.963" y="326" width="31.1921" height="73.6697" fill="#FFCB00"/>
<rect x="587.105" y="326" width="31.1921" height="73.6697" fill="#FFCB00"/>
<rect x="442.841" y="326" width="75.1589" height="74" fill="#6D9E2F"/>
<rect x="12" y="326" width="19.495" height="73.6697" fill="#257C39"/>
<rect x="144.568" y="326" width="91.6267" height="73.6697" fill="#197C32"/>
<rect x="65.4678" y="326" width="45.128" height="74" fill="#225D31"/>
<rect x="236.195" y="326" width="42.8891" height="73.6697" fill="#B2C828"/>
</g>
</svg>
