<svg width="133" height="475" viewBox="0 0 133 475" fill="none" xmlns="http://www.w3.org/2000/svg">
<path opacity="0.97" fill-rule="evenodd" clip-rule="evenodd" d="M0 70V120.416C0 168.815 19.472 199.065 30.5989 211.164C37.0895 218.223 102.923 288.805 103.851 289.813C124.25 311.996 127.959 319.054 132.595 331.154V275.697C132.595 226.289 109.414 207.131 97.36 194.023C69.5429 164.782 50.9981 145.624 36.1623 129.491C7.41791 97.2246 0 70 0 70Z" fill="#F6F7F9"/>
<path fill-rule="evenodd" clip-rule="evenodd" d="M97.36 306.179C69.5429 276.938 50.9981 257.779 36.1623 241.646C7.41791 210.389 0 190.222 0 190.222V233.58C0 281.979 20.3992 312.229 30.5989 324.328C37.0895 331.387 102.923 400.96 103.851 401.969C124.25 424.152 127.959 434.235 132.595 446.335V387.852C132.595 338.445 109.414 318.279 97.36 306.179Z" fill="#F0F1F5" fill-opacity="0.93"/>
</svg>
