<svg width="150" height="150" viewBox="0 0 150 150" fill="none" xmlns="http://www.w3.org/2000/svg">
<path fill-rule="evenodd" clip-rule="evenodd" d="M74.618 150C37.7693 150 8 120.036 8 83.3535C8 62.2881 17.6206 42.8571 34.502 30.1453L35.228 29.6005V0H73.3473V16.707C73.7104 16.707 74.0734 16.707 74.4364 16.707C111.104 16.707 141.054 46.6707 141.054 83.3535C141.054 120.036 111.285 150 74.618 150Z" fill="#19502E"/>
<path fill-rule="evenodd" clip-rule="evenodd" d="M55.375 84.3814L69.1705 70.7615V61.5L55.375 75.1199V84.3814Z" fill="#FFCB05"/>
<path fill-rule="evenodd" clip-rule="evenodd" d="M55.375 49.9616L69.1705 36.3417V27.625L55.375 41.0633V49.9616Z" fill="#FFCB05"/>
<path fill-rule="evenodd" clip-rule="evenodd" d="M55.375 61.3366L69.1705 47.7167V39L55.375 52.4383V61.3366Z" fill="#FFCB05"/>
<path fill-rule="evenodd" clip-rule="evenodd" d="M51.4238 27.6196L49.6086 25.8036V4.375H47.4304V23.806L45.6152 21.99V4.375H43.4369V19.9924L41.6217 18.1765V4.375H39.625V24.8956L53.4206 38.5154V4.375H51.4238V27.6196Z" fill="#FFCB05"/>
<path fill-rule="evenodd" clip-rule="evenodd" d="M55.375 72.8366L69.1705 59.2167V50.5L55.375 63.9383V72.8366Z" fill="#FFCB05"/>
<path fill-rule="evenodd" clip-rule="evenodd" d="M39.625 70.7615L53.4206 84.3814V75.1199L39.625 61.5V70.7615Z" fill="#FFCB05"/>
<path fill-rule="evenodd" clip-rule="evenodd" d="M66.9923 18.1765L65.1771 19.9924V4.375H63.1804V21.99L61.3652 23.806V4.375H59.1869V25.8036L57.3717 27.6196V4.375H55.375V38.5154L69.1705 24.8956V4.375H66.9923V18.1765Z" fill="#FFCB05"/>
<path fill-rule="evenodd" clip-rule="evenodd" d="M39.625 36.3417L53.4206 49.9616V41.0633L39.625 27.625V36.3417Z" fill="#FFCB05"/>
<path fill-rule="evenodd" clip-rule="evenodd" d="M39.625 47.7167L53.4206 61.3366V52.4383L39.625 39V47.7167Z" fill="#FFCB05"/>
<path fill-rule="evenodd" clip-rule="evenodd" d="M39.625 59.2167L53.4206 72.8366V63.9383L39.625 50.5V59.2167Z" fill="#FFCB05"/>
<path fill-rule="evenodd" clip-rule="evenodd" d="M122.195 66.3275H89.8847H88.4325C89.1586 65.2379 89.5216 63.9667 89.5216 62.5139C89.5216 58.5188 86.2543 55.25 82.2608 55.25C78.2674 55.25 75 58.5188 75 62.5139C75 64.1483 75.5446 65.6011 76.4522 66.6907C75.9076 67.0539 75.363 67.7802 75.363 68.6882C75.363 69.4146 75.7261 70.141 76.4522 70.6858C75.5446 71.957 75 73.4098 75 74.8626C75 78.8577 78.2674 82.1265 82.2608 82.1265C86.2543 82.1265 89.5216 78.8577 89.5216 74.8626C89.5216 73.4098 89.1586 72.1386 88.4325 71.049H94.6042H113.664V72.5018H111.123V74.681H113.664V76.8601H111.123V81.0369H113.664V79.2209H117.294V81.0369H119.836V76.8601H117.294V74.681H119.836V72.5018H117.294V71.049H122.195C123.103 71.049 124.01 70.3226 124.01 69.233V68.1434C123.829 67.2355 123.103 66.3275 122.195 66.3275ZM86.0727 74.8626C86.0727 76.8601 84.4391 78.6761 82.2608 78.6761C80.2641 78.6761 78.4489 77.0417 78.4489 74.8626C78.4489 74.1362 78.6304 73.4098 78.9934 72.865L80.0826 71.049C79.3565 70.5042 78.9934 69.5962 78.9934 68.6882C78.9934 67.7802 79.3565 66.8723 80.0826 66.3275L78.9934 64.5115C78.6304 63.9667 78.4489 63.2403 78.4489 62.5139C78.4489 60.5163 80.0826 58.7004 82.2608 58.7004C84.2575 58.7004 86.0727 60.3347 86.0727 62.5139C86.0727 63.9667 84.2575 67.5986 84.2575 67.5986V69.5962C84.2575 69.5962 86.0727 73.2282 86.0727 74.8626Z" fill="#FFCB05"/>
<path fill-rule="evenodd" clip-rule="evenodd" d="M26.875 61.875V70.9549C26.875 79.6716 30.6869 85.1196 32.8652 87.2987C34.1358 88.5699 47.0238 101.282 47.2053 101.463C51.1987 105.459 51.9248 106.73 52.8324 108.909V98.921C52.8324 90.0227 48.2944 86.5724 45.9346 84.2116C40.489 78.9452 36.8586 75.4949 33.9543 72.5893C28.3272 66.7782 26.875 61.875 26.875 61.875Z" fill="white"/>
<path fill-rule="evenodd" clip-rule="evenodd" d="M45.9346 106.634C40.489 101.367 36.8586 97.9171 33.9543 95.0115C28.3272 89.382 26.875 85.75 26.875 85.75V93.5587C26.875 102.275 30.8684 107.723 32.8652 109.903C34.1358 111.174 47.0238 123.704 47.2053 123.886C51.1987 127.881 51.9248 129.697 52.8324 131.876V121.343C52.8324 112.445 48.2944 108.813 45.9346 106.634Z" fill="white"/>
<path fill-rule="evenodd" clip-rule="evenodd" d="M74.6365 21.125C73.5473 21.125 72.6397 21.125 71.7321 21.125V25.4834C72.6397 25.4834 73.7289 25.4834 74.6365 25.4834C106.766 25.4834 132.723 51.4519 132.723 83.5948C132.723 115.556 106.766 141.706 74.6365 141.706C42.5074 141.706 16.55 115.738 16.55 83.5948C16.55 65.7982 24.5369 49.8175 37.2433 39.2848V33.8369C21.9956 44.9144 12.375 63.0742 12.375 83.4132C12.375 117.735 40.3291 145.701 74.6365 145.701C108.944 145.701 136.898 117.735 136.898 83.4132C136.898 49.0911 108.944 21.125 74.6365 21.125Z" fill="white"/>
<path fill-rule="evenodd" clip-rule="evenodd" d="M118.5 115.849C119.408 114.577 120.315 113.125 121.223 111.853V103.5H118.5V115.849Z" fill="white"/>
<path fill-rule="evenodd" clip-rule="evenodd" d="M126.487 100.382C126.85 99.1108 127.213 98.0212 127.576 96.75H118.5V98.9292H119.952C122.312 98.9292 125.035 98.7476 126.487 100.382Z" fill="white"/>
<path d="M66.2348 96.375H63.875V121.254H66.2348V96.375Z" fill="white"/>
<path fill-rule="evenodd" clip-rule="evenodd" d="M58.2348 91.7358H66.4032C68.5814 91.7358 70.0336 92.099 70.7597 93.007C71.6673 93.7334 72.0303 95.1861 72.0303 97.3653V120.61C72.0303 122.789 71.6673 124.242 70.7597 124.968C69.489 126.239 67.1293 126.239 65.1325 126.239C64.7695 126.239 64.2249 126.239 63.8619 126.239V137.317C64.588 137.498 65.4956 137.68 66.2217 137.68V128.6C70.0336 128.6 72.3933 127.329 73.4825 124.787V138.043C73.664 138.043 74.027 138.043 74.2086 138.043C74.7531 138.043 75.2977 138.043 75.6607 138.043V97.7285C75.6607 95.5493 76.0238 94.0965 76.9314 93.1886C77.6574 92.2806 79.2911 91.9174 81.2878 91.9174C83.4661 91.9174 86.3704 91.5542 88.0041 93.1886C88.7302 94.0965 89.2747 95.5493 89.2747 97.7285V109.532H83.6476V96.8205H81.2878V137.498C82.0139 137.317 82.9215 137.317 83.6476 137.135V112.075H89.6378V136.046C90.7269 135.682 91.9975 135.319 93.0867 134.956V112.983C93.0867 110.44 93.6312 108.624 96.1725 107.716L93.2682 92.4622H98.8953L99.8029 109.169H100.529L101.437 92.4622H107.427L104.159 107.716C106.882 108.624 107.245 110.259 107.245 112.983V127.147C108.879 125.876 110.513 124.605 111.965 123.152V92.2806H128.483C128.665 91.5542 128.665 90.8278 128.846 90.1014H90.3639L90.9084 92.8254C89.6378 90.6462 87.4595 89.5566 84.0107 89.5566H81.6509C77.6574 89.5566 75.1162 91.191 74.2086 94.4597C73.301 91.0094 70.7597 89.375 66.4032 89.375H55.875V134.956C56.6011 135.319 57.5087 135.501 58.2348 135.864V91.7358V91.7358ZM109.423 109.169L106.701 106.627L109.423 93.007V109.169Z" fill="white"/>
<path fill-rule="evenodd" clip-rule="evenodd" d="M99 132.407C99.9076 132.044 100.634 131.499 101.541 131.136V112.25H99V132.407Z" fill="white"/>
</svg>
