<svg width="220" height="310" viewBox="0 0 220 310" fill="none" xmlns="http://www.w3.org/2000/svg">
<rect width="220" height="310" fill="#265D30"/>
<path d="M93.7922 207.324C136.33 207.324 155.584 169.026 155.584 130.949C155.584 92.8728 136.33 54.7963 93.7922 54.7963C51.0302 54.7963 32 92.8728 32 130.949C32 169.026 51.0302 207.324 93.7922 207.324ZM93.7922 179.43C72.2993 179.43 64.2394 158.178 64.2394 130.949C64.2394 103.72 72.2993 82.6896 93.7922 82.6896C115.061 82.6896 123.121 103.72 123.121 130.949C123.121 158.178 115.061 179.43 93.7922 179.43Z" fill="white"/>
<path d="M153.432 201.188H159.637V206.447C159.637 206.703 159.72 206.913 159.886 207.076C160.052 207.241 160.265 207.324 160.523 207.324H165.149C165.389 207.324 165.597 207.241 165.772 207.076C165.948 206.913 166.035 206.703 166.035 206.447V201.188H180.023C180.281 201.188 180.494 201.107 180.66 200.942C180.827 200.777 180.909 200.568 180.909 200.312V196.806C180.909 196.552 180.827 196.341 180.66 196.177C180.494 196.012 180.281 195.93 180.023 195.93H166.035V192.698H175.452C179.145 192.698 182.159 191.585 184.496 189.357C186.832 187.13 188 184.255 188 180.729C188 177.206 186.832 174.331 184.496 172.102C182.16 169.876 179.145 168.761 175.452 168.761H160.523C160.264 168.761 160.052 168.843 159.886 169.007C159.72 169.172 159.636 169.383 159.636 169.637V186.865H153.432C153.173 186.865 152.961 186.951 152.795 187.125C152.629 187.298 152.546 187.504 152.546 187.741V191.821C152.546 192.077 152.628 192.287 152.795 192.452C152.962 192.616 153.173 192.698 153.432 192.698H159.637V195.93H153.432C153.173 195.93 152.961 196.012 152.795 196.177C152.629 196.341 152.546 196.551 152.546 196.806V200.312C152.546 200.568 152.628 200.777 152.795 200.942C152.961 201.107 153.173 201.188 153.432 201.188ZM166.035 174.595H174.898C176.855 174.595 178.434 175.161 179.635 176.293C180.835 177.425 181.435 178.905 181.435 180.73C181.435 182.556 180.835 184.036 179.635 185.166C178.434 186.299 176.855 186.865 174.898 186.865H166.035V174.595Z" fill="white"/>
<path d="M45.8738 244.058H34.1394V222.679H45.5173C47.4838 222.679 49.0074 223.213 50.0879 224.281C51.19 225.328 51.7411 226.61 51.7411 228.128C51.7411 229.431 51.3845 230.521 50.6714 231.397C49.9582 232.273 49.0722 232.818 48.0133 233.032C49.1802 233.203 50.1635 233.79 50.9631 234.794C51.7627 235.799 52.1625 236.963 52.1625 238.288C52.1625 239.955 51.6114 241.333 50.5093 242.423C49.4071 243.513 47.862 244.058 45.8738 244.058ZM44.5124 231.237C45.2904 231.237 45.9063 231.023 46.3601 230.596C46.8139 230.168 47.0408 229.613 47.0408 228.929C47.0408 228.245 46.8031 227.69 46.3277 227.262C45.8738 226.813 45.2688 226.589 44.5124 226.589H38.7424V231.237H44.5124ZM44.6745 240.115C45.5389 240.115 46.2196 239.901 46.7167 239.474C47.2137 239.025 47.4622 238.416 47.4622 237.647C47.4622 236.942 47.2137 236.354 46.7167 235.884C46.2196 235.393 45.5389 235.147 44.6745 235.147H38.7424V240.115H44.6745Z" fill="white"/>
<path d="M91.2539 244.058H86.6185V229.089L80.5243 244.058H78.5146L72.4204 229.089V244.058H67.8174V222.679H74.2681L79.5195 235.596L84.7708 222.679H91.2539V244.058Z" fill="white"/>
<path d="M112.793 244.058H97.4929V222.679H112.793V226.685H102.096V231.205H112.566V235.211H102.096V240.051H112.793V244.058Z" fill="white"/>
<path d="M128.807 244.442C125.522 244.442 122.777 243.417 120.573 241.365C118.39 239.292 117.299 236.632 117.299 233.384C117.299 230.136 118.39 227.487 120.573 225.435C122.777 223.363 125.522 222.326 128.807 222.326C132.848 222.326 135.862 224.068 137.851 227.551L133.896 229.474C133.42 228.576 132.718 227.839 131.789 227.262C130.881 226.664 129.887 226.365 128.807 226.365C126.84 226.365 125.219 227.027 123.944 228.352C122.669 229.677 122.032 231.354 122.032 233.384C122.032 235.414 122.669 237.092 123.944 238.416C125.219 239.741 126.84 240.404 128.807 240.404C129.887 240.404 130.881 240.115 131.789 239.538C132.718 238.961 133.42 238.213 133.896 237.295L137.851 239.186C135.798 242.69 132.783 244.442 128.807 244.442Z" fill="white"/>
<path d="M146.879 244.058H141.595L146.458 235.916C145.139 235.617 144.016 234.923 143.086 233.833C142.179 232.743 141.725 231.322 141.725 229.57C141.725 227.54 142.373 225.884 143.67 224.602C144.988 223.32 146.76 222.679 148.986 222.679H159.1V244.058H154.497V236.461H151.158L146.879 244.058ZM149.667 232.455H154.497V226.685H149.667C148.716 226.685 147.938 226.952 147.333 227.487C146.728 227.999 146.425 228.694 146.425 229.57C146.425 230.446 146.728 231.151 147.333 231.685C147.938 232.198 148.716 232.455 149.667 232.455Z" fill="white"/>
<path d="M182.101 248V244.058H165.31V222.679H169.913V240.051H180.124V222.679H184.759V240.051H186.704V248H182.101Z" fill="white"/>
<path d="M44.3828 44.116C41.1196 44.116 38.4183 43.0797 36.2789 41.007C34.1611 38.9129 33.1022 36.2632 33.1022 33.058C33.1022 29.8528 34.1611 27.2138 36.2789 25.1411C38.4183 23.047 41.1196 22 44.3828 22C47.6676 22 50.3689 23.0364 52.4867 25.1091C54.6261 27.1818 55.6958 29.8314 55.6958 33.058C55.6958 36.2846 54.6261 38.9342 52.4867 41.007C50.3689 43.0797 47.6676 44.116 44.3828 44.116ZM39.6177 38.0902C40.8279 39.415 42.4163 40.0774 44.3828 40.0774C46.3493 40.0774 47.9377 39.415 49.1479 38.0902C50.3581 36.7654 50.9632 35.088 50.9632 33.058C50.9632 31.028 50.3581 29.3506 49.1479 28.0258C47.9377 26.701 46.3493 26.0386 44.3828 26.0386C42.4163 26.0386 40.8279 26.701 39.6177 28.0258C38.4291 29.3506 37.8348 31.028 37.8348 33.058C37.8348 35.088 38.4291 36.7654 39.6177 38.0902Z" fill="white"/>
<path d="M69.707 43.7314H65.0715V26.3591H58.7505V22.3526H75.9956V26.3591H69.707V43.7314Z" fill="white"/>
</svg>
