<svg width="228" height="55" viewBox="0 0 228 55" fill="none" xmlns="http://www.w3.org/2000/svg">
<g clip-path="url(#clip0)">
<path d="M60.867 30.5049C61.5077 30.5049 62.4233 30.5282 63.1586 29.8331C63.6614 29.3694 63.9388 28.5859 63.9388 27.916C63.9388 27.2905 63.6848 26.5517 63.1822 26.1112C62.6775 25.6725 61.8764 25.4638 60.979 25.4638H58.1833V30.5049H60.867ZM60.7506 23.1547C62.1056 23.1547 63.6157 23.1997 64.9218 24.0984C65.7958 24.6789 66.8243 25.8365 66.8243 27.8927C66.8243 30.1584 65.4048 32.8175 61.4851 32.8175H58.183V39.0122H55.2966V23.1547H60.7506V23.1547Z" fill="#7A7A7A"/>
<path d="M71.4358 36.4456C71.6852 36.7482 72.2617 37.3021 73.2668 37.3021C74.2773 37.3021 74.8494 36.7482 75.0999 36.4456C75.2845 36.2379 75.9739 35.3148 75.9739 33.1155C75.9739 30.9205 75.2845 29.9998 75.0999 29.7894C74.8494 29.4872 74.2773 28.9327 73.2668 28.9327C72.2617 28.9327 71.6852 29.4872 71.4358 29.7894C71.2541 29.9996 70.5621 30.9205 70.5621 33.1155C70.5621 35.3151 71.2541 36.2382 71.4358 36.4456ZM69.4868 28.4249C70.288 27.6598 71.4828 26.9907 73.2668 26.9907C75.0553 26.9907 76.248 27.6598 77.0502 28.4249C78.24 29.5587 78.8586 31.3126 78.8586 33.1155C78.8586 34.92 78.2397 36.6763 77.0502 37.8093C76.248 38.5736 75.0553 39.243 73.2668 39.243C71.4828 39.243 70.288 38.5736 69.4868 37.8093C68.2931 36.6761 67.6747 34.92 67.6747 33.1155C67.6747 31.3128 68.2931 29.5587 69.4868 28.4249Z" fill="#7A7A7A"/>
<path d="M87.998 31.5457C87.9512 30.946 87.7217 30.2511 87.425 29.8106C87.1474 29.3976 86.5986 28.934 85.6846 28.934C84.788 28.934 84.1936 29.3976 83.8265 30.0207C83.2524 30.969 83.2083 32.4461 83.2083 33.1157C83.2083 34.2051 83.3661 35.4996 83.8265 36.2406C84.1229 36.702 84.7195 37.3023 85.6846 37.3023C86.3707 37.3023 86.9426 37.0274 87.3799 36.4252C87.7217 35.938 87.9512 35.2456 87.998 34.6435L90.4272 34.9433C90.288 36.0308 89.8088 37.2353 88.9606 38.0175C88.2487 38.6665 87.1474 39.2432 85.5908 39.2432C83.8504 39.2432 82.7257 38.5505 82.0619 37.9253C81.1691 37.0716 80.3196 35.5433 80.3196 33.1409C80.3196 30.8999 81.0753 29.559 81.6719 28.8394C82.5195 27.8254 83.9654 26.9899 85.6588 26.9899C87.1041 26.9899 88.2966 27.5009 89.0499 28.288C89.8088 29.0493 90.2673 30.2029 90.4272 31.2442L87.998 31.5457Z" fill="#7A7A7A"/>
<path d="M99.3716 31.5457C99.327 30.946 99.0991 30.2511 98.7992 29.8106C98.5251 29.3976 97.9722 28.934 97.0558 28.934C96.1649 28.934 95.5683 29.3976 95.2004 30.0207C94.6301 30.969 94.582 32.4461 94.582 33.1157C94.582 34.2051 94.7427 35.4996 95.2004 36.2406C95.4968 36.702 96.0956 37.3023 97.0558 37.3023C97.7462 37.3023 98.3176 37.0274 98.7532 36.4252C99.0988 35.938 99.327 35.2456 99.3713 34.6435L101.801 34.9433C101.664 36.0308 101.182 37.2353 100.335 38.0175C99.6224 38.6665 98.5248 39.2432 96.9658 39.2432C95.2237 39.2432 94.1004 38.5505 93.4352 37.9253C92.5425 37.0716 91.6948 35.5433 91.6948 33.1409C91.6948 30.8999 92.4492 29.559 93.0461 28.8394C93.8921 27.8254 95.3361 26.9899 97.0332 26.9899C98.4769 26.9899 99.6686 27.5009 100.423 28.288C101.182 29.0493 101.64 30.2029 101.801 31.2442L99.3716 31.5457Z" fill="#7A7A7A"/>
<path d="M111.354 31.867C111.354 31.1998 111.195 30.4363 110.849 29.9258C110.416 29.2797 109.635 28.8381 108.787 28.8381C107.916 28.8381 107.161 29.2797 106.702 29.8334C106.336 30.2978 106.015 31.013 106.015 31.867H111.354V31.867ZM114.057 35.5919C113.646 36.9789 112.821 37.7871 112.136 38.2737C111.219 38.8967 110.027 39.2457 108.765 39.2457C107.184 39.2457 105.579 38.5739 104.614 37.5813C103.724 36.656 103.057 35.0588 103.057 33.1637C103.057 30.7587 104.042 29.1645 105.119 28.2612C105.741 27.7303 106.907 26.9896 108.673 26.9896C110.897 26.9896 112.318 28.0294 113.071 29.0929C113.875 30.2029 114.242 31.7539 114.242 33.0949V33.6282H105.944C105.944 33.764 105.922 34.8303 106.336 35.6821C106.952 36.9792 108.077 37.2999 108.857 37.2999C109.475 37.2999 110.253 37.1201 110.897 36.4461C111.284 36.0311 111.447 35.6382 111.514 35.2668L114.057 35.5919Z" fill="#7A7A7A"/>
<path d="M125.561 27.2225V39.0122H122.9V29.2103H119.875C119.808 30.805 119.763 31.4513 119.714 32.538C119.648 33.7637 119.557 36.3531 118.522 37.7659C117.951 38.5277 117.241 38.8276 116.736 38.968C116.44 39.0605 116.12 39.1047 115.795 39.1047C115.567 39.1047 115.336 39.0811 115.113 39.0122V36.9788H115.336C115.682 36.9536 116.141 36.7706 116.44 36.538C117.354 35.8017 117.446 34.1354 117.54 32.8175C117.653 31.0818 117.676 30.0434 117.699 28.472L117.724 27.2225H125.561V27.2225Z" fill="#7A7A7A"/>
<path d="M131.025 37.0713H133.114C133.617 37.0713 134.164 37.0458 134.625 36.656C134.898 36.3998 135.222 35.9633 135.222 35.2226C135.222 34.5743 135.038 34.066 134.51 33.7203C134.051 33.4178 133.48 33.3714 133.115 33.3714H131.026V37.0713H131.025ZM131.025 31.4283H133.961C134.713 31.4283 136.184 31.5232 137.147 32.4949C138.015 33.3508 138.106 34.551 138.106 35.1998C138.106 36.8869 137.418 37.741 136.893 38.1815C136.708 38.3201 135.84 39.0125 134.188 39.0125H128.367V27.2236H131.025V31.4283Z" fill="#7A7A7A"/>
<path d="M141.97 27.2225L144.125 30.8974L146.37 27.2225H148.799L145.384 32.5635L149.44 39.0122H146.322L143.667 34.5743L140.871 39.0122H138.442L142.429 32.8869L138.852 27.2225H141.97Z" fill="#7A7A7A"/>
<path d="M153.444 36.4456C153.693 36.7482 154.267 37.3021 155.275 37.3021C156.285 37.3021 156.857 36.7482 157.111 36.4456C157.292 36.2379 157.98 35.3148 157.98 33.1155C157.98 30.9205 157.291 29.9998 157.111 29.7894C156.857 29.4872 156.285 28.9327 155.275 28.9327C154.267 28.9327 153.693 29.4872 153.444 29.7894C153.26 29.9996 152.57 30.9205 152.57 33.1155C152.57 35.3151 153.26 36.2382 153.444 36.4456ZM151.495 28.4249C152.296 27.6598 153.487 26.9907 155.275 26.9907C157.064 26.9907 158.256 27.6598 159.058 28.4249C160.247 29.5587 160.87 31.3126 160.87 33.1155C160.87 34.92 160.247 36.6763 159.058 37.8093C158.256 38.5736 157.064 39.243 155.275 39.243C153.487 39.243 152.296 38.5736 151.495 37.8093C150.301 36.6761 149.683 34.92 149.683 33.1155C149.683 31.3128 150.301 29.5587 151.495 28.4249Z" fill="#7A7A7A"/>
<path d="M162.286 30.4127C162.629 28.9796 163.524 28.1939 164.165 27.7994C164.554 27.5467 165.631 26.9893 167.463 26.9893C168.611 26.9893 169.779 27.1983 170.652 27.685C171.934 28.3991 172.254 29.4407 172.254 30.1817C172.254 30.9915 171.862 32.5377 169.871 32.769V32.8175C170.558 32.9124 171.316 33.2122 171.773 33.6946C172.188 34.1329 172.507 34.8739 172.507 35.6582C172.507 36.84 171.82 37.8787 170.948 38.4578C169.893 39.1502 168.447 39.2429 167.374 39.2429C166.294 39.2429 164.646 39.1299 163.498 38.2043C162.859 37.694 162.263 36.817 162.078 35.7073L164.484 35.2895C164.573 35.6582 164.784 36.2148 165.059 36.5377C165.656 37.2326 166.594 37.3017 167.189 37.3017C167.787 37.3017 168.429 37.2323 168.932 36.8837C169.389 36.5627 169.618 36.1218 169.618 35.5427C169.618 35.0585 169.526 34.6662 169.115 34.3197C168.587 33.8813 167.877 33.8119 167.214 33.8119H165.999V32.0071H167.214C167.67 32.0071 168.335 31.9147 168.703 31.7303C169.184 31.4741 169.458 31.0588 169.458 30.3897C169.458 30.0182 169.318 29.6717 168.978 29.3947C168.447 28.9563 167.694 28.9327 167.306 28.9327C166.777 28.9327 165.999 28.9999 165.357 29.5565C165.084 29.7894 164.714 30.2259 164.599 30.9205L162.286 30.4127Z" fill="#7A7A7A"/>
<path d="M178.522 36.2406H181.479C182.03 36.2406 182.536 36.2151 183.06 35.6818C183.565 35.174 183.634 34.5995 183.634 34.1587C183.634 33.6506 183.496 33.1406 183.06 32.7001C182.536 32.1714 181.872 32.1204 181.387 32.1204H178.522V36.2406ZM186.109 25.9279H178.522V29.441H181.893C183.104 29.441 184.276 29.5334 185.469 30.3666C186.635 31.1742 187.37 32.3793 187.37 34.1123C187.37 35.7328 186.773 36.9327 186.018 37.6943C184.873 38.8506 183.565 39.0122 182.189 39.0122H174.854V23.1538H186.11V25.9279H186.109Z" fill="#7A7A7A"/>
<path d="M195.744 33.4411C194.597 33.533 193.451 33.6504 192.808 34.4564C192.625 34.6893 192.442 35.038 192.442 35.5224C192.442 36.0305 192.694 36.3786 192.945 36.5611C193.268 36.817 193.748 36.9328 194.206 36.9328C194.894 36.9328 195.698 36.6329 196.155 36.0788C196.225 36.0053 196.774 35.3123 196.774 33.9738V33.3484L195.744 33.4411ZM189.257 30.5049C189.623 28.9094 190.655 28.1007 191.275 27.7303C192.189 27.1973 193.405 26.9896 194.919 26.9896C196.844 26.9896 198.793 27.2445 199.663 29.0723C200.12 30.0207 200.075 31.0385 200.075 31.9152V36.4692C200.075 37.4175 200.211 38.297 200.417 39.0125H197.097C197.002 38.5508 196.935 37.9253 196.912 37.1407C196.474 37.9256 195.42 39.2459 192.993 39.2459C191.915 39.2459 190.814 38.9686 190.058 38.3456C189.324 37.7412 188.866 36.7712 188.866 35.7079C188.866 34.5283 189.372 33.1157 191.364 32.2848C192.648 31.7542 194.734 31.5696 195.674 31.5232L196.774 31.4744V31.2206C196.774 30.8975 196.752 30.2026 196.431 29.8334C195.995 29.3256 195.123 29.3025 194.775 29.3025C194.3 29.3025 193.726 29.3489 193.244 29.6487C192.945 29.8334 192.556 30.2026 192.42 30.8514L189.257 30.5049Z" fill="#7A7A7A"/>
<path d="M206.144 27.2225V31.6381H209.832V27.2225H213.244V39.0122H209.832V34.0641H206.144V39.0122H202.725V27.2225H206.144Z" fill="#7A7A7A"/>
<path d="M219.314 27.2224V31.7536H220.232C221.216 31.7536 221.629 31.2664 221.879 30.7358C222.362 29.6947 222.339 28.8852 222.776 28.0786C223.119 27.4309 223.577 27.2672 223.875 27.2222H226.693C226.326 27.6134 226.006 28.0786 225.798 28.4923C225.432 29.2561 225.088 30.5046 224.883 31.0379C224.608 31.7766 224.149 32.5171 222.98 32.6098V32.6534C223.6 32.7483 224.24 33.0712 224.723 33.7889C225.018 34.2273 225.226 34.8039 225.548 35.707C225.869 36.6323 226.006 36.9533 226.304 37.6707C226.533 38.204 226.669 38.5271 227.059 39.0116H223.851C223.347 38.8522 223.004 38.5038 222.593 37.3014C222.271 36.378 222.225 36.0546 222.017 35.5424L221.856 35.1295C221.513 34.2503 221.054 34.0635 220.346 34.0635H219.314V39.0116H215.901V27.2224H219.314Z" fill="#7A7A7A"/>
<path d="M16.5531 31.5134L21.8031 26.3075V22.7762L16.5531 27.9518V31.5134Z" fill="#7A7A7A"/>
<path d="M16.5531 18.3323L21.8031 13.1242V9.78949L16.5531 14.9697V18.3323Z" fill="#7A7A7A"/>
<path d="M16.5531 22.6919L21.8031 17.4851V14.1523L16.5531 19.3317V22.6919Z" fill="#7A7A7A"/>
<path d="M15.0482 9.83206L14.351 9.14425V0.901245H13.5571V8.36316L12.8657 7.67751V0.901245H12.0728V6.89724L11.3757 6.21186V0.901245H10.5853V8.76333L15.8385 13.9701V0.901245H15.0482V9.83206Z" fill="#7A7A7A"/>
<path d="M16.5531 27.0538L21.8031 21.8473V18.5134L16.5531 23.6925V27.0538Z" fill="#7A7A7A"/>
<path d="M10.5853 26.3064L15.8399 31.5135V27.9532L10.5853 22.7776V26.3064Z" fill="#7A7A7A"/>
<path d="M21.0144 6.21184L20.3183 6.89722V0.900146H19.5244V7.67966L18.8284 8.36315V0.900146H18.0401V9.14179L17.3417 9.83069V0.900146H16.5526V13.9701L21.8026 8.76331V0.900146H21.0144V6.21184Z" fill="#7A7A7A"/>
<path d="M10.5853 13.1242L15.8399 18.3313V14.9684L10.5853 9.79059V13.1242Z" fill="#7A7A7A"/>
<path d="M10.5853 17.4865L15.8399 22.6919V19.3317L10.5853 14.1523V17.4865Z" fill="#7A7A7A"/>
<path d="M10.5853 21.8473L15.8399 27.0539V23.6926L10.5853 18.5145V21.8473Z" fill="#7A7A7A"/>
<path d="M28.1944 27.8342C28.1944 28.6247 27.5572 29.2632 26.7725 29.2632C25.9923 29.2632 25.3562 28.6247 25.3562 27.8342C25.3562 27.5446 25.4403 27.2732 25.5889 27.046L25.9848 26.3712C25.74 26.1565 25.5844 25.8368 25.5844 25.4828C25.5844 25.1252 25.74 24.8053 25.9848 24.5894L25.5889 23.9144C25.4403 23.6904 25.3562 23.4204 25.3562 23.1287C25.3562 22.3405 25.992 21.6977 26.7725 21.6977C27.5572 21.6977 28.1944 22.3405 28.1944 23.1287C28.1944 23.7116 27.5282 25.1032 27.5282 25.1032V25.8591C27.5282 25.8585 28.1944 27.2494 28.1944 27.8342ZM41.8775 24.596H29.6599H29.1047C29.3729 24.1714 29.5301 23.6706 29.5301 23.1281C29.5301 21.5969 28.2941 20.3527 26.7728 20.3527C25.2543 20.3527 24.0232 21.5969 24.0232 23.1281C24.0232 23.7327 24.2167 24.2834 24.5376 24.738C24.2997 24.8985 24.1396 25.1696 24.1396 25.4825C24.1396 25.7905 24.2997 26.0651 24.5376 26.2221C24.217 26.6768 24.0232 27.2307 24.0232 27.8342C24.0232 29.3673 25.2543 30.6088 26.7728 30.6088C28.2941 30.6088 29.5301 29.3673 29.5301 27.8342C29.5301 27.2908 29.3729 26.792 29.1047 26.3677H31.4148H38.6071V26.9482H37.6683V27.7664H38.6071V28.6136H37.6683V30.1733H38.6071V29.4668H39.9973V30.1733H40.9331V28.6136H39.9973V27.7664H40.9331V26.9482H39.9973V26.3677H41.8775C42.24 26.3677 42.5381 26.0605 42.5381 25.6877V25.2748C42.5381 24.9018 42.24 24.596 41.8775 24.596Z" fill="#7A7A7A"/>
<path d="M5.80884 22.9077V26.3687C5.80884 29.6766 7.23858 31.7997 8.05907 32.6285C8.54066 33.1065 13.4252 37.9532 13.4923 38.0221C15.0135 39.5203 15.2793 40.014 15.6179 40.8658V37.0322C15.6179 33.6165 13.9003 32.2918 13.0185 31.4237C10.9618 29.3974 9.58152 28.0648 8.47267 26.9489C6.36461 24.8223 5.80884 22.9077 5.80884 22.9077Z" fill="#7A7A7A"/>
<path d="M13.0191 39.9882C10.961 37.9597 9.58204 36.6258 8.47184 35.5113C6.36647 33.3854 5.80774 31.9426 5.80774 31.9426V34.9316C5.80774 38.2365 7.29768 40.3485 8.05555 41.2142C8.53849 41.6873 13.4337 46.5196 13.4942 46.5823C15.014 48.0777 15.2782 48.7929 15.6168 49.6451V45.5946C15.6168 42.1764 13.9011 40.8539 13.0191 39.9882Z" fill="#7A7A7A"/>
<path d="M23.8494 7.30829C23.468 7.30829 23.0928 7.31642 22.7214 7.33377V8.95396C23.0928 8.93661 23.468 8.92522 23.8494 8.92522C35.9906 8.92522 45.8335 18.8565 45.8335 31.1055C45.8335 43.3539 35.9906 53.2824 23.8494 53.2824C11.7052 53.2824 1.86175 43.3539 1.86175 31.1055C1.86175 24.3067 4.89484 18.2239 9.66781 14.1564V12.0848C3.95288 16.4281 0.258667 23.3301 0.258667 31.1052C0.258667 44.2489 10.8194 54.9002 23.8494 54.9002C36.8751 54.9002 47.4363 44.2491 47.4363 31.1052C47.4363 17.9631 36.8751 7.30829 23.8494 7.30829Z" fill="#7A7A7A"/>
<path d="M40.5352 43.5288C40.9031 43.0258 41.2495 42.5064 41.5739 41.9731V38.7794H40.5352V43.5288Z" fill="#7A7A7A"/>
<path d="M43.5607 37.6182C43.7093 37.1592 43.8426 36.6926 43.9587 36.2244H40.5352V37.0735H41.0552C41.9684 37.0483 42.9864 37.0366 43.5607 37.6182Z" fill="#7A7A7A"/>
<path d="M20.7722 36.1089H19.8445V45.5993H20.7722V36.1089Z" fill="#7A7A7A"/>
<path d="M37.0479 40.9857L36.043 40.0186L37.0479 34.7777V40.9857ZM17.705 34.2783H20.7719C21.5634 34.2783 22.1154 34.4445 22.4398 34.7565C22.7634 35.0634 22.9109 35.6197 22.9109 36.4203V45.2853C22.9109 46.0908 22.7634 46.6468 22.4398 46.9562C21.9526 47.4455 21.0603 47.4455 20.3137 47.4455C20.1514 47.4295 19.9885 47.4295 19.8442 47.4295V51.6321C20.1514 51.6942 20.4591 51.75 20.7719 51.798V48.3459C22.1823 48.3459 23.11 47.8609 23.5435 46.8846V52.022C23.6443 52.0244 23.7451 52.0266 23.8491 52.0266C24.0434 52.0266 24.238 52.0244 24.4323 52.0176V36.5868C24.4323 35.7672 24.5976 35.1949 24.9021 34.8696C25.2082 34.5415 25.7629 34.378 26.542 34.378C27.3364 34.378 28.4998 34.2601 29.1026 34.8696C29.4122 35.1949 29.5552 35.7672 29.5552 36.5868V41.1307H27.4538V36.2726H26.542V51.8514C26.847 51.8121 27.1475 51.7639 27.4538 51.7129V42.0471H29.5552V51.2216C29.9897 51.0969 30.417 50.9584 30.8363 50.8087V42.4098C30.8363 41.4615 31.0636 40.7414 32.0239 40.4158L30.9664 34.5722H33.0924L33.4469 40.9537H33.7073L34.0637 34.5722H36.304L35.1035 40.4158C36.1094 40.7737 36.304 41.3945 36.304 42.4098V47.834C36.9272 47.3631 37.5235 46.855 38.0868 46.315V34.5236H44.3129C44.3549 34.2444 44.397 33.9583 44.432 33.6742H29.8626L30.0693 34.7291C29.6076 33.8751 28.7325 33.4457 27.4538 33.4457H26.542C24.9972 33.4457 24.059 34.0646 23.7051 35.3017C23.3726 34.0069 22.3952 33.363 20.7719 33.363H16.7808V50.7786C17.0858 50.892 17.3965 50.9934 17.705 51.095V34.2783Z" fill="#7A7A7A"/>
<path d="M33.0911 49.8365C33.4149 49.6727 33.7345 49.5022 34.0486 49.3238V42.1441H33.0911V49.8365Z" fill="#7A7A7A"/>
</g>
<defs>
<clipPath id="clip0">
<rect width="226.8" height="54" fill="white" transform="translate(0.258667 0.900146)"/>
</clipPath>
</defs>
</svg>
