<svg width="20" height="16" viewBox="0 0 20 16" fill="none" xmlns="http://www.w3.org/2000/svg">
<mask id="path-1-outside-1" maskUnits="userSpaceOnUse" x="-0.000488281" y="0" width="20" height="16" fill="black">
<rect fill="white" x="-0.000488281" width="20" height="16"/>
<path fill-rule="evenodd" clip-rule="evenodd" d="M8.55654 14L17.9997 3.21397L16.6888 2L8.42504 11.4388L3.17991 6.58177L1.99951 7.93003L8.55434 13.9999L8.55527 13.9988L8.55654 14Z"/>
</mask>
<path fill-rule="evenodd" clip-rule="evenodd" d="M8.55654 14L17.9997 3.21397L16.6888 2L8.42504 11.4388L3.17991 6.58177L1.99951 7.93003L8.55434 13.9999L8.55527 13.9988L8.55654 14Z" fill="#63A240"/>
<path d="M17.9997 3.21397L18.7521 3.87269L19.3927 3.141L18.6792 2.48024L17.9997 3.21397ZM8.55654 14L7.87722 14.7338L8.6317 15.4323L9.30893 14.6587L8.55654 14ZM16.6888 2L17.3682 1.26627L16.6137 0.567611L15.9364 1.34128L16.6888 2ZM8.42504 11.4388L7.7456 12.1726L8.50008 12.8712L9.17743 12.0976L8.42504 11.4388ZM3.17991 6.58177L3.85935 5.84805L3.10487 5.14939L2.42752 5.92306L3.17991 6.58177ZM1.99951 7.93003L1.24712 7.27131L0.606523 8.003L1.32007 8.66376L1.99951 7.93003ZM8.55434 13.9999L7.8749 14.7336L8.62921 15.4321L9.30659 14.6588L8.55434 13.9999ZM8.55527 13.9988L9.23459 13.265L8.48029 12.5667L7.80303 13.3399L8.55527 13.9988ZM17.2473 2.55525L7.80415 13.3413L9.30893 14.6587L18.7521 3.87269L17.2473 2.55525ZM16.0093 2.73373L17.3203 3.9477L18.6792 2.48024L17.3682 1.26627L16.0093 2.73373ZM9.17743 12.0976L17.4412 2.65872L15.9364 1.34128L7.67265 10.7801L9.17743 12.0976ZM2.50047 7.3155L7.7456 12.1726L9.10448 10.7051L3.85935 5.84805L2.50047 7.3155ZM2.7519 8.58875L3.9323 7.24049L2.42752 5.92306L1.24712 7.27131L2.7519 8.58875ZM9.23379 13.2662L2.67895 7.1963L1.32007 8.66376L7.8749 14.7336L9.23379 13.2662ZM7.80303 13.3399L7.8021 13.341L9.30659 14.6588L9.30752 14.6577L7.80303 13.3399ZM9.23585 13.2662L9.23459 13.265L7.87596 14.7327L7.87722 14.7338L9.23585 13.2662Z" fill="#619A41" mask="url(#path-1-outside-1)"/>
</svg>
