<svg width="48" height="57" viewBox="0 0 48 57" fill="none" xmlns="http://www.w3.org/2000/svg">
<path d="M47.6284 52.354L46.3386 48.3308C45.7446 46.7571 44.8234 45.3274 43.6363 44.1359C43.0521 43.5628 42.4089 43.0531 41.7176 42.6153V41.6514C41.7159 40.0524 40.42 38.7565 38.821 38.7549H35.7024C34.4777 38.7602 33.3875 39.5323 32.9762 40.6859H32.6657C32.0967 38.8225 31.9838 36.8496 32.3363 34.9333C32.4561 33.9164 32.6272 32.9062 32.849 31.9064C34.0494 30.5943 34.7888 28.9262 34.9549 27.1555C35.0761 27.1904 35.2008 27.2112 35.3266 27.2175C35.5028 27.2172 35.6778 27.1882 35.8447 27.1318C36.2037 27.0119 37.0899 26.704 37.5564 24.272H37.8554C39.4544 24.2703 40.7503 22.9744 40.752 21.3754V16.5478C40.7498 15.1732 40.018 13.9031 38.83 13.2119C38.7937 12.9949 38.7351 12.7823 38.655 12.5774L36.3483 6.81632C34.7543 2.76987 30.8403 0.116471 26.4913 0.134122H22.1851C17.8371 0.116358 13.9237 2.76851 12.3291 6.81361L10.0171 12.5887C9.93846 12.7899 9.88109 12.9989 9.8459 13.2119C8.65832 13.9036 7.92683 15.1734 7.92434 16.5478V21.3754C7.92603 22.9744 9.2219 24.2703 10.8209 24.272H11.1199C11.5863 26.704 12.4725 27.0119 12.8316 27.1318C12.9985 27.1882 13.1735 27.2172 13.3497 27.2175C13.4755 27.2111 13.6003 27.1904 13.7214 27.1555C13.8875 28.9264 14.6269 30.5946 15.8274 31.907C16.0495 32.9082 16.2208 33.9202 16.3405 34.9388C16.6925 36.8532 16.5794 38.8241 16.0106 40.6857H15.702C15.2902 39.5317 14.1993 38.7596 12.974 38.7546H9.8553C8.25631 38.7563 6.96044 40.0522 6.95875 41.6512V42.6152C6.26742 43.0528 5.62441 43.5626 5.04046 44.1358C3.84269 45.3394 2.91591 46.7851 2.32212 48.3759L1.04696 52.3558C0.561445 53.8815 1.40461 55.512 2.93017 55.9975C3.21507 56.0882 3.51242 56.1343 3.81135 56.134H44.8646C46.4654 56.1353 47.7642 54.8386 47.7655 53.2377C47.7659 52.9379 47.7196 52.6397 47.6284 52.354ZM6.95886 54.203H3.81158C3.27685 54.2041 2.84248 53.7715 2.84135 53.2369C2.84112 53.137 2.85639 53.0377 2.8866 52.9424L4.14536 49.0097C4.6423 47.6933 5.41294 46.4975 6.40636 45.5012C6.57971 45.3275 6.77285 45.176 6.95886 45.0163V54.203ZM32.657 42.6168L31.9341 48.4099H27.2348V44.0421C28.0151 43.8108 28.7707 43.5411 29.4458 43.2796C30.0982 43.01 30.766 42.7791 31.4457 42.5885C31.5095 42.5663 31.5708 42.5372 31.6283 42.5017C31.7616 42.5745 31.9105 42.6139 32.0623 42.6168H32.657ZM23.3564 43.2417C23.3361 42.9283 23.1561 42.6472 22.8799 42.4977C22.8231 42.464 22.7628 42.4365 22.7 42.4157C22.6738 42.4071 22.6537 42.3884 22.6264 42.3821C21.7072 42.1442 20.8056 41.8426 19.9283 41.4798C19.2622 41.221 18.6312 40.9887 18.0128 40.8115C18.1793 40.2518 18.2931 39.6777 18.3528 39.0968C18.6367 39.2006 18.9253 39.3097 19.2263 39.4262C20.8372 40.1587 22.571 40.5827 24.3382 40.6764C26.1053 40.5828 27.8391 40.1588 29.45 39.4262C29.751 39.3097 30.0396 39.2006 30.3236 39.0968C30.3832 39.6777 30.4971 40.2518 30.6635 40.8115C30.0452 40.9887 29.4141 41.221 28.748 41.4798C27.8707 41.8426 26.9692 42.1442 26.0499 42.3821C26.0226 42.3884 26.0025 42.4071 25.9763 42.4157C25.8583 42.4577 25.748 42.5188 25.6499 42.5965C25.4629 42.7627 25.3453 42.9929 25.3199 43.2417C25.3176 43.2696 25.3036 43.2936 25.3036 43.3221V48.41H23.3726V43.3221C23.3727 43.2936 23.3589 43.2696 23.3564 43.2417ZM18.2206 34.4476C18.8043 34.9898 19.4274 35.5381 20.1164 36.0939C22.5753 38.0889 26.0951 38.0905 28.5557 36.0976C29.2468 35.54 29.871 34.9908 30.4554 34.4479C30.4449 34.5339 30.4276 34.6257 30.418 34.7107C30.3168 35.5598 30.2606 36.3509 30.245 37.0882C29.7607 37.2469 29.2686 37.4256 28.7534 37.6251C27.3627 38.2657 25.8662 38.6454 24.3383 38.7452C22.8103 38.6454 21.3139 38.2657 19.9232 37.6251C19.4079 37.4256 18.916 37.2469 18.4318 37.0882C18.4162 36.3524 18.3586 35.5617 18.2589 34.7162C18.249 34.6291 18.2313 34.5356 18.2206 34.4476ZM35.9244 20.41C35.9244 23.4329 35.5038 24.7859 35.2634 25.2045C35.1066 25.0671 34.9645 24.9138 34.8392 24.7472C34.8246 24.254 34.8196 23.7827 34.8329 23.3405C34.8859 21.9397 35.071 20.5472 35.3858 19.1813C35.4886 19.0992 35.6025 19.032 35.724 18.9815C35.8917 19.4379 35.96 19.9249 35.9244 20.41ZM10.821 20.41C10.821 21.1312 10.8437 21.7685 10.8824 22.341H10.821C10.288 22.3405 9.85597 21.9085 9.85552 21.3756V16.5479C9.85575 15.742 10.3578 15.0215 11.1138 14.7423C11.5266 14.5912 11.7855 14.1805 11.7437 13.7429C11.7318 13.5905 11.7558 13.4374 11.814 13.296L14.1226 7.52926C15.427 4.22018 18.6283 2.0506 22.1852 2.06519H26.4914C30.0493 2.05082 33.2513 4.22165 34.5551 7.53209L36.8585 13.2847C36.9191 13.4294 36.9446 13.5864 36.9329 13.7429C36.8912 14.1806 37.15 14.5912 37.5628 14.7423C38.3189 15.0216 38.8209 15.7421 38.8211 16.5479V21.3756C38.8206 21.9086 38.3887 22.3406 37.8557 22.341H37.7942C37.8329 21.7686 37.8557 21.1312 37.8557 20.41C37.8557 19.7594 37.8557 17.7802 36.5234 17.1825C36.3074 17.0884 36.074 17.0407 35.8384 17.0423C35.8713 16.7917 35.9032 16.5421 35.9152 16.2877V16.2613C35.9163 16.2501 35.9154 16.2411 35.9163 16.2301C35.9227 16.1548 35.9246 16.0832 35.9246 16.0171V15.9973L35.9233 15.9974C35.9229 15.9614 35.9205 15.9255 35.9161 15.8898C35.8678 15.5321 35.7095 15.1983 35.4631 14.9346C33.963 13.2751 28.5328 12.6858 24.3384 12.6858C20.1439 12.6858 14.7138 13.2751 13.2246 14.9233C12.9727 15.189 12.8105 15.527 12.7607 15.8898C12.755 15.9322 12.7522 16.0227 12.7522 16.0651C12.7522 16.1045 12.7541 16.1655 12.7604 16.2359C12.7616 16.249 12.7604 16.2549 12.762 16.2688L12.7625 16.3348C12.7738 16.5654 12.8056 16.8036 12.8374 17.0426C12.6022 17.0411 12.3692 17.0888 12.1534 17.1825C10.821 17.7802 10.821 19.7594 10.821 20.41ZM13.8367 24.7477C13.7114 24.914 13.5694 25.0671 13.413 25.2045C13.1725 24.7859 12.752 23.4329 12.752 20.41C12.7164 19.925 12.7847 19.438 12.9518 18.9815C13.0736 19.0323 13.1879 19.0997 13.2912 19.182C13.6056 20.5461 13.7905 21.9369 13.8433 23.3357C13.8566 23.7777 13.8515 24.2487 13.8367 24.7477ZM15.6485 27.0913C15.6485 26.8772 15.657 26.6622 15.672 26.4755C15.7116 26.0927 15.7319 25.6996 15.7536 25.2809C15.7862 24.5624 15.7928 23.9071 15.7734 23.2726C15.7132 21.573 15.4731 19.8846 15.0573 18.2356C15.0234 18.0801 14.9795 17.9236 14.9418 17.7935C14.8099 17.3008 14.7264 16.7965 14.6924 16.2877L14.6891 16.2035C14.6893 16.1965 14.6925 16.1902 14.6924 16.183C15.3987 15.5344 18.8525 14.6169 24.3382 14.6169C29.7989 14.6169 33.2461 15.5268 33.9839 16.1849L33.9846 16.1888L33.9849 16.2404C33.955 16.7568 33.8735 17.2688 33.7412 17.7688C33.6968 17.9235 33.653 18.0799 33.6271 18.2035C33.2067 19.8643 32.9639 21.5651 32.903 23.2772C32.8837 23.9071 32.8903 24.5623 32.9247 25.3167C32.9445 25.6994 32.9648 26.0926 33.0026 26.4566C33.0195 26.6622 33.028 26.8772 33.028 27.0912C32.8455 28.5202 32.2033 29.8511 31.1983 30.8835C30.0411 32.2494 28.748 33.4941 27.3391 34.5984C25.5879 36.0164 23.0829 36.0148 21.3334 34.5947C19.9253 33.4908 18.6331 32.2468 17.4765 30.8816C16.4723 29.8497 15.8308 28.5194 15.6485 27.0913ZM16.6141 42.6168C16.7659 42.6139 16.9148 42.5745 17.0481 42.5017C17.1056 42.5372 17.1669 42.5663 17.2307 42.5885C17.9104 42.7791 18.5782 43.01 19.2306 43.2796C19.9059 43.5411 20.6613 43.8108 21.4416 44.0421V48.4099H16.7423L16.0193 42.6168H16.6141ZM34.9589 49.3755V54.2031H8.88993V41.6513C8.8905 41.1183 9.32238 40.6863 9.85541 40.6858H12.9741C13.459 40.6864 13.8695 41.0438 13.9367 41.524L15.0375 50.3409H33.6388L34.7109 41.7653L34.7382 41.5343C34.8019 41.05 35.2139 40.6875 35.7024 40.6857H38.821C39.354 40.6863 39.786 41.1181 39.7865 41.6512V47.4443H36.8899C35.8239 47.4456 34.9601 48.3095 34.9589 49.3755ZM41.7175 54.203H40.752H36.8899V49.3753H41.7176V54.203H41.7175ZM45.6479 53.8069C45.466 54.0575 45.1745 54.2049 44.8648 54.203H43.6485V49.3753C43.6473 48.3094 42.7835 47.4455 41.7175 47.4443V45.0158C41.9036 45.1757 42.0968 45.3273 42.2704 45.501C43.2533 46.4851 44.0182 47.6651 44.5154 48.9642L45.7888 52.9404C45.8842 53.2352 45.8317 53.5577 45.6479 53.8069Z" fill="#949494"/>
</svg>
