<svg width="57" height="57" viewBox="0 0 57 57" fill="none" xmlns="http://www.w3.org/2000/svg">
<path d="M5.21875 24.634H9.59375V26.384H5.21875C4.98677 26.3843 4.76436 26.4766 4.60032 26.6406C4.43629 26.8046 4.34402 27.0271 4.34375 27.259V28.134H11.3438V29.884H4.34375V42.134H2.59375V27.259C2.59455 26.5631 2.87136 25.8959 3.36347 25.4038C3.85558 24.9116 4.5228 24.6348 5.21875 24.634Z" fill="#949494"/>
<path d="M23.5937 30.759H28.3917L28.244 30.4144H28.244C28.1767 30.2569 28.0645 30.1227 27.9216 30.0284C27.7786 29.9341 27.6111 29.8839 27.4398 29.884H20.0937V33.384H18.3437V29.884H16.5937V28.134H18.3437V25.509C18.3438 25.277 18.4359 25.0544 18.6 24.8903C18.7641 24.7262 18.9867 24.634 19.2187 24.634H40.1932C40.611 24.6345 41.0226 24.7344 41.3941 24.9256C41.7655 25.1167 42.0861 25.3936 42.3292 25.7333L50.4851 37.1516L54.1085 40.0504C54.4167 40.2956 54.6653 40.6074 54.836 40.9624C55.0066 41.3174 55.0947 41.7063 55.0937 42.1002V48.259C55.0929 48.955 54.8161 49.6222 54.324 50.1143C53.8319 50.6064 53.1647 50.8832 52.4687 50.884H52.2759C51.8005 52.979 50.5069 54.384 48.9687 54.384H45.4687C43.9305 54.384 42.6368 52.9791 42.1615 50.884H36.5259C36.0507 52.9794 34.7576 54.384 33.2187 54.384H29.7187C28.1672 54.384 26.8822 52.9422 26.4117 50.884H23.5937V49.134H26.2187C26.2187 46.1901 27.7561 43.884 29.7187 43.884C31.6814 43.884 33.2187 46.1901 33.2187 49.134H35.8437C36.0757 49.1338 36.2981 49.0415 36.4622 48.8775C36.6262 48.7134 36.7185 48.491 36.7187 48.259V41.8999C36.7183 41.7489 36.679 41.6005 36.6046 41.4691C36.5302 41.3376 36.4231 41.2276 36.2938 41.1496L32.1013 38.634H23.5937C23.3617 38.634 23.1391 38.5418 22.975 38.3777C22.8109 38.2136 22.7188 37.9911 22.7187 37.759V31.634C22.7188 31.402 22.8109 31.1794 22.975 31.0153C23.1391 30.8512 23.3617 30.759 23.5937 30.759ZM27.9687 36.884H31.0167L30.2667 35.134H27.9687V36.884ZM32.9208 36.884H48.1435L45.0185 32.509H31.0458L32.9208 36.884ZM20.0937 26.384V28.134H27.2667L26.744 26.9144C26.6767 26.7569 26.5646 26.6226 26.4216 26.5284C26.2786 26.4341 26.111 26.3839 25.9397 26.384H20.0937ZM40.9052 26.7505C40.8242 26.6373 40.7173 26.545 40.5935 26.4813C40.4697 26.4175 40.3325 26.3842 40.1932 26.384H28.4208L30.2958 30.759H43.7685L40.9052 26.7505ZM53.3437 42.6748L51.4701 43.6117L51.028 45.3798L53.3437 44.9167V42.6748ZM53.3437 48.259V46.7014L50.0154 47.3671C49.9589 47.3784 49.9014 47.384 49.8437 47.384V49.134H52.4687C52.7007 49.1338 52.9231 49.0415 53.0872 48.8775C53.2512 48.7134 53.3435 48.491 53.3437 48.259ZM42.6519 45.634H49.1606L49.5981 43.884H42.2144L42.6519 45.634ZM48.0937 49.134V47.384H44.5937V49.134H48.0937ZM50.4579 50.884H48.7759C48.6423 51.4984 48.415 52.0886 48.1021 52.634H48.9687C49.6039 52.634 50.1547 51.8367 50.4579 50.884ZM45.4687 52.634C46.0013 52.634 46.6246 51.9945 46.9661 50.884H43.9714C44.3129 51.9945 44.9362 52.634 45.4687 52.634ZM29.7187 45.634C28.8927 45.634 27.9687 47.1309 27.9687 49.134C27.9687 51.1372 28.8927 52.634 29.7187 52.634C30.5448 52.634 31.4687 51.1372 31.4687 49.134C31.4687 47.1309 30.5448 45.634 29.7187 45.634ZM33.0258 50.884C32.8906 51.4987 32.6618 52.0889 32.3473 52.634H33.2187C33.8543 52.634 34.4048 51.8371 34.708 50.884H33.0258ZM42.8437 49.134V47.384H41.9687C41.9111 47.384 41.8536 47.3784 41.7971 47.3671L38.4687 46.7014V48.259C38.4689 48.5572 38.418 48.8531 38.3182 49.134H42.8437ZM38.4687 44.9167L40.7845 45.3798L40.3328 43.5729L38.4687 42.4545V44.9167ZM41.3362 42.134H50.5122L52.6042 41.088L49.5367 38.634H35.5029L41.3362 42.134ZM24.4687 36.884H26.2187V34.259C26.2188 34.027 26.3109 33.8044 26.475 33.6403C26.6391 33.4762 26.8617 33.384 27.0937 33.384H29.5167L29.1417 32.509H24.4687V36.884Z" fill="#949494"/>
<path d="M6.09375 41.259H9.59375V43.009H6.09375V41.259Z" fill="#949494"/>
<path d="M23.5937 41.259H29.7188V43.009H23.5937V41.259Z" fill="#949494"/>
<path d="M29.7187 50.009C29.2355 50.009 28.8437 49.6173 28.8437 49.134C28.8437 48.6508 29.2355 48.259 29.7187 48.259C30.202 48.259 30.5938 48.6508 30.5938 49.134C30.5938 49.6173 30.202 50.009 29.7187 50.009Z" fill="#949494"/>
<path d="M3.46875 43.884H11.3438V36.009C11.3438 35.777 11.436 35.5544 11.6 35.3903C11.7641 35.2262 11.9867 35.134 12.2188 35.134H20.9688C21.2008 35.134 21.4234 35.2262 21.5875 35.3903C21.7515 35.5544 21.8437 35.777 21.8438 36.009V53.509C21.8437 53.7411 21.7515 53.9636 21.5875 54.1277C21.4234 54.2918 21.2008 54.384 20.9688 54.384H3.46875C3.23669 54.384 3.01414 54.2918 2.85004 54.1277C2.68595 53.9636 2.59376 53.7411 2.59375 53.509V44.759C2.59376 44.527 2.68595 44.3044 2.85004 44.1403C3.01414 43.9762 3.23669 43.884 3.46875 43.884ZM17.4688 36.884V39.509H15.7188V36.884H13.0938V43.884H20.0938V36.884H17.4688ZM20.0938 45.634H17.4688V48.259H15.7188V45.634H13.0938V52.634H20.0938V45.634ZM4.34375 52.634H11.3438V45.634H8.71875V48.259H6.96875V45.634H4.34375V52.634Z" fill="#949494"/>
<path d="M6.96875 1.88403H20.9687C22.1287 1.88536 23.2407 2.34672 24.0609 3.16691C24.8811 3.98709 25.3424 5.09912 25.3438 6.25903V19.384C25.3424 20.5439 24.8811 21.656 24.0609 22.4762C23.2407 23.2963 22.1287 23.7577 20.9687 23.759H17.0891L14.7191 27.7092C14.6413 27.8388 14.5314 27.946 14.3999 28.0205C14.2684 28.0949 14.1199 28.134 13.9687 28.134C13.8176 28.134 13.6691 28.0949 13.5376 28.0205C13.4061 27.946 13.2962 27.8388 13.2184 27.7092L10.8484 23.759H6.96875C5.80883 23.7577 4.69681 23.2963 3.87662 22.4762C3.05644 21.656 2.59508 20.5439 2.59375 19.384V6.25903C2.59508 5.09912 3.05644 3.98709 3.87662 3.16691C4.69681 2.34672 5.80883 1.88536 6.96875 1.88403ZM4.34375 19.384C4.34455 20.08 4.62136 20.7472 5.11347 21.2393C5.60558 21.7314 6.2728 22.0082 6.96875 22.009H11.3437C11.4949 22.009 11.6434 22.0482 11.7749 22.1226C11.9064 22.197 12.0163 22.3043 12.0941 22.4338L13.9687 25.5584L15.8434 22.4338C15.9212 22.3043 16.0311 22.197 16.1626 22.1226C16.2941 22.0482 16.4426 22.009 16.5937 22.009H20.9687C21.6647 22.0082 22.3319 21.7314 22.824 21.2393C23.3161 20.7472 23.593 20.08 23.5937 19.384V6.25903C23.593 5.56308 23.3161 4.89587 22.824 4.40376C22.3319 3.91165 21.6647 3.63483 20.9687 3.63403H6.96875C6.2728 3.63483 5.60558 3.91165 5.11347 4.40376C4.62136 4.89587 4.34455 5.56308 4.34375 6.25903V19.384Z" fill="#949494"/>
<path d="M6.57735 4.60149C6.72267 4.52873 6.88539 4.49792 7.04725 4.5125C7.20912 4.52708 7.36371 4.58649 7.49368 4.68405C8.35361 5.32385 9.39688 5.66939 10.4687 5.66939C11.5405 5.66939 12.5838 5.32385 13.4437 4.68405C13.5952 4.57048 13.7794 4.50909 13.9687 4.50909C14.158 4.50909 14.3422 4.57048 14.4937 4.68405C15.3536 5.32385 16.3969 5.66939 17.4687 5.66939C18.5405 5.66939 19.5838 5.32385 20.4437 4.68405C20.5737 4.58656 20.7283 4.5272 20.8902 4.51261C21.052 4.49803 21.2147 4.5288 21.36 4.60147C21.5054 4.67415 21.6276 4.78586 21.713 4.92408C21.7985 5.06231 21.8437 5.2216 21.8437 5.38409V13.2591C21.8487 14.7226 21.4435 16.1582 20.6741 17.4032C19.9047 18.6481 18.8018 19.6526 17.4906 20.3027L14.3601 21.868C14.2386 21.9288 14.1046 21.9604 13.9687 21.9604C13.8328 21.9604 13.6989 21.9288 13.5773 21.868L10.4468 20.3027C9.1356 19.6526 8.03276 18.6481 7.26335 17.4032C6.49394 16.1582 6.08874 14.7226 6.0937 13.2591V5.38409C6.09369 5.2216 6.13893 5.06231 6.22435 4.92409C6.30978 4.78586 6.43201 4.67415 6.57735 4.60149ZM13.9687 6.43993C13.1678 6.92731 12.2735 7.24103 11.3437 7.36075V13.2591C11.342 13.7469 11.4771 14.2255 11.7336 14.6405C11.9901 15.0555 12.3577 15.3903 12.7948 15.6069L13.9687 16.194L15.1427 15.6069C15.5798 15.3903 15.9474 15.0554 16.2039 14.6405C16.4603 14.2255 16.5954 13.7469 16.5937 13.2591V7.36075C15.6639 7.24106 14.7695 6.92735 13.9687 6.43993ZM7.8437 13.2591C7.83982 14.3974 8.15497 15.514 8.75342 16.4823C9.35186 17.4506 10.2097 18.2319 11.2295 18.7375L13.9687 20.1071L16.7079 18.7375C17.7278 18.2319 18.5855 17.4506 19.184 16.4823C19.7824 15.514 20.0976 14.3974 20.0937 13.2591V6.88811C19.5342 7.12295 18.9456 7.28098 18.3437 7.35789V13.2591C18.3465 14.0722 18.1214 14.8697 17.6939 15.5614C17.2665 16.253 16.6537 16.811 15.9253 17.1721L14.3601 17.9548C14.2386 18.0156 14.1046 18.0472 13.9687 18.0472C13.8328 18.0472 13.6989 18.0156 13.5773 17.9548L12.0122 17.1721C11.2837 16.811 10.671 16.253 10.2435 15.5614C9.81605 14.8698 9.59093 14.0722 9.5937 13.2591V7.35792C8.99184 7.28101 8.40316 7.12297 7.8437 6.88811V13.2591Z" fill="#949494"/>
</svg>
