<svg width="135" height="40" viewBox="0 0 135 40" fill="none" xmlns="http://www.w3.org/2000/svg">
<path d="M130 40H5C2.2 40 0 37.8 0 35V5C0 2.2 2.2 0 5 0H130C132.8 0 135 2.2 135 5V35C135 37.8 132.8 40 130 40Z" fill="black"/>
<path d="M130 0.8C132.3 0.8 134.2 2.7 134.2 5V35C134.2 37.3 132.3 39.2 130 39.2H5C2.7 39.2 0.8 37.3 0.8 35V5C0.8 2.7 2.7 0.8 5 0.8H130ZM130 0H5C2.2 0 0 2.3 0 5V35C0 37.8 2.2 40 5 40H130C132.8 40 135 37.8 135 35V5C135 2.3 132.8 0 130 0Z" fill="#A6A6A6"/>
<path d="M68.1001 21.8001C65.7001 21.8001 63.8001 23.6001 63.8001 26.1001C63.8001 28.5001 65.7001 30.4001 68.1001 30.4001C70.5001 30.4001 72.4001 28.6001 72.4001 26.1001C72.4001 23.5001 70.5001 21.8001 68.1001 21.8001ZM68.1001 28.6001C66.8001 28.6001 65.7001 27.5001 65.7001 26.0001C65.7001 24.5001 66.8001 23.4001 68.1001 23.4001C69.4001 23.4001 70.5001 24.4001 70.5001 26.0001C70.5001 27.5001 69.4001 28.6001 68.1001 28.6001ZM58.8001 21.8001C56.4001 21.8001 54.5001 23.6001 54.5001 26.1001C54.5001 28.5001 56.4001 30.4001 58.8001 30.4001C61.2001 30.4001 63.1001 28.6001 63.1001 26.1001C63.1001 23.5001 61.2001 21.8001 58.8001 21.8001ZM58.8001 28.6001C57.5001 28.6001 56.4001 27.5001 56.4001 26.0001C56.4001 24.5001 57.5001 23.4001 58.8001 23.4001C60.1001 23.4001 61.2001 24.4001 61.2001 26.0001C61.2001 27.5001 60.1001 28.6001 58.8001 28.6001ZM47.7001 23.1001V24.9001H52.0001C51.9001 25.9001 51.5001 26.7001 51.0001 27.2001C50.4001 27.8001 49.4001 28.5001 47.7001 28.5001C45.0001 28.5001 43.0001 26.4001 43.0001 23.7001C43.0001 21.0001 45.1001 18.9001 47.7001 18.9001C49.1001 18.9001 50.2001 19.5001 51.0001 20.2001L52.3001 18.9001C51.2001 17.9001 49.8001 17.1001 47.8001 17.1001C44.2001 17.1001 41.1001 20.1001 41.1001 23.7001C41.1001 27.3001 44.2001 30.3001 47.8001 30.3001C49.8001 30.3001 51.2001 29.7001 52.4001 28.4001C53.6001 27.2001 54.0001 25.5001 54.0001 24.2001C54.0001 23.8001 54.0001 23.4001 53.9001 23.1001H47.7001ZM93.1001 24.5001C92.7001 23.5001 91.7001 21.8001 89.5001 21.8001C87.3001 21.8001 85.5001 23.5001 85.5001 26.1001C85.5001 28.5001 87.3001 30.4001 89.7001 30.4001C91.6001 30.4001 92.8001 29.2001 93.2001 28.5001L91.8001 27.5001C91.3001 28.2001 90.7001 28.7001 89.7001 28.7001C88.7001 28.7001 88.1001 28.3001 87.6001 27.4001L93.3001 25.0001L93.1001 24.5001ZM87.3001 25.9001C87.3001 24.3001 88.6001 23.4001 89.5001 23.4001C90.2001 23.4001 90.9001 23.8001 91.1001 24.3001L87.3001 25.9001ZM82.6001 30.0001H84.5001V17.5001H82.6001V30.0001ZM79.6001 22.7001C79.1001 22.2001 78.3001 21.7001 77.3001 21.7001C75.2001 21.7001 73.2001 23.6001 73.2001 26.0001C73.2001 28.4001 75.1001 30.2001 77.3001 30.2001C78.3001 30.2001 79.1001 29.7001 79.5001 29.2001H79.6001V29.8001C79.6001 31.4001 78.7001 32.3001 77.3001 32.3001C76.2001 32.3001 75.4001 31.5001 75.2001 30.8001L73.6001 31.5001C74.1001 32.6001 75.3001 34.0001 77.4001 34.0001C79.6001 34.0001 81.4001 32.7001 81.4001 29.6001V22.0001H79.6001V22.7001ZM77.4001 28.6001C76.1001 28.6001 75.0001 27.5001 75.0001 26.0001C75.0001 24.5001 76.1001 23.4001 77.4001 23.4001C78.7001 23.4001 79.7001 24.5001 79.7001 26.0001C79.7001 27.5001 78.7001 28.6001 77.4001 28.6001ZM101.8 17.5001H97.3001V30.0001H99.2001V25.3001H101.8C103.9 25.3001 105.9 23.8001 105.9 21.4001C105.9 19.0001 103.9 17.5001 101.8 17.5001ZM101.9 23.5001H99.2001V19.2001H101.9C103.3 19.2001 104.1 20.4001 104.1 21.3001C104 22.4001 103.2 23.5001 101.9 23.5001ZM113.4 21.7001C112 21.7001 110.6 22.3001 110.1 23.6001L111.8 24.3001C112.2 23.6001 112.8 23.4001 113.5 23.4001C114.5 23.4001 115.4 24.0001 115.5 25.0001V25.1001C115.2 24.9001 114.4 24.6001 113.6 24.6001C111.8 24.6001 110 25.6001 110 27.4001C110 29.1001 111.5 30.2001 113.1 30.2001C114.4 30.2001 115 29.6001 115.5 29.0001H115.6V30.0001H117.4V25.2001C117.2 23.0001 115.5 21.7001 113.4 21.7001ZM113.2 28.6001C112.6 28.6001 111.7 28.3001 111.7 27.5001C111.7 26.5001 112.8 26.2001 113.7 26.2001C114.5 26.2001 114.9 26.4001 115.4 26.6001C115.2 27.8001 114.2 28.6001 113.2 28.6001ZM123.7 22.0001L121.6 27.4001H121.5L119.3 22.0001H117.3L120.6 29.6001L118.7 33.8001H120.6L125.7 22.0001H123.7ZM106.9 30.0001H108.8V17.5001H106.9V30.0001Z" fill="white"/>
<path d="M10.4 7.5C10.1 7.8 10 8.3 10 8.9V31C10 31.6 10.2 32.1 10.5 32.4L10.6 32.5L23 20.1V20V19.9L10.4 7.5Z" fill="url(#paint0_linear)"/>
<path d="M26.9999 24.2998L22.8999 20.1998V19.9998V19.8998L26.9999 15.7998L27.0999 15.8998L31.9999 18.6998C33.3999 19.4998 33.3999 20.7998 31.9999 21.5998L26.9999 24.2998Z" fill="url(#paint1_linear)"/>
<path d="M27.0999 24.2L22.8999 20L10.3999 32.5C10.8999 33 11.5999 33 12.4999 32.6L27.0999 24.2Z" fill="url(#paint2_linear)"/>
<path d="M27.0999 15.7996L12.4999 7.49962C11.5999 6.99962 10.8999 7.09962 10.3999 7.59962L22.8999 19.9996L27.0999 15.7996Z" fill="url(#paint3_linear)"/>
<path opacity="0.2" d="M26.9999 24.0996L12.4999 32.2996C11.6999 32.7996 10.9999 32.6996 10.4999 32.2996L10.3999 32.3996L10.4999 32.4996C10.9999 32.8996 11.6999 32.9996 12.4999 32.4996L26.9999 24.0996Z" fill="black"/>
<path opacity="0.12" d="M10.4 32.2994C10.1 31.9994 10 31.4994 10 30.8994V30.9994C10 31.5994 10.2 32.0994 10.5 32.3994V32.2994H10.4Z" fill="black"/>
<path opacity="0.12" d="M32 21.3L27 24.1L27.1 24.2L32 21.4C32.7 21 33 20.5 33 20C33 20.5 32.6 20.9 32 21.3Z" fill="black"/>
<path opacity="0.25" d="M12.5 7.59978L32 18.6998C32.6 19.0998 33 19.4998 33 19.9998C33 19.4998 32.7 18.9998 32 18.5998L12.5 7.49978C11.1 6.69978 10 7.29978 10 8.89978V8.99978C10 7.49978 11.1 6.79978 12.5 7.59978Z" fill="white"/>
<path d="M42.0999 14.3H41.3999V12.3H41.9999C42.4999 11.9 42.7999 11.1 42.7999 10V7H46.7999V12.3H47.4999V14.3H46.7999V13H42.1999V14.3H42.0999ZM43.4999 10C43.4999 10.9 43.2999 11.7 42.8999 12.3H45.8999V7.7H43.3999V10H43.4999Z" fill="white" stroke="white" stroke-width="0.2" stroke-miterlimit="10"/>
<path d="M53.4001 12.1999C52.8001 12.7999 52.1001 13.0999 51.2001 13.0999C50.3001 13.0999 49.6001 12.7999 49.0001 12.1999C48.4001 11.5999 48.1001 10.8999 48.1001 9.9999C48.1001 9.0999 48.4001 8.3999 49.0001 7.7999C49.6001 7.1999 50.3001 6.8999 51.2001 6.8999C52.1001 6.8999 52.8001 7.1999 53.4001 7.7999C54.0001 8.3999 54.3001 9.0999 54.3001 9.9999C54.3001 10.8999 54.0001 11.5999 53.4001 12.1999ZM49.6001 11.6999C50.0001 12.0999 50.6001 12.3999 51.2001 12.3999C51.8001 12.3999 52.4001 12.1999 52.8001 11.6999C53.2001 11.2999 53.5001 10.6999 53.5001 9.9999C53.5001 9.2999 53.3001 8.6999 52.8001 8.2999C52.4001 7.8999 51.8001 7.5999 51.2001 7.5999C50.6001 7.5999 50.0001 7.7999 49.6001 8.2999C49.2001 8.6999 48.9001 9.2999 48.9001 9.9999C48.9001 10.6999 49.1001 11.2999 49.6001 11.6999Z" fill="white" stroke="white" stroke-width="0.2" stroke-miterlimit="10"/>
<path d="M58.2001 13.0999C57.3001 13.0999 56.6001 12.7999 56.0001 12.1999C55.4001 11.5999 55.1001 10.8999 55.1001 9.9999C55.1001 9.0999 55.4001 8.3999 56.0001 7.7999C56.6001 7.1999 57.3001 6.8999 58.2001 6.8999C59.1001 6.8999 59.8001 7.1999 60.4001 7.8999L59.9001 8.3999C59.5001 7.8999 58.9001 7.5999 58.2001 7.5999C57.5001 7.5999 57.0001 7.7999 56.5001 8.2999C56.0001 8.6999 55.8001 9.2999 55.8001 9.9999C55.8001 10.6999 56.0001 11.2999 56.5001 11.6999C56.9001 12.0999 57.5001 12.3999 58.2001 12.3999C58.9001 12.3999 59.5001 12.0999 60.0001 11.4999L60.5001 11.9999C60.2001 12.2999 59.9001 12.5999 59.5001 12.7999C59.1001 12.9999 58.7001 13.0999 58.2001 13.0999Z" fill="white" stroke="white" stroke-width="0.2" stroke-miterlimit="10"/>
<path d="M63.6997 13H62.8997V7.7H61.1997V7H65.2997V7.7H63.5997V13H63.6997Z" fill="white" stroke="white" stroke-width="0.2" stroke-miterlimit="10"/>
<path d="M70.5998 7L68.2998 12.1C67.9998 12.8 67.4998 13.2 66.8998 13.2C66.6998 13.2 66.4998 13.2 66.2998 13.1L66.4998 12.4C66.5998 12.5 66.7998 12.5 66.8998 12.5C67.0998 12.5 67.1998 12.5 67.2998 12.4C67.3998 12.3 67.4998 12.2 67.5998 12L67.7998 11.5L65.7998 7.1H66.6998L68.1998 10.5L69.6998 7H70.5998Z" fill="white" stroke="white" stroke-width="0.2" stroke-miterlimit="10"/>
<path d="M71.5 13V7H75.8V13H75V7.7H72.2V13H71.5Z" fill="white" stroke="white" stroke-width="0.2" stroke-miterlimit="10"/>
<path d="M77.1997 13V7H77.9997V9.6H80.9997V7H81.7997V13H80.9997V10.3H77.9997V13H77.1997Z" fill="white" stroke="white" stroke-width="0.2" stroke-miterlimit="10"/>
<path d="M88.0998 12.1999C87.4998 12.7999 86.7998 13.0999 85.8998 13.0999C84.9998 13.0999 84.2998 12.7999 83.6998 12.1999C83.0998 11.5999 82.7998 10.8999 82.7998 9.9999C82.7998 9.0999 83.0998 8.3999 83.6998 7.7999C84.2998 7.1999 84.9998 6.8999 85.8998 6.8999C86.7998 6.8999 87.4998 7.1999 88.0998 7.7999C88.6998 8.3999 88.9998 9.0999 88.9998 9.9999C88.8998 10.8999 88.5998 11.5999 88.0998 12.1999ZM84.1998 11.6999C84.5998 12.0999 85.1998 12.3999 85.7998 12.3999C86.3998 12.3999 86.9998 12.1999 87.3998 11.6999C87.7998 11.2999 88.0998 10.6999 88.0998 9.9999C88.0998 9.2999 87.8998 8.6999 87.3998 8.2999C86.9998 7.8999 86.3998 7.5999 85.7998 7.5999C85.1998 7.5999 84.5998 7.7999 84.1998 8.2999C83.7998 8.6999 83.4998 9.2999 83.4998 9.9999C83.4998 10.6999 83.7998 11.2999 84.1998 11.6999Z" fill="white" stroke="white" stroke-width="0.2" stroke-miterlimit="10"/>
<path d="M92.1001 13V7H94.3001C94.8001 7 95.2001 7.2 95.5001 7.5C95.8001 7.8 96.0001 8.2 96.0001 8.6C96.0001 8.9 95.9001 9.1 95.8001 9.4C95.7001 9.6 95.5001 9.8 95.2001 9.9C95.5001 10 95.7001 10.2 95.9001 10.4C96.1001 10.6 96.2001 10.9 96.2001 11.3C96.2001 11.8 96.0001 12.2 95.7001 12.5C95.3001 12.8 94.9001 13 94.4001 13H92.1001ZM92.9001 9.6H94.3001C94.6001 9.6 94.8001 9.5 95.0001 9.3C95.2001 9.1 95.3001 8.9 95.3001 8.7C95.3001 8.5 95.1001 8.2 95.0001 8C94.8001 7.8 94.6001 7.7 94.3001 7.7H92.9001V9.6ZM92.9001 12.3H94.5001C94.8001 12.3 95.0001 12.2 95.2001 12C95.4001 11.8 95.5001 11.6 95.5001 11.3C95.5001 11.1 95.4001 10.8 95.2001 10.6C95.0001 10.4 94.8001 10.3 94.5001 10.3H93.0001V12.3H92.9001Z" fill="white" stroke="white" stroke-width="0.2" stroke-miterlimit="10"/>
<defs>
<linearGradient id="paint0_linear" x1="21.7996" y1="8.7098" x2="5.0172" y2="25.4922" gradientUnits="userSpaceOnUse">
<stop stop-color="#00A0FF"/>
<stop offset="0.00657445" stop-color="#00A1FF"/>
<stop offset="0.2601" stop-color="#00BEFF"/>
<stop offset="0.5122" stop-color="#00D2FF"/>
<stop offset="0.7604" stop-color="#00DFFF"/>
<stop offset="1" stop-color="#00E3FF"/>
</linearGradient>
<linearGradient id="paint1_linear" x1="33.8342" y1="20.0013" x2="9.6373" y2="20.0013" gradientUnits="userSpaceOnUse">
<stop stop-color="#FFE000"/>
<stop offset="0.4087" stop-color="#FFBD00"/>
<stop offset="0.7754" stop-color="#FFA500"/>
<stop offset="1" stop-color="#FF9C00"/>
</linearGradient>
<linearGradient id="paint2_linear" x1="24.8268" y1="22.2962" x2="2.06851" y2="45.0545" gradientUnits="userSpaceOnUse">
<stop stop-color="#FF3A44"/>
<stop offset="1" stop-color="#C31162"/>
</linearGradient>
<linearGradient id="paint3_linear" x1="7.2971" y1="0.175923" x2="17.4597" y2="10.3384" gradientUnits="userSpaceOnUse">
<stop stop-color="#32A071"/>
<stop offset="0.0685" stop-color="#2DA771"/>
<stop offset="0.4762" stop-color="#15CF74"/>
<stop offset="0.8009" stop-color="#06E775"/>
<stop offset="1" stop-color="#00F076"/>
</linearGradient>
</defs>
</svg>
