<svg width="300" height="100" viewBox="0 0 300 100" fill="none" xmlns="http://www.w3.org/2000/svg">
<path d="M44.8329 28.8018C33.1284 28.8018 23.6348 38.2955 23.6348 50C23.6348 61.7045 33.1284 71.1981 44.8329 71.1981C56.5374 71.1981 66.0311 61.7045 66.0311 50C66.0311 38.2955 56.5374 28.8018 44.8329 28.8018ZM19.95 50C19.95 36.258 31.091 25.0737 44.8763 25.0737C58.6182 25.0737 69.8025 36.2147 69.8025 50C69.8025 63.7419 58.6616 74.9262 44.8763 74.9262C31.091 74.9262 19.95 63.7853 19.95 50ZM28.49 42.8472C31.2644 36.5615 37.5501 32.1398 44.8763 32.1398C48.6911 32.1398 52.2458 33.3536 55.1502 35.391C59.7453 38.5989 62.7365 43.9743 62.7365 50C62.7365 53.1645 61.9128 56.1123 60.4823 58.67C55.6704 59.1035 51.032 57.2828 48.6911 54.6818C54.8468 50.5202 56.4941 42.8906 55.3236 35.5211C47.9975 37.4718 41.4516 42.2403 40.3679 50.13C37.6802 46.1852 33.4319 43.4541 28.49 42.8472ZM52.3325 40.0728C52.7226 46.2719 49.1679 51.1271 43.7492 53.7714C46.9137 58.8867 51.9423 61.7912 58.0113 62.0513C54.7601 65.606 50.0349 67.8602 44.8329 67.8602C44.3127 67.8602 43.8359 67.8168 43.359 67.8168V53.5547C43.359 47.7458 46.5669 42.2403 52.3325 40.0728ZM39.9344 67.1666C32.4782 65.0424 26.9727 58.1498 26.9727 50C26.9727 48.6561 27.1028 47.3556 27.4062 46.0985H27.4929C34.4723 46.7487 39.9344 52.4276 39.9344 59.8404V67.1666Z" fill="#86993D"/>
<path fill-rule="evenodd" clip-rule="evenodd" d="M205.661 50.3901C205.661 45.2314 209.78 41.1566 215.068 41.1566C219.143 41.1566 222.525 43.5408 223.825 47.0088L223.998 47.4423H220.054C218.97 45.5783 217.149 44.4078 215.068 44.4078C211.904 44.4078 209.303 47.0522 209.303 50.3034C209.303 53.5547 211.904 56.2423 215.068 56.2423C217.149 56.2423 218.97 55.0719 220.054 53.2078H223.998L223.825 53.6413C222.481 57.1093 219.1 59.4936 215.068 59.4936C209.78 59.5369 205.661 55.5921 205.661 50.3901ZM91.3475 59.1468V52.3842L84.7149 41.5901H88.8765L93.2115 49.1763L97.5032 41.5901H101.535L94.9455 52.4276V59.1468H91.3475ZM106.347 41.5901L110.682 54.5951L115.06 41.5901H118.875L112.589 59.1468H108.774L102.488 41.5901H106.347ZM142.674 46.2285C142.674 47.3123 142.891 47.6157 146.749 48.5261C149.003 49.0463 150.087 49.4364 151.04 50.0433C152.428 50.997 153.121 52.2975 153.121 53.9448C153.121 57.4995 150.347 59.5803 146.012 59.5803C141.633 59.5803 138.902 57.4562 138.642 53.7281H142.197C142.5 55.6355 143.801 56.5892 146.272 56.5892C148.483 56.5892 149.61 55.6355 149.61 54.2049C149.61 53.4246 149.306 52.9478 148.353 52.4709C148.006 52.3409 147.442 52.1241 146.879 51.9941L146.229 51.864L145.882 51.7773C143.584 51.2138 141.85 50.6069 141.07 50.0867C139.856 49.3064 139.249 48.0492 139.249 46.4886C139.249 43.2373 141.894 41.1999 145.838 41.1999C149.697 41.1999 152.124 43.064 152.471 46.4019H148.96C148.569 44.8413 147.572 44.1477 145.665 44.1477C143.671 44.1477 142.674 44.9714 142.674 46.2285ZM238.304 52.1675H231.151V59.1468H227.553V41.5901H231.151V49.0029H238.304V41.5901H241.902V59.1468H238.304V52.1675ZM251.049 49.133H257.638V52.1675H251.049V56.0256H260.326V59.1902H247.494V41.6334H260.326V44.798H251.049V49.133ZM202.497 50.3468C202.497 55.5054 198.335 59.537 193.133 59.537C187.801 59.537 183.726 55.5487 183.726 50.3901C183.726 45.2314 187.888 41.1566 193.133 41.1566C198.379 41.1999 202.497 45.2315 202.497 50.3468ZM187.324 50.3468C187.324 53.6414 189.925 56.2857 193.09 56.2857C196.254 56.2857 198.812 53.6414 198.812 50.3468C198.812 47.0955 196.254 44.4512 193.09 44.4512C189.925 44.4512 187.324 47.0955 187.324 50.3468ZM169.421 44.6679V49.3497H174.753C176.053 49.3497 177.094 48.3093 177.094 47.0088C177.094 45.7083 176.053 44.6679 174.753 44.6679H169.421V44.6679ZM181.082 59.1468H180.605H177.094L173.626 52.1675H169.464V59.1468H165.866V41.5901H175.403C178.308 41.5901 180.692 43.9743 180.692 46.8788C180.692 49.133 179.261 51.0837 177.267 51.8207L181.082 59.1468ZM126.027 49.133H132.617V52.1675H126.027V56.0256H135.304V59.1902H122.473V41.6334H135.304V44.798H126.027V49.133ZM268.389 44.6679V49.3497H273.721C275.021 49.3497 276.062 48.3093 276.062 47.0088C276.062 45.7083 275.021 44.6679 273.721 44.6679H268.389V44.6679ZM280.05 59.1468H279.573H276.062L272.594 52.1675H268.432V59.1468H264.834V41.5901H274.415C277.319 41.5901 279.703 43.9743 279.703 46.8788C279.703 49.133 278.273 51.0837 276.279 51.8207L280.05 59.1468Z" fill="#86993D"/>
</svg>
