<svg width="300" height="101" viewBox="0 0 300 101" fill="none" xmlns="http://www.w3.org/2000/svg">
<g clip-path="url(#clip0)">
<path d="M249.631 43.5912C249.136 43.5912 248.712 44.0276 248.712 44.5182V53.3003H237.667V44.5182C237.667 44.0276 237.231 43.5912 236.74 43.5912H233.715C233.228 43.5912 232.848 44.0276 232.848 44.5182V67.0788C232.848 67.5805 233.228 68.0123 233.715 68.0123H236.74C237.231 68.0123 237.667 67.5805 237.667 67.0788V57.7014H248.712V67.0788C248.712 67.5805 249.135 68.0123 249.631 68.0123H252.665C253.083 68.0123 253.515 67.5805 253.515 67.0788V44.5182C253.515 44.0276 253.083 43.5912 252.665 43.5912H249.631ZM226.196 33.517C226.75 33.517 227.178 33.9502 227.178 34.4343V37.2278C227.178 37.722 226.75 38.157 226.196 38.157H207.385C206.89 38.157 206.466 37.722 206.466 37.2278V34.4343C206.466 33.9502 206.89 33.517 207.385 33.517H226.196ZM104.296 33.517C103.816 33.517 103.377 33.9502 103.377 34.4343V57.7007C103.377 63.9368 105.348 68.0779 113.123 68.0779H114.048C125.145 68.0779 126.815 60.7237 126.815 56.9498C126.815 53.6065 125.581 45.6886 114.544 45.6886H108.371V38.157H122.618C123.115 38.157 123.549 37.722 123.549 37.2278V34.4343C123.549 33.9502 123.115 33.517 122.618 33.517H104.296ZM114.721 50.2698C119.231 50.2698 121.756 52.7355 121.756 56.9498C121.756 61.1537 119.231 63.4469 114.721 63.4469H113.122C109.736 63.4469 108.37 62.0229 108.37 58.1837V50.2698H114.721ZM184.699 44.0276C184.388 44.1549 184.141 44.5182 184.141 44.8273V47.6179C184.141 47.8571 184.325 48.1759 184.502 48.2917C184.762 48.419 185.006 48.4753 185.247 48.419C186.911 47.8571 188.83 47.3013 191.967 47.3013C195.851 47.3013 196.54 48.4753 196.54 51.2513V51.758L191.173 52.1313C182.53 52.7355 182.102 58.3695 182.102 60.1012C182.102 65.2299 184.818 68.3784 191.298 68.3784C193.332 68.3784 195.613 67.768 197.582 66.5241L198.018 67.4561C198.136 67.768 198.447 68.0123 198.812 68.0123H200.612C201.046 68.0123 201.471 67.64 201.471 67.152V51.318C201.471 45.5129 198.388 42.7259 191.967 42.7259C189.256 42.7252 186.609 43.2269 184.699 44.0276ZM187.221 60.1012C187.221 58.3695 187.536 56.5707 191.102 56.2684L196.469 55.7696L196.54 62.2535C194.814 63.3085 193.45 63.8675 191.355 63.8675C189.309 63.8675 187.221 63.0679 187.221 60.1012ZM147.402 67.4561C147.518 67.768 147.823 68.0123 148.188 68.0123H150.358C150.788 68.0123 151.214 67.64 151.214 67.152V44.5182C151.214 44.0276 150.846 43.5912 150.289 43.5912H147.33C146.778 43.5912 146.403 44.0276 146.403 44.5182V60.4114C144.803 62.1427 141.907 63.6158 139.743 63.6158C136.724 63.6158 135.241 61.9541 135.241 57.7007V44.5182C135.241 44.0276 134.803 43.5912 134.312 43.5912H131.359C130.862 43.5912 130.426 44.0276 130.426 44.5182V59.2395C130.426 64.617 133.33 68.3784 138.945 68.3784C142.401 68.3784 145.423 66.5241 146.901 65.2299L147.402 67.4561ZM223.419 67.4561C223.538 67.768 223.853 68.0123 224.227 68.0123H226.382C226.818 68.0123 227.237 67.64 227.237 67.134V44.5182C227.237 44.0276 226.875 43.5912 226.322 43.5912H223.364C222.801 43.5912 222.437 44.0276 222.437 44.5182V60.4114C220.837 62.1427 217.932 63.6158 215.766 63.6158C212.754 63.6158 211.269 61.9541 211.269 57.7007V44.5182C211.269 44.0276 210.835 43.5912 210.352 43.5912H207.385C206.889 43.5912 206.466 44.0276 206.466 44.5182V59.2395C206.466 64.617 209.363 68.3784 214.97 68.3784C218.418 68.3784 221.458 66.5241 222.93 65.2299L223.419 67.4561ZM158.854 59.4216C158.541 62.6899 157.689 63.5025 154.909 63.8112C154.468 63.8675 154.047 64.3004 154.047 64.7927V67.2689C154.047 67.768 154.468 68.198 154.909 68.198C160.331 68.198 163.048 65.6064 163.61 59.1821L164.161 53.4208C164.53 49.4091 165.331 48.1763 168.965 48.1763H172.968V67.0788C172.968 67.5805 173.41 68.0123 173.903 68.0123H176.859C177.289 68.0123 177.784 67.5805 177.784 67.0788V44.5182C177.784 44.0276 177.289 43.5912 176.859 43.5912H168.716C161.996 43.5912 160.032 47.487 159.471 52.9919L158.854 59.4216Z" fill="#1D1D1B"/>
<path d="M262.501 42.3253C264.705 42.3253 266.653 43.0196 266.653 46.4242C266.653 49.7964 264.705 50.5219 262.501 50.5219C260.299 50.5219 258.347 49.7957 258.347 46.4242C258.348 43.02 260.3 42.3253 262.501 42.3253ZM262.501 43.02C260.52 43.02 259.104 43.4908 259.104 46.4249C259.104 49.3564 260.52 49.8269 262.501 49.8269C264.484 49.8269 265.898 49.3564 265.898 46.4249C265.898 43.4901 264.484 43.02 262.501 43.02ZM261.588 48.5521V46.8663H262.785L263.663 48.5675C263.7 48.6371 263.79 48.6919 263.87 48.6919H264.404C264.482 48.6919 264.514 48.6396 264.478 48.5704L263.479 46.7695C264.011 46.5809 264.199 46.1409 264.199 45.5402C264.199 44.69 263.855 44.1513 262.689 44.1513H261.009C260.929 44.1513 260.864 44.218 260.864 44.2941V48.5521C260.864 48.6295 260.929 48.6919 261.009 48.6919H261.45C261.528 48.6919 261.588 48.6303 261.588 48.5521ZM261.588 44.8474H262.785C263.414 44.8474 263.507 45.163 263.507 45.5402C263.507 45.8228 263.414 46.1409 262.785 46.1409H261.588V44.8474Z" fill="#1D1D1B"/>
<mask id="mask0" mask-type="alpha" maskUnits="userSpaceOnUse" x="33" y="23" width="55" height="55">
<path d="M87.2103 50.5004C87.2103 35.5485 75.1171 23.4257 60.1987 23.4257C45.2818 23.4257 33.1901 35.5478 33.1901 50.5004C33.1901 65.4533 45.2818 77.5743 60.1987 77.5743C75.1171 77.5743 87.2103 65.4533 87.2103 50.5004Z" fill="url(#paint0_radial)"/>
</mask>
<g mask="url(#mask0)">
<path d="M87.2103 50.5004C87.2103 35.5485 75.1171 23.4257 60.1987 23.4257C45.2818 23.4257 33.1901 35.5478 33.1901 50.5004C33.1901 65.4533 45.2818 77.5743 60.1987 77.5743C75.1171 77.5743 87.2103 65.4533 87.2103 50.5004Z" fill="white"/>
<path d="M87.4196 68.4605H32.9891V56.7841H87.4196V68.4605ZM87.4196 33.4335H32.9891V45.1095H87.4196V33.4335Z" fill="url(#paint1_linear)"/>
<path d="M87.4196 33.4349H32.9891V23.6502H87.4196V33.4349ZM87.4196 68.4591H32.9899V78.1947H87.4196V68.4591ZM87.4196 45.1084H32.9899V56.7841H87.4196V45.1084Z" fill="#1D1D1B"/>
</g>
</g>
<defs>
<radialGradient id="paint0_radial" cx="0" cy="0" r="1" gradientUnits="userSpaceOnUse" gradientTransform="translate(60.1998 50.5) scale(27.0106 27.0738)">
<stop offset="0.2" stop-color="#77787B"/>
<stop offset="0.3196" stop-color="#717275"/>
<stop offset="0.4761" stop-color="#626265"/>
<stop offset="0.6531" stop-color="#47484A"/>
<stop offset="0.8437" stop-color="#232324"/>
<stop offset="1"/>
</radialGradient>
<linearGradient id="paint1_linear" x1="32.9891" y1="50.9468" x2="87.4199" y2="50.9468" gradientUnits="userSpaceOnUse">
<stop offset="0.1" stop-color="#F7A700"/>
<stop offset="0.8864" stop-color="#FEDA00"/>
</linearGradient>
<clipPath id="clip0">
<rect width="300" height="100" fill="white" transform="translate(0 0.5)"/>
</clipPath>
</defs>
</svg>
