<svg width="300" height="100" viewBox="0 0 300 100" fill="none" xmlns="http://www.w3.org/2000/svg">
<g clip-path="url(#clip0)">
<path d="M135.324 31.3224C135.324 26.6385 134.529 22.1336 133.166 17.8985L133.192 17.8361C134.291 17.3056 136.526 16.1607 138.775 14.9575C141.213 13.6531 143.889 12.4183 145.25 12.1474C147.017 11.7957 148.664 12.3283 149.653 13.8361C150.64 12.3273 152.286 11.7957 154.054 12.1474C155.415 12.4183 158.091 13.6521 160.529 14.9575C162.779 16.1607 165.014 17.3045 166.108 17.83L166.136 17.8923C164.775 22.1315 163.98 26.6385 163.98 31.3224C163.98 35.8059 164.841 40.0962 166.096 44.1739L166.064 44.2373C158.568 46.9994 154.006 50.4668 149.697 54.934H149.622C145.305 50.4668 140.789 47.0157 133.243 44.2434L133.212 44.1801C134.464 40.0962 135.324 35.8059 135.324 31.3224Z" fill="white"/>
<path d="M135.324 31.3224C135.324 26.6385 134.529 22.1336 133.166 17.8985L133.192 17.8361C134.291 17.3056 136.526 16.1607 138.775 14.9575C141.213 13.6531 143.889 12.4183 145.25 12.1474C147.017 11.7957 148.664 12.3283 149.653 13.8361C150.64 12.3273 152.286 11.7957 154.054 12.1474C155.415 12.4183 158.091 13.6521 160.529 14.9575C162.779 16.1607 165.014 17.3045 166.108 17.83L166.136 17.8923C164.775 22.1315 163.98 26.6385 163.98 31.3224C163.98 35.8059 164.841 40.0962 166.096 44.1739L166.064 44.2373C158.568 46.9994 154.006 50.4668 149.697 54.934H149.622C145.305 50.4668 140.789 47.0157 133.243 44.2434L133.212 44.1801C134.464 40.0962 135.324 35.8059 135.324 31.3224Z" stroke="#900027" stroke-width="2.09717" stroke-miterlimit="3.864"/>
<path d="M158.344 17.1584C156.454 16.223 154.501 15.3306 153.45 15.1221C151.455 14.7244 149.933 16.3058 149.692 17.2626L149.641 17.4609L149.591 17.2626C149.348 16.3058 147.862 14.7244 145.867 15.1221C144.815 15.3316 142.864 16.223 140.974 17.1594C139.117 18.0784 137.329 19.0352 136.532 19.4165C137.612 22.9452 138.191 26.6293 138.211 30.5363H140.886V28.5287H146.949V22.4975H152.248V28.5287H158.31V30.5353H161.109C161.128 26.6293 161.706 22.9442 162.787 19.4154C161.987 19.0352 160.2 18.0784 158.344 17.1584Z" fill="#900027"/>
<path d="M149.642 50.9851C153.281 47.5677 157.808 44.2526 162.732 42.5557C162.24 40.8639 161.745 38.5159 161.458 36.1913C161.194 34.0599 161.128 32.1013 161.102 31.7947H158.31V33.8013H152.248V39.8325H146.949V33.8013H140.886V31.7947H138.199C138.109 35.394 137.5 39.3612 136.566 42.5567C141.489 44.2526 146.003 47.5677 149.642 50.9851Z" fill="#900027"/>
<path d="M70.4118 81.6796L74.522 70.5945C74.7696 69.8554 74.4223 69.3136 73.0855 69.1163V68.1319H79.2261V69.1163C78.1369 69.1654 77.246 69.3627 76.7508 70.6926L70.6594 86.5577H69.3215L62.5366 70.5945C61.9427 69.2145 60.9028 69.1654 60.4075 69.1654V68.1319H67.4894V69.1163C66.3509 69.3136 66.0529 69.9535 66.2019 70.3972L70.4118 81.6796ZM87.2986 83.6995C87.2986 84.2914 87.5966 84.5868 88.1905 84.8332C88.5368 84.9804 89.0321 85.1296 89.3794 85.1776V86.114H82.0992V85.1776C82.3468 85.1296 83.1391 84.9313 83.3867 84.7841C83.8327 84.5377 84.1789 84.2914 84.1789 83.6504V70.5454C84.1789 69.56 82.9407 69.1654 82.0992 69.0673V68.1319H89.3794V69.0673C88.3888 69.2646 87.2986 69.4608 87.2986 70.5945V83.6995ZM106.366 68.1319L106.465 73.1562H105.524C105.277 72.1708 105.029 71.3336 104.583 70.7427C103.939 69.9045 102.998 69.5109 101.611 69.5109C97.0059 69.5109 96.5599 74.0926 96.5599 77.0478C96.5599 80.0532 97.1045 84.734 101.958 84.6359C103.444 84.5868 105.672 83.7486 107.158 81.8278L107.307 81.6305L108.297 82.3696L108.247 82.4677C106.564 85.425 103.345 86.5086 101.314 86.5086C95.5694 86.5086 92.647 81.4332 92.647 77.1961C92.647 73.7481 94.7771 67.7864 100.275 67.7864C102.404 67.7864 103.988 68.2791 105.326 68.9681L105.524 68.1319H106.366ZM118.549 70.0527V83.5533C118.549 84.1922 118.995 84.6849 119.688 84.9313C120.034 85.0795 120.43 85.1296 120.876 85.1776V86.114H113.299V85.1776C113.745 85.1296 114.091 85.0795 114.637 84.8822C115.181 84.6849 115.626 84.1922 115.626 83.5022L115.577 70.0527H113.2C111.764 70.0527 111.318 70.6446 111.07 71.2845C110.873 71.8263 110.822 72.3681 110.822 72.9098L109.782 72.8618V68.1319H124.392V72.9098H123.303C123.254 72.1708 123.154 71.5309 122.906 71.0381C122.56 70.3492 122.016 70.0527 121.322 70.0527H118.549ZM143.806 77.2942C143.707 82.0241 140.536 86.5577 135.387 86.5577C130.136 86.5577 126.77 82.4186 126.67 77.1961C126.573 72.319 129.939 67.7363 135.338 67.7363C140.586 67.7363 143.904 72.4171 143.806 77.2942ZM130.484 76.9988C130.386 80.6941 131.624 84.6849 135.287 84.6849C139.101 84.6849 140.042 80.596 139.942 76.9006C139.845 73.3044 139.25 69.56 135.287 69.56C131.177 69.56 130.534 73.3535 130.484 76.9988ZM164.359 86.114H159.951L156.038 79.3642H152.917V83.6504C152.917 84.3405 153.413 84.9804 155.147 85.1776L155.197 86.114H147.569V85.1296C148.065 85.1296 148.511 85.0305 148.956 84.8332C149.401 84.6359 149.848 84.1432 149.848 83.6014V70.8408C149.848 69.6581 148.61 69.2145 147.371 69.0673V68.1319H156.038C159.059 68.1319 162.724 70.1508 162.724 73.5998C162.724 75.3744 161.932 77.9351 159.009 78.8715L161.981 83.7486C162.476 84.5377 163.121 85.0795 164.309 85.1776L164.359 86.114ZM154.85 69.9535C154.702 69.9535 154.008 70.0036 152.969 70.1018V77.7378H156.038C158.316 77.5906 159.257 76.4079 159.257 73.699C159.257 70.3492 157.227 69.9535 154.85 69.9535ZM173.273 83.6995C173.273 84.2914 173.57 84.5868 174.164 84.8332C174.511 84.9804 175.005 85.1296 175.353 85.1776V86.114H168.071V85.1776C168.321 85.1296 169.112 84.9313 169.36 84.7841C169.806 84.5377 170.152 84.2914 170.152 83.6504V70.5454C170.152 69.56 168.915 69.1654 168.071 69.0673V68.1319H175.353V69.0673C174.361 69.2646 173.273 69.4608 173.273 70.5945V83.6995ZM196.351 86.114H195.657L184.217 72.8618V83.6504C184.217 84.0941 184.514 84.4877 185.011 84.8332C185.505 85.1296 185.902 85.1296 186.348 85.1776V86.114H180.255V85.1776C180.552 85.1296 180.949 85.0795 181.295 84.9313C181.89 84.734 182.336 84.2914 182.336 83.6504V70.7918C181.89 69.9045 180.9 69.0673 179.76 69.0673V68.1319H184.464L194.419 79.906V70.5945C194.419 69.609 193.231 69.0673 192.34 69.0673V68.1319H198.48V69.0673C197.441 69.1654 196.351 69.4608 196.351 70.5454V86.114ZM218.884 77.2451C218.784 81.975 215.616 86.5086 210.416 86.5086C205.215 86.5086 201.799 82.3696 201.699 77.147C201.651 72.2699 205.017 67.6873 210.367 67.6873C215.667 67.6873 218.984 72.3681 218.884 77.2451ZM205.512 76.9507C205.463 80.6451 206.651 84.6359 210.367 84.6359C214.132 84.6359 215.12 80.5459 215.022 76.8505C214.923 73.2554 214.28 69.5109 210.367 69.5109C206.256 69.4608 205.562 73.3044 205.512 76.9507ZM231.413 76.3098L236.07 83.2559C236.515 83.9459 237.06 84.3895 237.556 84.6849C237.803 84.8332 238.448 85.1776 238.893 85.1776V86.114H231.166V85.1776C231.217 85.1776 231.908 85.0795 232.355 84.8822C232.8 84.6849 232.949 84.1432 232.553 83.6504L229.433 78.9696L225.867 83.7486C225.223 84.4877 225.769 85.0795 226.661 85.1776V86.114H220.914V85.1296C222.251 84.9313 222.747 84.3895 223.341 83.6014L228.195 77.0969L223.887 70.7427C223.194 69.7082 222.102 69.0673 221.063 69.0673V68.1319H228.939V69.0673C228.048 69.1654 226.759 69.4608 227.403 70.4963L230.126 74.5362L233.197 70.4963C233.841 69.7082 233.346 69.1163 232.355 69.0673V68.1319H238.151V69.0673C237.209 69.1163 236.713 69.5109 236.168 70.0527L231.413 76.3098Z" fill="#231F20"/>
</g>
<defs>
<clipPath id="clip0">
<rect width="182" height="78" fill="white" transform="translate(59 11)"/>
</clipPath>
</defs>
</svg>
