<svg width="300" height="100" viewBox="0 0 300 100" fill="none" xmlns="http://www.w3.org/2000/svg">
<g clip-path="url(#clip0)">
<path d="M78.4904 37.015L63.4196 21.9817C62.7869 21.3523 61.9309 20.9991 61.0387 20.9991C60.1464 20.9991 59.2905 21.3523 58.6578 21.9817L46.0175 34.5889L24.9805 55.5726C24.3526 56.2037 24.0001 57.0578 24.0001 57.9481C24.0001 58.8385 24.3526 59.6926 24.9805 60.3236L40.0513 75.3623C40.6854 75.9917 41.5425 76.3448 42.4358 76.3448C43.3291 76.3448 44.1861 75.9917 44.8203 75.3623L63.676 56.5481L78.4904 41.7641C78.8023 41.4524 79.0498 41.0822 79.2186 40.6748C79.3874 40.2673 79.4743 39.8306 79.4743 39.3895C79.4743 38.9485 79.3874 38.5117 79.2186 38.1043C79.0498 37.6968 78.8023 37.3267 78.4904 37.015V37.015Z" fill="white"/>
<path d="M77.4233 38.0619L62.3524 23.0503C62.1797 22.8774 61.9746 22.7403 61.7489 22.6467C61.5232 22.5532 61.2813 22.505 61.0369 22.505C60.7926 22.505 60.5507 22.5532 60.325 22.6467C60.0993 22.7403 59.8942 22.8774 59.7215 23.0503L43.4317 39.3084L61.1697 56.9664L77.4233 40.7084C77.688 40.4482 77.8687 40.1147 77.9421 39.7509C78.0154 39.387 77.9782 39.0095 77.835 38.6671C77.7393 38.44 77.5993 38.2343 77.4233 38.0619V38.0619ZM64.1744 42.4606C63.5637 43.0712 62.7857 43.487 61.9388 43.6555C61.0919 43.824 60.2141 43.7376 59.4163 43.4072C58.3473 42.966 57.4966 42.119 57.0507 41.0516C56.7199 40.2558 56.633 39.3795 56.8012 38.5342C56.9694 37.6889 57.3849 36.9127 57.9952 36.3042C58.8204 35.4955 59.9296 35.0426 61.0848 35.0426C62.24 35.0426 63.3492 35.4955 64.1744 36.3042C64.5793 36.708 64.9006 37.1878 65.1198 37.716C65.339 38.2442 65.4518 38.8105 65.4518 39.3824C65.4518 39.9544 65.339 40.5207 65.1198 41.0489C64.9006 41.5771 64.5793 42.0568 64.1744 42.4606Z" fill="#E31836"/>
<path d="M26.0459 56.6358C25.8734 56.8079 25.7365 57.0123 25.6431 57.2373C25.5497 57.4624 25.5016 57.7037 25.5016 57.9473C25.5016 58.191 25.5497 58.4323 25.6431 58.6573C25.7365 58.8824 25.8734 59.0868 26.0459 59.2588L41.1168 74.2993C41.3787 74.557 41.7102 74.7324 42.0705 74.804C42.4308 74.8756 42.8042 74.8402 43.1446 74.7022C43.3701 74.6088 43.5751 74.4719 43.7477 74.2993L60.0393 58.0503L42.3375 40.394L26.0459 56.634V56.6358ZM39.125 60.9677C38.2998 61.7764 37.1906 62.2294 36.0354 62.2294C34.8801 62.2294 33.7709 61.7764 32.9457 60.9677C32.1709 60.1422 31.7481 59.0473 31.767 57.9151C31.7859 56.7829 32.245 55.7026 33.0468 54.9035C33.8496 54.1023 34.9318 53.644 36.0655 53.6252C37.1993 53.6063 38.2961 54.0283 39.125 54.8023C39.9346 55.624 40.3884 56.7313 40.3884 57.885C40.3884 59.0387 39.9346 60.1461 39.125 60.9677ZM45.7395 54.9866C46.1435 54.575 46.625 54.2476 47.1563 54.0234C47.6875 53.7993 48.258 53.6827 48.8346 53.6805C49.7019 53.6771 50.5508 53.9316 51.2732 54.4118C51.9957 54.8921 52.5592 55.5763 52.8921 56.3775C53.2227 57.1792 53.3058 58.0615 53.1307 58.9108C52.9556 59.7601 52.5304 60.5375 51.9098 61.1429C51.3012 61.7634 50.5214 62.188 49.6702 62.3625C48.819 62.5369 47.9351 62.4532 47.1317 62.122C46.599 61.9033 46.1147 61.5813 45.7069 61.1745C45.299 60.7677 44.9756 60.2843 44.7554 59.752C44.4248 58.9503 44.3417 58.068 44.5167 57.2187C44.6918 56.3694 45.1171 55.592 45.7377 54.9866H45.7395Z" fill="#0078AE"/>
<path d="M52.103 76.2106V73.3853H51.1044V72.7277H53.878V73.3835H52.8794V76.2088H52.103V76.2106ZM57.3595 76.2106V73.7032L56.3627 76.2088H56.0323L55.0355 73.7032V76.2088H54.297V72.7277H55.2955L56.1442 74.9063L56.9803 72.7277H57.9771V76.2088H57.3595V76.2106ZM98.1678 45.5569H85.1844C85.082 45.5559 84.9804 45.5753 84.8856 45.614C84.7907 45.6526 84.7045 45.7098 84.6319 45.782C84.5594 45.8543 84.5019 45.9403 84.4628 46.035C84.4237 46.1297 84.4038 46.2312 84.4043 46.3337V75.4988C84.4141 75.6978 84.5007 75.8853 84.6459 76.0218C84.791 76.1582 84.9834 76.233 85.1826 76.2304H98.2111C108.448 76.2304 115.061 70.1969 115.061 60.8395C115.061 51.4784 108.448 45.5045 98.1588 45.5045L98.1678 45.5569V45.5569ZM98.1606 68.1177H93.7509V53.6606H98.2346C102.857 53.6606 105.582 56.3595 105.582 60.8882C105.607 61.8625 105.43 62.8313 105.064 63.7343C104.697 64.6372 104.148 65.4548 103.451 66.136C102.754 66.8192 101.924 67.3519 101.013 67.7012C100.102 68.0504 99.1283 68.2088 98.1533 68.1664L98.1606 68.1177ZM172.621 53.48C171.105 53.4714 169.608 53.8214 168.253 54.5013C166.898 55.1813 165.723 56.172 164.824 57.3928C163.868 54.7987 161.709 53.48 158.41 53.48C154.735 53.48 151.987 55.3189 151.024 56.5582V54.8059C151.024 54.7038 151.004 54.6026 150.965 54.5082C150.926 54.4139 150.868 54.3282 150.796 54.256C150.724 54.1839 150.638 54.1267 150.543 54.0878C150.449 54.0488 150.348 54.0289 150.246 54.0291H143.469C143.27 54.0389 143.082 54.1252 142.945 54.2699C142.808 54.4146 142.733 54.6066 142.734 54.8059V75.497C142.745 75.6957 142.832 75.8826 142.977 76.0191C143.121 76.1555 143.313 76.2312 143.512 76.2304H150.266C150.464 76.2286 150.654 76.1521 150.798 76.0162C150.943 75.8802 151.03 75.6948 151.044 75.497V62.5448C151.434 62.0161 151.941 61.5841 152.524 61.2819C153.108 60.9797 153.753 60.8154 154.41 60.8015C156.048 60.8015 156.952 61.6867 156.952 63.2944V75.497C156.963 75.6945 157.049 75.8803 157.193 76.0166C157.336 76.1529 157.526 76.2294 157.723 76.2304H164.488C164.686 76.2286 164.876 76.1521 165.02 76.0162C165.165 75.8802 165.252 75.6948 165.266 75.497V62.5448C165.661 62.0091 166.174 61.5721 166.766 61.2681C167.358 60.9641 168.012 60.8013 168.677 60.7925C169.188 60.735 169.704 60.8508 170.142 61.1214C170.58 61.3919 170.914 61.8015 171.091 62.2846C171.209 62.6044 171.252 62.9476 171.218 63.2854V75.497C171.229 75.6948 171.315 75.8809 171.459 76.0172C171.602 76.1535 171.793 76.2298 171.991 76.2304H178.744C178.943 76.2299 179.133 76.1537 179.278 76.0175C179.422 75.8812 179.509 75.6951 179.521 75.497V60.1566C179.521 55.8464 177.083 53.48 172.644 53.48H172.621ZM190.418 54.0291H183.658C183.452 54.031 183.255 54.1133 183.109 54.2585C182.964 54.4037 182.88 54.6002 182.878 54.8059V75.497C182.89 75.6956 182.978 75.882 183.122 76.0182C183.267 76.1545 183.459 76.2304 183.658 76.2304H190.417C190.614 76.229 190.804 76.1524 190.948 76.0162C191.091 75.8801 191.178 75.6945 191.189 75.497V54.8059C191.189 54.6005 191.108 54.4035 190.963 54.2579C190.818 54.1124 190.622 54.0301 190.417 54.0291H190.418ZM192.661 42.6214C191.741 42.6221 190.842 42.8948 190.076 43.4052C189.311 43.9155 188.713 44.6409 188.358 45.49C188.005 46.339 187.913 47.2738 188.093 48.1754C188.273 49.077 188.716 49.9048 189.367 50.5535C190.019 51.2028 190.848 51.6448 191.75 51.8238C192.652 52.0028 193.587 51.9109 194.437 51.5597C195.288 51.2084 196.015 50.6135 196.528 49.8498C197.041 49.0861 197.316 48.1877 197.32 47.2676C197.319 46.6572 197.198 46.053 196.963 45.4895C196.729 44.926 196.385 44.4142 195.953 43.9835C195.079 43.1123 193.895 42.6226 192.661 42.6214ZM210.674 53.48C206.369 53.48 204.061 55.4075 203.017 56.5582V54.8059C203.017 54.6021 202.937 54.4064 202.794 54.2611C202.651 54.1158 202.457 54.0325 202.253 54.0291H195.5C195.294 54.0296 195.096 54.1115 194.951 54.2571C194.805 54.4026 194.722 54.5999 194.722 54.8059V75.497C194.734 75.6953 194.821 75.8814 194.966 76.0176C195.11 76.1538 195.301 76.2299 195.5 76.2304H202.253C202.452 76.2286 202.642 76.1521 202.786 76.0162C202.93 75.8802 203.018 75.6948 203.032 75.497V62.5448C203.446 61.9958 203.982 61.5514 204.599 61.2471C205.215 60.9428 205.894 60.7872 206.582 60.7925C208.734 60.7925 209.814 61.8637 209.814 63.9682V75.497C209.828 75.695 209.916 75.8804 210.061 76.0163C210.205 76.1522 210.396 76.2287 210.594 76.2304H217.346C217.545 76.2317 217.737 76.1562 217.882 76.0197C218.028 75.8832 218.115 75.696 218.126 75.497V60.4782C218.126 56.0813 215.349 53.48 210.69 53.48H210.674ZM128.45 53.3842C126.124 53.3842 123.851 54.0707 121.919 55.3605C119.987 56.6474 118.48 58.4787 117.589 60.6227C116.698 62.7656 116.465 65.125 116.919 67.4008C117.373 69.6766 118.493 71.7661 120.137 73.4033C121.784 75.0435 123.879 76.1599 126.159 76.6122C128.439 77.0644 130.802 76.8323 132.95 75.945C135.097 75.0591 136.933 73.5567 138.227 71.6276C139.738 69.3726 140.418 66.6621 140.152 63.9604C139.885 61.2587 138.687 58.7338 136.764 56.8183C134.556 54.618 131.567 53.3831 128.45 53.3842V53.3842ZM128.45 68.9595C127.656 68.9636 126.878 68.7326 126.214 68.2954C125.551 67.8583 125.031 67.2345 124.721 66.5027C124.413 65.7708 124.33 64.9635 124.482 64.184C124.634 63.4044 125.015 62.6878 125.576 62.1257C126.136 61.5628 126.851 61.1787 127.63 61.0216C128.408 60.8645 129.216 60.9414 129.951 61.2428C130.686 61.5442 131.315 62.0564 131.76 62.715C132.204 63.3736 132.444 64.1491 132.448 64.9437C132.449 65.4707 132.346 65.9927 132.144 66.4795C131.942 66.9663 131.646 67.4082 131.273 67.7798C130.899 68.1528 130.455 68.4483 129.967 68.6495C129.479 68.8507 128.956 68.9536 128.429 68.9522L128.45 68.9595ZM232.337 53.3842C230.011 53.3842 227.74 54.0707 225.806 55.3605C223.874 56.6473 222.367 58.4787 221.476 60.6227C220.585 62.7656 220.352 65.125 220.805 67.4009C221.259 69.6768 222.379 71.7662 224.023 73.4033C225.67 75.0452 227.765 76.1627 230.046 76.615C232.326 77.0673 234.689 76.8342 236.837 75.945C238.983 75.0584 240.819 73.5562 242.114 71.6276C243.623 69.3721 244.303 66.662 244.036 63.9606C243.77 61.2593 242.573 58.7345 240.651 56.8183C238.443 54.618 235.454 53.3831 232.337 53.3842V53.3842ZM232.337 68.9595C231.543 68.9592 230.767 68.7241 230.107 68.2837C229.446 67.8433 228.93 67.2174 228.625 66.4846C228.319 65.7523 228.238 64.9453 228.393 64.1668C228.548 63.3884 228.932 62.6739 229.495 62.1148C229.916 61.6957 230.424 61.3749 230.983 61.1753C231.543 60.9757 232.139 60.9023 232.73 60.9603C233.321 61.0183 233.892 61.2063 234.402 61.5108C234.912 61.8153 235.348 62.2289 235.68 62.7218C236.198 63.4924 236.431 64.4194 236.34 65.3435C236.249 66.2676 235.838 67.131 235.179 67.7853C234.426 68.5368 233.404 68.9595 232.337 68.9595V68.9595ZM250.597 46.8467C250.601 46.8246 250.601 46.802 250.597 46.7799C250.289 45.6071 249.547 44.5956 248.52 43.9509C247.492 43.3056 246.256 43.075 245.064 43.306C243.888 43.5111 242.841 44.1736 242.151 45.1486C241.463 46.1217 241.189 47.3282 241.389 48.5032C241.605 49.4469 242.126 50.2931 242.871 50.9104C243.617 51.5277 244.545 51.8817 245.512 51.9174C245.416 52.3036 245.241 52.6656 244.998 52.9809C244.756 53.2961 244.45 53.5577 244.102 53.7491C244.049 53.7805 244.003 53.822 243.966 53.8713C243.929 53.9206 243.902 53.9767 243.887 54.0364C243.858 54.1562 243.877 54.2823 243.939 54.3886L244.461 55.122C244.51 55.2431 244.604 55.3402 244.724 55.3922C244.843 55.4443 244.979 55.4471 245.1 55.4002C250.259 53.3192 251.133 48.9349 250.597 46.8467V46.8467ZM256.634 60.648C256.634 59.8206 257.692 59.4467 259.043 59.4467C261.175 59.4043 263.261 60.0714 264.973 61.3435C265.154 61.4591 265.373 61.4987 265.583 61.4537C265.79 61.3989 265.967 61.2645 266.076 61.0797L268.353 57.1236C268.407 57.0382 268.443 56.9428 268.459 56.8431C268.474 56.7434 268.47 56.6416 268.445 56.5437C268.421 56.4454 268.376 56.3534 268.313 56.2737C268.25 56.194 268.172 56.1284 268.082 56.0813C265.271 54.3246 262.004 53.435 258.69 53.5233C251.819 53.5233 248.138 56.7478 248.755 61.3886C249.799 69.5466 262.511 66.7538 262.313 69.5086C262.269 70.1553 261.144 70.6377 259.198 70.6377C256.677 70.6377 253.818 69.3768 252.018 68.264C251.929 68.2097 251.831 68.1738 251.728 68.1584C251.625 68.143 251.52 68.1485 251.419 68.1744C251.319 68.2003 251.224 68.2463 251.142 68.3094C251.059 68.3726 250.99 68.4518 250.938 68.5422L248.3 72.9391C248.203 73.1094 248.175 73.3099 248.22 73.5005C248.264 73.6911 248.38 73.8577 248.542 73.9669C251.604 75.8286 255.115 76.8215 258.698 76.8392C265.583 76.8392 269.55 73.9073 269.55 69.048C269.55 60.106 256.648 62.8771 256.596 60.6697L256.634 60.648ZM272.217 58.1551C271.691 58.1553 271.176 57.9994 270.737 57.7072C270.299 57.415 269.957 56.9994 269.754 56.513C269.552 56.0273 269.499 55.4922 269.602 54.9761C269.705 54.46 269.959 53.9863 270.332 53.6155C270.705 53.2423 271.18 52.9883 271.697 52.8857C272.215 52.7831 272.751 52.8365 273.238 53.0392C273.808 53.2732 274.279 53.6983 274.571 54.2417C274.862 54.7851 274.955 55.413 274.835 56.0177C274.714 56.6225 274.387 57.1664 273.909 57.5564C273.432 57.9463 272.834 58.158 272.217 58.1551V58.1551ZM272.217 53.1946C271.769 53.1926 271.329 53.3237 270.955 53.5712C270.58 53.8188 270.288 54.1717 270.114 54.5855C269.984 54.8952 269.925 55.2298 269.941 55.5651C269.957 55.9003 270.048 56.2278 270.206 56.5237C270.364 56.8196 270.587 57.0764 270.857 57.2755C271.127 57.4746 271.438 57.6109 271.768 57.6746C272.208 57.761 272.664 57.7153 273.078 57.5434C273.493 57.3714 273.847 57.0809 274.097 56.7081C274.346 56.3351 274.478 55.8958 274.475 55.4472C274.462 54.8573 274.218 54.296 273.796 53.8839C273.374 53.4718 272.807 53.2418 272.217 53.2433V53.1946ZM272.943 56.9845L272.158 55.7742H271.62V56.9845H271.192V53.9786H272.447C272.699 53.9794 272.942 54.076 273.127 54.249C273.311 54.422 273.423 54.6584 273.44 54.9107C273.445 55.1304 273.369 55.3443 273.226 55.5112C273.083 55.678 272.883 55.7858 272.665 55.8139L273.481 57.0351L272.943 56.9845V56.9845ZM272.447 54.3055H271.62V55.3876H272.447C272.588 55.3882 272.724 55.3336 272.827 55.2355C272.929 55.1374 272.989 55.0034 272.994 54.8619C272.981 54.7248 272.918 54.5972 272.817 54.5038C272.716 54.4104 272.584 54.3578 272.447 54.3561V54.3055Z" fill="#0078AE"/>
</g>
<defs>
<clipPath id="clip0">
<rect width="251" height="56" fill="white" transform="translate(24 21)"/>
</clipPath>
</defs>
</svg>
