<svg width="300" height="100" viewBox="0 0 300 100" fill="none" xmlns="http://www.w3.org/2000/svg">
<path d="M231.44 34.9104H223.664C222.168 34.8497 220.705 35.3723 219.578 36.371C218.45 37.3697 217.742 38.7686 217.6 40.28L214.208 58.1244C213.6 61.3689 214.528 63.5102 218.256 63.5102H226.08C227.59 63.6041 229.076 63.0918 230.217 62.0841C231.357 61.0763 232.061 59.654 232.176 58.1244L235.68 40.28C236.24 37.1166 235.296 34.9104 231.504 34.9104H231.44ZM229.472 41.4804L226.464 57.0051C226.466 57.1329 226.443 57.2599 226.397 57.3788C226.351 57.4977 226.282 57.6062 226.194 57.6981C226.106 57.79 226.002 57.8635 225.886 57.9144C225.77 57.9653 225.646 57.9925 225.52 57.9946H221.056C220.432 57.9946 220.288 57.7513 220.368 57.0213L223.344 41.4966C223.552 40.7991 223.872 40.4746 224.448 40.4746H228.8C229.36 40.4746 229.648 40.7991 229.536 41.4966L229.472 41.4804ZM207.712 57.9784L212.16 34.9104H200C198.477 34.7981 196.971 35.2986 195.809 36.3036C194.647 37.3086 193.923 38.7372 193.792 40.28L188.88 57.9784H186.336L185.216 63.5751H208.416L209.52 57.9784H207.712ZM205.056 40.4584L201.6 57.9784H195.2L199.616 41.4804C199.616 41.2094 199.722 40.9494 199.911 40.7578C200.1 40.5661 200.357 40.4584 200.624 40.4584H205.04H205.056ZM182.656 63.5751L183.408 35.0889H175.216L161.68 63.6724H168.208L170.464 58.384H176.32L175.888 63.6724L182.656 63.5751ZM177.584 42.4862L176.704 53.6633H172.448L177.248 42.4862H177.584ZM165.216 40.28C165.856 37.1166 164.896 34.9104 161.12 34.9104H148.32L142.768 63.5751H148.64L150.24 55.2693H157.28C161.04 55.2693 162.592 52.9658 163.296 49.8024L165.216 40.28ZM159.088 41.4804L157.648 48.6344C157.472 49.4131 157.12 49.6564 156.496 49.6564H151.312L153.184 40.4584H158.4C159.024 40.4584 159.248 40.7829 159.168 41.4804H159.088ZM141.856 40.28C142.464 37.1166 141.52 34.9104 137.728 34.9104H130.032C128.487 34.7913 126.957 35.2844 125.763 36.2858C124.57 37.2873 123.806 38.719 123.632 40.28L120.272 58.1244C119.712 61.3689 120.624 63.5102 124.336 63.5102H132.112C133.63 63.6174 135.128 63.1112 136.28 62.1021C137.431 61.093 138.141 59.663 138.256 58.1244L141.856 40.28ZM135.696 41.4804L132.8 57.0051C132.753 57.2857 132.607 57.5395 132.389 57.7187C132.171 57.8979 131.896 57.9903 131.616 57.9784H127.264C126.688 57.9784 126.496 57.7351 126.576 57.0051L129.6 41.4804C129.6 40.7829 130 40.4584 130.688 40.4584H134.976C135.504 40.4584 135.84 40.7829 135.664 41.4804H135.696ZM114.608 57.9784L119.04 34.9104H106.912C105.406 34.8287 103.927 35.3427 102.787 36.3442C101.647 37.3458 100.935 38.7567 100.8 40.28L95.792 57.9784H93.28L92.128 63.5751H115.36L116.448 57.9784H114.608ZM112 40.4584L108.576 57.9784H102.176L106.592 41.4804C106.588 41.3478 106.61 41.2156 106.657 41.0918C106.704 40.9679 106.775 40.855 106.866 40.7596C106.957 40.6643 107.066 40.5885 107.187 40.5367C107.307 40.485 107.437 40.4583 107.568 40.4584H112ZM91.952 49.5266C92.544 46.2822 91.568 44.0111 87.808 44.0111H80.88L82.672 34.9104H76.64L71.104 63.5751H84.08C85.5998 63.6825 87.0999 63.1767 88.2536 62.168C89.4073 61.1593 90.1213 59.7292 90.24 58.1893L91.952 49.5266ZM85.776 50.2566L84.528 57.2484C84.4962 57.5567 84.3525 57.842 84.1248 58.0489C83.8972 58.2558 83.6017 58.3694 83.296 58.3678H78.208L80 49.2184H85.12C85.712 49.2184 85.936 49.5104 85.776 50.2404V50.2566ZM65.28 63.5751L70.784 35.0889H57.984C56.4644 34.9852 54.9652 35.4893 53.8077 36.493C52.6502 37.4967 51.9266 38.9202 51.792 40.4584L45.216 63.6562H51.616L57.536 41.5615C57.5339 41.4294 57.5574 41.2982 57.6053 41.1754C57.6533 41.0525 57.7246 40.9405 57.8152 40.8455C57.9058 40.7506 58.014 40.6748 58.1336 40.6223C58.2531 40.5698 58.3817 40.5416 58.512 40.5395H63.776L59.2 63.5751H65.28ZM46.176 40.28C46.768 37.1166 45.856 34.9104 42.144 34.9104H30.592L29.504 40.4584H39.344C39.936 40.4584 40.112 40.7829 40.032 41.4804L38.784 48.0666H32.656L33.6 43.5082L19.424 50.3864H29.952L29.04 54.9286L38.4 50.4189L37.152 56.9078C37.1159 57.1963 36.9704 57.4592 36.7464 57.6409C36.5225 57.8225 36.2375 57.9087 35.952 57.8811H26.128L25.088 63.4778H36.672C38.163 63.5849 39.6351 63.0885 40.7658 62.0972C41.8964 61.1059 42.5934 59.7007 42.704 58.1893V58.092L46.176 40.28ZM235.568 56.9726L234.304 63.5751H240.256L241.536 56.9726H235.568V56.9726ZM276.8 43.5082H272.464L269.52 58.8382C269.53 58.9095 269.524 58.9822 269.502 59.0508C269.481 59.1194 269.443 59.1819 269.394 59.2336C269.344 59.2854 269.284 59.3249 269.217 59.3491C269.15 59.3734 269.079 59.3817 269.008 59.3735H265.808C265.52 59.3735 265.424 59.2438 265.504 58.8382L268.384 43.5082H264L260.944 59.5033C260.48 61.9042 261.104 63.5751 263.968 63.5751H268.944C269.514 63.6193 270.086 63.5489 270.629 63.3679C271.172 63.187 271.674 62.899 272.107 62.5206C272.54 62.1423 272.894 61.6809 273.15 61.1631C273.407 60.6452 273.559 60.0812 273.6 59.5033L276.8 43.5082ZM256.656 43.5082H247.712L243.952 63.5751H248L249.168 57.8649H251.2L252.08 63.5751H256.608L255.408 57.6053C256.182 57.3379 256.864 56.8499 257.372 56.1997C257.88 55.5495 258.193 54.7646 258.272 53.9391L259.568 47.2718C260.016 45.0655 259.344 43.4595 256.704 43.4595L256.656 43.5082ZM255.232 48.0666L254.224 52.9333C254.112 53.4849 253.872 53.6471 253.44 53.6471H249.84L251.136 47.1582H254.72C255.136 47.1582 255.296 47.4015 255.248 47.8882" fill="#C10230"/>
</svg>
