<?xml version="1.0" encoding="UTF-8"?>
<svg width="37px" height="36px" viewBox="0 0 37 36" version="1.1" xmlns="http://www.w3.org/2000/svg" xmlns:xlink="http://www.w3.org/1999/xlink">
    <!-- Generator: Sketch 54.1 (76490) - https://sketchapp.com -->
    <title>ppt copy 6</title>
    <desc>Created with Sketch.</desc>
    <g id="Page-1" stroke="none" stroke-width="1" fill="none" fill-rule="evenodd">
        <g id="Документы-иконки" transform="translate(-194.000000, -359.000000)">
            <g id="ppt-copy-6" transform="translate(194.000000, 359.000000)">
                <path d="M28.475,0 L9.1,0 C7.388025,0 6,1.40165217 6,3.13043478 L6,3.91304348 L6,19.5652174 L6,29.7391304 L6,32.8695652 C6,34.5991304 7.38725,36 9.1,36 L11.425,36 L31.575,36 L33.9,36 C35.611975,36 37,34.5983478 37,32.8695652 L37,8.60869565 L37,7.82608696 L29.25,0 L28.475,0 Z" id="Shape" fill="#E9EBEB" fill-rule="nonzero"></path>
                <rect id="Rectangle" fill="#E67A7A" x="0" y="16" width="31" height="13" rx="2"></rect>
                <path d="M7.0616,26 L7.0616,19.088 L9.6536,19.088 C10.4792041,19.088 11.1175977,19.2767981 11.5688,19.6544 C12.0200023,20.0320019 12.2456,20.5855964 12.2456,21.3152 C12.2456,22.0448036 12.0088024,22.5983981 11.5352,22.976 C11.0615976,23.3536019 10.3960043,23.5424 9.5384,23.5424 L8.6072,23.5424 L8.6072,26 L7.0616,26 Z M8.6072,20.3648 L8.6072,22.3136 L9.5384,22.3136 C10.3128039,22.3136 10.7,21.9904032 10.7,21.344 C10.7,20.6911967 10.3128039,20.3648 9.5384,20.3648 L8.6072,20.3648 Z M13.2632,19.088 L15.6728,19.088 C16.6968051,19.088 17.511197,19.385597 18.116,19.9808 C18.720803,20.576003 19.0232,21.4271945 19.0232,22.5344 C19.0232,23.6480056 18.7176031,24.503997 18.1064,25.1024 C17.4951969,25.700803 16.6840051,26 15.6728,26 L13.2632,26 L13.2632,19.088 Z M14.828,24.7424 L15.6728,24.7424 C16.2104027,24.7424 16.6423984,24.5664018 16.9688,24.2144 C17.2952016,23.8623982 17.4584,23.3152037 17.4584,22.5728 C17.4584,21.8239963 17.2952016,21.2736018 16.9688,20.9216 C16.6423984,20.5695982 16.2104027,20.3936 15.6728,20.3936 L14.828,20.3936 L14.828,24.7424 Z M20.156,26 L20.156,19.088 L24.4856,19.088 L24.4856,20.3936 L21.7208,20.3936 L21.7208,21.9872 L24.14,21.9872 L24.14,23.216 L21.7208,23.216 L21.7208,26 L20.156,26 Z" id="PDF" fill="#FFFFFF" fill-rule="nonzero"></path>
                <path d="M29.7272727,0 L29,0 L29,5.09090909 C29,6.69745455 30.3025455,8 31.9090909,8 L37,8 L37,7.27272727 L29.7272727,0 Z" id="Path" fill="#C0C6C6" fill-rule="nonzero"></path>
            </g>
        </g>
    </g>
</svg>