<svg width="170" height="170" viewBox="0 0 170 170" fill="none" xmlns="http://www.w3.org/2000/svg">
<path d="M170 0H0V170H170V0Z" fill="white"/>
<path d="M16.5563 11.4865H11.4865V16.5564H16.5563V11.4865Z" fill="black"/>
<path d="M16.5563 16.5564H11.4865V21.6263H16.5563V16.5564Z" fill="black"/>
<path d="M16.5563 21.6263H11.4865V26.6962H16.5563V21.6263Z" fill="black"/>
<path d="M16.5563 26.6962H11.4865V31.7661H16.5563V26.6962Z" fill="black"/>
<path d="M16.5563 31.7661H11.4865V36.8359H16.5563V31.7661Z" fill="black"/>
<path d="M16.5563 36.836H11.4865V41.9059H16.5563V36.836Z" fill="black"/>
<path d="M16.5563 41.9059H11.4865V46.9758H16.5563V41.9059Z" fill="black"/>
<path d="M16.5563 57.1155H11.4865V62.1854H16.5563V57.1155Z" fill="black"/>
<path d="M16.5563 62.1855H11.4865V67.2554H16.5563V62.1855Z" fill="black"/>
<path d="M16.5563 77.3951H11.4865V82.465H16.5563V77.3951Z" fill="black"/>
<path d="M16.5563 82.465H11.4865V87.5349H16.5563V82.465Z" fill="black"/>
<path d="M16.5563 102.745H11.4865V107.815H16.5563V102.745Z" fill="black"/>
<path d="M16.5563 107.815H11.4865V112.884H16.5563V107.815Z" fill="black"/>
<path d="M16.5563 123.024H11.4865V128.094H16.5563V123.024Z" fill="black"/>
<path d="M16.5563 128.094H11.4865V133.164H16.5563V128.094Z" fill="black"/>
<path d="M16.5563 133.164H11.4865V138.234H16.5563V133.164Z" fill="black"/>
<path d="M16.5563 138.234H11.4865V143.304H16.5563V138.234Z" fill="black"/>
<path d="M16.5563 143.304H11.4865V148.374H16.5563V143.304Z" fill="black"/>
<path d="M16.5563 148.374H11.4865V153.444H16.5563V148.374Z" fill="black"/>
<path d="M16.5563 153.444H11.4865V158.513H16.5563V153.444Z" fill="black"/>
<path d="M21.6263 11.4865H16.5564V16.5564H21.6263V11.4865Z" fill="black"/>
<path d="M21.6263 41.9059H16.5564V46.9758H21.6263V41.9059Z" fill="black"/>
<path d="M21.6263 67.2554H16.5564V72.3253H21.6263V67.2554Z" fill="black"/>
<path d="M21.6263 72.3253H16.5564V77.3952H21.6263V72.3253Z" fill="black"/>
<path d="M21.6263 77.3951H16.5564V82.465H21.6263V77.3951Z" fill="black"/>
<path d="M21.6263 87.5349H16.5564V92.6048H21.6263V87.5349Z" fill="black"/>
<path d="M21.6263 97.6747H16.5564V102.745H21.6263V97.6747Z" fill="black"/>
<path d="M21.6263 102.745H16.5564V107.815H21.6263V102.745Z" fill="black"/>
<path d="M21.6263 107.815H16.5564V112.884H21.6263V107.815Z" fill="black"/>
<path d="M21.6263 123.024H16.5564V128.094H21.6263V123.024Z" fill="black"/>
<path d="M21.6263 153.444H16.5564V158.513H21.6263V153.444Z" fill="black"/>
<path d="M26.6961 11.4865H21.6262V16.5564H26.6961V11.4865Z" fill="black"/>
<path d="M26.6961 21.6263H21.6262V26.6962H26.6961V21.6263Z" fill="black"/>
<path d="M26.6961 26.6962H21.6262V31.7661H26.6961V26.6962Z" fill="black"/>
<path d="M26.6961 31.7661H21.6262V36.8359H26.6961V31.7661Z" fill="black"/>
<path d="M26.6961 41.9059H21.6262V46.9758H26.6961V41.9059Z" fill="black"/>
<path d="M26.6961 62.1855H21.6262V67.2554H26.6961V62.1855Z" fill="black"/>
<path d="M26.6961 72.3253H21.6262V77.3952H26.6961V72.3253Z" fill="black"/>
<path d="M26.6961 87.5349H21.6262V92.6048H26.6961V87.5349Z" fill="black"/>
<path d="M26.6961 92.6049H21.6262V97.6748H26.6961V92.6049Z" fill="black"/>
<path d="M26.6961 97.6747H21.6262V102.745H26.6961V97.6747Z" fill="black"/>
<path d="M26.6961 107.815H21.6262V112.884H26.6961V107.815Z" fill="black"/>
<path d="M26.6961 112.884H21.6262V117.954H26.6961V112.884Z" fill="black"/>
<path d="M26.6961 123.024H21.6262V128.094H26.6961V123.024Z" fill="black"/>
<path d="M26.6961 133.164H21.6262V138.234H26.6961V133.164Z" fill="black"/>
<path d="M26.6961 138.234H21.6262V143.304H26.6961V138.234Z" fill="black"/>
<path d="M26.6961 143.304H21.6262V148.374H26.6961V143.304Z" fill="black"/>
<path d="M26.6961 153.444H21.6262V158.513H26.6961V153.444Z" fill="black"/>
<path d="M31.7661 11.4865H26.6962V16.5564H31.7661V11.4865Z" fill="black"/>
<path d="M31.7661 21.6263H26.6962V26.6962H31.7661V21.6263Z" fill="black"/>
<path d="M31.7661 26.6962H26.6962V31.7661H31.7661V26.6962Z" fill="black"/>
<path d="M31.7661 31.7661H26.6962V36.8359H31.7661V31.7661Z" fill="black"/>
<path d="M31.7661 41.9059H26.6962V46.9758H31.7661V41.9059Z" fill="black"/>
<path d="M31.7661 57.1155H26.6962V62.1854H31.7661V57.1155Z" fill="black"/>
<path d="M31.7661 72.3253H26.6962V77.3952H31.7661V72.3253Z" fill="black"/>
<path d="M31.7661 82.465H26.6962V87.5349H31.7661V82.465Z" fill="black"/>
<path d="M31.7661 87.5349H26.6962V92.6048H31.7661V87.5349Z" fill="black"/>
<path d="M31.7661 92.6049H26.6962V97.6748H31.7661V92.6049Z" fill="black"/>
<path d="M31.7661 97.6747H26.6962V102.745H31.7661V97.6747Z" fill="black"/>
<path d="M31.7661 107.815H26.6962V112.884H31.7661V107.815Z" fill="black"/>
<path d="M31.7661 123.024H26.6962V128.094H31.7661V123.024Z" fill="black"/>
<path d="M31.7661 133.164H26.6962V138.234H31.7661V133.164Z" fill="black"/>
<path d="M31.7661 138.234H26.6962V143.304H31.7661V138.234Z" fill="black"/>
<path d="M31.7661 143.304H26.6962V148.374H31.7661V143.304Z" fill="black"/>
<path d="M31.7661 153.444H26.6962V158.513H31.7661V153.444Z" fill="black"/>
<path d="M36.8359 11.4865H31.766V16.5564H36.8359V11.4865Z" fill="black"/>
<path d="M36.8359 21.6263H31.766V26.6962H36.8359V21.6263Z" fill="black"/>
<path d="M36.8359 26.6962H31.766V31.7661H36.8359V26.6962Z" fill="black"/>
<path d="M36.8359 31.7661H31.766V36.8359H36.8359V31.7661Z" fill="black"/>
<path d="M36.8359 41.9059H31.766V46.9758H36.8359V41.9059Z" fill="black"/>
<path d="M36.8359 52.0457H31.766V57.1155H36.8359V52.0457Z" fill="black"/>
<path d="M36.8359 57.1155H31.766V62.1854H36.8359V57.1155Z" fill="black"/>
<path d="M36.8359 67.2554H31.766V72.3253H36.8359V67.2554Z" fill="black"/>
<path d="M36.8359 77.3951H31.766V82.465H36.8359V77.3951Z" fill="black"/>
<path d="M36.8359 82.465H31.766V87.5349H36.8359V82.465Z" fill="black"/>
<path d="M36.8359 87.5349H31.766V92.6048H36.8359V87.5349Z" fill="black"/>
<path d="M36.8359 97.6747H31.766V102.745H36.8359V97.6747Z" fill="black"/>
<path d="M36.8359 112.884H31.766V117.954H36.8359V112.884Z" fill="black"/>
<path d="M36.8359 123.024H31.766V128.094H36.8359V123.024Z" fill="black"/>
<path d="M36.8359 133.164H31.766V138.234H36.8359V133.164Z" fill="black"/>
<path d="M36.8359 138.234H31.766V143.304H36.8359V138.234Z" fill="black"/>
<path d="M36.8359 143.304H31.766V148.374H36.8359V143.304Z" fill="black"/>
<path d="M36.8359 153.444H31.766V158.513H36.8359V153.444Z" fill="black"/>
<path d="M41.9058 11.4865H36.8359V16.5564H41.9058V11.4865Z" fill="black"/>
<path d="M41.9058 41.9059H36.8359V46.9758H41.9058V41.9059Z" fill="black"/>
<path d="M41.9058 52.0457H36.8359V57.1155H41.9058V52.0457Z" fill="black"/>
<path d="M41.9058 87.5349H36.8359V92.6048H41.9058V87.5349Z" fill="black"/>
<path d="M41.9058 102.745H36.8359V107.815H41.9058V102.745Z" fill="black"/>
<path d="M41.9058 107.815H36.8359V112.884H41.9058V107.815Z" fill="black"/>
<path d="M41.9058 112.884H36.8359V117.954H41.9058V112.884Z" fill="black"/>
<path d="M41.9058 123.024H36.8359V128.094H41.9058V123.024Z" fill="black"/>
<path d="M41.9058 153.444H36.8359V158.513H41.9058V153.444Z" fill="black"/>
<path d="M46.9758 11.4865H41.9059V16.5564H46.9758V11.4865Z" fill="black"/>
<path d="M46.9758 16.5564H41.9059V21.6263H46.9758V16.5564Z" fill="black"/>
<path d="M46.9758 21.6263H41.9059V26.6962H46.9758V21.6263Z" fill="black"/>
<path d="M46.9758 26.6962H41.9059V31.7661H46.9758V26.6962Z" fill="black"/>
<path d="M46.9758 31.7661H41.9059V36.8359H46.9758V31.7661Z" fill="black"/>
<path d="M46.9758 36.836H41.9059V41.9059H46.9758V36.836Z" fill="black"/>
<path d="M46.9758 41.9059H41.9059V46.9758H46.9758V41.9059Z" fill="black"/>
<path d="M46.9758 52.0457H41.9059V57.1155H46.9758V52.0457Z" fill="black"/>
<path d="M46.9758 62.1855H41.9059V67.2554H46.9758V62.1855Z" fill="black"/>
<path d="M46.9758 72.3253H41.9059V77.3952H46.9758V72.3253Z" fill="black"/>
<path d="M46.9758 82.465H41.9059V87.5349H46.9758V82.465Z" fill="black"/>
<path d="M46.9758 92.6049H41.9059V97.6748H46.9758V92.6049Z" fill="black"/>
<path d="M46.9758 102.745H41.9059V107.815H46.9758V102.745Z" fill="black"/>
<path d="M46.9758 112.884H41.9059V117.954H46.9758V112.884Z" fill="black"/>
<path d="M46.9758 123.024H41.9059V128.094H46.9758V123.024Z" fill="black"/>
<path d="M46.9758 128.094H41.9059V133.164H46.9758V128.094Z" fill="black"/>
<path d="M46.9758 133.164H41.9059V138.234H46.9758V133.164Z" fill="black"/>
<path d="M46.9758 138.234H41.9059V143.304H46.9758V138.234Z" fill="black"/>
<path d="M46.9758 143.304H41.9059V148.374H46.9758V143.304Z" fill="black"/>
<path d="M46.9758 148.374H41.9059V153.444H46.9758V148.374Z" fill="black"/>
<path d="M46.9758 153.444H41.9059V158.513H46.9758V153.444Z" fill="black"/>
<path d="M52.0456 52.0457H46.9757V57.1155H52.0456V52.0457Z" fill="black"/>
<path d="M52.0456 57.1155H46.9757V62.1854H52.0456V57.1155Z" fill="black"/>
<path d="M52.0456 62.1855H46.9757V67.2554H52.0456V62.1855Z" fill="black"/>
<path d="M52.0456 67.2554H46.9757V72.3253H52.0456V67.2554Z" fill="black"/>
<path d="M52.0456 77.3951H46.9757V82.465H52.0456V77.3951Z" fill="black"/>
<path d="M57.1156 16.5564H52.0457V21.6263H57.1156V16.5564Z" fill="black"/>
<path d="M57.1156 36.836H52.0457V41.9059H57.1156V36.836Z" fill="black"/>
<path d="M57.1156 41.9059H52.0457V46.9758H57.1156V41.9059Z" fill="black"/>
<path d="M57.1156 46.9758H52.0457V52.0457H57.1156V46.9758Z" fill="black"/>
<path d="M57.1156 57.1155H52.0457V62.1854H57.1156V57.1155Z" fill="black"/>
<path d="M57.1156 72.3253H52.0457V77.3952H57.1156V72.3253Z" fill="black"/>
<path d="M57.1156 77.3951H52.0457V82.465H57.1156V77.3951Z" fill="black"/>
<path d="M57.1156 102.745H52.0457V107.815H57.1156V102.745Z" fill="black"/>
<path d="M57.1156 117.954H52.0457V123.024H57.1156V117.954Z" fill="black"/>
<path d="M57.1156 123.024H52.0457V128.094H57.1156V123.024Z" fill="black"/>
<path d="M57.1156 128.094H52.0457V133.164H57.1156V128.094Z" fill="black"/>
<path d="M57.1156 133.164H52.0457V138.234H57.1156V133.164Z" fill="black"/>
<path d="M62.1854 21.6263H57.1155V26.6962H62.1854V21.6263Z" fill="black"/>
<path d="M62.1854 46.9758H57.1155V52.0457H62.1854V46.9758Z" fill="black"/>
<path d="M62.1854 52.0457H57.1155V57.1155H62.1854V52.0457Z" fill="black"/>
<path d="M62.1854 67.2554H57.1155V72.3253H62.1854V67.2554Z" fill="black"/>
<path d="M62.1854 77.3951H57.1155V82.465H62.1854V77.3951Z" fill="black"/>
<path d="M62.1854 92.6049H57.1155V97.6748H62.1854V92.6049Z" fill="black"/>
<path d="M62.1854 97.6747H57.1155V102.745H62.1854V97.6747Z" fill="black"/>
<path d="M62.1854 107.815H57.1155V112.884H62.1854V107.815Z" fill="black"/>
<path d="M62.1854 112.884H57.1155V117.954H62.1854V112.884Z" fill="black"/>
<path d="M62.1854 123.024H57.1155V128.094H62.1854V123.024Z" fill="black"/>
<path d="M62.1854 143.304H57.1155V148.374H62.1854V143.304Z" fill="black"/>
<path d="M62.1854 148.374H57.1155V153.444H62.1854V148.374Z" fill="black"/>
<path d="M67.2553 11.4865H62.1854V16.5564H67.2553V11.4865Z" fill="black"/>
<path d="M67.2553 21.6263H62.1854V26.6962H67.2553V21.6263Z" fill="black"/>
<path d="M67.2553 31.7661H62.1854V36.8359H67.2553V31.7661Z" fill="black"/>
<path d="M67.2553 41.9059H62.1854V46.9758H67.2553V41.9059Z" fill="black"/>
<path d="M67.2553 52.0457H62.1854V57.1155H67.2553V52.0457Z" fill="black"/>
<path d="M67.2553 57.1155H62.1854V62.1854H67.2553V57.1155Z" fill="black"/>
<path d="M67.2553 67.2554H62.1854V72.3253H67.2553V67.2554Z" fill="black"/>
<path d="M67.2553 72.3253H62.1854V77.3952H67.2553V72.3253Z" fill="black"/>
<path d="M67.2553 87.5349H62.1854V92.6048H67.2553V87.5349Z" fill="black"/>
<path d="M67.2553 92.6049H62.1854V97.6748H67.2553V92.6049Z" fill="black"/>
<path d="M67.2553 112.884H62.1854V117.954H67.2553V112.884Z" fill="black"/>
<path d="M67.2553 117.954H62.1854V123.024H67.2553V117.954Z" fill="black"/>
<path d="M67.2553 123.024H62.1854V128.094H67.2553V123.024Z" fill="black"/>
<path d="M67.2553 128.094H62.1854V133.164H67.2553V128.094Z" fill="black"/>
<path d="M67.2553 133.164H62.1854V138.234H67.2553V133.164Z" fill="black"/>
<path d="M67.2553 138.234H62.1854V143.304H67.2553V138.234Z" fill="black"/>
<path d="M67.2553 143.304H62.1854V148.374H67.2553V143.304Z" fill="black"/>
<path d="M67.2553 148.374H62.1854V153.444H67.2553V148.374Z" fill="black"/>
<path d="M67.2553 153.444H62.1854V158.513H67.2553V153.444Z" fill="black"/>
<path d="M72.3253 11.4865H67.2554V16.5564H72.3253V11.4865Z" fill="black"/>
<path d="M72.3253 26.6962H67.2554V31.7661H72.3253V26.6962Z" fill="black"/>
<path d="M72.3253 36.836H67.2554V41.9059H72.3253V36.836Z" fill="black"/>
<path d="M72.3253 52.0457H67.2554V57.1155H72.3253V52.0457Z" fill="black"/>
<path d="M72.3253 57.1155H67.2554V62.1854H72.3253V57.1155Z" fill="black"/>
<path d="M72.3253 67.2554H67.2554V72.3253H72.3253V67.2554Z" fill="black"/>
<path d="M72.3253 72.3253H67.2554V77.3952H72.3253V72.3253Z" fill="black"/>
<path d="M72.3253 77.3951H67.2554V82.465H72.3253V77.3951Z" fill="black"/>
<path d="M72.3253 97.6747H67.2554V102.745H72.3253V97.6747Z" fill="black"/>
<path d="M72.3253 102.745H67.2554V107.815H72.3253V102.745Z" fill="black"/>
<path d="M72.3253 107.815H67.2554V112.884H72.3253V107.815Z" fill="black"/>
<path d="M72.3253 112.884H67.2554V117.954H72.3253V112.884Z" fill="black"/>
<path d="M72.3253 123.024H67.2554V128.094H72.3253V123.024Z" fill="black"/>
<path d="M72.3253 128.094H67.2554V133.164H72.3253V128.094Z" fill="black"/>
<path d="M72.3253 133.164H67.2554V138.234H72.3253V133.164Z" fill="black"/>
<path d="M72.3253 148.374H67.2554V153.444H72.3253V148.374Z" fill="black"/>
<path d="M77.3951 16.5564H72.3252V21.6263H77.3951V16.5564Z" fill="black"/>
<path d="M77.3951 31.7661H72.3252V36.8359H77.3951V31.7661Z" fill="black"/>
<path d="M77.3951 41.9059H72.3252V46.9758H77.3951V41.9059Z" fill="black"/>
<path d="M77.3951 46.9758H72.3252V52.0457H77.3951V46.9758Z" fill="black"/>
<path d="M77.3951 52.0457H72.3252V57.1155H77.3951V52.0457Z" fill="black"/>
<path d="M77.3951 82.465H72.3252V87.5349H77.3951V82.465Z" fill="black"/>
<path d="M77.3951 97.6747H72.3252V102.745H77.3951V97.6747Z" fill="black"/>
<path d="M77.3951 107.815H72.3252V112.884H77.3951V107.815Z" fill="black"/>
<path d="M77.3951 112.884H72.3252V117.954H77.3951V112.884Z" fill="black"/>
<path d="M77.3951 133.164H72.3252V138.234H77.3951V133.164Z" fill="black"/>
<path d="M77.3951 138.234H72.3252V143.304H77.3951V138.234Z" fill="black"/>
<path d="M77.3951 143.304H72.3252V148.374H77.3951V143.304Z" fill="black"/>
<path d="M82.465 46.9758H77.3951V52.0457H82.465V46.9758Z" fill="black"/>
<path d="M82.465 62.1855H77.3951V67.2554H82.465V62.1855Z" fill="black"/>
<path d="M82.465 72.3253H77.3951V77.3952H82.465V72.3253Z" fill="black"/>
<path d="M82.465 87.5349H77.3951V92.6048H82.465V87.5349Z" fill="black"/>
<path d="M82.465 97.6747H77.3951V102.745H82.465V97.6747Z" fill="black"/>
<path d="M82.465 112.884H77.3951V117.954H82.465V112.884Z" fill="black"/>
<path d="M82.465 128.094H77.3951V133.164H82.465V128.094Z" fill="black"/>
<path d="M82.465 138.234H77.3951V143.304H82.465V138.234Z" fill="black"/>
<path d="M82.465 153.444H77.3951V158.513H82.465V153.444Z" fill="black"/>
<path d="M87.5349 11.4865H82.465V16.5564H87.5349V11.4865Z" fill="black"/>
<path d="M87.5349 21.6263H82.465V26.6962H87.5349V21.6263Z" fill="black"/>
<path d="M87.5349 26.6962H82.465V31.7661H87.5349V26.6962Z" fill="black"/>
<path d="M87.5349 36.836H82.465V41.9059H87.5349V36.836Z" fill="black"/>
<path d="M87.5349 41.9059H82.465V46.9758H87.5349V41.9059Z" fill="black"/>
<path d="M87.5349 52.0457H82.465V57.1155H87.5349V52.0457Z" fill="black"/>
<path d="M87.5349 67.2554H82.465V72.3253H87.5349V67.2554Z" fill="black"/>
<path d="M87.5349 82.465H82.465V87.5349H87.5349V82.465Z" fill="black"/>
<path d="M87.5349 92.6049H82.465V97.6748H87.5349V92.6049Z" fill="black"/>
<path d="M87.5349 97.6747H82.465V102.745H87.5349V97.6747Z" fill="black"/>
<path d="M87.5349 112.884H82.465V117.954H87.5349V112.884Z" fill="black"/>
<path d="M87.5349 123.024H82.465V128.094H87.5349V123.024Z" fill="black"/>
<path d="M87.5349 138.234H82.465V143.304H87.5349V138.234Z" fill="black"/>
<path d="M87.5349 143.304H82.465V148.374H87.5349V143.304Z" fill="black"/>
<path d="M92.6048 11.4865H87.5349V16.5564H92.6048V11.4865Z" fill="black"/>
<path d="M92.6048 26.6962H87.5349V31.7661H92.6048V26.6962Z" fill="black"/>
<path d="M92.6048 31.7661H87.5349V36.8359H92.6048V31.7661Z" fill="black"/>
<path d="M92.6048 52.0457H87.5349V57.1155H92.6048V52.0457Z" fill="black"/>
<path d="M92.6048 72.3253H87.5349V77.3952H92.6048V72.3253Z" fill="black"/>
<path d="M92.6048 82.465H87.5349V87.5349H92.6048V82.465Z" fill="black"/>
<path d="M92.6048 87.5349H87.5349V92.6048H92.6048V87.5349Z" fill="black"/>
<path d="M92.6048 97.6747H87.5349V102.745H92.6048V97.6747Z" fill="black"/>
<path d="M92.6048 102.745H87.5349V107.815H92.6048V102.745Z" fill="black"/>
<path d="M92.6048 138.234H87.5349V143.304H92.6048V138.234Z" fill="black"/>
<path d="M97.6748 11.4865H92.6049V16.5564H97.6748V11.4865Z" fill="black"/>
<path d="M97.6748 16.5564H92.6049V21.6263H97.6748V16.5564Z" fill="black"/>
<path d="M97.6748 31.7661H92.6049V36.8359H97.6748V31.7661Z" fill="black"/>
<path d="M97.6748 41.9059H92.6049V46.9758H97.6748V41.9059Z" fill="black"/>
<path d="M97.6748 62.1855H92.6049V67.2554H97.6748V62.1855Z" fill="black"/>
<path d="M97.6748 87.5349H92.6049V92.6048H97.6748V87.5349Z" fill="black"/>
<path d="M97.6748 97.6747H92.6049V102.745H97.6748V97.6747Z" fill="black"/>
<path d="M97.6748 102.745H92.6049V107.815H97.6748V102.745Z" fill="black"/>
<path d="M97.6748 107.815H92.6049V112.884H97.6748V107.815Z" fill="black"/>
<path d="M97.6748 112.884H92.6049V117.954H97.6748V112.884Z" fill="black"/>
<path d="M97.6748 117.954H92.6049V123.024H97.6748V117.954Z" fill="black"/>
<path d="M97.6748 133.164H92.6049V138.234H97.6748V133.164Z" fill="black"/>
<path d="M97.6748 143.304H92.6049V148.374H97.6748V143.304Z" fill="black"/>
<path d="M97.6748 148.374H92.6049V153.444H97.6748V148.374Z" fill="black"/>
<path d="M102.745 16.5564H97.6747V21.6263H102.745V16.5564Z" fill="black"/>
<path d="M102.745 21.6263H97.6747V26.6962H102.745V21.6263Z" fill="black"/>
<path d="M102.745 31.7661H97.6747V36.8359H102.745V31.7661Z" fill="black"/>
<path d="M102.745 36.836H97.6747V41.9059H102.745V36.836Z" fill="black"/>
<path d="M102.745 57.1155H97.6747V62.1854H102.745V57.1155Z" fill="black"/>
<path d="M102.745 77.3951H97.6747V82.465H102.745V77.3951Z" fill="black"/>
<path d="M102.745 92.6049H97.6747V97.6748H102.745V92.6049Z" fill="black"/>
<path d="M102.745 107.815H97.6747V112.884H102.745V107.815Z" fill="black"/>
<path d="M102.745 123.024H97.6747V128.094H102.745V123.024Z" fill="black"/>
<path d="M102.745 128.094H97.6747V133.164H102.745V128.094Z" fill="black"/>
<path d="M102.745 133.164H97.6747V138.234H102.745V133.164Z" fill="black"/>
<path d="M102.745 138.234H97.6747V143.304H102.745V138.234Z" fill="black"/>
<path d="M102.745 143.304H97.6747V148.374H102.745V143.304Z" fill="black"/>
<path d="M102.745 153.444H97.6747V158.513H102.745V153.444Z" fill="black"/>
<path d="M107.815 16.5564H102.745V21.6263H107.815V16.5564Z" fill="black"/>
<path d="M107.815 31.7661H102.745V36.8359H107.815V31.7661Z" fill="black"/>
<path d="M107.815 41.9059H102.745V46.9758H107.815V41.9059Z" fill="black"/>
<path d="M107.815 57.1155H102.745V62.1854H107.815V57.1155Z" fill="black"/>
<path d="M107.815 67.2554H102.745V72.3253H107.815V67.2554Z" fill="black"/>
<path d="M107.815 92.6049H102.745V97.6748H107.815V92.6049Z" fill="black"/>
<path d="M107.815 102.745H102.745V107.815H107.815V102.745Z" fill="black"/>
<path d="M107.815 112.884H102.745V117.954H107.815V112.884Z" fill="black"/>
<path d="M107.815 133.164H102.745V138.234H107.815V133.164Z" fill="black"/>
<path d="M107.815 143.304H102.745V148.374H107.815V143.304Z" fill="black"/>
<path d="M112.884 11.4865H107.814V16.5564H112.884V11.4865Z" fill="black"/>
<path d="M112.884 16.5564H107.814V21.6263H112.884V16.5564Z" fill="black"/>
<path d="M112.884 36.836H107.814V41.9059H112.884V36.836Z" fill="black"/>
<path d="M112.884 57.1155H107.814V62.1854H112.884V57.1155Z" fill="black"/>
<path d="M112.884 62.1855H107.814V67.2554H112.884V62.1855Z" fill="black"/>
<path d="M112.884 67.2554H107.814V72.3253H112.884V67.2554Z" fill="black"/>
<path d="M112.884 87.5349H107.814V92.6048H112.884V87.5349Z" fill="black"/>
<path d="M112.884 92.6049H107.814V97.6748H112.884V92.6049Z" fill="black"/>
<path d="M112.884 97.6747H107.814V102.745H112.884V97.6747Z" fill="black"/>
<path d="M112.884 107.815H107.814V112.884H112.884V107.815Z" fill="black"/>
<path d="M112.884 112.884H107.814V117.954H112.884V112.884Z" fill="black"/>
<path d="M112.884 123.024H107.814V128.094H112.884V123.024Z" fill="black"/>
<path d="M112.884 128.094H107.814V133.164H112.884V128.094Z" fill="black"/>
<path d="M112.884 133.164H107.814V138.234H112.884V133.164Z" fill="black"/>
<path d="M112.884 138.234H107.814V143.304H112.884V138.234Z" fill="black"/>
<path d="M112.884 148.374H107.814V153.444H112.884V148.374Z" fill="black"/>
<path d="M117.954 11.4865H112.884V16.5564H117.954V11.4865Z" fill="black"/>
<path d="M117.954 36.836H112.884V41.9059H117.954V36.836Z" fill="black"/>
<path d="M117.954 41.9059H112.884V46.9758H117.954V41.9059Z" fill="black"/>
<path d="M117.954 52.0457H112.884V57.1155H117.954V52.0457Z" fill="black"/>
<path d="M117.954 67.2554H112.884V72.3253H117.954V67.2554Z" fill="black"/>
<path d="M117.954 72.3253H112.884V77.3952H117.954V72.3253Z" fill="black"/>
<path d="M117.954 82.465H112.884V87.5349H117.954V82.465Z" fill="black"/>
<path d="M117.954 92.6049H112.884V97.6748H117.954V92.6049Z" fill="black"/>
<path d="M117.954 97.6747H112.884V102.745H117.954V97.6747Z" fill="black"/>
<path d="M117.954 102.745H112.884V107.815H117.954V102.745Z" fill="black"/>
<path d="M117.954 112.884H112.884V117.954H117.954V112.884Z" fill="black"/>
<path d="M117.954 117.954H112.884V123.024H117.954V117.954Z" fill="black"/>
<path d="M117.954 123.024H112.884V128.094H117.954V123.024Z" fill="black"/>
<path d="M117.954 128.094H112.884V133.164H117.954V128.094Z" fill="black"/>
<path d="M117.954 133.164H112.884V138.234H117.954V133.164Z" fill="black"/>
<path d="M117.954 153.444H112.884V158.513H117.954V153.444Z" fill="black"/>
<path d="M123.024 82.465H117.954V87.5349H123.024V82.465Z" fill="black"/>
<path d="M123.024 92.6049H117.954V97.6748H123.024V92.6049Z" fill="black"/>
<path d="M123.024 112.884H117.954V117.954H123.024V112.884Z" fill="black"/>
<path d="M123.024 133.164H117.954V138.234H123.024V133.164Z" fill="black"/>
<path d="M123.024 138.234H117.954V143.304H123.024V138.234Z" fill="black"/>
<path d="M128.094 11.4865H123.024V16.5564H128.094V11.4865Z" fill="black"/>
<path d="M128.094 16.5564H123.024V21.6263H128.094V16.5564Z" fill="black"/>
<path d="M128.094 21.6263H123.024V26.6962H128.094V21.6263Z" fill="black"/>
<path d="M128.094 26.6962H123.024V31.7661H128.094V26.6962Z" fill="black"/>
<path d="M128.094 31.7661H123.024V36.8359H128.094V31.7661Z" fill="black"/>
<path d="M128.094 36.836H123.024V41.9059H128.094V36.836Z" fill="black"/>
<path d="M128.094 41.9059H123.024V46.9758H128.094V41.9059Z" fill="black"/>
<path d="M128.094 52.0457H123.024V57.1155H128.094V52.0457Z" fill="black"/>
<path d="M128.094 77.3951H123.024V82.465H128.094V77.3951Z" fill="black"/>
<path d="M128.094 82.465H123.024V87.5349H128.094V82.465Z" fill="black"/>
<path d="M128.094 97.6747H123.024V102.745H128.094V97.6747Z" fill="black"/>
<path d="M128.094 112.884H123.024V117.954H128.094V112.884Z" fill="black"/>
<path d="M128.094 123.024H123.024V128.094H128.094V123.024Z" fill="black"/>
<path d="M128.094 133.164H123.024V138.234H128.094V133.164Z" fill="black"/>
<path d="M128.094 148.374H123.024V153.444H128.094V148.374Z" fill="black"/>
<path d="M128.094 153.444H123.024V158.513H128.094V153.444Z" fill="black"/>
<path d="M133.164 11.4865H128.094V16.5564H133.164V11.4865Z" fill="black"/>
<path d="M133.164 41.9059H128.094V46.9758H133.164V41.9059Z" fill="black"/>
<path d="M133.164 52.0457H128.094V57.1155H133.164V52.0457Z" fill="black"/>
<path d="M133.164 57.1155H128.094V62.1854H133.164V57.1155Z" fill="black"/>
<path d="M133.164 62.1855H128.094V67.2554H133.164V62.1855Z" fill="black"/>
<path d="M133.164 67.2554H128.094V72.3253H133.164V67.2554Z" fill="black"/>
<path d="M133.164 82.465H128.094V87.5349H133.164V82.465Z" fill="black"/>
<path d="M133.164 87.5349H128.094V92.6048H133.164V87.5349Z" fill="black"/>
<path d="M133.164 92.6049H128.094V97.6748H133.164V92.6049Z" fill="black"/>
<path d="M133.164 97.6747H128.094V102.745H133.164V97.6747Z" fill="black"/>
<path d="M133.164 102.745H128.094V107.815H133.164V102.745Z" fill="black"/>
<path d="M133.164 112.884H128.094V117.954H133.164V112.884Z" fill="black"/>
<path d="M133.164 133.164H128.094V138.234H133.164V133.164Z" fill="black"/>
<path d="M133.164 138.234H128.094V143.304H133.164V138.234Z" fill="black"/>
<path d="M133.164 143.304H128.094V148.374H133.164V143.304Z" fill="black"/>
<path d="M133.164 148.374H128.094V153.444H133.164V148.374Z" fill="black"/>
<path d="M138.234 11.4865H133.164V16.5564H138.234V11.4865Z" fill="black"/>
<path d="M138.234 21.6263H133.164V26.6962H138.234V21.6263Z" fill="black"/>
<path d="M138.234 26.6962H133.164V31.7661H138.234V26.6962Z" fill="black"/>
<path d="M138.234 31.7661H133.164V36.8359H138.234V31.7661Z" fill="black"/>
<path d="M138.234 41.9059H133.164V46.9758H138.234V41.9059Z" fill="black"/>
<path d="M138.234 57.1155H133.164V62.1854H138.234V57.1155Z" fill="black"/>
<path d="M138.234 77.3951H133.164V82.465H138.234V77.3951Z" fill="black"/>
<path d="M138.234 82.465H133.164V87.5349H138.234V82.465Z" fill="black"/>
<path d="M138.234 87.5349H133.164V92.6048H138.234V87.5349Z" fill="black"/>
<path d="M138.234 92.6049H133.164V97.6748H138.234V92.6049Z" fill="black"/>
<path d="M138.234 97.6747H133.164V102.745H138.234V97.6747Z" fill="black"/>
<path d="M138.234 112.884H133.164V117.954H138.234V112.884Z" fill="black"/>
<path d="M138.234 117.954H133.164V123.024H138.234V117.954Z" fill="black"/>
<path d="M138.234 123.024H133.164V128.094H138.234V123.024Z" fill="black"/>
<path d="M138.234 128.094H133.164V133.164H138.234V128.094Z" fill="black"/>
<path d="M138.234 133.164H133.164V138.234H138.234V133.164Z" fill="black"/>
<path d="M138.234 153.444H133.164V158.513H138.234V153.444Z" fill="black"/>
<path d="M143.304 11.4865H138.234V16.5564H143.304V11.4865Z" fill="black"/>
<path d="M143.304 21.6263H138.234V26.6962H143.304V21.6263Z" fill="black"/>
<path d="M143.304 26.6962H138.234V31.7661H143.304V26.6962Z" fill="black"/>
<path d="M143.304 31.7661H138.234V36.8359H143.304V31.7661Z" fill="black"/>
<path d="M143.304 41.9059H138.234V46.9758H143.304V41.9059Z" fill="black"/>
<path d="M143.304 62.1855H138.234V67.2554H143.304V62.1855Z" fill="black"/>
<path d="M143.304 72.3253H138.234V77.3952H143.304V72.3253Z" fill="black"/>
<path d="M143.304 87.5349H138.234V92.6048H143.304V87.5349Z" fill="black"/>
<path d="M143.304 102.745H138.234V107.815H143.304V102.745Z" fill="black"/>
<path d="M143.304 107.815H138.234V112.884H143.304V107.815Z" fill="black"/>
<path d="M143.304 128.094H138.234V133.164H143.304V128.094Z" fill="black"/>
<path d="M143.304 148.374H138.234V153.444H143.304V148.374Z" fill="black"/>
<path d="M148.374 11.4865H143.304V16.5564H148.374V11.4865Z" fill="black"/>
<path d="M148.374 21.6263H143.304V26.6962H148.374V21.6263Z" fill="black"/>
<path d="M148.374 26.6962H143.304V31.7661H148.374V26.6962Z" fill="black"/>
<path d="M148.374 31.7661H143.304V36.8359H148.374V31.7661Z" fill="black"/>
<path d="M148.374 41.9059H143.304V46.9758H148.374V41.9059Z" fill="black"/>
<path d="M148.374 57.1155H143.304V62.1854H148.374V57.1155Z" fill="black"/>
<path d="M148.374 77.3951H143.304V82.465H148.374V77.3951Z" fill="black"/>
<path d="M148.374 102.745H143.304V107.815H148.374V102.745Z" fill="black"/>
<path d="M148.374 117.954H143.304V123.024H148.374V117.954Z" fill="black"/>
<path d="M148.374 143.304H143.304V148.374H148.374V143.304Z" fill="black"/>
<path d="M153.444 11.4865H148.374V16.5564H153.444V11.4865Z" fill="black"/>
<path d="M153.444 41.9059H148.374V46.9758H153.444V41.9059Z" fill="black"/>
<path d="M153.444 52.0457H148.374V57.1155H153.444V52.0457Z" fill="black"/>
<path d="M153.444 57.1155H148.374V62.1854H153.444V57.1155Z" fill="black"/>
<path d="M153.444 67.2554H148.374V72.3253H153.444V67.2554Z" fill="black"/>
<path d="M153.444 77.3951H148.374V82.465H153.444V77.3951Z" fill="black"/>
<path d="M153.444 87.5349H148.374V92.6048H153.444V87.5349Z" fill="black"/>
<path d="M153.444 112.884H148.374V117.954H153.444V112.884Z" fill="black"/>
<path d="M153.444 117.954H148.374V123.024H153.444V117.954Z" fill="black"/>
<path d="M153.444 128.094H148.374V133.164H153.444V128.094Z" fill="black"/>
<path d="M153.444 133.164H148.374V138.234H153.444V133.164Z" fill="black"/>
<path d="M153.444 138.234H148.374V143.304H153.444V138.234Z" fill="black"/>
<path d="M153.444 143.304H148.374V148.374H153.444V143.304Z" fill="black"/>
<path d="M153.444 148.374H148.374V153.444H153.444V148.374Z" fill="black"/>
<path d="M153.444 153.444H148.374V158.513H153.444V153.444Z" fill="black"/>
<path d="M158.513 11.4865H153.444V16.5564H158.513V11.4865Z" fill="black"/>
<path d="M158.513 16.5564H153.444V21.6263H158.513V16.5564Z" fill="black"/>
<path d="M158.513 21.6263H153.444V26.6962H158.513V21.6263Z" fill="black"/>
<path d="M158.513 26.6962H153.444V31.7661H158.513V26.6962Z" fill="black"/>
<path d="M158.513 31.7661H153.444V36.8359H158.513V31.7661Z" fill="black"/>
<path d="M158.513 36.836H153.444V41.9059H158.513V36.836Z" fill="black"/>
<path d="M158.513 41.9059H153.444V46.9758H158.513V41.9059Z" fill="black"/>
<path d="M158.513 57.1155H153.444V62.1854H158.513V57.1155Z" fill="black"/>
<path d="M158.513 62.1855H153.444V67.2554H158.513V62.1855Z" fill="black"/>
<path d="M158.513 67.2554H153.444V72.3253H158.513V67.2554Z" fill="black"/>
<path d="M158.513 72.3253H153.444V77.3952H158.513V72.3253Z" fill="black"/>
<path d="M158.513 77.3951H153.444V82.465H158.513V77.3951Z" fill="black"/>
<path d="M158.513 82.465H153.444V87.5349H158.513V82.465Z" fill="black"/>
<path d="M158.513 97.6747H153.444V102.745H158.513V97.6747Z" fill="black"/>
<path d="M158.513 102.745H153.444V107.815H158.513V102.745Z" fill="black"/>
<path d="M158.513 107.815H153.444V112.884H158.513V107.815Z" fill="black"/>
<path d="M158.513 117.954H153.444V123.024H158.513V117.954Z" fill="black"/>
<path d="M158.513 123.024H153.444V128.094H158.513V123.024Z" fill="black"/>
<path d="M158.513 133.164H153.444V138.234H158.513V133.164Z" fill="black"/>
<path d="M158.513 143.304H153.444V148.374H158.513V143.304Z" fill="black"/>
<path d="M158.513 148.374H153.444V153.444H158.513V148.374Z" fill="black"/>
</svg>
