<svg width="300" height="100" viewBox="0 0 300 100" fill="none" xmlns="http://www.w3.org/2000/svg">
<g clip-path="url(#clip0)">
<path fill-rule="evenodd" clip-rule="evenodd" d="M192.201 63.3979V44.6526H168.395V63.3979H161.61V21.5H168.395V39.4814H192.201V21.5H198.985V63.3979H192.201Z" fill="black"/>
<path fill-rule="evenodd" clip-rule="evenodd" d="M90.4864 78.5H91.5392L87.8544 69.7443L84.1695 78.5H85.2223L86.1582 76.0907H89.5506L90.4864 78.5ZM86.5091 75.3268L87.8544 71.8598L89.1996 75.3268H86.5091Z" fill="black"/>
<path fill-rule="evenodd" clip-rule="evenodd" d="M150.38 78.5H151.433L147.748 69.7443L144.005 78.5H145.058L145.993 76.0907H149.386L150.38 78.5ZM146.344 75.3268L147.69 71.8598L149.035 75.3268H146.344Z" fill="black"/>
<path d="M188.34 70.2732V78.5H189.393V70.2732H188.34Z" fill="black"/>
<path d="M102.36 21.5V63.3979H109.145V21.5H102.36Z" fill="black"/>
<path d="M85.8657 21.5L72.53 49.8825C72.5885 49.8237 59.0188 21.5 59.0188 21.5H52L72.4715 63.3979L92.8845 21.5H85.8657Z" fill="black"/>
<path d="M140.788 57.7567C130.845 57.7567 123.533 51.3515 123.533 42.4196C123.533 33.4876 130.786 27.0825 140.788 27.0825C145.175 27.0825 149.21 28.4928 152.31 30.7845V24.2031C148.918 22.499 144.999 21.5 140.788 21.5C127.862 21.5 117.392 30.9021 117.392 42.4196C117.392 53.9959 127.862 63.3392 140.788 63.3392C144.999 63.3392 148.918 62.3402 152.31 60.6361V54.0546C149.21 56.4052 145.175 57.7567 140.788 57.7567Z" fill="black"/>
<path d="M101.6 74.5041V77.6773H102.652C104.056 77.6773 104.641 77.0897 104.641 76.0907C104.641 75.0918 103.998 74.4454 102.535 74.4454H101.6V74.5041ZM101.6 71.0371V73.6814H102.067C102.711 73.6814 103.12 73.6227 103.413 73.4464C103.764 73.2113 103.998 73.035 103.998 72.4474C103.998 71.8598 103.822 71.4484 103.471 71.2722C103.237 71.1546 102.769 71.0371 102.126 71.0371H101.6V71.0371ZM100.839 78.5V70.2732H102.184C103.998 70.2732 104.933 71.0371 104.933 72.5062C104.933 73.2113 104.641 73.7402 104.115 74.0928C104.583 74.2103 104.992 74.4454 105.226 74.8567C105.518 75.268 105.577 75.6794 105.577 76.2082C105.577 76.9722 105.284 77.5598 104.699 77.9711C104.173 78.3237 103.588 78.5 102.711 78.5H100.839Z" fill="black"/>
<path d="M118.913 70.8608C117.977 70.8608 117.158 71.2134 116.456 71.8598C115.813 72.5062 115.462 73.3289 115.462 74.2691C115.462 75.2093 115.813 75.9732 116.456 76.6783C117.099 77.3247 117.918 77.6773 118.913 77.6773C119.848 77.6773 120.667 77.3247 121.369 76.6783C122.013 76.0319 122.363 75.2093 122.363 74.2691C122.363 73.3289 122.013 72.5062 121.369 71.8598C120.667 71.1546 119.907 70.8608 118.913 70.8608ZM118.913 69.9794C120.141 69.9794 121.135 70.3907 122.013 71.2134C122.89 72.0361 123.299 73.035 123.299 74.2103C123.299 75.3856 122.89 76.3845 122.013 77.2072C121.135 78.0299 120.141 78.4412 118.913 78.4412C117.684 78.4412 116.69 78.0299 115.813 77.2072C114.935 76.3845 114.526 75.3856 114.526 74.2103C114.526 73.035 114.935 72.0361 115.813 71.2134C116.69 70.3907 117.743 69.9794 118.913 69.9794Z" fill="black"/>
<path d="M174.887 70.8608C173.952 70.8608 173.133 71.2134 172.431 71.8598C171.788 72.5062 171.437 73.3289 171.437 74.2691C171.437 75.2093 171.788 75.9732 172.431 76.6783C173.074 77.3247 173.893 77.6773 174.887 77.6773C175.823 77.6773 176.642 77.3247 177.344 76.6783C177.987 76.0319 178.338 75.2093 178.338 74.2691C178.338 73.3289 177.987 72.5062 177.344 71.8598C176.642 71.1546 175.823 70.8608 174.887 70.8608ZM174.887 69.9794C176.116 69.9794 177.11 70.3907 177.987 71.2134C178.865 72.0361 179.274 73.035 179.274 74.2103C179.274 75.3856 178.865 76.3845 177.987 77.2072C177.11 78.0299 176.116 78.4412 174.887 78.4412C173.659 78.4412 172.665 78.0299 171.788 77.2072C170.91 76.3845 170.501 75.3856 170.501 74.2103C170.501 73.035 170.91 72.0361 171.788 71.2134C172.606 70.3907 173.659 69.9794 174.887 69.9794Z" fill="black"/>
<path d="M230.453 71.2722L229.751 71.7423C229.4 71.1546 228.932 70.8608 228.347 70.8608C227.996 70.8608 227.645 70.9783 227.412 71.2134C227.119 71.4484 227.002 71.7423 227.002 72.1536C227.002 72.4474 227.119 72.7412 227.412 72.9763C227.587 73.0938 227.879 73.2701 228.23 73.4464L228.757 73.6814C229.4 73.9752 229.868 74.2691 230.161 74.5041C230.57 74.9154 230.745 75.3856 230.745 75.9732C230.745 76.6783 230.511 77.266 229.985 77.7948C229.459 78.2649 228.874 78.5587 228.172 78.5587C227.529 78.5587 226.944 78.3825 226.534 77.9711C226.066 77.5598 225.774 77.0897 225.657 76.4433L226.534 76.2082C226.593 76.6196 226.768 76.9722 227.061 77.266C227.353 77.5598 227.704 77.7361 228.172 77.7361C228.64 77.7361 228.991 77.5598 229.342 77.266C229.693 76.9722 229.868 76.5608 229.868 76.1495C229.868 75.7381 229.693 75.3856 229.4 75.0917C229.225 74.9154 228.874 74.7392 228.347 74.5041L227.879 74.2691C227.295 74.034 226.885 73.799 226.651 73.5051C226.3 73.1526 226.125 72.6825 226.125 72.1536C226.125 71.566 226.359 71.0371 226.827 70.6258C227.236 70.2732 227.762 70.0381 228.406 70.0381C229.283 69.9794 229.985 70.4495 230.453 71.2722Z" fill="black"/>
<path d="M213.198 78.5V70.2732H217.702V71.0959H214.134V73.5639H217.41V74.4454H214.134V77.6186H217.702V78.5H213.198Z" fill="black"/>
<path d="M73.4658 70.2732V77.6186H75.6884V78.5H72.53V70.2732H73.4658Z" fill="black"/>
<path d="M161.318 71.0959V78.5H160.382V71.0959H158.393V70.2732H163.306V71.0959H161.318Z" fill="black"/>
<path d="M132.424 71.0959V74.034H132.716C133.36 74.034 133.828 73.9753 134.12 73.799C134.529 73.5639 134.763 73.1526 134.763 72.5649C134.763 71.9773 134.529 71.5072 134.12 71.3309C133.828 71.1546 133.36 71.0959 132.658 71.0959H132.424ZM132.424 74.8567V78.5H131.488V70.2732H132.658C134.646 70.2732 135.641 71.0371 135.641 72.5649C135.641 73.2113 135.465 73.7402 135.056 74.1515C134.705 74.5629 134.178 74.7979 133.535 74.8567L136.226 78.5H135.114L132.658 74.8567H132.424Z" fill="black"/>
<path d="M200.389 71.0959V74.034H200.682C201.325 74.034 201.793 73.9753 202.085 73.799C202.495 73.5639 202.729 73.1526 202.729 72.5649C202.729 71.9773 202.495 71.5072 202.085 71.3309C201.793 71.1546 201.325 71.0959 200.623 71.0959H200.389ZM200.389 74.8567V78.5H199.453V70.2732H200.623C202.612 70.2732 203.606 71.0371 203.606 72.5649C203.606 73.2113 203.431 73.7402 203.08 74.1515C202.729 74.5629 202.202 74.7979 201.559 74.8567L204.191 78.5588H203.08L200.623 74.9155H200.389V74.8567Z" fill="black"/>
<path d="M248 21.5L229.576 45.4165V63.3979H223.317V45.4165L204.834 21.5H212.087L226.417 40.1866L240.747 21.5H248Z" fill="black"/>
</g>
<defs>
<clipPath id="clip0">
<rect width="196" height="57" fill="white" transform="translate(52 21.5)"/>
</clipPath>
</defs>
</svg>
