<svg width="300" height="100" viewBox="0 0 300 100" fill="none" xmlns="http://www.w3.org/2000/svg">
<g clip-path="url(#clip0)">
<path d="M217.031 59.2167C218.54 59.6252 220.486 59.877 222.195 59.8818C223.898 59.8818 225.676 59.6808 227.364 59.2167C230.445 58.1941 232.503 57.1186 234.465 54.548C236.569 51.7896 237.172 49.367 237.289 45.8917C237.204 43.4984 236.974 41.6258 235.875 39.4994C234.425 36.6854 232.817 35.077 230.23 33.6987C227.644 32.3176 224.899 31.8629 222.197 31.8884C219.434 31.912 216.778 32.3044 214.164 33.6987C211.544 35.0939 209.97 36.6863 208.519 39.4994C207.422 41.6258 207.192 43.4993 207.107 45.8917C207.224 49.367 207.897 51.8849 209.93 54.548C211.958 57.212 213.948 58.1941 217.031 59.2167ZM218.033 42.4899C218.466 41.8031 219.123 41.2654 219.877 40.9022C220.608 40.5551 221.423 40.3692 222.2 40.3702C222.973 40.3721 223.784 40.5551 224.508 40.9003C225.263 41.2607 225.927 41.7965 226.364 42.4909C226.985 43.5238 227.301 44.737 227.301 45.9332C227.301 47.5501 226.832 48.7227 225.729 50.0595C225.1 50.5925 224.607 50.9123 224.085 51.1122C223.491 51.3349 222.831 51.4075 222.202 51.4075C221.565 51.4075 220.899 51.3339 220.304 51.1075C219.783 50.9085 219.296 50.5877 218.668 50.0595C217.563 48.7227 217.094 47.5501 217.094 45.9332C217.093 44.7361 217.409 43.5229 218.033 42.4899Z" fill="#871B55"/>
<path d="M155.862 59.2167C157.375 59.6252 159.32 59.877 161.03 59.8818C162.735 59.8818 164.511 59.6808 166.198 59.2167C169.281 58.1941 171.337 57.1186 173.301 54.548C175.404 51.7896 176.006 49.367 176.123 45.8917C176.04 43.4984 175.808 41.6258 174.713 39.4994C173.265 36.6854 171.654 35.077 169.069 33.6987C166.482 32.3176 163.735 31.8629 161.035 31.8884C158.272 31.912 155.619 32.3044 152.999 33.6987C150.382 35.0939 148.809 36.6863 147.356 39.4994C146.261 41.6258 146.028 43.4993 145.946 45.8917C146.062 49.367 146.736 51.8849 148.767 54.548C150.794 57.212 152.783 58.1941 155.862 59.2167ZM156.867 42.4899C157.299 41.8031 157.962 41.2654 158.709 40.9022C159.44 40.5551 160.257 40.3692 161.037 40.3702C161.807 40.3721 162.617 40.5551 163.341 40.9003C164.097 41.2607 164.761 41.7965 165.2 42.4909C165.816 43.5238 166.137 44.737 166.137 45.9332C166.137 47.5501 165.665 48.7227 164.561 50.0595C163.93 50.5925 163.44 50.9123 162.917 51.1122C162.323 51.3349 161.663 51.4075 161.032 51.4075C160.397 51.4075 159.733 51.3339 159.137 51.1075C158.614 50.9085 158.13 50.5877 157.503 50.0595C156.398 48.7227 155.928 47.5501 155.928 45.9332C155.928 44.7361 156.245 43.5229 156.867 42.4899Z" fill="#871B55"/>
<path d="M117.021 45.203L120.979 59.1176H128.81L132.77 45.203L133.954 59.1176H144.105L140.417 32.328H128.947L124.941 47.6058L120.845 32.328H109.328L105.686 59.1176H115.835L117.021 45.203Z" fill="#871B55"/>
<path d="M257.127 46.269V59.1176H267.043V32.3846H257.668L250.427 45.6841V32.3846H240.511V59.1176H249.887L257.127 46.269Z" fill="#871B55"/>
<path d="M196.964 59.0733C197.732 59.0138 198.408 58.8884 199.143 58.6667C200.547 58.2431 201.711 57.4969 202.729 56.4318C203.973 55.1328 204.333 53.515 204.406 51.6613C204.44 50.7717 204.301 49.9783 203.995 49.1312C203.682 48.2416 203.109 47.3557 202.383 46.6331C201.661 45.9086 200.785 45.3483 199.869 45.1105L198.643 44.7936V44.7492C199.561 44.3945 200.24 44.104 201.046 43.4842C201.86 42.8634 202.374 42.2748 202.818 41.2258C203.193 40.1569 203.235 39.3589 203.18 38.2429C203.109 37.8966 203.05 37.5495 202.974 37.2052C202.36 35.4948 201.73 34.6043 200.188 33.5006C198.815 32.7836 197.685 32.527 196.241 32.3704L194.921 32.3251H180.467V59.1148H195.649C196.086 59.1034 196.528 59.1034 196.964 59.0733ZM190.658 38.7428H191.613C191.822 38.7589 192.039 38.756 192.246 38.7872C192.534 38.8334 192.903 38.9579 193.155 39.1041C193.726 39.4353 193.972 40.0343 193.972 40.639C193.972 41.2201 193.785 41.5946 193.472 41.904C193.138 42.2352 192.741 42.3993 192.288 42.4738C192.073 42.5087 191.86 42.521 191.613 42.537H190.658V38.7428V38.7428ZM194.29 51.8009C193.997 52.3046 193.31 52.599 192.747 52.6546C192.478 52.6839 192.202 52.7046 191.932 52.7046H190.658V48.6831H191.932C192.202 48.6831 192.336 48.6783 192.747 48.7264C193.157 48.7746 193.67 48.9887 193.972 49.2679C194.361 49.6321 194.56 50.1434 194.56 50.6688C194.56 51.0132 194.466 51.5009 194.29 51.8009Z" fill="#871B55"/>
<path d="M262.536 23.4377H246.075V29.3866H259.3L262.536 23.4377Z" fill="#871B55"/>
<path d="M83.6226 59.2167C85.1337 59.6252 87.0796 59.877 88.7848 59.8818C90.4929 59.8818 92.2693 59.6808 93.9556 59.2167C97.0374 58.1941 99.0951 57.1186 101.058 54.548C103.16 51.7896 103.764 49.367 103.88 45.8917C103.797 43.4984 103.565 41.6258 102.468 39.4994C101.018 36.6854 99.4134 35.077 96.8223 33.6987C94.2379 32.3157 91.4905 31.861 88.7905 31.8865C86.0261 31.9101 83.3725 32.3025 80.7531 33.6968C78.1345 35.0921 76.56 36.6844 75.1086 39.4976C74.0125 41.6239 73.7795 43.4974 73.698 45.8898C73.8155 49.3651 74.4881 51.883 76.5202 54.547C78.5523 57.2111 80.5427 58.1941 83.6226 59.2167ZM84.6231 42.4899C85.0569 41.8031 85.7182 41.2654 86.4704 40.9022C87.2008 40.5551 88.0165 40.3692 88.7953 40.3702C89.5702 40.3721 90.3764 40.5551 91.1002 40.9003C91.8543 41.2607 92.5203 41.7965 92.9552 42.4908C93.5766 43.5238 93.8959 44.737 93.8959 45.9332C93.8959 47.5501 93.4232 48.7227 92.3195 50.0595C91.6895 50.5925 91.1997 50.9123 90.6748 51.1122C90.0827 51.3349 89.4215 51.4075 88.7915 51.4075C88.1548 51.4075 87.4917 51.3339 86.8939 51.1075C86.3738 50.9085 85.8849 50.5877 85.2616 50.0595C84.156 48.7227 83.6861 47.5501 83.6861 45.9332C83.6852 44.7361 84.0035 43.5229 84.6231 42.4899Z" fill="#871B55"/>
<path d="M48.0253 23.4377L32.9991 76.9802H76.9427L61.9184 23.4377H48.0253ZM49.8092 62.1279L54.9117 40.34L60.2094 62.1279H49.8092Z" fill="#871B55"/>
<path d="M211.202 67.9579C211.202 68.5616 211.145 69.1805 211.027 69.8088C210.916 70.4408 210.731 70.987 210.486 71.4521H212.512V67.6541H211.202V67.9579Z" fill="#871B55"/>
<path d="M119.378 70.0937H118.406V71.4455H119.369C119.809 71.4455 120.066 71.1531 120.066 70.7597C120.066 70.3673 119.826 70.0937 119.378 70.0937Z" fill="#871B55"/>
<path d="M192.726 68.4513C192.726 69.006 193.002 69.2918 193.561 69.2918H194.255V67.657H193.716C193.359 67.657 193.104 67.7221 192.946 67.839C192.8 67.9579 192.726 68.1673 192.726 68.4513Z" fill="#871B55"/>
<path d="M140.428 67.6541H139.612V69.4276H140.4C140.941 69.4276 141.235 69.071 141.235 68.5324C141.235 67.9937 140.941 67.6541 140.428 67.6541Z" fill="#871B55"/>
<path d="M170.805 67.9579C170.805 68.5616 170.749 69.1805 170.631 69.8088C170.522 70.4408 170.336 70.987 170.09 71.4521H172.119V67.6541H170.805V67.9579Z" fill="#871B55"/>
<path d="M150.662 69.6748H149.967V71.4455H150.691C151.205 71.4455 151.5 71.1106 151.5 70.5682C151.498 70.0314 151.204 69.6748 150.662 69.6748Z" fill="#871B55"/>
<path d="M247.498 67.7758H247.48C247.38 68.2494 247.298 68.622 247.215 68.8965L246.841 70.1682H248.131L247.764 68.8965L247.498 67.7758Z" fill="#871B55"/>
<path d="M107.731 67.6381C107.237 67.6381 106.814 67.8182 106.475 68.1729C106.135 68.5314 105.963 68.9786 105.963 69.5059C105.963 70.0644 106.135 70.5295 106.475 70.9021C106.814 71.2757 107.237 71.4596 107.731 71.4596C108.226 71.4596 108.647 71.2776 108.987 70.9021C109.327 70.5285 109.5 70.0616 109.5 69.5059C109.5 68.9748 109.326 68.5314 108.987 68.1729C108.647 67.8211 108.226 67.6381 107.731 67.6381Z" fill="#871B55"/>
<path d="M119.809 68.2135C119.809 67.8843 119.607 67.6541 119.204 67.6541H118.406V68.8154H119.231C119.607 68.8154 119.809 68.5503 119.809 68.2135Z" fill="#871B55"/>
<path d="M77.6296 62.1081L81.798 77H266.996V62.1081H77.6296ZM99.384 67.6541H97.3936V72.8143H95.7897V67.6541H93.7993V66.2862H99.384V67.6541ZM110.178 71.9464C109.527 72.5955 108.713 72.9228 107.731 72.9228C106.75 72.9228 105.925 72.5945 105.274 71.9464C104.623 71.2889 104.301 70.4757 104.301 69.5088C104.301 68.5692 104.623 67.7758 105.274 67.1343C105.926 66.4957 106.75 66.1749 107.731 66.1749C108.713 66.1749 109.528 66.4957 110.178 67.1343C110.829 67.7758 111.159 68.5692 111.159 69.5088C111.159 70.4757 110.829 71.2889 110.178 71.9464ZM121.001 72.3398C120.533 72.6596 119.937 72.8143 119.213 72.8143H116.801V66.2862H119.213C120.561 66.2862 121.442 66.8985 121.442 67.9947C121.442 68.5531 121.156 69.1003 120.679 69.3843V69.4041C121.376 69.6144 121.706 70.2238 121.706 70.8729C121.707 71.5351 121.468 72.021 121.001 72.3398ZM131.072 72.8143L130.669 71.4455H128.625L128.229 72.8143H126.578L128.807 66.2862H130.495L132.723 72.8143H131.072ZM142.271 70.1682C141.876 70.5861 141.364 70.7965 140.731 70.7965H139.612V72.8143H138.007V66.2862H140.731C141.364 66.2862 141.877 66.4966 142.271 66.9164C142.665 67.3362 142.867 67.8749 142.867 68.5324C142.867 69.1994 142.665 69.7352 142.271 70.1682ZM152.533 72.186C152.14 72.603 151.627 72.8143 150.992 72.8143H148.362V66.2862H149.967V68.3041H150.992C151.627 68.3041 152.14 68.5173 152.533 68.9465C152.928 69.3635 153.131 69.9059 153.131 70.571C153.131 71.2248 152.928 71.7634 152.533 72.186ZM155.467 72.8143H153.863V66.2862H155.467V72.8143ZM174.454 74.0916H173.035V72.8143H169.248V74.0916H167.771V71.4521H168.45C169.007 70.4927 169.283 69.2795 169.283 67.8277V66.2834H173.724V71.4521H174.454V74.0916ZM185.26 72.8143H183.654V67.6541H182.379V68.4513C182.379 70.0116 182.141 71.1436 181.674 71.8493C181.206 72.5417 180.492 72.8888 179.548 72.8888V71.4408C179.832 71.404 180.061 71.3031 180.235 71.137C180.606 70.8087 180.861 69.9342 180.861 68.4381V66.2919H185.263V72.8181H185.261V72.8143H185.26ZM195.861 72.8143H194.255V70.6144H193.67L192.434 72.8143H190.644L191.9 70.7153L192.149 70.321V70.304C191.444 69.9097 191.094 69.2692 191.094 68.3654C191.094 67.4051 191.571 66.7221 192.304 66.4391C192.568 66.3391 192.999 66.2834 193.58 66.2834H195.861V72.8143V72.8143ZM214.849 74.0916H213.429V72.8143H209.642V74.0916H208.165V71.4521H208.844C209.403 70.4927 209.679 69.2795 209.679 67.8277V66.2834H214.116V71.4521H214.849V74.0916V74.0916ZM225.875 71.9464C225.222 72.5955 224.405 72.9228 223.425 72.9228C222.443 72.9228 221.619 72.5945 220.967 71.9464C220.316 71.2889 219.998 70.4757 219.998 69.5088C219.998 68.5692 220.317 67.7758 220.967 67.1343C221.619 66.4957 222.443 66.1749 223.425 66.1749C224.405 66.1749 225.221 66.4957 225.875 67.1343C226.525 67.7758 226.854 68.5692 226.854 69.5088C226.854 70.4757 226.522 71.2889 225.875 71.9464ZM237.777 72.8143L237.576 69.8739C237.548 69.5824 237.556 69.1626 237.561 68.9465L237.576 68.7796H237.556C237.41 69.2343 237.291 69.5993 237.189 69.8739L236.5 71.7662H235.124L234.436 69.8739L234.068 68.7796H234.05C234.076 69.1833 234.076 69.5465 234.05 69.8739L233.846 72.8143H232.232L232.773 66.2862H234.516L235.468 69.0428L235.8 70.1229H235.82C235.939 69.6842 236.048 69.3267 236.153 69.0428L237.104 66.2862H238.848L239.381 72.8143H237.777ZM248.911 72.8143L248.507 71.4455H246.463L246.067 72.8143H244.418L246.648 66.2862H248.331L250.561 72.8143H248.911Z" fill="#871B55"/>
<path d="M129.659 67.7758H129.642C129.541 68.2494 129.458 68.622 129.376 68.8965L129 70.1682H130.293L129.925 68.8965L129.659 67.7758Z" fill="#871B55"/>
<path d="M223.425 67.6381C222.931 67.6381 222.509 67.8182 222.171 68.1729C221.833 68.5314 221.658 68.9786 221.658 69.5059C221.658 70.0644 221.833 70.5295 222.171 70.9021C222.509 71.2757 222.931 71.4596 223.425 71.4596C223.92 71.4596 224.343 71.2776 224.682 70.9021C225.021 70.5285 225.195 70.0616 225.195 69.5059C225.195 68.9748 225.021 68.5314 224.682 68.1729C224.343 67.8211 223.92 67.6381 223.425 67.6381Z" fill="#871B55"/>
</g>
<defs>
<clipPath id="clip0">
<rect width="234" height="54" fill="white" transform="translate(33 23)"/>
</clipPath>
</defs>
</svg>
