<svg width="300" height="100" viewBox="0 0 300 100" fill="none" xmlns="http://www.w3.org/2000/svg">
<path fill-rule="evenodd" clip-rule="evenodd" d="M161.317 48.7787C161.317 48.7787 159.04 47.3709 157.633 46.8262C157.633 46.8262 153.275 44.8066 152.41 43.8457C152.41 43.8457 150.712 42.2452 151.707 40.3862C151.707 40.3862 152.123 39.1698 153.918 39.1698C153.918 39.1698 156.254 39.2983 156.254 41.2186V43.9275H164.627L164.613 39.9379C164.613 39.9379 165.257 33.4045 154.75 33.1168C154.75 33.1168 146.486 32.5735 144.116 37.0246C144.116 37.0246 143.186 38.0176 143.186 41.4756V43.9742C143.186 43.9742 143.091 46.8569 144.563 48.7144C144.563 48.7144 145.395 49.9323 147.445 51.2758C147.445 51.2758 151.609 53.5174 154.107 54.801C154.107 54.801 156.629 56.2409 156.298 58.5321C156.298 58.5321 156.092 60.8847 153.656 60.7883C153.656 60.7883 151.429 60.689 151.429 58.3817V55.6743H142.507V59.6069C142.507 59.6069 142.257 67.1275 153.722 67.1275C153.722 67.1275 164.677 67.3495 165.188 59.4098V56.2073C165.187 56.2073 165.575 51.3415 161.317 48.7787V48.7787ZM118.448 34.0528L115.644 51.6234H114.988L112.31 34.2105H98.3233L97.6223 66.0294H105.904L106.003 42.0554H106.654L111.044 66.025H119.756L124.092 42.0641H124.669L124.869 66.0294H133.194L132.298 34.0528H118.448V34.0528ZM69.1506 34.1857L63.6408 65.9929H72.556L75.8198 41.331H76.5529L79.8153 65.9929H88.729L83.2207 34.1857H69.1506V34.1857ZM256.22 48.3406V53.0326H258.507V58.0692C258.507 60.5313 256.403 60.5766 256.403 60.5766C253.844 60.5766 253.94 58.2371 253.94 58.2371V40.8156C253.94 39.0208 256.211 38.9244 256.211 38.9244C258.39 38.9244 258.405 41.0653 258.405 41.0653V43.7143H266.798C267.073 38.5433 266.042 37.2918 266.042 37.2918C263.96 32.6159 256.083 32.8714 256.083 32.8714C243.978 32.8714 245.322 42.159 245.322 42.159V59.0038C245.582 67.7146 257.509 66.8296 257.711 66.8223C263.016 66.2353 264.618 64.5486 264.618 64.5486C266.093 63.4534 266.473 61.9361 266.473 61.9361C266.895 61.0526 267 58.2371 267 58.2371V48.3406H256.22V48.3406ZM228.397 53.5174H228.031L219.513 34.0616H209.322V66.0323H217.617L217.12 46.5794H217.491L226.316 66.0323H236.198V34.0587H227.798L228.397 53.5174V53.5174ZM189.075 58.0663C189.075 58.0663 189.194 60.6905 186.762 60.6905C186.762 60.6905 184.203 60.8277 184.203 58.132L184.177 34.0806H175.079V57.9407C175.079 57.9407 174.146 66.9713 186.89 66.9713C186.89 66.9713 197.965 67.1027 197.965 58.3554V34.082H189.075V58.0663V58.0663ZM51.8064 48.7787C51.8064 48.7787 49.5327 47.3709 48.1235 46.8277C48.1235 46.8277 43.7688 44.8095 42.9043 43.8472C42.9043 43.8472 41.206 42.2437 42.2019 40.3891C42.2019 40.3891 42.6166 39.1727 44.4099 39.1727C44.4099 39.1727 46.7479 39.2997 46.7479 41.2201V43.9289H55.1242L55.1082 39.9379C55.1082 39.9379 55.7478 33.4045 45.2452 33.1182C45.2452 33.1182 44.4537 33.0671 43.2927 33.1255C43.2927 33.1255 36.9301 33.4672 34.655 36.9574C34.6418 36.9837 34.6228 37.0027 34.6097 37.026C34.6097 37.026 33.6809 38.0176 33.6809 41.4771V43.9757C33.6809 43.9757 33.5846 46.8583 35.058 48.7159C35.058 48.7159 35.8904 49.9338 37.9407 51.2773C37.9407 51.2773 42.1026 53.5188 44.6012 54.8025C44.6012 54.8025 47.1261 56.2394 46.7917 58.5336C46.7917 58.5336 46.5858 60.8861 44.1514 60.7898C44.1514 60.7898 41.9244 60.6905 41.9244 58.3832V55.6743H33.0004V59.6098C33.0004 59.6098 32.7507 67.1305 44.2157 67.1305C44.2157 67.1305 55.168 67.3524 55.6835 59.4127V56.2131C55.6835 56.2102 56.0661 51.3415 51.8064 48.7787V48.7787Z" fill="#172E9D"/>
</svg>
