<svg width="300" height="100" viewBox="0 0 300 100" fill="none" xmlns="http://www.w3.org/2000/svg">
<g clip-path="url(#clip0)">
<path fill-rule="evenodd" clip-rule="evenodd" d="M58.5589 26.999C57.7523 26.999 56.9082 27.0803 56.0983 27.2397V35.6055C56.9093 35.7264 57.6718 35.767 58.4377 35.767C61.425 35.767 63.6806 34.1163 63.6806 30.983C63.6795 27.9277 61.5043 26.999 58.5589 26.999ZM58.5589 40.0345C57.7126 40.0345 56.9446 39.9543 56.0983 39.8312V50.6522H51.0581V23.4623C53.5176 22.8963 56.0972 22.6952 58.6382 22.6952C64.0046 22.6952 68.9279 25.1878 68.9279 31.1445C68.9279 37.0155 64.1269 40.0345 58.5589 40.0345Z" fill="#6E0F6C"/>
<path fill-rule="evenodd" clip-rule="evenodd" d="M80.2424 33.9998C77.6595 33.9998 76.1675 36.1704 76.0496 38.5828H84.3526C84.3151 36.0539 82.9443 33.9998 80.2424 33.9998ZM89.0732 42.3656H76.0496C76.3703 45.4649 78.465 46.909 81.4512 46.909C83.1008 46.909 85.1184 46.5112 86.573 45.8649L88.1068 49.6049C85.9261 50.527 83.5482 51.093 81.1692 51.093C74.9587 51.093 70.8453 46.8684 70.8453 40.6336C70.8453 34.8021 74.0287 30.0126 80.1995 30.0126C86.0044 30.0126 89.3575 34.1152 89.3575 39.7104C89.3575 40.5973 89.233 41.4809 89.0732 42.3656Z" fill="#6E0F6C"/>
<path fill-rule="evenodd" clip-rule="evenodd" d="M97.7982 30.5389V38.1827H105.58V30.5389H110.421V50.6522H105.58V41.9633H97.7982V50.6522H92.9575V30.5389H97.7982Z" fill="#6E0F6C"/>
<path fill-rule="evenodd" clip-rule="evenodd" d="M124.501 33.9998C121.919 33.9998 120.428 36.1704 120.307 38.5828H128.615C128.576 36.0539 127.204 33.9998 124.501 33.9998ZM133.336 42.3656H120.307C120.631 45.4649 122.729 46.909 125.71 46.909C127.364 46.909 129.383 46.5112 130.833 45.8649L132.367 49.6049C130.188 50.527 127.81 51.093 125.431 51.093C119.218 51.093 115.107 46.8684 115.107 40.6336C115.107 34.8021 118.294 30.0126 124.462 30.0126C130.271 30.0126 133.618 34.1152 133.618 39.7104C133.617 40.5973 133.498 41.4809 133.336 42.3656Z" fill="#6E0F6C"/>
<path fill-rule="evenodd" clip-rule="evenodd" d="M146.78 51.0941C140.566 51.0941 135.81 46.953 135.81 40.5973C135.81 34.3603 140.08 30.0961 146.336 30.0961C148.549 30.0961 150.932 30.6225 152.988 31.5061L151.537 35.4033C150.004 34.8032 148.269 34.2812 146.615 34.2812C143.067 34.2812 140.969 37.1386 140.969 40.4753C140.969 44.0515 143.31 46.909 147.058 46.909C148.592 46.909 150.164 46.4287 151.574 45.9056L152.987 49.6862C151.01 50.5698 148.915 51.0941 146.78 51.0941Z" fill="#6E0F6C"/>
<path fill-rule="evenodd" clip-rule="evenodd" d="M165.57 51.0941C159.359 51.0941 154.598 46.953 154.598 40.5973C154.598 34.3603 158.873 30.0961 165.127 30.0961C167.346 30.0961 169.725 30.6225 171.784 31.5061L170.328 35.4033C168.798 34.8032 167.065 34.2812 165.41 34.2812C161.858 34.2812 159.766 37.1386 159.766 40.4753C159.766 44.0515 162.103 46.909 165.854 46.909C167.382 46.909 168.959 46.4287 170.374 45.9056L171.785 49.6862C169.808 50.5698 167.707 51.0941 165.57 51.0941Z" fill="#6E0F6C"/>
<path fill-rule="evenodd" clip-rule="evenodd" d="M187.281 45.7451V40.7951C185.621 42.3656 180.099 41.7238 180.099 44.6186C180.099 46.7068 182.116 47.0727 183.85 47.0727C185.022 47.0727 186.232 46.8694 187.362 46.5111C187.361 46.5111 187.281 46.0243 187.281 45.7451ZM183.81 51.0941C179.941 51.0941 174.775 49.6862 174.775 44.9802C174.775 36.8551 187.281 39.6334 187.281 36.1308C187.281 34.4372 185.102 34.2823 183.891 34.2823C182.079 34.2823 179.982 34.7636 178.284 35.4857L176.633 31.8314C179.016 30.7445 181.957 30.0972 184.58 30.0972C188.894 30.0972 192.12 31.9897 192.12 36.6595V46.9936C192.12 47.8355 192.401 49.5236 192.401 49.5236C189.619 50.3709 186.755 51.0941 183.81 51.0941Z" fill="#6E0F6C"/>
<path fill-rule="evenodd" clip-rule="evenodd" d="M201.544 30.5389V38.1827H209.325V30.5389H214.168V50.6522H209.325V41.9633H201.544V50.6522H196.699V30.5389H201.544Z" fill="#6E0F6C"/>
<path fill-rule="evenodd" clip-rule="evenodd" d="M228.764 51.0941C222.552 51.0941 217.793 46.953 217.793 40.5973C217.793 34.3603 222.066 30.0961 228.321 30.0961C230.539 30.0961 232.92 30.6225 234.976 31.5061L233.526 35.4033C231.989 34.8032 230.257 34.2812 228.603 34.2812C225.054 34.2812 222.959 37.1386 222.959 40.4753C222.959 44.0515 225.295 46.909 229.043 46.909C230.58 46.909 232.151 46.4287 233.565 45.9056L234.976 49.6862C232.997 50.5698 230.901 51.0941 228.764 51.0941Z" fill="#6E0F6C"/>
<path fill-rule="evenodd" clip-rule="evenodd" d="M242.958 24.9482C244.45 24.9482 245.459 24.2657 245.459 22.7359C245.459 21.2038 244.493 20.6873 243.041 20.6873C242.639 20.6873 242.156 20.7653 241.872 20.8038V24.9076C242.156 24.9076 242.558 24.9482 242.958 24.9482ZM249.172 23.8195C249.172 20.4807 246.47 17.7837 243.162 17.7837C239.816 17.7837 237.154 20.4807 237.154 23.8195C237.154 26.0758 238.361 28.0046 240.177 29.052V19.5982C241.144 19.3179 242.073 19.2761 243.079 19.2761C245.217 19.2761 247.194 20.3598 247.194 22.7348C247.194 25.1482 245.298 26.3978 243.04 26.3978C242.557 26.3978 241.871 26.2736 241.871 26.2736V29.696C242.273 29.7752 242.717 29.8147 243.161 29.8147C246.47 29.8147 249.172 27.1221 249.172 23.8195ZM250.5 23.8195C250.5 27.8442 247.194 31.1456 243.162 31.1456C239.087 31.1456 235.822 27.8453 235.822 23.8195C235.822 19.7608 239.087 16.5 243.162 16.5C247.194 16.5 250.5 19.7608 250.5 23.8195Z" fill="#ADC42B"/>
<path fill-rule="evenodd" clip-rule="evenodd" d="M56.571 77.762C52.7 77.762 49.5 75.1353 49.5 70.7898C49.5 66.6354 52.16 63.767 56.2471 63.767C57.6707 63.767 59.1242 64.0868 60.4145 64.622L59.6905 66.5783C58.9368 66.2837 57.6707 65.8551 56.4057 65.8551C53.5066 65.8551 52.1876 68.2422 52.1876 70.7348C52.1876 73.7945 54.257 75.6958 56.7043 75.6958C57.89 75.6958 58.9379 75.3518 59.7181 75.0518L60.4145 76.9311C59.2322 77.4674 57.9121 77.762 56.571 77.762Z" fill="#ADC42B"/>
<path fill-rule="evenodd" clip-rule="evenodd" d="M72.9279 66.098H68.5985V77.4675H66.1776V66.098H61.8492V64.0582H72.9279V66.098Z" fill="#ADC42B"/>
<path fill-rule="evenodd" clip-rule="evenodd" d="M78.8706 65.8551C77.956 65.8551 77.2045 66.0442 76.5025 66.3112C76.5025 66.3936 76.5874 66.7091 76.5874 66.93V75.2463C77.2056 75.5375 77.9846 75.6716 78.6557 75.6716C81.6937 75.6716 83.0138 73.6868 83.0138 70.7348C83.0127 68.162 81.8512 65.8551 78.8706 65.8551ZM79.0568 77.762C78.2237 77.762 77.416 77.6026 76.5863 77.3059V83.5H74.1654V66.42C74.1654 65.8551 74.0023 64.7286 74.0023 64.7286C75.2948 64.2439 77.3345 63.767 78.8706 63.767C83.1989 63.767 85.6991 66.7365 85.6991 70.7348C85.6991 74.788 82.93 77.762 79.0568 77.762Z" fill="#ADC42B"/>
<path fill-rule="evenodd" clip-rule="evenodd" d="M95.8423 74.677V70.4699C95.2252 70.9513 94.1454 71.1414 93.1558 71.3514C91.5966 71.7008 90.1707 72.1328 90.1707 73.6307C90.1707 75.0276 91.298 75.6716 93.1018 75.6716C94.0693 75.6716 95.0379 75.5112 95.8974 75.2155C95.8963 75.2155 95.8423 74.8649 95.8423 74.677ZM93.1007 77.762C89.8192 77.762 87.4832 76.4453 87.4832 73.822C87.4832 70.8667 89.9019 70.0666 92.1057 69.6094C94.0396 69.2105 95.8115 68.995 95.8115 67.6817C95.8115 66.1255 94.3382 65.8562 93.179 65.8562C91.806 65.8562 90.1939 66.4717 89.6297 66.7102L88.7977 64.8363C90.1156 64.222 91.914 63.767 93.3432 63.767C96.5398 63.767 98.261 65.2408 98.261 68.0499V75.0518C98.261 75.62 98.4517 76.7729 98.4517 76.7729C96.866 77.2762 94.9542 77.762 93.1007 77.762Z" fill="#ADC42B"/>
<path fill-rule="evenodd" clip-rule="evenodd" d="M110.155 77.4675L106.631 72.3185L103.085 77.4675H100.208L105.18 70.4963L100.476 64.0582H103.431L106.821 68.9104L110.046 64.0582H112.895L108.3 70.7623L113.166 77.4675H110.155Z" fill="#ADC42B"/>
<path fill-rule="evenodd" clip-rule="evenodd" d="M120.367 65.8551C117.788 65.8551 116.523 68.0785 116.523 70.7612C116.523 73.4472 117.788 75.6705 120.367 75.6705C122.948 75.6705 124.184 73.4472 124.184 70.7612C124.183 68.0796 122.947 65.8551 120.367 65.8551ZM120.338 77.762C116.436 77.762 113.832 74.843 113.832 70.7612C113.832 66.6893 116.437 63.7659 120.338 63.7659C124.239 63.7659 126.873 66.6893 126.873 70.7612C126.873 74.843 124.238 77.762 120.338 77.762Z" fill="#ADC42B"/>
<path fill-rule="evenodd" clip-rule="evenodd" d="M133.965 75.7508C135.686 75.7508 137.705 75.4046 137.705 73.6615C137.705 71.78 136.281 71.3788 133.67 71.3788H132.032V75.6453C132.483 75.6958 133.211 75.7508 133.965 75.7508ZM132.03 69.583H133.669C135.176 69.583 137.11 69.2874 137.11 67.4883C137.11 65.9343 135.524 65.6111 133.991 65.6111C133.269 65.6111 132.568 65.6958 132.03 65.7485V69.583ZM140.447 73.6615C140.447 75.2463 139.476 76.5014 137.89 77.1476C136.573 77.6565 134.693 77.7631 133.344 77.7631C131.407 77.7631 129.583 77.3883 129.583 77.3883V64.1395C129.583 64.1395 131.838 63.767 133.72 63.767C135.982 63.767 138.054 64.0329 139.183 65.4232C139.665 65.9617 139.879 66.5783 139.879 67.3289C139.879 68.6423 138.829 69.6643 137.673 70.3073C139.155 70.7898 140.447 72.0229 140.447 73.6615Z" fill="#ADC42B"/>
<path fill-rule="evenodd" clip-rule="evenodd" d="M150.525 74.677V70.4699C149.908 70.9513 148.833 71.1414 147.839 71.3514C146.277 71.7008 144.852 72.1328 144.852 73.6307C144.852 75.0276 145.983 75.6716 147.782 75.6716C148.752 75.6716 149.72 75.5112 150.581 75.2155C150.579 75.2155 150.525 74.8649 150.525 74.677ZM147.78 77.762C144.498 77.762 142.16 76.4453 142.16 73.822C142.16 70.8667 144.581 70.0666 146.786 69.6094C148.722 69.2105 150.496 68.995 150.496 67.6817C150.496 66.1255 149.018 65.8562 147.865 65.8562C146.492 65.8562 144.878 66.4717 144.315 66.7102L143.481 64.8363C144.796 64.222 146.601 63.767 148.025 63.767C151.223 63.767 152.946 65.2408 152.946 68.0499V75.0518C152.946 75.62 153.133 76.7729 153.133 76.7729C151.545 77.2762 149.638 77.762 147.78 77.762Z" fill="#ADC42B"/>
<path fill-rule="evenodd" clip-rule="evenodd" d="M167.484 64.0582V77.4675H165.036V71.4063H158.823V77.4675H156.407V64.0582H158.823V69.3687H165.036V64.0582H167.484Z" fill="#ADC42B"/>
<path fill-rule="evenodd" clip-rule="evenodd" d="M173.443 64.0582V69.7182C173.443 71.8393 173.415 73.1758 173.306 75.0826H173.387C174.197 73.4703 174.654 72.5372 175.567 70.9799L179.762 64.0593H182.692V77.4686H180.272V71.7811C180.272 69.6105 180.328 68.4642 180.437 66.3123H180.352C179.492 68.0279 178.93 69.1006 178.147 70.4711C177.127 72.0811 176.025 74.0374 174.868 75.9134C174.009 77.3356 172.851 77.6312 172.046 77.6312C171.454 77.6312 171.024 77.4686 171.024 77.4686V64.0582H173.443Z" fill="#ADC42B"/>
<path fill-rule="evenodd" clip-rule="evenodd" d="M191.342 65.8298C189.247 65.8298 188.091 67.5454 188.033 69.6391H194.571C194.543 67.652 193.551 65.8298 191.342 65.8298ZM196.991 71.5953H188.033C188.17 73.9791 189.652 75.6705 192.229 75.6705C193.331 75.6705 194.435 75.4573 195.429 75.0518L196.183 76.874C194.893 77.4663 193.442 77.762 192.017 77.762C187.901 77.762 185.402 74.732 185.402 70.7348C185.402 67.0608 187.309 63.767 191.321 63.767C195.081 63.767 197.126 66.5541 197.126 70.1215C197.125 70.5743 197.071 71.0821 196.991 71.5953Z" fill="#ADC42B"/>
</g>
<defs>
<clipPath id="clip0">
<rect width="201" height="67" fill="white" transform="translate(49.5 16.5)"/>
</clipPath>
</defs>
</svg>
