<svg width="300" height="100" viewBox="0 0 300 100" fill="none" xmlns="http://www.w3.org/2000/svg">
<g clip-path="url(#clip0)">
<path d="M253 71.0848H247.375L237.763 59.846L228.199 71.0848H222.607L234.958 56.5677L223.277 42.9147H228.903L237.756 53.2693L246.566 42.9147H252.16L240.561 56.5498L253 71.0825V71.0848ZM205.43 72.5C196.705 72.5 189.633 65.5587 189.633 56.9975C189.633 48.4385 196.708 41.5018 205.432 41.5018C214.157 41.5018 221.228 48.4408 221.228 56.9998C221.228 65.561 214.154 72.5 205.428 72.5H205.43ZM205.462 45.689C200.807 45.689 196.613 48.4363 194.831 52.655C193.961 54.7181 193.734 56.9931 194.179 59.1859C194.624 61.3787 195.72 63.3886 197.326 64.9557C198.946 66.537 200.997 67.6114 203.225 68.0461C205.453 68.4808 207.761 68.2567 209.862 67.4015C211.954 66.561 213.747 65.12 215.011 63.2626C216.275 61.4051 216.954 59.2154 216.961 56.9727C216.961 50.7402 211.811 45.689 205.462 45.689ZM168.798 71.78C159.958 71.78 157.305 69.665 157.305 69.665V28.7893H161.615V43.61C163.865 42.5975 166.324 42.1025 168.798 42.17C177.527 42.17 184.603 48.407 184.603 56.9615C184.603 65.5182 177.52 71.78 168.794 71.78H168.798ZM168.798 46.4067C166.229 46.4413 163.728 47.2364 161.615 48.6905V66.1415C163.851 67.2067 166.322 67.692 168.798 67.5523C175.146 67.5523 180.293 63.2008 180.293 56.9795C180.293 50.7583 175.141 46.4045 168.794 46.4045L168.798 46.4067V46.4067ZM142.937 28.787H147.247V71.0758H142.937V28.787ZM128.569 28.787H132.879V71.0758H128.569V28.787ZM116.214 35.0825C115.747 35.0855 115.284 34.997 114.852 34.8222C114.42 34.6474 114.026 34.3897 113.694 34.0638C113.362 33.7378 113.098 33.3501 112.916 32.9226C112.735 32.4952 112.64 32.0364 112.637 31.5725C112.637 29.6375 114.24 28.0647 116.214 28.0647C118.19 28.0647 119.79 29.6375 119.79 31.5747C119.79 32.504 119.415 33.3973 118.742 34.0565C118.068 34.7154 117.159 35.084 116.214 35.0825V35.0825ZM101.986 71.0758L86.9097 56.2843L100.558 42.8832H106.652L93.0014 56.2843L108.078 71.0758H101.986ZM82.5882 71.0758V28.787H86.8984V71.0758H82.5882V71.0758ZM75.7608 59.5738C75.7608 66.641 70.0245 71.7687 60.9107 71.7687C55.6417 71.6304 50.6415 69.4273 47 65.6398L50.047 62.3322C52.8993 64.9962 56.2564 67.586 60.8518 67.586C65.9565 67.586 71.4597 64.778 71.4597 59.7335C71.4597 55.5463 68.0663 52.8125 60.9356 50.657C52.8087 48.2247 48.6842 44.9195 48.6842 38.7005C48.6842 32.549 53.9904 27.5 61.5513 27.5C67.1993 27.5 70.733 29.8625 74.1716 32.8775L71.1767 36.1445C68.1614 33.521 65.2865 31.7457 61.7596 31.7457C57.3883 31.7457 53.0691 34.5133 53.0691 38.4958C53.0691 42.1048 55.1834 44.4042 62.6492 46.6452C69.4857 48.7107 75.7608 51.9103 75.7608 59.5738V59.5738ZM118.523 71.0758H114.21V42.8832H118.52V71.0758H118.523Z" fill="black"/>
</g>
<defs>
<clipPath id="clip0">
<rect width="206" height="45" fill="white" transform="translate(47 27.5)"/>
</clipPath>
</defs>
</svg>
