<svg width="24" height="24" viewBox="0 0 24 24" fill="none" xmlns="http://www.w3.org/2000/svg">
<g clip-path="url(#clip0)">
<path d="M22.0573 6.17956C22.045 5.53159 22.0333 4.91947 22.0333 4.32728C22.0333 3.86334 21.6573 3.48722 21.1932 3.48722C17.6005 3.48722 14.8652 2.45473 12.5852 0.237863C12.259 -0.0793438 11.7399 -0.0792318 11.4139 0.237863C9.13407 2.45473 6.39916 3.48722 2.80672 3.48722C2.34279 3.48722 1.96666 3.86334 1.96666 4.32728C1.96666 4.91958 1.95501 5.53193 1.94258 6.18001C1.82744 12.2101 1.66973 20.4686 11.7244 23.9537C11.8135 23.9846 11.9065 24.0001 11.9995 24.0001C12.0924 24.0001 12.1855 23.9846 12.2746 23.9537C22.33 20.4684 22.1725 12.2097 22.0573 6.17956ZM11.9996 22.2685C3.3764 19.136 3.50678 12.2738 3.62248 6.21204C3.62942 5.84824 3.63614 5.49564 3.64085 5.14998C7.00558 5.00796 9.69624 3.98835 11.9996 1.98183C14.3031 3.98835 16.9942 5.00807 20.3592 5.14998C20.3639 5.49553 20.3706 5.84791 20.3776 6.21148C20.4932 12.2735 20.6234 19.1359 11.9996 22.2685Z" fill="#333333"/>
<path d="M14.8924 9.08181L10.8378 13.1362L9.1076 11.406C8.77952 11.078 8.2476 11.078 7.91964 11.406C7.59157 11.7342 7.59157 12.266 7.91964 12.5941L10.2438 14.9182C10.4078 15.0822 10.6228 15.1642 10.8378 15.1642C11.0527 15.1642 11.2678 15.0822 11.4318 14.9182L16.0802 10.2699C16.4084 9.94181 16.4084 9.40989 16.0803 9.08193C15.7524 8.75385 15.2204 8.75374 14.8924 9.08181Z" fill="#333333"/>
</g>
<defs>
<clipPath id="clip0">
<rect width="24" height="24" fill="white"/>
</clipPath>
</defs>
</svg>
