<svg width="24" height="24" viewBox="0 0 24 24" fill="none" xmlns="http://www.w3.org/2000/svg">
<g clip-path="url(#clip0)">
<path fill-rule="evenodd" clip-rule="evenodd" d="M0 7.2H24C24 6.4752 23.5584 5.8236 22.8864 5.5548L12.6684 1.4676C12.2393 1.296 11.7607 1.296 11.3316 1.4676L1.1136 5.5548C0.4416 5.8236 0 6.4752 0 7.2ZM0 9.6V10.8C0 11.1183 0.126428 11.4235 0.351472 11.6485C0.576516 11.8736 0.88174 12 1.2 12V20.4C0.88174 20.4 0.576516 20.5264 0.351472 20.7515C0.126428 20.9765 0 21.2817 0 21.6C0 21.9183 0.126428 22.2235 0.351472 22.4485C0.576516 22.6736 0.88174 22.8 1.2 22.8H22.8C23.1183 22.8 23.4235 22.6736 23.6485 22.4485C23.8736 22.2235 24 21.9183 24 21.6C24 21.2817 23.8736 20.9765 23.6485 20.7515C23.4235 20.5264 23.1183 20.4 22.8 20.4V12C23.1183 12 23.4235 11.8736 23.6485 11.6485C23.8736 11.4235 24 11.1183 24 10.8V9.6H0ZM4.8 12H7.2V20.4H4.8V12ZM13.2 12H10.8V20.4H13.2V12ZM16.8 12H19.2V20.4H16.8V12Z" fill="#333333"/>
</g>
<defs>
<clipPath id="clip0">
<rect width="24" height="24" fill="white"/>
</clipPath>
</defs>
</svg>
