<svg width="24" height="25" viewBox="0 0 24 25" fill="none" xmlns="http://www.w3.org/2000/svg">
<path fill-rule="evenodd" clip-rule="evenodd" d="M2.99995 1.30303C2.52256 1.30303 2.06472 1.49267 1.72716 1.83024C1.38959 2.1678 1.19995 2.62564 1.19995 3.10303V16.303C1.19995 16.7804 1.38959 17.2383 1.72716 17.5758C2.06472 17.9134 2.52256 18.103 2.99995 18.103H8.39995C8.39995 18.733 8.38195 19.0546 8.22715 19.3666C8.08315 19.6534 7.72795 20.0986 6.66355 20.6302C6.41989 20.7522 6.225 20.9534 6.11092 21.2009C5.99684 21.4483 5.97037 21.7272 6.03586 21.9917C6.10136 22.2562 6.25492 22.4906 6.47128 22.6562C6.68765 22.8218 6.95393 22.9089 7.22635 22.903H16.7736C17.0481 22.9081 17.3161 22.8193 17.5332 22.6512C17.7504 22.4832 17.9036 22.246 17.9676 21.979C18.0307 21.7118 18.0003 21.4309 17.8816 21.1833C17.7628 20.9357 17.5627 20.7363 17.3148 20.6182C16.2671 20.0914 15.9156 19.651 15.7727 19.3666C15.6168 19.0546 15.6 18.733 15.6 18.103H21C21.4773 18.103 21.9352 17.9134 22.2727 17.5758C22.6103 17.2383 22.7999 16.7804 22.7999 16.303V3.10303C22.7999 2.62564 22.6103 2.1678 22.2727 1.83024C21.9352 1.49267 21.4773 1.30303 21 1.30303H2.99995ZM13.6596 20.503C13.6485 20.482 13.6377 20.4607 13.6272 20.4394C13.1988 19.5826 13.1988 18.7354 13.2 18.1654V18.103H10.8V18.1654C10.8 18.7354 10.8012 19.5826 10.3728 20.4394C10.3622 20.4607 10.3514 20.4819 10.3404 20.503H13.6596ZM20.4 13.303H3.59995V15.703H20.4V13.303Z" fill="#333333"/>
</svg>
