<svg width="24" height="24" viewBox="0 0 24 24" fill="none" xmlns="http://www.w3.org/2000/svg">
<path d="M9.45116 8.37117L8.81036 5.16717C8.72879 4.75907 8.50833 4.39184 8.18649 4.12799C7.86466 3.86413 7.46133 3.71994 7.04516 3.71997H3.16556C2.13356 3.71997 1.27436 4.59237 1.32116 5.62317C1.87436 17.8164 7.91996 22.4532 18.6192 22.9188C19.65 22.9632 20.52 22.1076 20.52 21.0768V17.1948C20.52 16.7786 20.3758 16.3753 20.1119 16.0534C19.8481 15.7316 19.4809 15.5111 19.0728 15.4296L15.8688 14.7888C15.4815 14.7113 15.0796 14.7633 14.7248 14.9367C14.37 15.1102 14.0822 15.3956 13.9056 15.7488L13.32 16.9188C10.92 16.9188 7.31996 13.3188 7.31996 10.9188L8.48996 10.3332C9.21716 9.97077 9.61076 9.16677 9.45116 8.37117Z" fill="#333333"/>
</svg>
