<svg width="48" height="49" viewBox="0 0 48 49" fill="none" xmlns="http://www.w3.org/2000/svg">
<circle cx="24" cy="24.2292" r="23.5" fill="white" stroke="#D9D9D9"/>
<g clip-path="url(#clip0)">
<path fill-rule="evenodd" clip-rule="evenodd" d="M24 18.2292C22.8954 18.2292 22 19.1247 22 20.2292C22 21.3338 22.8954 22.2292 24 22.2292C25.1046 22.2292 26 21.3338 26 20.2292C26 19.1247 25.1046 18.2292 24 18.2292ZM20 20.2292C20 18.0201 21.7909 16.2292 24 16.2292C26.2091 16.2292 28 18.0201 28 20.2292C28 22.4383 26.2091 24.2292 24 24.2292C21.7909 24.2292 20 22.4383 20 20.2292Z" fill="#1C1C1C"/>
<path fill-rule="evenodd" clip-rule="evenodd" d="M21 31.2292C21.5523 31.2292 22 31.6769 22 32.2292C22 33.3338 22.8954 34.2292 24 34.2292C25.1046 34.2292 26 33.3338 26 32.2292C26 31.6769 26.4477 31.2292 27 31.2292C27.5523 31.2292 28 31.6769 28 32.2292C28 34.4383 26.2091 36.2292 24 36.2292C21.7909 36.2292 20 34.4383 20 32.2292C20 31.6769 20.4477 31.2292 21 31.2292Z" fill="#1C1C1C"/>
<path fill-rule="evenodd" clip-rule="evenodd" d="M24 14.2292C20.6863 14.2292 18 16.9155 18 20.2292C18 21.6988 18.5271 23.0426 19.4036 24.086C20.0886 24.9014 21.4326 26.5306 22.6019 27.9519C23.1273 28.5904 23.6184 29.1881 24.0001 29.653C24.3893 29.1792 24.8918 28.5677 25.4274 27.9169C26.3176 26.8351 27.302 25.6412 28.0089 24.7902L26.155 22.9363C25.7645 22.5458 25.7645 21.9127 26.155 21.5221C26.5455 21.1316 27.1787 21.1316 27.5692 21.5221L30.0692 24.0221C30.436 24.3889 30.4614 24.9753 30.1278 25.3724C29.4897 26.132 28.1528 27.7526 26.9717 29.1878C26.382 29.9044 25.8323 30.5734 25.4301 31.0632L24.7739 31.8625L24.7732 31.8634L24 31.2292L23.2267 31.8632L22.5808 31.0761C22.1847 30.5936 21.6424 29.9334 21.0575 29.2226C19.8864 27.7992 18.5493 26.1784 17.8722 25.3724C16.7043 23.9822 16 22.1867 16 20.2292C16 15.811 19.5817 12.2292 24 12.2292C28.4183 12.2292 32 15.811 32 20.2292C32 20.7815 31.5523 21.2292 31 21.2292C30.4477 21.2292 30 20.7815 30 20.2292C30 16.9155 27.3137 14.2292 24 14.2292ZM24 31.2292L23.2267 31.8632C23.4166 32.0948 23.7004 32.2292 23.9999 32.2292C24.2994 32.2292 24.5832 32.0949 24.7732 31.8634L24 31.2292Z" fill="#1C1C1C"/>
</g>
<defs>
<clipPath id="clip0">
<rect width="24" height="24" fill="white" transform="translate(12 12.2292)"/>
</clipPath>
</defs>
</svg>
