<svg width="166" height="55" viewBox="0 0 166 55" fill="none" xmlns="http://www.w3.org/2000/svg">
<g clip-path="url(#clip0)">
<path d="M159.398 55H6.85185C3.43482 55 0.75 51.975 0.75 48.125V6.875C0.75 3.025 3.43482 0 6.85185 0H159.398C162.815 0 165.5 3.025 165.5 6.875V48.125C165.5 51.975 162.815 55 159.398 55Z" fill="black"/>
<path d="M34.6528 27.9134C34.6676 26.7658 34.9733 25.6405 35.5415 24.6423C36.1096 23.6441 36.9217 22.8055 37.9022 22.2044C37.2793 21.3173 36.4576 20.5872 35.5023 20.0722C34.5469 19.5572 33.4844 19.2714 32.3989 19.2375C30.0835 18.9952 27.8388 20.6192 26.6589 20.6192C25.4561 20.6192 23.6395 19.2616 21.6833 19.3017C20.4179 19.3425 19.1847 19.7094 18.1039 20.3668C17.023 21.0241 16.1313 21.9494 15.5157 23.0526C12.849 27.6566 14.8381 34.4231 17.3926 38.1447C18.6707 39.967 20.1644 42.0027 22.1189 41.9305C24.0314 41.8514 24.7457 40.7143 27.0543 40.7143C29.3415 40.7143 30.0117 41.9305 32.0058 41.8846C34.0581 41.8513 35.3511 40.0541 36.5843 38.2145C37.5026 36.916 38.2093 35.4809 38.678 33.9623C37.4857 33.4594 36.4682 32.6177 35.7524 31.542C35.0366 30.4664 34.6542 29.2044 34.6528 27.9134V27.9134Z" fill="white"/>
<path d="M30.8863 16.79C32.0053 15.4504 32.5565 13.7287 32.423 11.9904C30.7135 12.1694 29.1343 12.9842 28.0002 14.2723C27.4457 14.9016 27.0211 15.6337 26.7505 16.4268C26.4799 17.2198 26.3687 18.0583 26.4232 18.8942C27.2783 18.903 28.1242 18.7182 28.8973 18.3537C29.6704 17.9892 30.3505 17.4545 30.8863 16.79Z" fill="white"/>
<path d="M58.8289 37.3169H52.3022L50.7349 41.932H47.9704L54.1524 24.8573H57.0245L63.2065 41.932H60.3949L58.8289 37.3169ZM52.9782 35.1873H58.1517L55.6013 27.6973H55.5299L52.9782 35.1873Z" fill="white"/>
<path d="M76.5575 35.7084C76.5575 39.5769 74.4811 42.0624 71.3477 42.0624C70.554 42.1038 69.7646 41.9214 69.0699 41.5362C68.3753 41.1511 67.8034 40.5786 67.4199 39.8844H67.3606V46.0504H64.7981V29.4833H67.2785V31.5538H67.3256C67.7268 30.8629 68.3083 30.2934 69.0082 29.9059C69.7082 29.5183 70.5004 29.3273 71.3006 29.353C74.469 29.353 76.5575 31.8506 76.5575 35.7084ZM73.9237 35.7084C73.9237 33.188 72.6175 31.531 70.6246 31.531C68.6667 31.531 67.3498 33.2229 67.3498 35.7084C67.3498 38.2167 68.6667 39.8965 70.6246 39.8965C72.6175 39.8965 73.9237 38.2516 73.9237 35.7084Z" fill="white"/>
<path d="M90.2976 35.7083C90.2976 39.5769 88.2212 42.0623 85.0878 42.0623C84.2941 42.1038 83.5047 41.9214 82.81 41.5362C82.1154 41.151 81.5435 40.5786 81.16 39.8843H81.1007V46.0504H78.5382V29.4832H81.0185V31.5538H81.0657C81.4668 30.8629 82.0484 30.2934 82.7483 29.9059C83.4483 29.5183 84.2405 29.3273 85.0407 29.353C88.2091 29.353 90.2976 31.8506 90.2976 35.7083ZM87.6638 35.7083C87.6638 33.188 86.3576 31.531 84.3647 31.531C82.4069 31.531 81.0899 33.2229 81.0899 35.7083C81.0899 38.2167 82.4069 39.8965 84.3647 39.8965C86.3576 39.8965 87.6638 38.2516 87.6638 35.7083H87.6638Z" fill="white"/>
<path d="M99.3787 37.1746C99.5686 38.8679 101.218 39.9796 103.472 39.9796C105.632 39.9796 107.186 38.8678 107.186 37.3411C107.186 36.0158 106.249 35.2222 104.03 34.6784L101.811 34.1453C98.6664 33.3879 97.2067 31.9216 97.2067 29.5422C97.2067 26.5962 99.7814 24.5726 103.437 24.5726C107.055 24.5726 109.536 26.5962 109.619 29.5422H107.032C106.878 27.8383 105.465 26.8097 103.401 26.8097C101.337 26.8097 99.924 27.8504 99.924 29.365C99.924 30.5722 100.826 31.2825 103.033 31.8263L104.92 32.2882C108.433 33.1167 109.893 34.5239 109.893 37.0214C109.893 40.2159 107.341 42.2166 103.282 42.2166C99.4851 42.2166 96.9212 40.2629 96.7556 37.1745L99.3787 37.1746Z" fill="white"/>
<path d="M115.423 26.5371V29.4832H117.797V31.5067H115.423V38.3696C115.423 39.4358 115.898 39.9326 116.942 39.9326C117.224 39.9277 117.505 39.908 117.785 39.8735V41.885C117.315 41.9724 116.839 42.012 116.361 42.0031C113.834 42.0031 112.848 41.0565 112.848 38.6422V31.5067H111.033V29.4832H112.848V26.5371H115.423Z" fill="white"/>
<path d="M119.172 35.7082C119.172 31.7914 121.485 29.3301 125.092 29.3301C128.712 29.3301 131.014 31.7913 131.014 35.7082C131.014 39.6359 128.724 42.0864 125.092 42.0864C121.462 42.0864 119.172 39.6359 119.172 35.7082ZM128.404 35.7082C128.404 33.0214 127.169 31.4355 125.092 31.4355C123.016 31.4355 121.783 33.0334 121.783 35.7082C121.783 38.4059 123.016 39.9796 125.092 39.9796C127.169 39.9796 128.403 38.4059 128.403 35.7082H128.404Z" fill="white"/>
<path d="M133.127 29.4833H135.571V31.6021H135.63C135.796 30.9404 136.184 30.3555 136.731 29.9459C137.278 29.5364 137.95 29.327 138.633 29.353C138.928 29.352 139.223 29.3839 139.511 29.4483V31.8385C139.138 31.7249 138.749 31.6727 138.36 31.6841C137.987 31.669 137.616 31.7345 137.272 31.8759C136.927 32.0174 136.618 32.2315 136.364 32.5036C136.11 32.7757 135.919 33.0993 135.802 33.4523C135.686 33.8052 135.647 34.179 135.69 34.5482V41.9321H133.127L133.127 29.4833Z" fill="white"/>
<path d="M151.326 38.2756C150.981 40.5355 148.774 42.0864 145.95 42.0864C142.319 42.0864 140.064 39.66 140.064 35.7673C140.064 31.8626 142.331 29.3301 145.842 29.3301C149.296 29.3301 151.468 31.696 151.468 35.4706V36.3461H142.651V36.5005C142.61 36.9586 142.668 37.4202 142.82 37.8545C142.972 38.2887 143.215 38.6858 143.532 39.0193C143.85 39.3528 144.235 39.6151 144.662 39.7888C145.089 39.9625 145.549 40.0435 146.009 40.0266C146.615 40.0832 147.223 39.9433 147.742 39.6278C148.262 39.3124 148.665 38.8381 148.892 38.2756L151.326 38.2756ZM142.663 34.5602H148.904C148.928 34.1482 148.865 33.736 148.721 33.3493C148.576 32.9627 148.353 32.6099 148.066 32.3133C147.778 32.0166 147.432 31.7824 147.05 31.6253C146.667 31.4683 146.256 31.3918 145.842 31.4006C145.425 31.3982 145.012 31.4781 144.625 31.6359C144.239 31.7936 143.888 32.0261 143.593 32.3199C143.297 32.6136 143.063 32.9628 142.903 33.3473C142.744 33.7319 142.662 34.1441 142.663 34.5602V34.5602Z" fill="white"/>
<path d="M51.157 15.4734H52.2571C52.4465 15.4969 52.6387 15.4811 52.8216 15.4268C53.0045 15.3726 53.1742 15.2812 53.32 15.1583C53.4657 15.0354 53.5843 14.8838 53.6684 14.7129C53.7524 14.5421 53.8001 14.3557 53.8083 14.1656C53.8083 13.4089 53.2374 12.9201 52.2692 12.9201C52.0752 12.8931 51.8777 12.9051 51.6884 12.9554C51.4991 13.0058 51.3218 13.0934 51.1671 13.2132C51.0123 13.333 50.8832 13.4825 50.7873 13.6529C50.6915 13.8232 50.6308 14.011 50.6089 14.2052H49.401C49.4218 13.8528 49.5151 13.5084 49.6752 13.1935C49.8352 12.8786 50.0585 12.5999 50.3313 12.3748C50.604 12.1498 50.9202 11.983 51.2604 11.8851C51.6005 11.7872 51.9572 11.7601 52.3082 11.8056C53.9281 11.8056 55.0687 12.71 55.0687 14.0118C55.0725 14.4479 54.9262 14.8721 54.6542 15.2137C54.3821 15.5552 54.0009 15.7933 53.574 15.8883V15.985C54.0801 16.0074 54.5566 16.2287 54.8995 16.6004C55.2425 16.9722 55.4238 17.4642 55.404 17.969C55.3665 18.3318 55.2568 18.6835 55.0813 19.0036C54.9057 19.3236 54.6679 19.6055 54.3817 19.8326C54.0955 20.0598 53.7667 20.2277 53.4146 20.3265C53.0625 20.4254 52.6942 20.4531 52.3312 20.4081C51.9674 20.4576 51.5974 20.4335 51.2432 20.3373C50.8889 20.2411 50.5578 20.0748 50.2694 19.8482C49.981 19.6216 49.7413 19.3395 49.5646 19.0186C49.3879 18.6977 49.2778 18.3446 49.2408 17.9804H50.4676C50.5416 18.7652 51.2647 19.2715 52.3312 19.2715C53.3976 19.2715 54.0938 18.7028 54.0938 17.9012C54.0938 17.0882 53.438 16.5873 52.2921 16.5873H51.157V15.4734Z" fill="white"/>
<path d="M56.7976 18.4584C56.7976 17.3439 57.6311 16.7013 59.1069 16.61L60.7888 16.5134V15.9789C60.7888 15.325 60.3565 14.9557 59.5176 14.9557C58.8336 14.9557 58.3609 15.2062 58.2236 15.6439H57.0373C57.1625 14.5804 58.167 13.8983 59.5755 13.8983C61.1321 13.8983 62.0101 14.6711 62.0101 15.9789V20.2093H60.8292V19.3392H60.7322C60.5354 19.6513 60.2591 19.9058 59.9315 20.0766C59.6038 20.2474 59.2366 20.3284 58.8673 20.3114C58.6066 20.3384 58.3432 20.3107 58.0939 20.23C57.8447 20.1492 57.6152 20.0173 57.4202 19.8428C57.2252 19.6682 57.069 19.4548 56.9618 19.2163C56.8546 18.9779 56.7986 18.7197 56.7976 18.4584V18.4584ZM60.7888 17.9293V17.4117L59.2725 17.5084C58.4174 17.5654 58.0296 17.8555 58.0296 18.4013C58.0296 18.9585 58.5144 19.2828 59.181 19.2828C59.3763 19.3025 59.5736 19.2829 59.7611 19.225C59.9487 19.1671 60.1226 19.0722 60.2726 18.946C60.4226 18.8197 60.5456 18.6646 60.6343 18.4899C60.723 18.3153 60.7755 18.1246 60.7888 17.9293V17.9293Z" fill="white"/>
<path d="M65.262 15.0464V20.2094H64.0366V14.0178H68.1248V15.0463L65.262 15.0464Z" fill="white"/>
<path d="M75.551 17.111C75.551 19.0781 74.5532 20.3115 72.9858 20.3115C72.601 20.3377 72.2168 20.2537 71.8783 20.0695C71.5398 19.8852 71.2611 19.6084 71.0751 19.2715H70.9781V22.2679H69.7527V14.0179H70.9323V15.0411H71.0239C71.2133 14.6925 71.4956 14.4028 71.8397 14.2041C72.1837 14.0054 72.5762 13.9054 72.9737 13.9152C74.5532 13.9152 75.551 15.1431 75.551 17.111ZM74.2906 17.111C74.2906 15.8031 73.6698 15.0129 72.6317 15.0129C71.6003 15.0129 70.9552 15.8199 70.9552 17.1163C70.9552 18.4068 71.6002 19.2144 72.6263 19.2144C73.6698 19.2144 74.2906 18.4242 74.2906 17.111Z" fill="white"/>
<path d="M77.183 22.427V21.3749C77.3156 21.3917 77.4492 21.3993 77.5828 21.3977C77.8439 21.417 78.1029 21.3395 78.3102 21.18C78.5174 21.0205 78.6583 20.7903 78.7059 20.5336L78.7974 20.2322L76.55 14.0178H77.8845L79.4411 18.9357H79.5381L81.0893 14.0178H82.3887L80.074 20.4652C79.5435 21.9717 78.9564 22.4552 77.6906 22.4552C77.5883 22.4551 77.2974 22.4437 77.183 22.427Z" fill="white"/>
<path d="M83.3434 18.4524H84.5634C84.6832 18.9982 85.1963 19.2829 85.9139 19.2829C86.73 19.2829 87.2309 18.9243 87.2309 18.3671C87.2309 17.7702 86.7811 17.4856 85.9139 17.4856H84.9848V16.5362H85.8978C86.6384 16.5362 87.0154 16.2522 87.0154 15.7346C87.0154 15.2801 86.6505 14.933 85.8978 14.933C85.2124 14.933 84.7115 15.223 84.632 15.7118H83.4511C83.5394 15.1502 83.8452 14.6455 84.3027 14.3064C84.7603 13.9673 85.333 13.8208 85.8978 13.8984C87.3736 13.8984 88.2179 14.5637 88.2179 15.6097C88.2248 15.901 88.1312 16.1858 87.9527 16.4166C87.7743 16.6473 87.5219 16.81 87.2376 16.8773V16.974C87.576 17.0175 87.8867 17.1834 88.1105 17.4402C88.3344 17.697 88.456 18.0269 88.4522 18.3671C88.4522 19.5441 87.4476 20.3229 85.9139 20.3229C84.558 20.3228 83.4565 19.7031 83.3434 18.4524Z" fill="white"/>
<path d="M90.2168 20.2094V14.0178H91.4314V18.2764H91.5283L94.3897 14.0178H95.6043V20.2094H94.3897V15.9279H94.2982L91.4314 20.2094L90.2168 20.2094Z" fill="white"/>
<path d="M102.295 15.0464H100.34V20.2094H99.1133V15.0464H97.1581V14.0179H102.295V15.0464Z" fill="white"/>
<path d="M108.896 18.5376C108.729 19.1034 108.368 19.5928 107.876 19.9202C107.384 20.2476 106.792 20.3922 106.204 20.3288C105.795 20.3396 105.389 20.2615 105.013 20.0999C104.637 19.9383 104.301 19.6971 104.028 19.393C103.755 19.0889 103.552 18.7293 103.433 18.339C103.313 17.9488 103.28 17.5373 103.336 17.133C103.282 16.7276 103.315 16.3152 103.434 15.9237C103.554 15.5323 103.756 15.171 104.027 14.8643C104.299 14.5576 104.633 14.3126 105.008 14.1459C105.383 13.9793 105.789 13.8948 106.199 13.8983C107.927 13.8983 108.97 15.0753 108.97 17.0195V17.4459H104.586V17.5144C104.566 17.7417 104.595 17.9705 104.669 18.1861C104.744 18.4017 104.863 18.5994 105.019 18.7665C105.174 18.9335 105.363 19.0662 105.574 19.1561C105.784 19.2459 106.011 19.2909 106.239 19.2882C106.532 19.3231 106.829 19.2704 107.092 19.1367C107.355 19.0031 107.572 18.7945 107.715 18.5375L108.896 18.5376ZM104.586 16.5422H107.72C107.736 16.3345 107.708 16.1259 107.638 15.9297C107.567 15.7336 107.457 15.5542 107.313 15.4032C107.169 15.2521 106.995 15.1327 106.803 15.0527C106.61 14.9726 106.402 14.9337 106.194 14.9383C105.982 14.9354 105.771 14.9749 105.575 15.0545C105.378 15.1341 105.2 15.2522 105.05 15.4017C104.9 15.5512 104.782 15.7292 104.702 15.9251C104.622 16.121 104.583 16.3308 104.586 16.5422H104.586Z" fill="white"/>
<path d="M114.091 14.0178H116.891C118.105 14.0178 118.817 14.6315 118.817 15.5922C118.819 15.897 118.716 16.1933 118.525 16.4314C118.334 16.6694 118.067 16.8349 117.768 16.9001V16.9967C118.131 17.0196 118.471 17.1804 118.718 17.4461C118.965 17.7117 119.101 18.0618 119.096 18.4241C119.096 19.5044 118.281 20.2093 116.919 20.2093H114.091V14.0178ZM115.306 14.9558V16.559H116.52C117.261 16.559 117.615 16.275 117.615 15.7513C117.615 15.2686 117.307 14.9557 116.656 14.9557L115.306 14.9558ZM115.306 17.4573V19.2714H116.759C117.483 19.2714 117.871 18.9525 117.871 18.3671C117.871 17.7474 117.432 17.4574 116.605 17.4574L115.306 17.4573Z" fill="white"/>
</g>
<defs>
<clipPath id="clip0">
<rect width="165" height="55" fill="white" transform="translate(0.75)"/>
</clipPath>
</defs>
</svg>
