<svg width="241" height="240" viewBox="0 0 241 240" fill="none" xmlns="http://www.w3.org/2000/svg">
<path d="M59.1386 0H52.6521V6.48649H59.1386V0Z" fill="black"/>
<path d="M65.6249 0H59.1384V6.48649H65.6249V0Z" fill="black"/>
<path d="M72.1112 0H65.6248V6.48649H72.1112V0Z" fill="black"/>
<path d="M78.5978 0H72.1113V6.48649H78.5978V0Z" fill="black"/>
<path d="M91.5707 0H85.0842V6.48649H91.5707V0Z" fill="black"/>
<path d="M104.544 0H98.0574V6.48649H104.544V0Z" fill="black"/>
<path d="M111.03 0H104.544V6.48649H111.03V0Z" fill="black"/>
<path d="M117.517 0H111.03V6.48649H117.517V0Z" fill="black"/>
<path d="M124.003 0H117.517V6.48649H124.003V0Z" fill="black"/>
<path d="M130.49 0H124.003V6.48649H130.49V0Z" fill="black"/>
<path d="M143.463 0H136.976V6.48649H143.463V0Z" fill="black"/>
<path d="M149.949 0H143.463V6.48649H149.949V0Z" fill="black"/>
<path d="M162.922 0H156.436V6.48649H162.922V0Z" fill="black"/>
<path d="M169.409 0H162.922V6.48649H169.409V0Z" fill="black"/>
<path d="M182.382 0H175.895V6.48649H182.382V0Z" fill="black"/>
<path d="M65.6249 6.48645H59.1384V12.9729H65.6249V6.48645Z" fill="black"/>
<path d="M78.5978 6.48645H72.1113V12.9729H78.5978V6.48645Z" fill="black"/>
<path d="M91.5707 6.48645H85.0842V12.9729H91.5707V6.48645Z" fill="black"/>
<path d="M98.0573 6.48645H91.5708V12.9729H98.0573V6.48645Z" fill="black"/>
<path d="M111.03 6.48645H104.544V12.9729H111.03V6.48645Z" fill="black"/>
<path d="M124.003 6.48645H117.517V12.9729H124.003V6.48645Z" fill="black"/>
<path d="M136.976 6.48645H130.49V12.9729H136.976V6.48645Z" fill="black"/>
<path d="M169.409 6.48645H162.922V12.9729H169.409V6.48645Z" fill="black"/>
<path d="M188.868 6.48645H182.382V12.9729H188.868V6.48645Z" fill="black"/>
<path d="M65.6249 12.973H59.1384V19.4595H65.6249V12.973Z" fill="black"/>
<path d="M72.1112 12.973H65.6248V19.4595H72.1112V12.973Z" fill="black"/>
<path d="M85.0841 12.973H78.5977V19.4595H85.0841V12.973Z" fill="black"/>
<path d="M91.5707 12.973H85.0842V19.4595H91.5707V12.973Z" fill="black"/>
<path d="M104.544 12.973H98.0574V19.4595H104.544V12.973Z" fill="black"/>
<path d="M111.03 12.973H104.544V19.4595H111.03V12.973Z" fill="black"/>
<path d="M117.517 12.973H111.03V19.4595H117.517V12.973Z" fill="black"/>
<path d="M130.49 12.973H124.003V19.4595H130.49V12.973Z" fill="black"/>
<path d="M136.976 12.973H130.49V19.4595H136.976V12.973Z" fill="black"/>
<path d="M143.463 12.973H136.976V19.4595H143.463V12.973Z" fill="black"/>
<path d="M156.436 12.973H149.949V19.4595H156.436V12.973Z" fill="black"/>
<path d="M188.868 12.973H182.382V19.4595H188.868V12.973Z" fill="black"/>
<path d="M59.1386 19.4595H52.6521V25.946H59.1386V19.4595Z" fill="black"/>
<path d="M65.6249 19.4595H59.1384V25.946H65.6249V19.4595Z" fill="black"/>
<path d="M85.0841 19.4595H78.5977V25.946H85.0841V19.4595Z" fill="black"/>
<path d="M104.544 19.4595H98.0574V25.946H104.544V19.4595Z" fill="black"/>
<path d="M130.49 19.4595H124.003V25.946H130.49V19.4595Z" fill="black"/>
<path d="M136.976 19.4595H130.49V25.946H136.976V19.4595Z" fill="black"/>
<path d="M156.436 19.4595H149.949V25.946H156.436V19.4595Z" fill="black"/>
<path d="M169.409 19.4595H162.922V25.946H169.409V19.4595Z" fill="black"/>
<path d="M182.382 19.4595H175.895V25.946H182.382V19.4595Z" fill="black"/>
<path d="M59.1386 25.946H52.6521V32.4325H59.1386V25.946Z" fill="black"/>
<path d="M65.6249 25.946H59.1384V32.4325H65.6249V25.946Z" fill="black"/>
<path d="M72.1112 25.946H65.6248V32.4325H72.1112V25.946Z" fill="black"/>
<path d="M78.5978 25.946H72.1113V32.4325H78.5978V25.946Z" fill="black"/>
<path d="M104.544 25.946H98.0574V32.4325H104.544V25.946Z" fill="black"/>
<path d="M111.03 25.946H104.544V32.4325H111.03V25.946Z" fill="black"/>
<path d="M124.003 25.946H117.517V32.4325H124.003V25.946Z" fill="black"/>
<path d="M143.463 25.946H136.976V32.4325H143.463V25.946Z" fill="black"/>
<path d="M156.436 25.946H149.949V32.4325H156.436V25.946Z" fill="black"/>
<path d="M175.895 25.946H169.409V32.4325H175.895V25.946Z" fill="black"/>
<path d="M182.382 25.946H175.895V32.4325H182.382V25.946Z" fill="black"/>
<path d="M188.868 25.946H182.382V32.4325H188.868V25.946Z" fill="black"/>
<path d="M59.1386 32.4324H52.6521V38.9189H59.1386V32.4324Z" fill="black"/>
<path d="M65.6249 32.4324H59.1384V38.9189H65.6249V32.4324Z" fill="black"/>
<path d="M78.5978 32.4324H72.1113V38.9189H78.5978V32.4324Z" fill="black"/>
<path d="M98.0573 32.4324H91.5708V38.9189H98.0573V32.4324Z" fill="black"/>
<path d="M124.003 32.4324H117.517V38.9189H124.003V32.4324Z" fill="black"/>
<path d="M130.49 32.4324H124.003V38.9189H130.49V32.4324Z" fill="black"/>
<path d="M143.463 32.4324H136.976V38.9189H143.463V32.4324Z" fill="black"/>
<path d="M149.949 32.4324H143.463V38.9189H149.949V32.4324Z" fill="black"/>
<path d="M162.922 32.4324H156.436V38.9189H162.922V32.4324Z" fill="black"/>
<path d="M169.409 32.4324H162.922V38.9189H169.409V32.4324Z" fill="black"/>
<path d="M175.895 32.4324H169.409V38.9189H175.895V32.4324Z" fill="black"/>
<path d="M188.868 32.4324H182.382V38.9189H188.868V32.4324Z" fill="black"/>
<path d="M59.1386 38.9188H52.6521V45.4053H59.1386V38.9188Z" fill="black"/>
<path d="M72.1112 38.9188H65.6248V45.4053H72.1112V38.9188Z" fill="black"/>
<path d="M85.0841 38.9188H78.5977V45.4053H85.0841V38.9188Z" fill="black"/>
<path d="M98.0573 38.9188H91.5708V45.4053H98.0573V38.9188Z" fill="black"/>
<path d="M111.03 38.9188H104.544V45.4053H111.03V38.9188Z" fill="black"/>
<path d="M124.003 38.9188H117.517V45.4053H124.003V38.9188Z" fill="black"/>
<path d="M136.976 38.9188H130.49V45.4053H136.976V38.9188Z" fill="black"/>
<path d="M149.949 38.9188H143.463V45.4053H149.949V38.9188Z" fill="black"/>
<path d="M162.922 38.9188H156.436V45.4053H162.922V38.9188Z" fill="black"/>
<path d="M175.895 38.9188H169.409V45.4053H175.895V38.9188Z" fill="black"/>
<path d="M188.868 38.9188H182.382V45.4053H188.868V38.9188Z" fill="black"/>
<path d="M59.1386 45.4054H52.6521V51.8919H59.1386V45.4054Z" fill="black"/>
<path d="M65.6249 45.4054H59.1384V51.8919H65.6249V45.4054Z" fill="black"/>
<path d="M78.5978 45.4054H72.1113V51.8919H78.5978V45.4054Z" fill="black"/>
<path d="M91.5707 45.4054H85.0842V51.8919H91.5707V45.4054Z" fill="black"/>
<path d="M104.544 45.4054H98.0574V51.8919H104.544V45.4054Z" fill="black"/>
<path d="M111.03 45.4054H104.544V51.8919H111.03V45.4054Z" fill="black"/>
<path d="M117.517 45.4054H111.03V51.8919H117.517V45.4054Z" fill="black"/>
<path d="M124.003 45.4054H117.517V51.8919H124.003V45.4054Z" fill="black"/>
<path d="M136.976 45.4054H130.49V51.8919H136.976V45.4054Z" fill="black"/>
<path d="M149.949 45.4054H143.463V51.8919H149.949V45.4054Z" fill="black"/>
<path d="M188.868 45.4054H182.382V51.8919H188.868V45.4054Z" fill="black"/>
<path d="M7.2465 51.8918H0.76001V58.3783H7.2465V51.8918Z" fill="black"/>
<path d="M33.1925 51.8918H26.7061V58.3783H33.1925V51.8918Z" fill="black"/>
<path d="M46.1654 51.8918H39.679V58.3783H46.1654V51.8918Z" fill="black"/>
<path d="M52.652 51.8918H46.1655V58.3783H52.652V51.8918Z" fill="black"/>
<path d="M59.1386 51.8918H52.6521V58.3783H59.1386V51.8918Z" fill="black"/>
<path d="M65.6249 51.8918H59.1384V58.3783H65.6249V51.8918Z" fill="black"/>
<path d="M72.1112 51.8918H65.6248V58.3783H72.1112V51.8918Z" fill="black"/>
<path d="M78.5978 51.8918H72.1113V58.3783H78.5978V51.8918Z" fill="black"/>
<path d="M98.0573 51.8918H91.5708V58.3783H98.0573V51.8918Z" fill="black"/>
<path d="M124.003 51.8918H117.517V58.3783H124.003V51.8918Z" fill="black"/>
<path d="M130.49 51.8918H124.003V58.3783H130.49V51.8918Z" fill="black"/>
<path d="M149.949 51.8918H143.463V58.3783H149.949V51.8918Z" fill="black"/>
<path d="M162.922 51.8918H156.436V58.3783H162.922V51.8918Z" fill="black"/>
<path d="M175.895 51.8918H169.409V58.3783H175.895V51.8918Z" fill="black"/>
<path d="M188.868 51.8918H182.382V58.3783H188.868V51.8918Z" fill="black"/>
<path d="M195.354 51.8918H188.868V58.3783H195.354V51.8918Z" fill="black"/>
<path d="M201.841 51.8918H195.354V58.3783H201.841V51.8918Z" fill="black"/>
<path d="M208.328 51.8918H201.841V58.3783H208.328V51.8918Z" fill="black"/>
<path d="M214.814 51.8918H208.328V58.3783H214.814V51.8918Z" fill="black"/>
<path d="M221.3 51.8918H214.814V58.3783H221.3V51.8918Z" fill="black"/>
<path d="M240.76 51.8918H234.273V58.3783H240.76V51.8918Z" fill="black"/>
<path d="M52.652 58.3784H46.1655V64.8649H52.652V58.3784Z" fill="black"/>
<path d="M59.1386 58.3784H52.6521V64.8649H59.1386V58.3784Z" fill="black"/>
<path d="M85.0841 58.3784H78.5977V64.8649H85.0841V58.3784Z" fill="black"/>
<path d="M111.03 58.3784H104.544V64.8649H111.03V58.3784Z" fill="black"/>
<path d="M117.517 58.3784H111.03V64.8649H117.517V58.3784Z" fill="black"/>
<path d="M130.49 58.3784H124.003V64.8649H130.49V58.3784Z" fill="black"/>
<path d="M136.976 58.3784H130.49V64.8649H136.976V58.3784Z" fill="black"/>
<path d="M182.382 58.3784H175.895V64.8649H182.382V58.3784Z" fill="black"/>
<path d="M195.354 58.3784H188.868V64.8649H195.354V58.3784Z" fill="black"/>
<path d="M208.328 58.3784H201.841V64.8649H208.328V58.3784Z" fill="black"/>
<path d="M214.814 58.3784H208.328V64.8649H214.814V58.3784Z" fill="black"/>
<path d="M221.3 58.3784H214.814V64.8649H221.3V58.3784Z" fill="black"/>
<path d="M227.787 58.3784H221.301V64.8649H227.787V58.3784Z" fill="black"/>
<path d="M234.274 58.3784H227.787V64.8649H234.274V58.3784Z" fill="black"/>
<path d="M7.2465 64.8649H0.76001V71.3514H7.2465V64.8649Z" fill="black"/>
<path d="M26.706 64.8649H20.2195V71.3514H26.706V64.8649Z" fill="black"/>
<path d="M39.6791 64.8649H33.1926V71.3514H39.6791V64.8649Z" fill="black"/>
<path d="M46.1654 64.8649H39.679V71.3514H46.1654V64.8649Z" fill="black"/>
<path d="M59.1386 64.8649H52.6521V71.3514H59.1386V64.8649Z" fill="black"/>
<path d="M65.6249 64.8649H59.1384V71.3514H65.6249V64.8649Z" fill="black"/>
<path d="M72.1112 64.8649H65.6248V71.3514H72.1112V64.8649Z" fill="black"/>
<path d="M85.0841 64.8649H78.5977V71.3514H85.0841V64.8649Z" fill="black"/>
<path d="M111.03 64.8649H104.544V71.3514H111.03V64.8649Z" fill="black"/>
<path d="M124.003 64.8649H117.517V71.3514H124.003V64.8649Z" fill="black"/>
<path d="M136.976 64.8649H130.49V71.3514H136.976V64.8649Z" fill="black"/>
<path d="M149.949 64.8649H143.463V71.3514H149.949V64.8649Z" fill="black"/>
<path d="M169.409 64.8649H162.922V71.3514H169.409V64.8649Z" fill="black"/>
<path d="M175.895 64.8649H169.409V71.3514H175.895V64.8649Z" fill="black"/>
<path d="M182.382 64.8649H175.895V71.3514H182.382V64.8649Z" fill="black"/>
<path d="M188.868 64.8649H182.382V71.3514H188.868V64.8649Z" fill="black"/>
<path d="M195.354 64.8649H188.868V71.3514H195.354V64.8649Z" fill="black"/>
<path d="M208.328 64.8649H201.841V71.3514H208.328V64.8649Z" fill="black"/>
<path d="M13.7331 71.3513H7.24658V77.8378H13.7331V71.3513Z" fill="black"/>
<path d="M20.2194 71.3513H13.7329V77.8378H20.2194V71.3513Z" fill="black"/>
<path d="M26.706 71.3513H20.2195V77.8378H26.706V71.3513Z" fill="black"/>
<path d="M72.1112 71.3513H65.6248V77.8378H72.1112V71.3513Z" fill="black"/>
<path d="M117.517 71.3513H111.03V77.8378H117.517V71.3513Z" fill="black"/>
<path d="M143.463 71.3513H136.976V77.8378H143.463V71.3513Z" fill="black"/>
<path d="M162.922 71.3513H156.436V77.8378H162.922V71.3513Z" fill="black"/>
<path d="M182.382 71.3513H175.895V77.8378H182.382V71.3513Z" fill="black"/>
<path d="M188.868 71.3513H182.382V77.8378H188.868V71.3513Z" fill="black"/>
<path d="M195.354 71.3513H188.868V77.8378H195.354V71.3513Z" fill="black"/>
<path d="M201.841 71.3513H195.354V77.8378H201.841V71.3513Z" fill="black"/>
<path d="M221.3 71.3513H214.814V77.8378H221.3V71.3513Z" fill="black"/>
<path d="M227.787 71.3513H221.301V77.8378H227.787V71.3513Z" fill="black"/>
<path d="M234.274 71.3513H227.787V77.8378H234.274V71.3513Z" fill="black"/>
<path d="M20.2194 77.8379H13.7329V84.3244H20.2194V77.8379Z" fill="black"/>
<path d="M46.1654 77.8379H39.679V84.3244H46.1654V77.8379Z" fill="black"/>
<path d="M52.652 77.8379H46.1655V84.3244H52.652V77.8379Z" fill="black"/>
<path d="M59.1386 77.8379H52.6521V84.3244H59.1386V77.8379Z" fill="black"/>
<path d="M65.6249 77.8379H59.1384V84.3244H65.6249V77.8379Z" fill="black"/>
<path d="M72.1112 77.8379H65.6248V84.3244H72.1112V77.8379Z" fill="black"/>
<path d="M78.5978 77.8379H72.1113V84.3244H78.5978V77.8379Z" fill="black"/>
<path d="M85.0841 77.8379H78.5977V84.3244H85.0841V77.8379Z" fill="black"/>
<path d="M104.544 77.8379H98.0574V84.3244H104.544V77.8379Z" fill="black"/>
<path d="M111.03 77.8379H104.544V84.3244H111.03V77.8379Z" fill="black"/>
<path d="M117.517 77.8379H111.03V84.3244H117.517V77.8379Z" fill="black"/>
<path d="M130.49 77.8379H124.003V84.3244H130.49V77.8379Z" fill="black"/>
<path d="M136.976 77.8379H130.49V84.3244H136.976V77.8379Z" fill="black"/>
<path d="M143.463 77.8379H136.976V84.3244H143.463V77.8379Z" fill="black"/>
<path d="M149.949 77.8379H143.463V84.3244H149.949V77.8379Z" fill="black"/>
<path d="M156.436 77.8379H149.949V84.3244H156.436V77.8379Z" fill="black"/>
<path d="M182.382 77.8379H175.895V84.3244H182.382V77.8379Z" fill="black"/>
<path d="M195.354 77.8379H188.868V84.3244H195.354V77.8379Z" fill="black"/>
<path d="M201.841 77.8379H195.354V84.3244H201.841V77.8379Z" fill="black"/>
<path d="M221.3 77.8379H214.814V84.3244H221.3V77.8379Z" fill="black"/>
<path d="M227.787 77.8379H221.301V84.3244H227.787V77.8379Z" fill="black"/>
<path d="M234.274 77.8379H227.787V84.3244H234.274V77.8379Z" fill="black"/>
<path d="M240.76 77.8379H234.273V84.3244H240.76V77.8379Z" fill="black"/>
<path d="M7.2465 84.3243H0.76001V90.8108H7.2465V84.3243Z" fill="black"/>
<path d="M20.2194 84.3243H13.7329V90.8108H20.2194V84.3243Z" fill="black"/>
<path d="M26.706 84.3243H20.2195V90.8108H26.706V84.3243Z" fill="black"/>
<path d="M33.1925 84.3243H26.7061V90.8108H33.1925V84.3243Z" fill="black"/>
<path d="M39.6791 84.3243H33.1926V90.8108H39.6791V84.3243Z" fill="black"/>
<path d="M52.652 84.3243H46.1655V90.8108H52.652V84.3243Z" fill="black"/>
<path d="M72.1112 84.3243H65.6248V90.8108H72.1112V84.3243Z" fill="black"/>
<path d="M78.5978 84.3243H72.1113V90.8108H78.5978V84.3243Z" fill="black"/>
<path d="M91.5707 84.3243H85.0842V90.8108H91.5707V84.3243Z" fill="black"/>
<path d="M104.544 84.3243H98.0574V90.8108H104.544V84.3243Z" fill="black"/>
<path d="M111.03 84.3243H104.544V90.8108H111.03V84.3243Z" fill="black"/>
<path d="M117.517 84.3243H111.03V90.8108H117.517V84.3243Z" fill="black"/>
<path d="M124.003 84.3243H117.517V90.8108H124.003V84.3243Z" fill="black"/>
<path d="M156.436 84.3243H149.949V90.8108H156.436V84.3243Z" fill="black"/>
<path d="M169.409 84.3243H162.922V90.8108H169.409V84.3243Z" fill="black"/>
<path d="M175.895 84.3243H169.409V90.8108H175.895V84.3243Z" fill="black"/>
<path d="M182.382 84.3243H175.895V90.8108H182.382V84.3243Z" fill="black"/>
<path d="M188.868 84.3243H182.382V90.8108H188.868V84.3243Z" fill="black"/>
<path d="M214.814 84.3243H208.328V90.8108H214.814V84.3243Z" fill="black"/>
<path d="M221.3 84.3243H214.814V90.8108H221.3V84.3243Z" fill="black"/>
<path d="M13.7331 90.8108H7.24658V97.2973H13.7331V90.8108Z" fill="black"/>
<path d="M33.1925 90.8108H26.7061V97.2973H33.1925V90.8108Z" fill="black"/>
<path d="M39.6791 90.8108H33.1926V97.2973H39.6791V90.8108Z" fill="black"/>
<path d="M46.1654 90.8108H39.679V97.2973H46.1654V90.8108Z" fill="black"/>
<path d="M65.6249 90.8108H59.1384V97.2973H65.6249V90.8108Z" fill="black"/>
<path d="M72.1112 90.8108H65.6248V97.2973H72.1112V90.8108Z" fill="black"/>
<path d="M78.5978 90.8108H72.1113V97.2973H78.5978V90.8108Z" fill="black"/>
<path d="M91.5707 90.8108H85.0842V97.2973H91.5707V90.8108Z" fill="black"/>
<path d="M98.0573 90.8108H91.5708V97.2973H98.0573V90.8108Z" fill="black"/>
<path d="M104.544 90.8108H98.0574V97.2973H104.544V90.8108Z" fill="black"/>
<path d="M124.003 90.8108H117.517V97.2973H124.003V90.8108Z" fill="black"/>
<path d="M143.463 90.8108H136.976V97.2973H143.463V90.8108Z" fill="black"/>
<path d="M149.949 90.8108H143.463V97.2973H149.949V90.8108Z" fill="black"/>
<path d="M156.436 90.8108H149.949V97.2973H156.436V90.8108Z" fill="black"/>
<path d="M182.382 90.8108H175.895V97.2973H182.382V90.8108Z" fill="black"/>
<path d="M195.354 90.8108H188.868V97.2973H195.354V90.8108Z" fill="black"/>
<path d="M208.328 90.8108H201.841V97.2973H208.328V90.8108Z" fill="black"/>
<path d="M214.814 90.8108H208.328V97.2973H214.814V90.8108Z" fill="black"/>
<path d="M221.3 90.8108H214.814V97.2973H221.3V90.8108Z" fill="black"/>
<path d="M227.787 90.8108H221.301V97.2973H227.787V90.8108Z" fill="black"/>
<path d="M234.274 90.8108H227.787V97.2973H234.274V90.8108Z" fill="black"/>
<path d="M13.7331 97.2972H7.24658V103.784H13.7331V97.2972Z" fill="black"/>
<path d="M20.2194 97.2972H13.7329V103.784H20.2194V97.2972Z" fill="black"/>
<path d="M33.1925 97.2972H26.7061V103.784H33.1925V97.2972Z" fill="black"/>
<path d="M52.652 97.2972H46.1655V103.784H52.652V97.2972Z" fill="black"/>
<path d="M78.5978 97.2972H72.1113V103.784H78.5978V97.2972Z" fill="black"/>
<path d="M85.0841 97.2972H78.5977V103.784H85.0841V97.2972Z" fill="black"/>
<path d="M104.544 97.2972H98.0574V103.784H104.544V97.2972Z" fill="black"/>
<path d="M136.976 97.2972H130.49V103.784H136.976V97.2972Z" fill="black"/>
<path d="M143.463 97.2972H136.976V103.784H143.463V97.2972Z" fill="black"/>
<path d="M156.436 97.2972H149.949V103.784H156.436V97.2972Z" fill="black"/>
<path d="M162.922 97.2972H156.436V103.784H162.922V97.2972Z" fill="black"/>
<path d="M175.895 97.2972H169.409V103.784H175.895V97.2972Z" fill="black"/>
<path d="M182.382 97.2972H175.895V103.784H182.382V97.2972Z" fill="black"/>
<path d="M195.354 97.2972H188.868V103.784H195.354V97.2972Z" fill="black"/>
<path d="M208.328 97.2972H201.841V103.784H208.328V97.2972Z" fill="black"/>
<path d="M214.814 97.2972H208.328V103.784H214.814V97.2972Z" fill="black"/>
<path d="M227.787 97.2972H221.301V103.784H227.787V97.2972Z" fill="black"/>
<path d="M7.2465 103.784H0.76001V110.27H7.2465V103.784Z" fill="black"/>
<path d="M20.2194 103.784H13.7329V110.27H20.2194V103.784Z" fill="black"/>
<path d="M33.1925 103.784H26.7061V110.27H33.1925V103.784Z" fill="black"/>
<path d="M39.6791 103.784H33.1926V110.27H39.6791V103.784Z" fill="black"/>
<path d="M46.1654 103.784H39.679V110.27H46.1654V103.784Z" fill="black"/>
<path d="M59.1386 103.784H52.6521V110.27H59.1386V103.784Z" fill="black"/>
<path d="M78.5978 103.784H72.1113V110.27H78.5978V103.784Z" fill="black"/>
<path d="M85.0841 103.784H78.5977V110.27H85.0841V103.784Z" fill="black"/>
<path d="M111.03 103.784H104.544V110.27H111.03V103.784Z" fill="black"/>
<path d="M130.49 103.784H124.003V110.27H130.49V103.784Z" fill="black"/>
<path d="M136.976 103.784H130.49V110.27H136.976V103.784Z" fill="black"/>
<path d="M175.895 103.784H169.409V110.27H175.895V103.784Z" fill="black"/>
<path d="M188.868 103.784H182.382V110.27H188.868V103.784Z" fill="black"/>
<path d="M201.841 103.784H195.354V110.27H201.841V103.784Z" fill="black"/>
<path d="M221.3 103.784H214.814V110.27H221.3V103.784Z" fill="black"/>
<path d="M227.787 103.784H221.301V110.27H227.787V103.784Z" fill="black"/>
<path d="M234.274 103.784H227.787V110.27H234.274V103.784Z" fill="black"/>
<path d="M240.76 103.784H234.273V110.27H240.76V103.784Z" fill="black"/>
<path d="M20.2194 110.27H13.7329V116.757H20.2194V110.27Z" fill="black"/>
<path d="M33.1925 110.27H26.7061V116.757H33.1925V110.27Z" fill="black"/>
<path d="M39.6791 110.27H33.1926V116.757H39.6791V110.27Z" fill="black"/>
<path d="M52.652 110.27H46.1655V116.757H52.652V110.27Z" fill="black"/>
<path d="M65.6249 110.27H59.1384V116.757H65.6249V110.27Z" fill="black"/>
<path d="M91.5707 110.27H85.0842V116.757H91.5707V110.27Z" fill="black"/>
<path d="M98.0573 110.27H91.5708V116.757H98.0573V110.27Z" fill="black"/>
<path d="M124.003 110.27H117.517V116.757H124.003V110.27Z" fill="black"/>
<path d="M130.49 110.27H124.003V116.757H130.49V110.27Z" fill="black"/>
<path d="M149.949 110.27H143.463V116.757H149.949V110.27Z" fill="black"/>
<path d="M162.922 110.27H156.436V116.757H162.922V110.27Z" fill="black"/>
<path d="M169.409 110.27H162.922V116.757H169.409V110.27Z" fill="black"/>
<path d="M182.382 110.27H175.895V116.757H182.382V110.27Z" fill="black"/>
<path d="M195.354 110.27H188.868V116.757H195.354V110.27Z" fill="black"/>
<path d="M208.328 110.27H201.841V116.757H208.328V110.27Z" fill="black"/>
<path d="M214.814 110.27H208.328V116.757H214.814V110.27Z" fill="black"/>
<path d="M234.274 110.27H227.787V116.757H234.274V110.27Z" fill="black"/>
<path d="M20.2194 116.757H13.7329V123.243H20.2194V116.757Z" fill="black"/>
<path d="M33.1925 116.757H26.7061V123.243H33.1925V116.757Z" fill="black"/>
<path d="M46.1654 116.757H39.679V123.243H46.1654V116.757Z" fill="black"/>
<path d="M59.1386 116.757H52.6521V123.243H59.1386V116.757Z" fill="black"/>
<path d="M72.1112 116.757H65.6248V123.243H72.1112V116.757Z" fill="black"/>
<path d="M85.0841 116.757H78.5977V123.243H85.0841V116.757Z" fill="black"/>
<path d="M98.0573 116.757H91.5708V123.243H98.0573V116.757Z" fill="black"/>
<path d="M104.544 116.757H98.0574V123.243H104.544V116.757Z" fill="black"/>
<path d="M130.49 116.757H124.003V123.243H130.49V116.757Z" fill="black"/>
<path d="M143.463 116.757H136.976V123.243H143.463V116.757Z" fill="black"/>
<path d="M149.949 116.757H143.463V123.243H149.949V116.757Z" fill="black"/>
<path d="M156.436 116.757H149.949V123.243H156.436V116.757Z" fill="black"/>
<path d="M162.922 116.757H156.436V123.243H162.922V116.757Z" fill="black"/>
<path d="M182.382 116.757H175.895V123.243H182.382V116.757Z" fill="black"/>
<path d="M188.868 116.757H182.382V123.243H188.868V116.757Z" fill="black"/>
<path d="M208.328 116.757H201.841V123.243H208.328V116.757Z" fill="black"/>
<path d="M13.7331 123.243H7.24658V129.73H13.7331V123.243Z" fill="black"/>
<path d="M20.2194 123.243H13.7329V129.73H20.2194V123.243Z" fill="black"/>
<path d="M26.706 123.243H20.2195V129.73H26.706V123.243Z" fill="black"/>
<path d="M39.6791 123.243H33.1926V129.73H39.6791V123.243Z" fill="black"/>
<path d="M52.652 123.243H46.1655V129.73H52.652V123.243Z" fill="black"/>
<path d="M59.1386 123.243H52.6521V129.73H59.1386V123.243Z" fill="black"/>
<path d="M65.6249 123.243H59.1384V129.73H65.6249V123.243Z" fill="black"/>
<path d="M72.1112 123.243H65.6248V129.73H72.1112V123.243Z" fill="black"/>
<path d="M91.5707 123.243H85.0842V129.73H91.5707V123.243Z" fill="black"/>
<path d="M104.544 123.243H98.0574V129.73H104.544V123.243Z" fill="black"/>
<path d="M111.03 123.243H104.544V129.73H111.03V123.243Z" fill="black"/>
<path d="M117.517 123.243H111.03V129.73H117.517V123.243Z" fill="black"/>
<path d="M124.003 123.243H117.517V129.73H124.003V123.243Z" fill="black"/>
<path d="M130.49 123.243H124.003V129.73H130.49V123.243Z" fill="black"/>
<path d="M136.976 123.243H130.49V129.73H136.976V123.243Z" fill="black"/>
<path d="M143.463 123.243H136.976V129.73H143.463V123.243Z" fill="black"/>
<path d="M156.436 123.243H149.949V129.73H156.436V123.243Z" fill="black"/>
<path d="M175.895 123.243H169.409V129.73H175.895V123.243Z" fill="black"/>
<path d="M182.382 123.243H175.895V129.73H182.382V123.243Z" fill="black"/>
<path d="M188.868 123.243H182.382V129.73H188.868V123.243Z" fill="black"/>
<path d="M208.328 123.243H201.841V129.73H208.328V123.243Z" fill="black"/>
<path d="M221.3 123.243H214.814V129.73H221.3V123.243Z" fill="black"/>
<path d="M227.787 123.243H221.301V129.73H227.787V123.243Z" fill="black"/>
<path d="M234.274 123.243H227.787V129.73H234.274V123.243Z" fill="black"/>
<path d="M13.7331 129.73H7.24658V136.216H13.7331V129.73Z" fill="black"/>
<path d="M26.706 129.73H20.2195V136.216H26.706V129.73Z" fill="black"/>
<path d="M33.1925 129.73H26.7061V136.216H33.1925V129.73Z" fill="black"/>
<path d="M39.6791 129.73H33.1926V136.216H39.6791V129.73Z" fill="black"/>
<path d="M46.1654 129.73H39.679V136.216H46.1654V129.73Z" fill="black"/>
<path d="M59.1386 129.73H52.6521V136.216H59.1386V129.73Z" fill="black"/>
<path d="M65.6249 129.73H59.1384V136.216H65.6249V129.73Z" fill="black"/>
<path d="M72.1112 129.73H65.6248V136.216H72.1112V129.73Z" fill="black"/>
<path d="M78.5978 129.73H72.1113V136.216H78.5978V129.73Z" fill="black"/>
<path d="M91.5707 129.73H85.0842V136.216H91.5707V129.73Z" fill="black"/>
<path d="M117.517 129.73H111.03V136.216H117.517V129.73Z" fill="black"/>
<path d="M136.976 129.73H130.49V136.216H136.976V129.73Z" fill="black"/>
<path d="M143.463 129.73H136.976V136.216H143.463V129.73Z" fill="black"/>
<path d="M195.354 129.73H188.868V136.216H195.354V129.73Z" fill="black"/>
<path d="M201.841 129.73H195.354V136.216H201.841V129.73Z" fill="black"/>
<path d="M208.328 129.73H201.841V136.216H208.328V129.73Z" fill="black"/>
<path d="M221.3 129.73H214.814V136.216H221.3V129.73Z" fill="black"/>
<path d="M227.787 129.73H221.301V136.216H227.787V129.73Z" fill="black"/>
<path d="M7.2465 136.216H0.76001V142.703H7.2465V136.216Z" fill="black"/>
<path d="M26.706 136.216H20.2195V142.703H26.706V136.216Z" fill="black"/>
<path d="M33.1925 136.216H26.7061V142.703H33.1925V136.216Z" fill="black"/>
<path d="M39.6791 136.216H33.1926V142.703H39.6791V136.216Z" fill="black"/>
<path d="M52.652 136.216H46.1655V142.703H52.652V136.216Z" fill="black"/>
<path d="M59.1386 136.216H52.6521V142.703H59.1386V136.216Z" fill="black"/>
<path d="M85.0841 136.216H78.5977V142.703H85.0841V136.216Z" fill="black"/>
<path d="M91.5707 136.216H85.0842V142.703H91.5707V136.216Z" fill="black"/>
<path d="M98.0573 136.216H91.5708V142.703H98.0573V136.216Z" fill="black"/>
<path d="M104.544 136.216H98.0574V142.703H104.544V136.216Z" fill="black"/>
<path d="M111.03 136.216H104.544V142.703H111.03V136.216Z" fill="black"/>
<path d="M124.003 136.216H117.517V142.703H124.003V136.216Z" fill="black"/>
<path d="M143.463 136.216H136.976V142.703H143.463V136.216Z" fill="black"/>
<path d="M156.436 136.216H149.949V142.703H156.436V136.216Z" fill="black"/>
<path d="M169.409 136.216H162.922V142.703H169.409V136.216Z" fill="black"/>
<path d="M182.382 136.216H175.895V142.703H182.382V136.216Z" fill="black"/>
<path d="M188.868 136.216H182.382V142.703H188.868V136.216Z" fill="black"/>
<path d="M208.328 136.216H201.841V142.703H208.328V136.216Z" fill="black"/>
<path d="M214.814 136.216H208.328V142.703H214.814V136.216Z" fill="black"/>
<path d="M13.7331 142.703H7.24658V149.189H13.7331V142.703Z" fill="black"/>
<path d="M20.2194 142.703H13.7329V149.189H20.2194V142.703Z" fill="black"/>
<path d="M26.706 142.703H20.2195V149.189H26.706V142.703Z" fill="black"/>
<path d="M39.6791 142.703H33.1926V149.189H39.6791V142.703Z" fill="black"/>
<path d="M46.1654 142.703H39.679V149.189H46.1654V142.703Z" fill="black"/>
<path d="M52.652 142.703H46.1655V149.189H52.652V142.703Z" fill="black"/>
<path d="M59.1386 142.703H52.6521V149.189H59.1386V142.703Z" fill="black"/>
<path d="M78.5978 142.703H72.1113V149.189H78.5978V142.703Z" fill="black"/>
<path d="M98.0573 142.703H91.5708V149.189H98.0573V142.703Z" fill="black"/>
<path d="M104.544 142.703H98.0574V149.189H104.544V142.703Z" fill="black"/>
<path d="M117.517 142.703H111.03V149.189H117.517V142.703Z" fill="black"/>
<path d="M156.436 142.703H149.949V149.189H156.436V142.703Z" fill="black"/>
<path d="M162.922 142.703H156.436V149.189H162.922V142.703Z" fill="black"/>
<path d="M182.382 142.703H175.895V149.189H182.382V142.703Z" fill="black"/>
<path d="M188.868 142.703H182.382V149.189H188.868V142.703Z" fill="black"/>
<path d="M195.354 142.703H188.868V149.189H195.354V142.703Z" fill="black"/>
<path d="M201.841 142.703H195.354V149.189H201.841V142.703Z" fill="black"/>
<path d="M208.328 142.703H201.841V149.189H208.328V142.703Z" fill="black"/>
<path d="M214.814 142.703H208.328V149.189H214.814V142.703Z" fill="black"/>
<path d="M221.3 142.703H214.814V149.189H221.3V142.703Z" fill="black"/>
<path d="M227.787 142.703H221.301V149.189H227.787V142.703Z" fill="black"/>
<path d="M7.2465 149.189H0.76001V155.676H7.2465V149.189Z" fill="black"/>
<path d="M20.2194 149.189H13.7329V155.676H20.2194V149.189Z" fill="black"/>
<path d="M33.1925 149.189H26.7061V155.676H33.1925V149.189Z" fill="black"/>
<path d="M52.652 149.189H46.1655V155.676H52.652V149.189Z" fill="black"/>
<path d="M59.1386 149.189H52.6521V155.676H59.1386V149.189Z" fill="black"/>
<path d="M72.1112 149.189H65.6248V155.676H72.1112V149.189Z" fill="black"/>
<path d="M78.5978 149.189H72.1113V155.676H78.5978V149.189Z" fill="black"/>
<path d="M98.0573 149.189H91.5708V155.676H98.0573V149.189Z" fill="black"/>
<path d="M111.03 149.189H104.544V155.676H111.03V149.189Z" fill="black"/>
<path d="M117.517 149.189H111.03V155.676H117.517V149.189Z" fill="black"/>
<path d="M124.003 149.189H117.517V155.676H124.003V149.189Z" fill="black"/>
<path d="M130.49 149.189H124.003V155.676H130.49V149.189Z" fill="black"/>
<path d="M136.976 149.189H130.49V155.676H136.976V149.189Z" fill="black"/>
<path d="M149.949 149.189H143.463V155.676H149.949V149.189Z" fill="black"/>
<path d="M156.436 149.189H149.949V155.676H156.436V149.189Z" fill="black"/>
<path d="M162.922 149.189H156.436V155.676H162.922V149.189Z" fill="black"/>
<path d="M175.895 149.189H169.409V155.676H175.895V149.189Z" fill="black"/>
<path d="M188.868 149.189H182.382V155.676H188.868V149.189Z" fill="black"/>
<path d="M195.354 149.189H188.868V155.676H195.354V149.189Z" fill="black"/>
<path d="M208.328 149.189H201.841V155.676H208.328V149.189Z" fill="black"/>
<path d="M214.814 149.189H208.328V155.676H214.814V149.189Z" fill="black"/>
<path d="M227.787 149.189H221.301V155.676H227.787V149.189Z" fill="black"/>
<path d="M234.274 149.189H227.787V155.676H234.274V149.189Z" fill="black"/>
<path d="M240.76 149.189H234.273V155.676H240.76V149.189Z" fill="black"/>
<path d="M13.7331 155.676H7.24658V162.162H13.7331V155.676Z" fill="black"/>
<path d="M20.2194 155.676H13.7329V162.162H20.2194V155.676Z" fill="black"/>
<path d="M33.1925 155.676H26.7061V162.162H33.1925V155.676Z" fill="black"/>
<path d="M46.1654 155.676H39.679V162.162H46.1654V155.676Z" fill="black"/>
<path d="M65.6249 155.676H59.1384V162.162H65.6249V155.676Z" fill="black"/>
<path d="M78.5978 155.676H72.1113V162.162H78.5978V155.676Z" fill="black"/>
<path d="M85.0841 155.676H78.5977V162.162H85.0841V155.676Z" fill="black"/>
<path d="M91.5707 155.676H85.0842V162.162H91.5707V155.676Z" fill="black"/>
<path d="M124.003 155.676H117.517V162.162H124.003V155.676Z" fill="black"/>
<path d="M149.949 155.676H143.463V162.162H149.949V155.676Z" fill="black"/>
<path d="M162.922 155.676H156.436V162.162H162.922V155.676Z" fill="black"/>
<path d="M175.895 155.676H169.409V162.162H175.895V155.676Z" fill="black"/>
<path d="M188.868 155.676H182.382V162.162H188.868V155.676Z" fill="black"/>
<path d="M201.841 155.676H195.354V162.162H201.841V155.676Z" fill="black"/>
<path d="M221.3 155.676H214.814V162.162H221.3V155.676Z" fill="black"/>
<path d="M227.787 155.676H221.301V162.162H227.787V155.676Z" fill="black"/>
<path d="M234.274 155.676H227.787V162.162H234.274V155.676Z" fill="black"/>
<path d="M240.76 155.676H234.273V162.162H240.76V155.676Z" fill="black"/>
<path d="M7.2465 162.162H0.76001V168.649H7.2465V162.162Z" fill="black"/>
<path d="M20.2194 162.162H13.7329V168.649H20.2194V162.162Z" fill="black"/>
<path d="M26.706 162.162H20.2195V168.649H26.706V162.162Z" fill="black"/>
<path d="M59.1386 162.162H52.6521V168.649H59.1386V162.162Z" fill="black"/>
<path d="M72.1112 162.162H65.6248V168.649H72.1112V162.162Z" fill="black"/>
<path d="M78.5978 162.162H72.1113V168.649H78.5978V162.162Z" fill="black"/>
<path d="M85.0841 162.162H78.5977V168.649H85.0841V162.162Z" fill="black"/>
<path d="M91.5707 162.162H85.0842V168.649H91.5707V162.162Z" fill="black"/>
<path d="M111.03 162.162H104.544V168.649H111.03V162.162Z" fill="black"/>
<path d="M117.517 162.162H111.03V168.649H117.517V162.162Z" fill="black"/>
<path d="M130.49 162.162H124.003V168.649H130.49V162.162Z" fill="black"/>
<path d="M136.976 162.162H130.49V168.649H136.976V162.162Z" fill="black"/>
<path d="M143.463 162.162H136.976V168.649H143.463V162.162Z" fill="black"/>
<path d="M169.409 162.162H162.922V168.649H169.409V162.162Z" fill="black"/>
<path d="M182.382 162.162H175.895V168.649H182.382V162.162Z" fill="black"/>
<path d="M195.354 162.162H188.868V168.649H195.354V162.162Z" fill="black"/>
<path d="M208.328 162.162H201.841V168.649H208.328V162.162Z" fill="black"/>
<path d="M214.814 162.162H208.328V168.649H214.814V162.162Z" fill="black"/>
<path d="M20.2194 168.649H13.7329V175.135H20.2194V168.649Z" fill="black"/>
<path d="M26.706 168.649H20.2195V175.135H26.706V168.649Z" fill="black"/>
<path d="M33.1925 168.649H26.7061V175.135H33.1925V168.649Z" fill="black"/>
<path d="M39.6791 168.649H33.1926V175.135H39.6791V168.649Z" fill="black"/>
<path d="M46.1654 168.649H39.679V175.135H46.1654V168.649Z" fill="black"/>
<path d="M59.1386 168.649H52.6521V175.135H59.1386V168.649Z" fill="black"/>
<path d="M72.1112 168.649H65.6248V175.135H72.1112V168.649Z" fill="black"/>
<path d="M85.0841 168.649H78.5977V175.135H85.0841V168.649Z" fill="black"/>
<path d="M98.0573 168.649H91.5708V175.135H98.0573V168.649Z" fill="black"/>
<path d="M111.03 168.649H104.544V175.135H111.03V168.649Z" fill="black"/>
<path d="M124.003 168.649H117.517V175.135H124.003V168.649Z" fill="black"/>
<path d="M136.976 168.649H130.49V175.135H136.976V168.649Z" fill="black"/>
<path d="M182.382 168.649H175.895V175.135H182.382V168.649Z" fill="black"/>
<path d="M208.328 168.649H201.841V175.135H208.328V168.649Z" fill="black"/>
<path d="M214.814 168.649H208.328V175.135H214.814V168.649Z" fill="black"/>
<path d="M227.787 168.649H221.301V175.135H227.787V168.649Z" fill="black"/>
<path d="M20.2194 175.135H13.7329V181.622H20.2194V175.135Z" fill="black"/>
<path d="M52.652 175.135H46.1655V181.622H52.652V175.135Z" fill="black"/>
<path d="M65.6249 175.135H59.1384V181.622H65.6249V175.135Z" fill="black"/>
<path d="M85.0841 175.135H78.5977V181.622H85.0841V175.135Z" fill="black"/>
<path d="M117.517 175.135H111.03V181.622H117.517V175.135Z" fill="black"/>
<path d="M124.003 175.135H117.517V181.622H124.003V175.135Z" fill="black"/>
<path d="M143.463 175.135H136.976V181.622H143.463V175.135Z" fill="black"/>
<path d="M149.949 175.135H143.463V181.622H149.949V175.135Z" fill="black"/>
<path d="M162.922 175.135H156.436V181.622H162.922V175.135Z" fill="black"/>
<path d="M182.382 175.135H175.895V181.622H182.382V175.135Z" fill="black"/>
<path d="M188.868 175.135H182.382V181.622H188.868V175.135Z" fill="black"/>
<path d="M195.354 175.135H188.868V181.622H195.354V175.135Z" fill="black"/>
<path d="M221.3 175.135H214.814V181.622H221.3V175.135Z" fill="black"/>
<path d="M227.787 175.135H221.301V181.622H227.787V175.135Z" fill="black"/>
<path d="M240.76 175.135H234.273V181.622H240.76V175.135Z" fill="black"/>
<path d="M7.2465 181.622H0.76001V188.108H7.2465V181.622Z" fill="black"/>
<path d="M13.7331 181.622H7.24658V188.108H13.7331V181.622Z" fill="black"/>
<path d="M20.2194 181.622H13.7329V188.108H20.2194V181.622Z" fill="black"/>
<path d="M39.6791 181.622H33.1926V188.108H39.6791V181.622Z" fill="black"/>
<path d="M46.1654 181.622H39.679V188.108H46.1654V181.622Z" fill="black"/>
<path d="M52.652 181.622H46.1655V188.108H52.652V181.622Z" fill="black"/>
<path d="M59.1386 181.622H52.6521V188.108H59.1386V181.622Z" fill="black"/>
<path d="M65.6249 181.622H59.1384V188.108H65.6249V181.622Z" fill="black"/>
<path d="M85.0841 181.622H78.5977V188.108H85.0841V181.622Z" fill="black"/>
<path d="M98.0573 181.622H91.5708V188.108H98.0573V181.622Z" fill="black"/>
<path d="M104.544 181.622H98.0574V188.108H104.544V181.622Z" fill="black"/>
<path d="M111.03 181.622H104.544V188.108H111.03V181.622Z" fill="black"/>
<path d="M117.517 181.622H111.03V188.108H117.517V181.622Z" fill="black"/>
<path d="M130.49 181.622H124.003V188.108H130.49V181.622Z" fill="black"/>
<path d="M136.976 181.622H130.49V188.108H136.976V181.622Z" fill="black"/>
<path d="M143.463 181.622H136.976V188.108H143.463V181.622Z" fill="black"/>
<path d="M149.949 181.622H143.463V188.108H149.949V181.622Z" fill="black"/>
<path d="M156.436 181.622H149.949V188.108H156.436V181.622Z" fill="black"/>
<path d="M162.922 181.622H156.436V188.108H162.922V181.622Z" fill="black"/>
<path d="M188.868 181.622H182.382V188.108H188.868V181.622Z" fill="black"/>
<path d="M195.354 181.622H188.868V188.108H195.354V181.622Z" fill="black"/>
<path d="M201.841 181.622H195.354V188.108H201.841V181.622Z" fill="black"/>
<path d="M208.328 181.622H201.841V188.108H208.328V181.622Z" fill="black"/>
<path d="M214.814 181.622H208.328V188.108H214.814V181.622Z" fill="black"/>
<path d="M221.3 181.622H214.814V188.108H221.3V181.622Z" fill="black"/>
<path d="M227.787 181.622H221.301V188.108H227.787V181.622Z" fill="black"/>
<path d="M234.274 181.622H227.787V188.108H234.274V181.622Z" fill="black"/>
<path d="M59.1386 188.108H52.6521V194.595H59.1386V188.108Z" fill="black"/>
<path d="M65.6249 188.108H59.1384V194.595H65.6249V188.108Z" fill="black"/>
<path d="M85.0841 188.108H78.5977V194.595H85.0841V188.108Z" fill="black"/>
<path d="M104.544 188.108H98.0574V194.595H104.544V188.108Z" fill="black"/>
<path d="M111.03 188.108H104.544V194.595H111.03V188.108Z" fill="black"/>
<path d="M117.517 188.108H111.03V194.595H117.517V188.108Z" fill="black"/>
<path d="M124.003 188.108H117.517V194.595H124.003V188.108Z" fill="black"/>
<path d="M149.949 188.108H143.463V194.595H149.949V188.108Z" fill="black"/>
<path d="M156.436 188.108H149.949V194.595H156.436V188.108Z" fill="black"/>
<path d="M169.409 188.108H162.922V194.595H169.409V188.108Z" fill="black"/>
<path d="M182.382 188.108H175.895V194.595H182.382V188.108Z" fill="black"/>
<path d="M188.868 188.108H182.382V194.595H188.868V188.108Z" fill="black"/>
<path d="M214.814 188.108H208.328V194.595H214.814V188.108Z" fill="black"/>
<path d="M234.274 188.108H227.787V194.595H234.274V188.108Z" fill="black"/>
<path d="M59.1386 194.594H52.6521V201.081H59.1386V194.594Z" fill="black"/>
<path d="M78.5978 194.594H72.1113V201.081H78.5978V194.594Z" fill="black"/>
<path d="M91.5707 194.594H85.0842V201.081H91.5707V194.594Z" fill="black"/>
<path d="M104.544 194.594H98.0574V201.081H104.544V194.594Z" fill="black"/>
<path d="M124.003 194.594H117.517V201.081H124.003V194.594Z" fill="black"/>
<path d="M136.976 194.594H130.49V201.081H136.976V194.594Z" fill="black"/>
<path d="M143.463 194.594H136.976V201.081H143.463V194.594Z" fill="black"/>
<path d="M149.949 194.594H143.463V201.081H149.949V194.594Z" fill="black"/>
<path d="M156.436 194.594H149.949V201.081H156.436V194.594Z" fill="black"/>
<path d="M162.922 194.594H156.436V201.081H162.922V194.594Z" fill="black"/>
<path d="M175.895 194.594H169.409V201.081H175.895V194.594Z" fill="black"/>
<path d="M188.868 194.594H182.382V201.081H188.868V194.594Z" fill="black"/>
<path d="M201.841 194.594H195.354V201.081H201.841V194.594Z" fill="black"/>
<path d="M214.814 194.594H208.328V201.081H214.814V194.594Z" fill="black"/>
<path d="M143.463 201.081H136.976V207.568H143.463V201.081Z" fill="black"/>
<path d="M156.436 201.081H149.949V207.568H156.436V201.081Z" fill="black"/>
<path d="M162.922 201.081H156.436V207.568H162.922V201.081Z" fill="black"/>
<path d="M188.868 201.081H182.382V207.568H188.868V201.081Z" fill="black"/>
<path d="M214.814 201.081H208.328V207.568H214.814V201.081Z" fill="black"/>
<path d="M221.3 201.081H214.814V207.568H221.3V201.081Z" fill="black"/>
<path d="M227.787 201.081H221.301V207.568H227.787V201.081Z" fill="black"/>
<path d="M234.274 201.081H227.787V207.568H234.274V201.081Z" fill="black"/>
<path d="M240.76 201.081H234.273V207.568H240.76V201.081Z" fill="black"/>
<path d="M59.1386 207.568H52.6521V214.054H59.1386V207.568Z" fill="black"/>
<path d="M72.1112 207.568H65.6248V214.054H72.1112V207.568Z" fill="black"/>
<path d="M85.0841 207.568H78.5977V214.054H85.0841V207.568Z" fill="black"/>
<path d="M104.544 207.568H98.0574V214.054H104.544V207.568Z" fill="black"/>
<path d="M111.03 207.568H104.544V214.054H111.03V207.568Z" fill="black"/>
<path d="M130.49 207.568H124.003V214.054H130.49V207.568Z" fill="black"/>
<path d="M136.976 207.568H130.49V214.054H136.976V207.568Z" fill="black"/>
<path d="M156.436 207.568H149.949V214.054H156.436V207.568Z" fill="black"/>
<path d="M162.922 207.568H156.436V214.054H162.922V207.568Z" fill="black"/>
<path d="M175.895 207.568H169.409V214.054H175.895V207.568Z" fill="black"/>
<path d="M188.868 207.568H182.382V214.054H188.868V207.568Z" fill="black"/>
<path d="M195.354 207.568H188.868V214.054H195.354V207.568Z" fill="black"/>
<path d="M201.841 207.568H195.354V214.054H201.841V207.568Z" fill="black"/>
<path d="M208.328 207.568H201.841V214.054H208.328V207.568Z" fill="black"/>
<path d="M214.814 207.568H208.328V214.054H214.814V207.568Z" fill="black"/>
<path d="M221.3 207.568H214.814V214.054H221.3V207.568Z" fill="black"/>
<path d="M227.787 207.568H221.301V214.054H227.787V207.568Z" fill="black"/>
<path d="M240.76 207.568H234.273V214.054H240.76V207.568Z" fill="black"/>
<path d="M72.1112 214.054H65.6248V220.54H72.1112V214.054Z" fill="black"/>
<path d="M91.5707 214.054H85.0842V220.54H91.5707V214.054Z" fill="black"/>
<path d="M117.517 214.054H111.03V220.54H117.517V214.054Z" fill="black"/>
<path d="M124.003 214.054H117.517V220.54H124.003V214.054Z" fill="black"/>
<path d="M130.49 214.054H124.003V220.54H130.49V214.054Z" fill="black"/>
<path d="M143.463 214.054H136.976V220.54H143.463V214.054Z" fill="black"/>
<path d="M149.949 214.054H143.463V220.54H149.949V214.054Z" fill="black"/>
<path d="M162.922 214.054H156.436V220.54H162.922V214.054Z" fill="black"/>
<path d="M169.409 214.054H162.922V220.54H169.409V214.054Z" fill="black"/>
<path d="M182.382 214.054H175.895V220.54H182.382V214.054Z" fill="black"/>
<path d="M195.354 214.054H188.868V220.54H195.354V214.054Z" fill="black"/>
<path d="M201.841 214.054H195.354V220.54H201.841V214.054Z" fill="black"/>
<path d="M208.328 214.054H201.841V220.54H208.328V214.054Z" fill="black"/>
<path d="M221.3 214.054H214.814V220.54H221.3V214.054Z" fill="black"/>
<path d="M234.274 214.054H227.787V220.54H234.274V214.054Z" fill="black"/>
<path d="M72.1112 220.541H65.6248V227.027H72.1112V220.541Z" fill="black"/>
<path d="M78.5978 220.541H72.1113V227.027H78.5978V220.541Z" fill="black"/>
<path d="M91.5707 220.541H85.0842V227.027H91.5707V220.541Z" fill="black"/>
<path d="M104.544 220.541H98.0574V227.027H104.544V220.541Z" fill="black"/>
<path d="M117.517 220.541H111.03V227.027H117.517V220.541Z" fill="black"/>
<path d="M124.003 220.541H117.517V227.027H124.003V220.541Z" fill="black"/>
<path d="M130.49 220.541H124.003V227.027H130.49V220.541Z" fill="black"/>
<path d="M143.463 220.541H136.976V227.027H143.463V220.541Z" fill="black"/>
<path d="M149.949 220.541H143.463V227.027H149.949V220.541Z" fill="black"/>
<path d="M156.436 220.541H149.949V227.027H156.436V220.541Z" fill="black"/>
<path d="M162.922 220.541H156.436V227.027H162.922V220.541Z" fill="black"/>
<path d="M182.382 220.541H175.895V227.027H182.382V220.541Z" fill="black"/>
<path d="M195.354 220.541H188.868V227.027H195.354V220.541Z" fill="black"/>
<path d="M201.841 220.541H195.354V227.027H201.841V220.541Z" fill="black"/>
<path d="M227.787 220.541H221.301V227.027H227.787V220.541Z" fill="black"/>
<path d="M234.274 220.541H227.787V227.027H234.274V220.541Z" fill="black"/>
<path d="M72.1112 227.027H65.6248V233.513H72.1112V227.027Z" fill="black"/>
<path d="M98.0573 227.027H91.5708V233.513H98.0573V227.027Z" fill="black"/>
<path d="M104.544 227.027H98.0574V233.513H104.544V227.027Z" fill="black"/>
<path d="M111.03 227.027H104.544V233.513H111.03V227.027Z" fill="black"/>
<path d="M117.517 227.027H111.03V233.513H117.517V227.027Z" fill="black"/>
<path d="M124.003 227.027H117.517V233.513H124.003V227.027Z" fill="black"/>
<path d="M130.49 227.027H124.003V233.513H130.49V227.027Z" fill="black"/>
<path d="M136.976 227.027H130.49V233.513H136.976V227.027Z" fill="black"/>
<path d="M143.463 227.027H136.976V233.513H143.463V227.027Z" fill="black"/>
<path d="M156.436 227.027H149.949V233.513H156.436V227.027Z" fill="black"/>
<path d="M162.922 227.027H156.436V233.513H162.922V227.027Z" fill="black"/>
<path d="M195.354 227.027H188.868V233.513H195.354V227.027Z" fill="black"/>
<path d="M214.814 227.027H208.328V233.513H214.814V227.027Z" fill="black"/>
<path d="M221.3 227.027H214.814V233.513H221.3V227.027Z" fill="black"/>
<path d="M227.787 227.027H221.301V233.513H227.787V227.027Z" fill="black"/>
<path d="M234.274 227.027H227.787V233.513H234.274V227.027Z" fill="black"/>
<path d="M59.1386 233.514H52.6521V240H59.1386V233.514Z" fill="black"/>
<path d="M85.0841 233.514H78.5977V240H85.0841V233.514Z" fill="black"/>
<path d="M117.517 233.514H111.03V240H117.517V233.514Z" fill="black"/>
<path d="M124.003 233.514H117.517V240H124.003V233.514Z" fill="black"/>
<path d="M136.976 233.514H130.49V240H136.976V233.514Z" fill="black"/>
<path d="M143.463 233.514H136.976V240H143.463V233.514Z" fill="black"/>
<path d="M149.949 233.514H143.463V240H149.949V233.514Z" fill="black"/>
<path d="M162.922 233.514H156.436V240H162.922V233.514Z" fill="black"/>
<path d="M195.354 233.514H188.868V240H195.354V233.514Z" fill="black"/>
<path d="M201.841 233.514H195.354V240H201.841V233.514Z" fill="black"/>
<path d="M208.328 233.514H201.841V240H208.328V233.514Z" fill="black"/>
<path d="M221.3 233.514H214.814V240H221.3V233.514Z" fill="black"/>
<path d="M227.787 233.514H221.301V240H227.787V233.514Z" fill="black"/>
<path d="M234.274 233.514H227.787V240H234.274V233.514Z" fill="black"/>
<path d="M240.76 233.514H234.273V240H240.76V233.514Z" fill="black"/>
<path d="M39.3546 0H7.57082H0.76001V6.81081V38.5946V45.4054H7.57082H39.3546H46.1654V38.5946V6.81081V0H39.3546ZM39.3546 38.5946H7.57082V6.81081H39.3546V38.5946Z" fill="black"/>
<path d="M233.949 0H202.165H195.354V6.81081V38.5946V45.4054H202.165H233.949H240.76V38.5946V6.81081V0H233.949ZM233.949 38.5946H202.165V6.81081H233.949V38.5946Z" fill="black"/>
<path d="M39.3546 194.594H7.57082H0.76001V201.405V233.189V240H7.57082H39.3546H46.1654V233.189V201.405V194.594H39.3546ZM39.3546 233.189H7.57082V201.405H39.3546V233.189Z" fill="black"/>
<path d="M33.1924 12.973H13.7329V32.4325H33.1924V12.973Z" fill="black"/>
<path d="M227.787 12.973H208.328V32.4325H227.787V12.973Z" fill="black"/>
<path d="M33.1924 207.568H13.7329V227.027H33.1924V207.568Z" fill="black"/>
</svg>
