<svg width="161" height="40" viewBox="0 0 161 40" fill="none" xmlns="http://www.w3.org/2000/svg">
<path d="M43.8903 16.7812C44.805 16.7812 45.8861 16.7812 46.8009 17.4465C47.383 17.8623 48.1315 18.6939 48.1315 20.1076C48.1315 21.6877 47.1335 23.5172 44.3892 23.5172H42.0607V27.8415H39.9817V16.7812H43.8903ZM43.9734 21.9371C44.3892 21.9371 45.0545 21.9371 45.5535 21.4382C45.8861 21.1055 46.1356 20.6066 46.1356 20.1076C46.1356 19.6918 45.9693 19.1929 45.6366 18.8602C45.304 18.5276 44.7219 18.4444 44.0566 18.4444H42.0607V21.9371H43.9734V21.9371Z" fill="#19502E"/>
<path d="M49.9603 20.3299C50.5425 19.8309 51.3741 19.332 52.6215 19.332C53.8689 19.332 54.7005 19.8309 55.2826 20.3299C56.1142 21.1615 56.5301 22.3257 56.5301 23.5731C56.5301 24.8205 56.1142 26.0679 55.2826 26.8164C54.7005 27.3153 53.8689 27.8143 52.6215 27.8143C51.3741 27.8143 50.5425 27.3153 49.9603 26.8164C49.1287 25.9848 48.7129 24.8205 48.7129 23.5731C48.6297 22.3257 49.0456 21.1615 49.9603 20.3299ZM51.2909 25.9016C51.4572 26.1511 51.873 26.4837 52.6215 26.4837C53.3699 26.4837 53.7026 26.0679 53.9521 25.9016C54.1184 25.7353 54.5342 25.07 54.5342 23.5731C54.5342 22.0763 54.0352 21.411 53.9521 21.2447C53.7857 20.9952 53.3699 20.6625 52.6215 20.6625C51.873 20.6625 51.5404 21.0783 51.2909 21.2447C51.1246 21.411 50.7088 22.0763 50.7088 23.5731C50.7088 25.1532 51.2077 25.8185 51.2909 25.9016Z" fill="#19502E"/>
<path d="M62.912 22.4921C62.912 22.0763 62.7457 21.5773 62.4962 21.2447C62.3299 20.9952 61.914 20.6625 61.2488 20.6625C60.5835 20.6625 60.1677 20.9952 59.9182 21.411C59.5024 22.0763 59.5024 23.0742 59.5024 23.5731C59.5024 24.3216 59.5855 25.2363 59.9182 25.7353C60.1677 26.0679 60.5835 26.4837 61.2488 26.4837C61.7477 26.4837 62.1635 26.3174 62.413 25.9016C62.6625 25.569 62.8288 25.07 62.8288 24.6542L64.5752 24.9037C64.492 25.6521 64.1594 26.4837 63.5773 27.0658C63.0783 27.4816 62.3299 27.8974 61.1656 27.8974C59.9182 27.8974 59.1697 27.3985 58.6708 26.9827C58.0055 26.4006 57.4233 25.3195 57.4233 23.6563C57.4233 22.0763 57.9223 21.1615 58.3381 20.6625C58.9202 19.9141 59.9182 19.332 61.1656 19.332C62.1635 19.332 62.9951 19.6646 63.5773 20.2467C64.0762 20.7457 64.4089 21.5773 64.5752 22.3257L62.912 22.4921Z" fill="#19502E"/>
<path d="M70.9621 22.4921C70.9621 22.0763 70.7957 21.5773 70.5462 21.2447C70.3799 20.9952 69.9641 20.6625 69.2988 20.6625C68.6335 20.6625 68.2177 20.9952 67.9682 21.411C67.5524 22.0763 67.5524 23.0742 67.5524 23.5731C67.5524 24.3216 67.6356 25.2363 67.9682 25.7353C68.2177 26.0679 68.6335 26.4837 69.2988 26.4837C69.7978 26.4837 70.2136 26.3174 70.4631 25.9016C70.7126 25.569 70.8789 25.07 70.8789 24.6542L72.6253 24.9037C72.5421 25.6521 72.2095 26.4837 71.6273 27.0658C71.1284 27.4816 70.3799 27.8974 69.2157 27.8974C67.9682 27.8974 67.2198 27.3985 66.7208 26.9827C66.0555 26.4006 65.4734 25.3195 65.4734 23.6563C65.4734 22.0763 65.9724 21.1615 66.3882 20.6625C66.9703 19.9141 67.9682 19.332 69.2157 19.332C70.2136 19.332 71.0452 19.6646 71.6273 20.2467C72.1263 20.7457 72.459 21.5773 72.6253 22.3257L70.9621 22.4921Z" fill="#19502E"/>
<path d="M81.3915 25.3195C81.142 26.3174 80.5599 26.8164 80.0609 27.2322C79.3956 27.648 78.564 27.8974 77.6492 27.8974C76.5681 27.8974 75.4039 27.3985 74.7386 26.7332C74.0733 26.0679 73.6575 24.9869 73.6575 23.6563C73.6575 21.9931 74.3228 20.8289 75.0712 20.2467C75.487 19.9141 76.3186 19.332 77.5661 19.332C79.1462 19.332 80.1441 20.0804 80.6431 20.8289C81.2252 21.5773 81.4747 22.6584 81.4747 23.6563V23.9889H75.6534C75.6534 24.0721 75.6534 24.8205 75.9028 25.4027C76.3186 26.3174 77.1503 26.5669 77.6492 26.5669C78.0651 26.5669 78.6472 26.4006 79.063 25.9848C79.3125 25.7353 79.4788 25.4027 79.4788 25.1532L81.3915 25.3195ZM79.4788 22.7415C79.4788 22.2426 79.3956 21.7436 79.1462 21.411C78.8135 20.9952 78.3145 20.6625 77.7324 20.6625C77.1503 20.6625 76.5681 20.9952 76.2355 21.3278C75.986 21.6605 75.7365 22.1594 75.7365 22.7415H79.4788Z" fill="#19502E"/>
<path d="M89.5113 19.6005V27.8333H87.5986V21.0142H85.4364C85.3533 22.0953 85.3533 22.5942 85.3533 23.3427C85.2701 24.1743 85.2701 26.0038 84.5217 27.0017C84.1059 27.5007 83.6069 27.7501 83.2742 27.8333C83.0248 27.9165 82.8584 27.9165 82.609 27.9165C82.4426 27.9165 82.2763 27.9165 82.11 27.8333V26.4196H82.2763C82.5258 26.4196 82.8584 26.2533 83.0248 26.0869C83.6901 25.588 83.7732 24.4237 83.7732 23.509C83.8564 22.2616 83.8564 21.5963 83.8564 20.4321V19.6005H89.5113Z" fill="#19502E"/>
<path d="M93.3313 22.5111H95.4103C95.9093 22.5111 96.9904 22.5942 97.6557 23.2595C98.2378 23.8416 98.3209 24.6732 98.3209 25.1722C98.3209 26.3364 97.822 26.9185 97.4893 27.2512C97.323 27.3344 96.7409 27.8333 95.5766 27.8333H91.5017V19.6005H93.4144V22.5111H93.3313ZM93.3313 26.5027H94.8282C95.1608 26.5027 95.5766 26.5027 95.9093 26.2533C96.0756 26.0869 96.3251 25.7543 96.3251 25.2553C96.3251 24.8395 96.1587 24.4237 95.8261 24.1743C95.4935 23.9248 95.0776 23.9248 94.8282 23.9248H93.3313V26.5027Z" fill="#19502E"/>
<path d="M101.107 19.6005L102.604 22.1784L104.184 19.6005H105.931L103.519 23.3427L106.347 27.8333H104.184L102.272 24.7564L100.359 27.8333H98.6125L101.44 23.5921L98.9452 19.6005H101.107Z" fill="#19502E"/>
<path d="M107.785 20.3299C108.367 19.8309 109.198 19.332 110.446 19.332C111.693 19.332 112.525 19.8309 113.107 20.3299C113.939 21.1615 114.354 22.3257 114.354 23.5731C114.354 24.8205 113.939 26.0679 113.107 26.8164C112.525 27.3153 111.693 27.8143 110.446 27.8143C109.198 27.8143 108.367 27.3153 107.785 26.8164C106.953 25.9848 106.537 24.8205 106.537 23.5731C106.454 22.3257 106.953 21.1615 107.785 20.3299ZM109.115 25.9016C109.282 26.1511 109.697 26.4837 110.446 26.4837C111.194 26.4837 111.527 26.0679 111.776 25.9016C111.943 25.7353 112.359 25.07 112.359 23.5731C112.359 22.0763 111.86 21.411 111.776 21.2447C111.61 20.9952 111.194 20.6625 110.446 20.6625C109.697 20.6625 109.365 21.0783 109.115 21.2447C108.949 21.411 108.533 22.0763 108.533 23.5731C108.533 25.1532 109.032 25.8185 109.115 25.9016Z" fill="#19502E"/>
<path d="M115.332 21.7436C115.582 20.7457 116.164 20.1636 116.663 19.9141C116.912 19.7478 117.661 19.332 118.991 19.332C119.823 19.332 120.655 19.4983 121.237 19.8309C122.152 20.3299 122.401 21.0783 122.401 21.5773C122.401 22.1594 122.152 23.2405 120.738 23.4068C121.237 23.49 121.736 23.6563 122.068 23.9889C122.318 24.3216 122.567 24.8205 122.567 25.4027C122.567 26.2343 122.068 26.9827 121.486 27.3985C120.738 27.8975 119.74 27.9806 118.991 27.9806C118.243 27.9806 117.079 27.8975 116.247 27.2322C115.831 26.8995 115.416 26.2343 115.249 25.4858L116.912 25.2363C116.996 25.4858 117.162 25.9016 117.328 26.0679C117.744 26.5669 118.409 26.5669 118.825 26.5669C119.241 26.5669 119.657 26.4837 120.073 26.3174C120.405 26.0679 120.572 25.8185 120.572 25.4027C120.572 25.07 120.488 24.8205 120.239 24.5711C119.906 24.2384 119.407 24.2384 118.908 24.2384H118.077V22.991H118.908C119.241 22.991 119.74 22.9079 119.989 22.8247C120.322 22.6584 120.488 22.3257 120.488 21.9099C120.488 21.6605 120.405 21.411 120.156 21.2447C119.74 20.912 119.241 20.912 118.991 20.912C118.659 20.912 118.077 20.9952 117.578 21.3278C117.411 21.4941 117.162 21.8268 117.079 22.2426L115.332 21.7436Z" fill="#19502E"/>
<path d="M132.19 18.6939H126.867V21.1055H129.279C130.111 21.1055 130.942 21.1887 131.774 21.7708C132.605 22.353 133.104 23.1846 133.104 24.3488C133.104 25.513 132.689 26.3446 132.19 26.8436C131.358 27.6752 130.443 27.7584 129.528 27.7584H124.372V16.7812H132.273V18.6939H132.19ZM126.867 25.9288H128.946C129.362 25.9288 129.695 25.9288 130.027 25.513C130.36 25.1804 130.443 24.7646 130.443 24.432C130.443 24.0993 130.36 23.6835 130.027 23.434C129.695 23.1014 129.196 23.0182 128.863 23.0182H126.867V25.9288Z" fill="#19502E"/>
<path d="M134.416 21.8779C134.666 20.7968 135.414 20.2147 135.83 19.9652C136.495 19.6325 137.327 19.4662 138.408 19.4662C139.738 19.4662 141.152 19.6325 141.734 20.8799C142.067 21.5452 142.067 22.2105 142.067 22.8758V26.0359C142.067 26.7011 142.15 27.2833 142.317 27.7822H139.988C139.905 27.4496 139.905 27.0338 139.822 26.4517C139.489 27.0338 138.741 27.9485 137.077 27.9485C136.329 27.9485 135.58 27.7822 134.998 27.2833C134.499 26.8675 134.167 26.2022 134.167 25.4537C134.167 24.6221 134.499 23.6242 135.913 23.0421C136.828 22.7095 138.325 22.5431 138.99 22.5431H139.738V22.3768C139.738 22.1273 139.738 21.6284 139.489 21.3789C139.156 21.0463 138.574 21.0463 138.325 21.0463C137.992 21.0463 137.576 21.0463 137.244 21.2957C136.994 21.4621 136.745 21.7115 136.661 22.1273L134.416 21.8779ZM138.99 23.8737C138.158 23.9569 137.41 24.04 136.911 24.6221C136.745 24.7885 136.661 25.0379 136.661 25.3706C136.661 25.7032 136.828 25.9527 136.994 26.119C137.244 26.2853 137.576 26.3685 137.909 26.3685C138.408 26.3685 138.99 26.119 139.323 25.7864C139.406 25.7032 139.738 25.2874 139.738 24.2895V23.8737H138.99Z" fill="#19502E"/>
<path d="M146.238 19.6005V22.6774H148.816V19.6005H151.228V27.8333H148.816V24.3406H146.238V27.8333H143.827V19.6005H146.238Z" fill="#19502E"/>
<path d="M155.579 19.6005V22.7605H156.244C156.91 22.7605 157.242 22.4279 157.409 22.0121C157.741 21.2637 157.741 20.6815 158.074 20.1826C158.323 19.7668 158.656 19.6005 158.822 19.6005H160.818C160.569 19.8499 160.319 20.1826 160.153 20.5152C159.903 21.0142 159.654 21.9289 159.488 22.2616C159.321 22.7605 158.989 23.2595 158.157 23.3427C158.573 23.4258 159.072 23.6753 159.404 24.1743C159.571 24.5069 159.737 24.9227 159.987 25.5048C160.236 26.1701 160.319 26.3364 160.486 26.8354C160.652 27.2512 160.735 27.4175 160.985 27.7501H158.739C158.407 27.667 158.157 27.4175 157.824 26.5859C157.575 25.9206 157.575 25.7543 157.409 25.3385L157.325 25.089C157.076 24.5069 156.743 24.3406 156.244 24.3406H155.496V27.8333H153.084V19.6005H155.579V19.6005Z" fill="#19502E"/>
<path fill-rule="evenodd" clip-rule="evenodd" d="M17.7965 40C7.98347 40 0 32.0166 0 22.2869C0 16.632 2.578 11.4761 7.0687 8.06653L7.23502 7.90021V0H17.4638V4.49064C17.547 4.49064 17.6302 4.49064 17.7965 4.49064C27.6095 4.49064 35.593 12.474 35.593 22.2869C35.5098 32.0166 27.6095 40 17.7965 40Z" fill="#19502E"/>
<path fill-rule="evenodd" clip-rule="evenodd" d="M12.6117 22.5834L16.2708 18.9243V16.5127L12.6117 20.0886V22.5834Z" fill="#FFCB05"/>
<path fill-rule="evenodd" clip-rule="evenodd" d="M12.6117 13.3713L16.2708 9.79537V7.38373L12.6117 11.0428V13.3713Z" fill="#FFCB05"/>
<path fill-rule="evenodd" clip-rule="evenodd" d="M12.6117 16.3247L16.2708 12.6657V10.3372L12.6117 13.9963V16.3247Z" fill="#FFCB05"/>
<path fill-rule="evenodd" clip-rule="evenodd" d="M11.6126 7.44526L11.1137 6.9463V1.20825H10.6147V6.44734L10.1157 5.94838V1.20825H9.53361V5.36626L9.03464 4.8673V1.20825H8.45251V6.69682L12.1948 10.3559V1.20825H11.6126V7.44526Z" fill="#FFCB05"/>
<path fill-rule="evenodd" clip-rule="evenodd" d="M12.6117 19.4125L16.2708 15.7534V13.425L12.6117 17.0008V19.4125Z" fill="#FFCB05"/>
<path fill-rule="evenodd" clip-rule="evenodd" d="M8.45251 18.9243L12.1948 22.5834V20.0886L8.45251 16.5127V18.9243Z" fill="#FFCB05"/>
<path fill-rule="evenodd" clip-rule="evenodd" d="M15.7718 4.8673L15.2729 5.36626V1.20825H14.6907V5.94838L14.1918 6.44734V1.20825H13.6928V6.9463L13.1938 7.44526V1.20825H12.6117V10.3559L16.2708 6.69682V1.20825H15.7718V4.8673Z" fill="#FFCB05"/>
<path fill-rule="evenodd" clip-rule="evenodd" d="M8.45251 9.79537L12.1948 13.3713V11.0428L8.45251 7.38373V9.79537Z" fill="#FFCB05"/>
<path fill-rule="evenodd" clip-rule="evenodd" d="M8.45251 12.6657L12.1948 16.3247V13.9963L8.45251 10.3372V12.6657Z" fill="#FFCB05"/>
<path fill-rule="evenodd" clip-rule="evenodd" d="M8.45251 15.7534L12.1948 19.4125V17.0008L8.45251 13.425V15.7534Z" fill="#FFCB05"/>
<path fill-rule="evenodd" clip-rule="evenodd" d="M30.5357 17.6781H21.887H21.4712C21.6375 17.3454 21.8038 17.0128 21.8038 16.6801C21.8038 15.5991 20.9722 14.7675 19.8911 14.7675C18.81 14.7675 17.9784 15.5991 17.9784 16.6801C17.9784 17.0959 18.1447 17.5117 18.311 17.8444C18.1447 17.9275 18.0616 18.177 18.0616 18.3433C18.0616 18.5928 18.1447 18.7591 18.311 18.8423C18.0616 19.1749 17.9784 19.5076 17.9784 20.0065C17.9784 21.0876 18.81 21.9192 19.8911 21.9192C20.9722 21.9192 21.8038 21.0876 21.8038 20.0065C21.8038 19.5907 21.7206 19.2581 21.4712 19.0086H23.1344H28.2072V19.4244H27.5419V19.9234H28.2072V20.5055H27.5419V21.5866H28.2072V21.0876H29.2051V21.5866H29.8704V20.5055H29.2051V19.9234H29.8704V19.3413H29.2051V18.9255H30.5357C30.7852 18.9255 31.0347 18.676 31.0347 18.4265V18.177C30.9515 17.8444 30.7852 17.6781 30.5357 17.6781ZM20.889 19.9234C20.889 20.5055 20.4732 20.9213 19.8911 20.9213C19.309 20.9213 18.8932 20.5055 18.8932 19.9234C18.8932 19.7571 18.9763 19.5076 19.0595 19.3413L19.309 18.8423C19.1427 18.676 19.0595 18.4265 19.0595 18.2602C19.0595 18.0107 19.1427 17.7612 19.309 17.5949L19.0595 17.0959C18.9763 16.9296 18.8932 16.7633 18.8932 16.5138C18.8932 15.9317 19.309 15.5159 19.8911 15.5159C20.4732 15.5159 20.889 15.9317 20.889 16.5138C20.889 16.9296 20.3901 17.9275 20.3901 17.9275V18.4265C20.3901 18.5928 20.889 19.5076 20.889 19.9234Z" fill="#FFCB05"/>
<path fill-rule="evenodd" clip-rule="evenodd" d="M5.09839 16.5127V18.9243C5.09839 21.2528 6.09632 22.7497 6.67845 23.3318C7.0111 23.6645 10.4207 27.074 10.5039 27.074C11.585 28.1551 11.7513 28.4877 12.0008 29.0699V26.4087C12.0008 23.9971 10.7533 23.0823 10.1712 22.5002C8.75748 21.0865 7.75955 20.1717 6.92794 19.3401C5.51419 17.8433 5.09839 16.5127 5.09839 16.5127Z" fill="white"/>
<path fill-rule="evenodd" clip-rule="evenodd" d="M10.1201 28.4773C8.70637 27.0636 7.70843 26.1488 6.87682 25.3172C5.37992 23.8204 4.96411 22.8224 4.96411 22.8224V24.9846C4.96411 27.3131 6.04521 28.81 6.54417 29.3921C6.87682 29.7247 10.3696 33.1343 10.3696 33.1343C11.4507 34.2154 11.617 34.7143 11.8665 35.2965V32.469C11.9497 30.0574 10.7022 29.0595 10.1201 28.4773Z" fill="white"/>
<path fill-rule="evenodd" clip-rule="evenodd" d="M17.7894 5.63849C17.5399 5.63849 17.2904 5.63849 16.9578 5.63849V6.80273C17.2072 6.80273 17.4567 6.80273 17.7894 6.80273C26.355 6.71957 33.2573 13.705 33.2573 22.2705C33.2573 30.836 26.355 37.7383 17.7894 37.7383C9.22377 37.7383 2.23823 30.7528 2.23823 22.2705C2.23823 17.5304 4.40042 13.2892 7.72687 10.4618V9.04805C3.73513 12.0418 1.07397 16.8651 1.07397 22.3537C1.07397 31.5013 8.55848 38.9857 17.7062 38.9857C26.8539 38.9857 34.3384 31.5013 34.3384 22.3537C34.4216 13.0397 26.9371 5.63849 17.7894 5.63849Z" fill="white"/>
<path fill-rule="evenodd" clip-rule="evenodd" d="M29.5167 30.9819C29.7664 30.6492 30.016 30.2334 30.2656 29.9008V27.6555H29.5167V30.9819Z" fill="white"/>
<path fill-rule="evenodd" clip-rule="evenodd" d="M31.6789 26.7739C31.7621 26.4412 31.8452 26.1086 31.9284 25.7759H29.5167V26.3581H29.9325C30.5147 26.4412 31.2631 26.3581 31.6789 26.7739Z" fill="white"/>
<path d="M15.6923 25.7759H15.0266V32.4288H15.6923V25.7759Z" fill="white"/>
<path fill-rule="evenodd" clip-rule="evenodd" d="M13.4111 24.3954H15.5733C16.1555 24.3954 16.4881 24.4786 16.7376 24.7281C16.9871 24.9775 17.0702 25.3102 17.0702 25.8923V32.1293C17.0702 32.7114 16.9871 33.0441 16.7376 33.2935C16.4049 33.6262 15.7397 33.6262 15.2407 33.6262C15.1575 33.6262 14.9912 33.6262 14.908 33.6262V36.5368C15.1575 36.5368 15.3238 36.62 15.5733 36.62V34.2083C16.5713 34.2083 17.2366 33.8757 17.486 33.2104V36.7863C17.5692 36.7863 17.6524 36.7863 17.7355 36.7863C17.9018 36.7863 17.985 36.7863 18.1513 36.7863V25.9755C18.1513 25.3933 18.2345 24.9775 18.484 24.8112C18.7335 24.5617 19.0661 24.4786 19.6482 24.4786C20.2304 24.4786 21.062 24.3954 21.4778 24.8112C21.7273 25.0607 21.8104 25.4765 21.8104 25.9755V29.1355H20.3135V25.726H19.6482V36.62C19.8977 36.62 20.064 36.5368 20.3135 36.5368V29.884H21.8104V36.2873C22.1431 36.2042 22.3925 36.121 22.7252 36.0378V30.1335C22.7252 29.4682 22.8915 28.9692 23.5568 28.7197L22.8084 24.6449H24.3053L24.5547 29.1355H24.7211L24.9705 24.6449H26.5506L25.719 28.7197C26.4674 28.9692 26.5506 29.385 26.5506 30.1335V33.9588C26.9664 33.6262 27.3822 33.2935 27.798 32.8777V24.6449H32.2056C32.2056 24.4786 32.2887 24.2291 32.2887 24.0628H21.9767L22.1431 24.8112C21.8104 24.2291 21.2283 23.8965 20.3135 23.8965H19.6482C18.5671 23.8965 17.9018 24.3123 17.6524 25.227C17.4029 24.3123 16.7376 23.8965 15.5733 23.8965H12.7458V36.0378C12.9953 36.121 13.1617 36.2042 13.4111 36.2873V24.3954ZM27.0496 29.1355L26.3011 28.4703L27.0496 24.8112V29.1355Z" fill="white"/>
<path fill-rule="evenodd" clip-rule="evenodd" d="M24.2842 35.3942C24.5338 35.311 24.7002 35.1447 24.9499 35.0616V30.072H24.2842V35.3942Z" fill="white"/>
</svg>
