<svg width="32" height="32" viewBox="0 0 32 32" fill="none" xmlns="http://www.w3.org/2000/svg">
<circle cx="16" cy="16" r="15.5" stroke="#BDBDBD"/>
<path fill-rule="evenodd" clip-rule="evenodd" d="M20.4755 19.4092C20.5535 19.2142 20.6446 18.9152 20.6705 18.3691L20.6713 18.3523C20.6967 17.7761 20.7052 17.5834 20.7052 16.1025C20.7052 14.6272 20.6968 14.4346 20.6716 13.8594L20.6705 13.8359C20.6446 13.2899 20.5535 12.9951 20.4755 12.7958C20.3715 12.5314 20.2502 12.3451 20.0552 12.1501C19.8601 11.955 19.6695 11.8294 19.4094 11.7297C19.2144 11.6517 18.9154 11.5607 18.3693 11.5347C17.7799 11.5043 17.5979 11.5 16.1027 11.5C14.6274 11.5 14.4348 11.5084 13.8596 11.5336H13.8595L13.8361 11.5347C13.29 11.5607 12.9954 11.6517 12.796 11.7297C12.5316 11.8337 12.3453 11.955 12.1503 12.1501C11.9552 12.3451 11.8296 12.5358 11.7299 12.7958C11.6519 12.9908 11.5609 13.2899 11.5349 13.8359C11.5045 14.4253 11.5002 14.6074 11.5002 16.1025C11.5002 17.5778 11.5086 17.7704 11.5338 18.3456L11.5338 18.3456L11.5349 18.3691C11.5609 18.9152 11.6519 19.2099 11.7299 19.4092C11.8339 19.6736 11.9552 19.8599 12.1503 20.0549C12.3453 20.25 12.5359 20.3757 12.796 20.4754C12.991 20.5534 13.29 20.6443 13.8361 20.6704C14.4255 20.7007 14.6032 20.705 16.1027 20.705C17.5778 20.705 17.7696 20.6966 18.3406 20.6716L18.341 20.6716L18.3693 20.6704C18.9154 20.6443 19.21 20.5534 19.4094 20.4754C19.6738 20.3713 19.8601 20.25 20.0552 20.0549C20.2502 19.8599 20.3759 19.6692 20.4755 19.4092ZM16.1032 13.2204C14.5126 13.2204 13.2212 14.5119 13.2212 16.1024C13.2212 17.6929 14.5126 18.9844 16.1032 18.9844C17.6936 18.9844 18.9851 17.6929 18.9851 16.1024C18.9851 14.5119 17.6936 13.2204 16.1032 13.2204ZM19.0994 13.781C19.4704 13.781 19.7711 13.4803 19.7711 13.1093C19.7711 12.7383 19.4704 12.4375 19.0994 12.4375C18.7284 12.4375 18.4276 12.7383 18.4276 13.1093C18.4276 13.4803 18.7284 13.781 19.0994 13.781Z" fill="#1C1C1C"/>
<path fill-rule="evenodd" clip-rule="evenodd" d="M16.1042 17.9729C15.0728 17.9729 14.232 17.1365 14.232 16.1007C14.232 15.0693 15.0685 14.2285 16.1042 14.2285C17.14 14.2285 17.9764 15.0649 17.9764 16.1007C17.9764 17.1321 17.1357 17.9729 16.1042 17.9729Z" fill="#1C1C1C"/>
</svg>
