<svg width="32" height="32" viewBox="0 0 32 32" fill="none" xmlns="http://www.w3.org/2000/svg">
<circle cx="16" cy="16" r="15.5" stroke="#BDBDBD"/>
<path fill-rule="evenodd" clip-rule="evenodd" d="M15.5184 13.8272C15.4561 12.9367 16.004 12.123 16.871 11.8075C17.1901 11.6953 17.7313 11.6814 18.0852 11.7794C18.2243 11.8215 18.4874 11.9618 18.6747 12.088L19.0148 12.3197L19.3892 12.2002C19.5973 12.1372 19.8748 12.032 19.9995 11.9618C20.1177 11.8986 20.2217 11.8638 20.2217 11.8847C20.2217 12.0039 19.9648 12.4107 19.75 12.6351C19.4583 12.9506 19.5417 12.9788 20.1313 12.7682C20.4848 12.649 20.4921 12.649 20.4226 12.7824C20.3809 12.8526 20.1661 13.0979 19.937 13.3224C19.5487 13.708 19.5278 13.75 19.5278 14.0728C19.5278 14.5703 19.2921 15.6085 19.0561 16.1761C18.6188 17.2424 17.6827 18.3434 16.7462 18.8976C15.4283 19.6758 13.6732 19.8724 12.1958 19.4166C11.7036 19.262 10.8571 18.8694 10.8571 18.7996C10.8571 18.7784 11.1137 18.7502 11.4262 18.7433C12.0783 18.7297 12.7305 18.5476 13.2853 18.2246L13.6596 18.0001L13.2296 17.8531C12.6193 17.6426 12.0714 17.1587 11.9327 16.7028C11.891 16.5552 11.9049 16.5482 12.2932 16.5482L12.6954 16.5413L12.3554 16.3801C11.9529 16.1765 11.5855 15.8332 11.405 15.4823C11.2733 15.2297 11.1071 14.5918 11.1554 14.5425C11.1693 14.5216 11.315 14.5637 11.4815 14.6196C11.9598 14.7951 12.0224 14.753 11.745 14.4585C11.225 13.9255 11.0654 13.133 11.315 12.3825L11.4328 12.0459L11.8906 12.5017C12.8271 13.4207 13.9301 13.9675 15.1924 14.1288L15.5393 14.1708L15.5184 13.8272Z" fill="#1C1C1C"/>
</svg>
