<svg width="120" height="120" viewBox="0 0 120 120" fill="none" xmlns="http://www.w3.org/2000/svg">
<path d="M60 120C93.1371 120 120 93.1371 120 60C120 26.8629 93.1371 0 60 0C26.8629 0 0 26.8629 0 60C0 93.1371 26.8629 120 60 120Z" fill="white"/>
<path d="M88 32H32V88H88V32Z" fill="white"/>
<path fill-rule="evenodd" clip-rule="evenodd" d="M38.0293 34.1174C35.2679 34.1174 33.0293 36.356 33.0293 39.1174V48.9647V68.8828C33.0293 71.6442 35.2679 73.8828 38.0293 73.8828H82.9008C85.6622 73.8828 87.9008 71.6442 87.9008 68.8828V56.5178C87.9008 55.9655 87.4531 55.5178 86.9008 55.5178C86.3485 55.5178 85.9008 55.9655 85.9008 56.5178V68.8828C85.9008 70.5396 84.5577 71.8828 82.9008 71.8828H38.0293C36.3724 71.8828 35.0293 70.5396 35.0293 68.8828V49.9647H82.9008C85.6622 49.9647 87.9008 47.7262 87.9008 44.9647V39.1174C87.9008 36.356 85.6622 34.1174 82.9008 34.1174H38.0293ZM82.9008 47.9647H35.0293V39.1174C35.0293 37.4606 36.3724 36.1174 38.0293 36.1174H82.9008C84.5577 36.1174 85.9008 37.4606 85.9008 39.1174V44.9647C85.9008 46.6216 84.5577 47.9647 82.9008 47.9647ZM66.7585 57.7767C66.0633 57.7767 65.4997 58.3403 65.4997 59.0355C65.4997 59.7308 66.0633 60.2944 66.7585 60.2944H76.8293C77.5245 60.2944 78.0881 59.7308 78.0881 59.0355C78.0881 58.3403 77.5245 57.7767 76.8293 57.7767H66.7585Z" fill="#C8CFD6"/>
<path d="M60 56H40V84H60V56Z" fill="white"/>
<path fill-rule="evenodd" clip-rule="evenodd" d="M39.2222 59.0002C39.2222 57.3433 40.5653 56.0002 42.2222 56.0002H57.7776C59.4345 56.0002 60.7776 57.3433 60.7776 59.0002V75.9445C60.7776 76.4968 60.3299 76.9445 59.7776 76.9445C59.2253 76.9445 58.7776 76.4968 58.7776 75.9445V59.0002C58.7776 58.4479 58.3299 58.0002 57.7776 58.0002H42.2222C41.6699 58.0002 41.2222 58.4479 41.2222 59.0002V79.9859C41.2222 80.5943 41.9002 80.9572 42.4065 80.6197C43.2945 80.0277 44.4441 80.0004 45.3593 80.5495L46.4299 81.1918C46.7465 81.3818 47.1422 81.3818 47.4588 81.1918L48.544 80.5407C49.4235 80.013 50.5117 79.9712 51.4291 80.4299L53.0082 81.2195C53.347 81.3888 53.7524 81.3523 54.0554 81.125L54.3789 80.8824C55.3965 80.1192 56.7847 80.0807 57.843 80.7862L60.3323 82.4457C60.7918 82.7521 60.916 83.3729 60.6097 83.8325C60.3033 84.292 59.6824 84.4162 59.2229 84.1098L56.7336 82.4503C56.3809 82.2151 55.9181 82.228 55.5789 82.4824L55.2554 82.725C54.3463 83.4068 53.1301 83.5165 52.1137 83.0083L50.5347 82.2188C50.2289 82.0659 49.8661 82.0798 49.5729 82.2557L48.4878 82.9068C47.5378 83.4768 46.3509 83.4768 45.4009 82.9068L44.3303 82.2644C44.0779 82.113 43.7608 82.1205 43.5159 82.2838C41.6805 83.5074 39.2222 82.1917 39.2222 79.9859V59.0002ZM45.111 64.5557C45.111 64.0034 45.5587 63.5557 46.111 63.5557H53.8887C54.441 63.5557 54.8887 64.0034 54.8887 64.5557C54.8887 65.1079 54.441 65.5557 53.8887 65.5557H46.111C45.5587 65.5557 45.111 65.1079 45.111 64.5557ZM46.111 68.4445C45.5587 68.4445 45.111 68.8923 45.111 69.4445C45.111 69.9968 45.5587 70.4445 46.111 70.4445H53.8887C54.441 70.4445 54.8887 69.9968 54.8887 69.4445C54.8887 68.8923 54.441 68.4445 53.8887 68.4445H46.111Z" fill="#42AB44"/>
</svg>
