<svg width="120" height="120" viewBox="0 0 120 120" fill="none" xmlns="http://www.w3.org/2000/svg">
<path d="M60 120C93.1371 120 120 93.1371 120 60C120 26.8629 93.1371 0 60 0C26.8629 0 0 26.8629 0 60C0 93.1371 26.8629 120 60 120Z" fill="white"/>
<path d="M88 32H32V88H88V32Z" fill="white"/>
<path d="M69.8332 37.3876L70.526 36.6665L69.8332 37.3876ZM69.8332 37.3876C70.3023 37.8383 70.903 38.1276 71.5479 38.2134L74.0519 38.5463C74.3835 38.5904 74.6745 38.7889 74.8367 39.0813L76.0614 41.2906C76.3768 41.8596 76.8656 42.3131 77.4566 42.5851L79.7512 43.6414C80.055 43.7812 80.2746 44.0566 80.3434 44.3839L80.8625 46.856C80.9962 47.4927 81.3296 48.0701 81.8141 48.5043L83.6955 50.1899C83.9445 50.4131 84.0732 50.741 84.0425 51.074L83.8099 53.5893C83.7499 54.2372 83.8983 54.8872 84.2334 55.4449L85.5343 57.6102C85.7065 57.8968 85.7328 58.2481 85.6053 58.5573L84.6416 60.8923C84.3934 61.4936 84.3436 62.1585 84.4994 62.7902L85.1043 65.2427C85.1843 65.5674 85.1059 65.9109 84.8929 66.1687L83.2838 68.1159C82.8694 68.6174 82.6258 69.238 82.5885 69.8875L82.4436 72.4094C82.4244 72.7433 82.2483 73.0484 81.9687 73.2319L79.8571 74.6184C79.3133 74.9754 78.8976 75.4967 78.6705 76.1064L77.7887 78.4735C77.672 78.7869 77.4137 79.0265 77.0925 79.1195L74.6661 79.8219C74.0411 80.0028 73.4903 80.3784 73.0936 80.8941L71.5532 82.8961C71.3493 83.1612 71.0319 83.314 70.6975 83.3082L68.1719 83.2642C67.5214 83.2529 66.8842 83.4494 66.3532 83.8252L64.2911 85.2843C64.0182 85.4775 63.6698 85.53 63.352 85.4258L60.9515 84.6394C60.3333 84.4368 59.6665 84.4368 59.0483 84.6394L56.6478 85.4259C56.33 85.53 55.9816 85.4775 55.7086 85.2843L53.6466 83.8252C53.1156 83.4494 52.4784 83.2529 51.828 83.2642L49.3023 83.3082C48.9679 83.314 48.6505 83.1612 48.4466 82.8961L46.9062 80.8941C46.5095 80.3784 45.9586 80.0028 45.3337 79.8219L42.9073 79.1195C42.5861 79.0265 42.3278 78.7869 42.2111 78.4735L41.3293 76.1064C41.1022 75.4967 40.6865 74.9754 40.1427 74.6184L38.0311 73.2319C37.7515 73.0484 37.5754 72.7433 37.5562 72.4094L37.4113 69.8875C37.374 69.238 37.1304 68.6174 36.716 68.1159L35.9451 68.7529L36.716 68.1159L35.1069 66.1687L34.336 66.8057L35.1069 66.1687C34.8939 65.9109 34.8155 65.5674 34.8955 65.2427L35.5004 62.7902C35.6562 62.1585 35.6064 61.4936 35.3582 60.8923L34.3945 58.5573C34.267 58.2481 34.2933 57.8968 34.4655 57.6102L35.7664 55.4449C36.1015 54.8872 36.2498 54.2372 36.1899 53.5893L35.9573 51.074C35.9266 50.741 36.0553 50.4131 36.3043 50.1899L38.1857 48.5043C38.6702 48.0701 39.0036 47.4927 39.1373 46.856L39.6564 44.3839C39.7252 44.0566 39.9448 43.7812 40.2486 43.6414L42.5432 42.5851C43.1342 42.3131 43.623 41.8596 43.9384 41.2906L45.1631 39.0813C45.3253 38.7889 45.6163 38.5904 45.9478 38.5463L48.4519 38.2134C49.0968 38.1276 49.6975 37.8384 50.1666 37.3876L51.9881 35.6375C52.2293 35.4058 52.5659 35.3019 52.8957 35.3575L55.3866 35.7775C56.0281 35.8856 56.6874 35.7862 57.2686 35.4938L59.525 34.3583C59.8238 34.208 60.176 34.208 60.4748 34.3583L62.7312 35.4938C63.3124 35.7862 63.9717 35.8856 64.6132 35.7775L67.1041 35.3575C67.4339 35.3019 67.7705 35.4058 68.0117 35.6375L69.8332 37.3876Z" stroke="#C8CFD6" stroke-width="2"/>
<path fill-rule="evenodd" clip-rule="evenodd" d="M56.8284 56.8284C55.2663 58.3905 52.7337 58.3905 51.1716 56.8284C49.6095 55.2663 49.6095 52.7337 51.1716 51.1716C52.7337 49.6095 55.2663 49.6095 56.8284 51.1716C58.3905 52.7337 58.3905 55.2663 56.8284 56.8284ZM58.2426 58.2426C55.8995 60.5858 52.1005 60.5858 49.7574 58.2426C47.4142 55.8995 47.4142 52.1005 49.7574 49.7574C52.1005 47.4142 55.8995 47.4142 58.2426 49.7574C60.5858 52.1005 60.5858 55.8995 58.2426 58.2426ZM68.8477 51.8787C69.2383 52.2692 69.2383 52.9024 68.8477 53.2929L53.2914 68.8492C52.9009 69.2398 52.2677 69.2398 51.8772 68.8492C51.4866 68.4587 51.4866 67.8256 51.8772 67.435L67.4335 51.8787C67.824 51.4882 68.4572 51.4882 68.8477 51.8787ZM63.8981 69.5563C65.4602 71.1184 67.9929 71.1184 69.555 69.5563C71.1171 67.9942 71.1171 65.4616 69.555 63.8995C67.9929 62.3374 65.4602 62.3374 63.8981 63.8995C62.336 65.4616 62.336 67.9942 63.8981 69.5563ZM62.4839 70.9705C64.8271 73.3137 68.6261 73.3137 70.9692 70.9705C73.3123 68.6274 73.3123 64.8284 70.9692 62.4853C68.6261 60.1421 64.8271 60.1421 62.4839 62.4853C60.1408 64.8284 60.1408 68.6274 62.4839 70.9705Z" fill="#42AB44"/>
</svg>
