<svg width="54" height="54" viewBox="0 0 54 54" fill="none" xmlns="http://www.w3.org/2000/svg">
<path d="M27 54C41.9117 54 54 41.9117 54 27C54 12.0883 41.9117 0 27 0C12.0883 0 0 12.0883 0 27C0 41.9117 12.0883 54 27 54Z" fill="#F5F7F9"/>
<path d="M35 37L32.8171 35.7934C32.516 35.627 32.1506 35.627 31.8496 35.7934L30.1504 36.7326C29.8494 36.899 29.484 36.899 29.1829 36.7326L27.4838 35.7934C27.1827 35.627 26.8173 35.627 26.5162 35.7934L24.8171 36.7326C24.5161 36.899 24.1506 36.899 23.8496 36.7326L22.1504 35.7934C21.8494 35.627 21.484 35.627 21.1829 35.7934L19 37V18C19 16.8954 19.8954 16 21 16H33C34.1046 16 35 16.8954 35 18V31.5" stroke="#BDBDBD" stroke-width="2" stroke-linecap="round" stroke-linejoin="round"/>
<path d="M24.001 22.8281H30.001" stroke="#BDBDBD" stroke-width="2" stroke-linecap="round"/>
<path d="M24.001 27.1997H30.001" stroke="#BDBDBD" stroke-width="2" stroke-linecap="round"/>
</svg>
