<svg width="54" height="54" viewBox="0 0 54 54" fill="none" xmlns="http://www.w3.org/2000/svg">
<path d="M27 54C41.9117 54 54 41.9117 54 27C54 12.0883 41.9117 0 27 0C12.0883 0 0 12.0883 0 27C0 41.9117 12.0883 54 27 54Z" fill="#F5F7F9"/>
<path fill-rule="evenodd" clip-rule="evenodd" d="M18.5 39C17.9477 39 17.5 38.5523 17.5 38V18C17.5 16.3431 18.8431 15 20.5 15H34.5C34.8466 15.001 35.1679 15.1815 35.3492 15.4769C35.5305 15.7723 35.546 16.1405 35.39 16.45L32.61 22L35.39 27.55C35.546 27.8595 35.5305 28.2277 35.3492 28.5231C35.1679 28.8185 34.8466 28.999 34.5 29H22.5C21.9477 29 21.5 28.5523 21.5 28C21.5 27.4477 21.9477 27 22.5 27H32.88L30.83 22.89C30.5481 22.3266 30.5481 21.6634 30.83 21.1L32.88 16.99H20.5C19.9477 16.99 19.5 17.4377 19.5 17.99V37.99C19.5027 38.2569 19.3985 38.5139 19.2107 38.7036C19.0228 38.8933 18.767 39 18.5 39Z" fill="#BDBDBD"/>
</svg>
