<svg width="54" height="54" viewBox="0 0 54 54" fill="none" xmlns="http://www.w3.org/2000/svg">
<path d="M27 54C41.9117 54 54 41.9117 54 27C54 12.0883 41.9117 0 27 0C12.0883 0 0 12.0883 0 27C0 41.9117 12.0883 54 27 54Z" fill="#F5F7F9"/>
<path d="M30 29H34M16 22V21C16 19.8954 16.8954 19 18 19H36C37.1046 19 38 19.8954 38 21V25H17C16.4477 25 16 25.4477 16 26V33C16 34.1046 16.8954 35 18 35H36C37.1046 35 38 34.1046 38 33V29L16 22Z" stroke="#BDBDBD" stroke-width="2" stroke-linecap="round" stroke-linejoin="round"/>
</svg>
